<svg xmlns="http://www.w3.org/2000/svg" xmlns:xlink="http://www.w3.org/1999/xlink" width="150" zoomAndPan="magnify" viewBox="0 0 112.5 112.499997" height="150" preserveAspectRatio="xMidYMid meet" version="1.0"><defs><g/><clipPath id="73076cfbc3"><path d="M 0 0 L 112.003906 0 L 112.003906 112.003906 L 0 112.003906 Z M 0 0 " clip-rule="nonzero"/></clipPath></defs><g clip-path="url(#73076cfbc3)"><path fill="#ffffff" d="M 0 0 L 112.003906 0 L 112.003906 112.003906 L 0 112.003906 Z M 0 0 " fill-opacity="1" fill-rule="nonzero"/><path fill="#fef74b" d="M 0 0 L 112.003906 0 L 112.003906 112.003906 L 0 112.003906 Z M 0 0 " fill-opacity="1" fill-rule="nonzero"/></g><g fill="#504081" fill-opacity="1"><g transform="translate(11.547115, 57.844123)"><g><path d="M 15.21875 -6.625 C 15.707031 -6.738281 16.195312 -6.910156 16.6875 -7.140625 C 17.175781 -7.367188 17.695312 -7.484375 18.25 -7.484375 C 18.289062 -7.484375 18.335938 -7.476562 18.390625 -7.46875 C 18.453125 -7.457031 18.503906 -7.453125 18.546875 -7.453125 C 19.523438 -7.390625 20.296875 -7.085938 20.859375 -6.546875 C 21.421875 -6.003906 21.828125 -5.316406 22.078125 -4.484375 C 22.335938 -3.648438 22.5 -2.753906 22.5625 -1.796875 C 22.632812 -0.835938 22.671875 0.09375 22.671875 1 C 22.867188 0.957031 23.113281 0.828125 23.40625 0.609375 C 23.695312 0.398438 23.984375 0.175781 24.265625 -0.0625 C 24.554688 -0.3125 24.78125 -0.488281 24.9375 -0.59375 L 26.53125 -1.9375 C 26.957031 -2.289062 27.453125 -2.753906 28.015625 -3.328125 C 28.585938 -3.910156 29.070312 -4.410156 29.46875 -4.828125 C 29.78125 -5.160156 29.988281 -5.421875 30.09375 -5.609375 C 30.207031 -5.796875 30.476562 -5.890625 30.90625 -5.890625 C 30.945312 -5.890625 30.984375 -5.890625 31.015625 -5.890625 C 31.046875 -5.890625 31.070312 -5.890625 31.09375 -5.890625 C 31.164062 -5.628906 31.203125 -5.445312 31.203125 -5.34375 C 31.203125 -5.238281 31.113281 -5.078125 30.9375 -4.859375 C 30.820312 -4.703125 30.71875 -4.5625 30.625 -4.4375 C 30.539062 -4.320312 30.421875 -4.207031 30.265625 -4.09375 C 30.148438 -3.9375 30.0625 -3.800781 30 -3.6875 C 29.9375 -3.582031 29.816406 -3.460938 29.640625 -3.328125 C 29.460938 -3.085938 29.25 -2.878906 29 -2.703125 L 26.203125 -0.09375 C 25.984375 0.125 25.742188 0.332031 25.484375 0.53125 C 25.234375 0.726562 24.972656 0.925781 24.703125 1.125 C 24.109375 1.570312 23.660156 1.890625 23.359375 2.078125 C 23.054688 2.265625 22.84375 2.421875 22.71875 2.546875 C 22.601562 2.671875 22.523438 2.835938 22.484375 3.046875 C 22.453125 3.253906 22.382812 3.601562 22.28125 4.09375 C 21.851562 6.445312 21.113281 8.691406 20.0625 10.828125 C 19.007812 12.972656 17.628906 14.898438 15.921875 16.609375 C 14.691406 17.835938 13.476562 18.722656 12.28125 19.265625 C 11.082031 19.804688 9.984375 20.078125 8.984375 20.078125 C 7.898438 20.078125 6.992188 19.789062 6.265625 19.21875 C 5.546875 18.65625 5.113281 17.882812 4.96875 16.90625 C 4.832031 15.9375 5.070312 14.84375 5.6875 13.625 C 6.132812 12.78125 6.691406 11.984375 7.359375 11.234375 C 8.023438 10.492188 8.722656 9.847656 9.453125 9.296875 C 11.117188 7.984375 12.753906 6.867188 14.359375 5.953125 C 15.972656 5.046875 17.671875 4.082031 19.453125 3.0625 C 19.960938 2.769531 20.347656 2.550781 20.609375 2.40625 C 20.878906 2.269531 21.054688 2.054688 21.140625 1.765625 L 21.140625 1.671875 C 21.253906 1.023438 21.3125 0.265625 21.3125 -0.609375 C 21.3125 -1.492188 21.21875 -2.359375 21.03125 -3.203125 C 20.84375 -4.046875 20.523438 -4.75 20.078125 -5.3125 C 19.628906 -5.875 19.019531 -6.15625 18.25 -6.15625 C 17.894531 -6.15625 17.515625 -6.085938 17.109375 -5.953125 C 16.203125 -5.671875 15.507812 -5.375 15.03125 -5.0625 C 14.550781 -4.75 14.148438 -4.441406 13.828125 -4.140625 C 13.515625 -3.847656 13.101562 -3.535156 12.59375 -3.203125 C 12.519531 -3.171875 12.46875 -3.132812 12.4375 -3.09375 C 12.40625 -3.050781 12.332031 -3.03125 12.21875 -3.03125 C 12.195312 -3.03125 12.160156 -3.035156 12.109375 -3.046875 C 12.066406 -3.054688 12.023438 -3.0625 11.984375 -3.0625 C 11.628906 -3.125 11.457031 -3.28125 11.46875 -3.53125 C 11.476562 -3.789062 11.578125 -4.066406 11.765625 -4.359375 C 11.953125 -4.648438 12.101562 -4.863281 12.21875 -5 C 12.332031 -5.175781 12.4375 -5.328125 12.53125 -5.453125 C 12.632812 -5.585938 12.742188 -5.734375 12.859375 -5.890625 C 13.742188 -7.179688 14.628906 -8.4375 15.515625 -9.65625 C 16.398438 -10.875 17.242188 -12.160156 18.046875 -13.515625 C 18.316406 -13.984375 18.628906 -14.613281 18.984375 -15.40625 C 19.335938 -16.207031 19.675781 -17.082031 20 -18.03125 C 20.320312 -18.976562 20.566406 -19.914062 20.734375 -20.84375 C 20.898438 -21.78125 20.90625 -22.625 20.75 -23.375 C 20.65625 -23.820312 20.523438 -24.132812 20.359375 -24.3125 C 20.191406 -24.488281 20 -24.578125 19.78125 -24.578125 C 19.507812 -24.578125 19.207031 -24.46875 18.875 -24.25 C 18.539062 -24.039062 18.222656 -23.796875 17.921875 -23.515625 C 17.628906 -23.242188 17.382812 -23.007812 17.1875 -22.8125 C 16.25 -21.875 15.351562 -20.726562 14.5 -19.375 C 13.644531 -18.019531 12.847656 -16.554688 12.109375 -14.984375 C 11.378906 -13.410156 10.703125 -11.796875 10.078125 -10.140625 C 9.460938 -8.484375 8.910156 -6.867188 8.421875 -5.296875 C 7.929688 -3.722656 7.519531 -2.28125 7.1875 -0.96875 C 6.96875 -0.101562 6.742188 0.734375 6.515625 1.546875 C 6.296875 2.359375 6.097656 3.21875 5.921875 4.125 L 5.296875 8.359375 C 5.222656 8.648438 5.15625 8.835938 5.09375 8.921875 C 5.03125 9.015625 4.875 9.113281 4.625 9.21875 C 4.207031 9.132812 3.992188 8.96875 3.984375 8.71875 C 3.972656 8.476562 3.976562 8.144531 4 7.71875 L 4.625 1.46875 C 4.875 -1.351562 5.191406 -4.132812 5.578125 -6.875 C 5.960938 -9.613281 6.300781 -12.375 6.59375 -15.15625 C 6.707031 -15.84375 6.800781 -16.539062 6.875 -17.25 C 6.957031 -17.957031 7 -18.65625 7 -19.34375 C 7 -19.695312 7.007812 -20.101562 7.03125 -20.5625 C 7.050781 -21.019531 7.039062 -21.398438 7 -21.703125 C 6.925781 -22.085938 6.859375 -22.414062 6.796875 -22.6875 C 6.742188 -22.96875 6.675781 -23.265625 6.59375 -23.578125 C 6.238281 -23.554688 5.929688 -23.359375 5.671875 -22.984375 C 5.421875 -22.617188 5.207031 -22.28125 5.03125 -21.96875 C 4.09375 -20.570312 3.289062 -19.015625 2.625 -17.296875 C 1.957031 -15.578125 1.503906 -13.863281 1.265625 -12.15625 C 1.171875 -11.550781 1.113281 -10.859375 1.09375 -10.078125 C 1.070312 -9.304688 1.148438 -8.65625 1.328125 -8.125 C 1.460938 -7.789062 1.617188 -7.582031 1.796875 -7.5 C 1.972656 -7.425781 2.144531 -7.390625 2.3125 -7.390625 C 2.476562 -7.390625 2.597656 -7.34375 2.671875 -7.25 C 2.753906 -7.164062 2.765625 -6.957031 2.703125 -6.625 C 2.410156 -6.5625 2.128906 -6.53125 1.859375 -6.53125 C 1.503906 -6.53125 1.222656 -6.613281 1.015625 -6.78125 C 0.804688 -6.945312 0.613281 -7.195312 0.4375 -7.53125 C 0.144531 -8.164062 0 -8.863281 0 -9.625 C 0 -10.394531 0.046875 -11.128906 0.140625 -11.828125 C 0.242188 -12.929688 0.457031 -14.023438 0.78125 -15.109375 C 1.101562 -16.203125 1.453125 -17.257812 1.828125 -18.28125 L 2.859375 -20.546875 C 2.972656 -20.785156 3.15625 -21.148438 3.40625 -21.640625 C 3.664062 -22.128906 3.972656 -22.628906 4.328125 -23.140625 C 4.679688 -23.648438 5.050781 -24.082031 5.4375 -24.4375 C 5.832031 -24.789062 6.226562 -24.96875 6.625 -24.96875 C 7 -24.96875 7.332031 -24.78125 7.625 -24.40625 C 8 -23.9375 8.25 -23.378906 8.375 -22.734375 C 8.5 -22.097656 8.554688 -21.4375 8.546875 -20.75 C 8.535156 -20.0625 8.53125 -19.414062 8.53125 -18.8125 C 8.53125 -18.257812 8.5 -17.753906 8.4375 -17.296875 C 8.382812 -16.835938 8.335938 -16.34375 8.296875 -15.8125 C 8.242188 -14.8125 8.148438 -13.828125 8.015625 -12.859375 C 7.890625 -11.898438 7.75 -10.921875 7.59375 -9.921875 L 7.09375 -5.625 C 7.050781 -5.332031 7.003906 -5.082031 6.953125 -4.875 C 6.910156 -4.664062 6.890625 -4.425781 6.890625 -4.15625 C 7.046875 -4.363281 7.15625 -4.609375 7.21875 -4.890625 C 7.289062 -5.179688 7.359375 -5.4375 7.421875 -5.65625 L 7.890625 -7.15625 C 8.460938 -9.0625 9.15625 -10.96875 9.96875 -12.875 C 10.78125 -14.789062 11.65625 -16.613281 12.59375 -18.34375 C 12.945312 -18.925781 13.398438 -19.640625 13.953125 -20.484375 C 14.503906 -21.328125 15.117188 -22.15625 15.796875 -22.96875 C 16.472656 -23.789062 17.164062 -24.472656 17.875 -25.015625 C 18.59375 -25.566406 19.28125 -25.84375 19.9375 -25.84375 C 20.476562 -25.84375 20.945312 -25.625 21.34375 -25.1875 C 21.738281 -24.757812 22.015625 -24.097656 22.171875 -23.203125 C 22.328125 -22.273438 22.3125 -21.285156 22.125 -20.234375 C 21.9375 -19.191406 21.640625 -18.140625 21.234375 -17.078125 C 20.835938 -16.015625 20.390625 -14.988281 19.890625 -14 C 19.390625 -13.007812 18.894531 -12.117188 18.40625 -11.328125 C 18.226562 -11.054688 17.984375 -10.691406 17.671875 -10.234375 C 17.367188 -9.785156 17.046875 -9.316406 16.703125 -8.828125 C 16.359375 -8.335938 16.046875 -7.890625 15.765625 -7.484375 C 15.484375 -7.085938 15.300781 -6.800781 15.21875 -6.625 Z M 8.921875 18.953125 C 9.410156 18.953125 9.910156 18.859375 10.421875 18.671875 C 10.929688 18.492188 11.351562 18.332031 11.6875 18.1875 C 12.945312 17.539062 14.039062 16.734375 14.96875 15.765625 C 15.90625 14.796875 16.726562 13.722656 17.4375 12.546875 C 18.15625 11.367188 18.789062 10.160156 19.34375 8.921875 C 19.457031 8.679688 19.597656 8.328125 19.765625 7.859375 C 19.929688 7.390625 20.097656 6.882812 20.265625 6.34375 C 20.429688 5.800781 20.566406 5.296875 20.671875 4.828125 C 20.785156 4.359375 20.84375 3.992188 20.84375 3.734375 L 13.21875 8.09375 L 10.28125 10.21875 C 9.90625 10.507812 9.460938 10.90625 8.953125 11.40625 C 8.441406 11.90625 8.03125 12.351562 7.71875 12.75 C 6.832031 13.90625 6.328125 14.945312 6.203125 15.875 C 6.085938 16.8125 6.28125 17.554688 6.78125 18.109375 C 7.28125 18.671875 7.992188 18.953125 8.921875 18.953125 Z M 8.921875 18.953125 "/></g></g></g><g fill="#504081" fill-opacity="1"><g transform="translate(41.352379, 57.844123)"><g><path d="M 0.03125 -4.0625 C 0.03125 -4.550781 0.101562 -5.09375 0.25 -5.6875 C 0.394531 -6.289062 0.582031 -6.875 0.8125 -7.4375 C 1.050781 -8.007812 1.300781 -8.472656 1.5625 -8.828125 C 1.8125 -9.085938 2.054688 -9.21875 2.296875 -9.21875 C 2.492188 -9.21875 2.691406 -9.164062 2.890625 -9.0625 C 2.921875 -8.945312 2.953125 -8.863281 2.984375 -8.8125 C 3.015625 -8.769531 3.03125 -8.675781 3.03125 -8.53125 C 3.03125 -8.5 2.929688 -8.285156 2.734375 -7.890625 C 2.535156 -7.492188 2.316406 -6.992188 2.078125 -6.390625 C 1.847656 -5.796875 1.660156 -5.164062 1.515625 -4.5 C 1.367188 -3.832031 1.363281 -3.21875 1.5 -2.65625 C 1.757812 -2.75 1.988281 -2.921875 2.1875 -3.171875 C 2.394531 -3.429688 2.578125 -3.671875 2.734375 -3.890625 L 4.734375 -6.828125 C 4.953125 -7.140625 5.140625 -7.410156 5.296875 -7.640625 C 5.453125 -7.867188 5.6875 -7.984375 6 -7.984375 C 6.300781 -7.984375 6.476562 -7.789062 6.53125 -7.40625 C 6.59375 -7.019531 6.609375 -6.582031 6.578125 -6.09375 C 6.546875 -5.601562 6.539062 -5.210938 6.5625 -4.921875 C 6.664062 -4.128906 6.832031 -3.570312 7.0625 -3.25 C 7.300781 -2.925781 7.578125 -2.765625 7.890625 -2.765625 C 8.265625 -2.765625 8.660156 -2.921875 9.078125 -3.234375 C 9.503906 -3.546875 9.925781 -3.90625 10.34375 -4.3125 C 10.769531 -4.71875 11.144531 -5.078125 11.46875 -5.390625 C 11.789062 -5.703125 12.03125 -5.859375 12.1875 -5.859375 C 12.320312 -5.859375 12.441406 -5.828125 12.546875 -5.765625 C 12.660156 -5.710938 12.71875 -5.597656 12.71875 -5.421875 C 12.71875 -5.242188 12.582031 -5.003906 12.3125 -4.703125 C 12.050781 -4.410156 11.765625 -4.125 11.453125 -3.84375 C 11.140625 -3.5625 10.914062 -3.359375 10.78125 -3.234375 C 10.34375 -2.804688 9.863281 -2.441406 9.34375 -2.140625 C 8.820312 -1.847656 8.304688 -1.703125 7.796875 -1.703125 C 7.234375 -1.703125 6.796875 -1.847656 6.484375 -2.140625 C 6.179688 -2.441406 5.957031 -2.820312 5.8125 -3.28125 C 5.664062 -3.738281 5.566406 -4.210938 5.515625 -4.703125 C 5.472656 -5.203125 5.453125 -5.65625 5.453125 -6.0625 C 5.328125 -5.96875 5.164062 -5.769531 4.96875 -5.46875 C 4.78125 -5.175781 4.632812 -4.941406 4.53125 -4.765625 C 4.394531 -4.535156 4.203125 -4.226562 3.953125 -3.84375 C 3.710938 -3.457031 3.441406 -3.066406 3.140625 -2.671875 C 2.847656 -2.285156 2.550781 -1.957031 2.25 -1.6875 C 1.945312 -1.425781 1.664062 -1.296875 1.40625 -1.296875 C 0.882812 -1.296875 0.53125 -1.445312 0.34375 -1.75 C 0.15625 -2.050781 0.0546875 -2.414062 0.046875 -2.84375 C 0.0351562 -3.28125 0.03125 -3.6875 0.03125 -4.0625 Z M 0.03125 -4.0625 "/></g></g></g><g fill="#504081" fill-opacity="1"><g transform="translate(52.608443, 57.844123)"><g><path d="M 2.765625 0.140625 C 2.316406 0.140625 1.921875 -0.00390625 1.578125 -0.296875 C 1.234375 -0.585938 0.972656 -0.890625 0.796875 -1.203125 C 0.398438 -1.953125 0.171875 -2.84375 0.109375 -3.875 C 0.0546875 -4.90625 0.117188 -5.84375 0.296875 -6.6875 C 0.335938 -6.9375 0.394531 -7.234375 0.46875 -7.578125 C 0.550781 -7.921875 0.671875 -8.222656 0.828125 -8.484375 C 0.984375 -8.753906 1.175781 -8.890625 1.40625 -8.890625 C 1.914062 -8.890625 2.160156 -8.71875 2.140625 -8.375 C 2.128906 -8.03125 2.035156 -7.492188 1.859375 -6.765625 C 1.679688 -6.046875 1.59375 -5.125 1.59375 -4 C 1.59375 -3.664062 1.632812 -3.265625 1.71875 -2.796875 C 1.8125 -2.328125 1.953125 -1.914062 2.140625 -1.5625 C 2.335938 -1.207031 2.578125 -1.03125 2.859375 -1.03125 C 3.210938 -1.03125 3.617188 -1.1875 4.078125 -1.5 C 4.535156 -1.8125 4.957031 -2.160156 5.34375 -2.546875 C 5.726562 -2.929688 6 -3.222656 6.15625 -3.421875 C 6.195312 -3.472656 6.316406 -3.625 6.515625 -3.875 C 6.722656 -4.132812 6.960938 -4.425781 7.234375 -4.75 C 7.515625 -5.070312 7.785156 -5.351562 8.046875 -5.59375 C 8.316406 -5.832031 8.53125 -5.953125 8.6875 -5.953125 C 8.84375 -5.953125 8.921875 -5.820312 8.921875 -5.5625 C 8.921875 -5.40625 8.816406 -5.164062 8.609375 -4.84375 C 8.398438 -4.519531 8.148438 -4.179688 7.859375 -3.828125 C 7.566406 -3.472656 7.28125 -3.140625 7 -2.828125 C 6.726562 -2.515625 6.523438 -2.296875 6.390625 -2.171875 C 6.128906 -1.898438 5.8125 -1.582031 5.4375 -1.21875 C 5.070312 -0.851562 4.664062 -0.535156 4.21875 -0.265625 C 3.78125 0.00390625 3.296875 0.140625 2.765625 0.140625 Z M 1.703125 -13.078125 C 1.703125 -13.460938 1.800781 -13.789062 2 -14.0625 C 2.195312 -14.34375 2.414062 -14.484375 2.65625 -14.484375 C 2.925781 -14.484375 3.148438 -14.316406 3.328125 -13.984375 C 3.640625 -13.359375 3.675781 -12.875 3.4375 -12.53125 C 3.207031 -12.1875 2.925781 -12.015625 2.59375 -12.015625 C 2.375 -12.015625 2.171875 -12.101562 1.984375 -12.28125 C 1.796875 -12.457031 1.703125 -12.722656 1.703125 -13.078125 Z M 1.703125 -13.078125 "/></g></g></g><g fill="#504081" fill-opacity="1"><g transform="translate(60.201298, 57.844123)"><g><path d="M 0.0625 -2.5625 C 0.0625 -3.675781 0.128906 -4.875 0.265625 -6.15625 C 0.398438 -7.445312 0.578125 -8.722656 0.796875 -9.984375 C 1.015625 -11.253906 1.257812 -12.398438 1.53125 -13.421875 C 1.644531 -13.753906 1.753906 -14.125 1.859375 -14.53125 C 1.972656 -14.945312 2.117188 -15.300781 2.296875 -15.59375 C 2.472656 -15.894531 2.707031 -16.046875 3 -16.046875 C 3.257812 -16.046875 3.421875 -15.945312 3.484375 -15.75 C 3.554688 -15.550781 3.5625 -15.3125 3.5 -15.03125 C 3.445312 -14.757812 3.375 -14.503906 3.28125 -14.265625 C 3.195312 -14.035156 3.144531 -13.875 3.125 -13.78125 C 2.945312 -13.113281 2.742188 -12.207031 2.515625 -11.0625 C 2.285156 -9.925781 2.0625 -8.679688 1.84375 -7.328125 C 1.632812 -5.972656 1.472656 -4.628906 1.359375 -3.296875 C 1.253906 -1.960938 1.234375 -0.757812 1.296875 0.3125 C 1.367188 1.394531 1.546875 2.222656 1.828125 2.796875 C 2.203125 2.597656 2.507812 2.296875 2.75 1.890625 C 3 1.492188 3.210938 1.109375 3.390625 0.734375 C 3.898438 -0.242188 4.398438 -1.273438 4.890625 -2.359375 C 5.378906 -3.453125 5.890625 -4.472656 6.421875 -5.421875 C 6.597656 -5.773438 6.789062 -5.953125 7 -5.953125 C 7.082031 -5.953125 7.148438 -5.914062 7.203125 -5.84375 C 7.265625 -5.769531 7.296875 -5.6875 7.296875 -5.59375 C 7.296875 -5.53125 7.207031 -5.316406 7.03125 -4.953125 C 6.851562 -4.597656 6.664062 -4.234375 6.46875 -3.859375 C 6.28125 -3.484375 6.15625 -3.238281 6.09375 -3.125 C 5.875 -2.664062 5.625 -2.125 5.34375 -1.5 C 5.0625 -0.875 4.785156 -0.265625 4.515625 0.328125 C 4.253906 0.929688 4.003906 1.441406 3.765625 1.859375 C 3.648438 2.035156 3.5 2.273438 3.3125 2.578125 C 3.125 2.878906 2.914062 3.140625 2.6875 3.359375 C 2.46875 3.585938 2.21875 3.703125 1.9375 3.703125 C 1.488281 3.703125 1.132812 3.476562 0.875 3.03125 C 0.625 2.582031 0.441406 2.023438 0.328125 1.359375 C 0.222656 0.691406 0.148438 0.00390625 0.109375 -0.703125 C 0.078125 -1.410156 0.0625 -2.03125 0.0625 -2.5625 Z M 0.0625 -2.5625 "/></g></g></g><g fill="#504081" fill-opacity="1"><g transform="translate(66.062442, 57.844123)"><g><path d="M 1.171875 -2.4375 C 1.171875 -2.226562 1.210938 -2.125 1.296875 -2.125 C 1.453125 -2.125 1.65625 -2.347656 1.90625 -2.796875 C 2.164062 -3.242188 2.4375 -3.796875 2.71875 -4.453125 C 3.007812 -5.117188 3.289062 -5.789062 3.5625 -6.46875 C 3.832031 -7.144531 4.054688 -7.738281 4.234375 -8.25 C 4.410156 -8.769531 4.5 -9.070312 4.5 -9.15625 C 4.113281 -9.113281 3.816406 -9 3.609375 -8.8125 C 3.398438 -8.625 3.207031 -8.40625 3.03125 -8.15625 C 2.457031 -7.445312 2.003906 -6.578125 1.671875 -5.546875 C 1.335938 -4.515625 1.171875 -3.476562 1.171875 -2.4375 Z M 4.96875 -10.0625 C 4.96875 -10.300781 5.003906 -10.507812 5.078125 -10.6875 C 5.148438 -10.863281 5.222656 -11.0625 5.296875 -11.28125 L 6 -15.046875 C 6.0625 -15.296875 6.140625 -15.660156 6.234375 -16.140625 C 6.335938 -16.628906 6.476562 -17.097656 6.65625 -17.546875 C 6.832031 -17.992188 7.054688 -18.238281 7.328125 -18.28125 C 7.367188 -18.28125 7.398438 -18.285156 7.421875 -18.296875 C 7.441406 -18.304688 7.460938 -18.3125 7.484375 -18.3125 C 7.796875 -18.3125 7.972656 -18.140625 8.015625 -17.796875 C 8.066406 -17.453125 8.039062 -17.035156 7.9375 -16.546875 C 7.84375 -16.054688 7.722656 -15.585938 7.578125 -15.140625 C 7.429688 -14.703125 7.335938 -14.382812 7.296875 -14.1875 C 6.765625 -12.382812 6.421875 -10.539062 6.265625 -8.65625 C 6.109375 -6.769531 6.046875 -4.867188 6.078125 -2.953125 C 6.109375 -1.046875 6.132812 0.835938 6.15625 2.703125 C 6.175781 3.410156 6.238281 3.976562 6.34375 4.40625 C 6.445312 4.84375 6.484375 5.148438 6.453125 5.328125 C 6.429688 5.503906 6.222656 5.59375 5.828125 5.59375 C 5.578125 5.59375 5.378906 5.320312 5.234375 4.78125 C 5.097656 4.238281 4.992188 3.523438 4.921875 2.640625 C 4.859375 1.765625 4.828125 0.828125 4.828125 -0.171875 C 4.828125 -1.171875 4.835938 -2.144531 4.859375 -3.09375 C 4.878906 -4.050781 4.898438 -4.875 4.921875 -5.5625 C 4.953125 -6.25 4.96875 -6.703125 4.96875 -6.921875 C 4.875 -6.835938 4.816406 -6.78125 4.796875 -6.75 C 4.773438 -6.726562 4.738281 -6.644531 4.6875 -6.5 L 3.53125 -3.65625 C 3.375 -3.320312 3.195312 -2.941406 3 -2.515625 C 2.800781 -2.097656 2.550781 -1.734375 2.25 -1.421875 C 1.945312 -1.117188 1.585938 -0.96875 1.171875 -0.96875 C 0.703125 -0.96875 0.382812 -1.1875 0.21875 -1.625 C 0.0507812 -2.070312 0 -2.644531 0.0625 -3.34375 C 0.132812 -4.039062 0.296875 -4.773438 0.546875 -5.546875 C 0.804688 -6.328125 1.128906 -7.066406 1.515625 -7.765625 C 1.898438 -8.472656 2.332031 -9.046875 2.8125 -9.484375 C 3.289062 -9.929688 3.785156 -10.15625 4.296875 -10.15625 C 4.472656 -10.15625 4.566406 -10.140625 4.578125 -10.109375 C 4.585938 -10.078125 4.71875 -10.0625 4.96875 -10.0625 Z M 4.96875 -10.0625 "/></g></g></g><g fill="#504081" fill-opacity="1"><g transform="translate(73.522079, 57.844123)"><g><path d="M 2.765625 0.140625 C 2.316406 0.140625 1.921875 -0.00390625 1.578125 -0.296875 C 1.234375 -0.585938 0.972656 -0.890625 0.796875 -1.203125 C 0.398438 -1.953125 0.171875 -2.84375 0.109375 -3.875 C 0.0546875 -4.90625 0.117188 -5.84375 0.296875 -6.6875 C 0.335938 -6.9375 0.394531 -7.234375 0.46875 -7.578125 C 0.550781 -7.921875 0.671875 -8.222656 0.828125 -8.484375 C 0.984375 -8.753906 1.175781 -8.890625 1.40625 -8.890625 C 1.914062 -8.890625 2.160156 -8.71875 2.140625 -8.375 C 2.128906 -8.03125 2.035156 -7.492188 1.859375 -6.765625 C 1.679688 -6.046875 1.59375 -5.125 1.59375 -4 C 1.59375 -3.664062 1.632812 -3.265625 1.71875 -2.796875 C 1.8125 -2.328125 1.953125 -1.914062 2.140625 -1.5625 C 2.335938 -1.207031 2.578125 -1.03125 2.859375 -1.03125 C 3.210938 -1.03125 3.617188 -1.1875 4.078125 -1.5 C 4.535156 -1.8125 4.957031 -2.160156 5.34375 -2.546875 C 5.726562 -2.929688 6 -3.222656 6.15625 -3.421875 C 6.195312 -3.472656 6.316406 -3.625 6.515625 -3.875 C 6.722656 -4.132812 6.960938 -4.425781 7.234375 -4.75 C 7.515625 -5.070312 7.785156 -5.351562 8.046875 -5.59375 C 8.316406 -5.832031 8.53125 -5.953125 8.6875 -5.953125 C 8.84375 -5.953125 8.921875 -5.820312 8.921875 -5.5625 C 8.921875 -5.40625 8.816406 -5.164062 8.609375 -4.84375 C 8.398438 -4.519531 8.148438 -4.179688 7.859375 -3.828125 C 7.566406 -3.472656 7.28125 -3.140625 7 -2.828125 C 6.726562 -2.515625 6.523438 -2.296875 6.390625 -2.171875 C 6.128906 -1.898438 5.8125 -1.582031 5.4375 -1.21875 C 5.070312 -0.851562 4.664062 -0.535156 4.21875 -0.265625 C 3.78125 0.00390625 3.296875 0.140625 2.765625 0.140625 Z M 1.703125 -13.078125 C 1.703125 -13.460938 1.800781 -13.789062 2 -14.0625 C 2.195312 -14.34375 2.414062 -14.484375 2.65625 -14.484375 C 2.925781 -14.484375 3.148438 -14.316406 3.328125 -13.984375 C 3.640625 -13.359375 3.675781 -12.875 3.4375 -12.53125 C 3.207031 -12.1875 2.925781 -12.015625 2.59375 -12.015625 C 2.375 -12.015625 2.171875 -12.101562 1.984375 -12.28125 C 1.796875 -12.457031 1.703125 -12.722656 1.703125 -13.078125 Z M 1.703125 -13.078125 "/></g></g></g><g fill="#504081" fill-opacity="1"><g transform="translate(81.114934, 57.844123)"><g><path d="M 0.9375 -1.734375 C 0.507812 -1.734375 0.234375 -1.988281 0.109375 -2.5 C -0.00390625 -3.007812 -0.0195312 -3.644531 0.0625 -4.40625 C 0.15625 -5.175781 0.316406 -5.941406 0.546875 -6.703125 C 0.785156 -7.472656 1.046875 -8.113281 1.328125 -8.625 C 1.617188 -9.132812 1.882812 -9.390625 2.125 -9.390625 C 2.507812 -9.390625 2.6875 -9.21875 2.65625 -8.875 C 2.632812 -8.53125 2.523438 -8.070312 2.328125 -7.5 C 2.128906 -6.9375 1.929688 -6.316406 1.734375 -5.640625 C 1.535156 -4.960938 1.4375 -4.300781 1.4375 -3.65625 L 3.03125 -6.09375 C 3.09375 -6.226562 3.234375 -6.460938 3.453125 -6.796875 C 3.679688 -7.128906 3.929688 -7.4375 4.203125 -7.71875 C 4.484375 -8.007812 4.757812 -8.15625 5.03125 -8.15625 C 5.289062 -8.15625 5.5 -7.976562 5.65625 -7.625 L 5.859375 -5.765625 C 5.859375 -5.554688 5.867188 -5.242188 5.890625 -4.828125 C 5.910156 -4.410156 5.957031 -3.984375 6.03125 -3.546875 C 6.113281 -3.109375 6.242188 -2.734375 6.421875 -2.421875 C 6.597656 -2.117188 6.84375 -1.96875 7.15625 -1.96875 C 7.488281 -1.96875 7.835938 -2.164062 8.203125 -2.5625 C 8.566406 -2.957031 8.921875 -3.414062 9.265625 -3.9375 C 9.617188 -4.46875 9.929688 -4.929688 10.203125 -5.328125 C 10.484375 -5.722656 10.703125 -5.921875 10.859375 -5.921875 C 11.191406 -5.921875 11.34375 -5.789062 11.3125 -5.53125 C 11.289062 -5.28125 11.179688 -4.988281 10.984375 -4.65625 C 10.785156 -4.320312 10.582031 -4.007812 10.375 -3.71875 C 10.164062 -3.4375 10.035156 -3.265625 9.984375 -3.203125 C 9.828125 -2.992188 9.613281 -2.734375 9.34375 -2.421875 C 9.082031 -2.117188 8.804688 -1.832031 8.515625 -1.5625 C 8.234375 -1.300781 7.957031 -1.132812 7.6875 -1.0625 C 7.46875 -1 7.257812 -0.96875 7.0625 -0.96875 C 6.550781 -0.96875 6.144531 -1.15625 5.84375 -1.53125 C 5.539062 -1.90625 5.3125 -2.316406 5.15625 -2.765625 C 4.9375 -3.429688 4.816406 -4.023438 4.796875 -4.546875 C 4.773438 -5.066406 4.773438 -5.507812 4.796875 -5.875 C 4.816406 -6.238281 4.769531 -6.519531 4.65625 -6.71875 C 4.394531 -6.539062 4.113281 -6.1875 3.8125 -5.65625 C 3.507812 -5.125 3.195312 -4.550781 2.875 -3.9375 C 2.550781 -3.332031 2.226562 -2.8125 1.90625 -2.375 C 1.59375 -1.945312 1.269531 -1.734375 0.9375 -1.734375 Z M 0.9375 -1.734375 "/></g></g></g><g fill="#504081" fill-opacity="1"><g transform="translate(91.105508, 57.844123)"><g><path d="M 0 12.28125 C 0.445312 12.28125 0.894531 12.054688 1.34375 11.609375 C 1.800781 11.171875 2.140625 10.765625 2.359375 10.390625 C 3.140625 9.078125 3.632812 7.6875 3.84375 6.21875 C 4.050781 4.757812 4.234375 3.351562 4.390625 2 L 4.53125 0.0625 C 4.394531 0.113281 4.1875 0.285156 3.90625 0.578125 C 3.632812 0.878906 3.367188 1.195312 3.109375 1.53125 C 2.859375 1.863281 2.6875 2.097656 2.59375 2.234375 C 2.351562 2.546875 2.046875 2.960938 1.671875 3.484375 C 1.304688 4.003906 0.945312 4.539062 0.59375 5.09375 C 0.238281 5.644531 -0.0234375 6.132812 -0.203125 6.5625 C -0.265625 6.738281 -0.382812 7.046875 -0.5625 7.484375 C -0.738281 7.929688 -0.898438 8.425781 -1.046875 8.96875 C -1.191406 9.519531 -1.28125 10.039062 -1.3125 10.53125 C -1.34375 11.03125 -1.265625 11.445312 -1.078125 11.78125 C -0.890625 12.113281 -0.53125 12.28125 0 12.28125 Z M -0.359375 -2.828125 C -0.359375 -3.359375 -0.203125 -3.988281 0.109375 -4.71875 C 0.429688 -5.457031 0.859375 -6.171875 1.390625 -6.859375 C 1.929688 -7.546875 2.503906 -8.113281 3.109375 -8.5625 C 3.722656 -9.019531 4.328125 -9.25 4.921875 -9.25 C 5.546875 -9.25 5.984375 -9.023438 6.234375 -8.578125 C 6.492188 -8.140625 6.476562 -7.703125 6.1875 -7.265625 C 5.925781 -7.285156 5.75 -7.382812 5.65625 -7.5625 C 5.570312 -7.738281 5.484375 -7.914062 5.390625 -8.09375 C 5.304688 -8.269531 5.140625 -8.359375 4.890625 -8.359375 C 4.398438 -8.359375 3.898438 -8.125 3.390625 -7.65625 C 2.878906 -7.1875 2.40625 -6.613281 1.96875 -5.9375 C 1.539062 -5.257812 1.191406 -4.585938 0.921875 -3.921875 C 0.660156 -3.265625 0.53125 -2.722656 0.53125 -2.296875 C 0.925781 -2.410156 1.28125 -2.640625 1.59375 -2.984375 C 1.90625 -3.328125 2.171875 -3.609375 2.390625 -3.828125 C 2.617188 -4.078125 2.867188 -4.390625 3.140625 -4.765625 C 3.421875 -5.140625 3.660156 -5.472656 3.859375 -5.765625 C 3.972656 -5.941406 4.117188 -6.160156 4.296875 -6.421875 C 4.472656 -6.691406 4.695312 -6.828125 4.96875 -6.828125 C 5.207031 -6.828125 5.394531 -6.679688 5.53125 -6.390625 C 5.664062 -6.097656 5.753906 -5.734375 5.796875 -5.296875 C 5.835938 -4.867188 5.859375 -4.4375 5.859375 -4 C 5.859375 -3.570312 5.859375 -3.21875 5.859375 -2.9375 C 6.035156 -2.976562 6.304688 -3.140625 6.671875 -3.421875 C 7.035156 -3.710938 7.441406 -4.039062 7.890625 -4.40625 C 8.335938 -4.78125 8.773438 -5.101562 9.203125 -5.375 C 9.640625 -5.65625 10 -5.796875 10.28125 -5.796875 C 10.414062 -5.796875 10.503906 -5.722656 10.546875 -5.578125 C 10.597656 -5.429688 10.585938 -5.289062 10.515625 -5.15625 C 10.492188 -5.132812 10.332031 -5.003906 10.03125 -4.765625 C 9.738281 -4.535156 9.382812 -4.269531 8.96875 -3.96875 C 8.5625 -3.675781 8.160156 -3.375 7.765625 -3.0625 C 7.378906 -2.75 7.085938 -2.492188 6.890625 -2.296875 C 6.710938 -2.140625 6.523438 -2.003906 6.328125 -1.890625 C 6.128906 -1.785156 6.003906 -1.585938 5.953125 -1.296875 C 5.890625 -0.671875 5.859375 -0.0820312 5.859375 0.46875 C 5.859375 1.132812 5.804688 1.890625 5.703125 2.734375 C 5.609375 3.578125 5.472656 4.4375 5.296875 5.3125 C 5.117188 6.1875 4.910156 7.007812 4.671875 7.78125 C 4.441406 8.5625 4.191406 9.21875 3.921875 9.75 C 3.285156 11.019531 2.613281 11.914062 1.90625 12.4375 C 1.207031 12.957031 0.570312 13.21875 0 13.21875 C -0.625 13.21875 -1.132812 12.988281 -1.53125 12.53125 C -1.925781 12.082031 -2.125 11.523438 -2.125 10.859375 C -2.125 10.148438 -2.078125 9.535156 -1.984375 9.015625 C -1.898438 8.503906 -1.765625 8.007812 -1.578125 7.53125 C -1.390625 7.0625 -1.140625 6.515625 -0.828125 5.890625 C -0.160156 4.535156 0.582031 3.300781 1.40625 2.1875 C 2.238281 1.082031 3.171875 -0.0078125 4.203125 -1.09375 C 4.484375 -1.40625 4.609375 -1.921875 4.578125 -2.640625 C 4.546875 -3.367188 4.53125 -4.078125 4.53125 -4.765625 C 4.351562 -4.691406 4.101562 -4.414062 3.78125 -3.9375 C 3.457031 -3.46875 3.109375 -3.066406 2.734375 -2.734375 C 2.503906 -2.503906 2.1875 -2.207031 1.78125 -1.84375 C 1.375 -1.476562 0.957031 -1.296875 0.53125 -1.296875 C 0.195312 -1.296875 -0.0234375 -1.382812 -0.140625 -1.5625 C -0.265625 -1.738281 -0.332031 -1.945312 -0.34375 -2.1875 C -0.351562 -2.4375 -0.359375 -2.648438 -0.359375 -2.828125 Z M -0.359375 -2.828125 "/></g></g></g></svg>