<svg xmlns="http://www.w3.org/2000/svg" xmlns:xlink="http://www.w3.org/1999/xlink" width="1548" zoomAndPan="magnify" viewBox="0 0 1161 296.999993" height="396" preserveAspectRatio="xMidYMid meet" version="1.0"><defs><g/></defs><g fill="#efe1ff" fill-opacity="1"><g transform="translate(356.216024, 163.706159)"><g><path d="M 59.53125 4.046875 C 60.5 3.398438 61.46875 2.160156 62.4375 0.328125 C 63.40625 -1.503906 64.265625 -3.472656 65.015625 -5.578125 C 65.773438 -7.679688 66.375 -9.378906 66.8125 -10.671875 C 69.9375 -18.648438 72.765625 -26.550781 75.296875 -34.375 C 77.835938 -42.195312 80.722656 -50.203125 83.953125 -58.390625 C 84.492188 -59.796875 85.4375 -62.085938 86.78125 -65.265625 C 88.132812 -68.453125 89.726562 -72.066406 91.5625 -76.109375 C 93.394531 -80.148438 95.414062 -84.25 97.625 -88.40625 C 99.832031 -92.5625 102.09375 -96.414062 104.40625 -99.96875 C 106.726562 -103.53125 108.992188 -106.414062 111.203125 -108.625 C 113.421875 -110.832031 115.445312 -111.9375 117.28125 -111.9375 C 119.757812 -111.9375 121.59375 -110.722656 122.78125 -108.296875 C 123.96875 -105.867188 124.640625 -102.820312 124.796875 -99.15625 C 124.960938 -95.488281 124.882812 -91.6875 124.5625 -87.75 C 124.238281 -83.820312 123.859375 -80.316406 123.421875 -77.234375 C 122.992188 -74.160156 122.671875 -72.085938 122.453125 -71.015625 L 112.421875 -4.203125 C 110.703125 7.765625 109.382812 19.460938 108.46875 30.890625 C 107.550781 42.328125 106.441406 53.867188 105.140625 65.515625 C 104.929688 68.421875 104.828125 71.597656 104.828125 75.046875 C 104.828125 78.503906 104.828125 81.742188 104.828125 84.765625 C 104.828125 86.171875 104.582031 87.222656 104.09375 87.921875 C 103.613281 88.617188 103.101562 88.96875 102.5625 88.96875 C 101.914062 88.96875 101.296875 88.585938 100.703125 87.828125 C 100.109375 87.078125 99.753906 86.054688 99.640625 84.765625 C 99.535156 83.359375 99.484375 82.304688 99.484375 81.609375 C 99.484375 80.910156 99.429688 80.078125 99.328125 79.109375 L 104.171875 6.953125 C 105.035156 0.160156 105.816406 -6.117188 106.515625 -11.890625 C 107.222656 -17.660156 107.976562 -23.484375 108.78125 -29.359375 C 109.59375 -35.234375 110.59375 -41.734375 111.78125 -48.859375 C 112.101562 -50.691406 112.585938 -53.546875 113.234375 -57.421875 C 113.878906 -61.304688 114.578125 -65.675781 115.328125 -70.53125 C 116.085938 -75.382812 116.765625 -80.238281 117.359375 -85.09375 C 117.953125 -89.945312 118.273438 -94.257812 118.328125 -98.03125 C 118.378906 -101.800781 118.03125 -104.5 117.28125 -106.125 C 115.226562 -105.039062 113.3125 -103.335938 111.53125 -101.015625 C 109.757812 -98.703125 108.28125 -96.46875 107.09375 -94.3125 C 104.9375 -90.75 103.070312 -87.484375 101.5 -84.515625 C 99.9375 -81.554688 98.453125 -78.566406 97.046875 -75.546875 C 95.648438 -72.523438 94.09375 -69.070312 92.375 -65.1875 C 89.675781 -59.257812 87.515625 -53.867188 85.890625 -49.015625 C 84.273438 -44.160156 82.390625 -39.035156 80.234375 -33.640625 C 79.691406 -32.242188 78.910156 -29.847656 77.890625 -26.453125 C 76.867188 -23.054688 75.65625 -19.28125 74.25 -15.125 C 72.84375 -10.96875 71.332031 -6.972656 69.71875 -3.140625 C 68.101562 0.679688 66.429688 3.859375 64.703125 6.390625 C 62.984375 8.921875 61.257812 10.1875 59.53125 10.1875 C 57.800781 10.1875 56.453125 9.242188 55.484375 7.359375 C 54.515625 5.472656 53.835938 3.128906 53.453125 0.328125 C 53.078125 -2.472656 52.890625 -5.273438 52.890625 -8.078125 C 52.890625 -10.890625 52.945312 -13.15625 53.0625 -14.875 L 55.484375 -47.234375 C 55.484375 -47.878906 55.425781 -48.601562 55.3125 -49.40625 C 55.207031 -50.21875 55.15625 -51.21875 55.15625 -52.40625 C 54.1875 -52.195312 53.59375 -51.929688 53.375 -51.609375 C 53.164062 -51.285156 52.789062 -50.742188 52.25 -49.984375 C 49.988281 -46.960938 47.859375 -43.269531 45.859375 -38.90625 C 43.867188 -34.539062 42.007812 -29.898438 40.28125 -24.984375 C 38.550781 -20.078125 37.039062 -15.304688 35.75 -10.671875 C 34.457031 -6.035156 33.378906 -1.992188 32.515625 1.453125 C 31.222656 6.523438 29.957031 11.675781 28.71875 16.90625 C 27.476562 22.132812 26.15625 27.125 24.75 31.875 C 23.882812 35.539062 22.859375 39.148438 21.671875 42.703125 C 20.484375 46.265625 19.132812 49.820312 17.625 53.375 C 16.875 54.675781 16.144531 55.703125 15.4375 56.453125 C 14.738281 57.210938 13.582031 57.59375 11.96875 57.59375 C 10.132812 57.59375 8.570312 56.21875 7.28125 53.46875 C 5.988281 50.71875 4.960938 47.179688 4.203125 42.859375 C 3.453125 38.546875 2.882812 34.046875 2.5 29.359375 C 2.125 24.671875 1.882812 20.300781 1.78125 16.25 C 1.675781 12.207031 1.625 9.164062 1.625 7.125 L 3.234375 -25.5625 C 3.773438 -30.625 4.367188 -35.660156 5.015625 -40.671875 C 5.660156 -45.691406 6.363281 -50.679688 7.125 -55.640625 C 7.226562 -56.179688 7.492188 -57.828125 7.921875 -60.578125 C 8.359375 -63.328125 8.976562 -66.695312 9.78125 -70.6875 C 10.59375 -74.675781 11.484375 -78.851562 12.453125 -83.21875 C 13.421875 -87.59375 14.441406 -91.691406 15.515625 -95.515625 C 16.597656 -99.347656 17.707031 -102.453125 18.84375 -104.828125 C 19.976562 -107.203125 21.082031 -108.390625 22.15625 -108.390625 C 23.664062 -108.390625 24.5 -107.847656 24.65625 -106.765625 C 24.820312 -105.679688 24.691406 -104.410156 24.265625 -102.953125 C 23.835938 -101.503906 23.457031 -100.238281 23.125 -99.15625 C 21.40625 -93.007812 20.003906 -87.425781 18.921875 -82.40625 C 17.847656 -77.394531 16.851562 -72.328125 15.9375 -67.203125 C 15.019531 -62.085938 14.078125 -56.238281 13.109375 -49.65625 C 12.242188 -43.726562 11.429688 -36.828125 10.671875 -28.953125 C 9.921875 -21.078125 9.300781 -12.800781 8.8125 -4.125 C 8.332031 4.550781 8.195312 12.988281 8.40625 21.1875 C 8.625 29.382812 9.273438 36.773438 10.359375 43.359375 L 11.96875 51.28125 C 12.832031 51.0625 13.367188 50.707031 13.578125 50.21875 C 13.796875 49.738281 14.125 49.066406 14.5625 48.203125 L 18.4375 36.5625 C 20.914062 27.71875 23.34375 18.550781 25.71875 9.0625 C 28.09375 -0.425781 30.707031 -9.726562 33.5625 -18.84375 C 36.425781 -27.957031 39.742188 -36.394531 43.515625 -44.15625 C 44.585938 -46.207031 45.851562 -48.550781 47.3125 -51.1875 C 48.769531 -53.832031 50.363281 -55.695312 52.09375 -56.78125 C 53.0625 -57.425781 54.140625 -57.75 55.328125 -57.75 C 57.160156 -57.75 58.398438 -56.992188 59.046875 -55.484375 C 59.910156 -53.972656 60.394531 -51.222656 60.5 -47.234375 C 60.601562 -43.242188 60.492188 -38.769531 60.171875 -33.8125 C 59.847656 -28.851562 59.523438 -24.050781 59.203125 -19.40625 C 58.878906 -14.769531 58.71875 -11.050781 58.71875 -8.25 C 58.71875 -5.007812 58.851562 -2.582031 59.125 -0.96875 C 59.394531 0.644531 59.53125 2.316406 59.53125 4.046875 Z M 59.53125 4.046875 "/></g></g></g><g fill="#efe1ff" fill-opacity="1"><g transform="translate(479.957696, 163.706159)"><g><path d="M 13.421875 0.640625 C 11.265625 0.640625 9.347656 -0.0546875 7.671875 -1.453125 C 6.003906 -2.859375 4.738281 -4.316406 3.875 -5.828125 C 1.9375 -9.492188 0.832031 -13.832031 0.5625 -18.84375 C 0.289062 -23.863281 0.585938 -28.421875 1.453125 -32.515625 C 1.671875 -33.703125 1.96875 -35.128906 2.34375 -36.796875 C 2.71875 -38.472656 3.28125 -39.957031 4.03125 -41.25 C 4.789062 -42.539062 5.710938 -43.1875 6.796875 -43.1875 C 9.273438 -43.1875 10.488281 -42.347656 10.4375 -40.671875 C 10.382812 -39.003906 9.925781 -36.414062 9.0625 -32.90625 C 8.195312 -29.40625 7.765625 -24.90625 7.765625 -19.40625 C 7.765625 -17.789062 7.976562 -15.847656 8.40625 -13.578125 C 8.84375 -11.316406 9.519531 -9.320312 10.4375 -7.59375 C 11.351562 -5.875 12.507812 -5.015625 13.90625 -5.015625 C 15.632812 -5.015625 17.601562 -5.769531 19.8125 -7.28125 C 22.019531 -8.789062 24.066406 -10.488281 25.953125 -12.375 C 27.847656 -14.257812 29.171875 -15.6875 29.921875 -16.65625 C 30.140625 -16.875 30.734375 -17.601562 31.703125 -18.84375 C 32.671875 -20.082031 33.828125 -21.484375 35.171875 -23.046875 C 36.523438 -24.609375 37.847656 -25.984375 39.140625 -27.171875 C 40.441406 -28.359375 41.46875 -28.953125 42.21875 -28.953125 C 42.976562 -28.953125 43.359375 -28.304688 43.359375 -27.015625 C 43.359375 -26.253906 42.84375 -25.09375 41.8125 -23.53125 C 40.789062 -21.96875 39.578125 -20.320312 38.171875 -18.59375 C 36.773438 -16.875 35.398438 -15.257812 34.046875 -13.75 C 32.703125 -12.238281 31.707031 -11.160156 31.0625 -10.515625 C 29.769531 -9.222656 28.234375 -7.6875 26.453125 -5.90625 C 24.671875 -4.125 22.703125 -2.585938 20.546875 -1.296875 C 18.390625 -0.00390625 16.015625 0.640625 13.421875 0.640625 Z M 8.25 -63.578125 C 8.25 -65.410156 8.734375 -67 9.703125 -68.34375 C 10.671875 -69.695312 11.75 -70.375 12.9375 -70.375 C 14.226562 -70.375 15.304688 -69.5625 16.171875 -67.9375 C 17.679688 -64.914062 17.867188 -62.566406 16.734375 -60.890625 C 15.609375 -59.222656 14.238281 -58.390625 12.625 -58.390625 C 11.539062 -58.390625 10.539062 -58.820312 9.625 -59.6875 C 8.707031 -60.550781 8.25 -61.847656 8.25 -63.578125 Z M 8.25 -63.578125 "/></g></g></g><g fill="#efe1ff" fill-opacity="1"><g transform="translate(516.837573, 163.706159)"><g><path d="M 0.328125 -12.453125 C 0.328125 -17.847656 0.648438 -23.671875 1.296875 -29.921875 C 1.941406 -36.179688 2.800781 -42.382812 3.875 -48.53125 C 4.957031 -54.675781 6.144531 -60.226562 7.4375 -65.1875 C 7.976562 -66.8125 8.519531 -68.617188 9.0625 -70.609375 C 9.601562 -72.609375 10.300781 -74.332031 11.15625 -75.78125 C 12.019531 -77.238281 13.15625 -77.96875 14.5625 -77.96875 C 15.851562 -77.96875 16.660156 -77.484375 16.984375 -76.515625 C 17.304688 -75.546875 17.332031 -74.382812 17.0625 -73.03125 C 16.789062 -71.6875 16.441406 -70.445312 16.015625 -69.3125 C 15.585938 -68.1875 15.316406 -67.40625 15.203125 -66.96875 C 14.335938 -63.738281 13.335938 -59.34375 12.203125 -53.78125 C 11.078125 -48.226562 10 -42.160156 8.96875 -35.578125 C 7.945312 -29.003906 7.164062 -22.484375 6.625 -16.015625 C 6.09375 -9.546875 5.988281 -3.695312 6.3125 1.53125 C 6.632812 6.757812 7.492188 10.78125 8.890625 13.59375 C 10.722656 12.613281 12.234375 11.15625 13.421875 9.21875 C 14.609375 7.28125 15.632812 5.394531 16.5 3.5625 C 18.976562 -1.1875 21.40625 -6.203125 23.78125 -11.484375 C 26.15625 -16.765625 28.632812 -21.726562 31.21875 -26.375 C 32.082031 -28.09375 33 -28.953125 33.96875 -28.953125 C 34.40625 -28.953125 34.753906 -28.765625 35.015625 -28.390625 C 35.285156 -28.015625 35.421875 -27.609375 35.421875 -27.171875 C 35.421875 -26.847656 34.988281 -25.820312 34.125 -24.09375 C 33.269531 -22.375 32.382812 -20.597656 31.46875 -18.765625 C 30.550781 -16.929688 29.929688 -15.742188 29.609375 -15.203125 C 28.523438 -12.941406 27.304688 -10.300781 25.953125 -7.28125 C 24.609375 -4.257812 23.289062 -1.296875 22 1.609375 C 20.707031 4.523438 19.46875 7.007812 18.28125 9.0625 C 17.738281 9.925781 17.007812 11.082031 16.09375 12.53125 C 15.175781 13.988281 14.175781 15.253906 13.09375 16.328125 C 12.019531 17.410156 10.78125 17.953125 9.375 17.953125 C 7.21875 17.953125 5.519531 16.875 4.28125 14.71875 C 3.039062 12.5625 2.148438 9.863281 1.609375 6.625 C 1.078125 3.394531 0.726562 0.0546875 0.5625 -3.390625 C 0.40625 -6.847656 0.328125 -9.867188 0.328125 -12.453125 Z M 0.328125 -12.453125 "/></g></g></g><g fill="#efe1ff" fill-opacity="1"><g transform="translate(545.306249, 163.706159)"><g><path d="M 7.4375 -29.28125 C 9.488281 -30.351562 11.753906 -31.832031 14.234375 -33.71875 C 16.710938 -35.613281 18.0625 -37.851562 18.28125 -40.4375 C 16.875 -40.226562 15.390625 -39.472656 13.828125 -38.171875 C 12.265625 -36.878906 10.914062 -35.421875 9.78125 -33.796875 C 8.65625 -32.179688 7.875 -30.675781 7.4375 -29.28125 Z M 0.15625 -25.390625 C 0.15625 -28.085938 1.046875 -31 2.828125 -34.125 C 4.609375 -37.257812 6.816406 -39.929688 9.453125 -42.140625 C 12.097656 -44.347656 14.71875 -45.453125 17.3125 -45.453125 C 20.863281 -45.453125 22.71875 -44.101562 22.875 -41.40625 C 23.039062 -38.71875 21.882812 -35.804688 19.40625 -32.671875 C 18.113281 -31.273438 16.171875 -29.660156 13.578125 -27.828125 C 10.992188 -25.992188 8.460938 -24.96875 5.984375 -24.75 C 5.984375 -23.019531 6.035156 -21.484375 6.140625 -20.140625 C 6.253906 -18.796875 7.007812 -17.421875 8.40625 -16.015625 C 9.8125 -14.609375 11.59375 -13.90625 13.75 -13.90625 C 16.550781 -13.90625 19.460938 -14.796875 22.484375 -16.578125 C 25.503906 -18.359375 27.820312 -19.84375 29.4375 -21.03125 C 30.082031 -21.570312 30.59375 -22.003906 30.96875 -22.328125 C 31.351562 -22.648438 31.816406 -23.023438 32.359375 -23.453125 C 34.617188 -25.179688 36.046875 -26.445312 36.640625 -27.25 C 37.234375 -28.0625 37.742188 -28.601562 38.171875 -28.875 C 38.609375 -29.144531 39.632812 -29.28125 41.25 -29.28125 C 41.46875 -28.09375 41.546875 -27.28125 41.484375 -26.84375 C 41.429688 -26.414062 41.03125 -25.769531 40.28125 -24.90625 C 38.34375 -22.96875 35.890625 -20.757812 32.921875 -18.28125 C 29.953125 -15.800781 26.769531 -13.644531 23.375 -11.8125 C 19.976562 -9.976562 16.609375 -9.0625 13.265625 -9.0625 C 11.535156 -9.0625 9.890625 -9.359375 8.328125 -9.953125 C 6.765625 -10.546875 5.28125 -11.539062 3.875 -12.9375 C 1.9375 -14.882812 0.832031 -16.878906 0.5625 -18.921875 C 0.289062 -20.972656 0.15625 -23.128906 0.15625 -25.390625 Z M 0.15625 -25.390625 "/></g></g></g><g fill="#efe1ff" fill-opacity="1"><g transform="translate(580.406821, 163.706159)"><g><path d="M 1.9375 26.6875 C 1.9375 28.957031 2.640625 30.09375 4.046875 30.09375 C 4.796875 30.09375 5.601562 29.820312 6.46875 29.28125 C 7.332031 28.738281 8.035156 28.253906 8.578125 27.828125 C 10.734375 26.203125 12.644531 23.742188 14.3125 20.453125 C 15.988281 17.171875 17.203125 14.179688 17.953125 11.484375 C 18.492188 9.648438 18.789062 7.789062 18.84375 5.90625 C 18.894531 4.019531 18.921875 1.941406 18.921875 -0.328125 C 17.628906 0.429688 16.144531 1.753906 14.46875 3.640625 C 12.800781 5.523438 11.484375 7.0625 10.515625 8.25 C 8.578125 10.625 6.660156 13.484375 4.765625 16.828125 C 2.878906 20.171875 1.9375 23.457031 1.9375 26.6875 Z M 0.484375 -26.203125 C 0.484375 -29.003906 1.238281 -31.507812 2.75 -33.71875 C 4.257812 -35.9375 6.066406 -37.71875 8.171875 -39.0625 C 10.273438 -40.414062 12.082031 -41.09375 13.59375 -41.09375 C 14.78125 -41.09375 15.664062 -40.660156 16.25 -39.796875 C 16.84375 -38.929688 16.875 -37.472656 16.34375 -35.421875 C 15.039062 -35.097656 14.117188 -34.910156 13.578125 -34.859375 C 13.046875 -34.804688 12.617188 -34.644531 12.296875 -34.375 C 11.972656 -34.101562 11.378906 -33.484375 10.515625 -32.515625 C 8.359375 -30.140625 7.359375 -28.222656 7.515625 -26.765625 C 7.679688 -25.316406 8.546875 -23.972656 10.109375 -22.734375 C 11.671875 -21.492188 13.609375 -19.957031 15.921875 -18.125 C 18.242188 -16.289062 20.429688 -13.804688 22.484375 -10.671875 C 24.859375 -12.296875 27.285156 -14.1875 29.765625 -16.34375 L 44.8125 -26.859375 C 46.207031 -27.828125 47.414062 -28.5 48.4375 -28.875 C 49.46875 -29.25 50.363281 -29.4375 51.125 -29.4375 C 52.414062 -29.4375 52.953125 -28.894531 52.734375 -27.8125 C 52.515625 -26.738281 51.488281 -25.664062 49.65625 -24.59375 L 38.65625 -16.984375 C 38.226562 -16.765625 37.3125 -16.144531 35.90625 -15.125 C 34.507812 -14.101562 32.972656 -12.972656 31.296875 -11.734375 C 29.628906 -10.492188 28.203125 -9.332031 27.015625 -8.25 C 25.828125 -7.164062 25.179688 -6.460938 25.078125 -6.140625 C 24.960938 -5.609375 25.117188 -4.585938 25.546875 -3.078125 C 25.984375 -1.566406 26.28125 0.398438 26.4375 2.828125 C 26.601562 5.253906 26.28125 8.21875 25.46875 11.71875 C 24.664062 15.226562 22.914062 19.300781 20.21875 23.9375 C 17.84375 27.925781 15.253906 30.863281 12.453125 32.75 C 9.648438 34.644531 7.007812 35.59375 4.53125 35.59375 C 2.257812 35.59375 0.398438 34.835938 -1.046875 33.328125 C -2.503906 31.816406 -3.234375 29.601562 -3.234375 26.6875 C -3.234375 23.019531 -2.34375 19.460938 -0.5625 16.015625 C 1.21875 12.566406 3.347656 9.382812 5.828125 6.46875 C 8.304688 3.5625 10.597656 1.054688 12.703125 -1.046875 C 14.804688 -3.148438 16.179688 -4.6875 16.828125 -5.65625 C 15.523438 -7.925781 13.957031 -9.894531 12.125 -11.5625 C 10.289062 -13.238281 8.484375 -14.773438 6.703125 -16.171875 C 4.929688 -17.578125 3.453125 -19.0625 2.265625 -20.625 C 1.078125 -22.1875 0.484375 -24.046875 0.484375 -26.203125 Z M 0.484375 -26.203125 "/></g></g></g><g fill="#efe1ff" fill-opacity="1"><g transform="translate(627.15369, 163.706159)"><g><path d="M -45.453125 -72.140625 C -45.453125 -73.546875 -44.15625 -75.03125 -41.5625 -76.59375 C -38.976562 -78.15625 -35.71875 -79.691406 -31.78125 -81.203125 C -27.84375 -82.710938 -23.691406 -84.140625 -19.328125 -85.484375 C -14.960938 -86.835938 -10.945312 -88 -7.28125 -88.96875 C -3.613281 -89.9375 -0.863281 -90.691406 0.96875 -91.234375 C 3.238281 -91.878906 4.832031 -92.253906 5.75 -92.359375 C 6.664062 -92.472656 7.253906 -92.828125 7.515625 -93.421875 C 7.785156 -94.015625 8.082031 -95.226562 8.40625 -97.0625 C 9.269531 -101.476562 10.269531 -104.519531 11.40625 -106.1875 C 12.539062 -107.863281 13.644531 -108.703125 14.71875 -108.703125 C 15.582031 -108.703125 16.3125 -108.242188 16.90625 -107.328125 C 17.5 -106.410156 17.796875 -105.304688 17.796875 -104.015625 C 17.796875 -103.046875 17.738281 -102.640625 17.625 -102.796875 C 17.519531 -102.960938 17.519531 -102.613281 17.625 -101.75 C 17.625 -101.53125 17.648438 -101.257812 17.703125 -100.9375 C 17.765625 -100.613281 17.796875 -100.179688 17.796875 -99.640625 C 17.796875 -98.242188 17.523438 -97.546875 16.984375 -97.546875 C 16.441406 -97.546875 15.898438 -97.460938 15.359375 -97.296875 C 14.828125 -97.140625 14.5625 -96.195312 14.5625 -94.46875 C 15.851562 -94.46875 17.28125 -94.65625 18.84375 -95.03125 C 20.40625 -95.414062 21.78125 -95.660156 22.96875 -95.765625 C 27.71875 -96.628906 32.460938 -97.410156 37.203125 -98.109375 C 41.953125 -98.804688 46.804688 -99.15625 51.765625 -99.15625 C 54.347656 -99.15625 56.234375 -98.613281 57.421875 -97.53125 C 58.609375 -96.457031 59.039062 -95.378906 58.71875 -94.296875 C 58.394531 -93.222656 57.207031 -92.6875 55.15625 -92.6875 C 54.945312 -93.550781 54.8125 -93.957031 54.75 -93.90625 C 54.695312 -93.851562 54.1875 -93.929688 53.21875 -94.140625 C 52.789062 -94.253906 51.925781 -94.3125 50.625 -94.3125 C 48.363281 -94.3125 45.375 -94.066406 41.65625 -93.578125 C 37.9375 -93.097656 34.082031 -92.53125 30.09375 -91.875 C 26.101562 -91.226562 22.539062 -90.609375 19.40625 -90.015625 C 16.28125 -89.429688 14.234375 -89.03125 13.265625 -88.8125 L 10.03125 -55.640625 C 9.925781 -54.890625 9.898438 -54.082031 9.953125 -53.21875 C 10.003906 -52.351562 10.03125 -51.488281 10.03125 -50.625 C 10.03125 -49.550781 9.945312 -48.851562 9.78125 -48.53125 C 9.625 -48.207031 9.546875 -47.453125 9.546875 -46.265625 C 9.546875 -43.890625 9.597656 -41.164062 9.703125 -38.09375 C 9.816406 -35.019531 9.765625 -32.617188 9.546875 -30.890625 C 9.429688 -29.921875 9.347656 -28.007812 9.296875 -25.15625 C 9.242188 -22.300781 9.191406 -18.984375 9.140625 -15.203125 C 9.085938 -11.429688 9.0625 -7.628906 9.0625 -3.796875 C 9.0625 0.0234375 9.0625 3.5 9.0625 6.625 C 9.0625 9.757812 9.113281 12.023438 9.21875 13.421875 C 9.21875 14.609375 9.351562 16.414062 9.625 18.84375 C 9.894531 21.269531 9.945312 23.453125 9.78125 25.390625 C 9.625 27.335938 8.84375 28.3125 7.4375 28.3125 C 5.394531 28.3125 4.15625 27.175781 3.71875 24.90625 C 3.289062 22.644531 3.078125 20.546875 3.078125 18.609375 C 2.753906 14.722656 2.5625 10.191406 2.5 5.015625 C 2.445312 -0.160156 2.445312 -5.335938 2.5 -10.515625 C 2.5625 -15.691406 2.59375 -20.222656 2.59375 -24.109375 L 3.078125 -31.703125 C 3.078125 -33.210938 3.078125 -35.53125 3.078125 -38.65625 C 3.078125 -41.789062 3.128906 -45.109375 3.234375 -48.609375 C 3.335938 -52.117188 3.441406 -55.328125 3.546875 -58.234375 C 3.660156 -61.148438 3.828125 -63.195312 4.046875 -64.375 C 4.265625 -65.457031 4.398438 -66.753906 4.453125 -68.265625 C 4.503906 -69.773438 4.582031 -71.066406 4.6875 -72.140625 L 6.140625 -87.1875 C 5.710938 -87.082031 4.769531 -86.867188 3.3125 -86.546875 C 1.851562 -86.222656 0.695312 -85.953125 -0.15625 -85.734375 C -5.445312 -84.441406 -10.488281 -83.066406 -15.28125 -81.609375 C -20.082031 -80.148438 -25.019531 -78.453125 -30.09375 -76.515625 C -31.0625 -76.085938 -31.945312 -75.628906 -32.75 -75.140625 C -33.5625 -74.648438 -34.453125 -74.191406 -35.421875 -73.765625 C -36.722656 -73.222656 -37.5625 -72.84375 -37.9375 -72.625 C -38.3125 -72.414062 -38.5 -72.148438 -38.5 -71.828125 C -38.5 -71.503906 -38.769531 -70.800781 -39.3125 -69.71875 C -39.738281 -69.613281 -40.164062 -69.53125 -40.59375 -69.46875 C -41.03125 -69.414062 -41.519531 -69.390625 -42.0625 -69.390625 C -42.925781 -69.390625 -43.707031 -69.578125 -44.40625 -69.953125 C -45.101562 -70.335938 -45.453125 -71.066406 -45.453125 -72.140625 Z M -45.453125 -72.140625 "/></g></g></g><g fill="#efe1ff" fill-opacity="1"><g transform="translate(645.917147, 163.706159)"><g><path d="M 8.09375 -3.71875 C 9.707031 -4.15625 11.160156 -5.582031 12.453125 -8 C 13.742188 -10.425781 14.660156 -13.203125 15.203125 -16.328125 C 15.742188 -19.460938 15.878906 -22.347656 15.609375 -24.984375 C 15.335938 -27.628906 14.503906 -29.4375 13.109375 -30.40625 C 12.785156 -29.21875 12.191406 -27.519531 11.328125 -25.3125 C 10.460938 -23.101562 9.625 -20.675781 8.8125 -18.03125 C 8.007812 -15.394531 7.472656 -12.804688 7.203125 -10.265625 C 6.929688 -7.734375 7.226562 -5.550781 8.09375 -3.71875 Z M 0 -9.21875 C 0 -10.625 0.296875 -12.703125 0.890625 -15.453125 C 1.484375 -18.203125 2.316406 -21.164062 3.390625 -24.34375 C 4.472656 -27.53125 5.6875 -30.550781 7.03125 -33.40625 C 8.382812 -36.257812 9.84375 -38.601562 11.40625 -40.4375 C 12.96875 -42.269531 14.554688 -43.1875 16.171875 -43.1875 C 17.253906 -43.1875 18.007812 -42.703125 18.4375 -41.734375 C 18.875 -40.765625 18.984375 -39.957031 18.765625 -39.3125 C 18.546875 -38.769531 18.140625 -38.226562 17.546875 -37.6875 C 16.953125 -37.144531 16.441406 -36.550781 16.015625 -35.90625 C 16.234375 -35.15625 16.769531 -34.320312 17.625 -33.40625 C 18.488281 -32.488281 19.351562 -31.273438 20.21875 -29.765625 C 21.082031 -28.253906 21.648438 -26.203125 21.921875 -23.609375 C 22.191406 -21.023438 21.894531 -17.628906 21.03125 -13.421875 C 19.84375 -7.816406 17.953125 -3.613281 15.359375 -0.8125 C 12.773438 1.988281 10.242188 3.390625 7.765625 3.390625 C 5.710938 3.390625 3.90625 2.335938 2.34375 0.234375 C 0.78125 -1.859375 0 -5.007812 0 -9.21875 Z M 0 -9.21875 "/></g></g></g><g fill="#efe1ff" fill-opacity="1"><g transform="translate(674.385834, 163.706159)"><g><path d="M 4.53125 -8.40625 C 2.476562 -8.40625 1.15625 -9.644531 0.5625 -12.125 C -0.03125 -14.613281 -0.113281 -17.71875 0.3125 -21.4375 C 0.75 -25.15625 1.535156 -28.875 2.671875 -32.59375 C 3.804688 -36.3125 5.070312 -39.410156 6.46875 -41.890625 C 7.875 -44.378906 9.171875 -45.625 10.359375 -45.625 C 12.191406 -45.625 13.050781 -44.785156 12.9375 -43.109375 C 12.832031 -41.441406 12.296875 -39.234375 11.328125 -36.484375 C 10.359375 -33.734375 9.382812 -30.710938 8.40625 -27.421875 C 7.4375 -24.128906 6.953125 -20.921875 6.953125 -17.796875 L 14.71875 -29.609375 C 15.039062 -30.253906 15.738281 -31.382812 16.8125 -33 C 17.894531 -34.613281 19.109375 -36.117188 20.453125 -37.515625 C 21.804688 -38.921875 23.128906 -39.625 24.421875 -39.625 C 25.722656 -39.625 26.75 -38.765625 27.5 -37.046875 L 28.46875 -27.984375 C 28.46875 -27.015625 28.519531 -25.503906 28.625 -23.453125 C 28.738281 -21.398438 28.984375 -19.320312 29.359375 -17.21875 C 29.734375 -15.125 30.351562 -13.320312 31.21875 -11.8125 C 32.082031 -10.300781 33.269531 -9.546875 34.78125 -9.546875 C 36.394531 -9.546875 38.09375 -10.515625 39.875 -12.453125 C 41.65625 -14.398438 43.378906 -16.640625 45.046875 -19.171875 C 46.722656 -21.703125 48.234375 -23.9375 49.578125 -25.875 C 50.929688 -27.820312 51.984375 -28.796875 52.734375 -28.796875 C 54.347656 -28.796875 55.101562 -28.175781 55 -26.9375 C 54.894531 -25.695312 54.351562 -24.265625 53.375 -22.640625 C 52.40625 -21.023438 51.410156 -19.515625 50.390625 -18.109375 C 49.367188 -16.710938 48.75 -15.851562 48.53125 -15.53125 C 47.769531 -14.5625 46.742188 -13.320312 45.453125 -11.8125 C 44.160156 -10.300781 42.8125 -8.894531 41.40625 -7.59375 C 40.007812 -6.300781 38.664062 -5.492188 37.375 -5.171875 C 36.289062 -4.847656 35.265625 -4.6875 34.296875 -4.6875 C 31.816406 -4.6875 29.847656 -5.601562 28.390625 -7.4375 C 26.929688 -9.269531 25.828125 -11.265625 25.078125 -13.421875 C 23.992188 -16.660156 23.394531 -19.546875 23.28125 -22.078125 C 23.175781 -24.609375 23.175781 -26.765625 23.28125 -28.546875 C 23.394531 -30.328125 23.179688 -31.703125 22.640625 -32.671875 C 21.347656 -31.804688 19.972656 -30.082031 18.515625 -27.5 C 17.066406 -24.914062 15.554688 -22.140625 13.984375 -19.171875 C 12.421875 -16.203125 10.859375 -13.664062 9.296875 -11.5625 C 7.734375 -9.457031 6.144531 -8.40625 4.53125 -8.40625 Z M 4.53125 -8.40625 "/></g></g></g><g fill="#efe1ff" fill-opacity="1"><g transform="translate(722.911984, 163.706159)"><g><path d="M 7.4375 -29.28125 C 9.488281 -30.351562 11.753906 -31.832031 14.234375 -33.71875 C 16.710938 -35.613281 18.0625 -37.851562 18.28125 -40.4375 C 16.875 -40.226562 15.390625 -39.472656 13.828125 -38.171875 C 12.265625 -36.878906 10.914062 -35.421875 9.78125 -33.796875 C 8.65625 -32.179688 7.875 -30.675781 7.4375 -29.28125 Z M 0.15625 -25.390625 C 0.15625 -28.085938 1.046875 -31 2.828125 -34.125 C 4.609375 -37.257812 6.816406 -39.929688 9.453125 -42.140625 C 12.097656 -44.347656 14.71875 -45.453125 17.3125 -45.453125 C 20.863281 -45.453125 22.71875 -44.101562 22.875 -41.40625 C 23.039062 -38.71875 21.882812 -35.804688 19.40625 -32.671875 C 18.113281 -31.273438 16.171875 -29.660156 13.578125 -27.828125 C 10.992188 -25.992188 8.460938 -24.96875 5.984375 -24.75 C 5.984375 -23.019531 6.035156 -21.484375 6.140625 -20.140625 C 6.253906 -18.796875 7.007812 -17.421875 8.40625 -16.015625 C 9.8125 -14.609375 11.59375 -13.90625 13.75 -13.90625 C 16.550781 -13.90625 19.460938 -14.796875 22.484375 -16.578125 C 25.503906 -18.359375 27.820312 -19.84375 29.4375 -21.03125 C 30.082031 -21.570312 30.59375 -22.003906 30.96875 -22.328125 C 31.351562 -22.648438 31.816406 -23.023438 32.359375 -23.453125 C 34.617188 -25.179688 36.046875 -26.445312 36.640625 -27.25 C 37.234375 -28.0625 37.742188 -28.601562 38.171875 -28.875 C 38.609375 -29.144531 39.632812 -29.28125 41.25 -29.28125 C 41.46875 -28.09375 41.546875 -27.28125 41.484375 -26.84375 C 41.429688 -26.414062 41.03125 -25.769531 40.28125 -24.90625 C 38.34375 -22.96875 35.890625 -20.757812 32.921875 -18.28125 C 29.953125 -15.800781 26.769531 -13.644531 23.375 -11.8125 C 19.976562 -9.976562 16.609375 -9.0625 13.265625 -9.0625 C 11.535156 -9.0625 9.890625 -9.359375 8.328125 -9.953125 C 6.765625 -10.546875 5.28125 -11.539062 3.875 -12.9375 C 1.9375 -14.882812 0.832031 -16.878906 0.5625 -18.921875 C 0.289062 -20.972656 0.15625 -23.128906 0.15625 -25.390625 Z M 0.15625 -25.390625 "/></g></g></g><g fill="#efe1ff" fill-opacity="1"><g transform="translate(758.012568, 163.706159)"><g><path d="M 1.9375 26.6875 C 1.9375 28.957031 2.640625 30.09375 4.046875 30.09375 C 4.796875 30.09375 5.601562 29.820312 6.46875 29.28125 C 7.332031 28.738281 8.035156 28.253906 8.578125 27.828125 C 10.734375 26.203125 12.644531 23.742188 14.3125 20.453125 C 15.988281 17.171875 17.203125 14.179688 17.953125 11.484375 C 18.492188 9.648438 18.789062 7.789062 18.84375 5.90625 C 18.894531 4.019531 18.921875 1.941406 18.921875 -0.328125 C 17.628906 0.429688 16.144531 1.753906 14.46875 3.640625 C 12.800781 5.523438 11.484375 7.0625 10.515625 8.25 C 8.578125 10.625 6.660156 13.484375 4.765625 16.828125 C 2.878906 20.171875 1.9375 23.457031 1.9375 26.6875 Z M 0.484375 -26.203125 C 0.484375 -29.003906 1.238281 -31.507812 2.75 -33.71875 C 4.257812 -35.9375 6.066406 -37.71875 8.171875 -39.0625 C 10.273438 -40.414062 12.082031 -41.09375 13.59375 -41.09375 C 14.78125 -41.09375 15.664062 -40.660156 16.25 -39.796875 C 16.84375 -38.929688 16.875 -37.472656 16.34375 -35.421875 C 15.039062 -35.097656 14.117188 -34.910156 13.578125 -34.859375 C 13.046875 -34.804688 12.617188 -34.644531 12.296875 -34.375 C 11.972656 -34.101562 11.378906 -33.484375 10.515625 -32.515625 C 8.359375 -30.140625 7.359375 -28.222656 7.515625 -26.765625 C 7.679688 -25.316406 8.546875 -23.972656 10.109375 -22.734375 C 11.671875 -21.492188 13.609375 -19.957031 15.921875 -18.125 C 18.242188 -16.289062 20.429688 -13.804688 22.484375 -10.671875 C 24.859375 -12.296875 27.285156 -14.1875 29.765625 -16.34375 L 44.8125 -26.859375 C 46.207031 -27.828125 47.414062 -28.5 48.4375 -28.875 C 49.46875 -29.25 50.363281 -29.4375 51.125 -29.4375 C 52.414062 -29.4375 52.953125 -28.894531 52.734375 -27.8125 C 52.515625 -26.738281 51.488281 -25.664062 49.65625 -24.59375 L 38.65625 -16.984375 C 38.226562 -16.765625 37.3125 -16.144531 35.90625 -15.125 C 34.507812 -14.101562 32.972656 -12.972656 31.296875 -11.734375 C 29.628906 -10.492188 28.203125 -9.332031 27.015625 -8.25 C 25.828125 -7.164062 25.179688 -6.460938 25.078125 -6.140625 C 24.960938 -5.609375 25.117188 -4.585938 25.546875 -3.078125 C 25.984375 -1.566406 26.28125 0.398438 26.4375 2.828125 C 26.601562 5.253906 26.28125 8.21875 25.46875 11.71875 C 24.664062 15.226562 22.914062 19.300781 20.21875 23.9375 C 17.84375 27.925781 15.253906 30.863281 12.453125 32.75 C 9.648438 34.644531 7.007812 35.59375 4.53125 35.59375 C 2.257812 35.59375 0.398438 34.835938 -1.046875 33.328125 C -2.503906 31.816406 -3.234375 29.601562 -3.234375 26.6875 C -3.234375 23.019531 -2.34375 19.460938 -0.5625 16.015625 C 1.21875 12.566406 3.347656 9.382812 5.828125 6.46875 C 8.304688 3.5625 10.597656 1.054688 12.703125 -1.046875 C 14.804688 -3.148438 16.179688 -4.6875 16.828125 -5.65625 C 15.523438 -7.925781 13.957031 -9.894531 12.125 -11.5625 C 10.289062 -13.238281 8.484375 -14.773438 6.703125 -16.171875 C 4.929688 -17.578125 3.453125 -19.0625 2.265625 -20.625 C 1.078125 -22.1875 0.484375 -24.046875 0.484375 -26.203125 Z M 0.484375 -26.203125 "/></g></g></g><path stroke-linecap="butt" transform="matrix(0.75, 0, 0, 0.75, 828.584072, 36.581167)" fill="none" stroke-linejoin="miter" d="M 21.830614 201.376166 C 18.413947 201.376166 15.648322 200.292832 13.538947 198.126165 C 11.455614 195.959498 10.413947 193.277207 10.413947 190.084498 C 10.413947 186.808456 11.455614 184.141789 13.538947 182.084498 C 15.648322 180.032414 18.413947 179.001164 21.830614 179.001164 C 25.356656 179.001164 28.174365 180.032414 30.288948 182.084498 C 32.398323 184.141789 33.455615 186.808456 33.455615 190.084498 C 33.455615 193.277207 32.398323 195.959498 30.288948 198.126165 C 28.174365 200.292832 25.356656 201.376166 21.830614 201.376166 Z M 21.830614 201.376166 " stroke="#504081" stroke-width="4.052866" stroke-opacity="1" stroke-miterlimit="4"/><g fill="#fef74b" fill-opacity="1"><g transform="translate(828.584072, 186.581157)"><g><path d="M 16.375 1.03125 C 13.820312 1.03125 11.753906 0.21875 10.171875 -1.40625 C 8.597656 -3.03125 7.8125 -5.035156 7.8125 -7.421875 C 7.8125 -9.898438 8.597656 -11.90625 10.171875 -13.4375 C 11.753906 -14.96875 13.820312 -15.734375 16.375 -15.734375 C 19.019531 -15.734375 21.128906 -14.96875 22.703125 -13.4375 C 24.285156 -11.90625 25.078125 -9.898438 25.078125 -7.421875 C 25.078125 -5.035156 24.285156 -3.03125 22.703125 -1.40625 C 21.128906 0.21875 19.019531 1.03125 16.375 1.03125 Z M 16.375 1.03125 "/></g></g></g></svg>