<svg xmlns="http://www.w3.org/2000/svg" xmlns:xlink="http://www.w3.org/1999/xlink" width="1548" zoomAndPan="magnify" viewBox="0 0 1161 296.999993" height="396" preserveAspectRatio="xMidYMid meet" version="1.0"><defs><g/></defs><g fill="#504081" fill-opacity="1"><g transform="translate(125.71935, 147.44999)"><g><path d="M 43.671875 4.203125 C 43.671875 2.691406 43.671875 1.078125 43.671875 -0.640625 C 43.671875 -2.367188 43.890625 -3.71875 44.328125 -4.6875 C 43.785156 -4.6875 42.675781 -4.226562 41 -3.3125 C 39.332031 -2.394531 37.742188 -1.453125 36.234375 -0.484375 C 34.722656 0.484375 33.859375 1.128906 33.640625 1.453125 C 34.296875 1.671875 35.109375 1.882812 36.078125 2.09375 C 37.046875 2.3125 38.015625 2.53125 38.984375 2.75 C 39.847656 2.96875 40.710938 3.207031 41.578125 3.46875 C 42.441406 3.738281 43.140625 3.984375 43.671875 4.203125 Z M 53.21875 -21.03125 C 58.175781 -24.476562 63.351562 -28.734375 68.75 -33.796875 C 74.144531 -38.867188 79.265625 -44.207031 84.109375 -49.8125 C 88.960938 -55.425781 93.007812 -60.660156 96.25 -65.515625 C 100.238281 -71.335938 103.847656 -77.484375 107.078125 -83.953125 C 110.316406 -90.421875 111.9375 -97.484375 111.9375 -105.140625 C 111.9375 -109.785156 110.289062 -113.75 107 -117.03125 C 103.71875 -120.320312 99.757812 -121.96875 95.125 -121.96875 C 89.945312 -121.96875 85.601562 -121.535156 82.09375 -120.671875 C 78.59375 -119.816406 74.578125 -118.253906 70.046875 -115.984375 C 68.429688 -115.234375 67.59375 -114.640625 67.53125 -114.203125 C 67.476562 -113.773438 67.289062 -112.585938 66.96875 -110.640625 C 66.539062 -108.160156 66.054688 -105.734375 65.515625 -103.359375 C 64.972656 -100.992188 64.429688 -98.570312 63.890625 -96.09375 C 63.460938 -93.71875 63.03125 -91.394531 62.59375 -89.125 C 62.164062 -86.863281 61.679688 -84.492188 61.140625 -82.015625 C 60.171875 -77.378906 59.335938 -72.5 58.640625 -67.375 C 57.941406 -62.25 57.320312 -57.207031 56.78125 -52.25 C 56.5625 -50.632812 56.265625 -48.367188 55.890625 -45.453125 C 55.515625 -42.546875 55.109375 -39.445312 54.671875 -36.15625 C 54.242188 -32.863281 53.894531 -29.84375 53.625 -27.09375 C 53.351562 -24.34375 53.21875 -22.320312 53.21875 -21.03125 Z M 8.25 -33.484375 C 8.25 -37.691406 9.082031 -42.515625 10.75 -47.953125 C 12.425781 -53.398438 14.640625 -59.0625 17.390625 -64.9375 C 20.140625 -70.820312 23.238281 -76.515625 26.6875 -82.015625 C 30.144531 -87.515625 33.648438 -92.445312 37.203125 -96.8125 C 40.765625 -101.1875 44.160156 -104.613281 47.390625 -107.09375 C 49.222656 -108.488281 50.625 -109.617188 51.59375 -110.484375 C 52.570312 -111.347656 53.65625 -112.265625 54.84375 -113.234375 C 56.03125 -114.203125 57.703125 -115.441406 59.859375 -116.953125 C 64.273438 -119.753906 69.445312 -122.394531 75.375 -124.875 C 81.3125 -127.363281 87.082031 -128.609375 92.6875 -128.609375 C 100.988281 -128.609375 107.566406 -126.285156 112.421875 -121.640625 C 117.273438 -117.003906 119.703125 -110.695312 119.703125 -102.71875 C 119.703125 -97.539062 118.921875 -92.550781 117.359375 -87.75 C 115.796875 -82.957031 113.828125 -78.457031 111.453125 -74.25 C 109.078125 -70.039062 106.648438 -66.050781 104.171875 -62.28125 C 101.691406 -58.71875 99.453125 -55.671875 97.453125 -53.140625 C 95.460938 -50.609375 93.414062 -48.207031 91.3125 -45.9375 C 89.207031 -43.675781 86.753906 -40.984375 83.953125 -37.859375 L 66.640625 -21.84375 C 63.410156 -18.925781 60.820312 -16.820312 58.875 -15.53125 C 56.9375 -14.238281 55.484375 -13.1875 54.515625 -12.375 C 53.546875 -11.5625 52.925781 -10.484375 52.65625 -9.140625 C 52.382812 -7.796875 52.25 -5.613281 52.25 -2.59375 C 52.25 -0.539062 52.140625 1.128906 51.921875 2.421875 C 51.710938 3.722656 51.609375 5.394531 51.609375 7.4375 C 53.441406 8.84375 55.273438 10.03125 57.109375 11 C 58.941406 11.96875 60.828125 13.15625 62.765625 14.5625 C 73.660156 22.644531 84.414062 31.21875 95.03125 40.28125 C 105.65625 49.34375 116.738281 58.023438 128.28125 66.328125 C 129.46875 67.191406 130.222656 67.785156 130.546875 68.109375 C 130.867188 68.429688 131.03125 69.613281 131.03125 71.65625 C 130.382812 71.769531 129.953125 71.90625 129.734375 72.0625 C 129.515625 72.226562 129.03125 72.3125 128.28125 72.3125 C 127.738281 72.3125 126.09375 71.363281 123.34375 69.46875 C 120.59375 67.582031 117.25 65.128906 113.3125 62.109375 C 109.375 59.097656 105.191406 55.835938 100.765625 52.328125 C 96.347656 48.828125 92.09375 45.429688 88 42.140625 C 83.90625 38.847656 80.347656 35.960938 77.328125 33.484375 C 74.304688 31.003906 72.253906 29.332031 71.171875 28.46875 C 70.421875 27.820312 69.128906 26.796875 67.296875 25.390625 C 65.460938 23.992188 63.492188 22.539062 61.390625 21.03125 C 59.285156 19.519531 57.34375 18.171875 55.5625 16.984375 C 53.78125 15.796875 52.460938 15.148438 51.609375 15.046875 C 51.609375 16.234375 51.523438 16.988281 51.359375 17.3125 C 51.203125 17.632812 51.125 18.492188 51.125 19.890625 C 51.125 25.285156 51.09375 31.164062 51.03125 37.53125 C 50.976562 43.894531 50.976562 50.175781 51.03125 56.375 C 51.09375 62.570312 51.335938 68.257812 51.765625 73.4375 C 51.984375 75.0625 52.253906 76.757812 52.578125 78.53125 C 52.898438 80.3125 52.953125 81.796875 52.734375 82.984375 C 52.515625 84.171875 51.597656 84.765625 49.984375 84.765625 C 48.367188 84.765625 47.101562 83.898438 46.1875 82.171875 C 45.269531 80.453125 44.59375 78.242188 44.15625 75.546875 C 43.726562 72.847656 43.457031 70.066406 43.34375 67.203125 C 43.238281 64.347656 43.1875 61.757812 43.1875 59.4375 C 43.1875 57.125 43.132812 55.484375 43.03125 54.515625 C 42.707031 50.953125 42.570312 46.5 42.625 41.15625 C 42.675781 35.820312 42.78125 30.351562 42.9375 24.75 C 43.101562 19.144531 43.1875 14.347656 43.1875 10.359375 C 41.144531 9.273438 38.316406 8.351562 34.703125 7.59375 C 31.085938 6.84375 27.71875 6.46875 24.59375 6.46875 C 23.832031 6.46875 22.859375 6.628906 21.671875 6.953125 C 20.484375 7.273438 19.351562 7.4375 18.28125 7.4375 C 16.664062 7.4375 15.695312 6.679688 15.375 5.171875 C 14.9375 3.335938 15.6875 2.039062 17.625 1.28125 C 19.570312 0.53125 21.515625 -0.328125 23.453125 -1.296875 C 25.828125 -2.585938 27.984375 -3.851562 29.921875 -5.09375 C 31.867188 -6.332031 34.023438 -7.65625 36.390625 -9.0625 C 37.578125 -9.707031 38.578125 -10.328125 39.390625 -10.921875 C 40.203125 -11.515625 41.195312 -12.1875 42.375 -12.9375 C 44.101562 -14.125 44.941406 -15.066406 44.890625 -15.765625 C 44.835938 -16.472656 44.8125 -18.066406 44.8125 -20.546875 L 45.453125 -30.25 C 46.316406 -40.707031 47.503906 -51.085938 49.015625 -61.390625 C 50.523438 -71.691406 52.304688 -81.910156 54.359375 -92.046875 L 58.390625 -107.890625 C 57.640625 -107.679688 56.832031 -107.222656 55.96875 -106.515625 C 55.101562 -105.816406 54.347656 -105.195312 53.703125 -104.65625 C 52.953125 -103.90625 52.28125 -103.285156 51.6875 -102.796875 C 51.09375 -102.316406 50.363281 -101.695312 49.5 -100.9375 C 45.082031 -96.945312 40.742188 -92.015625 36.484375 -86.140625 C 32.222656 -80.265625 28.335938 -74.035156 24.828125 -67.453125 C 21.328125 -60.878906 18.550781 -54.300781 16.5 -47.71875 C 14.445312 -41.144531 13.421875 -35.109375 13.421875 -29.609375 C 13.421875 -27.015625 13.609375 -25.335938 13.984375 -24.578125 C 14.367188 -23.828125 14.773438 -23.453125 15.203125 -23.453125 C 15.523438 -23.453125 15.875 -23.53125 16.25 -23.6875 C 16.632812 -23.851562 16.988281 -23.9375 17.3125 -23.9375 C 18.5 -23.9375 19.195312 -23.476562 19.40625 -22.5625 C 19.625 -21.644531 19.300781 -20.703125 18.4375 -19.734375 C 17.570312 -18.765625 16.0625 -18.28125 13.90625 -18.28125 C 12.289062 -18.28125 11.078125 -18.875 10.265625 -20.0625 C 9.460938 -21.25 8.925781 -22.703125 8.65625 -24.421875 C 8.382812 -26.148438 8.25 -27.847656 8.25 -29.515625 C 8.25 -31.191406 8.25 -32.515625 8.25 -33.484375 Z M 8.25 -33.484375 "/></g></g></g><g fill="#504081" fill-opacity="1"><g transform="translate(226.330225, 147.44999)"><g><path d="M 8.09375 -3.71875 C 9.707031 -4.15625 11.160156 -5.582031 12.453125 -8 C 13.742188 -10.425781 14.660156 -13.203125 15.203125 -16.328125 C 15.742188 -19.460938 15.878906 -22.347656 15.609375 -24.984375 C 15.335938 -27.628906 14.503906 -29.4375 13.109375 -30.40625 C 12.785156 -29.21875 12.191406 -27.519531 11.328125 -25.3125 C 10.460938 -23.101562 9.625 -20.675781 8.8125 -18.03125 C 8.007812 -15.394531 7.472656 -12.804688 7.203125 -10.265625 C 6.929688 -7.734375 7.226562 -5.550781 8.09375 -3.71875 Z M 0 -9.21875 C 0 -10.625 0.296875 -12.703125 0.890625 -15.453125 C 1.484375 -18.203125 2.316406 -21.164062 3.390625 -24.34375 C 4.472656 -27.53125 5.6875 -30.550781 7.03125 -33.40625 C 8.382812 -36.257812 9.84375 -38.601562 11.40625 -40.4375 C 12.96875 -42.269531 14.554688 -43.1875 16.171875 -43.1875 C 17.253906 -43.1875 18.007812 -42.703125 18.4375 -41.734375 C 18.875 -40.765625 18.984375 -39.957031 18.765625 -39.3125 C 18.546875 -38.769531 18.140625 -38.226562 17.546875 -37.6875 C 16.953125 -37.144531 16.441406 -36.550781 16.015625 -35.90625 C 16.234375 -35.15625 16.769531 -34.320312 17.625 -33.40625 C 18.488281 -32.488281 19.351562 -31.273438 20.21875 -29.765625 C 21.082031 -28.253906 21.648438 -26.203125 21.921875 -23.609375 C 22.191406 -21.023438 21.894531 -17.628906 21.03125 -13.421875 C 19.84375 -7.816406 17.953125 -3.613281 15.359375 -0.8125 C 12.773438 1.988281 10.242188 3.390625 7.765625 3.390625 C 5.710938 3.390625 3.90625 2.335938 2.34375 0.234375 C 0.78125 -1.859375 0 -5.007812 0 -9.21875 Z M 0 -9.21875 "/></g></g></g><g fill="#504081" fill-opacity="1"><g transform="translate(254.798901, 147.44999)"><g><path d="M 0 -16.34375 C 0 -18.601562 0.535156 -21.40625 1.609375 -24.75 C 2.691406 -28.09375 4.203125 -31.40625 6.140625 -34.6875 C 8.085938 -37.976562 10.328125 -40.703125 12.859375 -42.859375 C 15.390625 -45.023438 18.0625 -46.109375 20.875 -46.109375 C 23.457031 -46.109375 25.554688 -45.351562 27.171875 -43.84375 C 28.796875 -42.332031 29.769531 -40.789062 30.09375 -39.21875 C 30.414062 -37.65625 29.875 -36.875 28.46875 -36.875 C 27.394531 -36.875 26.289062 -37.492188 25.15625 -38.734375 C 24.019531 -39.984375 22.695312 -40.609375 21.1875 -40.609375 C 20 -40.609375 18.566406 -39.90625 16.890625 -38.5 C 15.222656 -37.09375 13.207031 -34.34375 10.84375 -30.25 C 9.757812 -28.519531 8.757812 -26.28125 7.84375 -23.53125 C 6.925781 -20.78125 6.46875 -18.0625 6.46875 -15.375 C 6.6875 -15.582031 6.765625 -15.660156 6.703125 -15.609375 C 6.648438 -15.554688 6.84375 -15.742188 7.28125 -16.171875 L 8.578125 -18.125 C 9.441406 -19.414062 10.4375 -21.082031 11.5625 -23.125 C 12.695312 -25.175781 13.859375 -27.253906 15.046875 -29.359375 C 16.234375 -31.460938 17.3125 -33.238281 18.28125 -34.6875 C 19.25 -36.144531 20.003906 -36.875 20.546875 -36.875 C 22.484375 -36.875 23.613281 -36.171875 23.9375 -34.765625 C 24.257812 -33.367188 24.394531 -31.644531 24.34375 -29.59375 C 24.289062 -27.550781 24.476562 -25.503906 24.90625 -23.453125 C 25.550781 -20.546875 26.546875 -18.414062 27.890625 -17.0625 C 29.242188 -15.71875 30.785156 -15.046875 32.515625 -15.046875 C 35.535156 -15.046875 38.878906 -16.878906 42.546875 -20.546875 C 44.054688 -21.941406 45.132812 -23.097656 45.78125 -24.015625 C 46.425781 -24.929688 47.289062 -25.984375 48.375 -27.171875 C 49.125 -28.253906 50.09375 -28.796875 51.28125 -28.796875 C 52.46875 -28.796875 52.976562 -27.796875 52.8125 -25.796875 C 52.65625 -23.804688 50.523438 -20.816406 46.421875 -16.828125 L 41.578125 -12.9375 C 38.441406 -10.78125 35.421875 -9.703125 32.515625 -9.703125 C 29.816406 -9.703125 27.46875 -10.507812 25.46875 -12.125 C 23.476562 -13.75 21.941406 -15.742188 20.859375 -18.109375 C 19.785156 -20.484375 19.25 -22.804688 19.25 -25.078125 C 18.5 -24.535156 17.632812 -23.347656 16.65625 -21.515625 C 15.6875 -19.679688 14.632812 -17.710938 13.5 -15.609375 C 12.375 -13.503906 11.21875 -11.671875 10.03125 -10.109375 C 8.84375 -8.546875 7.65625 -7.765625 6.46875 -7.765625 C 3.445312 -7.765625 1.613281 -8.460938 0.96875 -9.859375 C 0.320312 -11.265625 0 -13.425781 0 -16.34375 Z M 0 -16.34375 "/></g></g></g><g fill="#504081" fill-opacity="1"><g transform="translate(301.707509, 147.44999)"><g><path d="M 5.65625 -11.8125 C 5.65625 -10.84375 5.875 -10.359375 6.3125 -10.359375 C 7.0625 -10.359375 8.054688 -11.4375 9.296875 -13.59375 C 10.535156 -15.75 11.859375 -18.441406 13.265625 -21.671875 C 14.671875 -24.910156 16.019531 -28.171875 17.3125 -31.453125 C 18.601562 -34.742188 19.679688 -37.628906 20.546875 -40.109375 C 21.410156 -42.597656 21.84375 -44.054688 21.84375 -44.484375 C 20.007812 -44.265625 18.578125 -43.695312 17.546875 -42.78125 C 16.523438 -41.863281 15.582031 -40.8125 14.71875 -39.625 C 11.914062 -36.175781 9.703125 -31.941406 8.078125 -26.921875 C 6.460938 -21.910156 5.65625 -16.875 5.65625 -11.8125 Z M 24.109375 -48.859375 C 24.109375 -50.035156 24.296875 -51.054688 24.671875 -51.921875 C 25.046875 -52.785156 25.394531 -53.757812 25.71875 -54.84375 L 29.125 -73.125 C 29.445312 -74.300781 29.847656 -76.078125 30.328125 -78.453125 C 30.816406 -80.828125 31.488281 -83.09375 32.34375 -85.25 C 33.207031 -87.40625 34.289062 -88.59375 35.59375 -88.8125 C 35.800781 -88.8125 35.957031 -88.835938 36.0625 -88.890625 C 36.175781 -88.941406 36.285156 -88.96875 36.390625 -88.96875 C 37.898438 -88.96875 38.765625 -88.128906 38.984375 -86.453125 C 39.203125 -84.785156 39.066406 -82.765625 38.578125 -80.390625 C 38.097656 -78.023438 37.503906 -75.765625 36.796875 -73.609375 C 36.097656 -71.453125 35.640625 -69.882812 35.421875 -68.90625 C 32.835938 -60.175781 31.164062 -51.226562 30.40625 -42.0625 C 29.65625 -32.894531 29.359375 -23.671875 29.515625 -14.390625 C 29.679688 -5.117188 29.816406 4.046875 29.921875 13.109375 C 30.035156 16.554688 30.332031 19.332031 30.8125 21.4375 C 31.300781 23.539062 31.488281 25.019531 31.375 25.875 C 31.269531 26.738281 30.25 27.171875 28.3125 27.171875 C 27.125 27.171875 26.175781 25.847656 25.46875 23.203125 C 24.769531 20.566406 24.257812 17.117188 23.9375 12.859375 C 23.613281 8.597656 23.453125 4.039062 23.453125 -0.8125 C 23.453125 -5.664062 23.503906 -10.410156 23.609375 -15.046875 C 23.722656 -19.679688 23.832031 -23.671875 23.9375 -27.015625 C 24.050781 -30.359375 24.109375 -32.566406 24.109375 -33.640625 C 23.671875 -33.210938 23.394531 -32.941406 23.28125 -32.828125 C 23.175781 -32.722656 23.019531 -32.296875 22.8125 -31.546875 L 17.140625 -17.796875 C 16.390625 -16.179688 15.53125 -14.347656 14.5625 -12.296875 C 13.59375 -10.242188 12.378906 -8.460938 10.921875 -6.953125 C 9.460938 -5.441406 7.707031 -4.6875 5.65625 -4.6875 C 3.394531 -4.6875 1.859375 -5.765625 1.046875 -7.921875 C 0.242188 -10.078125 0.00390625 -12.851562 0.328125 -16.25 C 0.648438 -19.65625 1.429688 -23.242188 2.671875 -27.015625 C 3.910156 -30.785156 5.472656 -34.367188 7.359375 -37.765625 C 9.242188 -41.171875 11.34375 -43.953125 13.65625 -46.109375 C 15.976562 -48.265625 18.382812 -49.34375 20.875 -49.34375 C 21.726562 -49.34375 22.179688 -49.257812 22.234375 -49.09375 C 22.296875 -48.9375 22.921875 -48.859375 24.109375 -48.859375 Z M 24.109375 -48.859375 "/></g></g></g><g fill="#504081" fill-opacity="1"><g transform="translate(337.94036, 147.44999)"><g><path d="M 8.578125 -13.109375 C 6.304688 -13.109375 4.710938 -14.238281 3.796875 -16.5 C 2.878906 -18.757812 2.472656 -21.5625 2.578125 -24.90625 C 2.691406 -28.25 3.125 -31.59375 3.875 -34.9375 C 4.632812 -38.28125 5.578125 -41.082031 6.703125 -43.34375 C 7.835938 -45.613281 9 -46.75 10.1875 -46.75 C 12.238281 -46.75 13.453125 -46.289062 13.828125 -45.375 C 14.203125 -44.457031 14.117188 -43.023438 13.578125 -41.078125 C 13.046875 -39.140625 12.425781 -36.6875 11.71875 -33.71875 C 11.019531 -30.757812 10.671875 -27.226562 10.671875 -23.125 C 10.890625 -23.34375 11.050781 -23.503906 11.15625 -23.609375 C 11.269531 -23.722656 11.378906 -23.832031 11.484375 -23.9375 L 19.09375 -36.71875 C 19.738281 -37.800781 20.625 -39.226562 21.75 -41 C 22.882812 -42.78125 24.125 -44.398438 25.46875 -45.859375 C 26.820312 -47.316406 28.144531 -48.046875 29.4375 -48.046875 C 31.914062 -48.046875 33.53125 -46.773438 34.28125 -44.234375 C 35.039062 -41.703125 35.421875 -39.144531 35.421875 -36.5625 C 36.609375 -36.769531 38.0625 -37.765625 39.78125 -39.546875 C 41.507812 -41.328125 43.078125 -42.863281 44.484375 -44.15625 C 45.242188 -45.019531 45.914062 -45.773438 46.5 -46.421875 C 47.09375 -47.066406 47.820312 -47.609375 48.6875 -48.046875 C 49.769531 -48.585938 50.742188 -48.859375 51.609375 -48.859375 C 52.679688 -48.859375 53.597656 -48.425781 54.359375 -47.5625 C 55.109375 -46.695312 55.535156 -45.101562 55.640625 -42.78125 C 55.753906 -40.46875 55.703125 -37.800781 55.484375 -34.78125 C 55.265625 -31.757812 55.019531 -28.738281 54.75 -25.71875 C 54.488281 -22.695312 54.359375 -20.054688 54.359375 -17.796875 C 54.359375 -12.835938 54.757812 -9.359375 55.5625 -7.359375 C 56.375 -5.367188 57.476562 -4.375 58.875 -4.375 C 60.5 -4.375 62.304688 -5.453125 64.296875 -7.609375 C 66.296875 -9.765625 68.289062 -12.296875 70.28125 -15.203125 C 72.28125 -18.117188 73.976562 -20.757812 75.375 -23.125 C 76.132812 -24.3125 76.863281 -25.5 77.5625 -26.6875 C 78.269531 -27.875 79.484375 -28.46875 81.203125 -28.46875 C 81.523438 -28.46875 81.875 -28.25 82.25 -27.8125 C 82.632812 -27.382812 82.828125 -26.90625 82.828125 -26.375 C 82.828125 -25.71875 82.5 -24.796875 81.84375 -23.609375 C 81.195312 -22.429688 80.523438 -21.273438 79.828125 -20.140625 C 79.128906 -19.003906 78.5625 -18.113281 78.125 -17.46875 C 77.695312 -16.71875 77.320312 -16.070312 77 -15.53125 C 76.675781 -14.988281 76.242188 -14.285156 75.703125 -13.421875 C 75.273438 -12.773438 74.84375 -12.207031 74.40625 -11.71875 C 73.976562 -11.238281 73.492188 -10.566406 72.953125 -9.703125 C 70.898438 -6.679688 68.445312 -4.035156 65.59375 -1.765625 C 62.738281 0.492188 59.960938 1.625 57.265625 1.625 C 55.753906 1.625 54.296875 1.132812 52.890625 0.15625 C 51.492188 -0.8125 50.363281 -2.484375 49.5 -4.859375 C 47.988281 -8.847656 47.257812 -13.050781 47.3125 -17.46875 C 47.363281 -21.894531 47.710938 -26.207031 48.359375 -30.40625 C 49.015625 -34.613281 49.34375 -38.28125 49.34375 -41.40625 C 48.257812 -40.65625 46.9375 -39.414062 45.375 -37.6875 C 43.8125 -35.96875 42.21875 -34.378906 40.59375 -32.921875 C 38.976562 -31.460938 37.414062 -30.734375 35.90625 -30.734375 C 33.425781 -30.734375 31.726562 -31.921875 30.8125 -34.296875 C 29.894531 -36.671875 29.4375 -39.039062 29.4375 -41.40625 C 27.601562 -40.21875 25.847656 -38.113281 24.171875 -35.09375 C 22.503906 -32.082031 20.832031 -28.90625 19.15625 -25.5625 C 17.488281 -22.21875 15.816406 -19.332031 14.140625 -16.90625 C 12.472656 -14.476562 10.722656 -13.210938 8.890625 -13.109375 Z M 8.578125 -13.109375 "/></g></g></g><g fill="#504081" fill-opacity="1"><g transform="translate(413.479394, 147.44999)"><g><path d="M 0 -16.34375 C 0 -18.601562 0.535156 -21.40625 1.609375 -24.75 C 2.691406 -28.09375 4.203125 -31.40625 6.140625 -34.6875 C 8.085938 -37.976562 10.328125 -40.703125 12.859375 -42.859375 C 15.390625 -45.023438 18.0625 -46.109375 20.875 -46.109375 C 23.457031 -46.109375 25.554688 -45.351562 27.171875 -43.84375 C 28.796875 -42.332031 29.769531 -40.789062 30.09375 -39.21875 C 30.414062 -37.65625 29.875 -36.875 28.46875 -36.875 C 27.394531 -36.875 26.289062 -37.492188 25.15625 -38.734375 C 24.019531 -39.984375 22.695312 -40.609375 21.1875 -40.609375 C 20 -40.609375 18.566406 -39.90625 16.890625 -38.5 C 15.222656 -37.09375 13.207031 -34.34375 10.84375 -30.25 C 9.757812 -28.519531 8.757812 -26.28125 7.84375 -23.53125 C 6.925781 -20.78125 6.46875 -18.0625 6.46875 -15.375 C 6.6875 -15.582031 6.765625 -15.660156 6.703125 -15.609375 C 6.648438 -15.554688 6.84375 -15.742188 7.28125 -16.171875 L 8.578125 -18.125 C 9.441406 -19.414062 10.4375 -21.082031 11.5625 -23.125 C 12.695312 -25.175781 13.859375 -27.253906 15.046875 -29.359375 C 16.234375 -31.460938 17.3125 -33.238281 18.28125 -34.6875 C 19.25 -36.144531 20.003906 -36.875 20.546875 -36.875 C 22.484375 -36.875 23.613281 -36.171875 23.9375 -34.765625 C 24.257812 -33.367188 24.394531 -31.644531 24.34375 -29.59375 C 24.289062 -27.550781 24.476562 -25.503906 24.90625 -23.453125 C 25.550781 -20.546875 26.546875 -18.414062 27.890625 -17.0625 C 29.242188 -15.71875 30.785156 -15.046875 32.515625 -15.046875 C 35.535156 -15.046875 38.878906 -16.878906 42.546875 -20.546875 C 44.054688 -21.941406 45.132812 -23.097656 45.78125 -24.015625 C 46.425781 -24.929688 47.289062 -25.984375 48.375 -27.171875 C 49.125 -28.253906 50.09375 -28.796875 51.28125 -28.796875 C 52.46875 -28.796875 52.976562 -27.796875 52.8125 -25.796875 C 52.65625 -23.804688 50.523438 -20.816406 46.421875 -16.828125 L 41.578125 -12.9375 C 38.441406 -10.78125 35.421875 -9.703125 32.515625 -9.703125 C 29.816406 -9.703125 27.46875 -10.507812 25.46875 -12.125 C 23.476562 -13.75 21.941406 -15.742188 20.859375 -18.109375 C 19.785156 -20.484375 19.25 -22.804688 19.25 -25.078125 C 18.5 -24.535156 17.632812 -23.347656 16.65625 -21.515625 C 15.6875 -19.679688 14.632812 -17.710938 13.5 -15.609375 C 12.375 -13.503906 11.21875 -11.671875 10.03125 -10.109375 C 8.84375 -8.546875 7.65625 -7.765625 6.46875 -7.765625 C 3.445312 -7.765625 1.613281 -8.460938 0.96875 -9.859375 C 0.320312 -11.265625 0 -13.425781 0 -16.34375 Z M 0 -16.34375 "/></g></g></g><g fill="#504081" fill-opacity="1"><g transform="translate(460.388013, 147.44999)"><g><path d="M 11.15625 10.03125 C 12.988281 9.0625 14.847656 7.601562 16.734375 5.65625 C 18.628906 3.71875 20.300781 1.671875 21.75 -0.484375 C 23.207031 -2.640625 24.15625 -4.523438 24.59375 -6.140625 L 16.5 0.8125 C 15.207031 2 14.265625 2.890625 13.671875 3.484375 C 13.078125 4.078125 12.644531 4.800781 12.375 5.65625 C 12.101562 6.519531 11.695312 7.976562 11.15625 10.03125 Z M 15.203125 -4.203125 C 15.742188 -4.523438 16.066406 -4.765625 16.171875 -4.921875 C 16.285156 -5.085938 16.554688 -5.390625 16.984375 -5.828125 C 17.628906 -6.253906 18.222656 -6.6875 18.765625 -7.125 C 21.140625 -9.164062 22.945312 -10.671875 24.1875 -11.640625 C 25.425781 -12.617188 26.285156 -13.429688 26.765625 -14.078125 C 27.253906 -14.722656 27.523438 -15.472656 27.578125 -16.328125 C 27.628906 -17.191406 27.65625 -18.539062 27.65625 -20.375 C 27.65625 -22.863281 27.171875 -24.109375 26.203125 -24.109375 C 25.453125 -24.109375 24.484375 -23.378906 23.296875 -21.921875 C 22.109375 -20.460938 20.921875 -18.628906 19.734375 -16.421875 C 18.546875 -14.210938 17.519531 -12 16.65625 -9.78125 C 15.800781 -7.570312 15.316406 -5.710938 15.203125 -4.203125 Z M 0 -0.640625 C 0 -1.941406 0.101562 -4.453125 0.3125 -8.171875 C 0.53125 -11.890625 0.882812 -16.144531 1.375 -20.9375 C 1.863281 -25.738281 2.484375 -30.378906 3.234375 -34.859375 C 3.992188 -39.335938 4.910156 -43.054688 5.984375 -46.015625 C 7.066406 -48.984375 8.304688 -50.46875 9.703125 -50.46875 C 10.460938 -50.46875 11.21875 -50.253906 11.96875 -49.828125 C 12.289062 -48.640625 12.453125 -47.773438 12.453125 -47.234375 C 12.453125 -46.691406 12.367188 -46.097656 12.203125 -45.453125 C 12.046875 -44.804688 11.753906 -43.566406 11.328125 -41.734375 C 9.816406 -34.078125 8.707031 -26.554688 8 -19.171875 C 7.300781 -11.785156 6.953125 -4.046875 6.953125 4.046875 C 7.710938 3.503906 8.492188 2.019531 9.296875 -0.40625 C 10.109375 -2.832031 11.050781 -5.632812 12.125 -8.8125 C 13.207031 -12 14.394531 -15.15625 15.6875 -18.28125 C 16.976562 -21.40625 18.488281 -23.992188 20.21875 -26.046875 C 21.945312 -28.097656 23.941406 -29.125 26.203125 -29.125 C 28.578125 -29.125 30.328125 -28.015625 31.453125 -25.796875 C 32.585938 -23.585938 33.15625 -21.351562 33.15625 -19.09375 C 33.800781 -19.300781 34.554688 -19.703125 35.421875 -20.296875 C 36.285156 -20.890625 37.039062 -21.40625 37.6875 -21.84375 C 38.769531 -22.59375 40.035156 -23.503906 41.484375 -24.578125 C 42.941406 -25.660156 44.367188 -26.632812 45.765625 -27.5 C 47.171875 -28.363281 48.304688 -28.796875 49.171875 -28.796875 C 50.140625 -28.796875 50.625 -28.148438 50.625 -26.859375 C 50.625 -26.316406 49.816406 -25.394531 48.203125 -24.09375 C 46.585938 -22.800781 44.703125 -21.398438 42.546875 -19.890625 C 40.390625 -18.378906 38.363281 -16.976562 36.46875 -15.6875 C 34.582031 -14.394531 33.375 -13.425781 32.84375 -12.78125 C 32.519531 -12.34375 32.003906 -11.125 31.296875 -9.125 C 30.597656 -7.132812 29.628906 -4.765625 28.390625 -2.015625 C 27.148438 0.734375 25.476562 3.484375 23.375 6.234375 C 21.269531 8.984375 18.546875 11.328125 15.203125 13.265625 C 14.554688 13.585938 13.828125 13.910156 13.015625 14.234375 C 12.210938 14.554688 11.539062 14.9375 11 15.375 C 10.25 15.800781 9.628906 17.09375 9.140625 19.25 C 8.648438 21.40625 8.296875 23.613281 8.078125 25.875 C 7.867188 28.144531 7.765625 29.765625 7.765625 30.734375 C 7.765625 32.671875 7.898438 34.800781 8.171875 37.125 C 8.441406 39.445312 8.519531 41.414062 8.40625 43.03125 C 8.300781 44.644531 7.65625 45.453125 6.46875 45.453125 C 5.28125 45.453125 4.578125 45.070312 4.359375 44.3125 C 4.148438 43.5625 3.9375 42.488281 3.71875 41.09375 C 2.75 34.289062 1.882812 27.359375 1.125 20.296875 C 0.375 13.234375 0 6.253906 0 -0.640625 Z M 0 -0.640625 "/></g></g></g><g fill="#504081" fill-opacity="1"><g transform="translate(505.679079, 147.44999)"><g><path d="M 1.9375 26.6875 C 1.9375 28.957031 2.640625 30.09375 4.046875 30.09375 C 4.796875 30.09375 5.601562 29.820312 6.46875 29.28125 C 7.332031 28.738281 8.035156 28.253906 8.578125 27.828125 C 10.734375 26.203125 12.644531 23.742188 14.3125 20.453125 C 15.988281 17.171875 17.203125 14.179688 17.953125 11.484375 C 18.492188 9.648438 18.789062 7.789062 18.84375 5.90625 C 18.894531 4.019531 18.921875 1.941406 18.921875 -0.328125 C 17.628906 0.429688 16.144531 1.753906 14.46875 3.640625 C 12.800781 5.523438 11.484375 7.0625 10.515625 8.25 C 8.578125 10.625 6.660156 13.484375 4.765625 16.828125 C 2.878906 20.171875 1.9375 23.457031 1.9375 26.6875 Z M 0.484375 -26.203125 C 0.484375 -29.003906 1.238281 -31.507812 2.75 -33.71875 C 4.257812 -35.9375 6.066406 -37.71875 8.171875 -39.0625 C 10.273438 -40.414062 12.082031 -41.09375 13.59375 -41.09375 C 14.78125 -41.09375 15.664062 -40.660156 16.25 -39.796875 C 16.84375 -38.929688 16.875 -37.472656 16.34375 -35.421875 C 15.039062 -35.097656 14.117188 -34.910156 13.578125 -34.859375 C 13.046875 -34.804688 12.617188 -34.644531 12.296875 -34.375 C 11.972656 -34.101562 11.378906 -33.484375 10.515625 -32.515625 C 8.359375 -30.140625 7.359375 -28.222656 7.515625 -26.765625 C 7.679688 -25.316406 8.546875 -23.972656 10.109375 -22.734375 C 11.671875 -21.492188 13.609375 -19.957031 15.921875 -18.125 C 18.242188 -16.289062 20.429688 -13.804688 22.484375 -10.671875 C 24.859375 -12.296875 27.285156 -14.1875 29.765625 -16.34375 L 44.8125 -26.859375 C 46.207031 -27.828125 47.414062 -28.5 48.4375 -28.875 C 49.46875 -29.25 50.363281 -29.4375 51.125 -29.4375 C 52.414062 -29.4375 52.953125 -28.894531 52.734375 -27.8125 C 52.515625 -26.738281 51.488281 -25.664062 49.65625 -24.59375 L 38.65625 -16.984375 C 38.226562 -16.765625 37.3125 -16.144531 35.90625 -15.125 C 34.507812 -14.101562 32.972656 -12.972656 31.296875 -11.734375 C 29.628906 -10.492188 28.203125 -9.332031 27.015625 -8.25 C 25.828125 -7.164062 25.179688 -6.460938 25.078125 -6.140625 C 24.960938 -5.609375 25.117188 -4.585938 25.546875 -3.078125 C 25.984375 -1.566406 26.28125 0.398438 26.4375 2.828125 C 26.601562 5.253906 26.28125 8.21875 25.46875 11.71875 C 24.664062 15.226562 22.914062 19.300781 20.21875 23.9375 C 17.84375 27.925781 15.253906 30.863281 12.453125 32.75 C 9.648438 34.644531 7.007812 35.59375 4.53125 35.59375 C 2.257812 35.59375 0.398438 34.835938 -1.046875 33.328125 C -2.503906 31.816406 -3.234375 29.601562 -3.234375 26.6875 C -3.234375 23.019531 -2.34375 19.460938 -0.5625 16.015625 C 1.21875 12.566406 3.347656 9.382812 5.828125 6.46875 C 8.304688 3.5625 10.597656 1.054688 12.703125 -1.046875 C 14.804688 -3.148438 16.179688 -4.6875 16.828125 -5.65625 C 15.523438 -7.925781 13.957031 -9.894531 12.125 -11.5625 C 10.289062 -13.238281 8.484375 -14.773438 6.703125 -16.171875 C 4.929688 -17.578125 3.453125 -19.0625 2.265625 -20.625 C 1.078125 -22.1875 0.484375 -24.046875 0.484375 -26.203125 Z M 0.484375 -26.203125 "/></g></g></g><g fill="#504081" fill-opacity="1"><g transform="translate(552.425925, 147.44999)"><g/></g></g><g fill="#504081" fill-opacity="1"><g transform="translate(594.320179, 147.44999)"><g><path d="M 7.4375 19.890625 C 10.675781 19.890625 13.613281 18.726562 16.25 16.40625 C 18.894531 14.09375 21.1875 11.375 23.125 8.25 C 25.070312 5.125 26.691406 2.375 27.984375 0 C 27.335938 0.21875 26.039062 0.8125 24.09375 1.78125 C 22.15625 2.75 20.21875 3.769531 18.28125 4.84375 C 16.34375 5.925781 14.992188 6.738281 14.234375 7.28125 C 12.828125 8.144531 11.316406 9.273438 9.703125 10.671875 C 8.085938 12.078125 6.710938 13.476562 5.578125 14.875 C 4.441406 16.28125 3.957031 17.46875 4.125 18.4375 C 4.289062 19.40625 5.394531 19.890625 7.4375 19.890625 Z M 2.265625 -10.1875 C 2.265625 -14.289062 2.425781 -19.332031 2.75 -25.3125 C 3.070312 -31.300781 3.554688 -37.609375 4.203125 -44.234375 C 4.847656 -50.867188 5.707031 -57.148438 6.78125 -63.078125 C 7.863281 -69.015625 9.160156 -73.867188 10.671875 -77.640625 C 11.535156 -79.796875 12.34375 -81.28125 13.09375 -82.09375 C 13.851562 -82.90625 14.554688 -83.3125 15.203125 -83.3125 C 15.960938 -83.3125 16.554688 -82.929688 16.984375 -82.171875 C 17.410156 -81.421875 17.570312 -80.773438 17.46875 -80.234375 C 17.46875 -80.015625 17.332031 -79.445312 17.0625 -78.53125 C 16.789062 -77.613281 16.601562 -76.78125 16.5 -76.03125 C 15.632812 -72.6875 14.71875 -68.289062 13.75 -62.84375 C 12.78125 -57.394531 11.890625 -51.597656 11.078125 -45.453125 C 10.273438 -39.304688 9.628906 -33.484375 9.140625 -27.984375 C 8.648438 -22.484375 8.40625 -18.113281 8.40625 -14.875 L 11.96875 -20.703125 C 12.507812 -21.785156 13.078125 -22.785156 13.671875 -23.703125 C 14.265625 -24.617188 14.9375 -25.453125 15.6875 -26.203125 C 17.414062 -28.578125 19.359375 -30.4375 21.515625 -31.78125 C 23.671875 -33.132812 25.773438 -33.8125 27.828125 -33.8125 C 31.273438 -33.8125 34.023438 -31.976562 36.078125 -28.3125 C 37.910156 -24.75 38.664062 -21.566406 38.34375 -18.765625 C 38.019531 -15.960938 37.859375 -13.320312 37.859375 -10.84375 C 39.898438 -11.914062 41.539062 -12.773438 42.78125 -13.421875 C 44.019531 -14.066406 45.234375 -14.765625 46.421875 -15.515625 C 47.609375 -16.273438 49.175781 -17.359375 51.125 -18.765625 C 52.09375 -19.515625 53.410156 -20.59375 55.078125 -22 C 56.753906 -23.40625 58.347656 -24.726562 59.859375 -25.96875 C 61.367188 -27.207031 62.285156 -27.828125 62.609375 -27.828125 C 64.222656 -27.828125 65.109375 -27.472656 65.265625 -26.765625 C 65.429688 -26.066406 65.160156 -25.257812 64.453125 -24.34375 C 63.753906 -23.425781 63.023438 -22.617188 62.265625 -21.921875 C 61.515625 -21.222656 61.035156 -20.816406 60.828125 -20.703125 C 59.640625 -19.410156 58.394531 -18.28125 57.09375 -17.3125 C 55.800781 -16.34375 54.507812 -15.265625 53.21875 -14.078125 C 51.488281 -12.890625 49.300781 -11.515625 46.65625 -9.953125 C 44.019531 -8.390625 41.648438 -6.984375 39.546875 -5.734375 C 37.441406 -4.492188 36.226562 -3.660156 35.90625 -3.234375 C 35.582031 -2.691406 35.070312 -1.476562 34.375 0.40625 C 33.675781 2.289062 32.675781 4.5 31.375 7.03125 C 30.082031 9.570312 28.410156 12.109375 26.359375 14.640625 C 24.316406 17.171875 21.785156 19.351562 18.765625 21.1875 C 14.992188 23.5625 11.164062 24.75 7.28125 24.75 C 5.007812 24.75 3.066406 24.179688 1.453125 23.046875 C -0.160156 21.921875 -0.96875 20.113281 -0.96875 17.625 C -0.96875 15.257812 0.109375 12.914062 2.265625 10.59375 C 4.421875 8.28125 7.0625 6.070312 10.1875 3.96875 C 13.3125 1.863281 16.4375 0.00390625 19.5625 -1.609375 C 22.695312 -3.234375 25.234375 -4.53125 27.171875 -5.5 C 28.679688 -6.25 29.625 -6.734375 30 -6.953125 C 30.382812 -7.171875 30.789062 -8.195312 31.21875 -10.03125 C 31.976562 -13.15625 32.300781 -16.117188 32.1875 -18.921875 C 32.082031 -21.722656 31.625 -24.015625 30.8125 -25.796875 C 30.007812 -27.578125 28.796875 -28.46875 27.171875 -28.46875 C 25.128906 -28.46875 22.539062 -26.6875 19.40625 -23.125 C 16.71875 -19.894531 14.5625 -16.390625 12.9375 -12.609375 C 11.320312 -8.835938 10 -5.601562 8.96875 -2.90625 C 7.945312 -0.21875 6.898438 1.125 5.828125 1.125 C 4.421875 1.125 3.472656 0.503906 2.984375 -0.734375 C 2.503906 -1.972656 2.265625 -3.476562 2.265625 -5.25 C 2.265625 -7.03125 2.265625 -8.675781 2.265625 -10.1875 Z M 2.265625 -10.1875 "/></g></g></g><g fill="#504081" fill-opacity="1"><g transform="translate(651.742783, 147.44999)"><g><path d="M 4.6875 64.875 C 7.8125 64.875 10.613281 63.957031 13.09375 62.125 C 15.582031 60.289062 17.769531 58.078125 19.65625 55.484375 C 21.539062 52.898438 23.128906 50.472656 24.421875 48.203125 C 25.609375 45.941406 26.929688 42.707031 28.390625 38.5 C 29.847656 34.289062 31.222656 29.734375 32.515625 24.828125 C 33.804688 19.921875 34.910156 15.285156 35.828125 10.921875 C 36.742188 6.554688 37.3125 3.128906 37.53125 0.640625 C 36.238281 1.398438 35.050781 2.210938 33.96875 3.078125 L 18.125 17.140625 C 17.6875 17.578125 17.25 18.09375 16.8125 18.6875 C 16.382812 19.28125 15.847656 19.84375 15.203125 20.375 C 12.617188 22.96875 10.300781 25.554688 8.25 28.140625 C 6.195312 30.734375 4.148438 33.59375 2.109375 36.71875 C 1.128906 38.125 0.101562 39.90625 -0.96875 42.0625 C -2.050781 44.21875 -2.941406 46.507812 -3.640625 48.9375 C -4.335938 51.363281 -4.601562 53.757812 -4.4375 56.125 C -4.28125 58.5 -3.394531 60.550781 -1.78125 62.28125 C -0.375 64.007812 1.78125 64.875 4.6875 64.875 Z M 8.40625 -14.234375 C 10.03125 -15.097656 11.921875 -16.796875 14.078125 -19.328125 C 16.234375 -21.859375 18.492188 -24.875 20.859375 -28.375 C 23.234375 -31.882812 25.550781 -35.5 27.8125 -39.21875 C 30.082031 -42.945312 32.160156 -46.398438 34.046875 -49.578125 C 35.929688 -52.765625 37.414062 -55.328125 38.5 -57.265625 C 39.789062 -59.421875 40.675781 -60.847656 41.15625 -61.546875 C 41.644531 -62.253906 42.753906 -62.609375 44.484375 -62.609375 C 45.347656 -62.609375 45.992188 -61.984375 46.421875 -60.734375 C 46.859375 -59.492188 47.179688 -57.984375 47.390625 -56.203125 C 47.609375 -54.429688 47.71875 -52.734375 47.71875 -51.109375 C 47.71875 -49.492188 47.71875 -48.253906 47.71875 -47.390625 L 47.71875 -34.9375 C 47.71875 -32.238281 47.582031 -29.378906 47.3125 -26.359375 C 47.039062 -23.347656 46.796875 -20.546875 46.578125 -17.953125 C 46.367188 -15.367188 46.265625 -13.320312 46.265625 -11.8125 L 69.390625 -25.234375 C 69.929688 -25.554688 71.0625 -26.3125 72.78125 -27.5 C 74.507812 -28.6875 75.96875 -29.28125 77.15625 -29.28125 C 78.132812 -29.28125 78.625 -28.6875 78.625 -27.5 C 78.625 -26.75 77.734375 -25.722656 75.953125 -24.421875 C 74.171875 -23.128906 72.28125 -21.941406 70.28125 -20.859375 C 68.289062 -19.785156 66.972656 -19.035156 66.328125 -18.609375 C 62.984375 -16.773438 59.664062 -14.804688 56.375 -12.703125 C 53.082031 -10.597656 49.875 -8.46875 46.75 -6.3125 C 46 -5.769531 45.59375 -5.3125 45.53125 -4.9375 C 45.476562 -4.5625 45.34375 -3.78125 45.125 -2.59375 C 44.375 2.695312 43.296875 8.679688 41.890625 15.359375 C 40.492188 22.046875 38.769531 28.570312 36.71875 34.9375 C 34.664062 41.300781 32.296875 46.640625 29.609375 50.953125 C 28.097656 53.867188 26.070312 56.753906 23.53125 59.609375 C 21 62.460938 18.171875 64.832031 15.046875 66.71875 C 11.921875 68.613281 8.578125 69.5625 5.015625 69.5625 C 1.023438 69.5625 -2.316406 68.210938 -5.015625 65.515625 C -7.710938 62.816406 -9.0625 59.039062 -9.0625 54.1875 C -9.0625 50.632812 -8.144531 46.804688 -6.3125 42.703125 C -4.476562 38.609375 -2.023438 34.429688 1.046875 30.171875 C 4.117188 25.910156 7.4375 21.835938 11 17.953125 C 14.5625 14.066406 18.117188 10.535156 21.671875 7.359375 C 25.234375 4.179688 28.414062 1.566406 31.21875 -0.484375 C 31.757812 -1.023438 32.242188 -1.429688 32.671875 -1.703125 C 33.109375 -1.972656 33.648438 -2.320312 34.296875 -2.75 C 35.804688 -4.039062 36.910156 -4.925781 37.609375 -5.40625 C 38.304688 -5.894531 38.710938 -6.84375 38.828125 -8.25 C 39.472656 -13.75 40.0625 -18.816406 40.59375 -23.453125 C 41.132812 -28.085938 41.539062 -32.859375 41.8125 -37.765625 C 42.082031 -42.671875 42.21875 -48.203125 42.21875 -54.359375 C 41.894531 -54.140625 41.003906 -52.867188 39.546875 -50.546875 C 38.097656 -48.234375 36.457031 -45.539062 34.625 -42.46875 C 32.789062 -39.394531 31.0625 -36.535156 29.4375 -33.890625 C 27.820312 -31.242188 26.691406 -29.4375 26.046875 -28.46875 C 24.429688 -25.882812 22.460938 -22.835938 20.140625 -19.328125 C 17.816406 -15.828125 15.578125 -13.050781 13.421875 -11 C 11.378906 -9.164062 9.492188 -8.25 7.765625 -8.25 C 6.035156 -8.25 4.578125 -9.082031 3.390625 -10.75 C 2.210938 -12.425781 1.625 -14.664062 1.625 -17.46875 C 1.625 -19.195312 1.835938 -21.351562 2.265625 -23.9375 C 2.691406 -26.53125 3.335938 -29.09375 4.203125 -31.625 C 5.066406 -34.15625 6.0625 -36.285156 7.1875 -38.015625 C 8.320312 -39.742188 9.539062 -40.609375 10.84375 -40.609375 C 12.675781 -40.609375 13.59375 -39.957031 13.59375 -38.65625 C 13.59375 -37.363281 13.160156 -35.554688 12.296875 -33.234375 C 11.429688 -30.921875 10.566406 -28.144531 9.703125 -24.90625 C 8.835938 -21.675781 8.40625 -18.117188 8.40625 -14.234375 Z M 8.40625 -14.234375 "/></g></g></g><g fill="#504081" fill-opacity="1"><g transform="translate(724.532009, 147.44999)"><g/></g></g><g fill="#504081" fill-opacity="1"><g transform="translate(766.426263, 147.44999)"><g><path d="M 59.53125 4.046875 C 60.5 3.398438 61.46875 2.160156 62.4375 0.328125 C 63.40625 -1.503906 64.265625 -3.472656 65.015625 -5.578125 C 65.773438 -7.679688 66.375 -9.378906 66.8125 -10.671875 C 69.9375 -18.648438 72.765625 -26.550781 75.296875 -34.375 C 77.835938 -42.195312 80.722656 -50.203125 83.953125 -58.390625 C 84.492188 -59.796875 85.4375 -62.085938 86.78125 -65.265625 C 88.132812 -68.453125 89.726562 -72.066406 91.5625 -76.109375 C 93.394531 -80.148438 95.414062 -84.25 97.625 -88.40625 C 99.832031 -92.5625 102.09375 -96.414062 104.40625 -99.96875 C 106.726562 -103.53125 108.992188 -106.414062 111.203125 -108.625 C 113.421875 -110.832031 115.445312 -111.9375 117.28125 -111.9375 C 119.757812 -111.9375 121.59375 -110.722656 122.78125 -108.296875 C 123.96875 -105.867188 124.640625 -102.820312 124.796875 -99.15625 C 124.960938 -95.488281 124.882812 -91.6875 124.5625 -87.75 C 124.238281 -83.820312 123.859375 -80.316406 123.421875 -77.234375 C 122.992188 -74.160156 122.671875 -72.085938 122.453125 -71.015625 L 112.421875 -4.203125 C 110.703125 7.765625 109.382812 19.460938 108.46875 30.890625 C 107.550781 42.328125 106.441406 53.867188 105.140625 65.515625 C 104.929688 68.421875 104.828125 71.597656 104.828125 75.046875 C 104.828125 78.503906 104.828125 81.742188 104.828125 84.765625 C 104.828125 86.171875 104.582031 87.222656 104.09375 87.921875 C 103.613281 88.617188 103.101562 88.96875 102.5625 88.96875 C 101.914062 88.96875 101.296875 88.585938 100.703125 87.828125 C 100.109375 87.078125 99.753906 86.054688 99.640625 84.765625 C 99.535156 83.359375 99.484375 82.304688 99.484375 81.609375 C 99.484375 80.910156 99.429688 80.078125 99.328125 79.109375 L 104.171875 6.953125 C 105.035156 0.160156 105.816406 -6.117188 106.515625 -11.890625 C 107.222656 -17.660156 107.976562 -23.484375 108.78125 -29.359375 C 109.59375 -35.234375 110.59375 -41.734375 111.78125 -48.859375 C 112.101562 -50.691406 112.585938 -53.546875 113.234375 -57.421875 C 113.878906 -61.304688 114.578125 -65.675781 115.328125 -70.53125 C 116.085938 -75.382812 116.765625 -80.238281 117.359375 -85.09375 C 117.953125 -89.945312 118.273438 -94.257812 118.328125 -98.03125 C 118.378906 -101.800781 118.03125 -104.5 117.28125 -106.125 C 115.226562 -105.039062 113.3125 -103.335938 111.53125 -101.015625 C 109.757812 -98.703125 108.28125 -96.46875 107.09375 -94.3125 C 104.9375 -90.75 103.070312 -87.484375 101.5 -84.515625 C 99.9375 -81.554688 98.453125 -78.566406 97.046875 -75.546875 C 95.648438 -72.523438 94.09375 -69.070312 92.375 -65.1875 C 89.675781 -59.257812 87.515625 -53.867188 85.890625 -49.015625 C 84.273438 -44.160156 82.390625 -39.035156 80.234375 -33.640625 C 79.691406 -32.242188 78.910156 -29.847656 77.890625 -26.453125 C 76.867188 -23.054688 75.65625 -19.28125 74.25 -15.125 C 72.84375 -10.96875 71.332031 -6.972656 69.71875 -3.140625 C 68.101562 0.679688 66.429688 3.859375 64.703125 6.390625 C 62.984375 8.921875 61.257812 10.1875 59.53125 10.1875 C 57.800781 10.1875 56.453125 9.242188 55.484375 7.359375 C 54.515625 5.472656 53.835938 3.128906 53.453125 0.328125 C 53.078125 -2.472656 52.890625 -5.273438 52.890625 -8.078125 C 52.890625 -10.890625 52.945312 -13.15625 53.0625 -14.875 L 55.484375 -47.234375 C 55.484375 -47.878906 55.425781 -48.601562 55.3125 -49.40625 C 55.207031 -50.21875 55.15625 -51.21875 55.15625 -52.40625 C 54.1875 -52.195312 53.59375 -51.929688 53.375 -51.609375 C 53.164062 -51.285156 52.789062 -50.742188 52.25 -49.984375 C 49.988281 -46.960938 47.859375 -43.269531 45.859375 -38.90625 C 43.867188 -34.539062 42.007812 -29.898438 40.28125 -24.984375 C 38.550781 -20.078125 37.039062 -15.304688 35.75 -10.671875 C 34.457031 -6.035156 33.378906 -1.992188 32.515625 1.453125 C 31.222656 6.523438 29.957031 11.675781 28.71875 16.90625 C 27.476562 22.132812 26.15625 27.125 24.75 31.875 C 23.882812 35.539062 22.859375 39.148438 21.671875 42.703125 C 20.484375 46.265625 19.132812 49.820312 17.625 53.375 C 16.875 54.675781 16.144531 55.703125 15.4375 56.453125 C 14.738281 57.210938 13.582031 57.59375 11.96875 57.59375 C 10.132812 57.59375 8.570312 56.21875 7.28125 53.46875 C 5.988281 50.71875 4.960938 47.179688 4.203125 42.859375 C 3.453125 38.546875 2.882812 34.046875 2.5 29.359375 C 2.125 24.671875 1.882812 20.300781 1.78125 16.25 C 1.675781 12.207031 1.625 9.164062 1.625 7.125 L 3.234375 -25.5625 C 3.773438 -30.625 4.367188 -35.660156 5.015625 -40.671875 C 5.660156 -45.691406 6.363281 -50.679688 7.125 -55.640625 C 7.226562 -56.179688 7.492188 -57.828125 7.921875 -60.578125 C 8.359375 -63.328125 8.976562 -66.695312 9.78125 -70.6875 C 10.59375 -74.675781 11.484375 -78.851562 12.453125 -83.21875 C 13.421875 -87.59375 14.441406 -91.691406 15.515625 -95.515625 C 16.597656 -99.347656 17.707031 -102.453125 18.84375 -104.828125 C 19.976562 -107.203125 21.082031 -108.390625 22.15625 -108.390625 C 23.664062 -108.390625 24.5 -107.847656 24.65625 -106.765625 C 24.820312 -105.679688 24.691406 -104.410156 24.265625 -102.953125 C 23.835938 -101.503906 23.457031 -100.238281 23.125 -99.15625 C 21.40625 -93.007812 20.003906 -87.425781 18.921875 -82.40625 C 17.847656 -77.394531 16.851562 -72.328125 15.9375 -67.203125 C 15.019531 -62.085938 14.078125 -56.238281 13.109375 -49.65625 C 12.242188 -43.726562 11.429688 -36.828125 10.671875 -28.953125 C 9.921875 -21.078125 9.300781 -12.800781 8.8125 -4.125 C 8.332031 4.550781 8.195312 12.988281 8.40625 21.1875 C 8.625 29.382812 9.273438 36.773438 10.359375 43.359375 L 11.96875 51.28125 C 12.832031 51.0625 13.367188 50.707031 13.578125 50.21875 C 13.796875 49.738281 14.125 49.066406 14.5625 48.203125 L 18.4375 36.5625 C 20.914062 27.71875 23.34375 18.550781 25.71875 9.0625 C 28.09375 -0.425781 30.707031 -9.726562 33.5625 -18.84375 C 36.425781 -27.957031 39.742188 -36.394531 43.515625 -44.15625 C 44.585938 -46.207031 45.851562 -48.550781 47.3125 -51.1875 C 48.769531 -53.832031 50.363281 -55.695312 52.09375 -56.78125 C 53.0625 -57.425781 54.140625 -57.75 55.328125 -57.75 C 57.160156 -57.75 58.398438 -56.992188 59.046875 -55.484375 C 59.910156 -53.972656 60.394531 -51.222656 60.5 -47.234375 C 60.601562 -43.242188 60.492188 -38.769531 60.171875 -33.8125 C 59.847656 -28.851562 59.523438 -24.050781 59.203125 -19.40625 C 58.878906 -14.769531 58.71875 -11.050781 58.71875 -8.25 C 58.71875 -5.007812 58.851562 -2.582031 59.125 -0.96875 C 59.394531 0.644531 59.53125 2.316406 59.53125 4.046875 Z M 59.53125 4.046875 "/></g></g></g><g fill="#504081" fill-opacity="1"><g transform="translate(890.167924, 147.44999)"><g><path d="M 8.09375 -3.71875 C 9.707031 -4.15625 11.160156 -5.582031 12.453125 -8 C 13.742188 -10.425781 14.660156 -13.203125 15.203125 -16.328125 C 15.742188 -19.460938 15.878906 -22.347656 15.609375 -24.984375 C 15.335938 -27.628906 14.503906 -29.4375 13.109375 -30.40625 C 12.785156 -29.21875 12.191406 -27.519531 11.328125 -25.3125 C 10.460938 -23.101562 9.625 -20.675781 8.8125 -18.03125 C 8.007812 -15.394531 7.472656 -12.804688 7.203125 -10.265625 C 6.929688 -7.734375 7.226562 -5.550781 8.09375 -3.71875 Z M 0 -9.21875 C 0 -10.625 0.296875 -12.703125 0.890625 -15.453125 C 1.484375 -18.203125 2.316406 -21.164062 3.390625 -24.34375 C 4.472656 -27.53125 5.6875 -30.550781 7.03125 -33.40625 C 8.382812 -36.257812 9.84375 -38.601562 11.40625 -40.4375 C 12.96875 -42.269531 14.554688 -43.1875 16.171875 -43.1875 C 17.253906 -43.1875 18.007812 -42.703125 18.4375 -41.734375 C 18.875 -40.765625 18.984375 -39.957031 18.765625 -39.3125 C 18.546875 -38.769531 18.140625 -38.226562 17.546875 -37.6875 C 16.953125 -37.144531 16.441406 -36.550781 16.015625 -35.90625 C 16.234375 -35.15625 16.769531 -34.320312 17.625 -33.40625 C 18.488281 -32.488281 19.351562 -31.273438 20.21875 -29.765625 C 21.082031 -28.253906 21.648438 -26.203125 21.921875 -23.609375 C 22.191406 -21.023438 21.894531 -17.628906 21.03125 -13.421875 C 19.84375 -7.816406 17.953125 -3.613281 15.359375 -0.8125 C 12.773438 1.988281 10.242188 3.390625 7.765625 3.390625 C 5.710938 3.390625 3.90625 2.335938 2.34375 0.234375 C 0.78125 -1.859375 0 -5.007812 0 -9.21875 Z M 0 -9.21875 "/></g></g></g><g fill="#504081" fill-opacity="1"><g transform="translate(918.636565, 147.44999)"><g><path d="M 4.53125 -8.40625 C 2.476562 -8.40625 1.15625 -9.644531 0.5625 -12.125 C -0.03125 -14.613281 -0.113281 -17.71875 0.3125 -21.4375 C 0.75 -25.15625 1.535156 -28.875 2.671875 -32.59375 C 3.804688 -36.3125 5.070312 -39.410156 6.46875 -41.890625 C 7.875 -44.378906 9.171875 -45.625 10.359375 -45.625 C 12.191406 -45.625 13.050781 -44.785156 12.9375 -43.109375 C 12.832031 -41.441406 12.296875 -39.234375 11.328125 -36.484375 C 10.359375 -33.734375 9.382812 -30.710938 8.40625 -27.421875 C 7.4375 -24.128906 6.953125 -20.921875 6.953125 -17.796875 L 14.71875 -29.609375 C 15.039062 -30.253906 15.738281 -31.382812 16.8125 -33 C 17.894531 -34.613281 19.109375 -36.117188 20.453125 -37.515625 C 21.804688 -38.921875 23.128906 -39.625 24.421875 -39.625 C 25.722656 -39.625 26.75 -38.765625 27.5 -37.046875 L 28.46875 -27.984375 C 28.46875 -27.015625 28.519531 -25.503906 28.625 -23.453125 C 28.738281 -21.398438 28.984375 -19.320312 29.359375 -17.21875 C 29.734375 -15.125 30.351562 -13.320312 31.21875 -11.8125 C 32.082031 -10.300781 33.269531 -9.546875 34.78125 -9.546875 C 36.394531 -9.546875 38.09375 -10.515625 39.875 -12.453125 C 41.65625 -14.398438 43.378906 -16.640625 45.046875 -19.171875 C 46.722656 -21.703125 48.234375 -23.9375 49.578125 -25.875 C 50.929688 -27.820312 51.984375 -28.796875 52.734375 -28.796875 C 54.347656 -28.796875 55.101562 -28.175781 55 -26.9375 C 54.894531 -25.695312 54.351562 -24.265625 53.375 -22.640625 C 52.40625 -21.023438 51.410156 -19.515625 50.390625 -18.109375 C 49.367188 -16.710938 48.75 -15.851562 48.53125 -15.53125 C 47.769531 -14.5625 46.742188 -13.320312 45.453125 -11.8125 C 44.160156 -10.300781 42.8125 -8.894531 41.40625 -7.59375 C 40.007812 -6.300781 38.664062 -5.492188 37.375 -5.171875 C 36.289062 -4.847656 35.265625 -4.6875 34.296875 -4.6875 C 31.816406 -4.6875 29.847656 -5.601562 28.390625 -7.4375 C 26.929688 -9.269531 25.828125 -11.265625 25.078125 -13.421875 C 23.992188 -16.660156 23.394531 -19.546875 23.28125 -22.078125 C 23.175781 -24.609375 23.175781 -26.765625 23.28125 -28.546875 C 23.394531 -30.328125 23.179688 -31.703125 22.640625 -32.671875 C 21.347656 -31.804688 19.972656 -30.082031 18.515625 -27.5 C 17.066406 -24.914062 15.554688 -22.140625 13.984375 -19.171875 C 12.421875 -16.203125 10.859375 -13.664062 9.296875 -11.5625 C 7.734375 -9.457031 6.144531 -8.40625 4.53125 -8.40625 Z M 4.53125 -8.40625 "/></g></g></g><g fill="#504081" fill-opacity="1"><g transform="translate(967.162716, 147.44999)"><g><path d="M -45.453125 -72.140625 C -45.453125 -73.546875 -44.15625 -75.03125 -41.5625 -76.59375 C -38.976562 -78.15625 -35.71875 -79.691406 -31.78125 -81.203125 C -27.84375 -82.710938 -23.691406 -84.140625 -19.328125 -85.484375 C -14.960938 -86.835938 -10.945312 -88 -7.28125 -88.96875 C -3.613281 -89.9375 -0.863281 -90.691406 0.96875 -91.234375 C 3.238281 -91.878906 4.832031 -92.253906 5.75 -92.359375 C 6.664062 -92.472656 7.253906 -92.828125 7.515625 -93.421875 C 7.785156 -94.015625 8.082031 -95.226562 8.40625 -97.0625 C 9.269531 -101.476562 10.269531 -104.519531 11.40625 -106.1875 C 12.539062 -107.863281 13.644531 -108.703125 14.71875 -108.703125 C 15.582031 -108.703125 16.3125 -108.242188 16.90625 -107.328125 C 17.5 -106.410156 17.796875 -105.304688 17.796875 -104.015625 C 17.796875 -103.046875 17.738281 -102.640625 17.625 -102.796875 C 17.519531 -102.960938 17.519531 -102.613281 17.625 -101.75 C 17.625 -101.53125 17.648438 -101.257812 17.703125 -100.9375 C 17.765625 -100.613281 17.796875 -100.179688 17.796875 -99.640625 C 17.796875 -98.242188 17.523438 -97.546875 16.984375 -97.546875 C 16.441406 -97.546875 15.898438 -97.460938 15.359375 -97.296875 C 14.828125 -97.140625 14.5625 -96.195312 14.5625 -94.46875 C 15.851562 -94.46875 17.28125 -94.65625 18.84375 -95.03125 C 20.40625 -95.414062 21.78125 -95.660156 22.96875 -95.765625 C 27.71875 -96.628906 32.460938 -97.410156 37.203125 -98.109375 C 41.953125 -98.804688 46.804688 -99.15625 51.765625 -99.15625 C 54.347656 -99.15625 56.234375 -98.613281 57.421875 -97.53125 C 58.609375 -96.457031 59.039062 -95.378906 58.71875 -94.296875 C 58.394531 -93.222656 57.207031 -92.6875 55.15625 -92.6875 C 54.945312 -93.550781 54.8125 -93.957031 54.75 -93.90625 C 54.695312 -93.851562 54.1875 -93.929688 53.21875 -94.140625 C 52.789062 -94.253906 51.925781 -94.3125 50.625 -94.3125 C 48.363281 -94.3125 45.375 -94.066406 41.65625 -93.578125 C 37.9375 -93.097656 34.082031 -92.53125 30.09375 -91.875 C 26.101562 -91.226562 22.539062 -90.609375 19.40625 -90.015625 C 16.28125 -89.429688 14.234375 -89.03125 13.265625 -88.8125 L 10.03125 -55.640625 C 9.925781 -54.890625 9.898438 -54.082031 9.953125 -53.21875 C 10.003906 -52.351562 10.03125 -51.488281 10.03125 -50.625 C 10.03125 -49.550781 9.945312 -48.851562 9.78125 -48.53125 C 9.625 -48.207031 9.546875 -47.453125 9.546875 -46.265625 C 9.546875 -43.890625 9.597656 -41.164062 9.703125 -38.09375 C 9.816406 -35.019531 9.765625 -32.617188 9.546875 -30.890625 C 9.429688 -29.921875 9.347656 -28.007812 9.296875 -25.15625 C 9.242188 -22.300781 9.191406 -18.984375 9.140625 -15.203125 C 9.085938 -11.429688 9.0625 -7.628906 9.0625 -3.796875 C 9.0625 0.0234375 9.0625 3.5 9.0625 6.625 C 9.0625 9.757812 9.113281 12.023438 9.21875 13.421875 C 9.21875 14.609375 9.351562 16.414062 9.625 18.84375 C 9.894531 21.269531 9.945312 23.453125 9.78125 25.390625 C 9.625 27.335938 8.84375 28.3125 7.4375 28.3125 C 5.394531 28.3125 4.15625 27.175781 3.71875 24.90625 C 3.289062 22.644531 3.078125 20.546875 3.078125 18.609375 C 2.753906 14.722656 2.5625 10.191406 2.5 5.015625 C 2.445312 -0.160156 2.445312 -5.335938 2.5 -10.515625 C 2.5625 -15.691406 2.59375 -20.222656 2.59375 -24.109375 L 3.078125 -31.703125 C 3.078125 -33.210938 3.078125 -35.53125 3.078125 -38.65625 C 3.078125 -41.789062 3.128906 -45.109375 3.234375 -48.609375 C 3.335938 -52.117188 3.441406 -55.328125 3.546875 -58.234375 C 3.660156 -61.148438 3.828125 -63.195312 4.046875 -64.375 C 4.265625 -65.457031 4.398438 -66.753906 4.453125 -68.265625 C 4.503906 -69.773438 4.582031 -71.066406 4.6875 -72.140625 L 6.140625 -87.1875 C 5.710938 -87.082031 4.769531 -86.867188 3.3125 -86.546875 C 1.851562 -86.222656 0.695312 -85.953125 -0.15625 -85.734375 C -5.445312 -84.441406 -10.488281 -83.066406 -15.28125 -81.609375 C -20.082031 -80.148438 -25.019531 -78.453125 -30.09375 -76.515625 C -31.0625 -76.085938 -31.945312 -75.628906 -32.75 -75.140625 C -33.5625 -74.648438 -34.453125 -74.191406 -35.421875 -73.765625 C -36.722656 -73.222656 -37.5625 -72.84375 -37.9375 -72.625 C -38.3125 -72.414062 -38.5 -72.148438 -38.5 -71.828125 C -38.5 -71.503906 -38.769531 -70.800781 -39.3125 -69.71875 C -39.738281 -69.613281 -40.164062 -69.53125 -40.59375 -69.46875 C -41.03125 -69.414062 -41.519531 -69.390625 -42.0625 -69.390625 C -42.925781 -69.390625 -43.707031 -69.578125 -44.40625 -69.953125 C -45.101562 -70.335938 -45.453125 -71.066406 -45.453125 -72.140625 Z M -45.453125 -72.140625 "/></g></g></g><g fill="#504081" fill-opacity="1"><g transform="translate(985.926172, 147.44999)"><g><path d="M -0.96875 -13.421875 L 0 -31.703125 C 0.101562 -32.890625 0.207031 -34.316406 0.3125 -35.984375 C 0.425781 -37.660156 0.535156 -39.09375 0.640625 -40.28125 C 0.859375 -45.675781 1.535156 -51.015625 2.671875 -56.296875 C 3.804688 -61.578125 5.019531 -66.804688 6.3125 -71.984375 C 7.0625 -74.140625 7.648438 -75.566406 8.078125 -76.265625 C 8.515625 -76.972656 9.113281 -77.328125 9.875 -77.328125 C 10.195312 -77.328125 10.570312 -77.296875 11 -77.234375 C 11.425781 -77.179688 11.910156 -77.101562 12.453125 -77 C 12.992188 -74.519531 12.882812 -71.582031 12.125 -68.1875 C 11.375 -64.789062 10.785156 -61.6875 10.359375 -58.875 C 9.171875 -51.4375 8.195312 -43.242188 7.4375 -34.296875 C 6.6875 -25.347656 6.3125 -16.828125 6.3125 -8.734375 L 6.796875 9.375 L 8.09375 6.3125 C 9.601562 2 10.867188 -1.640625 11.890625 -4.609375 C 12.910156 -7.578125 14.09375 -10.515625 15.4375 -13.421875 C 16.789062 -16.335938 18.601562 -19.898438 20.875 -24.109375 C 22.050781 -26.265625 23.207031 -28.097656 24.34375 -29.609375 C 25.476562 -31.117188 27.234375 -31.875 29.609375 -31.875 C 30.785156 -31.875 31.617188 -31.007812 32.109375 -29.28125 C 32.597656 -27.550781 32.894531 -25.660156 33 -23.609375 C 33.101562 -21.566406 33.15625 -20.0625 33.15625 -19.09375 C 33.15625 -16.070312 33.234375 -13.507812 33.390625 -11.40625 C 33.554688 -9.300781 34.179688 -7.222656 35.265625 -5.171875 C 37.742188 -5.710938 39.84375 -7.300781 41.5625 -9.9375 C 43.289062 -12.582031 44.859375 -14.878906 46.265625 -16.828125 C 47.015625 -18.015625 47.710938 -19.195312 48.359375 -20.375 C 49.015625 -21.5625 49.664062 -22.804688 50.3125 -24.109375 C 51.28125 -25.828125 52.0625 -27.007812 52.65625 -27.65625 C 53.25 -28.300781 53.867188 -28.625 54.515625 -28.625 C 54.835938 -28.625 55.429688 -28.519531 56.296875 -28.3125 C 56.835938 -26.363281 56.726562 -24.796875 55.96875 -23.609375 C 55.21875 -22.429688 54.410156 -21.03125 53.546875 -19.40625 C 52.785156 -18.007812 51.757812 -16.203125 50.46875 -13.984375 C 49.175781 -11.773438 47.71875 -9.617188 46.09375 -7.515625 C 44.476562 -5.421875 42.753906 -3.644531 40.921875 -2.1875 C 39.085938 -0.726562 37.203125 0 35.265625 0 C 31.703125 0 29.382812 -3.179688 28.3125 -9.546875 C 27.988281 -11.378906 27.769531 -13.832031 27.65625 -16.90625 C 27.550781 -19.976562 27.5 -22.644531 27.5 -24.90625 C 26.75 -24.375 25.832031 -23.132812 24.75 -21.1875 C 23.664062 -19.25 22.582031 -17.066406 21.5 -14.640625 C 20.425781 -12.210938 19.429688 -9.863281 18.515625 -7.59375 C 17.597656 -5.332031 16.875 -3.609375 16.34375 -2.421875 C 15.039062 0.921875 13.984375 4.265625 13.171875 7.609375 C 12.367188 10.953125 11.484375 14.128906 10.515625 17.140625 C 9.972656 18.867188 9.351562 19.972656 8.65625 20.453125 C 7.957031 20.941406 6.851562 21.1875 5.34375 21.1875 C 4.15625 21.1875 3.179688 20.160156 2.421875 18.109375 C 1.671875 16.066406 1.050781 13.507812 0.5625 10.4375 C 0.0820312 7.363281 -0.265625 4.179688 -0.484375 0.890625 C -0.703125 -2.398438 -0.835938 -5.363281 -0.890625 -8 C -0.941406 -10.644531 -0.96875 -12.453125 -0.96875 -13.421875 Z M -0.96875 -13.421875 "/></g></g></g><path stroke-linecap="butt" transform="matrix(0.75, 0, 0, 0.75, 1039.925682, 40.386619)" fill="none" stroke-linejoin="miter" d="M 21.828259 201.375146 C 18.411592 201.375146 15.651175 200.291813 13.5418 198.125146 C 11.458467 195.958479 10.4168 193.281396 10.4168 190.083479 C 10.4168 186.807437 11.458467 184.14077 13.5418 182.088687 C 15.651175 180.031395 18.411592 179.005353 21.828259 179.005353 C 25.359509 179.005353 28.177218 180.031395 30.286593 182.088687 C 32.395968 184.14077 33.45326 186.807437 33.45326 190.083479 C 33.45326 193.281396 32.395968 195.958479 30.286593 198.125146 C 28.177218 200.291813 25.359509 201.375146 21.828259 201.375146 Z M 21.828259 201.375146 " stroke="#504081" stroke-width="4.052866" stroke-opacity="1" stroke-miterlimit="4"/><g fill="#fef74b" fill-opacity="1"><g transform="translate(1039.925682, 190.386609)"><g><path d="M 16.375 1.03125 C 13.820312 1.03125 11.753906 0.21875 10.171875 -1.40625 C 8.597656 -3.03125 7.8125 -5.035156 7.8125 -7.421875 C 7.8125 -9.898438 8.597656 -11.90625 10.171875 -13.4375 C 11.753906 -14.96875 13.820312 -15.734375 16.375 -15.734375 C 19.019531 -15.734375 21.128906 -14.96875 22.703125 -13.4375 C 24.285156 -11.90625 25.078125 -9.898438 25.078125 -7.421875 C 25.078125 -5.035156 24.285156 -3.03125 22.703125 -1.40625 C 21.128906 0.21875 19.019531 1.03125 16.375 1.03125 Z M 16.375 1.03125 "/></g></g></g></svg>