<svg xmlns="http://www.w3.org/2000/svg" xmlns:xlink="http://www.w3.org/1999/xlink" width="150" zoomAndPan="magnify" viewBox="0 0 112.5 112.499997" height="150" preserveAspectRatio="xMidYMid meet" version="1.0"><defs><g/><clipPath id="cfa9a9aad1"><path d="M 0 0 L 112.003906 0 L 112.003906 112.003906 L 0 112.003906 Z M 0 0 " clip-rule="nonzero"/></clipPath></defs><g clip-path="url(#cfa9a9aad1)"><path fill="#ffffff" d="M 0 0 L 112.003906 0 L 112.003906 112.003906 L 0 112.003906 Z M 0 0 " fill-opacity="1" fill-rule="nonzero"/><path fill="#504081" d="M 0 0 L 112.003906 0 L 112.003906 112.003906 L 0 112.003906 Z M 0 0 " fill-opacity="1" fill-rule="nonzero"/></g><g fill="#fef74b" fill-opacity="1"><g transform="translate(36.003063, 57.844123)"><g><path d="M 16.078125 -22.515625 C 16.078125 -22.578125 16.140625 -22.65625 16.265625 -22.75 C 16.390625 -22.851562 16.492188 -22.90625 16.578125 -22.90625 C 16.828125 -22.90625 16.96875 -22.78125 17 -22.53125 C 17.03125 -22.289062 17.054688 -22.070312 17.078125 -21.875 C 17.097656 -21.632812 17.117188 -21.429688 17.140625 -21.265625 C 17.171875 -21.097656 17.195312 -20.878906 17.21875 -20.609375 C 17.28125 -20.234375 17.359375 -19.703125 17.453125 -19.015625 C 17.554688 -18.328125 17.648438 -17.644531 17.734375 -16.96875 C 17.828125 -16.289062 17.875 -15.785156 17.875 -15.453125 C 17.894531 -15.203125 17.921875 -14.984375 17.953125 -14.796875 C 17.992188 -14.609375 18.015625 -14.359375 18.015625 -14.046875 C 18.015625 -13.804688 18.015625 -13.582031 18.015625 -13.375 C 18.015625 -13.175781 18.023438 -12.957031 18.046875 -12.71875 C 18.085938 -12.363281 18.097656 -12.113281 18.078125 -11.96875 C 18.054688 -11.820312 18.035156 -11.617188 18.015625 -11.359375 L 17.875 -8.5625 C 17.789062 -7.488281 17.644531 -6.265625 17.4375 -4.890625 C 17.238281 -3.515625 16.984375 -2.066406 16.671875 -0.546875 C 16.367188 0.972656 16.039062 2.476562 15.6875 3.96875 C 15.332031 5.46875 14.953125 6.875 14.546875 8.1875 C 14.148438 9.5 13.765625 10.644531 13.390625 11.625 C 13.253906 11.9375 13.0625 12.347656 12.8125 12.859375 C 12.570312 13.367188 12.285156 13.820312 11.953125 14.21875 C 11.617188 14.613281 11.253906 14.8125 10.859375 14.8125 L 10.453125 14.8125 C 9.941406 14.8125 9.476562 14.441406 9.0625 13.703125 C 8.65625 12.960938 8.289062 11.984375 7.96875 10.765625 C 7.644531 9.554688 7.367188 8.238281 7.140625 6.8125 C 6.910156 5.394531 6.710938 4 6.546875 2.625 C 6.378906 1.25 6.242188 0.0234375 6.140625 -1.046875 C 6.046875 -2.117188 5.972656 -2.898438 5.921875 -3.390625 C 5.878906 -4.109375 5.84375 -4.84375 5.8125 -5.59375 C 5.78125 -6.34375 5.71875 -7.03125 5.625 -7.65625 C 5.601562 -7.851562 5.597656 -8.046875 5.609375 -8.234375 C 5.617188 -8.429688 5.625 -8.628906 5.625 -8.828125 C 5.601562 -9.023438 5.582031 -9.175781 5.5625 -9.28125 C 5.539062 -9.394531 5.53125 -9.585938 5.53125 -9.859375 C 5.53125 -10.015625 5.507812 -10.390625 5.46875 -10.984375 C 5.4375 -11.585938 5.394531 -12.25 5.34375 -12.96875 C 5.289062 -13.6875 5.21875 -14.328125 5.125 -14.890625 C 5.039062 -15.460938 4.941406 -15.789062 4.828125 -15.875 C 4.765625 -15.613281 4.6875 -15.351562 4.59375 -15.09375 C 4.507812 -14.84375 4.429688 -14.582031 4.359375 -14.3125 C 4.117188 -13.46875 3.859375 -12.441406 3.578125 -11.234375 C 3.296875 -10.023438 3.015625 -8.738281 2.734375 -7.375 C 2.460938 -6.007812 2.203125 -4.644531 1.953125 -3.28125 C 1.710938 -1.914062 1.507812 -0.632812 1.34375 0.5625 C 1.175781 1.757812 1.0625 2.78125 1 3.625 C 0.90625 4.625 0.828125 5.492188 0.765625 6.234375 C 0.703125 6.984375 0.644531 7.695312 0.59375 8.375 C 0.550781 9.050781 0.519531 9.765625 0.5 10.515625 C 0.476562 11.273438 0.46875 12.175781 0.46875 13.21875 C 0.46875 13.632812 0.492188 14.085938 0.546875 14.578125 C 0.597656 15.066406 0.613281 15.476562 0.59375 15.8125 C 0.570312 16.144531 0.441406 16.3125 0.203125 16.3125 C -0.0664062 16.3125 -0.226562 16.238281 -0.28125 16.09375 C -0.332031 15.945312 -0.382812 15.722656 -0.4375 15.421875 L -0.59375 13.015625 C -0.644531 12.171875 -0.644531 11.148438 -0.59375 9.953125 C -0.550781 8.753906 -0.472656 7.488281 -0.359375 6.15625 C -0.253906 4.820312 -0.132812 3.539062 0 2.3125 C 0.132812 1.082031 0.253906 0.0234375 0.359375 -0.859375 C 0.429688 -1.242188 0.546875 -1.878906 0.703125 -2.765625 C 0.859375 -3.648438 1.046875 -4.675781 1.265625 -5.84375 C 1.484375 -7.007812 1.722656 -8.210938 1.984375 -9.453125 C 2.253906 -10.703125 2.53125 -11.882812 2.8125 -13 C 3.09375 -14.125 3.351562 -15.078125 3.59375 -15.859375 C 3.84375 -16.648438 4.066406 -17.171875 4.265625 -17.421875 C 4.484375 -17.703125 4.757812 -17.84375 5.09375 -17.84375 C 5.289062 -17.84375 5.503906 -17.753906 5.734375 -17.578125 C 5.953125 -17.359375 6.144531 -16.910156 6.3125 -16.234375 C 6.476562 -15.554688 6.617188 -14.800781 6.734375 -13.96875 C 6.859375 -13.132812 6.953125 -12.34375 7.015625 -11.59375 C 7.085938 -10.851562 7.125 -10.304688 7.125 -9.953125 L 7.859375 0.703125 C 7.972656 1.628906 8.070312 2.585938 8.15625 3.578125 C 8.25 4.566406 8.375 5.628906 8.53125 6.765625 C 8.570312 6.960938 8.628906 7.328125 8.703125 7.859375 C 8.785156 8.390625 8.890625 8.988281 9.015625 9.65625 C 9.148438 10.320312 9.300781 10.957031 9.46875 11.5625 C 9.632812 12.175781 9.816406 12.6875 10.015625 13.09375 C 10.222656 13.507812 10.4375 13.71875 10.65625 13.71875 C 10.945312 13.71875 11.25 13.46875 11.5625 12.96875 C 11.882812 12.46875 12.203125 11.8125 12.515625 11 C 12.828125 10.195312 13.125 9.328125 13.40625 8.390625 C 13.695312 7.460938 13.953125 6.554688 14.171875 5.671875 C 14.398438 4.796875 14.59375 4.039062 14.75 3.40625 C 14.90625 2.78125 15.003906 2.378906 15.046875 2.203125 C 15.628906 -0.378906 16.097656 -2.882812 16.453125 -5.3125 C 16.804688 -7.738281 16.984375 -10.316406 16.984375 -13.046875 C 16.984375 -13.785156 16.9375 -14.601562 16.84375 -15.5 C 16.757812 -16.394531 16.65625 -17.285156 16.53125 -18.171875 C 16.40625 -19.066406 16.296875 -19.894531 16.203125 -20.65625 C 16.117188 -21.425781 16.078125 -22.046875 16.078125 -22.515625 Z M 16.078125 -22.515625 "/></g></g></g><g fill="#fef74b" fill-opacity="1"><g transform="translate(55.184987, 57.844123)"><g><path d="M 1.53125 -6.03125 C 1.957031 -6.25 2.425781 -6.550781 2.9375 -6.9375 C 3.445312 -7.332031 3.722656 -7.796875 3.765625 -8.328125 C 3.472656 -8.273438 3.164062 -8.113281 2.84375 -7.84375 C 2.519531 -7.582031 2.242188 -7.285156 2.015625 -6.953125 C 1.785156 -6.617188 1.625 -6.3125 1.53125 -6.03125 Z M 0.03125 -5.234375 C 0.03125 -5.785156 0.210938 -6.378906 0.578125 -7.015625 C 0.941406 -7.660156 1.394531 -8.210938 1.9375 -8.671875 C 2.488281 -9.128906 3.03125 -9.359375 3.5625 -9.359375 C 4.289062 -9.359375 4.671875 -9.078125 4.703125 -8.515625 C 4.742188 -7.960938 4.507812 -7.363281 4 -6.71875 C 3.726562 -6.4375 3.328125 -6.101562 2.796875 -5.71875 C 2.265625 -5.34375 1.742188 -5.132812 1.234375 -5.09375 C 1.234375 -4.738281 1.242188 -4.421875 1.265625 -4.140625 C 1.285156 -3.867188 1.441406 -3.585938 1.734375 -3.296875 C 2.023438 -3.003906 2.390625 -2.859375 2.828125 -2.859375 C 3.410156 -2.859375 4.007812 -3.039062 4.625 -3.40625 C 5.25 -3.78125 5.726562 -4.085938 6.0625 -4.328125 C 6.195312 -4.441406 6.300781 -4.53125 6.375 -4.59375 C 6.457031 -4.65625 6.550781 -4.734375 6.65625 -4.828125 C 7.125 -5.179688 7.414062 -5.441406 7.53125 -5.609375 C 7.65625 -5.773438 7.757812 -5.882812 7.84375 -5.9375 C 7.9375 -6 8.148438 -6.03125 8.484375 -6.03125 C 8.535156 -5.78125 8.554688 -5.609375 8.546875 -5.515625 C 8.535156 -5.429688 8.453125 -5.300781 8.296875 -5.125 C 7.890625 -4.726562 7.378906 -4.273438 6.765625 -3.765625 C 6.160156 -3.253906 5.507812 -2.804688 4.8125 -2.421875 C 4.113281 -2.046875 3.421875 -1.859375 2.734375 -1.859375 C 2.378906 -1.859375 2.039062 -1.921875 1.71875 -2.046875 C 1.394531 -2.171875 1.085938 -2.375 0.796875 -2.65625 C 0.398438 -3.0625 0.171875 -3.472656 0.109375 -3.890625 C 0.0546875 -4.316406 0.03125 -4.765625 0.03125 -5.234375 Z M 0.03125 -5.234375 "/></g></g></g><g fill="#fef74b" fill-opacity="1"><g transform="translate(62.411513, 57.844123)"><g><path d="M 0.5 -6.09375 C 0.5 -6.269531 0.507812 -6.539062 0.53125 -6.90625 C 0.550781 -7.269531 0.597656 -7.648438 0.671875 -8.046875 C 0.753906 -8.453125 0.867188 -8.789062 1.015625 -9.0625 C 1.160156 -9.34375 1.351562 -9.484375 1.59375 -9.484375 C 1.925781 -9.484375 2.09375 -9.34375 2.09375 -9.0625 C 2.09375 -8.570312 2.066406 -8.203125 2.015625 -7.953125 C 1.960938 -7.710938 1.910156 -7.394531 1.859375 -7 C 1.835938 -6.6875 1.832031 -6.332031 1.84375 -5.9375 C 1.851562 -5.550781 1.859375 -5.191406 1.859375 -4.859375 C 1.992188 -4.878906 2.191406 -5.007812 2.453125 -5.25 C 2.722656 -5.5 3.003906 -5.757812 3.296875 -6.03125 C 3.585938 -6.3125 3.820312 -6.53125 4 -6.6875 C 4.132812 -6.78125 4.25 -6.867188 4.34375 -6.953125 C 4.445312 -7.046875 4.5625 -7.132812 4.6875 -7.21875 C 4.894531 -7.375 5.195312 -7.625 5.59375 -7.96875 C 5.988281 -8.3125 6.394531 -8.628906 6.8125 -8.921875 C 7.238281 -9.210938 7.566406 -9.359375 7.796875 -9.359375 C 7.898438 -9.359375 7.992188 -9.320312 8.078125 -9.25 C 8.171875 -9.1875 8.21875 -9.097656 8.21875 -8.984375 C 8.21875 -8.785156 8.144531 -8.640625 8 -8.546875 C 7.863281 -8.460938 7.691406 -8.351562 7.484375 -8.21875 C 6.691406 -7.664062 5.890625 -7.015625 5.078125 -6.265625 C 4.265625 -5.523438 3.515625 -4.878906 2.828125 -4.328125 C 2.671875 -4.210938 2.546875 -4.101562 2.453125 -4 C 2.367188 -3.90625 2.25 -3.804688 2.09375 -3.703125 C 2.1875 -3.492188 2.316406 -3.21875 2.484375 -2.875 C 2.648438 -2.53125 2.863281 -2.21875 3.125 -1.9375 C 3.394531 -1.664062 3.738281 -1.53125 4.15625 -1.53125 C 4.5625 -1.53125 4.992188 -1.644531 5.453125 -1.875 C 5.921875 -2.113281 6.367188 -2.394531 6.796875 -2.71875 C 7.234375 -3.039062 7.597656 -3.320312 7.890625 -3.5625 L 9.6875 -5.359375 C 10.019531 -5.804688 10.296875 -6.03125 10.515625 -6.03125 C 10.671875 -6.03125 10.75 -5.90625 10.75 -5.65625 C 10.75 -5.5 10.632812 -5.269531 10.40625 -4.96875 C 10.175781 -4.675781 9.894531 -4.359375 9.5625 -4.015625 C 9.226562 -3.671875 8.910156 -3.359375 8.609375 -3.078125 C 8.304688 -2.796875 8.085938 -2.601562 7.953125 -2.5 C 7.316406 -1.96875 6.664062 -1.503906 6 -1.109375 C 5.332031 -0.722656 4.675781 -0.53125 4.03125 -0.53125 C 3.539062 -0.53125 3.054688 -0.691406 2.578125 -1.015625 C 2.097656 -1.335938 1.648438 -1.898438 1.234375 -2.703125 C 1.054688 -2.585938 0.84375 -2.394531 0.59375 -2.125 C 0.351562 -1.863281 0.125 -1.585938 -0.09375 -1.296875 C -0.320312 -1.003906 -0.5 -0.769531 -0.625 -0.59375 C -1.050781 -0.0195312 -1.359375 0.429688 -1.546875 0.765625 C -1.734375 1.097656 -1.867188 1.332031 -1.953125 1.46875 C -2.046875 1.601562 -2.160156 1.671875 -2.296875 1.671875 C -2.335938 1.671875 -2.445312 1.644531 -2.625 1.59375 C -2.644531 1.488281 -2.664062 1.429688 -2.6875 1.421875 C -2.71875 1.410156 -2.734375 1.359375 -2.734375 1.265625 C -2.734375 0.835938 -2.5625 0.363281 -2.21875 -0.15625 C -1.875 -0.675781 -1.5 -1.164062 -1.09375 -1.625 C -0.695312 -2.09375 -0.398438 -2.453125 -0.203125 -2.703125 C 0.148438 -3.140625 0.398438 -3.429688 0.546875 -3.578125 C 0.691406 -3.722656 0.773438 -3.8125 0.796875 -3.84375 C 0.816406 -3.875 0.800781 -3.929688 0.75 -4.015625 C 0.695312 -4.109375 0.640625 -4.304688 0.578125 -4.609375 C 0.523438 -4.910156 0.5 -5.40625 0.5 -6.09375 Z M 0.5 -6.09375 "/></g></g></g><g fill="#fef74b" fill-opacity="1"><g transform="translate(72.035758, 57.844123)"><g><path d="M -9.359375 -14.84375 C -9.359375 -15.132812 -9.09375 -15.441406 -8.5625 -15.765625 C -8.03125 -16.085938 -7.359375 -16.40625 -6.546875 -16.71875 C -5.734375 -17.03125 -4.875 -17.320312 -3.96875 -17.59375 C -3.070312 -17.875 -2.242188 -18.113281 -1.484375 -18.3125 C -0.734375 -18.507812 -0.171875 -18.664062 0.203125 -18.78125 C 0.671875 -18.914062 1 -18.992188 1.1875 -19.015625 C 1.375 -19.035156 1.492188 -19.101562 1.546875 -19.21875 C 1.597656 -19.34375 1.660156 -19.597656 1.734375 -19.984375 C 1.910156 -20.890625 2.113281 -21.515625 2.34375 -21.859375 C 2.582031 -22.203125 2.8125 -22.375 3.03125 -22.375 C 3.207031 -22.375 3.351562 -22.28125 3.46875 -22.09375 C 3.59375 -21.90625 3.65625 -21.675781 3.65625 -21.40625 C 3.65625 -21.207031 3.644531 -21.125 3.625 -21.15625 C 3.601562 -21.1875 3.601562 -21.113281 3.625 -20.9375 C 3.625 -20.894531 3.628906 -20.835938 3.640625 -20.765625 C 3.648438 -20.703125 3.65625 -20.617188 3.65625 -20.515625 C 3.65625 -20.222656 3.597656 -20.078125 3.484375 -20.078125 C 3.378906 -20.078125 3.269531 -20.0625 3.15625 -20.03125 C 3.050781 -20 3 -19.804688 3 -19.453125 C 3.257812 -19.453125 3.550781 -19.488281 3.875 -19.5625 C 4.195312 -19.632812 4.484375 -19.6875 4.734375 -19.71875 C 5.703125 -19.894531 6.675781 -20.050781 7.65625 -20.1875 C 8.632812 -20.332031 9.632812 -20.40625 10.65625 -20.40625 C 11.1875 -20.40625 11.570312 -20.296875 11.8125 -20.078125 C 12.0625 -19.859375 12.148438 -19.632812 12.078125 -19.40625 C 12.015625 -19.1875 11.773438 -19.078125 11.359375 -19.078125 C 11.304688 -19.253906 11.273438 -19.335938 11.265625 -19.328125 C 11.253906 -19.316406 11.148438 -19.332031 10.953125 -19.375 C 10.867188 -19.394531 10.691406 -19.40625 10.421875 -19.40625 C 9.953125 -19.40625 9.332031 -19.351562 8.5625 -19.25 C 7.800781 -19.15625 7.007812 -19.039062 6.1875 -18.90625 C 5.375 -18.78125 4.644531 -18.65625 4 -18.53125 C 3.351562 -18.40625 2.929688 -18.320312 2.734375 -18.28125 L 2.0625 -11.453125 C 2.039062 -11.296875 2.035156 -11.128906 2.046875 -10.953125 C 2.054688 -10.773438 2.0625 -10.597656 2.0625 -10.421875 C 2.0625 -10.203125 2.046875 -10.054688 2.015625 -9.984375 C 1.984375 -9.921875 1.96875 -9.765625 1.96875 -9.515625 C 1.96875 -9.035156 1.976562 -8.476562 2 -7.84375 C 2.019531 -7.207031 2.007812 -6.710938 1.96875 -6.359375 C 1.945312 -6.160156 1.925781 -5.765625 1.90625 -5.171875 C 1.894531 -4.585938 1.882812 -3.90625 1.875 -3.125 C 1.863281 -2.351562 1.859375 -1.570312 1.859375 -0.78125 C 1.859375 0.0078125 1.859375 0.722656 1.859375 1.359375 C 1.859375 2.003906 1.867188 2.472656 1.890625 2.765625 C 1.890625 3.003906 1.914062 3.375 1.96875 3.875 C 2.03125 4.375 2.046875 4.820312 2.015625 5.21875 C 1.984375 5.625 1.820312 5.828125 1.53125 5.828125 C 1.113281 5.828125 0.859375 5.59375 0.765625 5.125 C 0.671875 4.65625 0.625 4.222656 0.625 3.828125 C 0.5625 3.023438 0.523438 2.09375 0.515625 1.03125 C 0.503906 -0.03125 0.503906 -1.09375 0.515625 -2.15625 C 0.523438 -3.226562 0.53125 -4.164062 0.53125 -4.96875 L 0.625 -6.53125 C 0.625 -6.84375 0.625 -7.316406 0.625 -7.953125 C 0.625 -8.597656 0.632812 -9.28125 0.65625 -10 C 0.6875 -10.726562 0.710938 -11.390625 0.734375 -11.984375 C 0.753906 -12.585938 0.785156 -13.007812 0.828125 -13.25 C 0.878906 -13.46875 0.910156 -13.734375 0.921875 -14.046875 C 0.929688 -14.359375 0.945312 -14.625 0.96875 -14.84375 L 1.265625 -17.953125 C 1.171875 -17.921875 0.972656 -17.875 0.671875 -17.8125 C 0.378906 -17.75 0.144531 -17.691406 -0.03125 -17.640625 C -1.125 -17.378906 -2.160156 -17.097656 -3.140625 -16.796875 C -4.128906 -16.492188 -5.144531 -16.144531 -6.1875 -15.75 C -6.394531 -15.65625 -6.582031 -15.554688 -6.75 -15.453125 C -6.914062 -15.359375 -7.097656 -15.269531 -7.296875 -15.1875 C -7.554688 -15.070312 -7.722656 -14.992188 -7.796875 -14.953125 C -7.878906 -14.910156 -7.921875 -14.851562 -7.921875 -14.78125 C -7.921875 -14.71875 -7.976562 -14.570312 -8.09375 -14.34375 C -8.175781 -14.320312 -8.257812 -14.304688 -8.34375 -14.296875 C -8.4375 -14.285156 -8.539062 -14.28125 -8.65625 -14.28125 C -8.832031 -14.28125 -8.992188 -14.316406 -9.140625 -14.390625 C -9.285156 -14.472656 -9.359375 -14.625 -9.359375 -14.84375 Z M -9.359375 -14.84375 "/></g></g></g></svg>