<svg xmlns="http://www.w3.org/2000/svg" xmlns:xlink="http://www.w3.org/1999/xlink" width="1548" zoomAndPan="magnify" viewBox="0 0 1161 296.999993" height="396" preserveAspectRatio="xMidYMid meet" version="1.0"><defs><g/></defs><g fill="#504081" fill-opacity="1"><g transform="translate(149.168567, 147.449988)"><g><path d="M 43.671875 4.203125 C 43.671875 2.691406 43.671875 1.078125 43.671875 -0.640625 C 43.671875 -2.367188 43.890625 -3.71875 44.328125 -4.6875 C 43.785156 -4.6875 42.675781 -4.226562 41 -3.3125 C 39.332031 -2.394531 37.742188 -1.453125 36.234375 -0.484375 C 34.722656 0.484375 33.859375 1.128906 33.640625 1.453125 C 34.296875 1.671875 35.109375 1.882812 36.078125 2.09375 C 37.046875 2.3125 38.015625 2.53125 38.984375 2.75 C 39.847656 2.96875 40.710938 3.207031 41.578125 3.46875 C 42.441406 3.738281 43.140625 3.984375 43.671875 4.203125 Z M 53.21875 -21.03125 C 58.175781 -24.476562 63.351562 -28.734375 68.75 -33.796875 C 74.144531 -38.867188 79.265625 -44.207031 84.109375 -49.8125 C 88.960938 -55.425781 93.007812 -60.660156 96.25 -65.515625 C 100.238281 -71.335938 103.847656 -77.484375 107.078125 -83.953125 C 110.316406 -90.421875 111.9375 -97.484375 111.9375 -105.140625 C 111.9375 -109.785156 110.289062 -113.75 107 -117.03125 C 103.71875 -120.320312 99.757812 -121.96875 95.125 -121.96875 C 89.945312 -121.96875 85.601562 -121.535156 82.09375 -120.671875 C 78.59375 -119.816406 74.578125 -118.253906 70.046875 -115.984375 C 68.429688 -115.234375 67.59375 -114.640625 67.53125 -114.203125 C 67.476562 -113.773438 67.289062 -112.585938 66.96875 -110.640625 C 66.539062 -108.160156 66.054688 -105.734375 65.515625 -103.359375 C 64.972656 -100.992188 64.429688 -98.570312 63.890625 -96.09375 C 63.460938 -93.71875 63.03125 -91.394531 62.59375 -89.125 C 62.164062 -86.863281 61.679688 -84.492188 61.140625 -82.015625 C 60.171875 -77.378906 59.335938 -72.5 58.640625 -67.375 C 57.941406 -62.25 57.320312 -57.207031 56.78125 -52.25 C 56.5625 -50.632812 56.265625 -48.367188 55.890625 -45.453125 C 55.515625 -42.546875 55.109375 -39.445312 54.671875 -36.15625 C 54.242188 -32.863281 53.894531 -29.84375 53.625 -27.09375 C 53.351562 -24.34375 53.21875 -22.320312 53.21875 -21.03125 Z M 8.25 -33.484375 C 8.25 -37.691406 9.082031 -42.515625 10.75 -47.953125 C 12.425781 -53.398438 14.640625 -59.0625 17.390625 -64.9375 C 20.140625 -70.820312 23.238281 -76.515625 26.6875 -82.015625 C 30.144531 -87.515625 33.648438 -92.445312 37.203125 -96.8125 C 40.765625 -101.1875 44.160156 -104.613281 47.390625 -107.09375 C 49.222656 -108.488281 50.625 -109.617188 51.59375 -110.484375 C 52.570312 -111.347656 53.65625 -112.265625 54.84375 -113.234375 C 56.03125 -114.203125 57.703125 -115.441406 59.859375 -116.953125 C 64.273438 -119.753906 69.445312 -122.394531 75.375 -124.875 C 81.3125 -127.363281 87.082031 -128.609375 92.6875 -128.609375 C 100.988281 -128.609375 107.566406 -126.285156 112.421875 -121.640625 C 117.273438 -117.003906 119.703125 -110.695312 119.703125 -102.71875 C 119.703125 -97.539062 118.921875 -92.550781 117.359375 -87.75 C 115.796875 -82.957031 113.828125 -78.457031 111.453125 -74.25 C 109.078125 -70.039062 106.648438 -66.050781 104.171875 -62.28125 C 101.691406 -58.71875 99.453125 -55.671875 97.453125 -53.140625 C 95.460938 -50.609375 93.414062 -48.207031 91.3125 -45.9375 C 89.207031 -43.675781 86.753906 -40.984375 83.953125 -37.859375 L 66.640625 -21.84375 C 63.410156 -18.925781 60.820312 -16.820312 58.875 -15.53125 C 56.9375 -14.238281 55.484375 -13.1875 54.515625 -12.375 C 53.546875 -11.5625 52.925781 -10.484375 52.65625 -9.140625 C 52.382812 -7.796875 52.25 -5.613281 52.25 -2.59375 C 52.25 -0.539062 52.140625 1.128906 51.921875 2.421875 C 51.710938 3.722656 51.609375 5.394531 51.609375 7.4375 C 53.441406 8.84375 55.273438 10.03125 57.109375 11 C 58.941406 11.96875 60.828125 13.15625 62.765625 14.5625 C 73.660156 22.644531 84.414062 31.21875 95.03125 40.28125 C 105.65625 49.34375 116.738281 58.023438 128.28125 66.328125 C 129.46875 67.191406 130.222656 67.785156 130.546875 68.109375 C 130.867188 68.429688 131.03125 69.613281 131.03125 71.65625 C 130.382812 71.769531 129.953125 71.90625 129.734375 72.0625 C 129.515625 72.226562 129.03125 72.3125 128.28125 72.3125 C 127.738281 72.3125 126.09375 71.363281 123.34375 69.46875 C 120.59375 67.582031 117.25 65.128906 113.3125 62.109375 C 109.375 59.097656 105.191406 55.835938 100.765625 52.328125 C 96.347656 48.828125 92.09375 45.429688 88 42.140625 C 83.90625 38.847656 80.347656 35.960938 77.328125 33.484375 C 74.304688 31.003906 72.253906 29.332031 71.171875 28.46875 C 70.421875 27.820312 69.128906 26.796875 67.296875 25.390625 C 65.460938 23.992188 63.492188 22.539062 61.390625 21.03125 C 59.285156 19.519531 57.34375 18.171875 55.5625 16.984375 C 53.78125 15.796875 52.460938 15.148438 51.609375 15.046875 C 51.609375 16.234375 51.523438 16.988281 51.359375 17.3125 C 51.203125 17.632812 51.125 18.492188 51.125 19.890625 C 51.125 25.285156 51.09375 31.164062 51.03125 37.53125 C 50.976562 43.894531 50.976562 50.175781 51.03125 56.375 C 51.09375 62.570312 51.335938 68.257812 51.765625 73.4375 C 51.984375 75.0625 52.253906 76.757812 52.578125 78.53125 C 52.898438 80.3125 52.953125 81.796875 52.734375 82.984375 C 52.515625 84.171875 51.597656 84.765625 49.984375 84.765625 C 48.367188 84.765625 47.101562 83.898438 46.1875 82.171875 C 45.269531 80.453125 44.59375 78.242188 44.15625 75.546875 C 43.726562 72.847656 43.457031 70.066406 43.34375 67.203125 C 43.238281 64.347656 43.1875 61.757812 43.1875 59.4375 C 43.1875 57.125 43.132812 55.484375 43.03125 54.515625 C 42.707031 50.953125 42.570312 46.5 42.625 41.15625 C 42.675781 35.820312 42.78125 30.351562 42.9375 24.75 C 43.101562 19.144531 43.1875 14.347656 43.1875 10.359375 C 41.144531 9.273438 38.316406 8.351562 34.703125 7.59375 C 31.085938 6.84375 27.71875 6.46875 24.59375 6.46875 C 23.832031 6.46875 22.859375 6.628906 21.671875 6.953125 C 20.484375 7.273438 19.351562 7.4375 18.28125 7.4375 C 16.664062 7.4375 15.695312 6.679688 15.375 5.171875 C 14.9375 3.335938 15.6875 2.039062 17.625 1.28125 C 19.570312 0.53125 21.515625 -0.328125 23.453125 -1.296875 C 25.828125 -2.585938 27.984375 -3.851562 29.921875 -5.09375 C 31.867188 -6.332031 34.023438 -7.65625 36.390625 -9.0625 C 37.578125 -9.707031 38.578125 -10.328125 39.390625 -10.921875 C 40.203125 -11.515625 41.195312 -12.1875 42.375 -12.9375 C 44.101562 -14.125 44.941406 -15.066406 44.890625 -15.765625 C 44.835938 -16.472656 44.8125 -18.066406 44.8125 -20.546875 L 45.453125 -30.25 C 46.316406 -40.707031 47.503906 -51.085938 49.015625 -61.390625 C 50.523438 -71.691406 52.304688 -81.910156 54.359375 -92.046875 L 58.390625 -107.890625 C 57.640625 -107.679688 56.832031 -107.222656 55.96875 -106.515625 C 55.101562 -105.816406 54.347656 -105.195312 53.703125 -104.65625 C 52.953125 -103.90625 52.28125 -103.285156 51.6875 -102.796875 C 51.09375 -102.316406 50.363281 -101.695312 49.5 -100.9375 C 45.082031 -96.945312 40.742188 -92.015625 36.484375 -86.140625 C 32.222656 -80.265625 28.335938 -74.035156 24.828125 -67.453125 C 21.328125 -60.878906 18.550781 -54.300781 16.5 -47.71875 C 14.445312 -41.144531 13.421875 -35.109375 13.421875 -29.609375 C 13.421875 -27.015625 13.609375 -25.335938 13.984375 -24.578125 C 14.367188 -23.828125 14.773438 -23.453125 15.203125 -23.453125 C 15.523438 -23.453125 15.875 -23.53125 16.25 -23.6875 C 16.632812 -23.851562 16.988281 -23.9375 17.3125 -23.9375 C 18.5 -23.9375 19.195312 -23.476562 19.40625 -22.5625 C 19.625 -21.644531 19.300781 -20.703125 18.4375 -19.734375 C 17.570312 -18.765625 16.0625 -18.28125 13.90625 -18.28125 C 12.289062 -18.28125 11.078125 -18.875 10.265625 -20.0625 C 9.460938 -21.25 8.925781 -22.703125 8.65625 -24.421875 C 8.382812 -26.148438 8.25 -27.847656 8.25 -29.515625 C 8.25 -31.191406 8.25 -32.515625 8.25 -33.484375 Z M 8.25 -33.484375 "/></g></g></g><g fill="#504081" fill-opacity="1"><g transform="translate(249.779442, 147.449988)"><g><path d="M 8.09375 -3.71875 C 9.707031 -4.15625 11.160156 -5.582031 12.453125 -8 C 13.742188 -10.425781 14.660156 -13.203125 15.203125 -16.328125 C 15.742188 -19.460938 15.878906 -22.347656 15.609375 -24.984375 C 15.335938 -27.628906 14.503906 -29.4375 13.109375 -30.40625 C 12.785156 -29.21875 12.191406 -27.519531 11.328125 -25.3125 C 10.460938 -23.101562 9.625 -20.675781 8.8125 -18.03125 C 8.007812 -15.394531 7.472656 -12.804688 7.203125 -10.265625 C 6.929688 -7.734375 7.226562 -5.550781 8.09375 -3.71875 Z M 0 -9.21875 C 0 -10.625 0.296875 -12.703125 0.890625 -15.453125 C 1.484375 -18.203125 2.316406 -21.164062 3.390625 -24.34375 C 4.472656 -27.53125 5.6875 -30.550781 7.03125 -33.40625 C 8.382812 -36.257812 9.84375 -38.601562 11.40625 -40.4375 C 12.96875 -42.269531 14.554688 -43.1875 16.171875 -43.1875 C 17.253906 -43.1875 18.007812 -42.703125 18.4375 -41.734375 C 18.875 -40.765625 18.984375 -39.957031 18.765625 -39.3125 C 18.546875 -38.769531 18.140625 -38.226562 17.546875 -37.6875 C 16.953125 -37.144531 16.441406 -36.550781 16.015625 -35.90625 C 16.234375 -35.15625 16.769531 -34.320312 17.625 -33.40625 C 18.488281 -32.488281 19.351562 -31.273438 20.21875 -29.765625 C 21.082031 -28.253906 21.648438 -26.203125 21.921875 -23.609375 C 22.191406 -21.023438 21.894531 -17.628906 21.03125 -13.421875 C 19.84375 -7.816406 17.953125 -3.613281 15.359375 -0.8125 C 12.773438 1.988281 10.242188 3.390625 7.765625 3.390625 C 5.710938 3.390625 3.90625 2.335938 2.34375 0.234375 C 0.78125 -1.859375 0 -5.007812 0 -9.21875 Z M 0 -9.21875 "/></g></g></g><g fill="#504081" fill-opacity="1"><g transform="translate(278.248118, 147.449988)"><g><path d="M 0 -16.34375 C 0 -18.601562 0.535156 -21.40625 1.609375 -24.75 C 2.691406 -28.09375 4.203125 -31.40625 6.140625 -34.6875 C 8.085938 -37.976562 10.328125 -40.703125 12.859375 -42.859375 C 15.390625 -45.023438 18.0625 -46.109375 20.875 -46.109375 C 23.457031 -46.109375 25.554688 -45.351562 27.171875 -43.84375 C 28.796875 -42.332031 29.769531 -40.789062 30.09375 -39.21875 C 30.414062 -37.65625 29.875 -36.875 28.46875 -36.875 C 27.394531 -36.875 26.289062 -37.492188 25.15625 -38.734375 C 24.019531 -39.984375 22.695312 -40.609375 21.1875 -40.609375 C 20 -40.609375 18.566406 -39.90625 16.890625 -38.5 C 15.222656 -37.09375 13.207031 -34.34375 10.84375 -30.25 C 9.757812 -28.519531 8.757812 -26.28125 7.84375 -23.53125 C 6.925781 -20.78125 6.46875 -18.0625 6.46875 -15.375 C 6.6875 -15.582031 6.765625 -15.660156 6.703125 -15.609375 C 6.648438 -15.554688 6.84375 -15.742188 7.28125 -16.171875 L 8.578125 -18.125 C 9.441406 -19.414062 10.4375 -21.082031 11.5625 -23.125 C 12.695312 -25.175781 13.859375 -27.253906 15.046875 -29.359375 C 16.234375 -31.460938 17.3125 -33.238281 18.28125 -34.6875 C 19.25 -36.144531 20.003906 -36.875 20.546875 -36.875 C 22.484375 -36.875 23.613281 -36.171875 23.9375 -34.765625 C 24.257812 -33.367188 24.394531 -31.644531 24.34375 -29.59375 C 24.289062 -27.550781 24.476562 -25.503906 24.90625 -23.453125 C 25.550781 -20.546875 26.546875 -18.414062 27.890625 -17.0625 C 29.242188 -15.71875 30.785156 -15.046875 32.515625 -15.046875 C 35.535156 -15.046875 38.878906 -16.878906 42.546875 -20.546875 C 44.054688 -21.941406 45.132812 -23.097656 45.78125 -24.015625 C 46.425781 -24.929688 47.289062 -25.984375 48.375 -27.171875 C 49.125 -28.253906 50.09375 -28.796875 51.28125 -28.796875 C 52.46875 -28.796875 52.976562 -27.796875 52.8125 -25.796875 C 52.65625 -23.804688 50.523438 -20.816406 46.421875 -16.828125 L 41.578125 -12.9375 C 38.441406 -10.78125 35.421875 -9.703125 32.515625 -9.703125 C 29.816406 -9.703125 27.46875 -10.507812 25.46875 -12.125 C 23.476562 -13.75 21.941406 -15.742188 20.859375 -18.109375 C 19.785156 -20.484375 19.25 -22.804688 19.25 -25.078125 C 18.5 -24.535156 17.632812 -23.347656 16.65625 -21.515625 C 15.6875 -19.679688 14.632812 -17.710938 13.5 -15.609375 C 12.375 -13.503906 11.21875 -11.671875 10.03125 -10.109375 C 8.84375 -8.546875 7.65625 -7.765625 6.46875 -7.765625 C 3.445312 -7.765625 1.613281 -8.460938 0.96875 -9.859375 C 0.320312 -11.265625 0 -13.425781 0 -16.34375 Z M 0 -16.34375 "/></g></g></g><g fill="#504081" fill-opacity="1"><g transform="translate(325.156726, 147.449988)"><g><path d="M 5.65625 -11.8125 C 5.65625 -10.84375 5.875 -10.359375 6.3125 -10.359375 C 7.0625 -10.359375 8.054688 -11.4375 9.296875 -13.59375 C 10.535156 -15.75 11.859375 -18.441406 13.265625 -21.671875 C 14.671875 -24.910156 16.019531 -28.171875 17.3125 -31.453125 C 18.601562 -34.742188 19.679688 -37.628906 20.546875 -40.109375 C 21.410156 -42.597656 21.84375 -44.054688 21.84375 -44.484375 C 20.007812 -44.265625 18.578125 -43.695312 17.546875 -42.78125 C 16.523438 -41.863281 15.582031 -40.8125 14.71875 -39.625 C 11.914062 -36.175781 9.703125 -31.941406 8.078125 -26.921875 C 6.460938 -21.910156 5.65625 -16.875 5.65625 -11.8125 Z M 24.109375 -48.859375 C 24.109375 -50.035156 24.296875 -51.054688 24.671875 -51.921875 C 25.046875 -52.785156 25.394531 -53.757812 25.71875 -54.84375 L 29.125 -73.125 C 29.445312 -74.300781 29.847656 -76.078125 30.328125 -78.453125 C 30.816406 -80.828125 31.488281 -83.09375 32.34375 -85.25 C 33.207031 -87.40625 34.289062 -88.59375 35.59375 -88.8125 C 35.800781 -88.8125 35.957031 -88.835938 36.0625 -88.890625 C 36.175781 -88.941406 36.285156 -88.96875 36.390625 -88.96875 C 37.898438 -88.96875 38.765625 -88.128906 38.984375 -86.453125 C 39.203125 -84.785156 39.066406 -82.765625 38.578125 -80.390625 C 38.097656 -78.023438 37.503906 -75.765625 36.796875 -73.609375 C 36.097656 -71.453125 35.640625 -69.882812 35.421875 -68.90625 C 32.835938 -60.175781 31.164062 -51.226562 30.40625 -42.0625 C 29.65625 -32.894531 29.359375 -23.671875 29.515625 -14.390625 C 29.679688 -5.117188 29.816406 4.046875 29.921875 13.109375 C 30.035156 16.554688 30.332031 19.332031 30.8125 21.4375 C 31.300781 23.539062 31.488281 25.019531 31.375 25.875 C 31.269531 26.738281 30.25 27.171875 28.3125 27.171875 C 27.125 27.171875 26.175781 25.847656 25.46875 23.203125 C 24.769531 20.566406 24.257812 17.117188 23.9375 12.859375 C 23.613281 8.597656 23.453125 4.039062 23.453125 -0.8125 C 23.453125 -5.664062 23.503906 -10.410156 23.609375 -15.046875 C 23.722656 -19.679688 23.832031 -23.671875 23.9375 -27.015625 C 24.050781 -30.359375 24.109375 -32.566406 24.109375 -33.640625 C 23.671875 -33.210938 23.394531 -32.941406 23.28125 -32.828125 C 23.175781 -32.722656 23.019531 -32.296875 22.8125 -31.546875 L 17.140625 -17.796875 C 16.390625 -16.179688 15.53125 -14.347656 14.5625 -12.296875 C 13.59375 -10.242188 12.378906 -8.460938 10.921875 -6.953125 C 9.460938 -5.441406 7.707031 -4.6875 5.65625 -4.6875 C 3.394531 -4.6875 1.859375 -5.765625 1.046875 -7.921875 C 0.242188 -10.078125 0.00390625 -12.851562 0.328125 -16.25 C 0.648438 -19.65625 1.429688 -23.242188 2.671875 -27.015625 C 3.910156 -30.785156 5.472656 -34.367188 7.359375 -37.765625 C 9.242188 -41.171875 11.34375 -43.953125 13.65625 -46.109375 C 15.976562 -48.265625 18.382812 -49.34375 20.875 -49.34375 C 21.726562 -49.34375 22.179688 -49.257812 22.234375 -49.09375 C 22.296875 -48.9375 22.921875 -48.859375 24.109375 -48.859375 Z M 24.109375 -48.859375 "/></g></g></g><g fill="#504081" fill-opacity="1"><g transform="translate(361.389577, 147.449988)"><g><path d="M 8.578125 -13.109375 C 6.304688 -13.109375 4.710938 -14.238281 3.796875 -16.5 C 2.878906 -18.757812 2.472656 -21.5625 2.578125 -24.90625 C 2.691406 -28.25 3.125 -31.59375 3.875 -34.9375 C 4.632812 -38.28125 5.578125 -41.082031 6.703125 -43.34375 C 7.835938 -45.613281 9 -46.75 10.1875 -46.75 C 12.238281 -46.75 13.453125 -46.289062 13.828125 -45.375 C 14.203125 -44.457031 14.117188 -43.023438 13.578125 -41.078125 C 13.046875 -39.140625 12.425781 -36.6875 11.71875 -33.71875 C 11.019531 -30.757812 10.671875 -27.226562 10.671875 -23.125 C 10.890625 -23.34375 11.050781 -23.503906 11.15625 -23.609375 C 11.269531 -23.722656 11.378906 -23.832031 11.484375 -23.9375 L 19.09375 -36.71875 C 19.738281 -37.800781 20.625 -39.226562 21.75 -41 C 22.882812 -42.78125 24.125 -44.398438 25.46875 -45.859375 C 26.820312 -47.316406 28.144531 -48.046875 29.4375 -48.046875 C 31.914062 -48.046875 33.53125 -46.773438 34.28125 -44.234375 C 35.039062 -41.703125 35.421875 -39.144531 35.421875 -36.5625 C 36.609375 -36.769531 38.0625 -37.765625 39.78125 -39.546875 C 41.507812 -41.328125 43.078125 -42.863281 44.484375 -44.15625 C 45.242188 -45.019531 45.914062 -45.773438 46.5 -46.421875 C 47.09375 -47.066406 47.820312 -47.609375 48.6875 -48.046875 C 49.769531 -48.585938 50.742188 -48.859375 51.609375 -48.859375 C 52.679688 -48.859375 53.597656 -48.425781 54.359375 -47.5625 C 55.109375 -46.695312 55.535156 -45.101562 55.640625 -42.78125 C 55.753906 -40.46875 55.703125 -37.800781 55.484375 -34.78125 C 55.265625 -31.757812 55.019531 -28.738281 54.75 -25.71875 C 54.488281 -22.695312 54.359375 -20.054688 54.359375 -17.796875 C 54.359375 -12.835938 54.757812 -9.359375 55.5625 -7.359375 C 56.375 -5.367188 57.476562 -4.375 58.875 -4.375 C 60.5 -4.375 62.304688 -5.453125 64.296875 -7.609375 C 66.296875 -9.765625 68.289062 -12.296875 70.28125 -15.203125 C 72.28125 -18.117188 73.976562 -20.757812 75.375 -23.125 C 76.132812 -24.3125 76.863281 -25.5 77.5625 -26.6875 C 78.269531 -27.875 79.484375 -28.46875 81.203125 -28.46875 C 81.523438 -28.46875 81.875 -28.25 82.25 -27.8125 C 82.632812 -27.382812 82.828125 -26.90625 82.828125 -26.375 C 82.828125 -25.71875 82.5 -24.796875 81.84375 -23.609375 C 81.195312 -22.429688 80.523438 -21.273438 79.828125 -20.140625 C 79.128906 -19.003906 78.5625 -18.113281 78.125 -17.46875 C 77.695312 -16.71875 77.320312 -16.070312 77 -15.53125 C 76.675781 -14.988281 76.242188 -14.285156 75.703125 -13.421875 C 75.273438 -12.773438 74.84375 -12.207031 74.40625 -11.71875 C 73.976562 -11.238281 73.492188 -10.566406 72.953125 -9.703125 C 70.898438 -6.679688 68.445312 -4.035156 65.59375 -1.765625 C 62.738281 0.492188 59.960938 1.625 57.265625 1.625 C 55.753906 1.625 54.296875 1.132812 52.890625 0.15625 C 51.492188 -0.8125 50.363281 -2.484375 49.5 -4.859375 C 47.988281 -8.847656 47.257812 -13.050781 47.3125 -17.46875 C 47.363281 -21.894531 47.710938 -26.207031 48.359375 -30.40625 C 49.015625 -34.613281 49.34375 -38.28125 49.34375 -41.40625 C 48.257812 -40.65625 46.9375 -39.414062 45.375 -37.6875 C 43.8125 -35.96875 42.21875 -34.378906 40.59375 -32.921875 C 38.976562 -31.460938 37.414062 -30.734375 35.90625 -30.734375 C 33.425781 -30.734375 31.726562 -31.921875 30.8125 -34.296875 C 29.894531 -36.671875 29.4375 -39.039062 29.4375 -41.40625 C 27.601562 -40.21875 25.847656 -38.113281 24.171875 -35.09375 C 22.503906 -32.082031 20.832031 -28.90625 19.15625 -25.5625 C 17.488281 -22.21875 15.816406 -19.332031 14.140625 -16.90625 C 12.472656 -14.476562 10.722656 -13.210938 8.890625 -13.109375 Z M 8.578125 -13.109375 "/></g></g></g><g fill="#504081" fill-opacity="1"><g transform="translate(436.928611, 147.449988)"><g><path d="M 0 -16.34375 C 0 -18.601562 0.535156 -21.40625 1.609375 -24.75 C 2.691406 -28.09375 4.203125 -31.40625 6.140625 -34.6875 C 8.085938 -37.976562 10.328125 -40.703125 12.859375 -42.859375 C 15.390625 -45.023438 18.0625 -46.109375 20.875 -46.109375 C 23.457031 -46.109375 25.554688 -45.351562 27.171875 -43.84375 C 28.796875 -42.332031 29.769531 -40.789062 30.09375 -39.21875 C 30.414062 -37.65625 29.875 -36.875 28.46875 -36.875 C 27.394531 -36.875 26.289062 -37.492188 25.15625 -38.734375 C 24.019531 -39.984375 22.695312 -40.609375 21.1875 -40.609375 C 20 -40.609375 18.566406 -39.90625 16.890625 -38.5 C 15.222656 -37.09375 13.207031 -34.34375 10.84375 -30.25 C 9.757812 -28.519531 8.757812 -26.28125 7.84375 -23.53125 C 6.925781 -20.78125 6.46875 -18.0625 6.46875 -15.375 C 6.6875 -15.582031 6.765625 -15.660156 6.703125 -15.609375 C 6.648438 -15.554688 6.84375 -15.742188 7.28125 -16.171875 L 8.578125 -18.125 C 9.441406 -19.414062 10.4375 -21.082031 11.5625 -23.125 C 12.695312 -25.175781 13.859375 -27.253906 15.046875 -29.359375 C 16.234375 -31.460938 17.3125 -33.238281 18.28125 -34.6875 C 19.25 -36.144531 20.003906 -36.875 20.546875 -36.875 C 22.484375 -36.875 23.613281 -36.171875 23.9375 -34.765625 C 24.257812 -33.367188 24.394531 -31.644531 24.34375 -29.59375 C 24.289062 -27.550781 24.476562 -25.503906 24.90625 -23.453125 C 25.550781 -20.546875 26.546875 -18.414062 27.890625 -17.0625 C 29.242188 -15.71875 30.785156 -15.046875 32.515625 -15.046875 C 35.535156 -15.046875 38.878906 -16.878906 42.546875 -20.546875 C 44.054688 -21.941406 45.132812 -23.097656 45.78125 -24.015625 C 46.425781 -24.929688 47.289062 -25.984375 48.375 -27.171875 C 49.125 -28.253906 50.09375 -28.796875 51.28125 -28.796875 C 52.46875 -28.796875 52.976562 -27.796875 52.8125 -25.796875 C 52.65625 -23.804688 50.523438 -20.816406 46.421875 -16.828125 L 41.578125 -12.9375 C 38.441406 -10.78125 35.421875 -9.703125 32.515625 -9.703125 C 29.816406 -9.703125 27.46875 -10.507812 25.46875 -12.125 C 23.476562 -13.75 21.941406 -15.742188 20.859375 -18.109375 C 19.785156 -20.484375 19.25 -22.804688 19.25 -25.078125 C 18.5 -24.535156 17.632812 -23.347656 16.65625 -21.515625 C 15.6875 -19.679688 14.632812 -17.710938 13.5 -15.609375 C 12.375 -13.503906 11.21875 -11.671875 10.03125 -10.109375 C 8.84375 -8.546875 7.65625 -7.765625 6.46875 -7.765625 C 3.445312 -7.765625 1.613281 -8.460938 0.96875 -9.859375 C 0.320312 -11.265625 0 -13.425781 0 -16.34375 Z M 0 -16.34375 "/></g></g></g><g fill="#504081" fill-opacity="1"><g transform="translate(483.837231, 147.449988)"><g><path d="M 11.15625 10.03125 C 12.988281 9.0625 14.847656 7.601562 16.734375 5.65625 C 18.628906 3.71875 20.300781 1.671875 21.75 -0.484375 C 23.207031 -2.640625 24.15625 -4.523438 24.59375 -6.140625 L 16.5 0.8125 C 15.207031 2 14.265625 2.890625 13.671875 3.484375 C 13.078125 4.078125 12.644531 4.800781 12.375 5.65625 C 12.101562 6.519531 11.695312 7.976562 11.15625 10.03125 Z M 15.203125 -4.203125 C 15.742188 -4.523438 16.066406 -4.765625 16.171875 -4.921875 C 16.285156 -5.085938 16.554688 -5.390625 16.984375 -5.828125 C 17.628906 -6.253906 18.222656 -6.6875 18.765625 -7.125 C 21.140625 -9.164062 22.945312 -10.671875 24.1875 -11.640625 C 25.425781 -12.617188 26.285156 -13.429688 26.765625 -14.078125 C 27.253906 -14.722656 27.523438 -15.472656 27.578125 -16.328125 C 27.628906 -17.191406 27.65625 -18.539062 27.65625 -20.375 C 27.65625 -22.863281 27.171875 -24.109375 26.203125 -24.109375 C 25.453125 -24.109375 24.484375 -23.378906 23.296875 -21.921875 C 22.109375 -20.460938 20.921875 -18.628906 19.734375 -16.421875 C 18.546875 -14.210938 17.519531 -12 16.65625 -9.78125 C 15.800781 -7.570312 15.316406 -5.710938 15.203125 -4.203125 Z M 0 -0.640625 C 0 -1.941406 0.101562 -4.453125 0.3125 -8.171875 C 0.53125 -11.890625 0.882812 -16.144531 1.375 -20.9375 C 1.863281 -25.738281 2.484375 -30.378906 3.234375 -34.859375 C 3.992188 -39.335938 4.910156 -43.054688 5.984375 -46.015625 C 7.066406 -48.984375 8.304688 -50.46875 9.703125 -50.46875 C 10.460938 -50.46875 11.21875 -50.253906 11.96875 -49.828125 C 12.289062 -48.640625 12.453125 -47.773438 12.453125 -47.234375 C 12.453125 -46.691406 12.367188 -46.097656 12.203125 -45.453125 C 12.046875 -44.804688 11.753906 -43.566406 11.328125 -41.734375 C 9.816406 -34.078125 8.707031 -26.554688 8 -19.171875 C 7.300781 -11.785156 6.953125 -4.046875 6.953125 4.046875 C 7.710938 3.503906 8.492188 2.019531 9.296875 -0.40625 C 10.109375 -2.832031 11.050781 -5.632812 12.125 -8.8125 C 13.207031 -12 14.394531 -15.15625 15.6875 -18.28125 C 16.976562 -21.40625 18.488281 -23.992188 20.21875 -26.046875 C 21.945312 -28.097656 23.941406 -29.125 26.203125 -29.125 C 28.578125 -29.125 30.328125 -28.015625 31.453125 -25.796875 C 32.585938 -23.585938 33.15625 -21.351562 33.15625 -19.09375 C 33.800781 -19.300781 34.554688 -19.703125 35.421875 -20.296875 C 36.285156 -20.890625 37.039062 -21.40625 37.6875 -21.84375 C 38.769531 -22.59375 40.035156 -23.503906 41.484375 -24.578125 C 42.941406 -25.660156 44.367188 -26.632812 45.765625 -27.5 C 47.171875 -28.363281 48.304688 -28.796875 49.171875 -28.796875 C 50.140625 -28.796875 50.625 -28.148438 50.625 -26.859375 C 50.625 -26.316406 49.816406 -25.394531 48.203125 -24.09375 C 46.585938 -22.800781 44.703125 -21.398438 42.546875 -19.890625 C 40.390625 -18.378906 38.363281 -16.976562 36.46875 -15.6875 C 34.582031 -14.394531 33.375 -13.425781 32.84375 -12.78125 C 32.519531 -12.34375 32.003906 -11.125 31.296875 -9.125 C 30.597656 -7.132812 29.628906 -4.765625 28.390625 -2.015625 C 27.148438 0.734375 25.476562 3.484375 23.375 6.234375 C 21.269531 8.984375 18.546875 11.328125 15.203125 13.265625 C 14.554688 13.585938 13.828125 13.910156 13.015625 14.234375 C 12.210938 14.554688 11.539062 14.9375 11 15.375 C 10.25 15.800781 9.628906 17.09375 9.140625 19.25 C 8.648438 21.40625 8.296875 23.613281 8.078125 25.875 C 7.867188 28.144531 7.765625 29.765625 7.765625 30.734375 C 7.765625 32.671875 7.898438 34.800781 8.171875 37.125 C 8.441406 39.445312 8.519531 41.414062 8.40625 43.03125 C 8.300781 44.644531 7.65625 45.453125 6.46875 45.453125 C 5.28125 45.453125 4.578125 45.070312 4.359375 44.3125 C 4.148438 43.5625 3.9375 42.488281 3.71875 41.09375 C 2.75 34.289062 1.882812 27.359375 1.125 20.296875 C 0.375 13.234375 0 6.253906 0 -0.640625 Z M 0 -0.640625 "/></g></g></g><g fill="#504081" fill-opacity="1"><g transform="translate(529.128297, 147.449988)"><g><path d="M 1.9375 26.6875 C 1.9375 28.957031 2.640625 30.09375 4.046875 30.09375 C 4.796875 30.09375 5.601562 29.820312 6.46875 29.28125 C 7.332031 28.738281 8.035156 28.253906 8.578125 27.828125 C 10.734375 26.203125 12.644531 23.742188 14.3125 20.453125 C 15.988281 17.171875 17.203125 14.179688 17.953125 11.484375 C 18.492188 9.648438 18.789062 7.789062 18.84375 5.90625 C 18.894531 4.019531 18.921875 1.941406 18.921875 -0.328125 C 17.628906 0.429688 16.144531 1.753906 14.46875 3.640625 C 12.800781 5.523438 11.484375 7.0625 10.515625 8.25 C 8.578125 10.625 6.660156 13.484375 4.765625 16.828125 C 2.878906 20.171875 1.9375 23.457031 1.9375 26.6875 Z M 0.484375 -26.203125 C 0.484375 -29.003906 1.238281 -31.507812 2.75 -33.71875 C 4.257812 -35.9375 6.066406 -37.71875 8.171875 -39.0625 C 10.273438 -40.414062 12.082031 -41.09375 13.59375 -41.09375 C 14.78125 -41.09375 15.664062 -40.660156 16.25 -39.796875 C 16.84375 -38.929688 16.875 -37.472656 16.34375 -35.421875 C 15.039062 -35.097656 14.117188 -34.910156 13.578125 -34.859375 C 13.046875 -34.804688 12.617188 -34.644531 12.296875 -34.375 C 11.972656 -34.101562 11.378906 -33.484375 10.515625 -32.515625 C 8.359375 -30.140625 7.359375 -28.222656 7.515625 -26.765625 C 7.679688 -25.316406 8.546875 -23.972656 10.109375 -22.734375 C 11.671875 -21.492188 13.609375 -19.957031 15.921875 -18.125 C 18.242188 -16.289062 20.429688 -13.804688 22.484375 -10.671875 C 24.859375 -12.296875 27.285156 -14.1875 29.765625 -16.34375 L 44.8125 -26.859375 C 46.207031 -27.828125 47.414062 -28.5 48.4375 -28.875 C 49.46875 -29.25 50.363281 -29.4375 51.125 -29.4375 C 52.414062 -29.4375 52.953125 -28.894531 52.734375 -27.8125 C 52.515625 -26.738281 51.488281 -25.664062 49.65625 -24.59375 L 38.65625 -16.984375 C 38.226562 -16.765625 37.3125 -16.144531 35.90625 -15.125 C 34.507812 -14.101562 32.972656 -12.972656 31.296875 -11.734375 C 29.628906 -10.492188 28.203125 -9.332031 27.015625 -8.25 C 25.828125 -7.164062 25.179688 -6.460938 25.078125 -6.140625 C 24.960938 -5.609375 25.117188 -4.585938 25.546875 -3.078125 C 25.984375 -1.566406 26.28125 0.398438 26.4375 2.828125 C 26.601562 5.253906 26.28125 8.21875 25.46875 11.71875 C 24.664062 15.226562 22.914062 19.300781 20.21875 23.9375 C 17.84375 27.925781 15.253906 30.863281 12.453125 32.75 C 9.648438 34.644531 7.007812 35.59375 4.53125 35.59375 C 2.257812 35.59375 0.398438 34.835938 -1.046875 33.328125 C -2.503906 31.816406 -3.234375 29.601562 -3.234375 26.6875 C -3.234375 23.019531 -2.34375 19.460938 -0.5625 16.015625 C 1.21875 12.566406 3.347656 9.382812 5.828125 6.46875 C 8.304688 3.5625 10.597656 1.054688 12.703125 -1.046875 C 14.804688 -3.148438 16.179688 -4.6875 16.828125 -5.65625 C 15.523438 -7.925781 13.957031 -9.894531 12.125 -11.5625 C 10.289062 -13.238281 8.484375 -14.773438 6.703125 -16.171875 C 4.929688 -17.578125 3.453125 -19.0625 2.265625 -20.625 C 1.078125 -22.1875 0.484375 -24.046875 0.484375 -26.203125 Z M 0.484375 -26.203125 "/></g></g></g><g fill="#504081" fill-opacity="1"><g transform="translate(575.875143, 147.449988)"><g/></g></g><g fill="#504081" fill-opacity="1"><g transform="translate(617.769397, 147.449988)"><g><path d="M 7.4375 19.890625 C 10.675781 19.890625 13.613281 18.726562 16.25 16.40625 C 18.894531 14.09375 21.1875 11.375 23.125 8.25 C 25.070312 5.125 26.691406 2.375 27.984375 0 C 27.335938 0.21875 26.039062 0.8125 24.09375 1.78125 C 22.15625 2.75 20.21875 3.769531 18.28125 4.84375 C 16.34375 5.925781 14.992188 6.738281 14.234375 7.28125 C 12.828125 8.144531 11.316406 9.273438 9.703125 10.671875 C 8.085938 12.078125 6.710938 13.476562 5.578125 14.875 C 4.441406 16.28125 3.957031 17.46875 4.125 18.4375 C 4.289062 19.40625 5.394531 19.890625 7.4375 19.890625 Z M 2.265625 -10.1875 C 2.265625 -14.289062 2.425781 -19.332031 2.75 -25.3125 C 3.070312 -31.300781 3.554688 -37.609375 4.203125 -44.234375 C 4.847656 -50.867188 5.707031 -57.148438 6.78125 -63.078125 C 7.863281 -69.015625 9.160156 -73.867188 10.671875 -77.640625 C 11.535156 -79.796875 12.34375 -81.28125 13.09375 -82.09375 C 13.851562 -82.90625 14.554688 -83.3125 15.203125 -83.3125 C 15.960938 -83.3125 16.554688 -82.929688 16.984375 -82.171875 C 17.410156 -81.421875 17.570312 -80.773438 17.46875 -80.234375 C 17.46875 -80.015625 17.332031 -79.445312 17.0625 -78.53125 C 16.789062 -77.613281 16.601562 -76.78125 16.5 -76.03125 C 15.632812 -72.6875 14.71875 -68.289062 13.75 -62.84375 C 12.78125 -57.394531 11.890625 -51.597656 11.078125 -45.453125 C 10.273438 -39.304688 9.628906 -33.484375 9.140625 -27.984375 C 8.648438 -22.484375 8.40625 -18.113281 8.40625 -14.875 L 11.96875 -20.703125 C 12.507812 -21.785156 13.078125 -22.785156 13.671875 -23.703125 C 14.265625 -24.617188 14.9375 -25.453125 15.6875 -26.203125 C 17.414062 -28.578125 19.359375 -30.4375 21.515625 -31.78125 C 23.671875 -33.132812 25.773438 -33.8125 27.828125 -33.8125 C 31.273438 -33.8125 34.023438 -31.976562 36.078125 -28.3125 C 37.910156 -24.75 38.664062 -21.566406 38.34375 -18.765625 C 38.019531 -15.960938 37.859375 -13.320312 37.859375 -10.84375 C 39.898438 -11.914062 41.539062 -12.773438 42.78125 -13.421875 C 44.019531 -14.066406 45.234375 -14.765625 46.421875 -15.515625 C 47.609375 -16.273438 49.175781 -17.359375 51.125 -18.765625 C 52.09375 -19.515625 53.410156 -20.59375 55.078125 -22 C 56.753906 -23.40625 58.347656 -24.726562 59.859375 -25.96875 C 61.367188 -27.207031 62.285156 -27.828125 62.609375 -27.828125 C 64.222656 -27.828125 65.109375 -27.472656 65.265625 -26.765625 C 65.429688 -26.066406 65.160156 -25.257812 64.453125 -24.34375 C 63.753906 -23.425781 63.023438 -22.617188 62.265625 -21.921875 C 61.515625 -21.222656 61.035156 -20.816406 60.828125 -20.703125 C 59.640625 -19.410156 58.394531 -18.28125 57.09375 -17.3125 C 55.800781 -16.34375 54.507812 -15.265625 53.21875 -14.078125 C 51.488281 -12.890625 49.300781 -11.515625 46.65625 -9.953125 C 44.019531 -8.390625 41.648438 -6.984375 39.546875 -5.734375 C 37.441406 -4.492188 36.226562 -3.660156 35.90625 -3.234375 C 35.582031 -2.691406 35.070312 -1.476562 34.375 0.40625 C 33.675781 2.289062 32.675781 4.5 31.375 7.03125 C 30.082031 9.570312 28.410156 12.109375 26.359375 14.640625 C 24.316406 17.171875 21.785156 19.351562 18.765625 21.1875 C 14.992188 23.5625 11.164062 24.75 7.28125 24.75 C 5.007812 24.75 3.066406 24.179688 1.453125 23.046875 C -0.160156 21.921875 -0.96875 20.113281 -0.96875 17.625 C -0.96875 15.257812 0.109375 12.914062 2.265625 10.59375 C 4.421875 8.28125 7.0625 6.070312 10.1875 3.96875 C 13.3125 1.863281 16.4375 0.00390625 19.5625 -1.609375 C 22.695312 -3.234375 25.234375 -4.53125 27.171875 -5.5 C 28.679688 -6.25 29.625 -6.734375 30 -6.953125 C 30.382812 -7.171875 30.789062 -8.195312 31.21875 -10.03125 C 31.976562 -13.15625 32.300781 -16.117188 32.1875 -18.921875 C 32.082031 -21.722656 31.625 -24.015625 30.8125 -25.796875 C 30.007812 -27.578125 28.796875 -28.46875 27.171875 -28.46875 C 25.128906 -28.46875 22.539062 -26.6875 19.40625 -23.125 C 16.71875 -19.894531 14.5625 -16.390625 12.9375 -12.609375 C 11.320312 -8.835938 10 -5.601562 8.96875 -2.90625 C 7.945312 -0.21875 6.898438 1.125 5.828125 1.125 C 4.421875 1.125 3.472656 0.503906 2.984375 -0.734375 C 2.503906 -1.972656 2.265625 -3.476562 2.265625 -5.25 C 2.265625 -7.03125 2.265625 -8.675781 2.265625 -10.1875 Z M 2.265625 -10.1875 "/></g></g></g><g fill="#504081" fill-opacity="1"><g transform="translate(675.192001, 147.449988)"><g><path d="M 4.6875 64.875 C 7.8125 64.875 10.613281 63.957031 13.09375 62.125 C 15.582031 60.289062 17.769531 58.078125 19.65625 55.484375 C 21.539062 52.898438 23.128906 50.472656 24.421875 48.203125 C 25.609375 45.941406 26.929688 42.707031 28.390625 38.5 C 29.847656 34.289062 31.222656 29.734375 32.515625 24.828125 C 33.804688 19.921875 34.910156 15.285156 35.828125 10.921875 C 36.742188 6.554688 37.3125 3.128906 37.53125 0.640625 C 36.238281 1.398438 35.050781 2.210938 33.96875 3.078125 L 18.125 17.140625 C 17.6875 17.578125 17.25 18.09375 16.8125 18.6875 C 16.382812 19.28125 15.847656 19.84375 15.203125 20.375 C 12.617188 22.96875 10.300781 25.554688 8.25 28.140625 C 6.195312 30.734375 4.148438 33.59375 2.109375 36.71875 C 1.128906 38.125 0.101562 39.90625 -0.96875 42.0625 C -2.050781 44.21875 -2.941406 46.507812 -3.640625 48.9375 C -4.335938 51.363281 -4.601562 53.757812 -4.4375 56.125 C -4.28125 58.5 -3.394531 60.550781 -1.78125 62.28125 C -0.375 64.007812 1.78125 64.875 4.6875 64.875 Z M 8.40625 -14.234375 C 10.03125 -15.097656 11.921875 -16.796875 14.078125 -19.328125 C 16.234375 -21.859375 18.492188 -24.875 20.859375 -28.375 C 23.234375 -31.882812 25.550781 -35.5 27.8125 -39.21875 C 30.082031 -42.945312 32.160156 -46.398438 34.046875 -49.578125 C 35.929688 -52.765625 37.414062 -55.328125 38.5 -57.265625 C 39.789062 -59.421875 40.675781 -60.847656 41.15625 -61.546875 C 41.644531 -62.253906 42.753906 -62.609375 44.484375 -62.609375 C 45.347656 -62.609375 45.992188 -61.984375 46.421875 -60.734375 C 46.859375 -59.492188 47.179688 -57.984375 47.390625 -56.203125 C 47.609375 -54.429688 47.71875 -52.734375 47.71875 -51.109375 C 47.71875 -49.492188 47.71875 -48.253906 47.71875 -47.390625 L 47.71875 -34.9375 C 47.71875 -32.238281 47.582031 -29.378906 47.3125 -26.359375 C 47.039062 -23.347656 46.796875 -20.546875 46.578125 -17.953125 C 46.367188 -15.367188 46.265625 -13.320312 46.265625 -11.8125 L 69.390625 -25.234375 C 69.929688 -25.554688 71.0625 -26.3125 72.78125 -27.5 C 74.507812 -28.6875 75.96875 -29.28125 77.15625 -29.28125 C 78.132812 -29.28125 78.625 -28.6875 78.625 -27.5 C 78.625 -26.75 77.734375 -25.722656 75.953125 -24.421875 C 74.171875 -23.128906 72.28125 -21.941406 70.28125 -20.859375 C 68.289062 -19.785156 66.972656 -19.035156 66.328125 -18.609375 C 62.984375 -16.773438 59.664062 -14.804688 56.375 -12.703125 C 53.082031 -10.597656 49.875 -8.46875 46.75 -6.3125 C 46 -5.769531 45.59375 -5.3125 45.53125 -4.9375 C 45.476562 -4.5625 45.34375 -3.78125 45.125 -2.59375 C 44.375 2.695312 43.296875 8.679688 41.890625 15.359375 C 40.492188 22.046875 38.769531 28.570312 36.71875 34.9375 C 34.664062 41.300781 32.296875 46.640625 29.609375 50.953125 C 28.097656 53.867188 26.070312 56.753906 23.53125 59.609375 C 21 62.460938 18.171875 64.832031 15.046875 66.71875 C 11.921875 68.613281 8.578125 69.5625 5.015625 69.5625 C 1.023438 69.5625 -2.316406 68.210938 -5.015625 65.515625 C -7.710938 62.816406 -9.0625 59.039062 -9.0625 54.1875 C -9.0625 50.632812 -8.144531 46.804688 -6.3125 42.703125 C -4.476562 38.609375 -2.023438 34.429688 1.046875 30.171875 C 4.117188 25.910156 7.4375 21.835938 11 17.953125 C 14.5625 14.066406 18.117188 10.535156 21.671875 7.359375 C 25.234375 4.179688 28.414062 1.566406 31.21875 -0.484375 C 31.757812 -1.023438 32.242188 -1.429688 32.671875 -1.703125 C 33.109375 -1.972656 33.648438 -2.320312 34.296875 -2.75 C 35.804688 -4.039062 36.910156 -4.925781 37.609375 -5.40625 C 38.304688 -5.894531 38.710938 -6.84375 38.828125 -8.25 C 39.472656 -13.75 40.0625 -18.816406 40.59375 -23.453125 C 41.132812 -28.085938 41.539062 -32.859375 41.8125 -37.765625 C 42.082031 -42.671875 42.21875 -48.203125 42.21875 -54.359375 C 41.894531 -54.140625 41.003906 -52.867188 39.546875 -50.546875 C 38.097656 -48.234375 36.457031 -45.539062 34.625 -42.46875 C 32.789062 -39.394531 31.0625 -36.535156 29.4375 -33.890625 C 27.820312 -31.242188 26.691406 -29.4375 26.046875 -28.46875 C 24.429688 -25.882812 22.460938 -22.835938 20.140625 -19.328125 C 17.816406 -15.828125 15.578125 -13.050781 13.421875 -11 C 11.378906 -9.164062 9.492188 -8.25 7.765625 -8.25 C 6.035156 -8.25 4.578125 -9.082031 3.390625 -10.75 C 2.210938 -12.425781 1.625 -14.664062 1.625 -17.46875 C 1.625 -19.195312 1.835938 -21.351562 2.265625 -23.9375 C 2.691406 -26.53125 3.335938 -29.09375 4.203125 -31.625 C 5.066406 -34.15625 6.0625 -36.285156 7.1875 -38.015625 C 8.320312 -39.742188 9.539062 -40.609375 10.84375 -40.609375 C 12.675781 -40.609375 13.59375 -39.957031 13.59375 -38.65625 C 13.59375 -37.363281 13.160156 -35.554688 12.296875 -33.234375 C 11.429688 -30.921875 10.566406 -28.144531 9.703125 -24.90625 C 8.835938 -21.675781 8.40625 -18.117188 8.40625 -14.234375 Z M 8.40625 -14.234375 "/></g></g></g><g fill="#504081" fill-opacity="1"><g transform="translate(747.981226, 147.449988)"><g/></g></g><g fill="#504081" fill-opacity="1"><g transform="translate(789.87548, 147.449988)"><g><path d="M 3.234375 8.25 C 3.234375 1.34375 3.742188 -6.335938 4.765625 -14.796875 C 5.796875 -23.265625 7.226562 -32.082031 9.0625 -41.25 C 10.894531 -50.414062 13.050781 -59.554688 15.53125 -68.671875 C 18.007812 -77.785156 20.726562 -86.46875 23.6875 -94.71875 C 26.65625 -102.96875 29.757812 -110.328125 33 -116.796875 C 34.613281 -119.921875 35.957031 -122.640625 37.03125 -124.953125 C 38.113281 -127.273438 39.953125 -128.707031 42.546875 -129.25 L 44.15625 -127.953125 C 44.476562 -127.523438 44.664062 -127.335938 44.71875 -127.390625 C 44.78125 -127.441406 44.8125 -127.46875 44.8125 -127.46875 C 44.8125 -126.601562 44.40625 -125.007812 43.59375 -122.6875 C 42.78125 -120.375 41.914062 -118.082031 41 -115.8125 C 40.082031 -113.550781 39.410156 -111.882812 38.984375 -110.8125 C 33.804688 -96.363281 29.25 -82.070312 25.3125 -67.9375 C 21.375 -53.8125 18.300781 -39.519531 16.09375 -25.0625 C 13.882812 -10.613281 12.78125 4.425781 12.78125 20.0625 C 12.78125 23.289062 13.046875 27.035156 13.578125 31.296875 C 14.117188 35.554688 15.007812 39.65625 16.25 43.59375 C 17.5 47.53125 19.117188 50.789062 21.109375 53.375 C 23.109375 55.96875 25.5625 57.265625 28.46875 57.265625 C 30.082031 57.265625 31.832031 56.78125 33.71875 55.8125 C 35.613281 54.84375 37.640625 53.28125 39.796875 51.125 C 45.078125 45.726562 49.847656 39.253906 54.109375 31.703125 C 58.367188 24.148438 62.195312 16.359375 65.59375 8.328125 C 68.988281 0.296875 72.035156 -7.113281 74.734375 -13.90625 C 81.421875 -30.625 87.109375 -47.691406 91.796875 -65.109375 C 96.492188 -82.523438 100.941406 -99.914062 105.140625 -117.28125 C 105.679688 -119.332031 106.191406 -121.113281 106.671875 -122.625 C 107.160156 -124.132812 108.21875 -124.890625 109.84375 -124.890625 C 110.488281 -124.890625 111.457031 -124.617188 112.75 -124.078125 C 113.175781 -122.347656 113.363281 -119.59375 113.3125 -115.8125 C 113.257812 -112.039062 113.046875 -107.753906 112.671875 -102.953125 C 112.296875 -98.160156 111.890625 -93.335938 111.453125 -88.484375 C 111.023438 -83.628906 110.566406 -79.234375 110.078125 -75.296875 C 109.597656 -71.359375 109.25 -68.367188 109.03125 -66.328125 C 108.164062 -58.773438 107.328125 -50.789062 106.515625 -42.375 C 105.710938 -33.96875 104.769531 -25.9375 103.6875 -18.28125 C 102.71875 -11.050781 101.585938 -3.207031 100.296875 5.25 C 99.003906 13.71875 97.546875 22.425781 95.921875 31.375 C 94.304688 40.332031 92.421875 49.175781 90.265625 57.90625 C 88.109375 66.644531 85.65625 74.894531 82.90625 82.65625 C 80.15625 90.425781 77.054688 97.332031 73.609375 103.375 L 66.8125 114.53125 C 66.050781 115.28125 65.1875 115.65625 64.21875 115.65625 C 62.820312 115.65625 62.125 114.898438 62.125 113.390625 C 62.125 112.421875 62.472656 110.992188 63.171875 109.109375 C 63.867188 107.222656 64.753906 105.171875 65.828125 102.953125 C 66.910156 100.742188 67.9375 98.640625 68.90625 96.640625 C 69.882812 94.648438 70.640625 93.117188 71.171875 92.046875 C 73.972656 85.578125 76.585938 77.675781 79.015625 68.34375 C 81.441406 59.019531 83.679688 48.988281 85.734375 38.25 C 87.785156 27.519531 89.617188 16.65625 91.234375 5.65625 C 92.847656 -5.34375 94.25 -15.800781 95.4375 -25.71875 C 96.625 -35.644531 97.648438 -44.378906 98.515625 -51.921875 L 101.421875 -77.484375 C 101.210938 -77.160156 101.132812 -77.101562 101.1875 -77.3125 C 101.238281 -77.53125 101.15625 -77.210938 100.9375 -76.359375 L 95.125 -56.625 C 94.039062 -53.164062 92.554688 -48.414062 90.671875 -42.375 C 88.785156 -36.34375 86.519531 -29.578125 83.875 -22.078125 C 81.226562 -14.585938 78.285156 -6.878906 75.046875 1.046875 C 71.816406 8.972656 68.367188 16.679688 64.703125 24.171875 C 61.035156 31.671875 57.179688 38.410156 53.140625 44.390625 C 49.097656 50.378906 44.972656 55.15625 40.765625 58.71875 C 36.554688 62.28125 32.296875 64.0625 27.984375 64.0625 C 24.960938 64.0625 22.160156 63.144531 19.578125 61.3125 C 16.234375 59.15625 13.484375 55.945312 11.328125 51.6875 C 9.171875 47.425781 7.5 42.679688 6.3125 37.453125 C 5.125 32.222656 4.3125 27.046875 3.875 21.921875 C 3.445312 16.796875 3.234375 12.238281 3.234375 8.25 Z M 3.234375 8.25 "/></g></g></g><g fill="#504081" fill-opacity="1"><g transform="translate(903.426635, 147.449988)"><g><path d="M 7.4375 -29.28125 C 9.488281 -30.351562 11.753906 -31.832031 14.234375 -33.71875 C 16.710938 -35.613281 18.0625 -37.851562 18.28125 -40.4375 C 16.875 -40.226562 15.390625 -39.472656 13.828125 -38.171875 C 12.265625 -36.878906 10.914062 -35.421875 9.78125 -33.796875 C 8.65625 -32.179688 7.875 -30.675781 7.4375 -29.28125 Z M 0.15625 -25.390625 C 0.15625 -28.085938 1.046875 -31 2.828125 -34.125 C 4.609375 -37.257812 6.816406 -39.929688 9.453125 -42.140625 C 12.097656 -44.347656 14.71875 -45.453125 17.3125 -45.453125 C 20.863281 -45.453125 22.71875 -44.101562 22.875 -41.40625 C 23.039062 -38.71875 21.882812 -35.804688 19.40625 -32.671875 C 18.113281 -31.273438 16.171875 -29.660156 13.578125 -27.828125 C 10.992188 -25.992188 8.460938 -24.96875 5.984375 -24.75 C 5.984375 -23.019531 6.035156 -21.484375 6.140625 -20.140625 C 6.253906 -18.796875 7.007812 -17.421875 8.40625 -16.015625 C 9.8125 -14.609375 11.59375 -13.90625 13.75 -13.90625 C 16.550781 -13.90625 19.460938 -14.796875 22.484375 -16.578125 C 25.503906 -18.359375 27.820312 -19.84375 29.4375 -21.03125 C 30.082031 -21.570312 30.59375 -22.003906 30.96875 -22.328125 C 31.351562 -22.648438 31.816406 -23.023438 32.359375 -23.453125 C 34.617188 -25.179688 36.046875 -26.445312 36.640625 -27.25 C 37.234375 -28.0625 37.742188 -28.601562 38.171875 -28.875 C 38.609375 -29.144531 39.632812 -29.28125 41.25 -29.28125 C 41.46875 -28.09375 41.546875 -27.28125 41.484375 -26.84375 C 41.429688 -26.414062 41.03125 -25.769531 40.28125 -24.90625 C 38.34375 -22.96875 35.890625 -20.757812 32.921875 -18.28125 C 29.953125 -15.800781 26.769531 -13.644531 23.375 -11.8125 C 19.976562 -9.976562 16.609375 -9.0625 13.265625 -9.0625 C 11.535156 -9.0625 9.890625 -9.359375 8.328125 -9.953125 C 6.765625 -10.546875 5.28125 -11.539062 3.875 -12.9375 C 1.9375 -14.882812 0.832031 -16.878906 0.5625 -18.921875 C 0.289062 -20.972656 0.15625 -23.128906 0.15625 -25.390625 Z M 0.15625 -25.390625 "/></g></g></g><g fill="#504081" fill-opacity="1"><g transform="translate(938.527219, 147.449988)"><g><path d="M 0 -16.34375 C 0 -18.601562 0.535156 -21.40625 1.609375 -24.75 C 2.691406 -28.09375 4.203125 -31.40625 6.140625 -34.6875 C 8.085938 -37.976562 10.328125 -40.703125 12.859375 -42.859375 C 15.390625 -45.023438 18.0625 -46.109375 20.875 -46.109375 C 23.457031 -46.109375 25.554688 -45.351562 27.171875 -43.84375 C 28.796875 -42.332031 29.769531 -40.789062 30.09375 -39.21875 C 30.414062 -37.65625 29.875 -36.875 28.46875 -36.875 C 27.394531 -36.875 26.289062 -37.492188 25.15625 -38.734375 C 24.019531 -39.984375 22.695312 -40.609375 21.1875 -40.609375 C 20 -40.609375 18.566406 -39.90625 16.890625 -38.5 C 15.222656 -37.09375 13.207031 -34.34375 10.84375 -30.25 C 9.757812 -28.519531 8.757812 -26.28125 7.84375 -23.53125 C 6.925781 -20.78125 6.46875 -18.0625 6.46875 -15.375 C 6.6875 -15.582031 6.765625 -15.660156 6.703125 -15.609375 C 6.648438 -15.554688 6.84375 -15.742188 7.28125 -16.171875 L 8.578125 -18.125 C 9.441406 -19.414062 10.4375 -21.082031 11.5625 -23.125 C 12.695312 -25.175781 13.859375 -27.253906 15.046875 -29.359375 C 16.234375 -31.460938 17.3125 -33.238281 18.28125 -34.6875 C 19.25 -36.144531 20.003906 -36.875 20.546875 -36.875 C 22.484375 -36.875 23.613281 -36.171875 23.9375 -34.765625 C 24.257812 -33.367188 24.394531 -31.644531 24.34375 -29.59375 C 24.289062 -27.550781 24.476562 -25.503906 24.90625 -23.453125 C 25.550781 -20.546875 26.546875 -18.414062 27.890625 -17.0625 C 29.242188 -15.71875 30.785156 -15.046875 32.515625 -15.046875 C 35.535156 -15.046875 38.878906 -16.878906 42.546875 -20.546875 C 44.054688 -21.941406 45.132812 -23.097656 45.78125 -24.015625 C 46.425781 -24.929688 47.289062 -25.984375 48.375 -27.171875 C 49.125 -28.253906 50.09375 -28.796875 51.28125 -28.796875 C 52.46875 -28.796875 52.976562 -27.796875 52.8125 -25.796875 C 52.65625 -23.804688 50.523438 -20.816406 46.421875 -16.828125 L 41.578125 -12.9375 C 38.441406 -10.78125 35.421875 -9.703125 32.515625 -9.703125 C 29.816406 -9.703125 27.46875 -10.507812 25.46875 -12.125 C 23.476562 -13.75 21.941406 -15.742188 20.859375 -18.109375 C 19.785156 -20.484375 19.25 -22.804688 19.25 -25.078125 C 18.5 -24.535156 17.632812 -23.347656 16.65625 -21.515625 C 15.6875 -19.679688 14.632812 -17.710938 13.5 -15.609375 C 12.375 -13.503906 11.21875 -11.671875 10.03125 -10.109375 C 8.84375 -8.546875 7.65625 -7.765625 6.46875 -7.765625 C 3.445312 -7.765625 1.613281 -8.460938 0.96875 -9.859375 C 0.320312 -11.265625 0 -13.425781 0 -16.34375 Z M 0 -16.34375 "/></g></g></g><g fill="#504081" fill-opacity="1"><g transform="translate(985.435816, 147.449988)"><g><path d="M 2.265625 -0.640625 C 1.179688 -0.640625 0.53125 -1.3125 0.3125 -2.65625 C 0.101562 -4.007812 0.0507812 -5.441406 0.15625 -6.953125 C 0.269531 -8.460938 0.328125 -9.378906 0.328125 -9.703125 C 0.210938 -11.648438 0.179688 -13.617188 0.234375 -15.609375 C 0.296875 -17.609375 0.269531 -19.628906 0.15625 -21.671875 C 0.15625 -22.429688 0.179688 -23.863281 0.234375 -25.96875 C 0.296875 -28.070312 0.457031 -30.304688 0.71875 -32.671875 C 0.988281 -35.046875 1.394531 -37.09375 1.9375 -38.8125 C 2.476562 -40.539062 3.179688 -41.40625 4.046875 -41.40625 C 6.203125 -41.40625 7.304688 -40.703125 7.359375 -39.296875 C 7.410156 -37.898438 7.332031 -36.070312 7.125 -33.8125 C 7.007812 -33.050781 6.953125 -32.210938 6.953125 -31.296875 C 6.953125 -30.378906 6.953125 -29.488281 6.953125 -28.625 C 6.953125 -27.550781 6.894531 -26.851562 6.78125 -26.53125 C 6.675781 -26.207031 6.625 -25.503906 6.625 -24.421875 C 7.8125 -25.285156 8.890625 -26.285156 9.859375 -27.421875 C 10.835938 -28.554688 12.566406 -29.125 15.046875 -29.125 C 15.796875 -29.125 16.789062 -29.148438 18.03125 -29.203125 C 19.269531 -29.253906 20.59375 -29.28125 22 -29.28125 C 24.375 -29.28125 26.582031 -29.144531 28.625 -28.875 C 30.675781 -28.601562 31.703125 -27.929688 31.703125 -26.859375 C 31.703125 -25.773438 31.132812 -25.070312 30 -24.75 C 28.875 -24.425781 27.5 -24.265625 25.875 -24.265625 C 24.800781 -24.265625 23.695312 -24.289062 22.5625 -24.34375 C 21.4375 -24.394531 20.441406 -24.421875 19.578125 -24.421875 C 16.554688 -24.421875 14.53125 -24.257812 13.5 -23.9375 C 12.476562 -23.613281 11.320312 -22.375 10.03125 -20.21875 C 9.269531 -18.820312 8.539062 -17.3125 7.84375 -15.6875 C 7.144531 -14.070312 6.632812 -12.296875 6.3125 -10.359375 C 5.988281 -8.953125 5.851562 -7.492188 5.90625 -5.984375 C 5.957031 -4.472656 5.796875 -3.203125 5.421875 -2.171875 C 5.046875 -1.148438 3.992188 -0.640625 2.265625 -0.640625 Z M 2.265625 -0.640625 "/></g></g></g><path stroke-linecap="butt" transform="matrix(0.75, 0, 0, 0.75, 1024.295443, 20.324997)" fill="none" stroke-linejoin="miter" d="M 21.830036 201.373976 C 18.413369 201.373976 15.647744 200.290642 13.538369 198.123976 C 11.455035 195.957309 10.413369 193.280225 10.413369 190.082308 C 10.413369 186.806267 11.455035 184.1396 13.538369 182.087516 C 15.647744 180.030224 18.413369 179.004183 21.830036 179.004183 C 25.356078 179.004183 28.173786 180.030224 30.28837 182.087516 C 32.397745 184.1396 33.455037 186.806267 33.455037 190.082308 C 33.455037 193.280225 32.397745 195.957309 30.28837 198.123976 C 28.173786 200.290642 25.356078 201.373976 21.830036 201.373976 Z M 21.830036 201.373976 " stroke="#504081" stroke-width="4.052866" stroke-opacity="1" stroke-miterlimit="4"/><g fill="#fef74b" fill-opacity="1"><g transform="translate(1024.295443, 170.324987)"><g><path d="M 16.375 1.03125 C 13.820312 1.03125 11.753906 0.21875 10.171875 -1.40625 C 8.597656 -3.03125 7.8125 -5.035156 7.8125 -7.421875 C 7.8125 -9.898438 8.597656 -11.90625 10.171875 -13.4375 C 11.753906 -14.96875 13.820312 -15.734375 16.375 -15.734375 C 19.019531 -15.734375 21.128906 -14.96875 22.703125 -13.4375 C 24.285156 -11.90625 25.078125 -9.898438 25.078125 -7.421875 C 25.078125 -5.035156 24.285156 -3.03125 22.703125 -1.40625 C 21.128906 0.21875 19.019531 1.03125 16.375 1.03125 Z M 16.375 1.03125 "/></g></g></g></svg>