<svg xmlns="http://www.w3.org/2000/svg" xmlns:xlink="http://www.w3.org/1999/xlink" width="1548" zoomAndPan="magnify" viewBox="0 0 1161 296.999993" height="396" preserveAspectRatio="xMidYMid meet" version="1.0"><defs><g/><clipPath id="96b1dc1d9f"><rect x="0" width="815" y="0" height="206"/></clipPath></defs><g transform="matrix(1, 0, 0, 1, 176, 24)"><g clip-path="url(#96b1dc1d9f)"><g fill="#504081" fill-opacity="1"><g transform="translate(1.399097, 118.813975)"><g><path d="M 44.40625 3.015625 C 45.132812 2.535156 45.859375 1.609375 46.578125 0.234375 C 47.304688 -1.128906 47.953125 -2.59375 48.515625 -4.15625 C 49.078125 -5.726562 49.519531 -7 49.84375 -7.96875 C 52.175781 -13.914062 54.285156 -19.804688 56.171875 -25.640625 C 58.066406 -31.472656 60.222656 -37.445312 62.640625 -43.5625 C 63.035156 -44.613281 63.734375 -46.320312 64.734375 -48.6875 C 65.742188 -51.0625 66.929688 -53.757812 68.296875 -56.78125 C 69.671875 -59.800781 71.179688 -62.859375 72.828125 -65.953125 C 74.484375 -69.054688 76.175781 -71.929688 77.90625 -74.578125 C 79.632812 -77.234375 81.320312 -79.382812 82.96875 -81.03125 C 84.625 -82.6875 86.132812 -83.515625 87.5 -83.515625 C 89.351562 -83.515625 90.71875 -82.609375 91.59375 -80.796875 C 92.476562 -78.984375 92.984375 -76.707031 93.109375 -73.96875 C 93.234375 -71.238281 93.171875 -68.40625 92.921875 -65.46875 C 92.679688 -62.53125 92.398438 -59.914062 92.078125 -57.625 C 91.765625 -55.332031 91.523438 -53.785156 91.359375 -52.984375 L 83.875 -3.140625 C 82.59375 5.796875 81.609375 14.523438 80.921875 23.046875 C 80.234375 31.578125 79.410156 40.1875 78.453125 48.875 C 78.285156 51.050781 78.203125 53.425781 78.203125 56 C 78.203125 58.570312 78.203125 60.984375 78.203125 63.234375 C 78.203125 64.285156 78.019531 65.070312 77.65625 65.59375 C 77.300781 66.113281 76.921875 66.375 76.515625 66.375 C 76.035156 66.375 75.570312 66.09375 75.125 65.53125 C 74.6875 64.96875 74.425781 64.203125 74.34375 63.234375 C 74.257812 62.191406 74.21875 61.410156 74.21875 60.890625 C 74.21875 60.367188 74.179688 59.742188 74.109375 59.015625 L 77.71875 5.1875 C 78.363281 0.125 78.945312 -4.554688 79.46875 -8.859375 C 79.988281 -13.171875 80.550781 -17.519531 81.15625 -21.90625 C 81.757812 -26.289062 82.503906 -31.140625 83.390625 -36.453125 C 83.628906 -37.816406 83.988281 -39.945312 84.46875 -42.84375 C 84.957031 -45.738281 85.484375 -48.992188 86.046875 -52.609375 C 86.609375 -56.234375 87.109375 -59.851562 87.546875 -63.46875 C 87.992188 -67.09375 88.238281 -70.3125 88.28125 -73.125 C 88.320312 -75.945312 88.0625 -77.960938 87.5 -79.171875 C 85.96875 -78.367188 84.535156 -77.101562 83.203125 -75.375 C 81.878906 -73.644531 80.773438 -71.972656 79.890625 -70.359375 C 78.285156 -67.703125 76.898438 -65.265625 75.734375 -63.046875 C 74.566406 -60.835938 73.457031 -58.609375 72.40625 -56.359375 C 71.363281 -54.109375 70.195312 -51.535156 68.90625 -48.640625 C 66.894531 -44.210938 65.285156 -40.1875 64.078125 -36.5625 C 62.878906 -32.945312 61.472656 -29.128906 59.859375 -25.109375 C 59.453125 -24.054688 58.867188 -22.265625 58.109375 -19.734375 C 57.347656 -17.203125 56.441406 -14.382812 55.390625 -11.28125 C 54.347656 -8.1875 53.222656 -5.207031 52.015625 -2.34375 C 50.804688 0.507812 49.554688 2.878906 48.265625 4.765625 C 46.984375 6.660156 45.695312 7.609375 44.40625 7.609375 C 43.125 7.609375 42.117188 6.898438 41.390625 5.484375 C 40.671875 4.078125 40.171875 2.328125 39.890625 0.234375 C 39.609375 -1.847656 39.46875 -3.9375 39.46875 -6.03125 C 39.46875 -8.125 39.503906 -9.816406 39.578125 -11.109375 L 41.390625 -35.234375 C 41.390625 -35.722656 41.347656 -36.269531 41.265625 -36.875 C 41.191406 -37.476562 41.15625 -38.222656 41.15625 -39.109375 C 40.425781 -38.941406 39.976562 -38.738281 39.8125 -38.5 C 39.65625 -38.257812 39.378906 -37.859375 38.984375 -37.296875 C 37.296875 -35.035156 35.707031 -32.273438 34.21875 -29.015625 C 32.726562 -25.765625 31.335938 -22.304688 30.046875 -18.640625 C 28.765625 -14.984375 27.640625 -11.425781 26.671875 -7.96875 C 25.703125 -4.507812 24.898438 -1.488281 24.265625 1.09375 C 23.296875 4.875 22.347656 8.710938 21.421875 12.609375 C 20.492188 16.515625 19.507812 20.238281 18.46875 23.78125 C 17.820312 26.507812 17.054688 29.203125 16.171875 31.859375 C 15.285156 34.515625 14.28125 37.171875 13.15625 39.828125 C 12.59375 40.796875 12.046875 41.5625 11.515625 42.125 C 10.992188 42.6875 10.132812 42.96875 8.9375 42.96875 C 7.5625 42.96875 6.390625 41.941406 5.421875 39.890625 C 4.460938 37.835938 3.703125 35.203125 3.140625 31.984375 C 2.578125 28.765625 2.15625 25.40625 1.875 21.90625 C 1.59375 18.40625 1.410156 15.144531 1.328125 12.125 C 1.242188 9.113281 1.203125 6.84375 1.203125 5.3125 L 2.40625 -19.0625 C 2.8125 -22.84375 3.253906 -26.601562 3.734375 -30.34375 C 4.222656 -34.09375 4.75 -37.816406 5.3125 -41.515625 C 5.394531 -41.921875 5.59375 -43.148438 5.90625 -45.203125 C 6.226562 -47.253906 6.691406 -49.765625 7.296875 -52.734375 C 7.898438 -55.710938 8.5625 -58.832031 9.28125 -62.09375 C 10.007812 -65.351562 10.773438 -68.410156 11.578125 -71.265625 C 12.390625 -74.117188 13.21875 -76.429688 14.0625 -78.203125 C 14.90625 -79.972656 15.726562 -80.859375 16.53125 -80.859375 C 17.65625 -80.859375 18.273438 -80.457031 18.390625 -79.65625 C 18.515625 -78.851562 18.414062 -77.90625 18.09375 -76.8125 C 17.78125 -75.726562 17.503906 -74.785156 17.265625 -73.984375 C 15.972656 -69.398438 14.921875 -65.234375 14.109375 -61.484375 C 13.304688 -57.742188 12.5625 -53.960938 11.875 -50.140625 C 11.195312 -46.316406 10.5 -41.953125 9.78125 -37.046875 C 9.132812 -32.617188 8.53125 -27.46875 7.96875 -21.59375 C 7.40625 -15.726562 6.941406 -9.554688 6.578125 -3.078125 C 6.210938 3.398438 6.109375 9.695312 6.265625 15.8125 C 6.429688 21.925781 6.914062 27.4375 7.71875 32.34375 L 8.9375 38.265625 C 9.570312 38.097656 9.96875 37.832031 10.125 37.46875 C 10.289062 37.113281 10.535156 36.613281 10.859375 35.96875 L 13.765625 27.28125 C 15.609375 20.675781 17.414062 13.832031 19.1875 6.75 C 20.957031 -0.320312 22.90625 -7.257812 25.03125 -14.0625 C 27.164062 -20.863281 29.644531 -27.160156 32.46875 -32.953125 C 33.269531 -34.472656 34.210938 -36.21875 35.296875 -38.1875 C 36.390625 -40.164062 37.578125 -41.554688 38.859375 -42.359375 C 39.585938 -42.835938 40.394531 -43.078125 41.28125 -43.078125 C 42.644531 -43.078125 43.566406 -42.515625 44.046875 -41.390625 C 44.691406 -40.265625 45.050781 -38.210938 45.125 -35.234375 C 45.207031 -32.265625 45.128906 -28.925781 44.890625 -25.21875 C 44.648438 -21.519531 44.410156 -17.941406 44.171875 -14.484375 C 43.929688 -11.023438 43.8125 -8.25 43.8125 -6.15625 C 43.8125 -3.738281 43.910156 -1.925781 44.109375 -0.71875 C 44.304688 0.488281 44.40625 1.734375 44.40625 3.015625 Z M 44.40625 3.015625 "/></g></g></g><g fill="#504081" fill-opacity="1"><g transform="translate(93.725855, 118.813975)"><g><path d="M 0.125 -14.71875 C 0.125 -16.488281 0.382812 -18.457031 0.90625 -20.625 C 1.425781 -22.800781 2.109375 -24.914062 2.953125 -26.96875 C 3.796875 -29.019531 4.703125 -30.691406 5.671875 -31.984375 C 6.554688 -32.953125 7.441406 -33.4375 8.328125 -33.4375 C 9.046875 -33.4375 9.769531 -33.234375 10.5 -32.828125 C 10.582031 -32.421875 10.679688 -32.132812 10.796875 -31.96875 C 10.921875 -31.8125 10.984375 -31.453125 10.984375 -30.890625 C 10.984375 -30.816406 10.617188 -30.054688 9.890625 -28.609375 C 9.171875 -27.160156 8.390625 -25.347656 7.546875 -23.171875 C 6.703125 -20.992188 6.015625 -18.695312 5.484375 -16.28125 C 4.960938 -13.875 4.945312 -11.664062 5.4375 -9.65625 C 6.394531 -9.976562 7.234375 -10.597656 7.953125 -11.515625 C 8.679688 -12.441406 9.328125 -13.3125 9.890625 -14.125 L 17.140625 -24.734375 C 17.941406 -25.867188 18.625 -26.859375 19.1875 -27.703125 C 19.75 -28.546875 20.59375 -28.96875 21.71875 -28.96875 C 22.84375 -28.96875 23.503906 -28.257812 23.703125 -26.84375 C 23.910156 -25.4375 23.953125 -23.847656 23.828125 -22.078125 C 23.710938 -20.316406 23.695312 -18.910156 23.78125 -17.859375 C 24.175781 -14.960938 24.796875 -12.929688 25.640625 -11.765625 C 26.484375 -10.597656 27.472656 -10.015625 28.609375 -10.015625 C 29.972656 -10.015625 31.414062 -10.578125 32.9375 -11.703125 C 34.46875 -12.828125 36 -14.132812 37.53125 -15.625 C 39.0625 -17.113281 40.410156 -18.421875 41.578125 -19.546875 C 42.742188 -20.671875 43.609375 -21.234375 44.171875 -21.234375 C 44.648438 -21.234375 45.09375 -21.132812 45.5 -20.9375 C 45.90625 -20.738281 46.109375 -20.316406 46.109375 -19.671875 C 46.109375 -19.023438 45.625 -18.160156 44.65625 -17.078125 C 43.6875 -15.992188 42.640625 -14.945312 41.515625 -13.9375 C 40.390625 -12.9375 39.585938 -12.191406 39.109375 -11.703125 C 37.492188 -10.171875 35.738281 -8.863281 33.84375 -7.78125 C 31.957031 -6.695312 30.085938 -6.15625 28.234375 -6.15625 C 26.222656 -6.15625 24.65625 -6.695312 23.53125 -7.78125 C 22.40625 -8.863281 21.582031 -10.226562 21.0625 -11.875 C 20.539062 -13.53125 20.195312 -15.265625 20.03125 -17.078125 C 19.875 -18.890625 19.796875 -20.519531 19.796875 -21.96875 C 19.304688 -21.644531 18.71875 -20.9375 18.03125 -19.84375 C 17.351562 -18.757812 16.8125 -17.898438 16.40625 -17.265625 C 15.925781 -16.453125 15.242188 -15.34375 14.359375 -13.9375 C 13.472656 -12.53125 12.488281 -11.125 11.40625 -9.71875 C 10.320312 -8.3125 9.234375 -7.125 8.140625 -6.15625 C 7.054688 -5.1875 6.03125 -4.703125 5.0625 -4.703125 C 3.21875 -4.703125 1.953125 -5.242188 1.265625 -6.328125 C 0.578125 -7.421875 0.210938 -8.75 0.171875 -10.3125 C 0.140625 -11.882812 0.125 -13.351562 0.125 -14.71875 Z M 0.125 -14.71875 "/></g></g></g><g fill="#504081" fill-opacity="1"><g transform="translate(134.518595, 118.813975)"><g><path d="M 1.453125 19.90625 C 1.453125 21.601562 1.972656 22.453125 3.015625 22.453125 C 3.578125 22.453125 4.179688 22.25 4.828125 21.84375 C 5.472656 21.4375 5.992188 21.078125 6.390625 20.765625 C 8.003906 19.554688 9.429688 17.722656 10.671875 15.265625 C 11.921875 12.816406 12.828125 10.582031 13.390625 8.5625 C 13.796875 7.195312 14.019531 5.8125 14.0625 4.40625 C 14.101562 3 14.125 1.453125 14.125 -0.234375 C 13.15625 0.328125 12.046875 1.3125 10.796875 2.71875 C 9.554688 4.125 8.570312 5.269531 7.84375 6.15625 C 6.394531 7.925781 4.96875 10.054688 3.5625 12.546875 C 2.15625 15.046875 1.453125 17.5 1.453125 19.90625 Z M 0.359375 -19.546875 C 0.359375 -21.640625 0.921875 -23.507812 2.046875 -25.15625 C 3.171875 -26.8125 4.519531 -28.140625 6.09375 -29.140625 C 7.664062 -30.148438 9.015625 -30.65625 10.140625 -30.65625 C 11.023438 -30.65625 11.6875 -30.332031 12.125 -29.6875 C 12.570312 -29.039062 12.59375 -27.957031 12.1875 -26.4375 C 11.21875 -26.1875 10.53125 -26.039062 10.125 -26 C 9.726562 -25.96875 9.410156 -25.847656 9.171875 -25.640625 C 8.929688 -25.441406 8.488281 -24.984375 7.84375 -24.265625 C 6.238281 -22.492188 5.492188 -21.0625 5.609375 -19.96875 C 5.734375 -18.882812 6.378906 -17.878906 7.546875 -16.953125 C 8.710938 -16.023438 10.160156 -14.878906 11.890625 -13.515625 C 13.617188 -12.148438 15.25 -10.300781 16.78125 -7.96875 C 18.550781 -9.175781 20.359375 -10.582031 22.203125 -12.1875 L 33.4375 -20.03125 C 34.476562 -20.757812 35.378906 -21.265625 36.140625 -21.546875 C 36.910156 -21.828125 37.578125 -21.96875 38.140625 -21.96875 C 39.097656 -21.96875 39.5 -21.5625 39.34375 -20.75 C 39.1875 -19.945312 38.421875 -19.144531 37.046875 -18.34375 L 28.84375 -12.671875 C 28.519531 -12.515625 27.832031 -12.050781 26.78125 -11.28125 C 25.738281 -10.519531 24.59375 -9.675781 23.34375 -8.75 C 22.101562 -7.820312 21.039062 -6.957031 20.15625 -6.15625 C 19.269531 -5.351562 18.785156 -4.832031 18.703125 -4.59375 C 18.617188 -4.1875 18.738281 -3.421875 19.0625 -2.296875 C 19.382812 -1.171875 19.601562 0.296875 19.71875 2.109375 C 19.84375 3.921875 19.601562 6.132812 19 8.75 C 18.40625 11.363281 17.097656 14.398438 15.078125 17.859375 C 13.316406 20.835938 11.390625 23.03125 9.296875 24.4375 C 7.203125 25.84375 5.226562 26.546875 3.375 26.546875 C 1.6875 26.546875 0.300781 25.984375 -0.78125 24.859375 C -1.863281 23.734375 -2.40625 22.082031 -2.40625 19.90625 C -2.40625 17.175781 -1.742188 14.523438 -0.421875 11.953125 C 0.898438 9.378906 2.488281 7.003906 4.34375 4.828125 C 6.195312 2.648438 7.90625 0.78125 9.46875 -0.78125 C 11.039062 -2.351562 12.066406 -3.5 12.546875 -4.21875 C 11.585938 -5.914062 10.421875 -7.382812 9.046875 -8.625 C 7.679688 -9.875 6.332031 -11.019531 5 -12.0625 C 3.675781 -13.113281 2.570312 -14.222656 1.6875 -15.390625 C 0.800781 -16.554688 0.359375 -17.941406 0.359375 -19.546875 Z M 0.359375 -19.546875 "/></g></g></g><g fill="#504081" fill-opacity="1"><g transform="translate(169.397595, 118.813975)"><g><path d="M 0.234375 -9.296875 C 0.234375 -13.316406 0.472656 -17.660156 0.953125 -22.328125 C 1.441406 -26.992188 2.085938 -31.617188 2.890625 -36.203125 C 3.703125 -40.785156 4.585938 -44.929688 5.546875 -48.640625 C 5.953125 -49.847656 6.351562 -51.191406 6.75 -52.671875 C 7.15625 -54.160156 7.679688 -55.445312 8.328125 -56.53125 C 8.972656 -57.625 9.816406 -58.171875 10.859375 -58.171875 C 11.828125 -58.171875 12.429688 -57.804688 12.671875 -57.078125 C 12.910156 -56.359375 12.929688 -55.492188 12.734375 -54.484375 C 12.535156 -53.484375 12.273438 -52.5625 11.953125 -51.71875 C 11.628906 -50.875 11.425781 -50.289062 11.34375 -49.96875 C 10.695312 -47.550781 9.953125 -44.269531 9.109375 -40.125 C 8.265625 -35.976562 7.457031 -31.453125 6.6875 -26.546875 C 5.925781 -21.640625 5.34375 -16.769531 4.9375 -11.9375 C 4.539062 -7.113281 4.460938 -2.753906 4.703125 1.140625 C 4.941406 5.046875 5.585938 8.046875 6.640625 10.140625 C 8.003906 9.410156 9.128906 8.320312 10.015625 6.875 C 10.898438 5.425781 11.664062 4.019531 12.3125 2.65625 C 14.15625 -0.882812 15.960938 -4.625 17.734375 -8.5625 C 19.503906 -12.507812 21.359375 -16.210938 23.296875 -19.671875 C 23.941406 -20.960938 24.625 -21.609375 25.34375 -21.609375 C 25.664062 -21.609375 25.925781 -21.46875 26.125 -21.1875 C 26.332031 -20.90625 26.4375 -20.601562 26.4375 -20.28125 C 26.4375 -20.03125 26.113281 -19.257812 25.46875 -17.96875 C 24.820312 -16.6875 24.15625 -15.363281 23.46875 -14 C 22.789062 -12.632812 22.328125 -11.75 22.078125 -11.34375 C 21.273438 -9.65625 20.367188 -7.679688 19.359375 -5.421875 C 18.359375 -3.171875 17.375 -0.960938 16.40625 1.203125 C 15.445312 3.378906 14.523438 5.234375 13.640625 6.765625 C 13.234375 7.398438 12.6875 8.257812 12 9.34375 C 11.320312 10.4375 10.578125 11.382812 9.765625 12.1875 C 8.960938 12.988281 8.039062 13.390625 7 13.390625 C 5.394531 13.390625 4.128906 12.582031 3.203125 10.96875 C 2.273438 9.363281 1.609375 7.351562 1.203125 4.9375 C 0.804688 2.53125 0.546875 0.0390625 0.421875 -2.53125 C 0.296875 -5.101562 0.234375 -7.359375 0.234375 -9.296875 Z M 0.234375 -9.296875 "/></g></g></g><g fill="#504081" fill-opacity="1"><g transform="translate(190.638778, 118.813975)"><g><path d="M 10.015625 0.484375 C 8.410156 0.484375 6.984375 -0.0351562 5.734375 -1.078125 C 4.484375 -2.128906 3.535156 -3.21875 2.890625 -4.34375 C 1.441406 -7.082031 0.617188 -10.320312 0.421875 -14.0625 C 0.222656 -17.800781 0.445312 -21.203125 1.09375 -24.265625 C 1.25 -25.140625 1.46875 -26.203125 1.75 -27.453125 C 2.03125 -28.703125 2.453125 -29.804688 3.015625 -30.765625 C 3.578125 -31.734375 4.257812 -32.21875 5.0625 -32.21875 C 6.914062 -32.21875 7.820312 -31.59375 7.78125 -30.34375 C 7.738281 -29.101562 7.394531 -27.175781 6.75 -24.5625 C 6.113281 -21.945312 5.796875 -18.585938 5.796875 -14.484375 C 5.796875 -13.273438 5.957031 -11.828125 6.28125 -10.140625 C 6.601562 -8.453125 7.101562 -6.960938 7.78125 -5.671875 C 8.46875 -4.378906 9.332031 -3.734375 10.375 -3.734375 C 11.664062 -3.734375 13.132812 -4.296875 14.78125 -5.421875 C 16.4375 -6.554688 17.96875 -7.828125 19.375 -9.234375 C 20.78125 -10.640625 21.765625 -11.707031 22.328125 -12.4375 C 22.484375 -12.59375 22.921875 -13.132812 23.640625 -14.0625 C 24.367188 -14.988281 25.238281 -16.035156 26.25 -17.203125 C 27.257812 -18.367188 28.242188 -19.394531 29.203125 -20.28125 C 30.171875 -21.164062 30.9375 -21.609375 31.5 -21.609375 C 32.0625 -21.609375 32.34375 -21.125 32.34375 -20.15625 C 32.34375 -19.59375 31.957031 -18.726562 31.1875 -17.5625 C 30.425781 -16.394531 29.519531 -15.164062 28.46875 -13.875 C 27.425781 -12.59375 26.398438 -11.382812 25.390625 -10.25 C 24.390625 -9.125 23.648438 -8.320312 23.171875 -7.84375 C 22.203125 -6.875 21.050781 -5.722656 19.71875 -4.390625 C 18.394531 -3.066406 16.925781 -1.921875 15.3125 -0.953125 C 13.707031 0.00390625 11.941406 0.484375 10.015625 0.484375 Z M 6.15625 -47.4375 C 6.15625 -48.800781 6.515625 -49.984375 7.234375 -50.984375 C 7.960938 -51.992188 8.769531 -52.5 9.65625 -52.5 C 10.625 -52.5 11.425781 -51.894531 12.0625 -50.6875 C 13.195312 -48.4375 13.335938 -46.6875 12.484375 -45.4375 C 11.640625 -44.1875 10.613281 -43.5625 9.40625 -43.5625 C 8.601562 -43.5625 7.859375 -43.882812 7.171875 -44.53125 C 6.492188 -45.175781 6.15625 -46.144531 6.15625 -47.4375 Z M 6.15625 -47.4375 "/></g></g></g><g fill="#504081" fill-opacity="1"><g transform="translate(218.155785, 118.813975)"><g><path d="M 6.390625 -9.78125 C 4.703125 -9.78125 3.515625 -10.625 2.828125 -12.3125 C 2.148438 -14 1.847656 -16.085938 1.921875 -18.578125 C 2.003906 -21.078125 2.328125 -23.570312 2.890625 -26.0625 C 3.453125 -28.5625 4.15625 -30.65625 5 -32.34375 C 5.851562 -34.03125 6.722656 -34.875 7.609375 -34.875 C 9.128906 -34.875 10.03125 -34.53125 10.3125 -33.84375 C 10.59375 -33.164062 10.53125 -32.101562 10.125 -30.65625 C 9.726562 -29.207031 9.269531 -27.375 8.75 -25.15625 C 8.226562 -22.945312 7.96875 -20.316406 7.96875 -17.265625 C 8.125 -17.421875 8.242188 -17.535156 8.328125 -17.609375 C 8.410156 -17.691406 8.488281 -17.773438 8.5625 -17.859375 L 14.234375 -27.390625 C 14.722656 -28.203125 15.390625 -29.269531 16.234375 -30.59375 C 17.078125 -31.914062 18 -33.117188 19 -34.203125 C 20.007812 -35.296875 21 -35.84375 21.96875 -35.84375 C 23.8125 -35.84375 25.015625 -34.894531 25.578125 -33 C 26.148438 -31.113281 26.4375 -29.207031 26.4375 -27.28125 C 27.320312 -27.4375 28.40625 -28.175781 29.6875 -29.5 C 30.976562 -30.832031 32.144531 -31.984375 33.1875 -32.953125 C 33.75 -33.585938 34.25 -34.144531 34.6875 -34.625 C 35.132812 -35.113281 35.679688 -35.519531 36.328125 -35.84375 C 37.128906 -36.25 37.851562 -36.453125 38.5 -36.453125 C 39.300781 -36.453125 39.984375 -36.128906 40.546875 -35.484375 C 41.109375 -34.835938 41.429688 -33.648438 41.515625 -31.921875 C 41.597656 -30.191406 41.554688 -28.195312 41.390625 -25.9375 C 41.234375 -23.6875 41.050781 -21.4375 40.84375 -19.1875 C 40.644531 -16.9375 40.546875 -14.96875 40.546875 -13.28125 C 40.546875 -9.570312 40.847656 -6.972656 41.453125 -5.484375 C 42.054688 -4.003906 42.882812 -3.265625 43.9375 -3.265625 C 45.132812 -3.265625 46.476562 -4.066406 47.96875 -5.671875 C 49.457031 -7.285156 50.945312 -9.175781 52.4375 -11.34375 C 53.925781 -13.519531 55.191406 -15.492188 56.234375 -17.265625 C 56.796875 -18.140625 57.335938 -19.019531 57.859375 -19.90625 C 58.390625 -20.789062 59.296875 -21.234375 60.578125 -21.234375 C 60.828125 -21.234375 61.09375 -21.070312 61.375 -20.75 C 61.65625 -20.4375 61.796875 -20.078125 61.796875 -19.671875 C 61.796875 -19.191406 61.550781 -18.507812 61.0625 -17.625 C 60.582031 -16.738281 60.082031 -15.875 59.5625 -15.03125 C 59.039062 -14.1875 58.617188 -13.519531 58.296875 -13.03125 C 57.972656 -12.46875 57.6875 -11.984375 57.4375 -11.578125 C 57.195312 -11.179688 56.878906 -10.660156 56.484375 -10.015625 C 56.160156 -9.535156 55.835938 -9.113281 55.515625 -8.75 C 55.191406 -8.382812 54.832031 -7.878906 54.4375 -7.234375 C 52.90625 -4.984375 51.070312 -3.015625 48.9375 -1.328125 C 46.800781 0.359375 44.726562 1.203125 42.71875 1.203125 C 41.59375 1.203125 40.503906 0.835938 39.453125 0.109375 C 38.410156 -0.609375 37.570312 -1.851562 36.9375 -3.625 C 35.800781 -6.601562 35.253906 -9.738281 35.296875 -13.03125 C 35.335938 -16.332031 35.597656 -19.550781 36.078125 -22.6875 C 36.566406 -25.820312 36.8125 -28.554688 36.8125 -30.890625 C 36.007812 -30.328125 35.023438 -29.398438 33.859375 -28.109375 C 32.691406 -26.828125 31.503906 -25.644531 30.296875 -24.5625 C 29.085938 -23.476562 27.921875 -22.9375 26.796875 -22.9375 C 24.941406 -22.9375 23.671875 -23.816406 22.984375 -25.578125 C 22.304688 -27.347656 21.96875 -29.117188 21.96875 -30.890625 C 20.59375 -30.003906 19.28125 -28.4375 18.03125 -26.1875 C 16.789062 -23.9375 15.546875 -21.5625 14.296875 -19.0625 C 13.054688 -16.570312 11.8125 -14.421875 10.5625 -12.609375 C 9.3125 -10.796875 8.003906 -9.851562 6.640625 -9.78125 Z M 6.390625 -9.78125 "/></g></g></g><g fill="#504081" fill-opacity="1"><g transform="translate(274.517349, 118.813975)"><g/></g></g><g fill="#504081" fill-opacity="1"><g transform="translate(305.7757, 118.813975)"><g><path d="M 33.0625 55.75 C 34.914062 55.75 36.988281 55.125 39.28125 53.875 C 41.570312 52.632812 43.742188 51.171875 45.796875 49.484375 C 47.847656 47.796875 49.398438 46.226562 50.453125 44.78125 C 51.085938 43.96875 51.644531 43.257812 52.125 42.65625 C 52.613281 42.0625 53.140625 41.359375 53.703125 40.546875 C 54.109375 39.742188 54.550781 39 55.03125 38.3125 C 55.507812 37.632812 55.910156 36.890625 56.234375 36.078125 C 57.523438 33.585938 58.367188 31.414062 58.765625 29.5625 C 59.171875 27.71875 59.351562 25.890625 59.3125 24.078125 C 59.269531 22.265625 59.128906 20.234375 58.890625 17.984375 C 58.328125 18.140625 57.882812 18.359375 57.5625 18.640625 C 57.238281 18.921875 56.796875 19.265625 56.234375 19.671875 C 55.910156 19.992188 55.566406 20.273438 55.203125 20.515625 C 54.847656 20.753906 54.46875 21.035156 54.0625 21.359375 L 47.546875 27.15625 C 45.378906 29.164062 43.609375 30.789062 42.234375 32.03125 C 40.867188 33.28125 39.5625 34.585938 38.3125 35.953125 C 37.070312 37.328125 35.523438 39.265625 33.671875 41.765625 C 33.109375 42.484375 32.40625 43.484375 31.5625 44.765625 C 30.71875 46.054688 29.972656 47.425781 29.328125 48.875 C 28.679688 50.320312 28.359375 51.609375 28.359375 52.734375 C 28.359375 54.179688 28.660156 55.046875 29.265625 55.328125 C 29.867188 55.609375 30.894531 55.75 32.34375 55.75 C 32.5 55.75 32.640625 55.75 32.765625 55.75 C 32.890625 55.75 32.988281 55.75 33.0625 55.75 Z M 0 -14.359375 C 0 -18.703125 0.742188 -23.25 2.234375 -28 C 3.722656 -32.75 5.613281 -37.414062 7.90625 -42 C 10.195312 -46.582031 12.507812 -50.6875 14.84375 -54.3125 C 15.882812 -56.238281 17.226562 -58.304688 18.875 -60.515625 C 20.53125 -62.734375 22.265625 -64.925781 24.078125 -67.09375 C 25.890625 -69.269531 27.554688 -71.164062 29.078125 -72.78125 C 31.816406 -75.425781 34.59375 -77.851562 37.40625 -80.0625 C 40.226562 -82.28125 43.265625 -84.070312 46.515625 -85.4375 C 49.773438 -86.8125 53.378906 -87.5 57.328125 -87.5 C 61.191406 -87.257812 64.347656 -85.789062 66.796875 -83.09375 C 69.253906 -80.394531 71.085938 -77.070312 72.296875 -73.125 C 73.503906 -69.1875 74.109375 -65.128906 74.109375 -60.953125 C 74.109375 -56.203125 73.625 -51.375 72.65625 -46.46875 C 71.6875 -41.5625 70.640625 -36.972656 69.515625 -32.703125 C 69.109375 -30.859375 68.679688 -29.226562 68.234375 -27.8125 C 67.796875 -26.40625 66.894531 -25.703125 65.53125 -25.703125 C 64.5625 -25.703125 64.035156 -26.425781 63.953125 -27.875 C 63.878906 -29.320312 64.023438 -31.070312 64.390625 -33.125 C 64.753906 -35.175781 65.15625 -37.085938 65.59375 -38.859375 C 66.03125 -40.628906 66.332031 -41.796875 66.5 -42.359375 C 67.0625 -45.816406 67.5625 -49.535156 68 -53.515625 C 68.445312 -57.503906 68.507812 -61.46875 68.1875 -65.40625 C 67.863281 -69.351562 66.859375 -72.9375 65.171875 -76.15625 C 63.960938 -78.488281 62.515625 -80.113281 60.828125 -81.03125 C 59.140625 -81.957031 57.328125 -82.421875 55.390625 -82.421875 C 53.703125 -82.421875 51.992188 -82.117188 50.265625 -81.515625 C 48.535156 -80.921875 46.863281 -80.179688 45.25 -79.296875 C 44.125 -78.566406 42.859375 -77.738281 41.453125 -76.8125 C 40.046875 -75.882812 38.859375 -74.941406 37.890625 -73.984375 C 37.328125 -73.421875 36.785156 -72.957031 36.265625 -72.59375 C 35.742188 -72.226562 35.203125 -71.722656 34.640625 -71.078125 L 20.390625 -54.0625 C 18.785156 -51.570312 17.519531 -49.5 16.59375 -47.84375 C 15.664062 -46.195312 14.640625 -44.328125 13.515625 -42.234375 C 12.390625 -40.460938 11.222656 -38.191406 10.015625 -35.421875 C 8.804688 -32.648438 7.757812 -29.832031 6.875 -26.96875 C 5.988281 -24.113281 5.347656 -21.679688 4.953125 -19.671875 C 4.710938 -17.816406 4.550781 -16.003906 4.46875 -14.234375 C 4.382812 -12.472656 4.625 -10.707031 5.1875 -8.9375 C 5.988281 -6.914062 7.472656 -5.484375 9.640625 -4.640625 C 11.816406 -3.796875 14.234375 -3.289062 16.890625 -3.125 C 19.546875 -2.96875 21.960938 -2.851562 24.140625 -2.78125 C 27.035156 -2.613281 29.648438 -2.507812 31.984375 -2.46875 C 34.316406 -2.425781 36.648438 -2.285156 38.984375 -2.046875 C 41.316406 -1.804688 43.890625 -1.203125 46.703125 -0.234375 C 48.316406 0.242188 50.109375 1.046875 52.078125 2.171875 C 54.046875 3.296875 55.832031 4.625 57.4375 6.15625 C 59.050781 7.6875 60.0625 9.296875 60.46875 10.984375 C 62.238281 9.773438 64.289062 8.222656 66.625 6.328125 C 68.957031 4.441406 71.304688 2.492188 73.671875 0.484375 C 76.046875 -1.523438 78.117188 -3.253906 79.890625 -4.703125 L 89.1875 -12.90625 C 89.988281 -13.71875 90.75 -14.40625 91.46875 -14.96875 C 92.195312 -15.53125 92.96875 -16.210938 93.78125 -17.015625 C 95.144531 -18.460938 96.164062 -19.425781 96.84375 -19.90625 C 97.53125 -20.394531 98.117188 -20.640625 98.609375 -20.640625 C 98.921875 -20.640625 99.195312 -20.597656 99.4375 -20.515625 C 99.6875 -20.429688 99.972656 -20.351562 100.296875 -20.28125 C 100.296875 -19.46875 100.375 -18.976562 100.53125 -18.8125 C 100.695312 -18.65625 100.757812 -18.515625 100.71875 -18.390625 C 100.675781 -18.273438 100.390625 -17.992188 99.859375 -17.546875 C 99.335938 -17.109375 98.394531 -16.207031 97.03125 -14.84375 C 94.375 -12.269531 91.9375 -10.015625 89.71875 -8.078125 C 87.507812 -6.148438 85.160156 -3.976562 82.671875 -1.5625 L 74.953125 4.703125 C 74.304688 5.191406 73.359375 5.9375 72.109375 6.9375 C 70.859375 7.945312 69.53125 9.015625 68.125 10.140625 C 66.71875 11.265625 65.46875 12.289062 64.375 13.21875 C 63.289062 14.144531 62.628906 14.804688 62.390625 15.203125 C 62.710938 16.492188 62.992188 17.800781 63.234375 19.125 C 63.484375 20.457031 63.609375 21.882812 63.609375 23.40625 C 63.609375 27.675781 62.617188 31.941406 60.640625 36.203125 C 58.671875 40.472656 56.132812 44.394531 53.03125 47.96875 C 49.9375 51.550781 46.660156 54.40625 43.203125 56.53125 C 39.742188 58.664062 36.523438 59.734375 33.546875 59.734375 C 32.421875 59.734375 31.15625 59.613281 29.75 59.375 C 28.34375 59.132812 27.113281 58.628906 26.0625 57.859375 C 25.019531 57.097656 24.5 55.875 24.5 54.1875 C 24.5 51.207031 25 48.628906 26 46.453125 C 27.007812 44.285156 28.398438 41.992188 30.171875 39.578125 C 32.828125 35.878906 35.601562 32.660156 38.5 29.921875 C 41.394531 27.191406 44.453125 24.421875 47.671875 21.609375 L 57.328125 13.640625 C 55.148438 9.535156 52.410156 6.695312 49.109375 5.125 C 45.816406 3.5625 41.796875 2.5 37.046875 1.9375 L 27.28125 1.203125 C 23.5 1.128906 19.976562 1.050781 16.71875 0.96875 C 13.457031 0.882812 10.457031 0.320312 7.71875 -0.71875 C 5.144531 -1.6875 3.210938 -3.335938 1.921875 -5.671875 C 0.640625 -8.003906 0 -10.898438 0 -14.359375 Z M 0 -14.359375 "/></g></g></g><g fill="#504081" fill-opacity="1"><g transform="translate(401.843809, 118.813975)"><g><path d="M 0.125 -14.71875 C 0.125 -16.488281 0.382812 -18.457031 0.90625 -20.625 C 1.425781 -22.800781 2.109375 -24.914062 2.953125 -26.96875 C 3.796875 -29.019531 4.703125 -30.691406 5.671875 -31.984375 C 6.554688 -32.953125 7.441406 -33.4375 8.328125 -33.4375 C 9.046875 -33.4375 9.769531 -33.234375 10.5 -32.828125 C 10.582031 -32.421875 10.679688 -32.132812 10.796875 -31.96875 C 10.921875 -31.8125 10.984375 -31.453125 10.984375 -30.890625 C 10.984375 -30.816406 10.617188 -30.054688 9.890625 -28.609375 C 9.171875 -27.160156 8.390625 -25.347656 7.546875 -23.171875 C 6.703125 -20.992188 6.015625 -18.695312 5.484375 -16.28125 C 4.960938 -13.875 4.945312 -11.664062 5.4375 -9.65625 C 6.394531 -9.976562 7.234375 -10.597656 7.953125 -11.515625 C 8.679688 -12.441406 9.328125 -13.3125 9.890625 -14.125 L 17.140625 -24.734375 C 17.941406 -25.867188 18.625 -26.859375 19.1875 -27.703125 C 19.75 -28.546875 20.59375 -28.96875 21.71875 -28.96875 C 22.84375 -28.96875 23.503906 -28.257812 23.703125 -26.84375 C 23.910156 -25.4375 23.953125 -23.847656 23.828125 -22.078125 C 23.710938 -20.316406 23.695312 -18.910156 23.78125 -17.859375 C 24.175781 -14.960938 24.796875 -12.929688 25.640625 -11.765625 C 26.484375 -10.597656 27.472656 -10.015625 28.609375 -10.015625 C 29.972656 -10.015625 31.414062 -10.578125 32.9375 -11.703125 C 34.46875 -12.828125 36 -14.132812 37.53125 -15.625 C 39.0625 -17.113281 40.410156 -18.421875 41.578125 -19.546875 C 42.742188 -20.671875 43.609375 -21.234375 44.171875 -21.234375 C 44.648438 -21.234375 45.09375 -21.132812 45.5 -20.9375 C 45.90625 -20.738281 46.109375 -20.316406 46.109375 -19.671875 C 46.109375 -19.023438 45.625 -18.160156 44.65625 -17.078125 C 43.6875 -15.992188 42.640625 -14.945312 41.515625 -13.9375 C 40.390625 -12.9375 39.585938 -12.191406 39.109375 -11.703125 C 37.492188 -10.171875 35.738281 -8.863281 33.84375 -7.78125 C 31.957031 -6.695312 30.085938 -6.15625 28.234375 -6.15625 C 26.222656 -6.15625 24.65625 -6.695312 23.53125 -7.78125 C 22.40625 -8.863281 21.582031 -10.226562 21.0625 -11.875 C 20.539062 -13.53125 20.195312 -15.265625 20.03125 -17.078125 C 19.875 -18.890625 19.796875 -20.519531 19.796875 -21.96875 C 19.304688 -21.644531 18.71875 -20.9375 18.03125 -19.84375 C 17.351562 -18.757812 16.8125 -17.898438 16.40625 -17.265625 C 15.925781 -16.453125 15.242188 -15.34375 14.359375 -13.9375 C 13.472656 -12.53125 12.488281 -11.125 11.40625 -9.71875 C 10.320312 -8.3125 9.234375 -7.125 8.140625 -6.15625 C 7.054688 -5.1875 6.03125 -4.703125 5.0625 -4.703125 C 3.21875 -4.703125 1.953125 -5.242188 1.265625 -6.328125 C 0.578125 -7.421875 0.210938 -8.75 0.171875 -10.3125 C 0.140625 -11.882812 0.125 -13.351562 0.125 -14.71875 Z M 0.125 -14.71875 "/></g></g></g><g fill="#504081" fill-opacity="1"><g transform="translate(442.636532, 118.813975)"><g><path d="M 0 -16.53125 C 0 -17.976562 0.300781 -19.664062 0.90625 -21.59375 C 1.507812 -23.53125 2.351562 -25.421875 3.4375 -27.265625 C 4.519531 -29.117188 5.804688 -30.671875 7.296875 -31.921875 C 8.785156 -33.171875 10.414062 -33.796875 12.1875 -33.796875 C 14.757812 -33.796875 16.046875 -32.1875 16.046875 -28.96875 C 16.046875 -26.875 15.523438 -25.828125 14.484375 -25.828125 C 13.273438 -25.828125 12.550781 -26.875 12.3125 -28.96875 C 10.945312 -28 9.640625 -26.347656 8.390625 -24.015625 C 7.140625 -21.679688 6.3125 -19.1875 5.90625 -16.53125 C 5.507812 -13.875 5.796875 -11.539062 6.765625 -9.53125 C 7.160156 -8.488281 7.738281 -7.601562 8.5 -6.875 C 9.269531 -6.15625 10.378906 -5.796875 11.828125 -5.796875 C 14.640625 -5.796875 17.234375 -6.578125 19.609375 -8.140625 C 21.984375 -9.710938 24.15625 -11.601562 26.125 -13.8125 C 28.09375 -16.03125 29.804688 -18.144531 31.265625 -20.15625 C 32.140625 -21.363281 32.941406 -21.96875 33.671875 -21.96875 C 34.234375 -21.96875 34.632812 -21.6875 34.875 -21.125 C 35.113281 -20.5625 35.035156 -19.875 34.640625 -19.0625 C 34.472656 -18.664062 34.207031 -18.222656 33.84375 -17.734375 C 33.488281 -17.253906 33.148438 -16.8125 32.828125 -16.40625 C 31.140625 -14.320312 29.207031 -12.148438 27.03125 -9.890625 C 24.863281 -7.640625 22.488281 -5.726562 19.90625 -4.15625 C 17.332031 -2.59375 14.597656 -1.8125 11.703125 -1.8125 C 8.972656 -1.8125 6.738281 -2.515625 5 -3.921875 C 3.269531 -5.328125 2.003906 -7.15625 1.203125 -9.40625 C 0.398438 -11.664062 0 -14.039062 0 -16.53125 Z M 0 -16.53125 "/></g></g></g><g fill="#504081" fill-opacity="1"><g transform="translate(471.843165, 118.813975)"><g><path d="M 0 -16.53125 C 0 -17.976562 0.300781 -19.664062 0.90625 -21.59375 C 1.507812 -23.53125 2.351562 -25.421875 3.4375 -27.265625 C 4.519531 -29.117188 5.804688 -30.671875 7.296875 -31.921875 C 8.785156 -33.171875 10.414062 -33.796875 12.1875 -33.796875 C 14.757812 -33.796875 16.046875 -32.1875 16.046875 -28.96875 C 16.046875 -26.875 15.523438 -25.828125 14.484375 -25.828125 C 13.273438 -25.828125 12.550781 -26.875 12.3125 -28.96875 C 10.945312 -28 9.640625 -26.347656 8.390625 -24.015625 C 7.140625 -21.679688 6.3125 -19.1875 5.90625 -16.53125 C 5.507812 -13.875 5.796875 -11.539062 6.765625 -9.53125 C 7.160156 -8.488281 7.738281 -7.601562 8.5 -6.875 C 9.269531 -6.15625 10.378906 -5.796875 11.828125 -5.796875 C 14.640625 -5.796875 17.234375 -6.578125 19.609375 -8.140625 C 21.984375 -9.710938 24.15625 -11.601562 26.125 -13.8125 C 28.09375 -16.03125 29.804688 -18.144531 31.265625 -20.15625 C 32.140625 -21.363281 32.941406 -21.96875 33.671875 -21.96875 C 34.234375 -21.96875 34.632812 -21.6875 34.875 -21.125 C 35.113281 -20.5625 35.035156 -19.875 34.640625 -19.0625 C 34.472656 -18.664062 34.207031 -18.222656 33.84375 -17.734375 C 33.488281 -17.253906 33.148438 -16.8125 32.828125 -16.40625 C 31.140625 -14.320312 29.207031 -12.148438 27.03125 -9.890625 C 24.863281 -7.640625 22.488281 -5.726562 19.90625 -4.15625 C 17.332031 -2.59375 14.597656 -1.8125 11.703125 -1.8125 C 8.972656 -1.8125 6.738281 -2.515625 5 -3.921875 C 3.269531 -5.328125 2.003906 -7.15625 1.203125 -9.40625 C 0.398438 -11.664062 0 -14.039062 0 -16.53125 Z M 0 -16.53125 "/></g></g></g><g fill="#504081" fill-opacity="1"><g transform="translate(501.049797, 118.813975)"><g><path d="M 5.546875 -21.84375 C 7.078125 -22.644531 8.765625 -23.75 10.609375 -25.15625 C 12.460938 -26.570312 13.472656 -28.242188 13.640625 -30.171875 C 12.585938 -30.015625 11.476562 -29.453125 10.3125 -28.484375 C 9.144531 -27.515625 8.140625 -26.425781 7.296875 -25.21875 C 6.453125 -24.007812 5.867188 -22.882812 5.546875 -21.84375 Z M 0.125 -18.953125 C 0.125 -20.960938 0.785156 -23.132812 2.109375 -25.46875 C 3.441406 -27.800781 5.09375 -29.789062 7.0625 -31.4375 C 9.03125 -33.082031 10.976562 -33.90625 12.90625 -33.90625 C 15.5625 -33.90625 16.953125 -32.898438 17.078125 -30.890625 C 17.203125 -28.878906 16.335938 -26.707031 14.484375 -24.375 C 13.515625 -23.332031 12.0625 -22.125 10.125 -20.75 C 8.195312 -19.382812 6.3125 -18.625 4.46875 -18.46875 C 4.46875 -17.175781 4.503906 -16.023438 4.578125 -15.015625 C 4.660156 -14.015625 5.226562 -12.992188 6.28125 -11.953125 C 7.320312 -10.898438 8.648438 -10.375 10.265625 -10.375 C 12.347656 -10.375 14.515625 -11.035156 16.765625 -12.359375 C 19.023438 -13.691406 20.757812 -14.800781 21.96875 -15.6875 C 22.445312 -16.09375 22.828125 -16.414062 23.109375 -16.65625 C 23.390625 -16.894531 23.734375 -17.175781 24.140625 -17.5 C 25.828125 -18.789062 26.890625 -19.734375 27.328125 -20.328125 C 27.773438 -20.929688 28.160156 -21.332031 28.484375 -21.53125 C 28.804688 -21.738281 29.570312 -21.84375 30.78125 -21.84375 C 30.9375 -20.957031 30.992188 -20.351562 30.953125 -20.03125 C 30.910156 -19.707031 30.609375 -19.222656 30.046875 -18.578125 C 28.597656 -17.128906 26.765625 -15.476562 24.546875 -13.625 C 22.335938 -11.78125 19.96875 -10.175781 17.4375 -8.8125 C 14.90625 -7.445312 12.390625 -6.765625 9.890625 -6.765625 C 8.609375 -6.765625 7.382812 -6.984375 6.21875 -7.421875 C 5.050781 -7.867188 3.941406 -8.613281 2.890625 -9.65625 C 1.441406 -11.101562 0.617188 -12.585938 0.421875 -14.109375 C 0.222656 -15.640625 0.125 -17.253906 0.125 -18.953125 Z M 0.125 -18.953125 "/></g></g></g><g fill="#504081" fill-opacity="1"><g transform="translate(527.239221, 118.813975)"><g><path d="M 1.453125 19.90625 C 1.453125 21.601562 1.972656 22.453125 3.015625 22.453125 C 3.578125 22.453125 4.179688 22.25 4.828125 21.84375 C 5.472656 21.4375 5.992188 21.078125 6.390625 20.765625 C 8.003906 19.554688 9.429688 17.722656 10.671875 15.265625 C 11.921875 12.816406 12.828125 10.582031 13.390625 8.5625 C 13.796875 7.195312 14.019531 5.8125 14.0625 4.40625 C 14.101562 3 14.125 1.453125 14.125 -0.234375 C 13.15625 0.328125 12.046875 1.3125 10.796875 2.71875 C 9.554688 4.125 8.570312 5.269531 7.84375 6.15625 C 6.394531 7.925781 4.96875 10.054688 3.5625 12.546875 C 2.15625 15.046875 1.453125 17.5 1.453125 19.90625 Z M 0.359375 -19.546875 C 0.359375 -21.640625 0.921875 -23.507812 2.046875 -25.15625 C 3.171875 -26.8125 4.519531 -28.140625 6.09375 -29.140625 C 7.664062 -30.148438 9.015625 -30.65625 10.140625 -30.65625 C 11.023438 -30.65625 11.6875 -30.332031 12.125 -29.6875 C 12.570312 -29.039062 12.59375 -27.957031 12.1875 -26.4375 C 11.21875 -26.1875 10.53125 -26.039062 10.125 -26 C 9.726562 -25.96875 9.410156 -25.847656 9.171875 -25.640625 C 8.929688 -25.441406 8.488281 -24.984375 7.84375 -24.265625 C 6.238281 -22.492188 5.492188 -21.0625 5.609375 -19.96875 C 5.734375 -18.882812 6.378906 -17.878906 7.546875 -16.953125 C 8.710938 -16.023438 10.160156 -14.878906 11.890625 -13.515625 C 13.617188 -12.148438 15.25 -10.300781 16.78125 -7.96875 C 18.550781 -9.175781 20.359375 -10.582031 22.203125 -12.1875 L 33.4375 -20.03125 C 34.476562 -20.757812 35.378906 -21.265625 36.140625 -21.546875 C 36.910156 -21.828125 37.578125 -21.96875 38.140625 -21.96875 C 39.097656 -21.96875 39.5 -21.5625 39.34375 -20.75 C 39.1875 -19.945312 38.421875 -19.144531 37.046875 -18.34375 L 28.84375 -12.671875 C 28.519531 -12.515625 27.832031 -12.050781 26.78125 -11.28125 C 25.738281 -10.519531 24.59375 -9.675781 23.34375 -8.75 C 22.101562 -7.820312 21.039062 -6.957031 20.15625 -6.15625 C 19.269531 -5.351562 18.785156 -4.832031 18.703125 -4.59375 C 18.617188 -4.1875 18.738281 -3.421875 19.0625 -2.296875 C 19.382812 -1.171875 19.601562 0.296875 19.71875 2.109375 C 19.84375 3.921875 19.601562 6.132812 19 8.75 C 18.40625 11.363281 17.097656 14.398438 15.078125 17.859375 C 13.316406 20.835938 11.390625 23.03125 9.296875 24.4375 C 7.203125 25.84375 5.226562 26.546875 3.375 26.546875 C 1.6875 26.546875 0.300781 25.984375 -0.78125 24.859375 C -1.863281 23.734375 -2.40625 22.082031 -2.40625 19.90625 C -2.40625 17.175781 -1.742188 14.523438 -0.421875 11.953125 C 0.898438 9.378906 2.488281 7.003906 4.34375 4.828125 C 6.195312 2.648438 7.90625 0.78125 9.46875 -0.78125 C 11.039062 -2.351562 12.066406 -3.5 12.546875 -4.21875 C 11.585938 -5.914062 10.421875 -7.382812 9.046875 -8.625 C 7.679688 -9.875 6.332031 -11.019531 5 -12.0625 C 3.675781 -13.113281 2.570312 -14.222656 1.6875 -15.390625 C 0.800781 -16.554688 0.359375 -17.941406 0.359375 -19.546875 Z M 0.359375 -19.546875 "/></g></g></g><g fill="#504081" fill-opacity="1"><g transform="translate(562.11823, 118.813975)"><g><path d="M 1.453125 19.90625 C 1.453125 21.601562 1.972656 22.453125 3.015625 22.453125 C 3.578125 22.453125 4.179688 22.25 4.828125 21.84375 C 5.472656 21.4375 5.992188 21.078125 6.390625 20.765625 C 8.003906 19.554688 9.429688 17.722656 10.671875 15.265625 C 11.921875 12.816406 12.828125 10.582031 13.390625 8.5625 C 13.796875 7.195312 14.019531 5.8125 14.0625 4.40625 C 14.101562 3 14.125 1.453125 14.125 -0.234375 C 13.15625 0.328125 12.046875 1.3125 10.796875 2.71875 C 9.554688 4.125 8.570312 5.269531 7.84375 6.15625 C 6.394531 7.925781 4.96875 10.054688 3.5625 12.546875 C 2.15625 15.046875 1.453125 17.5 1.453125 19.90625 Z M 0.359375 -19.546875 C 0.359375 -21.640625 0.921875 -23.507812 2.046875 -25.15625 C 3.171875 -26.8125 4.519531 -28.140625 6.09375 -29.140625 C 7.664062 -30.148438 9.015625 -30.65625 10.140625 -30.65625 C 11.023438 -30.65625 11.6875 -30.332031 12.125 -29.6875 C 12.570312 -29.039062 12.59375 -27.957031 12.1875 -26.4375 C 11.21875 -26.1875 10.53125 -26.039062 10.125 -26 C 9.726562 -25.96875 9.410156 -25.847656 9.171875 -25.640625 C 8.929688 -25.441406 8.488281 -24.984375 7.84375 -24.265625 C 6.238281 -22.492188 5.492188 -21.0625 5.609375 -19.96875 C 5.734375 -18.882812 6.378906 -17.878906 7.546875 -16.953125 C 8.710938 -16.023438 10.160156 -14.878906 11.890625 -13.515625 C 13.617188 -12.148438 15.25 -10.300781 16.78125 -7.96875 C 18.550781 -9.175781 20.359375 -10.582031 22.203125 -12.1875 L 33.4375 -20.03125 C 34.476562 -20.757812 35.378906 -21.265625 36.140625 -21.546875 C 36.910156 -21.828125 37.578125 -21.96875 38.140625 -21.96875 C 39.097656 -21.96875 39.5 -21.5625 39.34375 -20.75 C 39.1875 -19.945312 38.421875 -19.144531 37.046875 -18.34375 L 28.84375 -12.671875 C 28.519531 -12.515625 27.832031 -12.050781 26.78125 -11.28125 C 25.738281 -10.519531 24.59375 -9.675781 23.34375 -8.75 C 22.101562 -7.820312 21.039062 -6.957031 20.15625 -6.15625 C 19.269531 -5.351562 18.785156 -4.832031 18.703125 -4.59375 C 18.617188 -4.1875 18.738281 -3.421875 19.0625 -2.296875 C 19.382812 -1.171875 19.601562 0.296875 19.71875 2.109375 C 19.84375 3.921875 19.601562 6.132812 19 8.75 C 18.40625 11.363281 17.097656 14.398438 15.078125 17.859375 C 13.316406 20.835938 11.390625 23.03125 9.296875 24.4375 C 7.203125 25.84375 5.226562 26.546875 3.375 26.546875 C 1.6875 26.546875 0.300781 25.984375 -0.78125 24.859375 C -1.863281 23.734375 -2.40625 22.082031 -2.40625 19.90625 C -2.40625 17.175781 -1.742188 14.523438 -0.421875 11.953125 C 0.898438 9.378906 2.488281 7.003906 4.34375 4.828125 C 6.195312 2.648438 7.90625 0.78125 9.46875 -0.78125 C 11.039062 -2.351562 12.066406 -3.5 12.546875 -4.21875 C 11.585938 -5.914062 10.421875 -7.382812 9.046875 -8.625 C 7.679688 -9.875 6.332031 -11.019531 5 -12.0625 C 3.675781 -13.113281 2.570312 -14.222656 1.6875 -15.390625 C 0.800781 -16.554688 0.359375 -17.941406 0.359375 -19.546875 Z M 0.359375 -19.546875 "/></g></g></g><g fill="#504081" fill-opacity="1"><g transform="translate(596.997205, 118.813975)"><g/></g></g><g fill="#504081" fill-opacity="1"><g transform="translate(628.255556, 118.813975)"><g><path d="M 32.21875 11.953125 C 37.613281 11.953125 42.765625 10.765625 47.671875 8.390625 C 52.578125 6.015625 57.082031 3 61.1875 -0.65625 C 65.289062 -4.320312 68.75 -8.085938 71.5625 -11.953125 C 74.863281 -16.210938 77.757812 -20.9375 80.25 -26.125 C 82.75 -31.3125 84.703125 -36.703125 86.109375 -42.296875 C 87.515625 -47.890625 88.21875 -53.34375 88.21875 -58.65625 C 88.21875 -63.082031 87.59375 -67.164062 86.34375 -70.90625 C 85.101562 -74.644531 83.296875 -77.640625 80.921875 -79.890625 C 78.546875 -82.148438 75.671875 -83.28125 72.296875 -83.28125 C 68.585938 -83.28125 65.125 -82.171875 61.90625 -79.953125 C 58.6875 -77.742188 55.726562 -74.90625 53.03125 -71.4375 C 50.34375 -67.976562 48.007812 -64.398438 46.03125 -60.703125 C 44.0625 -57.003906 42.515625 -53.707031 41.390625 -50.8125 L 36.6875 -38.265625 C 35.238281 -33.910156 33.828125 -29.378906 32.453125 -24.671875 C 31.085938 -19.972656 29.960938 -15.453125 29.078125 -11.109375 C 28.921875 -10.054688 28.640625 -8.503906 28.234375 -6.453125 C 27.835938 -4.398438 27.414062 -2.226562 26.96875 0.0625 C 26.53125 2.351562 26.171875 4.484375 25.890625 6.453125 C 25.609375 8.421875 25.46875 9.847656 25.46875 10.734375 C 26.113281 11.054688 27.140625 11.335938 28.546875 11.578125 C 29.953125 11.828125 31.175781 11.953125 32.21875 11.953125 Z M 25.46875 -13.28125 C 25.46875 -13.351562 25.484375 -13.390625 25.515625 -13.390625 C 25.554688 -13.390625 25.578125 -13.429688 25.578125 -13.515625 L 27.03125 -19.3125 C 28.082031 -23.65625 29.429688 -28.519531 31.078125 -33.90625 C 32.722656 -39.300781 34.628906 -44.710938 36.796875 -50.140625 C 38.972656 -55.578125 41.410156 -60.664062 44.109375 -65.40625 C 46.804688 -70.15625 49.679688 -74.0625 52.734375 -77.125 C 55.628906 -80.019531 58.585938 -82.472656 61.609375 -84.484375 C 64.628906 -86.492188 68.269531 -87.5 72.53125 -87.5 C 75.832031 -87.5 78.8125 -86.671875 81.46875 -85.015625 C 84.125 -83.367188 86.375 -81.097656 88.21875 -78.203125 C 90.394531 -74.742188 91.84375 -70.941406 92.5625 -66.796875 C 93.289062 -62.648438 93.453125 -58.382812 93.046875 -54 C 92.648438 -49.625 91.925781 -45.34375 90.875 -41.15625 C 89.832031 -36.96875 88.664062 -33.1875 87.375 -29.8125 C 85.445312 -24.5 82.628906 -19.125 78.921875 -13.6875 C 75.222656 -8.257812 70.941406 -3.253906 66.078125 1.328125 C 61.210938 5.910156 55.921875 9.585938 50.203125 12.359375 C 44.492188 15.140625 38.617188 16.53125 32.578125 16.53125 C 30.648438 16.53125 29.101562 16.347656 27.9375 15.984375 C 26.769531 15.628906 25.625 15.410156 24.5 15.328125 L 22.8125 35 C 22.644531 35.96875 22.519531 37.554688 22.4375 39.765625 C 22.363281 41.972656 22.285156 44.179688 22.203125 46.390625 C 22.117188 48.609375 22 50.320312 21.84375 51.53125 C 21.6875 53.46875 21.566406 55.316406 21.484375 57.078125 C 21.398438 58.847656 21.21875 60.296875 20.9375 61.421875 C 20.65625 62.554688 19.992188 63.125 18.953125 63.125 C 18.304688 63.125 17.660156 62.960938 17.015625 62.640625 C 16.691406 61.429688 16.507812 59.359375 16.46875 56.421875 C 16.425781 53.484375 16.445312 50.285156 16.53125 46.828125 C 16.613281 43.367188 16.710938 40.109375 16.828125 37.046875 C 16.953125 33.992188 17.015625 31.703125 17.015625 30.171875 C 17.015625 28.398438 17.070312 26.828125 17.1875 25.453125 C 17.3125 24.085938 17.375 22.644531 17.375 21.125 C 17.375 19.269531 17.414062 17.738281 17.5 16.53125 C 17.582031 15.320312 17.625 13.914062 17.625 12.3125 C 17.21875 11.90625 16.753906 11.539062 16.234375 11.21875 C 15.710938 10.894531 15.207031 10.578125 14.71875 10.265625 C 13.269531 9.210938 12.585938 8.160156 12.671875 7.109375 C 12.753906 6.066406 13.238281 5.546875 14.125 5.546875 C 14.6875 5.546875 15.164062 5.707031 15.5625 6.03125 C 16.125 6.351562 16.566406 6.632812 16.890625 6.875 C 17.210938 7.113281 17.457031 7.234375 17.625 7.234375 C 17.945312 7.234375 18.085938 6.789062 18.046875 5.90625 C 18.003906 5.03125 18.023438 3.460938 18.109375 1.203125 C 18.109375 0.160156 18.164062 -0.554688 18.28125 -0.953125 C 18.40625 -1.359375 18.46875 -2.046875 18.46875 -3.015625 C 18.539062 -3.816406 18.554688 -4.640625 18.515625 -5.484375 C 18.484375 -6.335938 18.503906 -7.164062 18.578125 -7.96875 C 18.660156 -8.851562 18.742188 -9.578125 18.828125 -10.140625 C 18.910156 -10.703125 18.953125 -11.503906 18.953125 -12.546875 C 18.953125 -15.046875 19.03125 -17.984375 19.1875 -21.359375 C 19.351562 -24.742188 19.535156 -28.125 19.734375 -31.5 C 19.929688 -34.875 20.03125 -37.851562 20.03125 -40.4375 C 20.03125 -42.039062 20.085938 -44.191406 20.203125 -46.890625 C 20.328125 -49.585938 20.390625 -52.441406 20.390625 -55.453125 C 20.390625 -58.472656 20.304688 -61.289062 20.140625 -63.90625 C 19.984375 -66.519531 19.585938 -68.46875 18.953125 -69.75 C 18.066406 -69.1875 17.21875 -68.203125 16.40625 -66.796875 C 15.601562 -65.390625 14.859375 -63.878906 14.171875 -62.265625 C 13.492188 -60.660156 12.914062 -59.253906 12.4375 -58.046875 C 11.707031 -56.035156 11.0625 -53.640625 10.5 -50.859375 C 9.9375 -48.085938 9.453125 -45.65625 9.046875 -43.5625 C 8.722656 -40.832031 8.625 -38.035156 8.75 -35.171875 C 8.875 -32.316406 9.132812 -29.6875 9.53125 -27.28125 C 10.09375 -24.539062 10.695312 -22.625 11.34375 -21.53125 C 11.988281 -20.445312 12.59375 -19.742188 13.15625 -19.421875 C 13.71875 -19.109375 14.078125 -18.707031 14.234375 -18.21875 C 14.640625 -17.65625 14.679688 -17.132812 14.359375 -16.65625 C 14.035156 -16.175781 13.550781 -15.9375 12.90625 -15.9375 C 12.1875 -15.9375 11.320312 -16.335938 10.3125 -17.140625 C 9.3125 -17.941406 8.367188 -19.347656 7.484375 -21.359375 C 6.597656 -23.773438 6.035156 -25.882812 5.796875 -27.6875 C 5.554688 -29.5 5.273438 -31.65625 4.953125 -34.15625 C 4.867188 -34.957031 4.882812 -35.617188 5 -36.140625 C 5.125 -36.671875 5.1875 -37.457031 5.1875 -38.5 C 5.1875 -42.925781 5.648438 -47.226562 6.578125 -51.40625 C 7.503906 -55.59375 8.734375 -59.617188 10.265625 -63.484375 C 10.742188 -64.609375 11.40625 -66.054688 12.25 -67.828125 C 13.09375 -69.597656 14.097656 -71.1875 15.265625 -72.59375 C 16.429688 -74 17.660156 -74.703125 18.953125 -74.703125 C 20.640625 -74.703125 21.960938 -73.976562 22.921875 -72.53125 C 23.890625 -71.082031 24.59375 -69.25 25.03125 -67.03125 C 25.476562 -64.820312 25.757812 -62.488281 25.875 -60.03125 C 26 -57.582031 26.0625 -55.351562 26.0625 -53.34375 C 26.0625 -46.425781 25.960938 -39.628906 25.765625 -32.953125 C 25.566406 -26.273438 25.46875 -19.71875 25.46875 -13.28125 Z M 25.46875 -13.28125 "/></g></g></g><g fill="#504081" fill-opacity="1"><g transform="translate(721.789203, 118.813975)"><g><path d="M 0 -12.1875 C 0 -13.875 0.398438 -15.960938 1.203125 -18.453125 C 2.003906 -20.953125 3.128906 -23.425781 4.578125 -25.875 C 6.035156 -28.332031 7.707031 -30.363281 9.59375 -31.96875 C 11.488281 -33.582031 13.476562 -34.390625 15.5625 -34.390625 C 17.5 -34.390625 19.066406 -33.828125 20.265625 -32.703125 C 21.472656 -31.578125 22.195312 -30.429688 22.4375 -29.265625 C 22.6875 -28.097656 22.285156 -27.515625 21.234375 -27.515625 C 20.429688 -27.515625 19.609375 -27.976562 18.765625 -28.90625 C 17.921875 -29.832031 16.9375 -30.296875 15.8125 -30.296875 C 14.925781 -30.296875 13.859375 -29.769531 12.609375 -28.71875 C 11.359375 -27.675781 9.851562 -25.625 8.09375 -22.5625 C 7.28125 -21.28125 6.53125 -19.613281 5.84375 -17.5625 C 5.164062 -15.507812 4.828125 -13.476562 4.828125 -11.46875 C 4.984375 -11.625 5.039062 -11.679688 5 -11.640625 C 4.96875 -11.609375 5.113281 -11.75 5.4375 -12.0625 L 6.390625 -13.515625 C 7.035156 -14.484375 7.78125 -15.726562 8.625 -17.25 C 9.46875 -18.78125 10.332031 -20.332031 11.21875 -21.90625 C 12.101562 -23.476562 12.90625 -24.804688 13.625 -25.890625 C 14.351562 -26.972656 14.921875 -27.515625 15.328125 -27.515625 C 16.773438 -27.515625 17.617188 -26.988281 17.859375 -25.9375 C 18.097656 -24.894531 18.195312 -23.609375 18.15625 -22.078125 C 18.125 -20.554688 18.265625 -19.03125 18.578125 -17.5 C 19.066406 -15.320312 19.8125 -13.726562 20.8125 -12.71875 C 21.820312 -11.71875 22.972656 -11.21875 24.265625 -11.21875 C 26.515625 -11.21875 29.003906 -12.585938 31.734375 -15.328125 C 32.867188 -16.367188 33.675781 -17.234375 34.15625 -17.921875 C 34.632812 -18.609375 35.273438 -19.394531 36.078125 -20.28125 C 36.648438 -21.082031 37.378906 -21.484375 38.265625 -21.484375 C 39.140625 -21.484375 39.515625 -20.738281 39.390625 -19.25 C 39.273438 -17.757812 37.691406 -15.523438 34.640625 -12.546875 L 31.015625 -9.65625 C 28.679688 -8.039062 26.429688 -7.234375 24.265625 -7.234375 C 22.242188 -7.234375 20.488281 -7.835938 19 -9.046875 C 17.519531 -10.253906 16.375 -11.742188 15.5625 -13.515625 C 14.757812 -15.285156 14.359375 -17.015625 14.359375 -18.703125 C 13.796875 -18.304688 13.148438 -17.421875 12.421875 -16.046875 C 11.703125 -14.679688 10.921875 -13.210938 10.078125 -11.640625 C 9.234375 -10.078125 8.367188 -8.710938 7.484375 -7.546875 C 6.597656 -6.378906 5.710938 -5.796875 4.828125 -5.796875 C 2.578125 -5.796875 1.207031 -6.316406 0.71875 -7.359375 C 0.238281 -8.410156 0 -10.019531 0 -12.1875 Z M 0 -12.1875 "/></g></g></g><g fill="#504081" fill-opacity="1"><g transform="translate(756.788881, 118.813975)"><g><path d="M -33.90625 -53.828125 C -33.90625 -54.867188 -32.941406 -55.972656 -31.015625 -57.140625 C -29.085938 -58.304688 -26.65625 -59.453125 -23.71875 -60.578125 C -20.78125 -61.710938 -17.679688 -62.78125 -14.421875 -63.78125 C -11.160156 -64.789062 -8.160156 -65.65625 -5.421875 -66.375 C -2.691406 -67.101562 -0.644531 -67.664062 0.71875 -68.0625 C 2.414062 -68.550781 3.601562 -68.832031 4.28125 -68.90625 C 4.96875 -68.988281 5.410156 -69.25 5.609375 -69.6875 C 5.804688 -70.132812 6.03125 -71.039062 6.28125 -72.40625 C 6.914062 -75.707031 7.65625 -77.984375 8.5 -79.234375 C 9.351562 -80.484375 10.179688 -81.109375 10.984375 -81.109375 C 11.628906 -81.109375 12.171875 -80.765625 12.609375 -80.078125 C 13.054688 -79.390625 13.28125 -78.566406 13.28125 -77.609375 C 13.28125 -76.878906 13.238281 -76.570312 13.15625 -76.6875 C 13.070312 -76.8125 13.070312 -76.550781 13.15625 -75.90625 C 13.15625 -75.75 13.175781 -75.550781 13.21875 -75.3125 C 13.257812 -75.070312 13.28125 -74.75 13.28125 -74.34375 C 13.28125 -73.300781 13.078125 -72.78125 12.671875 -72.78125 C 12.265625 -72.78125 11.859375 -72.71875 11.453125 -72.59375 C 11.054688 -72.46875 10.859375 -71.765625 10.859375 -70.484375 C 11.828125 -70.484375 12.894531 -70.625 14.0625 -70.90625 C 15.226562 -71.1875 16.253906 -71.367188 17.140625 -71.453125 C 20.679688 -72.085938 24.21875 -72.664062 27.75 -73.1875 C 31.289062 -73.71875 34.914062 -73.984375 38.625 -73.984375 C 40.550781 -73.984375 41.957031 -73.578125 42.84375 -72.765625 C 43.726562 -71.960938 44.050781 -71.160156 43.8125 -70.359375 C 43.570312 -69.554688 42.6875 -69.15625 41.15625 -69.15625 C 40.988281 -69.800781 40.882812 -70.101562 40.84375 -70.0625 C 40.8125 -70.019531 40.429688 -70.078125 39.703125 -70.234375 C 39.378906 -70.316406 38.738281 -70.359375 37.78125 -70.359375 C 36.082031 -70.359375 33.84375 -70.175781 31.0625 -69.8125 C 28.289062 -69.457031 25.414062 -69.035156 22.4375 -68.546875 C 19.46875 -68.066406 16.816406 -67.601562 14.484375 -67.15625 C 12.148438 -66.71875 10.617188 -66.414062 9.890625 -66.25 L 7.484375 -41.515625 C 7.398438 -40.953125 7.378906 -40.347656 7.421875 -39.703125 C 7.460938 -39.054688 7.484375 -38.414062 7.484375 -37.78125 C 7.484375 -36.96875 7.421875 -36.441406 7.296875 -36.203125 C 7.179688 -35.960938 7.125 -35.398438 7.125 -34.515625 C 7.125 -32.742188 7.160156 -30.710938 7.234375 -28.421875 C 7.316406 -26.128906 7.28125 -24.335938 7.125 -23.046875 C 7.039062 -22.328125 6.976562 -20.898438 6.9375 -18.765625 C 6.894531 -16.628906 6.851562 -14.15625 6.8125 -11.34375 C 6.78125 -8.53125 6.765625 -5.691406 6.765625 -2.828125 C 6.765625 0.0234375 6.765625 2.617188 6.765625 4.953125 C 6.765625 7.285156 6.800781 8.972656 6.875 10.015625 C 6.875 10.898438 6.972656 12.25 7.171875 14.0625 C 7.378906 15.875 7.421875 17.503906 7.296875 18.953125 C 7.179688 20.398438 6.597656 21.125 5.546875 21.125 C 4.023438 21.125 3.101562 20.273438 2.78125 18.578125 C 2.457031 16.890625 2.296875 15.320312 2.296875 13.875 C 2.054688 10.976562 1.914062 7.597656 1.875 3.734375 C 1.832031 -0.117188 1.832031 -3.976562 1.875 -7.84375 C 1.914062 -11.707031 1.9375 -15.085938 1.9375 -17.984375 L 2.296875 -23.65625 C 2.296875 -24.78125 2.296875 -26.507812 2.296875 -28.84375 C 2.296875 -31.175781 2.332031 -33.648438 2.40625 -36.265625 C 2.488281 -38.878906 2.570312 -41.269531 2.65625 -43.4375 C 2.738281 -45.613281 2.859375 -47.144531 3.015625 -48.03125 C 3.179688 -48.832031 3.28125 -49.796875 3.3125 -50.921875 C 3.351562 -52.054688 3.414062 -53.023438 3.5 -53.828125 L 4.59375 -65.046875 C 4.269531 -64.972656 3.5625 -64.8125 2.46875 -64.5625 C 1.382812 -64.320312 0.519531 -64.125 -0.125 -63.96875 C -4.0625 -63 -7.820312 -61.96875 -11.40625 -60.875 C -14.988281 -59.789062 -18.671875 -58.523438 -22.453125 -57.078125 C -23.171875 -56.765625 -23.832031 -56.425781 -24.4375 -56.0625 C -25.039062 -55.695312 -25.707031 -55.351562 -26.4375 -55.03125 C -27.394531 -54.632812 -28.015625 -54.351562 -28.296875 -54.1875 C -28.578125 -54.03125 -28.71875 -53.828125 -28.71875 -53.578125 C -28.71875 -53.335938 -28.921875 -52.816406 -29.328125 -52.015625 C -29.648438 -51.929688 -29.972656 -51.867188 -30.296875 -51.828125 C -30.617188 -51.796875 -30.976562 -51.78125 -31.375 -51.78125 C -32.019531 -51.78125 -32.601562 -51.921875 -33.125 -52.203125 C -33.644531 -52.484375 -33.90625 -53.023438 -33.90625 -53.828125 Z M -33.90625 -53.828125 "/></g></g></g><g fill="#504081" fill-opacity="1"><g transform="translate(770.788765, 118.813975)"><g><path d="M -0.71875 -10.015625 L 0 -23.65625 C 0.0820312 -24.539062 0.160156 -25.601562 0.234375 -26.84375 C 0.316406 -28.09375 0.398438 -29.160156 0.484375 -30.046875 C 0.640625 -34.066406 1.140625 -38.046875 1.984375 -41.984375 C 2.835938 -45.929688 3.742188 -49.835938 4.703125 -53.703125 C 5.265625 -55.316406 5.707031 -56.382812 6.03125 -56.90625 C 6.351562 -57.425781 6.796875 -57.6875 7.359375 -57.6875 C 7.597656 -57.6875 7.878906 -57.664062 8.203125 -57.625 C 8.523438 -57.582031 8.890625 -57.523438 9.296875 -57.453125 C 9.691406 -55.597656 9.609375 -53.398438 9.046875 -50.859375 C 8.484375 -48.328125 8.039062 -46.019531 7.71875 -43.9375 C 6.832031 -38.382812 6.109375 -32.265625 5.546875 -25.578125 C 4.984375 -18.898438 4.703125 -12.546875 4.703125 -6.515625 L 5.0625 7 L 6.03125 4.703125 C 7.15625 1.484375 8.097656 -1.226562 8.859375 -3.4375 C 9.628906 -5.65625 10.515625 -7.847656 11.515625 -10.015625 C 12.523438 -12.191406 13.875 -14.847656 15.5625 -17.984375 C 16.445312 -19.585938 17.3125 -20.953125 18.15625 -22.078125 C 19.007812 -23.210938 20.316406 -23.78125 22.078125 -23.78125 C 22.960938 -23.78125 23.585938 -23.132812 23.953125 -21.84375 C 24.316406 -20.550781 24.535156 -19.140625 24.609375 -17.609375 C 24.691406 -16.085938 24.734375 -14.960938 24.734375 -14.234375 C 24.734375 -11.984375 24.796875 -10.070312 24.921875 -8.5 C 25.046875 -6.9375 25.507812 -5.390625 26.3125 -3.859375 C 28.15625 -4.265625 29.722656 -5.453125 31.015625 -7.421875 C 32.304688 -9.390625 33.472656 -11.097656 34.515625 -12.546875 C 35.078125 -13.429688 35.597656 -14.316406 36.078125 -15.203125 C 36.566406 -16.085938 37.050781 -17.015625 37.53125 -17.984375 C 38.257812 -19.265625 38.84375 -20.144531 39.28125 -20.625 C 39.726562 -21.113281 40.191406 -21.359375 40.671875 -21.359375 C 40.910156 -21.359375 41.351562 -21.28125 42 -21.125 C 42.40625 -19.675781 42.320312 -18.507812 41.75 -17.625 C 41.1875 -16.738281 40.585938 -15.691406 39.953125 -14.484375 C 39.390625 -13.429688 38.625 -12.082031 37.65625 -10.4375 C 36.6875 -8.789062 35.597656 -7.179688 34.390625 -5.609375 C 33.179688 -4.046875 31.894531 -2.71875 30.53125 -1.625 C 29.164062 -0.539062 27.757812 0 26.3125 0 C 23.65625 0 21.925781 -2.375 21.125 -7.125 C 20.882812 -8.488281 20.722656 -10.316406 20.640625 -12.609375 C 20.554688 -14.898438 20.515625 -16.890625 20.515625 -18.578125 C 19.953125 -18.179688 19.269531 -17.257812 18.46875 -15.8125 C 17.664062 -14.363281 16.859375 -12.734375 16.046875 -10.921875 C 15.242188 -9.109375 14.5 -7.359375 13.8125 -5.671875 C 13.132812 -3.984375 12.59375 -2.695312 12.1875 -1.8125 C 11.21875 0.6875 10.429688 3.179688 9.828125 5.671875 C 9.234375 8.160156 8.570312 10.535156 7.84375 12.796875 C 7.4375 14.078125 6.972656 14.898438 6.453125 15.265625 C 5.929688 15.628906 5.109375 15.8125 3.984375 15.8125 C 3.097656 15.8125 2.375 15.046875 1.8125 13.515625 C 1.25 11.984375 0.785156 10.070312 0.421875 7.78125 C 0.0546875 5.488281 -0.203125 3.113281 -0.359375 0.65625 C -0.523438 -1.789062 -0.625 -4 -0.65625 -5.96875 C -0.695312 -7.945312 -0.71875 -9.296875 -0.71875 -10.015625 Z M -0.71875 -10.015625 "/></g></g></g></g></g><g fill="#504081" fill-opacity="1"><g transform="translate(1013.256044, 175.521143)"><g><path d="M 16.382812 2.542969 C 13.394531 2.542969 10.960938 1.578125 9.085938 -0.347656 C 7.21875 -2.261719 6.285156 -4.621094 6.285156 -7.421875 C 6.285156 -10.324219 7.230469 -12.691406 9.113281 -14.527344 C 10.988281 -16.351562 13.410156 -17.261719 16.382812 -17.261719 C 19.4375 -17.261719 21.902344 -16.351562 23.777344 -14.527344 C 25.660156 -12.691406 26.605469 -10.324219 26.605469 -7.421875 C 26.605469 -4.621094 25.671875 -2.261719 23.804688 -0.347656 C 21.929688 1.578125 19.453125 2.542969 16.382812 2.542969 Z M 16.382812 -0.496094 C 18.597656 -0.496094 20.347656 -1.152344 21.628906 -2.46875 C 22.917969 -3.792969 23.5625 -5.445312 23.5625 -7.421875 C 23.5625 -9.46875 22.929688 -11.109375 21.65625 -12.347656 C 20.375 -13.597656 18.613281 -14.222656 16.382812 -14.222656 C 14.234375 -14.222656 12.519531 -13.597656 11.234375 -12.347656 C 9.960938 -11.109375 9.328125 -9.46875 9.328125 -7.421875 C 9.328125 -5.445312 9.972656 -3.792969 11.261719 -2.46875 C 12.542969 -1.152344 14.25 -0.496094 16.382812 -0.496094 Z M 16.382812 -0.496094 "/></g></g></g><g fill="#fef74b" fill-opacity="1"><g transform="translate(1013.256044, 175.521143)"><g><path d="M 16.375 1.03125 C 13.820312 1.03125 11.753906 0.21875 10.171875 -1.40625 C 8.597656 -3.03125 7.8125 -5.035156 7.8125 -7.421875 C 7.8125 -9.898438 8.597656 -11.90625 10.171875 -13.4375 C 11.753906 -14.96875 13.820312 -15.734375 16.375 -15.734375 C 19.019531 -15.734375 21.128906 -14.96875 22.703125 -13.4375 C 24.285156 -11.90625 25.078125 -9.898438 25.078125 -7.421875 C 25.078125 -5.035156 24.285156 -3.03125 22.703125 -1.40625 C 21.128906 0.21875 19.019531 1.03125 16.375 1.03125 Z M 16.375 1.03125 "/></g></g></g></svg>