<svg xmlns="http://www.w3.org/2000/svg" width="21" height="15" viewBox="0 0 21 15" fill="none">
  <path d="M20.4785 2.26367C20.9238 3.82227 20.9238 7.16211 20.9238 7.16211C20.9238 7.16211 20.9238 10.4648 20.4785 12.0605C20.2559 12.9512 19.5508 13.6191 18.6973 13.8418C17.1016 14.25 10.793 14.25 10.793 14.25C10.793 14.25 4.44727 14.25 2.85156 13.8418C1.99805 13.6191 1.29297 12.9512 1.07031 12.0605C0.625 10.4648 0.625 7.16211 0.625 7.16211C0.625 7.16211 0.625 3.82227 1.07031 2.26367C1.29297 1.37305 1.99805 0.667969 2.85156 0.445312C4.44727 0 10.793 0 10.793 0C10.793 0 17.1016 0 18.6973 0.445312C19.5508 0.667969 20.2559 1.37305 20.4785 2.26367ZM8.71484 10.168L13.9844 7.16211L8.71484 4.15625V10.168Z" fill="#1c0e45"></path>
</svg>