<svg xmlns="http://www.w3.org/2000/svg" xmlns:xlink="http://www.w3.org/1999/xlink" width="1548" zoomAndPan="magnify" viewBox="0 0 1161 296.999993" height="396" preserveAspectRatio="xMidYMid meet" version="1.0"><defs><g/></defs><g fill="#504081" fill-opacity="1"><g transform="translate(348.774615, 163.706159)"><g><path d="M 7.4375 43.1875 C 9.8125 43.1875 12.101562 42.160156 14.3125 40.109375 C 16.519531 38.066406 18.515625 35.722656 20.296875 33.078125 C 22.078125 30.441406 23.398438 28.207031 24.265625 26.375 C 27.390625 20.113281 29.4375 14.828125 30.40625 10.515625 C 31.382812 6.203125 32.25 3.398438 33 2.109375 C 32.351562 2.210938 31.378906 2.773438 30.078125 3.796875 C 28.785156 4.828125 27.519531 5.878906 26.28125 6.953125 C 25.039062 8.035156 24.15625 8.898438 23.625 9.546875 C 21.789062 11.378906 19.6875 13.585938 17.3125 16.171875 C 14.9375 18.765625 12.671875 21.570312 10.515625 24.59375 C 8.359375 27.613281 6.710938 30.660156 5.578125 33.734375 C 4.441406 36.804688 4.203125 39.796875 4.859375 42.703125 C 5.503906 42.816406 5.929688 42.925781 6.140625 43.03125 C 6.359375 43.132812 6.789062 43.1875 7.4375 43.1875 Z M 86.390625 -34.625 C 86.816406 -36.125 87.132812 -37.789062 87.34375 -39.625 C 87.5625 -41.457031 87.78125 -43.1875 88 -44.8125 C 88.644531 -49.445312 89.476562 -54.726562 90.5 -60.65625 C 91.53125 -66.59375 92.640625 -72.523438 93.828125 -78.453125 C 95.015625 -84.390625 96.09375 -89.675781 97.0625 -94.3125 C 97.382812 -95.820312 97.757812 -97.789062 98.1875 -100.21875 C 98.625 -102.644531 99.003906 -105.257812 99.328125 -108.0625 C 99.648438 -110.863281 99.753906 -113.476562 99.640625 -115.90625 C 99.535156 -118.332031 99.050781 -120.242188 98.1875 -121.640625 C 95.925781 -121.535156 93.5 -120.40625 90.90625 -118.25 C 88.320312 -116.09375 85.707031 -113.367188 83.0625 -110.078125 C 80.425781 -106.785156 77.945312 -103.332031 75.625 -99.71875 C 73.300781 -96.113281 71.222656 -92.742188 69.390625 -89.609375 C 67.554688 -86.484375 66.210938 -84.003906 65.359375 -82.171875 L 58.71875 -67.9375 C 57.207031 -64.59375 55.644531 -60.628906 54.03125 -56.046875 C 52.414062 -51.460938 50.90625 -46.851562 49.5 -42.21875 C 48.09375 -37.582031 46.90625 -33.429688 45.9375 -29.765625 C 45.726562 -28.578125 45.328125 -26.878906 44.734375 -24.671875 C 44.140625 -22.460938 43.570312 -20.273438 43.03125 -18.109375 C 42.488281 -15.953125 42.164062 -14.335938 42.0625 -13.265625 C 43.03125 -13.585938 43.972656 -14.070312 44.890625 -14.71875 C 45.804688 -15.363281 46.695312 -15.957031 47.5625 -16.5 L 63.40625 -25.234375 C 65.882812 -26.421875 68.632812 -27.710938 71.65625 -29.109375 C 74.675781 -30.515625 77.535156 -31.703125 80.234375 -32.671875 C 81.316406 -32.890625 82.421875 -33.160156 83.546875 -33.484375 C 84.679688 -33.804688 85.628906 -34.1875 86.390625 -34.625 Z M 6.46875 48.6875 C 3.988281 48.6875 2.019531 47.742188 0.5625 45.859375 C -0.894531 43.972656 -1.625 41.734375 -1.625 39.140625 C -1.507812 35.585938 -0.429688 31.84375 1.609375 27.90625 C 3.660156 23.96875 6.222656 20.109375 9.296875 16.328125 C 12.367188 12.554688 15.550781 9.050781 18.84375 5.8125 C 22.132812 2.582031 25.070312 -0.109375 27.65625 -2.265625 C 29.925781 -4.097656 31.597656 -5.390625 32.671875 -6.140625 C 33.753906 -6.898438 34.507812 -7.628906 34.9375 -8.328125 C 35.375 -9.023438 35.753906 -10.128906 36.078125 -11.640625 C 37.910156 -19.953125 40.09375 -28.609375 42.625 -37.609375 C 45.15625 -46.617188 48.117188 -55.539062 51.515625 -64.375 C 54.921875 -73.21875 58.804688 -81.679688 63.171875 -89.765625 C 67.535156 -97.859375 72.359375 -105.144531 77.640625 -111.625 C 78.828125 -113.132812 80.523438 -115.097656 82.734375 -117.515625 C 84.953125 -119.941406 87.378906 -122.097656 90.015625 -123.984375 C 92.660156 -125.878906 95.222656 -126.828125 97.703125 -126.828125 C 100.503906 -126.828125 102.390625 -125.910156 103.359375 -124.078125 C 104.335938 -122.242188 104.878906 -120.140625 104.984375 -117.765625 C 105.085938 -115.390625 105.140625 -113.34375 105.140625 -111.625 C 105.140625 -109.570312 104.84375 -106.46875 104.25 -102.3125 C 103.664062 -98.164062 102.941406 -93.503906 102.078125 -88.328125 C 101.210938 -83.148438 100.265625 -77.863281 99.234375 -72.46875 C 98.210938 -67.070312 97.296875 -62.082031 96.484375 -57.5 C 95.679688 -52.914062 95.066406 -49.171875 94.640625 -46.265625 C 94.421875 -44.535156 94.175781 -42.96875 93.90625 -41.5625 C 93.632812 -40.164062 93.5 -38.550781 93.5 -36.71875 C 95.332031 -36.71875 96.976562 -36.878906 98.4375 -37.203125 C 99.894531 -37.523438 101.644531 -37.6875 103.6875 -37.6875 C 105.738281 -37.6875 107.085938 -37.203125 107.734375 -36.234375 C 108.378906 -35.265625 108.484375 -34.265625 108.046875 -33.234375 C 107.617188 -32.210938 106.816406 -31.703125 105.640625 -31.703125 C 104.234375 -31.703125 103.664062 -31.835938 103.9375 -32.109375 C 104.207031 -32.378906 103.910156 -32.515625 103.046875 -32.515625 C 102.609375 -32.515625 101.796875 -32.457031 100.609375 -32.34375 C 99.429688 -32.238281 97.765625 -31.972656 95.609375 -31.546875 C 94.097656 -31.222656 93.179688 -30.898438 92.859375 -30.578125 C 92.535156 -30.253906 92.265625 -29.226562 92.046875 -27.5 L 84.28125 56.453125 C 84.28125 58.828125 84.195312 61.171875 84.03125 63.484375 C 83.875 65.804688 83.796875 68.367188 83.796875 71.171875 C 83.796875 74.410156 83.898438 77.023438 84.109375 79.015625 C 84.328125 81.015625 84.300781 82.5 84.03125 83.46875 C 83.757812 84.4375 82.816406 84.921875 81.203125 84.921875 C 80.015625 84.921875 79.125 83.953125 78.53125 82.015625 C 77.9375 80.078125 77.53125 77.734375 77.3125 74.984375 C 77.101562 72.234375 77.023438 69.585938 77.078125 67.046875 C 77.128906 64.515625 77.210938 62.65625 77.328125 61.46875 C 77.328125 60.175781 77.40625 59.207031 77.5625 58.5625 C 77.726562 57.914062 77.8125 56.890625 77.8125 55.484375 C 77.8125 53.546875 77.914062 51.09375 78.125 48.125 C 78.34375 45.15625 78.5625 42.078125 78.78125 38.890625 C 79 35.710938 79.160156 32.882812 79.265625 30.40625 L 84.28125 -16.828125 C 84.5 -18.984375 84.738281 -20.921875 85 -22.640625 C 85.269531 -24.367188 85.40625 -26.363281 85.40625 -28.625 C 83.894531 -27.875 81.898438 -27.09375 79.421875 -26.28125 C 76.941406 -25.476562 74.25 -24.320312 71.34375 -22.8125 C 68.101562 -21.1875 65.484375 -19.890625 63.484375 -18.921875 C 61.492188 -17.953125 59.742188 -17.035156 58.234375 -16.171875 C 56.722656 -15.304688 55.078125 -14.304688 53.296875 -13.171875 C 51.515625 -12.046875 49.171875 -10.566406 46.265625 -8.734375 C 46.046875 -8.628906 45.476562 -8.28125 44.5625 -7.6875 C 43.644531 -7.09375 42.78125 -6.472656 41.96875 -5.828125 C 41.164062 -5.179688 40.710938 -4.800781 40.609375 -4.6875 C 40.285156 -4.363281 39.769531 -2.851562 39.0625 -0.15625 C 38.363281 2.53125 37.421875 5.894531 36.234375 9.9375 C 35.046875 13.988281 33.585938 18.25 31.859375 22.71875 C 30.140625 27.195312 28.066406 31.40625 25.640625 35.34375 C 23.210938 39.28125 20.40625 42.488281 17.21875 44.96875 C 14.039062 47.445312 10.457031 48.6875 6.46875 48.6875 Z M 6.46875 48.6875 "/></g></g></g><g fill="#504081" fill-opacity="1"><g transform="translate(449.061988, 163.706159)"><g><path d="M 7.4375 19.890625 C 10.675781 19.890625 13.613281 18.726562 16.25 16.40625 C 18.894531 14.09375 21.1875 11.375 23.125 8.25 C 25.070312 5.125 26.691406 2.375 27.984375 0 C 27.335938 0.21875 26.039062 0.8125 24.09375 1.78125 C 22.15625 2.75 20.21875 3.769531 18.28125 4.84375 C 16.34375 5.925781 14.992188 6.738281 14.234375 7.28125 C 12.828125 8.144531 11.316406 9.273438 9.703125 10.671875 C 8.085938 12.078125 6.710938 13.476562 5.578125 14.875 C 4.441406 16.28125 3.957031 17.46875 4.125 18.4375 C 4.289062 19.40625 5.394531 19.890625 7.4375 19.890625 Z M 2.265625 -10.1875 C 2.265625 -14.289062 2.425781 -19.332031 2.75 -25.3125 C 3.070312 -31.300781 3.554688 -37.609375 4.203125 -44.234375 C 4.847656 -50.867188 5.707031 -57.148438 6.78125 -63.078125 C 7.863281 -69.015625 9.160156 -73.867188 10.671875 -77.640625 C 11.535156 -79.796875 12.34375 -81.28125 13.09375 -82.09375 C 13.851562 -82.90625 14.554688 -83.3125 15.203125 -83.3125 C 15.960938 -83.3125 16.554688 -82.929688 16.984375 -82.171875 C 17.410156 -81.421875 17.570312 -80.773438 17.46875 -80.234375 C 17.46875 -80.015625 17.332031 -79.445312 17.0625 -78.53125 C 16.789062 -77.613281 16.601562 -76.78125 16.5 -76.03125 C 15.632812 -72.6875 14.71875 -68.289062 13.75 -62.84375 C 12.78125 -57.394531 11.890625 -51.597656 11.078125 -45.453125 C 10.273438 -39.304688 9.628906 -33.484375 9.140625 -27.984375 C 8.648438 -22.484375 8.40625 -18.113281 8.40625 -14.875 L 11.96875 -20.703125 C 12.507812 -21.785156 13.078125 -22.785156 13.671875 -23.703125 C 14.265625 -24.617188 14.9375 -25.453125 15.6875 -26.203125 C 17.414062 -28.578125 19.359375 -30.4375 21.515625 -31.78125 C 23.671875 -33.132812 25.773438 -33.8125 27.828125 -33.8125 C 31.273438 -33.8125 34.023438 -31.976562 36.078125 -28.3125 C 37.910156 -24.75 38.664062 -21.566406 38.34375 -18.765625 C 38.019531 -15.960938 37.859375 -13.320312 37.859375 -10.84375 C 39.898438 -11.914062 41.539062 -12.773438 42.78125 -13.421875 C 44.019531 -14.066406 45.234375 -14.765625 46.421875 -15.515625 C 47.609375 -16.273438 49.175781 -17.359375 51.125 -18.765625 C 52.09375 -19.515625 53.410156 -20.59375 55.078125 -22 C 56.753906 -23.40625 58.347656 -24.726562 59.859375 -25.96875 C 61.367188 -27.207031 62.285156 -27.828125 62.609375 -27.828125 C 64.222656 -27.828125 65.109375 -27.472656 65.265625 -26.765625 C 65.429688 -26.066406 65.160156 -25.257812 64.453125 -24.34375 C 63.753906 -23.425781 63.023438 -22.617188 62.265625 -21.921875 C 61.515625 -21.222656 61.035156 -20.816406 60.828125 -20.703125 C 59.640625 -19.410156 58.394531 -18.28125 57.09375 -17.3125 C 55.800781 -16.34375 54.507812 -15.265625 53.21875 -14.078125 C 51.488281 -12.890625 49.300781 -11.515625 46.65625 -9.953125 C 44.019531 -8.390625 41.648438 -6.984375 39.546875 -5.734375 C 37.441406 -4.492188 36.226562 -3.660156 35.90625 -3.234375 C 35.582031 -2.691406 35.070312 -1.476562 34.375 0.40625 C 33.675781 2.289062 32.675781 4.5 31.375 7.03125 C 30.082031 9.570312 28.410156 12.109375 26.359375 14.640625 C 24.316406 17.171875 21.785156 19.351562 18.765625 21.1875 C 14.992188 23.5625 11.164062 24.75 7.28125 24.75 C 5.007812 24.75 3.066406 24.179688 1.453125 23.046875 C -0.160156 21.921875 -0.96875 20.113281 -0.96875 17.625 C -0.96875 15.257812 0.109375 12.914062 2.265625 10.59375 C 4.421875 8.28125 7.0625 6.070312 10.1875 3.96875 C 13.3125 1.863281 16.4375 0.00390625 19.5625 -1.609375 C 22.695312 -3.234375 25.234375 -4.53125 27.171875 -5.5 C 28.679688 -6.25 29.625 -6.734375 30 -6.953125 C 30.382812 -7.171875 30.789062 -8.195312 31.21875 -10.03125 C 31.976562 -13.15625 32.300781 -16.117188 32.1875 -18.921875 C 32.082031 -21.722656 31.625 -24.015625 30.8125 -25.796875 C 30.007812 -27.578125 28.796875 -28.46875 27.171875 -28.46875 C 25.128906 -28.46875 22.539062 -26.6875 19.40625 -23.125 C 16.71875 -19.894531 14.5625 -16.390625 12.9375 -12.609375 C 11.320312 -8.835938 10 -5.601562 8.96875 -2.90625 C 7.945312 -0.21875 6.898438 1.125 5.828125 1.125 C 4.421875 1.125 3.472656 0.503906 2.984375 -0.734375 C 2.503906 -1.972656 2.265625 -3.476562 2.265625 -5.25 C 2.265625 -7.03125 2.265625 -8.675781 2.265625 -10.1875 Z M 2.265625 -10.1875 "/></g></g></g><g fill="#504081" fill-opacity="1"><g transform="translate(506.484592, 163.706159)"><g><path d="M 8.09375 -3.71875 C 9.707031 -4.15625 11.160156 -5.582031 12.453125 -8 C 13.742188 -10.425781 14.660156 -13.203125 15.203125 -16.328125 C 15.742188 -19.460938 15.878906 -22.347656 15.609375 -24.984375 C 15.335938 -27.628906 14.503906 -29.4375 13.109375 -30.40625 C 12.785156 -29.21875 12.191406 -27.519531 11.328125 -25.3125 C 10.460938 -23.101562 9.625 -20.675781 8.8125 -18.03125 C 8.007812 -15.394531 7.472656 -12.804688 7.203125 -10.265625 C 6.929688 -7.734375 7.226562 -5.550781 8.09375 -3.71875 Z M 0 -9.21875 C 0 -10.625 0.296875 -12.703125 0.890625 -15.453125 C 1.484375 -18.203125 2.316406 -21.164062 3.390625 -24.34375 C 4.472656 -27.53125 5.6875 -30.550781 7.03125 -33.40625 C 8.382812 -36.257812 9.84375 -38.601562 11.40625 -40.4375 C 12.96875 -42.269531 14.554688 -43.1875 16.171875 -43.1875 C 17.253906 -43.1875 18.007812 -42.703125 18.4375 -41.734375 C 18.875 -40.765625 18.984375 -39.957031 18.765625 -39.3125 C 18.546875 -38.769531 18.140625 -38.226562 17.546875 -37.6875 C 16.953125 -37.144531 16.441406 -36.550781 16.015625 -35.90625 C 16.234375 -35.15625 16.769531 -34.320312 17.625 -33.40625 C 18.488281 -32.488281 19.351562 -31.273438 20.21875 -29.765625 C 21.082031 -28.253906 21.648438 -26.203125 21.921875 -23.609375 C 22.191406 -21.023438 21.894531 -17.628906 21.03125 -13.421875 C 19.84375 -7.816406 17.953125 -3.613281 15.359375 -0.8125 C 12.773438 1.988281 10.242188 3.390625 7.765625 3.390625 C 5.710938 3.390625 3.90625 2.335938 2.34375 0.234375 C 0.78125 -1.859375 0 -5.007812 0 -9.21875 Z M 0 -9.21875 "/></g></g></g><g fill="#504081" fill-opacity="1"><g transform="translate(534.953268, 163.706159)"><g><path d="M 0.15625 -19.734375 C 0.15625 -22.109375 0.503906 -24.75 1.203125 -27.65625 C 1.910156 -30.570312 2.828125 -33.40625 3.953125 -36.15625 C 5.085938 -38.90625 6.304688 -41.144531 7.609375 -42.875 C 8.785156 -44.164062 9.96875 -44.8125 11.15625 -44.8125 C 12.132812 -44.8125 13.109375 -44.539062 14.078125 -44 C 14.179688 -43.457031 14.3125 -43.078125 14.46875 -42.859375 C 14.632812 -42.648438 14.71875 -42.164062 14.71875 -41.40625 C 14.71875 -41.300781 14.234375 -40.273438 13.265625 -38.328125 C 12.296875 -36.390625 11.242188 -33.960938 10.109375 -31.046875 C 8.972656 -28.140625 8.054688 -25.066406 7.359375 -21.828125 C 6.660156 -18.597656 6.632812 -15.632812 7.28125 -12.9375 C 8.570312 -13.375 9.703125 -14.210938 10.671875 -15.453125 C 11.640625 -16.691406 12.503906 -17.847656 13.265625 -18.921875 L 22.96875 -33.15625 C 24.050781 -34.664062 24.96875 -35.988281 25.71875 -37.125 C 26.476562 -38.257812 27.613281 -38.828125 29.125 -38.828125 C 30.625 -38.828125 31.507812 -37.878906 31.78125 -35.984375 C 32.050781 -34.097656 32.101562 -31.96875 31.9375 -29.59375 C 31.78125 -27.226562 31.757812 -25.34375 31.875 -23.9375 C 32.40625 -20.0625 33.238281 -17.335938 34.375 -15.765625 C 35.507812 -14.203125 36.832031 -13.421875 38.34375 -13.421875 C 40.175781 -13.421875 42.113281 -14.175781 44.15625 -15.6875 C 46.207031 -17.195312 48.253906 -18.945312 50.296875 -20.9375 C 52.347656 -22.9375 54.15625 -24.691406 55.71875 -26.203125 C 57.289062 -27.710938 58.453125 -28.46875 59.203125 -28.46875 C 59.847656 -28.46875 60.441406 -28.332031 60.984375 -28.0625 C 61.523438 -27.789062 61.796875 -27.226562 61.796875 -26.375 C 61.796875 -25.507812 61.144531 -24.347656 59.84375 -22.890625 C 58.550781 -21.429688 57.148438 -20.023438 55.640625 -18.671875 C 54.128906 -17.328125 53.050781 -16.332031 52.40625 -15.6875 C 50.25 -13.644531 47.90625 -11.894531 45.375 -10.4375 C 42.84375 -8.976562 40.335938 -8.25 37.859375 -8.25 C 35.160156 -8.25 33.054688 -8.976562 31.546875 -10.4375 C 30.035156 -11.894531 28.925781 -13.726562 28.21875 -15.9375 C 27.519531 -18.144531 27.0625 -20.460938 26.84375 -22.890625 C 26.632812 -25.316406 26.53125 -27.5 26.53125 -29.4375 C 25.882812 -29.007812 25.101562 -28.066406 24.1875 -26.609375 C 23.269531 -25.148438 22.539062 -23.988281 22 -23.125 C 21.351562 -22.050781 20.4375 -20.570312 19.25 -18.6875 C 18.0625 -16.800781 16.738281 -14.910156 15.28125 -13.015625 C 13.832031 -11.128906 12.378906 -9.539062 10.921875 -8.25 C 9.460938 -6.957031 8.085938 -6.3125 6.796875 -6.3125 C 4.316406 -6.3125 2.617188 -7.035156 1.703125 -8.484375 C 0.785156 -9.941406 0.296875 -11.722656 0.234375 -13.828125 C 0.179688 -15.929688 0.15625 -17.898438 0.15625 -19.734375 Z M 0.15625 -19.734375 "/></g></g></g><g fill="#504081" fill-opacity="1"><g transform="translate(589.626063, 163.706159)"><g><path d="M -45.453125 -72.140625 C -45.453125 -73.546875 -44.15625 -75.03125 -41.5625 -76.59375 C -38.976562 -78.15625 -35.71875 -79.691406 -31.78125 -81.203125 C -27.84375 -82.710938 -23.691406 -84.140625 -19.328125 -85.484375 C -14.960938 -86.835938 -10.945312 -88 -7.28125 -88.96875 C -3.613281 -89.9375 -0.863281 -90.691406 0.96875 -91.234375 C 3.238281 -91.878906 4.832031 -92.253906 5.75 -92.359375 C 6.664062 -92.472656 7.253906 -92.828125 7.515625 -93.421875 C 7.785156 -94.015625 8.082031 -95.226562 8.40625 -97.0625 C 9.269531 -101.476562 10.269531 -104.519531 11.40625 -106.1875 C 12.539062 -107.863281 13.644531 -108.703125 14.71875 -108.703125 C 15.582031 -108.703125 16.3125 -108.242188 16.90625 -107.328125 C 17.5 -106.410156 17.796875 -105.304688 17.796875 -104.015625 C 17.796875 -103.046875 17.738281 -102.640625 17.625 -102.796875 C 17.519531 -102.960938 17.519531 -102.613281 17.625 -101.75 C 17.625 -101.53125 17.648438 -101.257812 17.703125 -100.9375 C 17.765625 -100.613281 17.796875 -100.179688 17.796875 -99.640625 C 17.796875 -98.242188 17.523438 -97.546875 16.984375 -97.546875 C 16.441406 -97.546875 15.898438 -97.460938 15.359375 -97.296875 C 14.828125 -97.140625 14.5625 -96.195312 14.5625 -94.46875 C 15.851562 -94.46875 17.28125 -94.65625 18.84375 -95.03125 C 20.40625 -95.414062 21.78125 -95.660156 22.96875 -95.765625 C 27.71875 -96.628906 32.460938 -97.410156 37.203125 -98.109375 C 41.953125 -98.804688 46.804688 -99.15625 51.765625 -99.15625 C 54.347656 -99.15625 56.234375 -98.613281 57.421875 -97.53125 C 58.609375 -96.457031 59.039062 -95.378906 58.71875 -94.296875 C 58.394531 -93.222656 57.207031 -92.6875 55.15625 -92.6875 C 54.945312 -93.550781 54.8125 -93.957031 54.75 -93.90625 C 54.695312 -93.851562 54.1875 -93.929688 53.21875 -94.140625 C 52.789062 -94.253906 51.925781 -94.3125 50.625 -94.3125 C 48.363281 -94.3125 45.375 -94.066406 41.65625 -93.578125 C 37.9375 -93.097656 34.082031 -92.53125 30.09375 -91.875 C 26.101562 -91.226562 22.539062 -90.609375 19.40625 -90.015625 C 16.28125 -89.429688 14.234375 -89.03125 13.265625 -88.8125 L 10.03125 -55.640625 C 9.925781 -54.890625 9.898438 -54.082031 9.953125 -53.21875 C 10.003906 -52.351562 10.03125 -51.488281 10.03125 -50.625 C 10.03125 -49.550781 9.945312 -48.851562 9.78125 -48.53125 C 9.625 -48.207031 9.546875 -47.453125 9.546875 -46.265625 C 9.546875 -43.890625 9.597656 -41.164062 9.703125 -38.09375 C 9.816406 -35.019531 9.765625 -32.617188 9.546875 -30.890625 C 9.429688 -29.921875 9.347656 -28.007812 9.296875 -25.15625 C 9.242188 -22.300781 9.191406 -18.984375 9.140625 -15.203125 C 9.085938 -11.429688 9.0625 -7.628906 9.0625 -3.796875 C 9.0625 0.0234375 9.0625 3.5 9.0625 6.625 C 9.0625 9.757812 9.113281 12.023438 9.21875 13.421875 C 9.21875 14.609375 9.351562 16.414062 9.625 18.84375 C 9.894531 21.269531 9.945312 23.453125 9.78125 25.390625 C 9.625 27.335938 8.84375 28.3125 7.4375 28.3125 C 5.394531 28.3125 4.15625 27.175781 3.71875 24.90625 C 3.289062 22.644531 3.078125 20.546875 3.078125 18.609375 C 2.753906 14.722656 2.5625 10.191406 2.5 5.015625 C 2.445312 -0.160156 2.445312 -5.335938 2.5 -10.515625 C 2.5625 -15.691406 2.59375 -20.222656 2.59375 -24.109375 L 3.078125 -31.703125 C 3.078125 -33.210938 3.078125 -35.53125 3.078125 -38.65625 C 3.078125 -41.789062 3.128906 -45.109375 3.234375 -48.609375 C 3.335938 -52.117188 3.441406 -55.328125 3.546875 -58.234375 C 3.660156 -61.148438 3.828125 -63.195312 4.046875 -64.375 C 4.265625 -65.457031 4.398438 -66.753906 4.453125 -68.265625 C 4.503906 -69.773438 4.582031 -71.066406 4.6875 -72.140625 L 6.140625 -87.1875 C 5.710938 -87.082031 4.769531 -86.867188 3.3125 -86.546875 C 1.851562 -86.222656 0.695312 -85.953125 -0.15625 -85.734375 C -5.445312 -84.441406 -10.488281 -83.066406 -15.28125 -81.609375 C -20.082031 -80.148438 -25.019531 -78.453125 -30.09375 -76.515625 C -31.0625 -76.085938 -31.945312 -75.628906 -32.75 -75.140625 C -33.5625 -74.648438 -34.453125 -74.191406 -35.421875 -73.765625 C -36.722656 -73.222656 -37.5625 -72.84375 -37.9375 -72.625 C -38.3125 -72.414062 -38.5 -72.148438 -38.5 -71.828125 C -38.5 -71.503906 -38.769531 -70.800781 -39.3125 -69.71875 C -39.738281 -69.613281 -40.164062 -69.53125 -40.59375 -69.46875 C -41.03125 -69.414062 -41.519531 -69.390625 -42.0625 -69.390625 C -42.925781 -69.390625 -43.707031 -69.578125 -44.40625 -69.953125 C -45.101562 -70.335938 -45.453125 -71.066406 -45.453125 -72.140625 Z M -45.453125 -72.140625 "/></g></g></g><g fill="#504081" fill-opacity="1"><g transform="translate(608.389497, 163.706159)"><g/></g></g><g fill="#504081" fill-opacity="1"><g transform="translate(650.283751, 163.706159)"><g><path d="M 1.78125 10.515625 C 1.78125 3.503906 2.316406 -3.554688 3.390625 -10.671875 C 4.472656 -17.796875 5.550781 -24.484375 6.625 -30.734375 C 9.21875 -45.179688 12.722656 -59.898438 17.140625 -74.890625 C 21.566406 -89.890625 27.066406 -103.859375 33.640625 -116.796875 C 34.503906 -118.523438 35.609375 -120.359375 36.953125 -122.296875 C 38.304688 -124.234375 40.113281 -125.203125 42.375 -125.203125 C 44 -125.203125 44.8125 -124.394531 44.8125 -122.78125 C 44.8125 -121.164062 44.351562 -119.738281 43.4375 -118.5 C 42.519531 -117.257812 41.738281 -115.882812 41.09375 -114.375 C 39.363281 -110.707031 37.523438 -106.363281 35.578125 -101.34375 C 33.640625 -96.332031 31.753906 -91.078125 29.921875 -85.578125 C 28.085938 -80.078125 26.414062 -74.738281 24.90625 -69.5625 C 23.394531 -64.382812 22.210938 -59.800781 21.359375 -55.8125 C 19.304688 -46.75 17.390625 -38.144531 15.609375 -30 C 13.828125 -21.863281 12.367188 -13.5625 11.234375 -5.09375 C 10.109375 3.375 9.546875 12.617188 9.546875 22.640625 C 9.546875 24.910156 9.679688 27.742188 9.953125 31.140625 C 10.222656 34.535156 10.707031 38.039062 11.40625 41.65625 C 12.101562 45.269531 13.097656 48.640625 14.390625 51.765625 C 15.691406 54.890625 17.335938 57.445312 19.328125 59.4375 C 21.328125 61.4375 23.78125 62.4375 26.6875 62.4375 C 31.320312 62.4375 34.90625 61.46875 37.4375 59.53125 C 39.976562 57.59375 42.8125 54.789062 45.9375 51.125 C 48.957031 47.5625 51.785156 43.515625 54.421875 38.984375 C 57.066406 34.453125 59.550781 29.785156 61.875 24.984375 C 64.195312 20.191406 66.378906 15.691406 68.421875 11.484375 C 68.960938 10.617188 69.367188 9.835938 69.640625 9.140625 C 69.910156 8.441406 70.257812 7.710938 70.6875 6.953125 C 72.09375 3.929688 73.925781 -0.164062 76.1875 -5.34375 C 78.457031 -10.519531 80.910156 -16.179688 83.546875 -22.328125 C 86.191406 -28.472656 88.804688 -34.644531 91.390625 -40.84375 C 93.984375 -47.039062 96.273438 -52.753906 98.265625 -57.984375 C 100.265625 -63.222656 101.695312 -67.40625 102.5625 -70.53125 C 103.207031 -72.46875 103.691406 -74.269531 104.015625 -75.9375 C 104.335938 -77.613281 105.628906 -78.453125 107.890625 -78.453125 C 108.222656 -78.453125 108.679688 -78.15625 109.265625 -77.5625 C 109.859375 -76.96875 110.15625 -76.347656 110.15625 -75.703125 C 110.15625 -74.410156 109.992188 -72.441406 109.671875 -69.796875 C 109.347656 -67.160156 109 -64.46875 108.625 -61.71875 C 108.25 -58.96875 107.953125 -56.78125 107.734375 -55.15625 L 103.375 -1.453125 C 102.9375 1.453125 102.769531 5.222656 102.875 9.859375 C 102.988281 14.503906 103.285156 19.414062 103.765625 24.59375 C 104.253906 29.769531 104.796875 34.675781 105.390625 39.3125 C 105.984375 43.945312 106.492188 47.828125 106.921875 50.953125 C 107.242188 53.222656 107.617188 55.460938 108.046875 57.671875 C 108.484375 59.878906 108.703125 61.679688 108.703125 63.078125 C 108.703125 64.484375 108.109375 65.1875 106.921875 65.1875 C 104.765625 65.1875 103.414062 64.023438 102.875 61.703125 C 102.34375 59.390625 101.804688 56.722656 101.265625 53.703125 C 100.296875 47.984375 99.488281 43.425781 98.84375 40.03125 C 98.195312 36.632812 97.679688 33.722656 97.296875 31.296875 C 96.921875 28.867188 96.625 26.359375 96.40625 23.765625 C 96.195312 21.179688 96.035156 17.972656 95.921875 14.140625 C 95.816406 10.316406 95.765625 5.226562 95.765625 -1.125 C 95.765625 -9.320312 96.164062 -16.707031 96.96875 -23.28125 C 97.78125 -29.863281 98.457031 -36.820312 99 -44.15625 C 98.894531 -44.050781 98.8125 -43.972656 98.75 -43.921875 C 98.695312 -43.867188 98.566406 -43.679688 98.359375 -43.359375 L 97.0625 -40.28125 C 96.738281 -39.519531 96.46875 -38.84375 96.25 -38.25 C 96.03125 -37.664062 95.757812 -36.992188 95.4375 -36.234375 C 94.90625 -34.722656 94.367188 -33.347656 93.828125 -32.109375 C 93.285156 -30.867188 92.691406 -29.492188 92.046875 -27.984375 L 66.8125 27.984375 C 64.976562 31.648438 62.738281 35.828125 60.09375 40.515625 C 57.445312 45.210938 54.453125 49.742188 51.109375 54.109375 C 47.773438 58.472656 44.109375 62.054688 40.109375 64.859375 C 36.117188 67.671875 31.804688 69.078125 27.171875 69.078125 C 22.753906 69.078125 18.765625 67.484375 15.203125 64.296875 C 11.648438 61.117188 9.117188 57.695312 7.609375 54.03125 C 5.453125 48.851562 3.96875 44 3.15625 39.46875 C 2.34375 34.9375 1.910156 30.351562 1.859375 25.71875 C 1.804688 21.082031 1.78125 16.015625 1.78125 10.515625 Z M 1.78125 10.515625 "/></g></g></g><g fill="#504081" fill-opacity="1"><g transform="translate(765.45246, 163.706159)"><g><path d="M 1.9375 26.6875 C 1.9375 28.957031 2.640625 30.09375 4.046875 30.09375 C 4.796875 30.09375 5.601562 29.820312 6.46875 29.28125 C 7.332031 28.738281 8.035156 28.253906 8.578125 27.828125 C 10.734375 26.203125 12.644531 23.742188 14.3125 20.453125 C 15.988281 17.171875 17.203125 14.179688 17.953125 11.484375 C 18.492188 9.648438 18.789062 7.789062 18.84375 5.90625 C 18.894531 4.019531 18.921875 1.941406 18.921875 -0.328125 C 17.628906 0.429688 16.144531 1.753906 14.46875 3.640625 C 12.800781 5.523438 11.484375 7.0625 10.515625 8.25 C 8.578125 10.625 6.660156 13.484375 4.765625 16.828125 C 2.878906 20.171875 1.9375 23.457031 1.9375 26.6875 Z M 0.484375 -26.203125 C 0.484375 -29.003906 1.238281 -31.507812 2.75 -33.71875 C 4.257812 -35.9375 6.066406 -37.71875 8.171875 -39.0625 C 10.273438 -40.414062 12.082031 -41.09375 13.59375 -41.09375 C 14.78125 -41.09375 15.664062 -40.660156 16.25 -39.796875 C 16.84375 -38.929688 16.875 -37.472656 16.34375 -35.421875 C 15.039062 -35.097656 14.117188 -34.910156 13.578125 -34.859375 C 13.046875 -34.804688 12.617188 -34.644531 12.296875 -34.375 C 11.972656 -34.101562 11.378906 -33.484375 10.515625 -32.515625 C 8.359375 -30.140625 7.359375 -28.222656 7.515625 -26.765625 C 7.679688 -25.316406 8.546875 -23.972656 10.109375 -22.734375 C 11.671875 -21.492188 13.609375 -19.957031 15.921875 -18.125 C 18.242188 -16.289062 20.429688 -13.804688 22.484375 -10.671875 C 24.859375 -12.296875 27.285156 -14.1875 29.765625 -16.34375 L 44.8125 -26.859375 C 46.207031 -27.828125 47.414062 -28.5 48.4375 -28.875 C 49.46875 -29.25 50.363281 -29.4375 51.125 -29.4375 C 52.414062 -29.4375 52.953125 -28.894531 52.734375 -27.8125 C 52.515625 -26.738281 51.488281 -25.664062 49.65625 -24.59375 L 38.65625 -16.984375 C 38.226562 -16.765625 37.3125 -16.144531 35.90625 -15.125 C 34.507812 -14.101562 32.972656 -12.972656 31.296875 -11.734375 C 29.628906 -10.492188 28.203125 -9.332031 27.015625 -8.25 C 25.828125 -7.164062 25.179688 -6.460938 25.078125 -6.140625 C 24.960938 -5.609375 25.117188 -4.585938 25.546875 -3.078125 C 25.984375 -1.566406 26.28125 0.398438 26.4375 2.828125 C 26.601562 5.253906 26.28125 8.21875 25.46875 11.71875 C 24.664062 15.226562 22.914062 19.300781 20.21875 23.9375 C 17.84375 27.925781 15.253906 30.863281 12.453125 32.75 C 9.648438 34.644531 7.007812 35.59375 4.53125 35.59375 C 2.257812 35.59375 0.398438 34.835938 -1.046875 33.328125 C -2.503906 31.816406 -3.234375 29.601562 -3.234375 26.6875 C -3.234375 23.019531 -2.34375 19.460938 -0.5625 16.015625 C 1.21875 12.566406 3.347656 9.382812 5.828125 6.46875 C 8.304688 3.5625 10.597656 1.054688 12.703125 -1.046875 C 14.804688 -3.148438 16.179688 -4.6875 16.828125 -5.65625 C 15.523438 -7.925781 13.957031 -9.894531 12.125 -11.5625 C 10.289062 -13.238281 8.484375 -14.773438 6.703125 -16.171875 C 4.929688 -17.578125 3.453125 -19.0625 2.265625 -20.625 C 1.078125 -22.1875 0.484375 -24.046875 0.484375 -26.203125 Z M 0.484375 -26.203125 "/></g></g></g><g fill="#504081" fill-opacity="1"><g transform="translate(828.584072, 186.581157)"><g><path d="M 16.382812 2.542969 C 13.394531 2.542969 10.960938 1.578125 9.085938 -0.347656 C 7.21875 -2.261719 6.285156 -4.621094 6.285156 -7.421875 C 6.285156 -10.324219 7.230469 -12.691406 9.113281 -14.527344 C 10.988281 -16.351562 13.410156 -17.261719 16.382812 -17.261719 C 19.4375 -17.261719 21.902344 -16.351562 23.777344 -14.527344 C 25.660156 -12.691406 26.605469 -10.324219 26.605469 -7.421875 C 26.605469 -4.621094 25.671875 -2.261719 23.804688 -0.347656 C 21.929688 1.578125 19.453125 2.542969 16.382812 2.542969 Z M 16.382812 -0.496094 C 18.597656 -0.496094 20.347656 -1.152344 21.628906 -2.46875 C 22.917969 -3.792969 23.5625 -5.445312 23.5625 -7.421875 C 23.5625 -9.46875 22.929688 -11.109375 21.65625 -12.347656 C 20.375 -13.597656 18.613281 -14.222656 16.382812 -14.222656 C 14.234375 -14.222656 12.519531 -13.597656 11.234375 -12.347656 C 9.960938 -11.109375 9.328125 -9.46875 9.328125 -7.421875 C 9.328125 -5.445312 9.972656 -3.792969 11.261719 -2.46875 C 12.542969 -1.152344 14.25 -0.496094 16.382812 -0.496094 Z M 16.382812 -0.496094 "/></g></g></g><g fill="#fef74b" fill-opacity="1"><g transform="translate(828.584072, 186.581157)"><g><path d="M 16.375 1.03125 C 13.820312 1.03125 11.753906 0.21875 10.171875 -1.40625 C 8.597656 -3.03125 7.8125 -5.035156 7.8125 -7.421875 C 7.8125 -9.898438 8.597656 -11.90625 10.171875 -13.4375 C 11.753906 -14.96875 13.820312 -15.734375 16.375 -15.734375 C 19.019531 -15.734375 21.128906 -14.96875 22.703125 -13.4375 C 24.285156 -11.90625 25.078125 -9.898438 25.078125 -7.421875 C 25.078125 -5.035156 24.285156 -3.03125 22.703125 -1.40625 C 21.128906 0.21875 19.019531 1.03125 16.375 1.03125 Z M 16.375 1.03125 "/></g></g></g></svg>