<svg xmlns="http://www.w3.org/2000/svg" xmlns:xlink="http://www.w3.org/1999/xlink" width="1548" zoomAndPan="magnify" viewBox="0 0 1161 296.999993" height="396" preserveAspectRatio="xMidYMid meet" version="1.0"><defs><g/></defs><g fill="#504081" fill-opacity="1"><g transform="translate(120.438755, 163.039684)"><g><path d="M 7.4375 43.1875 C 9.8125 43.1875 12.101562 42.160156 14.3125 40.109375 C 16.519531 38.066406 18.515625 35.722656 20.296875 33.078125 C 22.078125 30.441406 23.398438 28.207031 24.265625 26.375 C 27.390625 20.113281 29.4375 14.828125 30.40625 10.515625 C 31.382812 6.203125 32.25 3.398438 33 2.109375 C 32.351562 2.210938 31.378906 2.773438 30.078125 3.796875 C 28.785156 4.828125 27.519531 5.878906 26.28125 6.953125 C 25.039062 8.035156 24.15625 8.898438 23.625 9.546875 C 21.789062 11.378906 19.6875 13.585938 17.3125 16.171875 C 14.9375 18.765625 12.671875 21.570312 10.515625 24.59375 C 8.359375 27.613281 6.710938 30.660156 5.578125 33.734375 C 4.441406 36.804688 4.203125 39.796875 4.859375 42.703125 C 5.503906 42.816406 5.929688 42.925781 6.140625 43.03125 C 6.359375 43.132812 6.789062 43.1875 7.4375 43.1875 Z M 86.390625 -34.625 C 86.816406 -36.125 87.132812 -37.789062 87.34375 -39.625 C 87.5625 -41.457031 87.78125 -43.1875 88 -44.8125 C 88.644531 -49.445312 89.476562 -54.726562 90.5 -60.65625 C 91.53125 -66.59375 92.640625 -72.523438 93.828125 -78.453125 C 95.015625 -84.390625 96.09375 -89.675781 97.0625 -94.3125 C 97.382812 -95.820312 97.757812 -97.789062 98.1875 -100.21875 C 98.625 -102.644531 99.003906 -105.257812 99.328125 -108.0625 C 99.648438 -110.863281 99.753906 -113.476562 99.640625 -115.90625 C 99.535156 -118.332031 99.050781 -120.242188 98.1875 -121.640625 C 95.925781 -121.535156 93.5 -120.40625 90.90625 -118.25 C 88.320312 -116.09375 85.707031 -113.367188 83.0625 -110.078125 C 80.425781 -106.785156 77.945312 -103.332031 75.625 -99.71875 C 73.300781 -96.113281 71.222656 -92.742188 69.390625 -89.609375 C 67.554688 -86.484375 66.210938 -84.003906 65.359375 -82.171875 L 58.71875 -67.9375 C 57.207031 -64.59375 55.644531 -60.628906 54.03125 -56.046875 C 52.414062 -51.460938 50.90625 -46.851562 49.5 -42.21875 C 48.09375 -37.582031 46.90625 -33.429688 45.9375 -29.765625 C 45.726562 -28.578125 45.328125 -26.878906 44.734375 -24.671875 C 44.140625 -22.460938 43.570312 -20.273438 43.03125 -18.109375 C 42.488281 -15.953125 42.164062 -14.335938 42.0625 -13.265625 C 43.03125 -13.585938 43.972656 -14.070312 44.890625 -14.71875 C 45.804688 -15.363281 46.695312 -15.957031 47.5625 -16.5 L 63.40625 -25.234375 C 65.882812 -26.421875 68.632812 -27.710938 71.65625 -29.109375 C 74.675781 -30.515625 77.535156 -31.703125 80.234375 -32.671875 C 81.316406 -32.890625 82.421875 -33.160156 83.546875 -33.484375 C 84.679688 -33.804688 85.628906 -34.1875 86.390625 -34.625 Z M 6.46875 48.6875 C 3.988281 48.6875 2.019531 47.742188 0.5625 45.859375 C -0.894531 43.972656 -1.625 41.734375 -1.625 39.140625 C -1.507812 35.585938 -0.429688 31.84375 1.609375 27.90625 C 3.660156 23.96875 6.222656 20.109375 9.296875 16.328125 C 12.367188 12.554688 15.550781 9.050781 18.84375 5.8125 C 22.132812 2.582031 25.070312 -0.109375 27.65625 -2.265625 C 29.925781 -4.097656 31.597656 -5.390625 32.671875 -6.140625 C 33.753906 -6.898438 34.507812 -7.628906 34.9375 -8.328125 C 35.375 -9.023438 35.753906 -10.128906 36.078125 -11.640625 C 37.910156 -19.953125 40.09375 -28.609375 42.625 -37.609375 C 45.15625 -46.617188 48.117188 -55.539062 51.515625 -64.375 C 54.921875 -73.21875 58.804688 -81.679688 63.171875 -89.765625 C 67.535156 -97.859375 72.359375 -105.144531 77.640625 -111.625 C 78.828125 -113.132812 80.523438 -115.097656 82.734375 -117.515625 C 84.953125 -119.941406 87.378906 -122.097656 90.015625 -123.984375 C 92.660156 -125.878906 95.222656 -126.828125 97.703125 -126.828125 C 100.503906 -126.828125 102.390625 -125.910156 103.359375 -124.078125 C 104.335938 -122.242188 104.878906 -120.140625 104.984375 -117.765625 C 105.085938 -115.390625 105.140625 -113.34375 105.140625 -111.625 C 105.140625 -109.570312 104.84375 -106.46875 104.25 -102.3125 C 103.664062 -98.164062 102.941406 -93.503906 102.078125 -88.328125 C 101.210938 -83.148438 100.265625 -77.863281 99.234375 -72.46875 C 98.210938 -67.070312 97.296875 -62.082031 96.484375 -57.5 C 95.679688 -52.914062 95.066406 -49.171875 94.640625 -46.265625 C 94.421875 -44.535156 94.175781 -42.96875 93.90625 -41.5625 C 93.632812 -40.164062 93.5 -38.550781 93.5 -36.71875 C 95.332031 -36.71875 96.976562 -36.878906 98.4375 -37.203125 C 99.894531 -37.523438 101.644531 -37.6875 103.6875 -37.6875 C 105.738281 -37.6875 107.085938 -37.203125 107.734375 -36.234375 C 108.378906 -35.265625 108.484375 -34.265625 108.046875 -33.234375 C 107.617188 -32.210938 106.816406 -31.703125 105.640625 -31.703125 C 104.234375 -31.703125 103.664062 -31.835938 103.9375 -32.109375 C 104.207031 -32.378906 103.910156 -32.515625 103.046875 -32.515625 C 102.609375 -32.515625 101.796875 -32.457031 100.609375 -32.34375 C 99.429688 -32.238281 97.765625 -31.972656 95.609375 -31.546875 C 94.097656 -31.222656 93.179688 -30.898438 92.859375 -30.578125 C 92.535156 -30.253906 92.265625 -29.226562 92.046875 -27.5 L 84.28125 56.453125 C 84.28125 58.828125 84.195312 61.171875 84.03125 63.484375 C 83.875 65.804688 83.796875 68.367188 83.796875 71.171875 C 83.796875 74.410156 83.898438 77.023438 84.109375 79.015625 C 84.328125 81.015625 84.300781 82.5 84.03125 83.46875 C 83.757812 84.4375 82.816406 84.921875 81.203125 84.921875 C 80.015625 84.921875 79.125 83.953125 78.53125 82.015625 C 77.9375 80.078125 77.53125 77.734375 77.3125 74.984375 C 77.101562 72.234375 77.023438 69.585938 77.078125 67.046875 C 77.128906 64.515625 77.210938 62.65625 77.328125 61.46875 C 77.328125 60.175781 77.40625 59.207031 77.5625 58.5625 C 77.726562 57.914062 77.8125 56.890625 77.8125 55.484375 C 77.8125 53.546875 77.914062 51.09375 78.125 48.125 C 78.34375 45.15625 78.5625 42.078125 78.78125 38.890625 C 79 35.710938 79.160156 32.882812 79.265625 30.40625 L 84.28125 -16.828125 C 84.5 -18.984375 84.738281 -20.921875 85 -22.640625 C 85.269531 -24.367188 85.40625 -26.363281 85.40625 -28.625 C 83.894531 -27.875 81.898438 -27.09375 79.421875 -26.28125 C 76.941406 -25.476562 74.25 -24.320312 71.34375 -22.8125 C 68.101562 -21.1875 65.484375 -19.890625 63.484375 -18.921875 C 61.492188 -17.953125 59.742188 -17.035156 58.234375 -16.171875 C 56.722656 -15.304688 55.078125 -14.304688 53.296875 -13.171875 C 51.515625 -12.046875 49.171875 -10.566406 46.265625 -8.734375 C 46.046875 -8.628906 45.476562 -8.28125 44.5625 -7.6875 C 43.644531 -7.09375 42.78125 -6.472656 41.96875 -5.828125 C 41.164062 -5.179688 40.710938 -4.800781 40.609375 -4.6875 C 40.285156 -4.363281 39.769531 -2.851562 39.0625 -0.15625 C 38.363281 2.53125 37.421875 5.894531 36.234375 9.9375 C 35.046875 13.988281 33.585938 18.25 31.859375 22.71875 C 30.140625 27.195312 28.066406 31.40625 25.640625 35.34375 C 23.210938 39.28125 20.40625 42.488281 17.21875 44.96875 C 14.039062 47.445312 10.457031 48.6875 6.46875 48.6875 Z M 6.46875 48.6875 "/></g></g></g><g fill="#504081" fill-opacity="1"><g transform="translate(220.726129, 163.039684)"><g><path d="M 11.15625 10.03125 C 12.988281 9.0625 14.847656 7.601562 16.734375 5.65625 C 18.628906 3.71875 20.300781 1.671875 21.75 -0.484375 C 23.207031 -2.640625 24.15625 -4.523438 24.59375 -6.140625 L 16.5 0.8125 C 15.207031 2 14.265625 2.890625 13.671875 3.484375 C 13.078125 4.078125 12.644531 4.800781 12.375 5.65625 C 12.101562 6.519531 11.695312 7.976562 11.15625 10.03125 Z M 15.203125 -4.203125 C 15.742188 -4.523438 16.066406 -4.765625 16.171875 -4.921875 C 16.285156 -5.085938 16.554688 -5.390625 16.984375 -5.828125 C 17.628906 -6.253906 18.222656 -6.6875 18.765625 -7.125 C 21.140625 -9.164062 22.945312 -10.671875 24.1875 -11.640625 C 25.425781 -12.617188 26.285156 -13.429688 26.765625 -14.078125 C 27.253906 -14.722656 27.523438 -15.472656 27.578125 -16.328125 C 27.628906 -17.191406 27.65625 -18.539062 27.65625 -20.375 C 27.65625 -22.863281 27.171875 -24.109375 26.203125 -24.109375 C 25.453125 -24.109375 24.484375 -23.378906 23.296875 -21.921875 C 22.109375 -20.460938 20.921875 -18.628906 19.734375 -16.421875 C 18.546875 -14.210938 17.519531 -12 16.65625 -9.78125 C 15.800781 -7.570312 15.316406 -5.710938 15.203125 -4.203125 Z M 0 -0.640625 C 0 -1.941406 0.101562 -4.453125 0.3125 -8.171875 C 0.53125 -11.890625 0.882812 -16.144531 1.375 -20.9375 C 1.863281 -25.738281 2.484375 -30.378906 3.234375 -34.859375 C 3.992188 -39.335938 4.910156 -43.054688 5.984375 -46.015625 C 7.066406 -48.984375 8.304688 -50.46875 9.703125 -50.46875 C 10.460938 -50.46875 11.21875 -50.253906 11.96875 -49.828125 C 12.289062 -48.640625 12.453125 -47.773438 12.453125 -47.234375 C 12.453125 -46.691406 12.367188 -46.097656 12.203125 -45.453125 C 12.046875 -44.804688 11.753906 -43.566406 11.328125 -41.734375 C 9.816406 -34.078125 8.707031 -26.554688 8 -19.171875 C 7.300781 -11.785156 6.953125 -4.046875 6.953125 4.046875 C 7.710938 3.503906 8.492188 2.019531 9.296875 -0.40625 C 10.109375 -2.832031 11.050781 -5.632812 12.125 -8.8125 C 13.207031 -12 14.394531 -15.15625 15.6875 -18.28125 C 16.976562 -21.40625 18.488281 -23.992188 20.21875 -26.046875 C 21.945312 -28.097656 23.941406 -29.125 26.203125 -29.125 C 28.578125 -29.125 30.328125 -28.015625 31.453125 -25.796875 C 32.585938 -23.585938 33.15625 -21.351562 33.15625 -19.09375 C 33.800781 -19.300781 34.554688 -19.703125 35.421875 -20.296875 C 36.285156 -20.890625 37.039062 -21.40625 37.6875 -21.84375 C 38.769531 -22.59375 40.035156 -23.503906 41.484375 -24.578125 C 42.941406 -25.660156 44.367188 -26.632812 45.765625 -27.5 C 47.171875 -28.363281 48.304688 -28.796875 49.171875 -28.796875 C 50.140625 -28.796875 50.625 -28.148438 50.625 -26.859375 C 50.625 -26.316406 49.816406 -25.394531 48.203125 -24.09375 C 46.585938 -22.800781 44.703125 -21.398438 42.546875 -19.890625 C 40.390625 -18.378906 38.363281 -16.976562 36.46875 -15.6875 C 34.582031 -14.394531 33.375 -13.425781 32.84375 -12.78125 C 32.519531 -12.34375 32.003906 -11.125 31.296875 -9.125 C 30.597656 -7.132812 29.628906 -4.765625 28.390625 -2.015625 C 27.148438 0.734375 25.476562 3.484375 23.375 6.234375 C 21.269531 8.984375 18.546875 11.328125 15.203125 13.265625 C 14.554688 13.585938 13.828125 13.910156 13.015625 14.234375 C 12.210938 14.554688 11.539062 14.9375 11 15.375 C 10.25 15.800781 9.628906 17.09375 9.140625 19.25 C 8.648438 21.40625 8.296875 23.613281 8.078125 25.875 C 7.867188 28.144531 7.765625 29.765625 7.765625 30.734375 C 7.765625 32.671875 7.898438 34.800781 8.171875 37.125 C 8.441406 39.445312 8.519531 41.414062 8.40625 43.03125 C 8.300781 44.644531 7.65625 45.453125 6.46875 45.453125 C 5.28125 45.453125 4.578125 45.070312 4.359375 44.3125 C 4.148438 43.5625 3.9375 42.488281 3.71875 41.09375 C 2.75 34.289062 1.882812 27.359375 1.125 20.296875 C 0.375 13.234375 0 6.253906 0 -0.640625 Z M 0 -0.640625 "/></g></g></g><g fill="#504081" fill-opacity="1"><g transform="translate(266.017195, 163.039684)"><g><path d="M 11.15625 10.03125 C 12.988281 9.0625 14.847656 7.601562 16.734375 5.65625 C 18.628906 3.71875 20.300781 1.671875 21.75 -0.484375 C 23.207031 -2.640625 24.15625 -4.523438 24.59375 -6.140625 L 16.5 0.8125 C 15.207031 2 14.265625 2.890625 13.671875 3.484375 C 13.078125 4.078125 12.644531 4.800781 12.375 5.65625 C 12.101562 6.519531 11.695312 7.976562 11.15625 10.03125 Z M 15.203125 -4.203125 C 15.742188 -4.523438 16.066406 -4.765625 16.171875 -4.921875 C 16.285156 -5.085938 16.554688 -5.390625 16.984375 -5.828125 C 17.628906 -6.253906 18.222656 -6.6875 18.765625 -7.125 C 21.140625 -9.164062 22.945312 -10.671875 24.1875 -11.640625 C 25.425781 -12.617188 26.285156 -13.429688 26.765625 -14.078125 C 27.253906 -14.722656 27.523438 -15.472656 27.578125 -16.328125 C 27.628906 -17.191406 27.65625 -18.539062 27.65625 -20.375 C 27.65625 -22.863281 27.171875 -24.109375 26.203125 -24.109375 C 25.453125 -24.109375 24.484375 -23.378906 23.296875 -21.921875 C 22.109375 -20.460938 20.921875 -18.628906 19.734375 -16.421875 C 18.546875 -14.210938 17.519531 -12 16.65625 -9.78125 C 15.800781 -7.570312 15.316406 -5.710938 15.203125 -4.203125 Z M 0 -0.640625 C 0 -1.941406 0.101562 -4.453125 0.3125 -8.171875 C 0.53125 -11.890625 0.882812 -16.144531 1.375 -20.9375 C 1.863281 -25.738281 2.484375 -30.378906 3.234375 -34.859375 C 3.992188 -39.335938 4.910156 -43.054688 5.984375 -46.015625 C 7.066406 -48.984375 8.304688 -50.46875 9.703125 -50.46875 C 10.460938 -50.46875 11.21875 -50.253906 11.96875 -49.828125 C 12.289062 -48.640625 12.453125 -47.773438 12.453125 -47.234375 C 12.453125 -46.691406 12.367188 -46.097656 12.203125 -45.453125 C 12.046875 -44.804688 11.753906 -43.566406 11.328125 -41.734375 C 9.816406 -34.078125 8.707031 -26.554688 8 -19.171875 C 7.300781 -11.785156 6.953125 -4.046875 6.953125 4.046875 C 7.710938 3.503906 8.492188 2.019531 9.296875 -0.40625 C 10.109375 -2.832031 11.050781 -5.632812 12.125 -8.8125 C 13.207031 -12 14.394531 -15.15625 15.6875 -18.28125 C 16.976562 -21.40625 18.488281 -23.992188 20.21875 -26.046875 C 21.945312 -28.097656 23.941406 -29.125 26.203125 -29.125 C 28.578125 -29.125 30.328125 -28.015625 31.453125 -25.796875 C 32.585938 -23.585938 33.15625 -21.351562 33.15625 -19.09375 C 33.800781 -19.300781 34.554688 -19.703125 35.421875 -20.296875 C 36.285156 -20.890625 37.039062 -21.40625 37.6875 -21.84375 C 38.769531 -22.59375 40.035156 -23.503906 41.484375 -24.578125 C 42.941406 -25.660156 44.367188 -26.632812 45.765625 -27.5 C 47.171875 -28.363281 48.304688 -28.796875 49.171875 -28.796875 C 50.140625 -28.796875 50.625 -28.148438 50.625 -26.859375 C 50.625 -26.316406 49.816406 -25.394531 48.203125 -24.09375 C 46.585938 -22.800781 44.703125 -21.398438 42.546875 -19.890625 C 40.390625 -18.378906 38.363281 -16.976562 36.46875 -15.6875 C 34.582031 -14.394531 33.375 -13.425781 32.84375 -12.78125 C 32.519531 -12.34375 32.003906 -11.125 31.296875 -9.125 C 30.597656 -7.132812 29.628906 -4.765625 28.390625 -2.015625 C 27.148438 0.734375 25.476562 3.484375 23.375 6.234375 C 21.269531 8.984375 18.546875 11.328125 15.203125 13.265625 C 14.554688 13.585938 13.828125 13.910156 13.015625 14.234375 C 12.210938 14.554688 11.539062 14.9375 11 15.375 C 10.25 15.800781 9.628906 17.09375 9.140625 19.25 C 8.648438 21.40625 8.296875 23.613281 8.078125 25.875 C 7.867188 28.144531 7.765625 29.765625 7.765625 30.734375 C 7.765625 32.671875 7.898438 34.800781 8.171875 37.125 C 8.441406 39.445312 8.519531 41.414062 8.40625 43.03125 C 8.300781 44.644531 7.65625 45.453125 6.46875 45.453125 C 5.28125 45.453125 4.578125 45.070312 4.359375 44.3125 C 4.148438 43.5625 3.9375 42.488281 3.71875 41.09375 C 2.75 34.289062 1.882812 27.359375 1.125 20.296875 C 0.375 13.234375 0 6.253906 0 -0.640625 Z M 0 -0.640625 "/></g></g></g><g fill="#504081" fill-opacity="1"><g transform="translate(311.308261, 163.039684)"><g><path d="M 1.9375 26.6875 C 1.9375 28.957031 2.640625 30.09375 4.046875 30.09375 C 4.796875 30.09375 5.601562 29.820312 6.46875 29.28125 C 7.332031 28.738281 8.035156 28.253906 8.578125 27.828125 C 10.734375 26.203125 12.644531 23.742188 14.3125 20.453125 C 15.988281 17.171875 17.203125 14.179688 17.953125 11.484375 C 18.492188 9.648438 18.789062 7.789062 18.84375 5.90625 C 18.894531 4.019531 18.921875 1.941406 18.921875 -0.328125 C 17.628906 0.429688 16.144531 1.753906 14.46875 3.640625 C 12.800781 5.523438 11.484375 7.0625 10.515625 8.25 C 8.578125 10.625 6.660156 13.484375 4.765625 16.828125 C 2.878906 20.171875 1.9375 23.457031 1.9375 26.6875 Z M 0.484375 -26.203125 C 0.484375 -29.003906 1.238281 -31.507812 2.75 -33.71875 C 4.257812 -35.9375 6.066406 -37.71875 8.171875 -39.0625 C 10.273438 -40.414062 12.082031 -41.09375 13.59375 -41.09375 C 14.78125 -41.09375 15.664062 -40.660156 16.25 -39.796875 C 16.84375 -38.929688 16.875 -37.472656 16.34375 -35.421875 C 15.039062 -35.097656 14.117188 -34.910156 13.578125 -34.859375 C 13.046875 -34.804688 12.617188 -34.644531 12.296875 -34.375 C 11.972656 -34.101562 11.378906 -33.484375 10.515625 -32.515625 C 8.359375 -30.140625 7.359375 -28.222656 7.515625 -26.765625 C 7.679688 -25.316406 8.546875 -23.972656 10.109375 -22.734375 C 11.671875 -21.492188 13.609375 -19.957031 15.921875 -18.125 C 18.242188 -16.289062 20.429688 -13.804688 22.484375 -10.671875 C 24.859375 -12.296875 27.285156 -14.1875 29.765625 -16.34375 L 44.8125 -26.859375 C 46.207031 -27.828125 47.414062 -28.5 48.4375 -28.875 C 49.46875 -29.25 50.363281 -29.4375 51.125 -29.4375 C 52.414062 -29.4375 52.953125 -28.894531 52.734375 -27.8125 C 52.515625 -26.738281 51.488281 -25.664062 49.65625 -24.59375 L 38.65625 -16.984375 C 38.226562 -16.765625 37.3125 -16.144531 35.90625 -15.125 C 34.507812 -14.101562 32.972656 -12.972656 31.296875 -11.734375 C 29.628906 -10.492188 28.203125 -9.332031 27.015625 -8.25 C 25.828125 -7.164062 25.179688 -6.460938 25.078125 -6.140625 C 24.960938 -5.609375 25.117188 -4.585938 25.546875 -3.078125 C 25.984375 -1.566406 26.28125 0.398438 26.4375 2.828125 C 26.601562 5.253906 26.28125 8.21875 25.46875 11.71875 C 24.664062 15.226562 22.914062 19.300781 20.21875 23.9375 C 17.84375 27.925781 15.253906 30.863281 12.453125 32.75 C 9.648438 34.644531 7.007812 35.59375 4.53125 35.59375 C 2.257812 35.59375 0.398438 34.835938 -1.046875 33.328125 C -2.503906 31.816406 -3.234375 29.601562 -3.234375 26.6875 C -3.234375 23.019531 -2.34375 19.460938 -0.5625 16.015625 C 1.21875 12.566406 3.347656 9.382812 5.828125 6.46875 C 8.304688 3.5625 10.597656 1.054688 12.703125 -1.046875 C 14.804688 -3.148438 16.179688 -4.6875 16.828125 -5.65625 C 15.523438 -7.925781 13.957031 -9.894531 12.125 -11.5625 C 10.289062 -13.238281 8.484375 -14.773438 6.703125 -16.171875 C 4.929688 -17.578125 3.453125 -19.0625 2.265625 -20.625 C 1.078125 -22.1875 0.484375 -24.046875 0.484375 -26.203125 Z M 0.484375 -26.203125 "/></g></g></g><g fill="#504081" fill-opacity="1"><g transform="translate(358.055118, 163.039684)"><g/></g></g><g fill="#504081" fill-opacity="1"><g transform="translate(399.949372, 163.039684)"><g><path d="M 11 -19.40625 C 11 -22.101562 11.59375 -25.148438 12.78125 -28.546875 C 13.96875 -31.941406 15.53125 -35.421875 17.46875 -38.984375 C 19.40625 -42.546875 21.476562 -45.914062 23.6875 -49.09375 C 25.90625 -52.28125 28.039062 -54.953125 30.09375 -57.109375 C 31.925781 -59.046875 33.03125 -60.335938 33.40625 -60.984375 C 33.78125 -61.628906 33.910156 -62.140625 33.796875 -62.515625 C 33.691406 -62.898438 33.75 -63.738281 33.96875 -65.03125 C 34.1875 -66.539062 34.59375 -68.078125 35.1875 -69.640625 C 35.78125 -71.203125 36.453125 -72.628906 37.203125 -73.921875 C 39.148438 -77.160156 41.925781 -80.207031 45.53125 -83.0625 C 49.144531 -85.925781 52.863281 -88.21875 56.6875 -89.9375 C 60.519531 -91.664062 63.625 -92.53125 66 -92.53125 C 68.582031 -92.53125 69.875 -91.503906 69.875 -89.453125 C 69.875 -88.378906 69.601562 -87.460938 69.0625 -86.703125 C 68.53125 -85.953125 67.882812 -85.144531 67.125 -84.28125 L 60.828125 -78.625 C 58.128906 -76.25 55.347656 -73.953125 52.484375 -71.734375 C 49.628906 -69.523438 46.851562 -67.179688 44.15625 -64.703125 C 43.40625 -63.953125 42.515625 -62.984375 41.484375 -61.796875 C 40.460938 -60.609375 39.519531 -59.742188 38.65625 -59.203125 C 39.738281 -54.785156 41.410156 -50.582031 43.671875 -46.59375 C 45.941406 -42.601562 48.691406 -38.988281 51.921875 -35.75 C 52.460938 -35.320312 52.785156 -35 52.890625 -34.78125 C 53.003906 -34.5625 53.273438 -34.238281 53.703125 -33.8125 L 62.921875 -25.078125 C 63.566406 -25.503906 64.914062 -26.632812 66.96875 -28.46875 C 69.019531 -30.300781 71.203125 -32.320312 73.515625 -34.53125 C 75.835938 -36.75 77.890625 -38.664062 79.671875 -40.28125 C 81.453125 -41.894531 82.503906 -42.703125 82.828125 -42.703125 C 83.796875 -42.703125 84.28125 -42.21875 84.28125 -41.25 C 84.28125 -40.601562 84.035156 -40.0625 83.546875 -39.625 C 83.066406 -39.195312 82.664062 -38.769531 82.34375 -38.34375 L 72.953125 -28.625 C 72.523438 -28.09375 72.117188 -27.71875 71.734375 -27.5 C 71.359375 -27.28125 70.90625 -26.90625 70.375 -26.375 C 69.71875 -25.832031 68.929688 -25.070312 68.015625 -24.09375 C 67.097656 -23.125 66.375 -22.316406 65.84375 -21.671875 C 66.59375 -21.347656 67.910156 -20.320312 69.796875 -18.59375 C 71.679688 -16.875 73.566406 -15.039062 75.453125 -13.09375 C 77.347656 -11.15625 78.671875 -9.703125 79.421875 -8.734375 L 82.65625 -5.34375 C 82.769531 -5.226562 83.203125 -4.820312 83.953125 -4.125 C 84.710938 -3.425781 85.46875 -2.644531 86.21875 -1.78125 C 86.976562 -0.914062 87.460938 -0.160156 87.671875 0.484375 C 87.890625 1.128906 87.515625 1.453125 86.546875 1.453125 C 86.109375 1.453125 85.023438 0.859375 83.296875 -0.328125 C 81.578125 -1.515625 79.640625 -2.96875 77.484375 -4.6875 C 75.328125 -6.414062 73.332031 -8.0625 71.5 -9.625 C 69.664062 -11.1875 68.375 -12.347656 67.625 -13.109375 L 61.796875 -17.953125 C 59.523438 -16.015625 57.71875 -14.34375 56.375 -12.9375 C 55.03125 -11.539062 52.953125 -9.765625 50.140625 -7.609375 C 47.015625 -5.335938 43.59375 -3.203125 39.875 -1.203125 C 36.15625 0.785156 32.351562 1.78125 28.46875 1.78125 C 25.019531 1.78125 21.734375 0.753906 18.609375 -1.296875 C 15.367188 -3.453125 13.289062 -6.09375 12.375 -9.21875 C 11.457031 -12.34375 11 -15.738281 11 -19.40625 Z M 29.125 -3.71875 C 31.925781 -3.71875 34.753906 -4.363281 37.609375 -5.65625 C 40.460938 -6.957031 43.179688 -8.523438 45.765625 -10.359375 C 48.359375 -12.191406 50.628906 -13.914062 52.578125 -15.53125 C 53.222656 -16.070312 54.269531 -16.988281 55.71875 -18.28125 C 57.175781 -19.570312 58.125 -20.488281 58.5625 -21.03125 C 57.914062 -21.894531 56.753906 -23.109375 55.078125 -24.671875 C 53.410156 -26.234375 52.144531 -27.5 51.28125 -28.46875 L 46.109375 -34.296875 C 44.804688 -35.585938 43.289062 -37.550781 41.5625 -40.1875 C 39.84375 -42.832031 38.304688 -45.53125 36.953125 -48.28125 C 35.609375 -51.03125 34.832031 -53.21875 34.625 -54.84375 C 32.03125 -51.925781 29.273438 -48.390625 26.359375 -44.234375 C 23.453125 -40.085938 20.972656 -35.773438 18.921875 -31.296875 C 16.878906 -26.828125 15.859375 -22.539062 15.859375 -18.4375 C 15.859375 -14.445312 16.800781 -10.992188 18.6875 -8.078125 C 20.570312 -5.171875 23.398438 -3.71875 27.171875 -3.71875 Z M 39.3125 -66.96875 L 45.625 -72.3125 C 47.457031 -74.03125 49.453125 -75.753906 51.609375 -77.484375 C 53.765625 -79.210938 55.8125 -80.832031 57.75 -82.34375 L 62.28125 -86.390625 C 62.820312 -86.710938 63.09375 -86.875 63.09375 -86.875 C 63.09375 -86.875 63.304688 -87.140625 63.734375 -87.671875 C 61.679688 -87.460938 59.304688 -86.679688 56.609375 -85.328125 C 53.921875 -83.984375 51.304688 -82.3125 48.765625 -80.3125 C 46.234375 -78.320312 44.078125 -76.164062 42.296875 -73.84375 C 40.515625 -71.53125 39.519531 -69.238281 39.3125 -66.96875 Z M 39.3125 -66.96875 "/></g></g></g><g fill="#504081" fill-opacity="1"><g transform="translate(492.957812, 163.039684)"><g/></g></g><g fill="#504081" fill-opacity="1"><g transform="translate(534.852043, 163.039684)"><g><path d="M 103.046875 -129.09375 C 103.046875 -129.625 103.445312 -130.101562 104.25 -130.53125 C 105.0625 -130.96875 105.6875 -131.242188 106.125 -131.359375 C 106.976562 -130.492188 107.863281 -128.738281 108.78125 -126.09375 C 109.695312 -123.457031 110.53125 -120.570312 111.28125 -117.4375 C 112.039062 -114.3125 112.691406 -111.425781 113.234375 -108.78125 C 113.773438 -106.144531 114.097656 -104.34375 114.203125 -103.375 C 115.390625 -96.570312 116.492188 -89.878906 117.515625 -83.296875 C 118.546875 -76.722656 119.0625 -70.039062 119.0625 -63.25 C 118.945312 -61.3125 119 -59.828125 119.21875 -58.796875 C 119.4375 -57.773438 119.546875 -56.347656 119.546875 -54.515625 L 119.390625 -44 C 119.390625 -43.675781 119.414062 -43.457031 119.46875 -43.34375 C 119.519531 -43.238281 119.492188 -42.914062 119.390625 -42.375 C 118.734375 -33.425781 118.023438 -25.097656 117.265625 -17.390625 C 116.515625 -9.679688 115.492188 -2.210938 114.203125 5.015625 C 112.910156 12.242188 111.210938 19.550781 109.109375 26.9375 C 107.003906 34.320312 104.28125 42.21875 100.9375 50.625 C 100.1875 52.570312 99.082031 54.972656 97.625 57.828125 C 96.164062 60.691406 94.519531 63.660156 92.6875 66.734375 C 90.851562 69.804688 88.992188 72.609375 87.109375 75.140625 C 85.222656 77.671875 83.472656 79.582031 81.859375 80.875 C 79.703125 82.601562 77.4375 84.140625 75.0625 85.484375 C 72.6875 86.835938 70.207031 87.515625 67.625 87.515625 C 64.164062 87.515625 60.898438 86.300781 57.828125 83.875 C 54.753906 81.445312 52.410156 78.78125 50.796875 75.875 C 48.640625 72.414062 46.832031 68.175781 45.375 63.15625 C 43.914062 58.144531 42.753906 52.753906 41.890625 46.984375 C 41.035156 41.222656 40.414062 35.398438 40.03125 29.515625 C 39.65625 23.640625 39.410156 18.0625 39.296875 12.78125 C 39.191406 7.5 39.140625 2.914062 39.140625 -0.96875 C 39.140625 -2.582031 39.21875 -3.765625 39.375 -4.515625 C 39.539062 -5.273438 39.625 -6.410156 39.625 -7.921875 C 39.625 -10.078125 39.597656 -12.503906 39.546875 -15.203125 C 39.492188 -17.898438 39.519531 -20.273438 39.625 -22.328125 C 39.84375 -23.515625 39.976562 -24.59375 40.03125 -25.5625 C 40.09375 -26.53125 40.125 -27.769531 40.125 -29.28125 C 40.125 -30.570312 40.226562 -32.375 40.4375 -34.6875 C 40.65625 -37.007812 40.84375 -39.519531 41 -42.21875 C 41.164062 -44.914062 41.25 -47.394531 41.25 -49.65625 L 40.4375 -48.375 C 40.332031 -48.039062 40.28125 -47.789062 40.28125 -47.625 C 40.28125 -47.46875 40.171875 -47.175781 39.953125 -46.75 L 26.53125 -5.984375 C 25.5625 -3.179688 24.457031 0.160156 23.21875 4.046875 C 21.976562 7.929688 20.65625 11.972656 19.25 16.171875 C 17.84375 20.378906 16.492188 24.316406 15.203125 27.984375 C 13.910156 31.648438 12.722656 34.613281 11.640625 36.875 C 10.347656 39.46875 9.378906 41.488281 8.734375 42.9375 C 8.085938 44.394531 7.359375 45.394531 6.546875 45.9375 C 5.742188 46.476562 4.425781 46.75 2.59375 46.75 C 1.613281 46.75 0.851562 46.101562 0.3125 44.8125 C -0.21875 43.519531 -0.617188 42.007812 -0.890625 40.28125 C -1.160156 38.550781 -1.320312 36.929688 -1.375 35.421875 C -1.425781 33.910156 -1.453125 32.941406 -1.453125 32.515625 C -1.347656 31.328125 -1.320312 30.515625 -1.375 30.078125 C -1.425781 29.648438 -1.398438 28.898438 -1.296875 27.828125 C -0.859375 23.941406 -0.613281 20.140625 -0.5625 16.421875 C -0.507812 12.703125 -0.210938 9.007812 0.328125 5.34375 C 1.191406 -0.375 1.890625 -5.253906 2.421875 -9.296875 C 2.960938 -13.347656 3.582031 -17.445312 4.28125 -21.59375 C 4.988281 -25.75 5.9375 -30.738281 7.125 -36.5625 L 9.546875 -46.59375 C 9.765625 -47.5625 9.976562 -48.421875 10.1875 -49.171875 C 10.40625 -49.929688 10.625 -50.796875 10.84375 -51.765625 L 23.296875 -93.34375 C 23.722656 -94.414062 24.046875 -95.222656 24.265625 -95.765625 C 24.484375 -96.304688 24.804688 -97.007812 25.234375 -97.875 C 26.960938 -101.96875 28.226562 -104.796875 29.03125 -106.359375 C 29.84375 -107.921875 31.054688 -108.703125 32.671875 -108.703125 C 33.429688 -108.703125 34.347656 -108.539062 35.421875 -108.21875 C 35.859375 -106.382812 36.046875 -105.117188 35.984375 -104.421875 C 35.929688 -103.722656 35.742188 -103.238281 35.421875 -102.96875 C 35.097656 -102.695312 34.664062 -102.179688 34.125 -101.421875 C 33.59375 -100.890625 32.835938 -99.351562 31.859375 -96.8125 C 30.890625 -94.28125 29.894531 -91.421875 28.875 -88.234375 C 27.851562 -85.054688 26.910156 -82.066406 26.046875 -79.265625 C 25.179688 -76.460938 24.585938 -74.578125 24.265625 -73.609375 C 23.503906 -70.796875 22.75 -68.015625 22 -65.265625 C 21.25 -62.515625 20.441406 -59.6875 19.578125 -56.78125 L 13.59375 -30.734375 C 12.726562 -25.878906 11.972656 -21.617188 11.328125 -17.953125 C 10.679688 -14.285156 10.113281 -10.78125 9.625 -7.4375 C 9.132812 -4.09375 8.617188 -0.617188 8.078125 2.984375 C 7.546875 6.597656 6.957031 10.832031 6.3125 15.6875 C 5.875 18.8125 5.601562 22.046875 5.5 25.390625 C 5.394531 28.734375 5.34375 32.296875 5.34375 36.078125 L 6.46875 33.640625 C 7.65625 31.054688 8.921875 27.929688 10.265625 24.265625 C 11.617188 20.597656 12.941406 16.929688 14.234375 13.265625 C 15.523438 9.597656 16.601562 6.414062 17.46875 3.71875 L 39.140625 -62.609375 C 39.679688 -64.328125 40.300781 -66.179688 41 -68.171875 C 41.707031 -70.171875 42.816406 -71.390625 44.328125 -71.828125 C 44.648438 -71.929688 45.023438 -71.984375 45.453125 -71.984375 C 46.960938 -71.984375 47.988281 -71.066406 48.53125 -69.234375 C 49.070312 -67.398438 49.34375 -65.160156 49.34375 -62.515625 C 49.34375 -59.878906 49.257812 -57.289062 49.09375 -54.75 C 48.9375 -52.21875 48.859375 -50.195312 48.859375 -48.6875 L 47.234375 -20.875 C 47.015625 -18.707031 46.957031 -16.273438 47.0625 -13.578125 C 47.175781 -10.890625 47.234375 -8.410156 47.234375 -6.140625 C 47.234375 -5.066406 47.175781 -3.851562 47.0625 -2.5 C 46.957031 -1.15625 46.90625 -0.109375 46.90625 0.640625 C 47.019531 2.046875 47.046875 2.9375 46.984375 3.3125 C 46.929688 3.6875 46.878906 4.195312 46.828125 4.84375 C 46.773438 5.5 46.800781 7.007812 46.90625 9.375 C 47.125 11.644531 47.207031 14.71875 47.15625 18.59375 C 47.101562 22.476562 47.238281 25.988281 47.5625 29.125 C 47.882812 31.8125 48.097656 34.179688 48.203125 36.234375 C 48.316406 38.285156 48.476562 40.414062 48.6875 42.625 C 48.90625 44.832031 49.335938 47.609375 49.984375 50.953125 C 50.410156 53.109375 51.03125 55.882812 51.84375 59.28125 C 52.65625 62.675781 53.734375 66.046875 55.078125 69.390625 C 56.429688 72.734375 58.15625 75.535156 60.25 77.796875 C 62.351562 80.066406 64.914062 81.203125 67.9375 81.203125 C 70.632812 81.203125 73.273438 80.125 75.859375 77.96875 C 78.453125 75.8125 80.878906 73.140625 83.140625 69.953125 C 85.410156 66.773438 87.40625 63.59375 89.125 60.40625 C 90.851562 57.226562 92.203125 54.5625 93.171875 52.40625 C 96.410156 45.71875 99.1875 38.597656 101.5 31.046875 C 103.820312 23.503906 105.765625 15.820312 107.328125 8 C 108.890625 0.1875 110.101562 -7.332031 110.96875 -14.5625 C 112.375 -26.207031 113.15625 -38.445312 113.3125 -51.28125 C 113.476562 -64.113281 112.695312 -76.351562 110.96875 -88 C 109.894531 -94.6875 108.765625 -100.398438 107.578125 -105.140625 C 106.390625 -109.890625 105.3125 -115.125 104.34375 -120.84375 C 104.125 -122.351562 103.851562 -123.753906 103.53125 -125.046875 C 103.207031 -126.335938 103.046875 -127.6875 103.046875 -129.09375 Z M 103.046875 -129.09375 "/></g></g></g><g fill="#504081" fill-opacity="1"><g transform="translate(662.637589, 163.039684)"><g><path d="M 7.4375 -29.28125 C 9.488281 -30.351562 11.753906 -31.832031 14.234375 -33.71875 C 16.710938 -35.613281 18.0625 -37.851562 18.28125 -40.4375 C 16.875 -40.226562 15.390625 -39.472656 13.828125 -38.171875 C 12.265625 -36.878906 10.914062 -35.421875 9.78125 -33.796875 C 8.65625 -32.179688 7.875 -30.675781 7.4375 -29.28125 Z M 0.15625 -25.390625 C 0.15625 -28.085938 1.046875 -31 2.828125 -34.125 C 4.609375 -37.257812 6.816406 -39.929688 9.453125 -42.140625 C 12.097656 -44.347656 14.71875 -45.453125 17.3125 -45.453125 C 20.863281 -45.453125 22.71875 -44.101562 22.875 -41.40625 C 23.039062 -38.71875 21.882812 -35.804688 19.40625 -32.671875 C 18.113281 -31.273438 16.171875 -29.660156 13.578125 -27.828125 C 10.992188 -25.992188 8.460938 -24.96875 5.984375 -24.75 C 5.984375 -23.019531 6.035156 -21.484375 6.140625 -20.140625 C 6.253906 -18.796875 7.007812 -17.421875 8.40625 -16.015625 C 9.8125 -14.609375 11.59375 -13.90625 13.75 -13.90625 C 16.550781 -13.90625 19.460938 -14.796875 22.484375 -16.578125 C 25.503906 -18.359375 27.820312 -19.84375 29.4375 -21.03125 C 30.082031 -21.570312 30.59375 -22.003906 30.96875 -22.328125 C 31.351562 -22.648438 31.816406 -23.023438 32.359375 -23.453125 C 34.617188 -25.179688 36.046875 -26.445312 36.640625 -27.25 C 37.234375 -28.0625 37.742188 -28.601562 38.171875 -28.875 C 38.609375 -29.144531 39.632812 -29.28125 41.25 -29.28125 C 41.46875 -28.09375 41.546875 -27.28125 41.484375 -26.84375 C 41.429688 -26.414062 41.03125 -25.769531 40.28125 -24.90625 C 38.34375 -22.96875 35.890625 -20.757812 32.921875 -18.28125 C 29.953125 -15.800781 26.769531 -13.644531 23.375 -11.8125 C 19.976562 -9.976562 16.609375 -9.0625 13.265625 -9.0625 C 11.535156 -9.0625 9.890625 -9.359375 8.328125 -9.953125 C 6.765625 -10.546875 5.28125 -11.539062 3.875 -12.9375 C 1.9375 -14.882812 0.832031 -16.878906 0.5625 -18.921875 C 0.289062 -20.972656 0.15625 -23.128906 0.15625 -25.390625 Z M 0.15625 -25.390625 "/></g></g></g><g fill="#504081" fill-opacity="1"><g transform="translate(697.738173, 163.039684)"><g><path d="M 7.4375 19.890625 C 10.675781 19.890625 13.613281 18.726562 16.25 16.40625 C 18.894531 14.09375 21.1875 11.375 23.125 8.25 C 25.070312 5.125 26.691406 2.375 27.984375 0 C 27.335938 0.21875 26.039062 0.8125 24.09375 1.78125 C 22.15625 2.75 20.21875 3.769531 18.28125 4.84375 C 16.34375 5.925781 14.992188 6.738281 14.234375 7.28125 C 12.828125 8.144531 11.316406 9.273438 9.703125 10.671875 C 8.085938 12.078125 6.710938 13.476562 5.578125 14.875 C 4.441406 16.28125 3.957031 17.46875 4.125 18.4375 C 4.289062 19.40625 5.394531 19.890625 7.4375 19.890625 Z M 2.265625 -10.1875 C 2.265625 -14.289062 2.425781 -19.332031 2.75 -25.3125 C 3.070312 -31.300781 3.554688 -37.609375 4.203125 -44.234375 C 4.847656 -50.867188 5.707031 -57.148438 6.78125 -63.078125 C 7.863281 -69.015625 9.160156 -73.867188 10.671875 -77.640625 C 11.535156 -79.796875 12.34375 -81.28125 13.09375 -82.09375 C 13.851562 -82.90625 14.554688 -83.3125 15.203125 -83.3125 C 15.960938 -83.3125 16.554688 -82.929688 16.984375 -82.171875 C 17.410156 -81.421875 17.570312 -80.773438 17.46875 -80.234375 C 17.46875 -80.015625 17.332031 -79.445312 17.0625 -78.53125 C 16.789062 -77.613281 16.601562 -76.78125 16.5 -76.03125 C 15.632812 -72.6875 14.71875 -68.289062 13.75 -62.84375 C 12.78125 -57.394531 11.890625 -51.597656 11.078125 -45.453125 C 10.273438 -39.304688 9.628906 -33.484375 9.140625 -27.984375 C 8.648438 -22.484375 8.40625 -18.113281 8.40625 -14.875 L 11.96875 -20.703125 C 12.507812 -21.785156 13.078125 -22.785156 13.671875 -23.703125 C 14.265625 -24.617188 14.9375 -25.453125 15.6875 -26.203125 C 17.414062 -28.578125 19.359375 -30.4375 21.515625 -31.78125 C 23.671875 -33.132812 25.773438 -33.8125 27.828125 -33.8125 C 31.273438 -33.8125 34.023438 -31.976562 36.078125 -28.3125 C 37.910156 -24.75 38.664062 -21.566406 38.34375 -18.765625 C 38.019531 -15.960938 37.859375 -13.320312 37.859375 -10.84375 C 39.898438 -11.914062 41.539062 -12.773438 42.78125 -13.421875 C 44.019531 -14.066406 45.234375 -14.765625 46.421875 -15.515625 C 47.609375 -16.273438 49.175781 -17.359375 51.125 -18.765625 C 52.09375 -19.515625 53.410156 -20.59375 55.078125 -22 C 56.753906 -23.40625 58.347656 -24.726562 59.859375 -25.96875 C 61.367188 -27.207031 62.285156 -27.828125 62.609375 -27.828125 C 64.222656 -27.828125 65.109375 -27.472656 65.265625 -26.765625 C 65.429688 -26.066406 65.160156 -25.257812 64.453125 -24.34375 C 63.753906 -23.425781 63.023438 -22.617188 62.265625 -21.921875 C 61.515625 -21.222656 61.035156 -20.816406 60.828125 -20.703125 C 59.640625 -19.410156 58.394531 -18.28125 57.09375 -17.3125 C 55.800781 -16.34375 54.507812 -15.265625 53.21875 -14.078125 C 51.488281 -12.890625 49.300781 -11.515625 46.65625 -9.953125 C 44.019531 -8.390625 41.648438 -6.984375 39.546875 -5.734375 C 37.441406 -4.492188 36.226562 -3.660156 35.90625 -3.234375 C 35.582031 -2.691406 35.070312 -1.476562 34.375 0.40625 C 33.675781 2.289062 32.675781 4.5 31.375 7.03125 C 30.082031 9.570312 28.410156 12.109375 26.359375 14.640625 C 24.316406 17.171875 21.785156 19.351562 18.765625 21.1875 C 14.992188 23.5625 11.164062 24.75 7.28125 24.75 C 5.007812 24.75 3.066406 24.179688 1.453125 23.046875 C -0.160156 21.921875 -0.96875 20.113281 -0.96875 17.625 C -0.96875 15.257812 0.109375 12.914062 2.265625 10.59375 C 4.421875 8.28125 7.0625 6.070312 10.1875 3.96875 C 13.3125 1.863281 16.4375 0.00390625 19.5625 -1.609375 C 22.695312 -3.234375 25.234375 -4.53125 27.171875 -5.5 C 28.679688 -6.25 29.625 -6.734375 30 -6.953125 C 30.382812 -7.171875 30.789062 -8.195312 31.21875 -10.03125 C 31.976562 -13.15625 32.300781 -16.117188 32.1875 -18.921875 C 32.082031 -21.722656 31.625 -24.015625 30.8125 -25.796875 C 30.007812 -27.578125 28.796875 -28.46875 27.171875 -28.46875 C 25.128906 -28.46875 22.539062 -26.6875 19.40625 -23.125 C 16.71875 -19.894531 14.5625 -16.390625 12.9375 -12.609375 C 11.320312 -8.835938 10 -5.601562 8.96875 -2.90625 C 7.945312 -0.21875 6.898438 1.125 5.828125 1.125 C 4.421875 1.125 3.472656 0.503906 2.984375 -0.734375 C 2.503906 -1.972656 2.265625 -3.476562 2.265625 -5.25 C 2.265625 -7.03125 2.265625 -8.675781 2.265625 -10.1875 Z M 2.265625 -10.1875 "/></g></g></g><g fill="#504081" fill-opacity="1"><g transform="translate(755.160777, 163.039684)"><g><path d="M 1.9375 26.6875 C 1.9375 28.957031 2.640625 30.09375 4.046875 30.09375 C 4.796875 30.09375 5.601562 29.820312 6.46875 29.28125 C 7.332031 28.738281 8.035156 28.253906 8.578125 27.828125 C 10.734375 26.203125 12.644531 23.742188 14.3125 20.453125 C 15.988281 17.171875 17.203125 14.179688 17.953125 11.484375 C 18.492188 9.648438 18.789062 7.789062 18.84375 5.90625 C 18.894531 4.019531 18.921875 1.941406 18.921875 -0.328125 C 17.628906 0.429688 16.144531 1.753906 14.46875 3.640625 C 12.800781 5.523438 11.484375 7.0625 10.515625 8.25 C 8.578125 10.625 6.660156 13.484375 4.765625 16.828125 C 2.878906 20.171875 1.9375 23.457031 1.9375 26.6875 Z M 0.484375 -26.203125 C 0.484375 -29.003906 1.238281 -31.507812 2.75 -33.71875 C 4.257812 -35.9375 6.066406 -37.71875 8.171875 -39.0625 C 10.273438 -40.414062 12.082031 -41.09375 13.59375 -41.09375 C 14.78125 -41.09375 15.664062 -40.660156 16.25 -39.796875 C 16.84375 -38.929688 16.875 -37.472656 16.34375 -35.421875 C 15.039062 -35.097656 14.117188 -34.910156 13.578125 -34.859375 C 13.046875 -34.804688 12.617188 -34.644531 12.296875 -34.375 C 11.972656 -34.101562 11.378906 -33.484375 10.515625 -32.515625 C 8.359375 -30.140625 7.359375 -28.222656 7.515625 -26.765625 C 7.679688 -25.316406 8.546875 -23.972656 10.109375 -22.734375 C 11.671875 -21.492188 13.609375 -19.957031 15.921875 -18.125 C 18.242188 -16.289062 20.429688 -13.804688 22.484375 -10.671875 C 24.859375 -12.296875 27.285156 -14.1875 29.765625 -16.34375 L 44.8125 -26.859375 C 46.207031 -27.828125 47.414062 -28.5 48.4375 -28.875 C 49.46875 -29.25 50.363281 -29.4375 51.125 -29.4375 C 52.414062 -29.4375 52.953125 -28.894531 52.734375 -27.8125 C 52.515625 -26.738281 51.488281 -25.664062 49.65625 -24.59375 L 38.65625 -16.984375 C 38.226562 -16.765625 37.3125 -16.144531 35.90625 -15.125 C 34.507812 -14.101562 32.972656 -12.972656 31.296875 -11.734375 C 29.628906 -10.492188 28.203125 -9.332031 27.015625 -8.25 C 25.828125 -7.164062 25.179688 -6.460938 25.078125 -6.140625 C 24.960938 -5.609375 25.117188 -4.585938 25.546875 -3.078125 C 25.984375 -1.566406 26.28125 0.398438 26.4375 2.828125 C 26.601562 5.253906 26.28125 8.21875 25.46875 11.71875 C 24.664062 15.226562 22.914062 19.300781 20.21875 23.9375 C 17.84375 27.925781 15.253906 30.863281 12.453125 32.75 C 9.648438 34.644531 7.007812 35.59375 4.53125 35.59375 C 2.257812 35.59375 0.398438 34.835938 -1.046875 33.328125 C -2.503906 31.816406 -3.234375 29.601562 -3.234375 26.6875 C -3.234375 23.019531 -2.34375 19.460938 -0.5625 16.015625 C 1.21875 12.566406 3.347656 9.382812 5.828125 6.46875 C 8.304688 3.5625 10.597656 1.054688 12.703125 -1.046875 C 14.804688 -3.148438 16.179688 -4.6875 16.828125 -5.65625 C 15.523438 -7.925781 13.957031 -9.894531 12.125 -11.5625 C 10.289062 -13.238281 8.484375 -14.773438 6.703125 -16.171875 C 4.929688 -17.578125 3.453125 -19.0625 2.265625 -20.625 C 1.078125 -22.1875 0.484375 -24.046875 0.484375 -26.203125 Z M 0.484375 -26.203125 "/></g></g></g><g fill="#504081" fill-opacity="1"><g transform="translate(801.907646, 163.039684)"><g><path d="M 13.421875 0.640625 C 11.265625 0.640625 9.347656 -0.0546875 7.671875 -1.453125 C 6.003906 -2.859375 4.738281 -4.316406 3.875 -5.828125 C 1.9375 -9.492188 0.832031 -13.832031 0.5625 -18.84375 C 0.289062 -23.863281 0.585938 -28.421875 1.453125 -32.515625 C 1.671875 -33.703125 1.96875 -35.128906 2.34375 -36.796875 C 2.71875 -38.472656 3.28125 -39.957031 4.03125 -41.25 C 4.789062 -42.539062 5.710938 -43.1875 6.796875 -43.1875 C 9.273438 -43.1875 10.488281 -42.347656 10.4375 -40.671875 C 10.382812 -39.003906 9.925781 -36.414062 9.0625 -32.90625 C 8.195312 -29.40625 7.765625 -24.90625 7.765625 -19.40625 C 7.765625 -17.789062 7.976562 -15.847656 8.40625 -13.578125 C 8.84375 -11.316406 9.519531 -9.320312 10.4375 -7.59375 C 11.351562 -5.875 12.507812 -5.015625 13.90625 -5.015625 C 15.632812 -5.015625 17.601562 -5.769531 19.8125 -7.28125 C 22.019531 -8.789062 24.066406 -10.488281 25.953125 -12.375 C 27.847656 -14.257812 29.171875 -15.6875 29.921875 -16.65625 C 30.140625 -16.875 30.734375 -17.601562 31.703125 -18.84375 C 32.671875 -20.082031 33.828125 -21.484375 35.171875 -23.046875 C 36.523438 -24.609375 37.847656 -25.984375 39.140625 -27.171875 C 40.441406 -28.359375 41.46875 -28.953125 42.21875 -28.953125 C 42.976562 -28.953125 43.359375 -28.304688 43.359375 -27.015625 C 43.359375 -26.253906 42.84375 -25.09375 41.8125 -23.53125 C 40.789062 -21.96875 39.578125 -20.320312 38.171875 -18.59375 C 36.773438 -16.875 35.398438 -15.257812 34.046875 -13.75 C 32.703125 -12.238281 31.707031 -11.160156 31.0625 -10.515625 C 29.769531 -9.222656 28.234375 -7.6875 26.453125 -5.90625 C 24.671875 -4.125 22.703125 -2.585938 20.546875 -1.296875 C 18.390625 -0.00390625 16.015625 0.640625 13.421875 0.640625 Z M 8.25 -63.578125 C 8.25 -65.410156 8.734375 -67 9.703125 -68.34375 C 10.671875 -69.695312 11.75 -70.375 12.9375 -70.375 C 14.226562 -70.375 15.304688 -69.5625 16.171875 -67.9375 C 17.679688 -64.914062 17.867188 -62.566406 16.734375 -60.890625 C 15.609375 -59.222656 14.238281 -58.390625 12.625 -58.390625 C 11.539062 -58.390625 10.539062 -58.820312 9.625 -59.6875 C 8.707031 -60.550781 8.25 -61.847656 8.25 -63.578125 Z M 8.25 -63.578125 "/></g></g></g><g fill="#504081" fill-opacity="1"><g transform="translate(838.787511, 163.039684)"><g><path d="M -45.453125 -72.140625 C -45.453125 -73.546875 -44.15625 -75.03125 -41.5625 -76.59375 C -38.976562 -78.15625 -35.71875 -79.691406 -31.78125 -81.203125 C -27.84375 -82.710938 -23.691406 -84.140625 -19.328125 -85.484375 C -14.960938 -86.835938 -10.945312 -88 -7.28125 -88.96875 C -3.613281 -89.9375 -0.863281 -90.691406 0.96875 -91.234375 C 3.238281 -91.878906 4.832031 -92.253906 5.75 -92.359375 C 6.664062 -92.472656 7.253906 -92.828125 7.515625 -93.421875 C 7.785156 -94.015625 8.082031 -95.226562 8.40625 -97.0625 C 9.269531 -101.476562 10.269531 -104.519531 11.40625 -106.1875 C 12.539062 -107.863281 13.644531 -108.703125 14.71875 -108.703125 C 15.582031 -108.703125 16.3125 -108.242188 16.90625 -107.328125 C 17.5 -106.410156 17.796875 -105.304688 17.796875 -104.015625 C 17.796875 -103.046875 17.738281 -102.640625 17.625 -102.796875 C 17.519531 -102.960938 17.519531 -102.613281 17.625 -101.75 C 17.625 -101.53125 17.648438 -101.257812 17.703125 -100.9375 C 17.765625 -100.613281 17.796875 -100.179688 17.796875 -99.640625 C 17.796875 -98.242188 17.523438 -97.546875 16.984375 -97.546875 C 16.441406 -97.546875 15.898438 -97.460938 15.359375 -97.296875 C 14.828125 -97.140625 14.5625 -96.195312 14.5625 -94.46875 C 15.851562 -94.46875 17.28125 -94.65625 18.84375 -95.03125 C 20.40625 -95.414062 21.78125 -95.660156 22.96875 -95.765625 C 27.71875 -96.628906 32.460938 -97.410156 37.203125 -98.109375 C 41.953125 -98.804688 46.804688 -99.15625 51.765625 -99.15625 C 54.347656 -99.15625 56.234375 -98.613281 57.421875 -97.53125 C 58.609375 -96.457031 59.039062 -95.378906 58.71875 -94.296875 C 58.394531 -93.222656 57.207031 -92.6875 55.15625 -92.6875 C 54.945312 -93.550781 54.8125 -93.957031 54.75 -93.90625 C 54.695312 -93.851562 54.1875 -93.929688 53.21875 -94.140625 C 52.789062 -94.253906 51.925781 -94.3125 50.625 -94.3125 C 48.363281 -94.3125 45.375 -94.066406 41.65625 -93.578125 C 37.9375 -93.097656 34.082031 -92.53125 30.09375 -91.875 C 26.101562 -91.226562 22.539062 -90.609375 19.40625 -90.015625 C 16.28125 -89.429688 14.234375 -89.03125 13.265625 -88.8125 L 10.03125 -55.640625 C 9.925781 -54.890625 9.898438 -54.082031 9.953125 -53.21875 C 10.003906 -52.351562 10.03125 -51.488281 10.03125 -50.625 C 10.03125 -49.550781 9.945312 -48.851562 9.78125 -48.53125 C 9.625 -48.207031 9.546875 -47.453125 9.546875 -46.265625 C 9.546875 -43.890625 9.597656 -41.164062 9.703125 -38.09375 C 9.816406 -35.019531 9.765625 -32.617188 9.546875 -30.890625 C 9.429688 -29.921875 9.347656 -28.007812 9.296875 -25.15625 C 9.242188 -22.300781 9.191406 -18.984375 9.140625 -15.203125 C 9.085938 -11.429688 9.0625 -7.628906 9.0625 -3.796875 C 9.0625 0.0234375 9.0625 3.5 9.0625 6.625 C 9.0625 9.757812 9.113281 12.023438 9.21875 13.421875 C 9.21875 14.609375 9.351562 16.414062 9.625 18.84375 C 9.894531 21.269531 9.945312 23.453125 9.78125 25.390625 C 9.625 27.335938 8.84375 28.3125 7.4375 28.3125 C 5.394531 28.3125 4.15625 27.175781 3.71875 24.90625 C 3.289062 22.644531 3.078125 20.546875 3.078125 18.609375 C 2.753906 14.722656 2.5625 10.191406 2.5 5.015625 C 2.445312 -0.160156 2.445312 -5.335938 2.5 -10.515625 C 2.5625 -15.691406 2.59375 -20.222656 2.59375 -24.109375 L 3.078125 -31.703125 C 3.078125 -33.210938 3.078125 -35.53125 3.078125 -38.65625 C 3.078125 -41.789062 3.128906 -45.109375 3.234375 -48.609375 C 3.335938 -52.117188 3.441406 -55.328125 3.546875 -58.234375 C 3.660156 -61.148438 3.828125 -63.195312 4.046875 -64.375 C 4.265625 -65.457031 4.398438 -66.753906 4.453125 -68.265625 C 4.503906 -69.773438 4.582031 -71.066406 4.6875 -72.140625 L 6.140625 -87.1875 C 5.710938 -87.082031 4.769531 -86.867188 3.3125 -86.546875 C 1.851562 -86.222656 0.695312 -85.953125 -0.15625 -85.734375 C -5.445312 -84.441406 -10.488281 -83.066406 -15.28125 -81.609375 C -20.082031 -80.148438 -25.019531 -78.453125 -30.09375 -76.515625 C -31.0625 -76.085938 -31.945312 -75.628906 -32.75 -75.140625 C -33.5625 -74.648438 -34.453125 -74.191406 -35.421875 -73.765625 C -36.722656 -73.222656 -37.5625 -72.84375 -37.9375 -72.625 C -38.3125 -72.414062 -38.5 -72.148438 -38.5 -71.828125 C -38.5 -71.503906 -38.769531 -70.800781 -39.3125 -69.71875 C -39.738281 -69.613281 -40.164062 -69.53125 -40.59375 -69.46875 C -41.03125 -69.414062 -41.519531 -69.390625 -42.0625 -69.390625 C -42.925781 -69.390625 -43.707031 -69.578125 -44.40625 -69.953125 C -45.101562 -70.335938 -45.453125 -71.066406 -45.453125 -72.140625 Z M -45.453125 -72.140625 "/></g></g></g><g fill="#504081" fill-opacity="1"><g transform="translate(857.550922, 163.039684)"><g><path d="M 7.4375 -29.28125 C 9.488281 -30.351562 11.753906 -31.832031 14.234375 -33.71875 C 16.710938 -35.613281 18.0625 -37.851562 18.28125 -40.4375 C 16.875 -40.226562 15.390625 -39.472656 13.828125 -38.171875 C 12.265625 -36.878906 10.914062 -35.421875 9.78125 -33.796875 C 8.65625 -32.179688 7.875 -30.675781 7.4375 -29.28125 Z M 0.15625 -25.390625 C 0.15625 -28.085938 1.046875 -31 2.828125 -34.125 C 4.609375 -37.257812 6.816406 -39.929688 9.453125 -42.140625 C 12.097656 -44.347656 14.71875 -45.453125 17.3125 -45.453125 C 20.863281 -45.453125 22.71875 -44.101562 22.875 -41.40625 C 23.039062 -38.71875 21.882812 -35.804688 19.40625 -32.671875 C 18.113281 -31.273438 16.171875 -29.660156 13.578125 -27.828125 C 10.992188 -25.992188 8.460938 -24.96875 5.984375 -24.75 C 5.984375 -23.019531 6.035156 -21.484375 6.140625 -20.140625 C 6.253906 -18.796875 7.007812 -17.421875 8.40625 -16.015625 C 9.8125 -14.609375 11.59375 -13.90625 13.75 -13.90625 C 16.550781 -13.90625 19.460938 -14.796875 22.484375 -16.578125 C 25.503906 -18.359375 27.820312 -19.84375 29.4375 -21.03125 C 30.082031 -21.570312 30.59375 -22.003906 30.96875 -22.328125 C 31.351562 -22.648438 31.816406 -23.023438 32.359375 -23.453125 C 34.617188 -25.179688 36.046875 -26.445312 36.640625 -27.25 C 37.234375 -28.0625 37.742188 -28.601562 38.171875 -28.875 C 38.609375 -29.144531 39.632812 -29.28125 41.25 -29.28125 C 41.46875 -28.09375 41.546875 -27.28125 41.484375 -26.84375 C 41.429688 -26.414062 41.03125 -25.769531 40.28125 -24.90625 C 38.34375 -22.96875 35.890625 -20.757812 32.921875 -18.28125 C 29.953125 -15.800781 26.769531 -13.644531 23.375 -11.8125 C 19.976562 -9.976562 16.609375 -9.0625 13.265625 -9.0625 C 11.535156 -9.0625 9.890625 -9.359375 8.328125 -9.953125 C 6.765625 -10.546875 5.28125 -11.539062 3.875 -12.9375 C 1.9375 -14.882812 0.832031 -16.878906 0.5625 -18.921875 C 0.289062 -20.972656 0.15625 -23.128906 0.15625 -25.390625 Z M 0.15625 -25.390625 "/></g></g></g><g fill="#504081" fill-opacity="1"><g transform="translate(892.651506, 163.039684)"><g><path d="M 1.9375 26.6875 C 1.9375 28.957031 2.640625 30.09375 4.046875 30.09375 C 4.796875 30.09375 5.601562 29.820312 6.46875 29.28125 C 7.332031 28.738281 8.035156 28.253906 8.578125 27.828125 C 10.734375 26.203125 12.644531 23.742188 14.3125 20.453125 C 15.988281 17.171875 17.203125 14.179688 17.953125 11.484375 C 18.492188 9.648438 18.789062 7.789062 18.84375 5.90625 C 18.894531 4.019531 18.921875 1.941406 18.921875 -0.328125 C 17.628906 0.429688 16.144531 1.753906 14.46875 3.640625 C 12.800781 5.523438 11.484375 7.0625 10.515625 8.25 C 8.578125 10.625 6.660156 13.484375 4.765625 16.828125 C 2.878906 20.171875 1.9375 23.457031 1.9375 26.6875 Z M 0.484375 -26.203125 C 0.484375 -29.003906 1.238281 -31.507812 2.75 -33.71875 C 4.257812 -35.9375 6.066406 -37.71875 8.171875 -39.0625 C 10.273438 -40.414062 12.082031 -41.09375 13.59375 -41.09375 C 14.78125 -41.09375 15.664062 -40.660156 16.25 -39.796875 C 16.84375 -38.929688 16.875 -37.472656 16.34375 -35.421875 C 15.039062 -35.097656 14.117188 -34.910156 13.578125 -34.859375 C 13.046875 -34.804688 12.617188 -34.644531 12.296875 -34.375 C 11.972656 -34.101562 11.378906 -33.484375 10.515625 -32.515625 C 8.359375 -30.140625 7.359375 -28.222656 7.515625 -26.765625 C 7.679688 -25.316406 8.546875 -23.972656 10.109375 -22.734375 C 11.671875 -21.492188 13.609375 -19.957031 15.921875 -18.125 C 18.242188 -16.289062 20.429688 -13.804688 22.484375 -10.671875 C 24.859375 -12.296875 27.285156 -14.1875 29.765625 -16.34375 L 44.8125 -26.859375 C 46.207031 -27.828125 47.414062 -28.5 48.4375 -28.875 C 49.46875 -29.25 50.363281 -29.4375 51.125 -29.4375 C 52.414062 -29.4375 52.953125 -28.894531 52.734375 -27.8125 C 52.515625 -26.738281 51.488281 -25.664062 49.65625 -24.59375 L 38.65625 -16.984375 C 38.226562 -16.765625 37.3125 -16.144531 35.90625 -15.125 C 34.507812 -14.101562 32.972656 -12.972656 31.296875 -11.734375 C 29.628906 -10.492188 28.203125 -9.332031 27.015625 -8.25 C 25.828125 -7.164062 25.179688 -6.460938 25.078125 -6.140625 C 24.960938 -5.609375 25.117188 -4.585938 25.546875 -3.078125 C 25.984375 -1.566406 26.28125 0.398438 26.4375 2.828125 C 26.601562 5.253906 26.28125 8.21875 25.46875 11.71875 C 24.664062 15.226562 22.914062 19.300781 20.21875 23.9375 C 17.84375 27.925781 15.253906 30.863281 12.453125 32.75 C 9.648438 34.644531 7.007812 35.59375 4.53125 35.59375 C 2.257812 35.59375 0.398438 34.835938 -1.046875 33.328125 C -2.503906 31.816406 -3.234375 29.601562 -3.234375 26.6875 C -3.234375 23.019531 -2.34375 19.460938 -0.5625 16.015625 C 1.21875 12.566406 3.347656 9.382812 5.828125 6.46875 C 8.304688 3.5625 10.597656 1.054688 12.703125 -1.046875 C 14.804688 -3.148438 16.179688 -4.6875 16.828125 -5.65625 C 15.523438 -7.925781 13.957031 -9.894531 12.125 -11.5625 C 10.289062 -13.238281 8.484375 -14.773438 6.703125 -16.171875 C 4.929688 -17.578125 3.453125 -19.0625 2.265625 -20.625 C 1.078125 -22.1875 0.484375 -24.046875 0.484375 -26.203125 Z M 0.484375 -26.203125 "/></g></g></g><g fill="#504081" fill-opacity="1"><g transform="translate(997.090269, 199.311539)"><g><path d="M 16.382812 2.542969 C 13.394531 2.542969 10.960938 1.578125 9.085938 -0.347656 C 7.21875 -2.261719 6.285156 -4.621094 6.285156 -7.421875 C 6.285156 -10.324219 7.230469 -12.691406 9.113281 -14.527344 C 10.988281 -16.351562 13.410156 -17.261719 16.382812 -17.261719 C 19.4375 -17.261719 21.902344 -16.351562 23.777344 -14.527344 C 25.660156 -12.691406 26.605469 -10.324219 26.605469 -7.421875 C 26.605469 -4.621094 25.671875 -2.261719 23.804688 -0.347656 C 21.929688 1.578125 19.453125 2.542969 16.382812 2.542969 Z M 16.382812 -0.496094 C 18.597656 -0.496094 20.347656 -1.152344 21.628906 -2.46875 C 22.917969 -3.792969 23.5625 -5.445312 23.5625 -7.421875 C 23.5625 -9.46875 22.929688 -11.109375 21.65625 -12.347656 C 20.375 -13.597656 18.613281 -14.222656 16.382812 -14.222656 C 14.234375 -14.222656 12.519531 -13.597656 11.234375 -12.347656 C 9.960938 -11.109375 9.328125 -9.46875 9.328125 -7.421875 C 9.328125 -5.445312 9.972656 -3.792969 11.261719 -2.46875 C 12.542969 -1.152344 14.25 -0.496094 16.382812 -0.496094 Z M 16.382812 -0.496094 "/></g></g></g><g fill="#fef74b" fill-opacity="1"><g transform="translate(997.090269, 199.311539)"><g><path d="M 16.375 1.03125 C 13.820312 1.03125 11.753906 0.21875 10.171875 -1.40625 C 8.597656 -3.03125 7.8125 -5.035156 7.8125 -7.421875 C 7.8125 -9.898438 8.597656 -11.90625 10.171875 -13.4375 C 11.753906 -14.96875 13.820312 -15.734375 16.375 -15.734375 C 19.019531 -15.734375 21.128906 -14.96875 22.703125 -13.4375 C 24.285156 -11.90625 25.078125 -9.898438 25.078125 -7.421875 C 25.078125 -5.035156 24.285156 -3.03125 22.703125 -1.40625 C 21.128906 0.21875 19.019531 1.03125 16.375 1.03125 Z M 16.375 1.03125 "/></g></g></g></svg>