<svg xmlns="http://www.w3.org/2000/svg" xmlns:xlink="http://www.w3.org/1999/xlink" width="1548" zoomAndPan="magnify" viewBox="0 0 1161 296.999993" height="396" preserveAspectRatio="xMidYMid meet" version="1.0"><defs><g/></defs><g fill="#504081" fill-opacity="1"><g transform="translate(361.559774, 163.706159)"><g><path d="M -1.625 10.515625 C -1.625 0.265625 -0.757812 -9.816406 0.96875 -19.734375 C 2.695312 -29.660156 4.878906 -39.125 7.515625 -48.125 C 10.160156 -57.125 12.941406 -65.289062 15.859375 -72.625 C 17.898438 -77.800781 20.375 -83.273438 23.28125 -89.046875 C 26.195312 -94.816406 29.515625 -100.316406 33.234375 -105.546875 C 36.960938 -110.773438 40.984375 -115.117188 45.296875 -118.578125 C 48.316406 -120.953125 51.628906 -122.945312 55.234375 -124.5625 C 58.847656 -126.175781 62.382812 -126.984375 65.84375 -126.984375 C 68.425781 -126.984375 70.90625 -126.414062 73.28125 -125.28125 C 75.65625 -124.15625 77.757812 -122.351562 79.59375 -119.875 C 82.070312 -116.3125 83.445312 -112.9375 83.71875 -109.75 C 83.988281 -106.570312 84.125 -102.9375 84.125 -98.84375 C 84.125 -95.28125 83.582031 -91.257812 82.5 -86.78125 C 81.414062 -82.3125 79.984375 -77.703125 78.203125 -72.953125 C 76.429688 -68.210938 74.597656 -63.65625 72.703125 -59.28125 C 70.816406 -54.914062 69.066406 -51.113281 67.453125 -47.875 C 66.910156 -46.582031 66.425781 -45.585938 66 -44.890625 C 65.570312 -44.191406 64.546875 -43.679688 62.921875 -43.359375 C 61.523438 -44.328125 60.851562 -45.1875 60.90625 -45.9375 C 60.957031 -46.695312 61.363281 -47.832031 62.125 -49.34375 C 62.550781 -50.53125 62.976562 -51.609375 63.40625 -52.578125 C 63.84375 -53.546875 64.273438 -54.566406 64.703125 -55.640625 C 67.941406 -63.085938 70.9375 -70.71875 73.6875 -78.53125 C 76.4375 -86.351562 77.8125 -94.632812 77.8125 -103.375 C 77.8125 -108.875 76.675781 -112.890625 74.40625 -115.421875 C 72.144531 -117.953125 69.34375 -119.21875 66 -119.21875 C 60.28125 -119.21875 54.617188 -116.414062 49.015625 -110.8125 C 44.378906 -106.175781 40.09375 -100.484375 36.15625 -93.734375 C 32.21875 -86.992188 28.6875 -79.769531 25.5625 -72.0625 C 22.4375 -64.351562 19.738281 -56.671875 17.46875 -49.015625 C 15.207031 -41.359375 13.425781 -34.296875 12.125 -27.828125 C 10.625 -20.703125 9.332031 -12.90625 8.25 -4.4375 C 7.164062 4.019531 6.785156 12.476562 7.109375 20.9375 C 7.441406 29.40625 8.953125 37.253906 11.640625 44.484375 C 13.046875 49.015625 15.335938 52.976562 18.515625 56.375 C 21.703125 59.769531 25.882812 61.46875 31.0625 61.46875 C 35.695312 61.46875 40.222656 60.253906 44.640625 57.828125 C 49.066406 55.398438 52.894531 52.945312 56.125 50.46875 L 61.625 45.625 C 62.707031 44.644531 63.679688 43.832031 64.546875 43.1875 C 65.410156 42.539062 66.378906 41.679688 67.453125 40.609375 C 73.390625 34.566406 78.726562 28.015625 83.46875 20.953125 C 88.21875 13.890625 92.664062 6.53125 96.8125 -1.125 C 100.96875 -8.789062 104.988281 -16.34375 108.875 -23.78125 C 109.84375 -25.613281 110.785156 -26.878906 111.703125 -27.578125 C 112.617188 -28.273438 113.453125 -28.625 114.203125 -28.625 C 114.960938 -28.625 115.554688 -28.351562 115.984375 -27.8125 C 116.421875 -27.28125 116.640625 -26.742188 116.640625 -26.203125 L 92.53125 17.796875 C 91.019531 20.054688 89.535156 22.265625 88.078125 24.421875 C 86.617188 26.578125 85.082031 28.734375 83.46875 30.890625 C 81.207031 33.910156 78.132812 37.523438 74.25 41.734375 C 70.363281 45.941406 66.019531 50.066406 61.21875 54.109375 C 56.425781 58.148438 51.441406 61.492188 46.265625 64.140625 C 41.085938 66.785156 35.960938 68.109375 30.890625 68.109375 C 25.503906 68.109375 20.894531 66.785156 17.0625 64.140625 C 13.238281 61.492188 10.113281 58.015625 7.6875 53.703125 C 5.257812 49.390625 3.367188 44.671875 2.015625 39.546875 C 0.671875 34.429688 -0.269531 29.335938 -0.8125 24.265625 C -1.351562 19.191406 -1.625 14.609375 -1.625 10.515625 Z M -1.625 10.515625 "/></g></g></g><g fill="#504081" fill-opacity="1"><g transform="translate(471.714128, 163.706159)"><g><path d="M 2.265625 -0.640625 C 1.179688 -0.640625 0.53125 -1.3125 0.3125 -2.65625 C 0.101562 -4.007812 0.0507812 -5.441406 0.15625 -6.953125 C 0.269531 -8.460938 0.328125 -9.378906 0.328125 -9.703125 C 0.210938 -11.648438 0.179688 -13.617188 0.234375 -15.609375 C 0.296875 -17.609375 0.269531 -19.628906 0.15625 -21.671875 C 0.15625 -22.429688 0.179688 -23.863281 0.234375 -25.96875 C 0.296875 -28.070312 0.457031 -30.304688 0.71875 -32.671875 C 0.988281 -35.046875 1.394531 -37.09375 1.9375 -38.8125 C 2.476562 -40.539062 3.179688 -41.40625 4.046875 -41.40625 C 6.203125 -41.40625 7.304688 -40.703125 7.359375 -39.296875 C 7.410156 -37.898438 7.332031 -36.070312 7.125 -33.8125 C 7.007812 -33.050781 6.953125 -32.210938 6.953125 -31.296875 C 6.953125 -30.378906 6.953125 -29.488281 6.953125 -28.625 C 6.953125 -27.550781 6.894531 -26.851562 6.78125 -26.53125 C 6.675781 -26.207031 6.625 -25.503906 6.625 -24.421875 C 7.8125 -25.285156 8.890625 -26.285156 9.859375 -27.421875 C 10.835938 -28.554688 12.566406 -29.125 15.046875 -29.125 C 15.796875 -29.125 16.789062 -29.148438 18.03125 -29.203125 C 19.269531 -29.253906 20.59375 -29.28125 22 -29.28125 C 24.375 -29.28125 26.582031 -29.144531 28.625 -28.875 C 30.675781 -28.601562 31.703125 -27.929688 31.703125 -26.859375 C 31.703125 -25.773438 31.132812 -25.070312 30 -24.75 C 28.875 -24.425781 27.5 -24.265625 25.875 -24.265625 C 24.800781 -24.265625 23.695312 -24.289062 22.5625 -24.34375 C 21.4375 -24.394531 20.441406 -24.421875 19.578125 -24.421875 C 16.554688 -24.421875 14.53125 -24.257812 13.5 -23.9375 C 12.476562 -23.613281 11.320312 -22.375 10.03125 -20.21875 C 9.269531 -18.820312 8.539062 -17.3125 7.84375 -15.6875 C 7.144531 -14.070312 6.632812 -12.296875 6.3125 -10.359375 C 5.988281 -8.953125 5.851562 -7.492188 5.90625 -5.984375 C 5.957031 -4.472656 5.796875 -3.203125 5.421875 -2.171875 C 5.046875 -1.148438 3.992188 -0.640625 2.265625 -0.640625 Z M 2.265625 -0.640625 "/></g></g></g><g fill="#504081" fill-opacity="1"><g transform="translate(498.079998, 163.706159)"><g><path d="M 8.09375 -3.71875 C 9.707031 -4.15625 11.160156 -5.582031 12.453125 -8 C 13.742188 -10.425781 14.660156 -13.203125 15.203125 -16.328125 C 15.742188 -19.460938 15.878906 -22.347656 15.609375 -24.984375 C 15.335938 -27.628906 14.503906 -29.4375 13.109375 -30.40625 C 12.785156 -29.21875 12.191406 -27.519531 11.328125 -25.3125 C 10.460938 -23.101562 9.625 -20.675781 8.8125 -18.03125 C 8.007812 -15.394531 7.472656 -12.804688 7.203125 -10.265625 C 6.929688 -7.734375 7.226562 -5.550781 8.09375 -3.71875 Z M 0 -9.21875 C 0 -10.625 0.296875 -12.703125 0.890625 -15.453125 C 1.484375 -18.203125 2.316406 -21.164062 3.390625 -24.34375 C 4.472656 -27.53125 5.6875 -30.550781 7.03125 -33.40625 C 8.382812 -36.257812 9.84375 -38.601562 11.40625 -40.4375 C 12.96875 -42.269531 14.554688 -43.1875 16.171875 -43.1875 C 17.253906 -43.1875 18.007812 -42.703125 18.4375 -41.734375 C 18.875 -40.765625 18.984375 -39.957031 18.765625 -39.3125 C 18.546875 -38.769531 18.140625 -38.226562 17.546875 -37.6875 C 16.953125 -37.144531 16.441406 -36.550781 16.015625 -35.90625 C 16.234375 -35.15625 16.769531 -34.320312 17.625 -33.40625 C 18.488281 -32.488281 19.351562 -31.273438 20.21875 -29.765625 C 21.082031 -28.253906 21.648438 -26.203125 21.921875 -23.609375 C 22.191406 -21.023438 21.894531 -17.628906 21.03125 -13.421875 C 19.84375 -7.816406 17.953125 -3.613281 15.359375 -0.8125 C 12.773438 1.988281 10.242188 3.390625 7.765625 3.390625 C 5.710938 3.390625 3.90625 2.335938 2.34375 0.234375 C 0.78125 -1.859375 0 -5.007812 0 -9.21875 Z M 0 -9.21875 "/></g></g></g><g fill="#504081" fill-opacity="1"><g transform="translate(526.548674, 163.706159)"><g><path d="M 0 -22.15625 C 0 -24.101562 0.398438 -26.367188 1.203125 -28.953125 C 2.015625 -31.546875 3.148438 -34.082031 4.609375 -36.5625 C 6.066406 -39.039062 7.789062 -41.113281 9.78125 -42.78125 C 11.78125 -44.457031 13.96875 -45.296875 16.34375 -45.296875 C 19.789062 -45.296875 21.515625 -43.140625 21.515625 -38.828125 C 21.515625 -36.023438 20.8125 -34.625 19.40625 -34.625 C 17.789062 -34.625 16.820312 -36.023438 16.5 -38.828125 C 14.664062 -37.523438 12.910156 -35.3125 11.234375 -32.1875 C 9.566406 -29.0625 8.460938 -25.71875 7.921875 -22.15625 C 7.390625 -18.601562 7.769531 -15.476562 9.0625 -12.78125 C 9.601562 -11.375 10.382812 -10.1875 11.40625 -9.21875 C 12.425781 -8.25 13.910156 -7.765625 15.859375 -7.765625 C 19.628906 -7.765625 23.101562 -8.816406 26.28125 -10.921875 C 29.46875 -13.023438 32.378906 -15.554688 35.015625 -18.515625 C 37.660156 -21.484375 39.953125 -24.316406 41.890625 -27.015625 C 43.078125 -28.628906 44.15625 -29.4375 45.125 -29.4375 C 45.882812 -29.4375 46.425781 -29.054688 46.75 -28.296875 C 47.070312 -27.546875 46.960938 -26.632812 46.421875 -25.5625 C 46.210938 -25.019531 45.863281 -24.425781 45.375 -23.78125 C 44.882812 -23.132812 44.425781 -22.539062 44 -22 C 41.738281 -19.195312 39.148438 -16.285156 36.234375 -13.265625 C 33.328125 -10.242188 30.144531 -7.679688 26.6875 -5.578125 C 23.238281 -3.472656 19.570312 -2.421875 15.6875 -2.421875 C 12.019531 -2.421875 9.023438 -3.363281 6.703125 -5.25 C 4.390625 -7.144531 2.691406 -9.597656 1.609375 -12.609375 C 0.535156 -15.628906 0 -18.8125 0 -22.15625 Z M 0 -22.15625 "/></g></g></g><g fill="#504081" fill-opacity="1"><g transform="translate(565.693107, 163.706159)"><g><path d="M -0.96875 -13.421875 L 0 -31.703125 C 0.101562 -32.890625 0.207031 -34.316406 0.3125 -35.984375 C 0.425781 -37.660156 0.535156 -39.09375 0.640625 -40.28125 C 0.859375 -45.675781 1.535156 -51.015625 2.671875 -56.296875 C 3.804688 -61.578125 5.019531 -66.804688 6.3125 -71.984375 C 7.0625 -74.140625 7.648438 -75.566406 8.078125 -76.265625 C 8.515625 -76.972656 9.113281 -77.328125 9.875 -77.328125 C 10.195312 -77.328125 10.570312 -77.296875 11 -77.234375 C 11.425781 -77.179688 11.910156 -77.101562 12.453125 -77 C 12.992188 -74.519531 12.882812 -71.582031 12.125 -68.1875 C 11.375 -64.789062 10.785156 -61.6875 10.359375 -58.875 C 9.171875 -51.4375 8.195312 -43.242188 7.4375 -34.296875 C 6.6875 -25.347656 6.3125 -16.828125 6.3125 -8.734375 L 6.796875 9.375 L 8.09375 6.3125 C 9.601562 2 10.867188 -1.640625 11.890625 -4.609375 C 12.910156 -7.578125 14.09375 -10.515625 15.4375 -13.421875 C 16.789062 -16.335938 18.601562 -19.898438 20.875 -24.109375 C 22.050781 -26.265625 23.207031 -28.097656 24.34375 -29.609375 C 25.476562 -31.117188 27.234375 -31.875 29.609375 -31.875 C 30.785156 -31.875 31.617188 -31.007812 32.109375 -29.28125 C 32.597656 -27.550781 32.894531 -25.660156 33 -23.609375 C 33.101562 -21.566406 33.15625 -20.0625 33.15625 -19.09375 C 33.15625 -16.070312 33.234375 -13.507812 33.390625 -11.40625 C 33.554688 -9.300781 34.179688 -7.222656 35.265625 -5.171875 C 37.742188 -5.710938 39.84375 -7.300781 41.5625 -9.9375 C 43.289062 -12.582031 44.859375 -14.878906 46.265625 -16.828125 C 47.015625 -18.015625 47.710938 -19.195312 48.359375 -20.375 C 49.015625 -21.5625 49.664062 -22.804688 50.3125 -24.109375 C 51.28125 -25.828125 52.0625 -27.007812 52.65625 -27.65625 C 53.25 -28.300781 53.867188 -28.625 54.515625 -28.625 C 54.835938 -28.625 55.429688 -28.519531 56.296875 -28.3125 C 56.835938 -26.363281 56.726562 -24.796875 55.96875 -23.609375 C 55.21875 -22.429688 54.410156 -21.03125 53.546875 -19.40625 C 52.785156 -18.007812 51.757812 -16.203125 50.46875 -13.984375 C 49.175781 -11.773438 47.71875 -9.617188 46.09375 -7.515625 C 44.476562 -5.421875 42.753906 -3.644531 40.921875 -2.1875 C 39.085938 -0.726562 37.203125 0 35.265625 0 C 31.703125 0 29.382812 -3.179688 28.3125 -9.546875 C 27.988281 -11.378906 27.769531 -13.832031 27.65625 -16.90625 C 27.550781 -19.976562 27.5 -22.644531 27.5 -24.90625 C 26.75 -24.375 25.832031 -23.132812 24.75 -21.1875 C 23.664062 -19.25 22.582031 -17.066406 21.5 -14.640625 C 20.425781 -12.210938 19.429688 -9.863281 18.515625 -7.59375 C 17.597656 -5.332031 16.875 -3.609375 16.34375 -2.421875 C 15.039062 0.921875 13.984375 4.265625 13.171875 7.609375 C 12.367188 10.953125 11.484375 14.128906 10.515625 17.140625 C 9.972656 18.867188 9.351562 19.972656 8.65625 20.453125 C 7.957031 20.941406 6.851562 21.1875 5.34375 21.1875 C 4.15625 21.1875 3.179688 20.160156 2.421875 18.109375 C 1.671875 16.066406 1.050781 13.507812 0.5625 10.4375 C 0.0820312 7.363281 -0.265625 4.179688 -0.484375 0.890625 C -0.703125 -2.398438 -0.835938 -5.363281 -0.890625 -8 C -0.941406 -10.644531 -0.96875 -12.453125 -0.96875 -13.421875 Z M -0.96875 -13.421875 "/></g></g></g><g fill="#504081" fill-opacity="1"><g transform="translate(615.028011, 163.706159)"><g><path d="M 7.4375 -29.28125 C 9.488281 -30.351562 11.753906 -31.832031 14.234375 -33.71875 C 16.710938 -35.613281 18.0625 -37.851562 18.28125 -40.4375 C 16.875 -40.226562 15.390625 -39.472656 13.828125 -38.171875 C 12.265625 -36.878906 10.914062 -35.421875 9.78125 -33.796875 C 8.65625 -32.179688 7.875 -30.675781 7.4375 -29.28125 Z M 0.15625 -25.390625 C 0.15625 -28.085938 1.046875 -31 2.828125 -34.125 C 4.609375 -37.257812 6.816406 -39.929688 9.453125 -42.140625 C 12.097656 -44.347656 14.71875 -45.453125 17.3125 -45.453125 C 20.863281 -45.453125 22.71875 -44.101562 22.875 -41.40625 C 23.039062 -38.71875 21.882812 -35.804688 19.40625 -32.671875 C 18.113281 -31.273438 16.171875 -29.660156 13.578125 -27.828125 C 10.992188 -25.992188 8.460938 -24.96875 5.984375 -24.75 C 5.984375 -23.019531 6.035156 -21.484375 6.140625 -20.140625 C 6.253906 -18.796875 7.007812 -17.421875 8.40625 -16.015625 C 9.8125 -14.609375 11.59375 -13.90625 13.75 -13.90625 C 16.550781 -13.90625 19.460938 -14.796875 22.484375 -16.578125 C 25.503906 -18.359375 27.820312 -19.84375 29.4375 -21.03125 C 30.082031 -21.570312 30.59375 -22.003906 30.96875 -22.328125 C 31.351562 -22.648438 31.816406 -23.023438 32.359375 -23.453125 C 34.617188 -25.179688 36.046875 -26.445312 36.640625 -27.25 C 37.234375 -28.0625 37.742188 -28.601562 38.171875 -28.875 C 38.609375 -29.144531 39.632812 -29.28125 41.25 -29.28125 C 41.46875 -28.09375 41.546875 -27.28125 41.484375 -26.84375 C 41.429688 -26.414062 41.03125 -25.769531 40.28125 -24.90625 C 38.34375 -22.96875 35.890625 -20.757812 32.921875 -18.28125 C 29.953125 -15.800781 26.769531 -13.644531 23.375 -11.8125 C 19.976562 -9.976562 16.609375 -9.0625 13.265625 -9.0625 C 11.535156 -9.0625 9.890625 -9.359375 8.328125 -9.953125 C 6.765625 -10.546875 5.28125 -11.539062 3.875 -12.9375 C 1.9375 -14.882812 0.832031 -16.878906 0.5625 -18.921875 C 0.289062 -20.972656 0.15625 -23.128906 0.15625 -25.390625 Z M 0.15625 -25.390625 "/></g></g></g><g fill="#504081" fill-opacity="1"><g transform="translate(650.128595, 163.706159)"><g><path d="M -45.453125 -72.140625 C -45.453125 -73.546875 -44.15625 -75.03125 -41.5625 -76.59375 C -38.976562 -78.15625 -35.71875 -79.691406 -31.78125 -81.203125 C -27.84375 -82.710938 -23.691406 -84.140625 -19.328125 -85.484375 C -14.960938 -86.835938 -10.945312 -88 -7.28125 -88.96875 C -3.613281 -89.9375 -0.863281 -90.691406 0.96875 -91.234375 C 3.238281 -91.878906 4.832031 -92.253906 5.75 -92.359375 C 6.664062 -92.472656 7.253906 -92.828125 7.515625 -93.421875 C 7.785156 -94.015625 8.082031 -95.226562 8.40625 -97.0625 C 9.269531 -101.476562 10.269531 -104.519531 11.40625 -106.1875 C 12.539062 -107.863281 13.644531 -108.703125 14.71875 -108.703125 C 15.582031 -108.703125 16.3125 -108.242188 16.90625 -107.328125 C 17.5 -106.410156 17.796875 -105.304688 17.796875 -104.015625 C 17.796875 -103.046875 17.738281 -102.640625 17.625 -102.796875 C 17.519531 -102.960938 17.519531 -102.613281 17.625 -101.75 C 17.625 -101.53125 17.648438 -101.257812 17.703125 -100.9375 C 17.765625 -100.613281 17.796875 -100.179688 17.796875 -99.640625 C 17.796875 -98.242188 17.523438 -97.546875 16.984375 -97.546875 C 16.441406 -97.546875 15.898438 -97.460938 15.359375 -97.296875 C 14.828125 -97.140625 14.5625 -96.195312 14.5625 -94.46875 C 15.851562 -94.46875 17.28125 -94.65625 18.84375 -95.03125 C 20.40625 -95.414062 21.78125 -95.660156 22.96875 -95.765625 C 27.71875 -96.628906 32.460938 -97.410156 37.203125 -98.109375 C 41.953125 -98.804688 46.804688 -99.15625 51.765625 -99.15625 C 54.347656 -99.15625 56.234375 -98.613281 57.421875 -97.53125 C 58.609375 -96.457031 59.039062 -95.378906 58.71875 -94.296875 C 58.394531 -93.222656 57.207031 -92.6875 55.15625 -92.6875 C 54.945312 -93.550781 54.8125 -93.957031 54.75 -93.90625 C 54.695312 -93.851562 54.1875 -93.929688 53.21875 -94.140625 C 52.789062 -94.253906 51.925781 -94.3125 50.625 -94.3125 C 48.363281 -94.3125 45.375 -94.066406 41.65625 -93.578125 C 37.9375 -93.097656 34.082031 -92.53125 30.09375 -91.875 C 26.101562 -91.226562 22.539062 -90.609375 19.40625 -90.015625 C 16.28125 -89.429688 14.234375 -89.03125 13.265625 -88.8125 L 10.03125 -55.640625 C 9.925781 -54.890625 9.898438 -54.082031 9.953125 -53.21875 C 10.003906 -52.351562 10.03125 -51.488281 10.03125 -50.625 C 10.03125 -49.550781 9.945312 -48.851562 9.78125 -48.53125 C 9.625 -48.207031 9.546875 -47.453125 9.546875 -46.265625 C 9.546875 -43.890625 9.597656 -41.164062 9.703125 -38.09375 C 9.816406 -35.019531 9.765625 -32.617188 9.546875 -30.890625 C 9.429688 -29.921875 9.347656 -28.007812 9.296875 -25.15625 C 9.242188 -22.300781 9.191406 -18.984375 9.140625 -15.203125 C 9.085938 -11.429688 9.0625 -7.628906 9.0625 -3.796875 C 9.0625 0.0234375 9.0625 3.5 9.0625 6.625 C 9.0625 9.757812 9.113281 12.023438 9.21875 13.421875 C 9.21875 14.609375 9.351562 16.414062 9.625 18.84375 C 9.894531 21.269531 9.945312 23.453125 9.78125 25.390625 C 9.625 27.335938 8.84375 28.3125 7.4375 28.3125 C 5.394531 28.3125 4.15625 27.175781 3.71875 24.90625 C 3.289062 22.644531 3.078125 20.546875 3.078125 18.609375 C 2.753906 14.722656 2.5625 10.191406 2.5 5.015625 C 2.445312 -0.160156 2.445312 -5.335938 2.5 -10.515625 C 2.5625 -15.691406 2.59375 -20.222656 2.59375 -24.109375 L 3.078125 -31.703125 C 3.078125 -33.210938 3.078125 -35.53125 3.078125 -38.65625 C 3.078125 -41.789062 3.128906 -45.109375 3.234375 -48.609375 C 3.335938 -52.117188 3.441406 -55.328125 3.546875 -58.234375 C 3.660156 -61.148438 3.828125 -63.195312 4.046875 -64.375 C 4.265625 -65.457031 4.398438 -66.753906 4.453125 -68.265625 C 4.503906 -69.773438 4.582031 -71.066406 4.6875 -72.140625 L 6.140625 -87.1875 C 5.710938 -87.082031 4.769531 -86.867188 3.3125 -86.546875 C 1.851562 -86.222656 0.695312 -85.953125 -0.15625 -85.734375 C -5.445312 -84.441406 -10.488281 -83.066406 -15.28125 -81.609375 C -20.082031 -80.148438 -25.019531 -78.453125 -30.09375 -76.515625 C -31.0625 -76.085938 -31.945312 -75.628906 -32.75 -75.140625 C -33.5625 -74.648438 -34.453125 -74.191406 -35.421875 -73.765625 C -36.722656 -73.222656 -37.5625 -72.84375 -37.9375 -72.625 C -38.3125 -72.414062 -38.5 -72.148438 -38.5 -71.828125 C -38.5 -71.503906 -38.769531 -70.800781 -39.3125 -69.71875 C -39.738281 -69.613281 -40.164062 -69.53125 -40.59375 -69.46875 C -41.03125 -69.414062 -41.519531 -69.390625 -42.0625 -69.390625 C -42.925781 -69.390625 -43.707031 -69.578125 -44.40625 -69.953125 C -45.101562 -70.335938 -45.453125 -71.066406 -45.453125 -72.140625 Z M -45.453125 -72.140625 "/></g></g></g><g fill="#504081" fill-opacity="1"><g transform="translate(668.892029, 163.706159)"><g><path d="M 13.421875 0.640625 C 11.265625 0.640625 9.347656 -0.0546875 7.671875 -1.453125 C 6.003906 -2.859375 4.738281 -4.316406 3.875 -5.828125 C 1.9375 -9.492188 0.832031 -13.832031 0.5625 -18.84375 C 0.289062 -23.863281 0.585938 -28.421875 1.453125 -32.515625 C 1.671875 -33.703125 1.96875 -35.128906 2.34375 -36.796875 C 2.71875 -38.472656 3.28125 -39.957031 4.03125 -41.25 C 4.789062 -42.539062 5.710938 -43.1875 6.796875 -43.1875 C 9.273438 -43.1875 10.488281 -42.347656 10.4375 -40.671875 C 10.382812 -39.003906 9.925781 -36.414062 9.0625 -32.90625 C 8.195312 -29.40625 7.765625 -24.90625 7.765625 -19.40625 C 7.765625 -17.789062 7.976562 -15.847656 8.40625 -13.578125 C 8.84375 -11.316406 9.519531 -9.320312 10.4375 -7.59375 C 11.351562 -5.875 12.507812 -5.015625 13.90625 -5.015625 C 15.632812 -5.015625 17.601562 -5.769531 19.8125 -7.28125 C 22.019531 -8.789062 24.066406 -10.488281 25.953125 -12.375 C 27.847656 -14.257812 29.171875 -15.6875 29.921875 -16.65625 C 30.140625 -16.875 30.734375 -17.601562 31.703125 -18.84375 C 32.671875 -20.082031 33.828125 -21.484375 35.171875 -23.046875 C 36.523438 -24.609375 37.847656 -25.984375 39.140625 -27.171875 C 40.441406 -28.359375 41.46875 -28.953125 42.21875 -28.953125 C 42.976562 -28.953125 43.359375 -28.304688 43.359375 -27.015625 C 43.359375 -26.253906 42.84375 -25.09375 41.8125 -23.53125 C 40.789062 -21.96875 39.578125 -20.320312 38.171875 -18.59375 C 36.773438 -16.875 35.398438 -15.257812 34.046875 -13.75 C 32.703125 -12.238281 31.707031 -11.160156 31.0625 -10.515625 C 29.769531 -9.222656 28.234375 -7.6875 26.453125 -5.90625 C 24.671875 -4.125 22.703125 -2.585938 20.546875 -1.296875 C 18.390625 -0.00390625 16.015625 0.640625 13.421875 0.640625 Z M 8.25 -63.578125 C 8.25 -65.410156 8.734375 -67 9.703125 -68.34375 C 10.671875 -69.695312 11.75 -70.375 12.9375 -70.375 C 14.226562 -70.375 15.304688 -69.5625 16.171875 -67.9375 C 17.679688 -64.914062 17.867188 -62.566406 16.734375 -60.890625 C 15.609375 -59.222656 14.238281 -58.390625 12.625 -58.390625 C 11.539062 -58.390625 10.539062 -58.820312 9.625 -59.6875 C 8.707031 -60.550781 8.25 -61.847656 8.25 -63.578125 Z M 8.25 -63.578125 "/></g></g></g><g fill="#504081" fill-opacity="1"><g transform="translate(705.771917, 163.706159)"><g><path d="M 4.53125 -8.40625 C 2.476562 -8.40625 1.15625 -9.644531 0.5625 -12.125 C -0.03125 -14.613281 -0.113281 -17.71875 0.3125 -21.4375 C 0.75 -25.15625 1.535156 -28.875 2.671875 -32.59375 C 3.804688 -36.3125 5.070312 -39.410156 6.46875 -41.890625 C 7.875 -44.378906 9.171875 -45.625 10.359375 -45.625 C 12.191406 -45.625 13.050781 -44.785156 12.9375 -43.109375 C 12.832031 -41.441406 12.296875 -39.234375 11.328125 -36.484375 C 10.359375 -33.734375 9.382812 -30.710938 8.40625 -27.421875 C 7.4375 -24.128906 6.953125 -20.921875 6.953125 -17.796875 L 14.71875 -29.609375 C 15.039062 -30.253906 15.738281 -31.382812 16.8125 -33 C 17.894531 -34.613281 19.109375 -36.117188 20.453125 -37.515625 C 21.804688 -38.921875 23.128906 -39.625 24.421875 -39.625 C 25.722656 -39.625 26.75 -38.765625 27.5 -37.046875 L 28.46875 -27.984375 C 28.46875 -27.015625 28.519531 -25.503906 28.625 -23.453125 C 28.738281 -21.398438 28.984375 -19.320312 29.359375 -17.21875 C 29.734375 -15.125 30.351562 -13.320312 31.21875 -11.8125 C 32.082031 -10.300781 33.269531 -9.546875 34.78125 -9.546875 C 36.394531 -9.546875 38.09375 -10.515625 39.875 -12.453125 C 41.65625 -14.398438 43.378906 -16.640625 45.046875 -19.171875 C 46.722656 -21.703125 48.234375 -23.9375 49.578125 -25.875 C 50.929688 -27.820312 51.984375 -28.796875 52.734375 -28.796875 C 54.347656 -28.796875 55.101562 -28.175781 55 -26.9375 C 54.894531 -25.695312 54.351562 -24.265625 53.375 -22.640625 C 52.40625 -21.023438 51.410156 -19.515625 50.390625 -18.109375 C 49.367188 -16.710938 48.75 -15.851562 48.53125 -15.53125 C 47.769531 -14.5625 46.742188 -13.320312 45.453125 -11.8125 C 44.160156 -10.300781 42.8125 -8.894531 41.40625 -7.59375 C 40.007812 -6.300781 38.664062 -5.492188 37.375 -5.171875 C 36.289062 -4.847656 35.265625 -4.6875 34.296875 -4.6875 C 31.816406 -4.6875 29.847656 -5.601562 28.390625 -7.4375 C 26.929688 -9.269531 25.828125 -11.265625 25.078125 -13.421875 C 23.992188 -16.660156 23.394531 -19.546875 23.28125 -22.078125 C 23.175781 -24.609375 23.175781 -26.765625 23.28125 -28.546875 C 23.394531 -30.328125 23.179688 -31.703125 22.640625 -32.671875 C 21.347656 -31.804688 19.972656 -30.082031 18.515625 -27.5 C 17.066406 -24.914062 15.554688 -22.140625 13.984375 -19.171875 C 12.421875 -16.203125 10.859375 -13.664062 9.296875 -11.5625 C 7.734375 -9.457031 6.144531 -8.40625 4.53125 -8.40625 Z M 4.53125 -8.40625 "/></g></g></g><g fill="#504081" fill-opacity="1"><g transform="translate(754.29809, 163.706159)"><g><path d="M 0 59.6875 C 2.15625 59.6875 4.335938 58.609375 6.546875 56.453125 C 8.765625 54.296875 10.410156 52.300781 11.484375 50.46875 C 15.253906 44.101562 17.648438 37.363281 18.671875 30.25 C 19.703125 23.132812 20.597656 16.285156 21.359375 9.703125 L 22 0.328125 C 21.351562 0.535156 20.351562 1.367188 19 2.828125 C 17.65625 4.285156 16.363281 5.820312 15.125 7.4375 C 13.882812 9.0625 13.050781 10.195312 12.625 10.84375 C 11.4375 12.351562 9.953125 14.375 8.171875 16.90625 C 6.390625 19.4375 4.632812 22.050781 2.90625 24.75 C 1.1875 27.445312 -0.101562 29.820312 -0.96875 31.875 C -1.289062 32.726562 -1.882812 34.234375 -2.75 36.390625 C -3.613281 38.546875 -4.394531 40.945312 -5.09375 43.59375 C -5.789062 46.238281 -6.21875 48.773438 -6.375 51.203125 C -6.539062 53.628906 -6.164062 55.648438 -5.25 57.265625 C -4.332031 58.878906 -2.582031 59.6875 0 59.6875 Z M -1.78125 -13.75 C -1.78125 -16.332031 -1 -19.40625 0.5625 -22.96875 C 2.125 -26.53125 4.195312 -29.984375 6.78125 -33.328125 C 9.375 -36.671875 12.15625 -39.445312 15.125 -41.65625 C 18.09375 -43.863281 21.03125 -44.96875 23.9375 -44.96875 C 26.957031 -44.96875 29.085938 -43.890625 30.328125 -41.734375 C 31.566406 -39.578125 31.488281 -37.421875 30.09375 -35.265625 C 28.789062 -35.367188 27.925781 -35.851562 27.5 -36.71875 C 27.070312 -37.582031 26.640625 -38.445312 26.203125 -39.3125 C 25.773438 -40.175781 24.96875 -40.609375 23.78125 -40.609375 C 21.40625 -40.609375 18.976562 -39.472656 16.5 -37.203125 C 14.019531 -34.941406 11.726562 -32.164062 9.625 -28.875 C 7.519531 -25.582031 5.820312 -22.316406 4.53125 -19.078125 C 3.238281 -15.847656 2.59375 -13.207031 2.59375 -11.15625 C 4.53125 -11.695312 6.253906 -12.800781 7.765625 -14.46875 C 9.273438 -16.144531 10.566406 -17.523438 11.640625 -18.609375 C 12.722656 -19.785156 13.9375 -21.289062 15.28125 -23.125 C 16.632812 -24.957031 17.796875 -26.578125 18.765625 -27.984375 C 19.304688 -28.847656 20.003906 -29.925781 20.859375 -31.21875 C 21.722656 -32.507812 22.804688 -33.15625 24.109375 -33.15625 C 25.285156 -33.15625 26.195312 -32.453125 26.84375 -31.046875 C 27.5 -29.648438 27.929688 -27.898438 28.140625 -25.796875 C 28.359375 -23.691406 28.46875 -21.585938 28.46875 -19.484375 C 28.46875 -17.390625 28.46875 -15.640625 28.46875 -14.234375 C 29.332031 -14.453125 30.65625 -15.257812 32.4375 -16.65625 C 34.21875 -18.0625 36.1875 -19.65625 38.34375 -21.4375 C 40.5 -23.21875 42.625 -24.78125 44.71875 -26.125 C 46.820312 -27.46875 48.578125 -28.140625 49.984375 -28.140625 C 50.628906 -28.140625 51.0625 -27.789062 51.28125 -27.09375 C 51.5 -26.394531 51.445312 -25.722656 51.125 -25.078125 C 51.007812 -24.960938 50.222656 -24.335938 48.765625 -23.203125 C 47.316406 -22.078125 45.59375 -20.785156 43.59375 -19.328125 C 41.601562 -17.867188 39.660156 -16.382812 37.765625 -14.875 C 35.878906 -13.375 34.453125 -12.132812 33.484375 -11.15625 C 32.617188 -10.40625 31.703125 -9.757812 30.734375 -9.21875 C 29.765625 -8.675781 29.171875 -7.707031 28.953125 -6.3125 C 28.628906 -3.289062 28.46875 -0.429688 28.46875 2.265625 C 28.46875 5.503906 28.222656 9.171875 27.734375 13.265625 C 27.253906 17.359375 26.582031 21.535156 25.71875 25.796875 C 24.851562 30.054688 23.851562 34.070312 22.71875 37.84375 C 21.59375 41.625 20.382812 44.804688 19.09375 47.390625 C 15.957031 53.546875 12.691406 57.890625 9.296875 60.421875 C 5.898438 62.953125 2.800781 64.21875 0 64.21875 C -3.019531 64.21875 -5.5 63.113281 -7.4375 60.90625 C -9.382812 58.695312 -10.359375 55.972656 -10.359375 52.734375 C -10.359375 49.285156 -10.140625 46.320312 -9.703125 43.84375 C -9.273438 41.363281 -8.601562 38.960938 -7.6875 36.640625 C -6.769531 34.316406 -5.554688 31.644531 -4.046875 28.625 C -0.804688 22.050781 2.832031 16.066406 6.875 10.671875 C 10.914062 5.285156 15.414062 -0.0507812 20.375 -5.34375 C 21.78125 -6.851562 22.398438 -9.359375 22.234375 -12.859375 C 22.078125 -16.367188 22 -19.789062 22 -23.125 C 21.132812 -22.800781 19.921875 -21.476562 18.359375 -19.15625 C 16.796875 -16.84375 15.097656 -14.878906 13.265625 -13.265625 C 12.179688 -12.179688 10.640625 -10.75 8.640625 -8.96875 C 6.648438 -7.195312 4.632812 -6.3125 2.59375 -6.3125 C 0.96875 -6.3125 -0.140625 -6.738281 -0.734375 -7.59375 C -1.328125 -8.457031 -1.648438 -9.484375 -1.703125 -10.671875 C -1.753906 -11.859375 -1.78125 -12.882812 -1.78125 -13.75 Z M -1.78125 -13.75 "/></g></g></g><g fill="#504081" fill-opacity="1"><g transform="translate(828.584072, 186.581157)"><g><path d="M 16.382812 2.542969 C 13.394531 2.542969 10.960938 1.578125 9.085938 -0.347656 C 7.21875 -2.261719 6.285156 -4.621094 6.285156 -7.421875 C 6.285156 -10.324219 7.230469 -12.691406 9.113281 -14.527344 C 10.988281 -16.351562 13.410156 -17.261719 16.382812 -17.261719 C 19.4375 -17.261719 21.902344 -16.351562 23.777344 -14.527344 C 25.660156 -12.691406 26.605469 -10.324219 26.605469 -7.421875 C 26.605469 -4.621094 25.671875 -2.261719 23.804688 -0.347656 C 21.929688 1.578125 19.453125 2.542969 16.382812 2.542969 Z M 16.382812 -0.496094 C 18.597656 -0.496094 20.347656 -1.152344 21.628906 -2.46875 C 22.917969 -3.792969 23.5625 -5.445312 23.5625 -7.421875 C 23.5625 -9.46875 22.929688 -11.109375 21.65625 -12.347656 C 20.375 -13.597656 18.613281 -14.222656 16.382812 -14.222656 C 14.234375 -14.222656 12.519531 -13.597656 11.234375 -12.347656 C 9.960938 -11.109375 9.328125 -9.46875 9.328125 -7.421875 C 9.328125 -5.445312 9.972656 -3.792969 11.261719 -2.46875 C 12.542969 -1.152344 14.25 -0.496094 16.382812 -0.496094 Z M 16.382812 -0.496094 "/></g></g></g><g fill="#fef74b" fill-opacity="1"><g transform="translate(828.584072, 186.581157)"><g><path d="M 16.375 1.03125 C 13.820312 1.03125 11.753906 0.21875 10.171875 -1.40625 C 8.597656 -3.03125 7.8125 -5.035156 7.8125 -7.421875 C 7.8125 -9.898438 8.597656 -11.90625 10.171875 -13.4375 C 11.753906 -14.96875 13.820312 -15.734375 16.375 -15.734375 C 19.019531 -15.734375 21.128906 -14.96875 22.703125 -13.4375 C 24.285156 -11.90625 25.078125 -9.898438 25.078125 -7.421875 C 25.078125 -5.035156 24.285156 -3.03125 22.703125 -1.40625 C 21.128906 0.21875 19.019531 1.03125 16.375 1.03125 Z M 16.375 1.03125 "/></g></g></g></svg>