<svg xmlns="http://www.w3.org/2000/svg" xmlns:xlink="http://www.w3.org/1999/xlink" width="1548" zoomAndPan="magnify" viewBox="0 0 1161 296.999993" height="396" preserveAspectRatio="xMidYMid meet" version="1.0"><defs><g/></defs><g fill="#504081" fill-opacity="1"><g transform="translate(408.903521, 163.706181)"><g><path d="M 8.09375 -42.546875 C 8.09375 -48.046875 8.976562 -53.707031 10.75 -59.53125 C 12.53125 -65.351562 14.929688 -71.066406 17.953125 -76.671875 C 20.972656 -82.285156 24.34375 -87.570312 28.0625 -92.53125 C 31.78125 -97.488281 35.582031 -101.910156 39.46875 -105.796875 C 40.332031 -106.546875 41.085938 -107.191406 41.734375 -107.734375 C 42.378906 -108.273438 43.082031 -108.921875 43.84375 -109.671875 C 45.5625 -111.398438 47.632812 -113.179688 50.0625 -115.015625 C 52.488281 -116.847656 55.078125 -118.410156 57.828125 -119.703125 C 60.578125 -120.992188 63.300781 -121.640625 66 -121.640625 C 68.15625 -121.640625 70.203125 -121.097656 72.140625 -120.015625 C 74.085938 -118.941406 75.816406 -117.0625 77.328125 -114.375 C 79.367188 -110.707031 80.523438 -106.203125 80.796875 -100.859375 C 81.066406 -95.523438 80.851562 -89.914062 80.15625 -84.03125 C 79.457031 -78.15625 78.539062 -72.546875 77.40625 -67.203125 C 76.269531 -61.867188 75.269531 -57.367188 74.40625 -53.703125 C 72.46875 -44.972656 70.632812 -36.882812 68.90625 -29.4375 C 67.1875 -22 65.570312 -14.71875 64.0625 -7.59375 C 62.550781 -0.476562 61.117188 6.847656 59.765625 14.390625 C 58.421875 21.941406 57.101562 30.25 55.8125 39.3125 C 55.59375 40.925781 55.375 42.59375 55.15625 44.3125 C 54.945312 46.039062 54.734375 47.71875 54.515625 49.34375 C 54.410156 50.414062 54.25 51.867188 54.03125 53.703125 C 53.8125 55.535156 53.109375 56.453125 51.921875 56.453125 C 51.492188 56.453125 51.171875 56.398438 50.953125 56.296875 C 49.765625 55.753906 49.25 54.457031 49.40625 52.40625 C 49.570312 50.363281 49.710938 48.53125 49.828125 46.90625 L 53.546875 17.3125 C 54.296875 10.945312 55.265625 4.613281 56.453125 -1.6875 C 57.640625 -8 58.878906 -14.285156 60.171875 -20.546875 C 61.679688 -26.585938 63.109375 -32.625 64.453125 -38.65625 C 65.804688 -44.695312 67.238281 -50.738281 68.75 -56.78125 C 69.5 -59.6875 70.382812 -63.539062 71.40625 -68.34375 C 72.4375 -73.144531 73.351562 -78.210938 74.15625 -83.546875 C 74.96875 -88.890625 75.347656 -93.957031 75.296875 -98.75 C 75.242188 -103.550781 74.519531 -107.460938 73.125 -110.484375 C 72.039062 -112.640625 70.957031 -114.175781 69.875 -115.09375 C 68.800781 -116.007812 67.1875 -116.46875 65.03125 -116.46875 C 63.195312 -116.46875 60.984375 -115.738281 58.390625 -114.28125 C 55.804688 -112.832031 53.191406 -111.03125 50.546875 -108.875 C 47.910156 -106.71875 45.515625 -104.554688 43.359375 -102.390625 C 41.203125 -100.234375 39.582031 -98.457031 38.5 -97.0625 C 34.832031 -92.957031 31.488281 -88.585938 28.46875 -83.953125 C 25.445312 -79.316406 22.859375 -74.460938 20.703125 -69.390625 C 19.410156 -66.484375 18.195312 -63.113281 17.0625 -59.28125 C 15.9375 -55.457031 15.15625 -51.492188 14.71875 -47.390625 C 14.289062 -43.296875 14.425781 -39.332031 15.125 -35.5 C 15.820312 -31.675781 17.359375 -28.304688 19.734375 -25.390625 C 20.816406 -23.992188 22.003906 -22.78125 23.296875 -21.75 C 24.585938 -20.726562 26.097656 -19.945312 27.828125 -19.40625 C 28.691406 -19.082031 29.472656 -18.835938 30.171875 -18.671875 C 30.867188 -18.515625 31.597656 -18.332031 32.359375 -18.125 C 35.046875 -17.363281 35.929688 -16.203125 35.015625 -14.640625 C 34.097656 -13.078125 32.132812 -12.296875 29.125 -12.296875 C 27.070312 -12.296875 24.722656 -12.941406 22.078125 -14.234375 C 19.441406 -15.523438 16.71875 -17.84375 13.90625 -21.1875 C 11.644531 -23.882812 10.109375 -27.066406 9.296875 -30.734375 C 8.492188 -34.398438 8.09375 -38.335938 8.09375 -42.546875 Z M 8.09375 -42.546875 "/></g></g></g><g fill="#504081" fill-opacity="1"><g transform="translate(485.413083, 163.706181)"><g><path d="M 1.9375 26.6875 C 1.9375 28.957031 2.640625 30.09375 4.046875 30.09375 C 4.796875 30.09375 5.601562 29.820312 6.46875 29.28125 C 7.332031 28.738281 8.035156 28.253906 8.578125 27.828125 C 10.734375 26.203125 12.644531 23.742188 14.3125 20.453125 C 15.988281 17.171875 17.203125 14.179688 17.953125 11.484375 C 18.492188 9.648438 18.789062 7.789062 18.84375 5.90625 C 18.894531 4.019531 18.921875 1.941406 18.921875 -0.328125 C 17.628906 0.429688 16.144531 1.753906 14.46875 3.640625 C 12.800781 5.523438 11.484375 7.0625 10.515625 8.25 C 8.578125 10.625 6.660156 13.484375 4.765625 16.828125 C 2.878906 20.171875 1.9375 23.457031 1.9375 26.6875 Z M 0.484375 -26.203125 C 0.484375 -29.003906 1.238281 -31.507812 2.75 -33.71875 C 4.257812 -35.9375 6.066406 -37.71875 8.171875 -39.0625 C 10.273438 -40.414062 12.082031 -41.09375 13.59375 -41.09375 C 14.78125 -41.09375 15.664062 -40.660156 16.25 -39.796875 C 16.84375 -38.929688 16.875 -37.472656 16.34375 -35.421875 C 15.039062 -35.097656 14.117188 -34.910156 13.578125 -34.859375 C 13.046875 -34.804688 12.617188 -34.644531 12.296875 -34.375 C 11.972656 -34.101562 11.378906 -33.484375 10.515625 -32.515625 C 8.359375 -30.140625 7.359375 -28.222656 7.515625 -26.765625 C 7.679688 -25.316406 8.546875 -23.972656 10.109375 -22.734375 C 11.671875 -21.492188 13.609375 -19.957031 15.921875 -18.125 C 18.242188 -16.289062 20.429688 -13.804688 22.484375 -10.671875 C 24.859375 -12.296875 27.285156 -14.1875 29.765625 -16.34375 L 44.8125 -26.859375 C 46.207031 -27.828125 47.414062 -28.5 48.4375 -28.875 C 49.46875 -29.25 50.363281 -29.4375 51.125 -29.4375 C 52.414062 -29.4375 52.953125 -28.894531 52.734375 -27.8125 C 52.515625 -26.738281 51.488281 -25.664062 49.65625 -24.59375 L 38.65625 -16.984375 C 38.226562 -16.765625 37.3125 -16.144531 35.90625 -15.125 C 34.507812 -14.101562 32.972656 -12.972656 31.296875 -11.734375 C 29.628906 -10.492188 28.203125 -9.332031 27.015625 -8.25 C 25.828125 -7.164062 25.179688 -6.460938 25.078125 -6.140625 C 24.960938 -5.609375 25.117188 -4.585938 25.546875 -3.078125 C 25.984375 -1.566406 26.28125 0.398438 26.4375 2.828125 C 26.601562 5.253906 26.28125 8.21875 25.46875 11.71875 C 24.664062 15.226562 22.914062 19.300781 20.21875 23.9375 C 17.84375 27.925781 15.253906 30.863281 12.453125 32.75 C 9.648438 34.644531 7.007812 35.59375 4.53125 35.59375 C 2.257812 35.59375 0.398438 34.835938 -1.046875 33.328125 C -2.503906 31.816406 -3.234375 29.601562 -3.234375 26.6875 C -3.234375 23.019531 -2.34375 19.460938 -0.5625 16.015625 C 1.21875 12.566406 3.347656 9.382812 5.828125 6.46875 C 8.304688 3.5625 10.597656 1.054688 12.703125 -1.046875 C 14.804688 -3.148438 16.179688 -4.6875 16.828125 -5.65625 C 15.523438 -7.925781 13.957031 -9.894531 12.125 -11.5625 C 10.289062 -13.238281 8.484375 -14.773438 6.703125 -16.171875 C 4.929688 -17.578125 3.453125 -19.0625 2.265625 -20.625 C 1.078125 -22.1875 0.484375 -24.046875 0.484375 -26.203125 Z M 0.484375 -26.203125 "/></g></g></g><g fill="#504081" fill-opacity="1"><g transform="translate(532.15994, 163.706181)"><g><path d="M 0.328125 -12.453125 C 0.328125 -17.847656 0.648438 -23.671875 1.296875 -29.921875 C 1.941406 -36.179688 2.800781 -42.382812 3.875 -48.53125 C 4.957031 -54.675781 6.144531 -60.226562 7.4375 -65.1875 C 7.976562 -66.8125 8.519531 -68.617188 9.0625 -70.609375 C 9.601562 -72.609375 10.300781 -74.332031 11.15625 -75.78125 C 12.019531 -77.238281 13.15625 -77.96875 14.5625 -77.96875 C 15.851562 -77.96875 16.660156 -77.484375 16.984375 -76.515625 C 17.304688 -75.546875 17.332031 -74.382812 17.0625 -73.03125 C 16.789062 -71.6875 16.441406 -70.445312 16.015625 -69.3125 C 15.585938 -68.1875 15.316406 -67.40625 15.203125 -66.96875 C 14.335938 -63.738281 13.335938 -59.34375 12.203125 -53.78125 C 11.078125 -48.226562 10 -42.160156 8.96875 -35.578125 C 7.945312 -29.003906 7.164062 -22.484375 6.625 -16.015625 C 6.09375 -9.546875 5.988281 -3.695312 6.3125 1.53125 C 6.632812 6.757812 7.492188 10.78125 8.890625 13.59375 C 10.722656 12.613281 12.234375 11.15625 13.421875 9.21875 C 14.609375 7.28125 15.632812 5.394531 16.5 3.5625 C 18.976562 -1.1875 21.40625 -6.203125 23.78125 -11.484375 C 26.15625 -16.765625 28.632812 -21.726562 31.21875 -26.375 C 32.082031 -28.09375 33 -28.953125 33.96875 -28.953125 C 34.40625 -28.953125 34.753906 -28.765625 35.015625 -28.390625 C 35.285156 -28.015625 35.421875 -27.609375 35.421875 -27.171875 C 35.421875 -26.847656 34.988281 -25.820312 34.125 -24.09375 C 33.269531 -22.375 32.382812 -20.597656 31.46875 -18.765625 C 30.550781 -16.929688 29.929688 -15.742188 29.609375 -15.203125 C 28.523438 -12.941406 27.304688 -10.300781 25.953125 -7.28125 C 24.609375 -4.257812 23.289062 -1.296875 22 1.609375 C 20.707031 4.523438 19.46875 7.007812 18.28125 9.0625 C 17.738281 9.925781 17.007812 11.082031 16.09375 12.53125 C 15.175781 13.988281 14.175781 15.253906 13.09375 16.328125 C 12.019531 17.410156 10.78125 17.953125 9.375 17.953125 C 7.21875 17.953125 5.519531 16.875 4.28125 14.71875 C 3.039062 12.5625 2.148438 9.863281 1.609375 6.625 C 1.078125 3.394531 0.726562 0.0546875 0.5625 -3.390625 C 0.40625 -6.847656 0.328125 -9.867188 0.328125 -12.453125 Z M 0.328125 -12.453125 "/></g></g></g><g fill="#504081" fill-opacity="1"><g transform="translate(560.628616, 163.706181)"><g><path d="M 0 -16.34375 C 0 -18.601562 0.535156 -21.40625 1.609375 -24.75 C 2.691406 -28.09375 4.203125 -31.40625 6.140625 -34.6875 C 8.085938 -37.976562 10.328125 -40.703125 12.859375 -42.859375 C 15.390625 -45.023438 18.0625 -46.109375 20.875 -46.109375 C 23.457031 -46.109375 25.554688 -45.351562 27.171875 -43.84375 C 28.796875 -42.332031 29.769531 -40.789062 30.09375 -39.21875 C 30.414062 -37.65625 29.875 -36.875 28.46875 -36.875 C 27.394531 -36.875 26.289062 -37.492188 25.15625 -38.734375 C 24.019531 -39.984375 22.695312 -40.609375 21.1875 -40.609375 C 20 -40.609375 18.566406 -39.90625 16.890625 -38.5 C 15.222656 -37.09375 13.207031 -34.34375 10.84375 -30.25 C 9.757812 -28.519531 8.757812 -26.28125 7.84375 -23.53125 C 6.925781 -20.78125 6.46875 -18.0625 6.46875 -15.375 C 6.6875 -15.582031 6.765625 -15.660156 6.703125 -15.609375 C 6.648438 -15.554688 6.84375 -15.742188 7.28125 -16.171875 L 8.578125 -18.125 C 9.441406 -19.414062 10.4375 -21.082031 11.5625 -23.125 C 12.695312 -25.175781 13.859375 -27.253906 15.046875 -29.359375 C 16.234375 -31.460938 17.3125 -33.238281 18.28125 -34.6875 C 19.25 -36.144531 20.003906 -36.875 20.546875 -36.875 C 22.484375 -36.875 23.613281 -36.171875 23.9375 -34.765625 C 24.257812 -33.367188 24.394531 -31.644531 24.34375 -29.59375 C 24.289062 -27.550781 24.476562 -25.503906 24.90625 -23.453125 C 25.550781 -20.546875 26.546875 -18.414062 27.890625 -17.0625 C 29.242188 -15.71875 30.785156 -15.046875 32.515625 -15.046875 C 35.535156 -15.046875 38.878906 -16.878906 42.546875 -20.546875 C 44.054688 -21.941406 45.132812 -23.097656 45.78125 -24.015625 C 46.425781 -24.929688 47.289062 -25.984375 48.375 -27.171875 C 49.125 -28.253906 50.09375 -28.796875 51.28125 -28.796875 C 52.46875 -28.796875 52.976562 -27.796875 52.8125 -25.796875 C 52.65625 -23.804688 50.523438 -20.816406 46.421875 -16.828125 L 41.578125 -12.9375 C 38.441406 -10.78125 35.421875 -9.703125 32.515625 -9.703125 C 29.816406 -9.703125 27.46875 -10.507812 25.46875 -12.125 C 23.476562 -13.75 21.941406 -15.742188 20.859375 -18.109375 C 19.785156 -20.484375 19.25 -22.804688 19.25 -25.078125 C 18.5 -24.535156 17.632812 -23.347656 16.65625 -21.515625 C 15.6875 -19.679688 14.632812 -17.710938 13.5 -15.609375 C 12.375 -13.503906 11.21875 -11.671875 10.03125 -10.109375 C 8.84375 -8.546875 7.65625 -7.765625 6.46875 -7.765625 C 3.445312 -7.765625 1.613281 -8.460938 0.96875 -9.859375 C 0.320312 -11.265625 0 -13.425781 0 -16.34375 Z M 0 -16.34375 "/></g></g></g><g fill="#504081" fill-opacity="1"><g transform="translate(607.537235, 163.706181)"><g><path d="M 8.578125 -13.109375 C 6.304688 -13.109375 4.710938 -14.238281 3.796875 -16.5 C 2.878906 -18.757812 2.472656 -21.5625 2.578125 -24.90625 C 2.691406 -28.25 3.125 -31.59375 3.875 -34.9375 C 4.632812 -38.28125 5.578125 -41.082031 6.703125 -43.34375 C 7.835938 -45.613281 9 -46.75 10.1875 -46.75 C 12.238281 -46.75 13.453125 -46.289062 13.828125 -45.375 C 14.203125 -44.457031 14.117188 -43.023438 13.578125 -41.078125 C 13.046875 -39.140625 12.425781 -36.6875 11.71875 -33.71875 C 11.019531 -30.757812 10.671875 -27.226562 10.671875 -23.125 C 10.890625 -23.34375 11.050781 -23.503906 11.15625 -23.609375 C 11.269531 -23.722656 11.378906 -23.832031 11.484375 -23.9375 L 19.09375 -36.71875 C 19.738281 -37.800781 20.625 -39.226562 21.75 -41 C 22.882812 -42.78125 24.125 -44.398438 25.46875 -45.859375 C 26.820312 -47.316406 28.144531 -48.046875 29.4375 -48.046875 C 31.914062 -48.046875 33.53125 -46.773438 34.28125 -44.234375 C 35.039062 -41.703125 35.421875 -39.144531 35.421875 -36.5625 C 36.609375 -36.769531 38.0625 -37.765625 39.78125 -39.546875 C 41.507812 -41.328125 43.078125 -42.863281 44.484375 -44.15625 C 45.242188 -45.019531 45.914062 -45.773438 46.5 -46.421875 C 47.09375 -47.066406 47.820312 -47.609375 48.6875 -48.046875 C 49.769531 -48.585938 50.742188 -48.859375 51.609375 -48.859375 C 52.679688 -48.859375 53.597656 -48.425781 54.359375 -47.5625 C 55.109375 -46.695312 55.535156 -45.101562 55.640625 -42.78125 C 55.753906 -40.46875 55.703125 -37.800781 55.484375 -34.78125 C 55.265625 -31.757812 55.019531 -28.738281 54.75 -25.71875 C 54.488281 -22.695312 54.359375 -20.054688 54.359375 -17.796875 C 54.359375 -12.835938 54.757812 -9.359375 55.5625 -7.359375 C 56.375 -5.367188 57.476562 -4.375 58.875 -4.375 C 60.5 -4.375 62.304688 -5.453125 64.296875 -7.609375 C 66.296875 -9.765625 68.289062 -12.296875 70.28125 -15.203125 C 72.28125 -18.117188 73.976562 -20.757812 75.375 -23.125 C 76.132812 -24.3125 76.863281 -25.5 77.5625 -26.6875 C 78.269531 -27.875 79.484375 -28.46875 81.203125 -28.46875 C 81.523438 -28.46875 81.875 -28.25 82.25 -27.8125 C 82.632812 -27.382812 82.828125 -26.90625 82.828125 -26.375 C 82.828125 -25.71875 82.5 -24.796875 81.84375 -23.609375 C 81.195312 -22.429688 80.523438 -21.273438 79.828125 -20.140625 C 79.128906 -19.003906 78.5625 -18.113281 78.125 -17.46875 C 77.695312 -16.71875 77.320312 -16.070312 77 -15.53125 C 76.675781 -14.988281 76.242188 -14.285156 75.703125 -13.421875 C 75.273438 -12.773438 74.84375 -12.207031 74.40625 -11.71875 C 73.976562 -11.238281 73.492188 -10.566406 72.953125 -9.703125 C 70.898438 -6.679688 68.445312 -4.035156 65.59375 -1.765625 C 62.738281 0.492188 59.960938 1.625 57.265625 1.625 C 55.753906 1.625 54.296875 1.132812 52.890625 0.15625 C 51.492188 -0.8125 50.363281 -2.484375 49.5 -4.859375 C 47.988281 -8.847656 47.257812 -13.050781 47.3125 -17.46875 C 47.363281 -21.894531 47.710938 -26.207031 48.359375 -30.40625 C 49.015625 -34.613281 49.34375 -38.28125 49.34375 -41.40625 C 48.257812 -40.65625 46.9375 -39.414062 45.375 -37.6875 C 43.8125 -35.96875 42.21875 -34.378906 40.59375 -32.921875 C 38.976562 -31.460938 37.414062 -30.734375 35.90625 -30.734375 C 33.425781 -30.734375 31.726562 -31.921875 30.8125 -34.296875 C 29.894531 -36.671875 29.4375 -39.039062 29.4375 -41.40625 C 27.601562 -40.21875 25.847656 -38.113281 24.171875 -35.09375 C 22.503906 -32.082031 20.832031 -28.90625 19.15625 -25.5625 C 17.488281 -22.21875 15.816406 -19.332031 14.140625 -16.90625 C 12.472656 -14.476562 10.722656 -13.210938 8.890625 -13.109375 Z M 8.578125 -13.109375 "/></g></g></g><g fill="#504081" fill-opacity="1"><g transform="translate(725.834078, 186.581179)"><g><path d="M 16.382812 2.542969 C 13.394531 2.542969 10.960938 1.578125 9.085938 -0.347656 C 7.21875 -2.261719 6.285156 -4.621094 6.285156 -7.421875 C 6.285156 -10.324219 7.230469 -12.691406 9.113281 -14.527344 C 10.988281 -16.351562 13.410156 -17.261719 16.382812 -17.261719 C 19.4375 -17.261719 21.902344 -16.351562 23.777344 -14.527344 C 25.660156 -12.691406 26.605469 -10.324219 26.605469 -7.421875 C 26.605469 -4.621094 25.671875 -2.261719 23.804688 -0.347656 C 21.929688 1.578125 19.453125 2.542969 16.382812 2.542969 Z M 16.382812 -0.496094 C 18.597656 -0.496094 20.347656 -1.152344 21.628906 -2.46875 C 22.917969 -3.792969 23.5625 -5.445312 23.5625 -7.421875 C 23.5625 -9.46875 22.929688 -11.109375 21.65625 -12.347656 C 20.375 -13.597656 18.613281 -14.222656 16.382812 -14.222656 C 14.234375 -14.222656 12.519531 -13.597656 11.234375 -12.347656 C 9.960938 -11.109375 9.328125 -9.46875 9.328125 -7.421875 C 9.328125 -5.445312 9.972656 -3.792969 11.261719 -2.46875 C 12.542969 -1.152344 14.25 -0.496094 16.382812 -0.496094 Z M 16.382812 -0.496094 "/></g></g></g><g fill="#fef74b" fill-opacity="1"><g transform="translate(725.834078, 186.581179)"><g><path d="M 16.375 1.03125 C 13.820312 1.03125 11.753906 0.21875 10.171875 -1.40625 C 8.597656 -3.03125 7.8125 -5.035156 7.8125 -7.421875 C 7.8125 -9.898438 8.597656 -11.90625 10.171875 -13.4375 C 11.753906 -14.96875 13.820312 -15.734375 16.375 -15.734375 C 19.019531 -15.734375 21.128906 -14.96875 22.703125 -13.4375 C 24.285156 -11.90625 25.078125 -9.898438 25.078125 -7.421875 C 25.078125 -5.035156 24.285156 -3.03125 22.703125 -1.40625 C 21.128906 0.21875 19.019531 1.03125 16.375 1.03125 Z M 16.375 1.03125 "/></g></g></g></svg>