<svg xmlns="http://www.w3.org/2000/svg" xmlns:xlink="http://www.w3.org/1999/xlink" width="1548" zoomAndPan="magnify" viewBox="0 0 1161 296.999993" height="396" preserveAspectRatio="xMidYMid meet" version="1.0"><defs><g/></defs><g fill="#504081" fill-opacity="1"><g transform="translate(380.23946, 163.706159)"><g><path d="M 78.125 -109.359375 C 78.125 -109.679688 78.421875 -110.082031 79.015625 -110.5625 C 79.609375 -111.050781 80.125 -111.296875 80.5625 -111.296875 C 81.75 -111.296875 82.421875 -110.703125 82.578125 -109.515625 C 82.742188 -108.328125 82.878906 -107.25 82.984375 -106.28125 C 83.085938 -105.09375 83.191406 -104.09375 83.296875 -103.28125 C 83.410156 -102.476562 83.519531 -101.429688 83.625 -100.140625 C 83.957031 -98.304688 84.363281 -95.71875 84.84375 -92.375 C 85.332031 -89.03125 85.789062 -85.710938 86.21875 -82.421875 C 86.65625 -79.128906 86.875 -76.675781 86.875 -75.0625 C 86.976562 -73.875 87.109375 -72.820312 87.265625 -71.90625 C 87.429688 -70.988281 87.515625 -69.773438 87.515625 -68.265625 C 87.515625 -67.078125 87.515625 -66 87.515625 -65.03125 C 87.515625 -64.0625 87.566406 -62.984375 87.671875 -61.796875 C 87.890625 -60.066406 87.941406 -58.851562 87.828125 -58.15625 C 87.722656 -57.457031 87.617188 -56.457031 87.515625 -55.15625 L 86.875 -41.578125 C 86.4375 -36.398438 85.734375 -30.46875 84.765625 -23.78125 C 83.796875 -17.09375 82.554688 -10.054688 81.046875 -2.671875 C 79.535156 4.710938 77.914062 12.046875 76.1875 19.328125 C 74.46875 26.609375 72.632812 33.429688 70.6875 39.796875 C 68.75 46.160156 66.863281 51.710938 65.03125 56.453125 C 64.382812 57.960938 63.46875 59.957031 62.28125 62.4375 C 61.09375 64.914062 59.6875 67.125 58.0625 69.0625 C 56.445312 71.007812 54.671875 71.984375 52.734375 71.984375 L 50.796875 71.984375 C 48.316406 71.984375 46.078125 70.175781 44.078125 66.5625 C 42.085938 62.945312 40.304688 58.203125 38.734375 52.328125 C 37.171875 46.453125 35.820312 40.0625 34.6875 33.15625 C 33.5625 26.257812 32.59375 19.46875 31.78125 12.78125 C 30.976562 6.09375 30.332031 0.132812 29.84375 -5.09375 C 29.363281 -10.320312 29.015625 -14.125 28.796875 -16.5 C 28.578125 -19.945312 28.382812 -23.503906 28.21875 -27.171875 C 28.0625 -30.835938 27.769531 -34.179688 27.34375 -37.203125 C 27.226562 -38.171875 27.195312 -39.113281 27.25 -40.03125 C 27.3125 -40.945312 27.34375 -41.894531 27.34375 -42.875 C 27.226562 -43.84375 27.117188 -44.59375 27.015625 -45.125 C 26.910156 -45.664062 26.859375 -46.582031 26.859375 -47.875 C 26.859375 -48.632812 26.773438 -50.46875 26.609375 -53.375 C 26.453125 -56.289062 26.238281 -59.5 25.96875 -63 C 25.695312 -66.507812 25.34375 -69.640625 24.90625 -72.390625 C 24.476562 -75.140625 23.992188 -76.726562 23.453125 -77.15625 C 23.128906 -75.863281 22.75 -74.597656 22.3125 -73.359375 C 21.882812 -72.117188 21.507812 -70.851562 21.1875 -69.5625 C 20 -65.457031 18.734375 -60.46875 17.390625 -54.59375 C 16.046875 -48.71875 14.695312 -42.460938 13.34375 -35.828125 C 12 -29.191406 10.734375 -22.554688 9.546875 -15.921875 C 8.359375 -9.296875 7.359375 -3.070312 6.546875 2.75 C 5.742188 8.570312 5.179688 13.53125 4.859375 17.625 C 4.421875 22.476562 4.039062 26.710938 3.71875 30.328125 C 3.394531 33.941406 3.125 37.394531 2.90625 40.6875 C 2.695312 43.976562 2.535156 47.457031 2.421875 51.125 C 2.316406 54.789062 2.265625 59.15625 2.265625 64.21875 C 2.265625 66.269531 2.398438 68.476562 2.671875 70.84375 C 2.941406 73.21875 3.019531 75.210938 2.90625 76.828125 C 2.800781 78.453125 2.15625 79.265625 0.96875 79.265625 C -0.320312 79.265625 -1.101562 78.910156 -1.375 78.203125 C -1.644531 77.503906 -1.890625 76.398438 -2.109375 74.890625 L -2.90625 63.25 C -3.125 59.15625 -3.125 54.191406 -2.90625 48.359375 C -2.695312 42.535156 -2.320312 36.390625 -1.78125 29.921875 C -1.238281 23.453125 -0.644531 17.222656 0 11.234375 C 0.644531 5.253906 1.238281 0.109375 1.78125 -4.203125 C 2.101562 -6.035156 2.640625 -9.109375 3.390625 -13.421875 C 4.148438 -17.734375 5.066406 -22.71875 6.140625 -28.375 C 7.222656 -34.039062 8.410156 -39.894531 9.703125 -45.9375 C 10.992188 -51.976562 12.3125 -57.722656 13.65625 -63.171875 C 15.007812 -68.617188 16.28125 -73.253906 17.46875 -77.078125 C 18.65625 -80.910156 19.734375 -83.421875 20.703125 -84.609375 C 21.785156 -86.003906 23.132812 -86.703125 24.75 -86.703125 C 25.71875 -86.703125 26.742188 -86.269531 27.828125 -85.40625 C 28.898438 -84.332031 29.84375 -82.148438 30.65625 -78.859375 C 31.46875 -75.566406 32.164062 -71.898438 32.75 -67.859375 C 33.34375 -63.816406 33.800781 -59.988281 34.125 -56.375 C 34.457031 -52.757812 34.625 -50.09375 34.625 -48.375 L 38.171875 3.390625 C 38.710938 7.921875 39.195312 12.585938 39.625 17.390625 C 40.0625 22.191406 40.65625 27.34375 41.40625 32.84375 C 41.625 33.8125 41.921875 35.585938 42.296875 38.171875 C 42.679688 40.765625 43.195312 43.675781 43.84375 46.90625 C 44.488281 50.144531 45.210938 53.242188 46.015625 56.203125 C 46.828125 59.171875 47.71875 61.648438 48.6875 63.640625 C 49.65625 65.640625 50.679688 66.640625 51.765625 66.640625 C 53.171875 66.640625 54.65625 65.425781 56.21875 63 C 57.78125 60.582031 59.316406 57.40625 60.828125 53.46875 C 62.335938 49.53125 63.789062 45.296875 65.1875 40.765625 C 66.59375 36.234375 67.832031 31.835938 68.90625 27.578125 C 69.988281 23.316406 70.90625 19.648438 71.65625 16.578125 C 72.414062 13.503906 72.90625 11.535156 73.125 10.671875 C 75.925781 -1.835938 78.1875 -13.992188 79.90625 -25.796875 C 81.632812 -37.609375 82.5 -50.144531 82.5 -63.40625 C 82.5 -66.96875 82.28125 -70.929688 81.84375 -75.296875 C 81.414062 -79.671875 80.90625 -84.015625 80.3125 -88.328125 C 79.71875 -92.640625 79.203125 -96.65625 78.765625 -100.375 C 78.335938 -104.09375 78.125 -107.085938 78.125 -109.359375 Z M 78.125 -109.359375 "/></g></g></g><g fill="#504081" fill-opacity="1"><g transform="translate(473.409662, 163.706159)"><g><path d="M 7.4375 -29.28125 C 9.488281 -30.351562 11.753906 -31.832031 14.234375 -33.71875 C 16.710938 -35.613281 18.0625 -37.851562 18.28125 -40.4375 C 16.875 -40.226562 15.390625 -39.472656 13.828125 -38.171875 C 12.265625 -36.878906 10.914062 -35.421875 9.78125 -33.796875 C 8.65625 -32.179688 7.875 -30.675781 7.4375 -29.28125 Z M 0.15625 -25.390625 C 0.15625 -28.085938 1.046875 -31 2.828125 -34.125 C 4.609375 -37.257812 6.816406 -39.929688 9.453125 -42.140625 C 12.097656 -44.347656 14.71875 -45.453125 17.3125 -45.453125 C 20.863281 -45.453125 22.71875 -44.101562 22.875 -41.40625 C 23.039062 -38.71875 21.882812 -35.804688 19.40625 -32.671875 C 18.113281 -31.273438 16.171875 -29.660156 13.578125 -27.828125 C 10.992188 -25.992188 8.460938 -24.96875 5.984375 -24.75 C 5.984375 -23.019531 6.035156 -21.484375 6.140625 -20.140625 C 6.253906 -18.796875 7.007812 -17.421875 8.40625 -16.015625 C 9.8125 -14.609375 11.59375 -13.90625 13.75 -13.90625 C 16.550781 -13.90625 19.460938 -14.796875 22.484375 -16.578125 C 25.503906 -18.359375 27.820312 -19.84375 29.4375 -21.03125 C 30.082031 -21.570312 30.59375 -22.003906 30.96875 -22.328125 C 31.351562 -22.648438 31.816406 -23.023438 32.359375 -23.453125 C 34.617188 -25.179688 36.046875 -26.445312 36.640625 -27.25 C 37.234375 -28.0625 37.742188 -28.601562 38.171875 -28.875 C 38.609375 -29.144531 39.632812 -29.28125 41.25 -29.28125 C 41.46875 -28.09375 41.546875 -27.28125 41.484375 -26.84375 C 41.429688 -26.414062 41.03125 -25.769531 40.28125 -24.90625 C 38.34375 -22.96875 35.890625 -20.757812 32.921875 -18.28125 C 29.953125 -15.800781 26.769531 -13.644531 23.375 -11.8125 C 19.976562 -9.976562 16.609375 -9.0625 13.265625 -9.0625 C 11.535156 -9.0625 9.890625 -9.359375 8.328125 -9.953125 C 6.765625 -10.546875 5.28125 -11.539062 3.875 -12.9375 C 1.9375 -14.882812 0.832031 -16.878906 0.5625 -18.921875 C 0.289062 -20.972656 0.15625 -23.128906 0.15625 -25.390625 Z M 0.15625 -25.390625 "/></g></g></g><g fill="#504081" fill-opacity="1"><g transform="translate(508.510245, 163.706159)"><g><path d="M -3.234375 -4.046875 C -3.234375 -5.554688 -2.878906 -7.789062 -2.171875 -10.75 C -1.472656 -13.71875 -0.535156 -16.953125 0.640625 -20.453125 C 1.828125 -23.960938 3.203125 -27.304688 4.765625 -30.484375 C 6.335938 -33.671875 8.007812 -36.285156 9.78125 -38.328125 C 11.5625 -40.378906 13.367188 -41.40625 15.203125 -41.40625 C 16.710938 -41.082031 17.441406 -40.460938 17.390625 -39.546875 C 17.335938 -38.628906 17.015625 -37.738281 16.421875 -36.875 C 15.828125 -36.019531 15.421875 -35.429688 15.203125 -35.109375 C 14.015625 -33.597656 12.71875 -31.410156 11.3125 -28.546875 C 9.914062 -25.691406 8.597656 -22.59375 7.359375 -19.25 C 6.117188 -15.90625 5.117188 -12.695312 4.359375 -9.625 C 3.609375 -6.550781 3.234375 -3.9375 3.234375 -1.78125 C 3.878906 -2 4.820312 -2.78125 6.0625 -4.125 C 7.300781 -5.46875 8.617188 -7.03125 10.015625 -8.8125 C 11.421875 -10.59375 12.71875 -12.289062 13.90625 -13.90625 C 15.09375 -15.53125 16.007812 -16.664062 16.65625 -17.3125 C 17.84375 -18.820312 18.894531 -19.875 19.8125 -20.46875 C 20.726562 -21.0625 21.566406 -21.359375 22.328125 -21.359375 C 23.722656 -21.359375 24.796875 -20.46875 25.546875 -18.6875 C 26.304688 -16.90625 26.898438 -14.90625 27.328125 -12.6875 C 27.765625 -10.476562 28.09375 -8.726562 28.3125 -7.4375 C 28.632812 -6.144531 29.117188 -4.609375 29.765625 -2.828125 C 30.410156 -1.046875 31.21875 0.539062 32.1875 1.9375 C 33.15625 3.34375 34.34375 4.046875 35.75 4.046875 C 37.582031 4.046875 39.414062 3.097656 41.25 1.203125 C 43.082031 -0.679688 44.78125 -3.050781 46.34375 -5.90625 C 47.90625 -8.757812 49.144531 -11.585938 50.0625 -14.390625 C 50.976562 -17.203125 51.4375 -19.46875 51.4375 -21.1875 C 51.4375 -22.914062 51.382812 -24.613281 51.28125 -26.28125 C 51.175781 -27.957031 51.226562 -29.390625 51.4375 -30.578125 C 51.65625 -31.765625 52.25 -32.359375 53.21875 -32.359375 C 54.40625 -32.359375 55.132812 -31.734375 55.40625 -30.484375 C 55.675781 -29.242188 55.863281 -27.976562 55.96875 -26.6875 C 56.507812 -22.8125 56.535156 -19.46875 56.046875 -16.65625 C 55.566406 -13.851562 54.460938 -10.566406 52.734375 -6.796875 C 51.984375 -5.179688 50.984375 -3.425781 49.734375 -1.53125 C 48.492188 0.351562 47.285156 1.941406 46.109375 3.234375 C 45.023438 4.640625 43.671875 6.039062 42.046875 7.4375 C 40.429688 8.84375 38.492188 9.546875 36.234375 9.546875 C 33.648438 9.546875 31.46875 8.597656 29.6875 6.703125 C 27.90625 4.816406 26.445312 2.472656 25.3125 -0.328125 C 24.1875 -3.128906 23.328125 -5.957031 22.734375 -8.8125 C 22.140625 -11.675781 21.734375 -14.023438 21.515625 -15.859375 C 20.328125 -14.992188 18.976562 -13.453125 17.46875 -11.234375 C 15.957031 -9.023438 14.363281 -6.679688 12.6875 -4.203125 C 11.019531 -1.722656 9.296875 0.40625 7.515625 2.1875 C 5.742188 3.96875 3.992188 4.859375 2.265625 4.859375 C 0.210938 4.859375 -1.210938 3.804688 -2.015625 1.703125 C -2.828125 -0.398438 -3.234375 -2.316406 -3.234375 -4.046875 Z M -3.234375 -4.046875 "/></g></g></g><g fill="#504081" fill-opacity="1"><g transform="translate(571.432479, 163.706159)"><g><path d="M 1.9375 26.6875 C 1.9375 28.957031 2.640625 30.09375 4.046875 30.09375 C 4.796875 30.09375 5.601562 29.820312 6.46875 29.28125 C 7.332031 28.738281 8.035156 28.253906 8.578125 27.828125 C 10.734375 26.203125 12.644531 23.742188 14.3125 20.453125 C 15.988281 17.171875 17.203125 14.179688 17.953125 11.484375 C 18.492188 9.648438 18.789062 7.789062 18.84375 5.90625 C 18.894531 4.019531 18.921875 1.941406 18.921875 -0.328125 C 17.628906 0.429688 16.144531 1.753906 14.46875 3.640625 C 12.800781 5.523438 11.484375 7.0625 10.515625 8.25 C 8.578125 10.625 6.660156 13.484375 4.765625 16.828125 C 2.878906 20.171875 1.9375 23.457031 1.9375 26.6875 Z M 0.484375 -26.203125 C 0.484375 -29.003906 1.238281 -31.507812 2.75 -33.71875 C 4.257812 -35.9375 6.066406 -37.71875 8.171875 -39.0625 C 10.273438 -40.414062 12.082031 -41.09375 13.59375 -41.09375 C 14.78125 -41.09375 15.664062 -40.660156 16.25 -39.796875 C 16.84375 -38.929688 16.875 -37.472656 16.34375 -35.421875 C 15.039062 -35.097656 14.117188 -34.910156 13.578125 -34.859375 C 13.046875 -34.804688 12.617188 -34.644531 12.296875 -34.375 C 11.972656 -34.101562 11.378906 -33.484375 10.515625 -32.515625 C 8.359375 -30.140625 7.359375 -28.222656 7.515625 -26.765625 C 7.679688 -25.316406 8.546875 -23.972656 10.109375 -22.734375 C 11.671875 -21.492188 13.609375 -19.957031 15.921875 -18.125 C 18.242188 -16.289062 20.429688 -13.804688 22.484375 -10.671875 C 24.859375 -12.296875 27.285156 -14.1875 29.765625 -16.34375 L 44.8125 -26.859375 C 46.207031 -27.828125 47.414062 -28.5 48.4375 -28.875 C 49.46875 -29.25 50.363281 -29.4375 51.125 -29.4375 C 52.414062 -29.4375 52.953125 -28.894531 52.734375 -27.8125 C 52.515625 -26.738281 51.488281 -25.664062 49.65625 -24.59375 L 38.65625 -16.984375 C 38.226562 -16.765625 37.3125 -16.144531 35.90625 -15.125 C 34.507812 -14.101562 32.972656 -12.972656 31.296875 -11.734375 C 29.628906 -10.492188 28.203125 -9.332031 27.015625 -8.25 C 25.828125 -7.164062 25.179688 -6.460938 25.078125 -6.140625 C 24.960938 -5.609375 25.117188 -4.585938 25.546875 -3.078125 C 25.984375 -1.566406 26.28125 0.398438 26.4375 2.828125 C 26.601562 5.253906 26.28125 8.21875 25.46875 11.71875 C 24.664062 15.226562 22.914062 19.300781 20.21875 23.9375 C 17.84375 27.925781 15.253906 30.863281 12.453125 32.75 C 9.648438 34.644531 7.007812 35.59375 4.53125 35.59375 C 2.257812 35.59375 0.398438 34.835938 -1.046875 33.328125 C -2.503906 31.816406 -3.234375 29.601562 -3.234375 26.6875 C -3.234375 23.019531 -2.34375 19.460938 -0.5625 16.015625 C 1.21875 12.566406 3.347656 9.382812 5.828125 6.46875 C 8.304688 3.5625 10.597656 1.054688 12.703125 -1.046875 C 14.804688 -3.148438 16.179688 -4.6875 16.828125 -5.65625 C 15.523438 -7.925781 13.957031 -9.894531 12.125 -11.5625 C 10.289062 -13.238281 8.484375 -14.773438 6.703125 -16.171875 C 4.929688 -17.578125 3.453125 -19.0625 2.265625 -20.625 C 1.078125 -22.1875 0.484375 -24.046875 0.484375 -26.203125 Z M 0.484375 -26.203125 "/></g></g></g><g fill="#504081" fill-opacity="1"><g transform="translate(618.179325, 163.706159)"><g><path d="M 0.328125 -12.453125 C 0.328125 -17.847656 0.648438 -23.671875 1.296875 -29.921875 C 1.941406 -36.179688 2.800781 -42.382812 3.875 -48.53125 C 4.957031 -54.675781 6.144531 -60.226562 7.4375 -65.1875 C 7.976562 -66.8125 8.519531 -68.617188 9.0625 -70.609375 C 9.601562 -72.609375 10.300781 -74.332031 11.15625 -75.78125 C 12.019531 -77.238281 13.15625 -77.96875 14.5625 -77.96875 C 15.851562 -77.96875 16.660156 -77.484375 16.984375 -76.515625 C 17.304688 -75.546875 17.332031 -74.382812 17.0625 -73.03125 C 16.789062 -71.6875 16.441406 -70.445312 16.015625 -69.3125 C 15.585938 -68.1875 15.316406 -67.40625 15.203125 -66.96875 C 14.335938 -63.738281 13.335938 -59.34375 12.203125 -53.78125 C 11.078125 -48.226562 10 -42.160156 8.96875 -35.578125 C 7.945312 -29.003906 7.164062 -22.484375 6.625 -16.015625 C 6.09375 -9.546875 5.988281 -3.695312 6.3125 1.53125 C 6.632812 6.757812 7.492188 10.78125 8.890625 13.59375 C 10.722656 12.613281 12.234375 11.15625 13.421875 9.21875 C 14.609375 7.28125 15.632812 5.394531 16.5 3.5625 C 18.976562 -1.1875 21.40625 -6.203125 23.78125 -11.484375 C 26.15625 -16.765625 28.632812 -21.726562 31.21875 -26.375 C 32.082031 -28.09375 33 -28.953125 33.96875 -28.953125 C 34.40625 -28.953125 34.753906 -28.765625 35.015625 -28.390625 C 35.285156 -28.015625 35.421875 -27.609375 35.421875 -27.171875 C 35.421875 -26.847656 34.988281 -25.820312 34.125 -24.09375 C 33.269531 -22.375 32.382812 -20.597656 31.46875 -18.765625 C 30.550781 -16.929688 29.929688 -15.742188 29.609375 -15.203125 C 28.523438 -12.941406 27.304688 -10.300781 25.953125 -7.28125 C 24.609375 -4.257812 23.289062 -1.296875 22 1.609375 C 20.707031 4.523438 19.46875 7.007812 18.28125 9.0625 C 17.738281 9.925781 17.007812 11.082031 16.09375 12.53125 C 15.175781 13.988281 14.175781 15.253906 13.09375 16.328125 C 12.019531 17.410156 10.78125 17.953125 9.375 17.953125 C 7.21875 17.953125 5.519531 16.875 4.28125 14.71875 C 3.039062 12.5625 2.148438 9.863281 1.609375 6.625 C 1.078125 3.394531 0.726562 0.0546875 0.5625 -3.390625 C 0.40625 -6.847656 0.328125 -9.867188 0.328125 -12.453125 Z M 0.328125 -12.453125 "/></g></g></g><g fill="#504081" fill-opacity="1"><g transform="translate(646.648012, 163.706159)"><g><path d="M 7.4375 -29.28125 C 9.488281 -30.351562 11.753906 -31.832031 14.234375 -33.71875 C 16.710938 -35.613281 18.0625 -37.851562 18.28125 -40.4375 C 16.875 -40.226562 15.390625 -39.472656 13.828125 -38.171875 C 12.265625 -36.878906 10.914062 -35.421875 9.78125 -33.796875 C 8.65625 -32.179688 7.875 -30.675781 7.4375 -29.28125 Z M 0.15625 -25.390625 C 0.15625 -28.085938 1.046875 -31 2.828125 -34.125 C 4.609375 -37.257812 6.816406 -39.929688 9.453125 -42.140625 C 12.097656 -44.347656 14.71875 -45.453125 17.3125 -45.453125 C 20.863281 -45.453125 22.71875 -44.101562 22.875 -41.40625 C 23.039062 -38.71875 21.882812 -35.804688 19.40625 -32.671875 C 18.113281 -31.273438 16.171875 -29.660156 13.578125 -27.828125 C 10.992188 -25.992188 8.460938 -24.96875 5.984375 -24.75 C 5.984375 -23.019531 6.035156 -21.484375 6.140625 -20.140625 C 6.253906 -18.796875 7.007812 -17.421875 8.40625 -16.015625 C 9.8125 -14.609375 11.59375 -13.90625 13.75 -13.90625 C 16.550781 -13.90625 19.460938 -14.796875 22.484375 -16.578125 C 25.503906 -18.359375 27.820312 -19.84375 29.4375 -21.03125 C 30.082031 -21.570312 30.59375 -22.003906 30.96875 -22.328125 C 31.351562 -22.648438 31.816406 -23.023438 32.359375 -23.453125 C 34.617188 -25.179688 36.046875 -26.445312 36.640625 -27.25 C 37.234375 -28.0625 37.742188 -28.601562 38.171875 -28.875 C 38.609375 -29.144531 39.632812 -29.28125 41.25 -29.28125 C 41.46875 -28.09375 41.546875 -27.28125 41.484375 -26.84375 C 41.429688 -26.414062 41.03125 -25.769531 40.28125 -24.90625 C 38.34375 -22.96875 35.890625 -20.757812 32.921875 -18.28125 C 29.953125 -15.800781 26.769531 -13.644531 23.375 -11.8125 C 19.976562 -9.976562 16.609375 -9.0625 13.265625 -9.0625 C 11.535156 -9.0625 9.890625 -9.359375 8.328125 -9.953125 C 6.765625 -10.546875 5.28125 -11.539062 3.875 -12.9375 C 1.9375 -14.882812 0.832031 -16.878906 0.5625 -18.921875 C 0.289062 -20.972656 0.15625 -23.128906 0.15625 -25.390625 Z M 0.15625 -25.390625 "/></g></g></g><g fill="#504081" fill-opacity="1"><g transform="translate(681.748596, 163.706159)"><g><path d="M -45.453125 -72.140625 C -45.453125 -73.546875 -44.15625 -75.03125 -41.5625 -76.59375 C -38.976562 -78.15625 -35.71875 -79.691406 -31.78125 -81.203125 C -27.84375 -82.710938 -23.691406 -84.140625 -19.328125 -85.484375 C -14.960938 -86.835938 -10.945312 -88 -7.28125 -88.96875 C -3.613281 -89.9375 -0.863281 -90.691406 0.96875 -91.234375 C 3.238281 -91.878906 4.832031 -92.253906 5.75 -92.359375 C 6.664062 -92.472656 7.253906 -92.828125 7.515625 -93.421875 C 7.785156 -94.015625 8.082031 -95.226562 8.40625 -97.0625 C 9.269531 -101.476562 10.269531 -104.519531 11.40625 -106.1875 C 12.539062 -107.863281 13.644531 -108.703125 14.71875 -108.703125 C 15.582031 -108.703125 16.3125 -108.242188 16.90625 -107.328125 C 17.5 -106.410156 17.796875 -105.304688 17.796875 -104.015625 C 17.796875 -103.046875 17.738281 -102.640625 17.625 -102.796875 C 17.519531 -102.960938 17.519531 -102.613281 17.625 -101.75 C 17.625 -101.53125 17.648438 -101.257812 17.703125 -100.9375 C 17.765625 -100.613281 17.796875 -100.179688 17.796875 -99.640625 C 17.796875 -98.242188 17.523438 -97.546875 16.984375 -97.546875 C 16.441406 -97.546875 15.898438 -97.460938 15.359375 -97.296875 C 14.828125 -97.140625 14.5625 -96.195312 14.5625 -94.46875 C 15.851562 -94.46875 17.28125 -94.65625 18.84375 -95.03125 C 20.40625 -95.414062 21.78125 -95.660156 22.96875 -95.765625 C 27.71875 -96.628906 32.460938 -97.410156 37.203125 -98.109375 C 41.953125 -98.804688 46.804688 -99.15625 51.765625 -99.15625 C 54.347656 -99.15625 56.234375 -98.613281 57.421875 -97.53125 C 58.609375 -96.457031 59.039062 -95.378906 58.71875 -94.296875 C 58.394531 -93.222656 57.207031 -92.6875 55.15625 -92.6875 C 54.945312 -93.550781 54.8125 -93.957031 54.75 -93.90625 C 54.695312 -93.851562 54.1875 -93.929688 53.21875 -94.140625 C 52.789062 -94.253906 51.925781 -94.3125 50.625 -94.3125 C 48.363281 -94.3125 45.375 -94.066406 41.65625 -93.578125 C 37.9375 -93.097656 34.082031 -92.53125 30.09375 -91.875 C 26.101562 -91.226562 22.539062 -90.609375 19.40625 -90.015625 C 16.28125 -89.429688 14.234375 -89.03125 13.265625 -88.8125 L 10.03125 -55.640625 C 9.925781 -54.890625 9.898438 -54.082031 9.953125 -53.21875 C 10.003906 -52.351562 10.03125 -51.488281 10.03125 -50.625 C 10.03125 -49.550781 9.945312 -48.851562 9.78125 -48.53125 C 9.625 -48.207031 9.546875 -47.453125 9.546875 -46.265625 C 9.546875 -43.890625 9.597656 -41.164062 9.703125 -38.09375 C 9.816406 -35.019531 9.765625 -32.617188 9.546875 -30.890625 C 9.429688 -29.921875 9.347656 -28.007812 9.296875 -25.15625 C 9.242188 -22.300781 9.191406 -18.984375 9.140625 -15.203125 C 9.085938 -11.429688 9.0625 -7.628906 9.0625 -3.796875 C 9.0625 0.0234375 9.0625 3.5 9.0625 6.625 C 9.0625 9.757812 9.113281 12.023438 9.21875 13.421875 C 9.21875 14.609375 9.351562 16.414062 9.625 18.84375 C 9.894531 21.269531 9.945312 23.453125 9.78125 25.390625 C 9.625 27.335938 8.84375 28.3125 7.4375 28.3125 C 5.394531 28.3125 4.15625 27.175781 3.71875 24.90625 C 3.289062 22.644531 3.078125 20.546875 3.078125 18.609375 C 2.753906 14.722656 2.5625 10.191406 2.5 5.015625 C 2.445312 -0.160156 2.445312 -5.335938 2.5 -10.515625 C 2.5625 -15.691406 2.59375 -20.222656 2.59375 -24.109375 L 3.078125 -31.703125 C 3.078125 -33.210938 3.078125 -35.53125 3.078125 -38.65625 C 3.078125 -41.789062 3.128906 -45.109375 3.234375 -48.609375 C 3.335938 -52.117188 3.441406 -55.328125 3.546875 -58.234375 C 3.660156 -61.148438 3.828125 -63.195312 4.046875 -64.375 C 4.265625 -65.457031 4.398438 -66.753906 4.453125 -68.265625 C 4.503906 -69.773438 4.582031 -71.066406 4.6875 -72.140625 L 6.140625 -87.1875 C 5.710938 -87.082031 4.769531 -86.867188 3.3125 -86.546875 C 1.851562 -86.222656 0.695312 -85.953125 -0.15625 -85.734375 C -5.445312 -84.441406 -10.488281 -83.066406 -15.28125 -81.609375 C -20.082031 -80.148438 -25.019531 -78.453125 -30.09375 -76.515625 C -31.0625 -76.085938 -31.945312 -75.628906 -32.75 -75.140625 C -33.5625 -74.648438 -34.453125 -74.191406 -35.421875 -73.765625 C -36.722656 -73.222656 -37.5625 -72.84375 -37.9375 -72.625 C -38.3125 -72.414062 -38.5 -72.148438 -38.5 -71.828125 C -38.5 -71.503906 -38.769531 -70.800781 -39.3125 -69.71875 C -39.738281 -69.613281 -40.164062 -69.53125 -40.59375 -69.46875 C -41.03125 -69.414062 -41.519531 -69.390625 -42.0625 -69.390625 C -42.925781 -69.390625 -43.707031 -69.578125 -44.40625 -69.953125 C -45.101562 -70.335938 -45.453125 -71.066406 -45.453125 -72.140625 Z M -45.453125 -72.140625 "/></g></g></g><g fill="#504081" fill-opacity="1"><g transform="translate(700.512052, 163.706159)"><g><path d="M -45.453125 -72.140625 C -45.453125 -73.546875 -44.15625 -75.03125 -41.5625 -76.59375 C -38.976562 -78.15625 -35.71875 -79.691406 -31.78125 -81.203125 C -27.84375 -82.710938 -23.691406 -84.140625 -19.328125 -85.484375 C -14.960938 -86.835938 -10.945312 -88 -7.28125 -88.96875 C -3.613281 -89.9375 -0.863281 -90.691406 0.96875 -91.234375 C 3.238281 -91.878906 4.832031 -92.253906 5.75 -92.359375 C 6.664062 -92.472656 7.253906 -92.828125 7.515625 -93.421875 C 7.785156 -94.015625 8.082031 -95.226562 8.40625 -97.0625 C 9.269531 -101.476562 10.269531 -104.519531 11.40625 -106.1875 C 12.539062 -107.863281 13.644531 -108.703125 14.71875 -108.703125 C 15.582031 -108.703125 16.3125 -108.242188 16.90625 -107.328125 C 17.5 -106.410156 17.796875 -105.304688 17.796875 -104.015625 C 17.796875 -103.046875 17.738281 -102.640625 17.625 -102.796875 C 17.519531 -102.960938 17.519531 -102.613281 17.625 -101.75 C 17.625 -101.53125 17.648438 -101.257812 17.703125 -100.9375 C 17.765625 -100.613281 17.796875 -100.179688 17.796875 -99.640625 C 17.796875 -98.242188 17.523438 -97.546875 16.984375 -97.546875 C 16.441406 -97.546875 15.898438 -97.460938 15.359375 -97.296875 C 14.828125 -97.140625 14.5625 -96.195312 14.5625 -94.46875 C 15.851562 -94.46875 17.28125 -94.65625 18.84375 -95.03125 C 20.40625 -95.414062 21.78125 -95.660156 22.96875 -95.765625 C 27.71875 -96.628906 32.460938 -97.410156 37.203125 -98.109375 C 41.953125 -98.804688 46.804688 -99.15625 51.765625 -99.15625 C 54.347656 -99.15625 56.234375 -98.613281 57.421875 -97.53125 C 58.609375 -96.457031 59.039062 -95.378906 58.71875 -94.296875 C 58.394531 -93.222656 57.207031 -92.6875 55.15625 -92.6875 C 54.945312 -93.550781 54.8125 -93.957031 54.75 -93.90625 C 54.695312 -93.851562 54.1875 -93.929688 53.21875 -94.140625 C 52.789062 -94.253906 51.925781 -94.3125 50.625 -94.3125 C 48.363281 -94.3125 45.375 -94.066406 41.65625 -93.578125 C 37.9375 -93.097656 34.082031 -92.53125 30.09375 -91.875 C 26.101562 -91.226562 22.539062 -90.609375 19.40625 -90.015625 C 16.28125 -89.429688 14.234375 -89.03125 13.265625 -88.8125 L 10.03125 -55.640625 C 9.925781 -54.890625 9.898438 -54.082031 9.953125 -53.21875 C 10.003906 -52.351562 10.03125 -51.488281 10.03125 -50.625 C 10.03125 -49.550781 9.945312 -48.851562 9.78125 -48.53125 C 9.625 -48.207031 9.546875 -47.453125 9.546875 -46.265625 C 9.546875 -43.890625 9.597656 -41.164062 9.703125 -38.09375 C 9.816406 -35.019531 9.765625 -32.617188 9.546875 -30.890625 C 9.429688 -29.921875 9.347656 -28.007812 9.296875 -25.15625 C 9.242188 -22.300781 9.191406 -18.984375 9.140625 -15.203125 C 9.085938 -11.429688 9.0625 -7.628906 9.0625 -3.796875 C 9.0625 0.0234375 9.0625 3.5 9.0625 6.625 C 9.0625 9.757812 9.113281 12.023438 9.21875 13.421875 C 9.21875 14.609375 9.351562 16.414062 9.625 18.84375 C 9.894531 21.269531 9.945312 23.453125 9.78125 25.390625 C 9.625 27.335938 8.84375 28.3125 7.4375 28.3125 C 5.394531 28.3125 4.15625 27.175781 3.71875 24.90625 C 3.289062 22.644531 3.078125 20.546875 3.078125 18.609375 C 2.753906 14.722656 2.5625 10.191406 2.5 5.015625 C 2.445312 -0.160156 2.445312 -5.335938 2.5 -10.515625 C 2.5625 -15.691406 2.59375 -20.222656 2.59375 -24.109375 L 3.078125 -31.703125 C 3.078125 -33.210938 3.078125 -35.53125 3.078125 -38.65625 C 3.078125 -41.789062 3.128906 -45.109375 3.234375 -48.609375 C 3.335938 -52.117188 3.441406 -55.328125 3.546875 -58.234375 C 3.660156 -61.148438 3.828125 -63.195312 4.046875 -64.375 C 4.265625 -65.457031 4.398438 -66.753906 4.453125 -68.265625 C 4.503906 -69.773438 4.582031 -71.066406 4.6875 -72.140625 L 6.140625 -87.1875 C 5.710938 -87.082031 4.769531 -86.867188 3.3125 -86.546875 C 1.851562 -86.222656 0.695312 -85.953125 -0.15625 -85.734375 C -5.445312 -84.441406 -10.488281 -83.066406 -15.28125 -81.609375 C -20.082031 -80.148438 -25.019531 -78.453125 -30.09375 -76.515625 C -31.0625 -76.085938 -31.945312 -75.628906 -32.75 -75.140625 C -33.5625 -74.648438 -34.453125 -74.191406 -35.421875 -73.765625 C -36.722656 -73.222656 -37.5625 -72.84375 -37.9375 -72.625 C -38.3125 -72.414062 -38.5 -72.148438 -38.5 -71.828125 C -38.5 -71.503906 -38.769531 -70.800781 -39.3125 -69.71875 C -39.738281 -69.613281 -40.164062 -69.53125 -40.59375 -69.46875 C -41.03125 -69.414062 -41.519531 -69.390625 -42.0625 -69.390625 C -42.925781 -69.390625 -43.707031 -69.578125 -44.40625 -69.953125 C -45.101562 -70.335938 -45.453125 -71.066406 -45.453125 -72.140625 Z M -45.453125 -72.140625 "/></g></g></g><g fill="#504081" fill-opacity="1"><g transform="translate(719.275509, 163.706159)"><g><path d="M 7.4375 -29.28125 C 9.488281 -30.351562 11.753906 -31.832031 14.234375 -33.71875 C 16.710938 -35.613281 18.0625 -37.851562 18.28125 -40.4375 C 16.875 -40.226562 15.390625 -39.472656 13.828125 -38.171875 C 12.265625 -36.878906 10.914062 -35.421875 9.78125 -33.796875 C 8.65625 -32.179688 7.875 -30.675781 7.4375 -29.28125 Z M 0.15625 -25.390625 C 0.15625 -28.085938 1.046875 -31 2.828125 -34.125 C 4.609375 -37.257812 6.816406 -39.929688 9.453125 -42.140625 C 12.097656 -44.347656 14.71875 -45.453125 17.3125 -45.453125 C 20.863281 -45.453125 22.71875 -44.101562 22.875 -41.40625 C 23.039062 -38.71875 21.882812 -35.804688 19.40625 -32.671875 C 18.113281 -31.273438 16.171875 -29.660156 13.578125 -27.828125 C 10.992188 -25.992188 8.460938 -24.96875 5.984375 -24.75 C 5.984375 -23.019531 6.035156 -21.484375 6.140625 -20.140625 C 6.253906 -18.796875 7.007812 -17.421875 8.40625 -16.015625 C 9.8125 -14.609375 11.59375 -13.90625 13.75 -13.90625 C 16.550781 -13.90625 19.460938 -14.796875 22.484375 -16.578125 C 25.503906 -18.359375 27.820312 -19.84375 29.4375 -21.03125 C 30.082031 -21.570312 30.59375 -22.003906 30.96875 -22.328125 C 31.351562 -22.648438 31.816406 -23.023438 32.359375 -23.453125 C 34.617188 -25.179688 36.046875 -26.445312 36.640625 -27.25 C 37.234375 -28.0625 37.742188 -28.601562 38.171875 -28.875 C 38.609375 -29.144531 39.632812 -29.28125 41.25 -29.28125 C 41.46875 -28.09375 41.546875 -27.28125 41.484375 -26.84375 C 41.429688 -26.414062 41.03125 -25.769531 40.28125 -24.90625 C 38.34375 -22.96875 35.890625 -20.757812 32.921875 -18.28125 C 29.953125 -15.800781 26.769531 -13.644531 23.375 -11.8125 C 19.976562 -9.976562 16.609375 -9.0625 13.265625 -9.0625 C 11.535156 -9.0625 9.890625 -9.359375 8.328125 -9.953125 C 6.765625 -10.546875 5.28125 -11.539062 3.875 -12.9375 C 1.9375 -14.882812 0.832031 -16.878906 0.5625 -18.921875 C 0.289062 -20.972656 0.15625 -23.128906 0.15625 -25.390625 Z M 0.15625 -25.390625 "/></g></g></g><g fill="#504081" fill-opacity="1"><g transform="translate(754.376093, 163.706159)"><g><path d="M 2.265625 -0.640625 C 1.179688 -0.640625 0.53125 -1.3125 0.3125 -2.65625 C 0.101562 -4.007812 0.0507812 -5.441406 0.15625 -6.953125 C 0.269531 -8.460938 0.328125 -9.378906 0.328125 -9.703125 C 0.210938 -11.648438 0.179688 -13.617188 0.234375 -15.609375 C 0.296875 -17.609375 0.269531 -19.628906 0.15625 -21.671875 C 0.15625 -22.429688 0.179688 -23.863281 0.234375 -25.96875 C 0.296875 -28.070312 0.457031 -30.304688 0.71875 -32.671875 C 0.988281 -35.046875 1.394531 -37.09375 1.9375 -38.8125 C 2.476562 -40.539062 3.179688 -41.40625 4.046875 -41.40625 C 6.203125 -41.40625 7.304688 -40.703125 7.359375 -39.296875 C 7.410156 -37.898438 7.332031 -36.070312 7.125 -33.8125 C 7.007812 -33.050781 6.953125 -32.210938 6.953125 -31.296875 C 6.953125 -30.378906 6.953125 -29.488281 6.953125 -28.625 C 6.953125 -27.550781 6.894531 -26.851562 6.78125 -26.53125 C 6.675781 -26.207031 6.625 -25.503906 6.625 -24.421875 C 7.8125 -25.285156 8.890625 -26.285156 9.859375 -27.421875 C 10.835938 -28.554688 12.566406 -29.125 15.046875 -29.125 C 15.796875 -29.125 16.789062 -29.148438 18.03125 -29.203125 C 19.269531 -29.253906 20.59375 -29.28125 22 -29.28125 C 24.375 -29.28125 26.582031 -29.144531 28.625 -28.875 C 30.675781 -28.601562 31.703125 -27.929688 31.703125 -26.859375 C 31.703125 -25.773438 31.132812 -25.070312 30 -24.75 C 28.875 -24.425781 27.5 -24.265625 25.875 -24.265625 C 24.800781 -24.265625 23.695312 -24.289062 22.5625 -24.34375 C 21.4375 -24.394531 20.441406 -24.421875 19.578125 -24.421875 C 16.554688 -24.421875 14.53125 -24.257812 13.5 -23.9375 C 12.476562 -23.613281 11.320312 -22.375 10.03125 -20.21875 C 9.269531 -18.820312 8.539062 -17.3125 7.84375 -15.6875 C 7.144531 -14.070312 6.632812 -12.296875 6.3125 -10.359375 C 5.988281 -8.953125 5.851562 -7.492188 5.90625 -5.984375 C 5.957031 -4.472656 5.796875 -3.203125 5.421875 -2.171875 C 5.046875 -1.148438 3.992188 -0.640625 2.265625 -0.640625 Z M 2.265625 -0.640625 "/></g></g></g><path stroke-linecap="butt" transform="matrix(0.75, 0, 0, 0.75, 777.656507, 42.374997)" fill="none" stroke-linejoin="miter" d="M 21.827784 201.375017 C 18.416325 201.375017 15.6507 200.291683 13.541325 198.125017 C 11.457991 195.95835 10.416325 193.281266 10.416325 190.083349 C 10.416325 186.807308 11.457991 184.140641 13.541325 182.088557 C 15.6507 180.031265 18.416325 179.005224 21.827784 179.005224 C 25.359034 179.005224 28.176743 180.031265 30.286118 182.088557 C 32.395493 184.140641 33.452785 186.807308 33.452785 190.083349 C 33.452785 193.281266 32.395493 195.95835 30.286118 198.125017 C 28.176743 200.291683 25.359034 201.375017 21.827784 201.375017 Z M 21.827784 201.375017 " stroke="#504081" stroke-width="4.052866" stroke-opacity="1" stroke-miterlimit="4"/><g fill="#fef74b" fill-opacity="1"><g transform="translate(777.656507, 192.374987)"><g><path d="M 16.375 1.03125 C 13.820312 1.03125 11.753906 0.21875 10.171875 -1.40625 C 8.597656 -3.03125 7.8125 -5.035156 7.8125 -7.421875 C 7.8125 -9.898438 8.597656 -11.90625 10.171875 -13.4375 C 11.753906 -14.96875 13.820312 -15.734375 16.375 -15.734375 C 19.019531 -15.734375 21.128906 -14.96875 22.703125 -13.4375 C 24.285156 -11.90625 25.078125 -9.898438 25.078125 -7.421875 C 25.078125 -5.035156 24.285156 -3.03125 22.703125 -1.40625 C 21.128906 0.21875 19.019531 1.03125 16.375 1.03125 Z M 16.375 1.03125 "/></g></g></g></svg>