<svg xmlns="http://www.w3.org/2000/svg" xmlns:xlink="http://www.w3.org/1999/xlink" width="1548" zoomAndPan="magnify" viewBox="0 0 1161 296.999993" height="396" preserveAspectRatio="xMidYMid meet" version="1.0"><defs><g/></defs><g fill="#504081" fill-opacity="1"><g transform="translate(266.344933, 163.706181)"><g><path d="M 13.109375 -51.921875 C 13.316406 -53.648438 14.039062 -56.023438 15.28125 -59.046875 C 16.519531 -62.066406 17.867188 -65.082031 19.328125 -68.09375 C 20.785156 -71.113281 21.835938 -73.4375 22.484375 -75.0625 C 22.703125 -75.382812 22.863281 -76.03125 22.96875 -77 C 23.070312 -77.96875 23.367188 -78.851562 23.859375 -79.65625 C 24.347656 -80.46875 25.1875 -80.875 26.375 -80.875 C 28.207031 -80.875 29.125 -79.984375 29.125 -78.203125 C 29.125 -76.429688 28.609375 -74.140625 27.578125 -71.328125 C 26.554688 -68.523438 25.34375 -65.503906 23.9375 -62.265625 C 22.539062 -59.035156 21.273438 -55.960938 20.140625 -53.046875 C 19.003906 -50.140625 18.4375 -47.71875 18.4375 -45.78125 C 19.300781 -45.5625 20.082031 -45.179688 20.78125 -44.640625 C 21.488281 -44.109375 22.164062 -43.570312 22.8125 -43.03125 C 25.613281 -41.414062 28.035156 -40.226562 30.078125 -39.46875 C 32.128906 -38.71875 34.207031 -38.179688 36.3125 -37.859375 C 38.414062 -37.535156 40.867188 -37.101562 43.671875 -36.5625 C 44.859375 -36.445312 46.394531 -36.390625 48.28125 -36.390625 C 50.175781 -36.390625 52.066406 -36.335938 53.953125 -36.234375 C 55.835938 -36.128906 57.425781 -35.859375 58.71875 -35.421875 C 60.007812 -34.992188 60.65625 -34.296875 60.65625 -33.328125 C 60.65625 -32.566406 59.953125 -32.050781 58.546875 -31.78125 C 57.148438 -31.507812 55.375 -31.375 53.21875 -31.375 C 50.09375 -31.375 46.800781 -31.585938 43.34375 -32.015625 C 39.894531 -32.453125 37.578125 -32.726562 36.390625 -32.84375 C 32.296875 -33.59375 28.953125 -34.5625 26.359375 -35.75 C 23.773438 -36.9375 21.753906 -38.039062 20.296875 -39.0625 C 18.847656 -40.09375 17.632812 -40.710938 16.65625 -40.921875 C 16.550781 -39.847656 16.3125 -38.742188 15.9375 -37.609375 C 15.5625 -36.472656 15.265625 -35.3125 15.046875 -34.125 C 14.398438 -31 13.78125 -27.46875 13.1875 -23.53125 C 12.59375 -19.59375 12.132812 -16.0625 11.8125 -12.9375 C 11.488281 -10.238281 11.296875 -8.050781 11.234375 -6.375 C 11.179688 -4.707031 11.15625 -3.226562 11.15625 -1.9375 C 11.15625 -0.644531 11.050781 0.914062 10.84375 2.75 C 10.519531 7.164062 10.679688 12.148438 11.328125 17.703125 C 11.972656 23.265625 13.210938 28.601562 15.046875 33.71875 C 16.878906 38.84375 19.410156 43.023438 22.640625 46.265625 C 22.640625 46.265625 22.664062 46.289062 22.71875 46.34375 C 22.78125 46.394531 22.8125 46.476562 22.8125 46.59375 C 22.914062 46.59375 22.992188 46.644531 23.046875 46.75 C 23.097656 46.851562 23.179688 46.90625 23.296875 46.90625 C 25.453125 48.851562 27.710938 50.472656 30.078125 51.765625 C 32.453125 53.054688 35.3125 53.703125 38.65625 53.703125 C 43.625 53.703125 48.265625 52.378906 52.578125 49.734375 C 56.890625 47.097656 60.847656 43.625 64.453125 39.3125 C 68.066406 35 71.25 30.28125 74 25.15625 C 76.75 20.03125 78.988281 14.878906 80.71875 9.703125 C 82.445312 4.523438 83.632812 -0.21875 84.28125 -4.53125 C 84.601562 -7.007812 84.976562 -9.921875 85.40625 -13.265625 C 85.84375 -16.609375 86.164062 -19.953125 86.375 -23.296875 C 86.59375 -26.640625 86.539062 -29.5 86.21875 -31.875 C 86.113281 -32.945312 86.0625 -34.476562 86.0625 -36.46875 C 86.0625 -38.46875 85.953125 -40.007812 85.734375 -41.09375 C 85.085938 -46.15625 84.382812 -50.570312 83.625 -54.34375 C 82.875 -58.125 81.90625 -61.789062 80.71875 -65.34375 C 79.53125 -68.90625 77.859375 -72.898438 75.703125 -77.328125 C 73.984375 -81.097656 71.691406 -84.925781 68.828125 -88.8125 C 65.972656 -92.695312 62.710938 -96.28125 59.046875 -99.5625 C 55.378906 -102.851562 51.414062 -105.519531 47.15625 -107.5625 C 42.894531 -109.613281 38.5 -110.640625 33.96875 -110.640625 C 28.144531 -110.640625 23.15625 -108.78125 19 -105.0625 C 14.851562 -101.34375 11.539062 -97.003906 9.0625 -92.046875 C 6.144531 -85.785156 4.6875 -79.148438 4.6875 -72.140625 C 4.6875 -65.128906 6.898438 -58.820312 11.328125 -53.21875 C 11.753906 -52.675781 11.96875 -52.378906 11.96875 -52.328125 C 11.96875 -52.273438 12.347656 -52.140625 13.109375 -51.921875 Z M 0 -75.21875 C 0 -79.320312 0.804688 -83.664062 2.421875 -88.25 C 4.046875 -92.832031 6.257812 -97.117188 9.0625 -101.109375 C 11.863281 -105.097656 14.988281 -108.273438 18.4375 -110.640625 C 21.5625 -112.910156 24.335938 -114.234375 26.765625 -114.609375 C 29.191406 -114.984375 32.238281 -115.171875 35.90625 -115.171875 C 40.007812 -115.171875 44.082031 -114.253906 48.125 -112.421875 C 52.164062 -110.585938 56.019531 -108.1875 59.6875 -105.21875 C 63.351562 -102.257812 66.695312 -99.023438 69.71875 -95.515625 C 72.738281 -92.015625 75.21875 -88.59375 77.15625 -85.25 C 82.875 -75.539062 86.8125 -65.101562 88.96875 -53.9375 C 91.125 -42.78125 91.769531 -31.484375 90.90625 -20.046875 C 90.050781 -8.617188 87.84375 2.429688 84.28125 13.109375 C 82.664062 17.953125 80.453125 23.015625 77.640625 28.296875 C 74.835938 33.585938 71.441406 38.5 67.453125 43.03125 C 63.460938 47.5625 59.015625 51.253906 54.109375 54.109375 C 49.203125 56.960938 43.835938 58.390625 38.015625 58.390625 C 32.734375 58.390625 27.828125 56.878906 23.296875 53.859375 C 18.765625 50.847656 14.878906 46.375 11.640625 40.4375 C 8.953125 35.375 6.984375 29.660156 5.734375 23.296875 C 4.492188 16.929688 3.875 10.296875 3.875 3.390625 C 3.875 -3.503906 4.28125 -10.269531 5.09375 -16.90625 C 5.90625 -23.539062 6.957031 -29.609375 8.25 -35.109375 C 8.46875 -36.179688 8.679688 -37.175781 8.890625 -38.09375 C 9.109375 -39.007812 9.328125 -39.953125 9.546875 -40.921875 C 9.972656 -42.753906 10.320312 -43.992188 10.59375 -44.640625 C 10.863281 -45.296875 10.941406 -45.785156 10.828125 -46.109375 C 10.722656 -46.429688 10.347656 -46.914062 9.703125 -47.5625 C 9.054688 -48.207031 8.085938 -49.335938 6.796875 -50.953125 C 4.097656 -54.734375 2.289062 -58.585938 1.375 -62.515625 C 0.457031 -66.453125 0 -70.6875 0 -75.21875 Z M 0 -75.21875 "/></g></g></g><g fill="#504081" fill-opacity="1"><g transform="translate(364.529501, 163.706181)"><g><path d="M 2.265625 -0.640625 C 1.179688 -0.640625 0.53125 -1.3125 0.3125 -2.65625 C 0.101562 -4.007812 0.0507812 -5.441406 0.15625 -6.953125 C 0.269531 -8.460938 0.328125 -9.378906 0.328125 -9.703125 C 0.210938 -11.648438 0.179688 -13.617188 0.234375 -15.609375 C 0.296875 -17.609375 0.269531 -19.628906 0.15625 -21.671875 C 0.15625 -22.429688 0.179688 -23.863281 0.234375 -25.96875 C 0.296875 -28.070312 0.457031 -30.304688 0.71875 -32.671875 C 0.988281 -35.046875 1.394531 -37.09375 1.9375 -38.8125 C 2.476562 -40.539062 3.179688 -41.40625 4.046875 -41.40625 C 6.203125 -41.40625 7.304688 -40.703125 7.359375 -39.296875 C 7.410156 -37.898438 7.332031 -36.070312 7.125 -33.8125 C 7.007812 -33.050781 6.953125 -32.210938 6.953125 -31.296875 C 6.953125 -30.378906 6.953125 -29.488281 6.953125 -28.625 C 6.953125 -27.550781 6.894531 -26.851562 6.78125 -26.53125 C 6.675781 -26.207031 6.625 -25.503906 6.625 -24.421875 C 7.8125 -25.285156 8.890625 -26.285156 9.859375 -27.421875 C 10.835938 -28.554688 12.566406 -29.125 15.046875 -29.125 C 15.796875 -29.125 16.789062 -29.148438 18.03125 -29.203125 C 19.269531 -29.253906 20.59375 -29.28125 22 -29.28125 C 24.375 -29.28125 26.582031 -29.144531 28.625 -28.875 C 30.675781 -28.601562 31.703125 -27.929688 31.703125 -26.859375 C 31.703125 -25.773438 31.132812 -25.070312 30 -24.75 C 28.875 -24.425781 27.5 -24.265625 25.875 -24.265625 C 24.800781 -24.265625 23.695312 -24.289062 22.5625 -24.34375 C 21.4375 -24.394531 20.441406 -24.421875 19.578125 -24.421875 C 16.554688 -24.421875 14.53125 -24.257812 13.5 -23.9375 C 12.476562 -23.613281 11.320312 -22.375 10.03125 -20.21875 C 9.269531 -18.820312 8.539062 -17.3125 7.84375 -15.6875 C 7.144531 -14.070312 6.632812 -12.296875 6.3125 -10.359375 C 5.988281 -8.953125 5.851562 -7.492188 5.90625 -5.984375 C 5.957031 -4.472656 5.796875 -3.203125 5.421875 -2.171875 C 5.046875 -1.148438 3.992188 -0.640625 2.265625 -0.640625 Z M 2.265625 -0.640625 "/></g></g></g><g fill="#504081" fill-opacity="1"><g transform="translate(390.89537, 163.706181)"><g><path d="M 0 59.6875 C 2.15625 59.6875 4.335938 58.609375 6.546875 56.453125 C 8.765625 54.296875 10.410156 52.300781 11.484375 50.46875 C 15.253906 44.101562 17.648438 37.363281 18.671875 30.25 C 19.703125 23.132812 20.597656 16.285156 21.359375 9.703125 L 22 0.328125 C 21.351562 0.535156 20.351562 1.367188 19 2.828125 C 17.65625 4.285156 16.363281 5.820312 15.125 7.4375 C 13.882812 9.0625 13.050781 10.195312 12.625 10.84375 C 11.4375 12.351562 9.953125 14.375 8.171875 16.90625 C 6.390625 19.4375 4.632812 22.050781 2.90625 24.75 C 1.1875 27.445312 -0.101562 29.820312 -0.96875 31.875 C -1.289062 32.726562 -1.882812 34.234375 -2.75 36.390625 C -3.613281 38.546875 -4.394531 40.945312 -5.09375 43.59375 C -5.789062 46.238281 -6.21875 48.773438 -6.375 51.203125 C -6.539062 53.628906 -6.164062 55.648438 -5.25 57.265625 C -4.332031 58.878906 -2.582031 59.6875 0 59.6875 Z M -1.78125 -13.75 C -1.78125 -16.332031 -1 -19.40625 0.5625 -22.96875 C 2.125 -26.53125 4.195312 -29.984375 6.78125 -33.328125 C 9.375 -36.671875 12.15625 -39.445312 15.125 -41.65625 C 18.09375 -43.863281 21.03125 -44.96875 23.9375 -44.96875 C 26.957031 -44.96875 29.085938 -43.890625 30.328125 -41.734375 C 31.566406 -39.578125 31.488281 -37.421875 30.09375 -35.265625 C 28.789062 -35.367188 27.925781 -35.851562 27.5 -36.71875 C 27.070312 -37.582031 26.640625 -38.445312 26.203125 -39.3125 C 25.773438 -40.175781 24.96875 -40.609375 23.78125 -40.609375 C 21.40625 -40.609375 18.976562 -39.472656 16.5 -37.203125 C 14.019531 -34.941406 11.726562 -32.164062 9.625 -28.875 C 7.519531 -25.582031 5.820312 -22.316406 4.53125 -19.078125 C 3.238281 -15.847656 2.59375 -13.207031 2.59375 -11.15625 C 4.53125 -11.695312 6.253906 -12.800781 7.765625 -14.46875 C 9.273438 -16.144531 10.566406 -17.523438 11.640625 -18.609375 C 12.722656 -19.785156 13.9375 -21.289062 15.28125 -23.125 C 16.632812 -24.957031 17.796875 -26.578125 18.765625 -27.984375 C 19.304688 -28.847656 20.003906 -29.925781 20.859375 -31.21875 C 21.722656 -32.507812 22.804688 -33.15625 24.109375 -33.15625 C 25.285156 -33.15625 26.195312 -32.453125 26.84375 -31.046875 C 27.5 -29.648438 27.929688 -27.898438 28.140625 -25.796875 C 28.359375 -23.691406 28.46875 -21.585938 28.46875 -19.484375 C 28.46875 -17.390625 28.46875 -15.640625 28.46875 -14.234375 C 29.332031 -14.453125 30.65625 -15.257812 32.4375 -16.65625 C 34.21875 -18.0625 36.1875 -19.65625 38.34375 -21.4375 C 40.5 -23.21875 42.625 -24.78125 44.71875 -26.125 C 46.820312 -27.46875 48.578125 -28.140625 49.984375 -28.140625 C 50.628906 -28.140625 51.0625 -27.789062 51.28125 -27.09375 C 51.5 -26.394531 51.445312 -25.722656 51.125 -25.078125 C 51.007812 -24.960938 50.222656 -24.335938 48.765625 -23.203125 C 47.316406 -22.078125 45.59375 -20.785156 43.59375 -19.328125 C 41.601562 -17.867188 39.660156 -16.382812 37.765625 -14.875 C 35.878906 -13.375 34.453125 -12.132812 33.484375 -11.15625 C 32.617188 -10.40625 31.703125 -9.757812 30.734375 -9.21875 C 29.765625 -8.675781 29.171875 -7.707031 28.953125 -6.3125 C 28.628906 -3.289062 28.46875 -0.429688 28.46875 2.265625 C 28.46875 5.503906 28.222656 9.171875 27.734375 13.265625 C 27.253906 17.359375 26.582031 21.535156 25.71875 25.796875 C 24.851562 30.054688 23.851562 34.070312 22.71875 37.84375 C 21.59375 41.625 20.382812 44.804688 19.09375 47.390625 C 15.957031 53.546875 12.691406 57.890625 9.296875 60.421875 C 5.898438 62.953125 2.800781 64.21875 0 64.21875 C -3.019531 64.21875 -5.5 63.113281 -7.4375 60.90625 C -9.382812 58.695312 -10.359375 55.972656 -10.359375 52.734375 C -10.359375 49.285156 -10.140625 46.320312 -9.703125 43.84375 C -9.273438 41.363281 -8.601562 38.960938 -7.6875 36.640625 C -6.769531 34.316406 -5.554688 31.644531 -4.046875 28.625 C -0.804688 22.050781 2.832031 16.066406 6.875 10.671875 C 10.914062 5.285156 15.414062 -0.0507812 20.375 -5.34375 C 21.78125 -6.851562 22.398438 -9.359375 22.234375 -12.859375 C 22.078125 -16.367188 22 -19.789062 22 -23.125 C 21.132812 -22.800781 19.921875 -21.476562 18.359375 -19.15625 C 16.796875 -16.84375 15.097656 -14.878906 13.265625 -13.265625 C 12.179688 -12.179688 10.640625 -10.75 8.640625 -8.96875 C 6.648438 -7.195312 4.632812 -6.3125 2.59375 -6.3125 C 0.96875 -6.3125 -0.140625 -6.738281 -0.734375 -7.59375 C -1.328125 -8.457031 -1.648438 -9.484375 -1.703125 -10.671875 C -1.753906 -11.859375 -1.78125 -12.882812 -1.78125 -13.75 Z M -1.78125 -13.75 "/></g></g></g><g fill="#504081" fill-opacity="1"><g transform="translate(436.024685, 163.706181)"><g><path d="M 0 -16.34375 C 0 -18.601562 0.535156 -21.40625 1.609375 -24.75 C 2.691406 -28.09375 4.203125 -31.40625 6.140625 -34.6875 C 8.085938 -37.976562 10.328125 -40.703125 12.859375 -42.859375 C 15.390625 -45.023438 18.0625 -46.109375 20.875 -46.109375 C 23.457031 -46.109375 25.554688 -45.351562 27.171875 -43.84375 C 28.796875 -42.332031 29.769531 -40.789062 30.09375 -39.21875 C 30.414062 -37.65625 29.875 -36.875 28.46875 -36.875 C 27.394531 -36.875 26.289062 -37.492188 25.15625 -38.734375 C 24.019531 -39.984375 22.695312 -40.609375 21.1875 -40.609375 C 20 -40.609375 18.566406 -39.90625 16.890625 -38.5 C 15.222656 -37.09375 13.207031 -34.34375 10.84375 -30.25 C 9.757812 -28.519531 8.757812 -26.28125 7.84375 -23.53125 C 6.925781 -20.78125 6.46875 -18.0625 6.46875 -15.375 C 6.6875 -15.582031 6.765625 -15.660156 6.703125 -15.609375 C 6.648438 -15.554688 6.84375 -15.742188 7.28125 -16.171875 L 8.578125 -18.125 C 9.441406 -19.414062 10.4375 -21.082031 11.5625 -23.125 C 12.695312 -25.175781 13.859375 -27.253906 15.046875 -29.359375 C 16.234375 -31.460938 17.3125 -33.238281 18.28125 -34.6875 C 19.25 -36.144531 20.003906 -36.875 20.546875 -36.875 C 22.484375 -36.875 23.613281 -36.171875 23.9375 -34.765625 C 24.257812 -33.367188 24.394531 -31.644531 24.34375 -29.59375 C 24.289062 -27.550781 24.476562 -25.503906 24.90625 -23.453125 C 25.550781 -20.546875 26.546875 -18.414062 27.890625 -17.0625 C 29.242188 -15.71875 30.785156 -15.046875 32.515625 -15.046875 C 35.535156 -15.046875 38.878906 -16.878906 42.546875 -20.546875 C 44.054688 -21.941406 45.132812 -23.097656 45.78125 -24.015625 C 46.425781 -24.929688 47.289062 -25.984375 48.375 -27.171875 C 49.125 -28.253906 50.09375 -28.796875 51.28125 -28.796875 C 52.46875 -28.796875 52.976562 -27.796875 52.8125 -25.796875 C 52.65625 -23.804688 50.523438 -20.816406 46.421875 -16.828125 L 41.578125 -12.9375 C 38.441406 -10.78125 35.421875 -9.703125 32.515625 -9.703125 C 29.816406 -9.703125 27.46875 -10.507812 25.46875 -12.125 C 23.476562 -13.75 21.941406 -15.742188 20.859375 -18.109375 C 19.785156 -20.484375 19.25 -22.804688 19.25 -25.078125 C 18.5 -24.535156 17.632812 -23.347656 16.65625 -21.515625 C 15.6875 -19.679688 14.632812 -17.710938 13.5 -15.609375 C 12.375 -13.503906 11.21875 -11.671875 10.03125 -10.109375 C 8.84375 -8.546875 7.65625 -7.765625 6.46875 -7.765625 C 3.445312 -7.765625 1.613281 -8.460938 0.96875 -9.859375 C 0.320312 -11.265625 0 -13.425781 0 -16.34375 Z M 0 -16.34375 "/></g></g></g><g fill="#504081" fill-opacity="1"><g transform="translate(482.933282, 163.706181)"><g><path d="M 4.53125 -8.40625 C 2.476562 -8.40625 1.15625 -9.644531 0.5625 -12.125 C -0.03125 -14.613281 -0.113281 -17.71875 0.3125 -21.4375 C 0.75 -25.15625 1.535156 -28.875 2.671875 -32.59375 C 3.804688 -36.3125 5.070312 -39.410156 6.46875 -41.890625 C 7.875 -44.378906 9.171875 -45.625 10.359375 -45.625 C 12.191406 -45.625 13.050781 -44.785156 12.9375 -43.109375 C 12.832031 -41.441406 12.296875 -39.234375 11.328125 -36.484375 C 10.359375 -33.734375 9.382812 -30.710938 8.40625 -27.421875 C 7.4375 -24.128906 6.953125 -20.921875 6.953125 -17.796875 L 14.71875 -29.609375 C 15.039062 -30.253906 15.738281 -31.382812 16.8125 -33 C 17.894531 -34.613281 19.109375 -36.117188 20.453125 -37.515625 C 21.804688 -38.921875 23.128906 -39.625 24.421875 -39.625 C 25.722656 -39.625 26.75 -38.765625 27.5 -37.046875 L 28.46875 -27.984375 C 28.46875 -27.015625 28.519531 -25.503906 28.625 -23.453125 C 28.738281 -21.398438 28.984375 -19.320312 29.359375 -17.21875 C 29.734375 -15.125 30.351562 -13.320312 31.21875 -11.8125 C 32.082031 -10.300781 33.269531 -9.546875 34.78125 -9.546875 C 36.394531 -9.546875 38.09375 -10.515625 39.875 -12.453125 C 41.65625 -14.398438 43.378906 -16.640625 45.046875 -19.171875 C 46.722656 -21.703125 48.234375 -23.9375 49.578125 -25.875 C 50.929688 -27.820312 51.984375 -28.796875 52.734375 -28.796875 C 54.347656 -28.796875 55.101562 -28.175781 55 -26.9375 C 54.894531 -25.695312 54.351562 -24.265625 53.375 -22.640625 C 52.40625 -21.023438 51.410156 -19.515625 50.390625 -18.109375 C 49.367188 -16.710938 48.75 -15.851562 48.53125 -15.53125 C 47.769531 -14.5625 46.742188 -13.320312 45.453125 -11.8125 C 44.160156 -10.300781 42.8125 -8.894531 41.40625 -7.59375 C 40.007812 -6.300781 38.664062 -5.492188 37.375 -5.171875 C 36.289062 -4.847656 35.265625 -4.6875 34.296875 -4.6875 C 31.816406 -4.6875 29.847656 -5.601562 28.390625 -7.4375 C 26.929688 -9.269531 25.828125 -11.265625 25.078125 -13.421875 C 23.992188 -16.660156 23.394531 -19.546875 23.28125 -22.078125 C 23.175781 -24.609375 23.175781 -26.765625 23.28125 -28.546875 C 23.394531 -30.328125 23.179688 -31.703125 22.640625 -32.671875 C 21.347656 -31.804688 19.972656 -30.082031 18.515625 -27.5 C 17.066406 -24.914062 15.554688 -22.140625 13.984375 -19.171875 C 12.421875 -16.203125 10.859375 -13.664062 9.296875 -11.5625 C 7.734375 -9.457031 6.144531 -8.40625 4.53125 -8.40625 Z M 4.53125 -8.40625 "/></g></g></g><g fill="#504081" fill-opacity="1"><g transform="translate(531.459432, 163.706181)"><g><path d="M 13.421875 0.640625 C 11.265625 0.640625 9.347656 -0.0546875 7.671875 -1.453125 C 6.003906 -2.859375 4.738281 -4.316406 3.875 -5.828125 C 1.9375 -9.492188 0.832031 -13.832031 0.5625 -18.84375 C 0.289062 -23.863281 0.585938 -28.421875 1.453125 -32.515625 C 1.671875 -33.703125 1.96875 -35.128906 2.34375 -36.796875 C 2.71875 -38.472656 3.28125 -39.957031 4.03125 -41.25 C 4.789062 -42.539062 5.710938 -43.1875 6.796875 -43.1875 C 9.273438 -43.1875 10.488281 -42.347656 10.4375 -40.671875 C 10.382812 -39.003906 9.925781 -36.414062 9.0625 -32.90625 C 8.195312 -29.40625 7.765625 -24.90625 7.765625 -19.40625 C 7.765625 -17.789062 7.976562 -15.847656 8.40625 -13.578125 C 8.84375 -11.316406 9.519531 -9.320312 10.4375 -7.59375 C 11.351562 -5.875 12.507812 -5.015625 13.90625 -5.015625 C 15.632812 -5.015625 17.601562 -5.769531 19.8125 -7.28125 C 22.019531 -8.789062 24.066406 -10.488281 25.953125 -12.375 C 27.847656 -14.257812 29.171875 -15.6875 29.921875 -16.65625 C 30.140625 -16.875 30.734375 -17.601562 31.703125 -18.84375 C 32.671875 -20.082031 33.828125 -21.484375 35.171875 -23.046875 C 36.523438 -24.609375 37.847656 -25.984375 39.140625 -27.171875 C 40.441406 -28.359375 41.46875 -28.953125 42.21875 -28.953125 C 42.976562 -28.953125 43.359375 -28.304688 43.359375 -27.015625 C 43.359375 -26.253906 42.84375 -25.09375 41.8125 -23.53125 C 40.789062 -21.96875 39.578125 -20.320312 38.171875 -18.59375 C 36.773438 -16.875 35.398438 -15.257812 34.046875 -13.75 C 32.703125 -12.238281 31.707031 -11.160156 31.0625 -10.515625 C 29.769531 -9.222656 28.234375 -7.6875 26.453125 -5.90625 C 24.671875 -4.125 22.703125 -2.585938 20.546875 -1.296875 C 18.390625 -0.00390625 16.015625 0.640625 13.421875 0.640625 Z M 8.25 -63.578125 C 8.25 -65.410156 8.734375 -67 9.703125 -68.34375 C 10.671875 -69.695312 11.75 -70.375 12.9375 -70.375 C 14.226562 -70.375 15.304688 -69.5625 16.171875 -67.9375 C 17.679688 -64.914062 17.867188 -62.566406 16.734375 -60.890625 C 15.609375 -59.222656 14.238281 -58.390625 12.625 -58.390625 C 11.539062 -58.390625 10.539062 -58.820312 9.625 -59.6875 C 8.707031 -60.550781 8.25 -61.847656 8.25 -63.578125 Z M 8.25 -63.578125 "/></g></g></g><g fill="#504081" fill-opacity="1"><g transform="translate(568.33932, 163.706181)"><g><path d="M 15.375 -3.71875 C 16.226562 -3.9375 16.679688 -4.125 16.734375 -4.28125 C 16.796875 -4.445312 17.203125 -4.800781 17.953125 -5.34375 C 18.492188 -5.769531 18.898438 -6.117188 19.171875 -6.390625 C 19.441406 -6.660156 19.789062 -6.957031 20.21875 -7.28125 L 34.78125 -17.3125 C 35.96875 -18.0625 37.316406 -18.8125 38.828125 -19.5625 C 40.335938 -20.320312 41.898438 -20.703125 43.515625 -20.703125 C 44.804688 -20.703125 45.992188 -20.378906 47.078125 -19.734375 C 48.472656 -18.867188 49.359375 -17.628906 49.734375 -16.015625 C 50.117188 -14.398438 50.28125 -12.804688 50.21875 -11.234375 C 50.164062 -9.671875 50.140625 -8.40625 50.140625 -7.4375 C 52.296875 -9.0625 54.535156 -10.867188 56.859375 -12.859375 C 59.179688 -14.859375 61.203125 -16.828125 62.921875 -18.765625 L 72.3125 -27.34375 C 73.28125 -27.988281 73.925781 -28.3125 74.25 -28.3125 C 74.570312 -28.3125 75.21875 -27.988281 76.1875 -27.34375 C 76.082031 -26.257812 75.945312 -25.609375 75.78125 -25.390625 C 75.625 -25.179688 75.222656 -24.695312 74.578125 -23.9375 C 73.171875 -22.21875 71.304688 -20.304688 68.984375 -18.203125 C 66.671875 -16.097656 64.328125 -14.019531 61.953125 -11.96875 C 59.578125 -9.914062 57.53125 -8.082031 55.8125 -6.46875 C 55.269531 -5.925781 54.890625 -5.570312 54.671875 -5.40625 C 54.460938 -5.25 54.085938 -4.957031 53.546875 -4.53125 C 51.492188 -2.800781 50.085938 -1.53125 49.328125 -0.71875 C 48.578125 0.0820312 48.09375 0.882812 47.875 1.6875 C 47.664062 2.5 47.34375 3.738281 46.90625 5.40625 C 46.476562 7.082031 45.507812 9.648438 44 13.109375 C 42.0625 17.523438 40.015625 21.59375 37.859375 25.3125 C 35.703125 29.03125 33.378906 32.78125 30.890625 36.5625 C 30.460938 37.101562 30.113281 37.5625 29.84375 37.9375 C 29.570312 38.3125 29.164062 38.769531 28.625 39.3125 L 22.96875 46.90625 C 21.78125 48.207031 20.082031 50.015625 17.875 52.328125 C 15.664062 54.648438 13.265625 56.753906 10.671875 58.640625 C 8.085938 60.523438 5.660156 61.46875 3.390625 61.46875 C 2.960938 61.46875 2.585938 61.441406 2.265625 61.390625 C 1.941406 61.335938 1.617188 61.253906 1.296875 61.140625 C -0.316406 60.492188 -1.3125 59.363281 -1.6875 57.75 C -2.070312 56.132812 -2.070312 54.410156 -1.6875 52.578125 C -1.3125 50.742188 -0.859375 49.125 -0.328125 47.71875 C 1.179688 44.59375 2.71875 41.707031 4.28125 39.0625 C 5.84375 36.425781 7.757812 33.757812 10.03125 31.0625 C 10.675781 30.09375 11.296875 29.203125 11.890625 28.390625 C 12.484375 27.578125 13.15625 26.6875 13.90625 25.71875 C 14.445312 25.394531 14.878906 25.070312 15.203125 24.75 C 15.523438 24.425781 15.90625 23.992188 16.34375 23.453125 C 18.382812 20.972656 20.96875 18.300781 24.09375 15.4375 C 27.226562 12.582031 29.925781 9.972656 32.1875 7.609375 L 42.0625 -0.640625 C 42.925781 -1.617188 43.546875 -3.050781 43.921875 -4.9375 C 44.296875 -6.820312 44.507812 -8.734375 44.5625 -10.671875 C 44.613281 -12.617188 44.425781 -14.078125 44 -15.046875 C 41.945312 -15.046875 40.003906 -14.53125 38.171875 -13.5 C 36.335938 -12.476562 34.773438 -11.535156 33.484375 -10.671875 C 31.003906 -9.160156 28.953125 -7.835938 27.328125 -6.703125 C 25.710938 -5.578125 24.148438 -4.421875 22.640625 -3.234375 C 21.128906 -2.046875 19.242188 -0.535156 16.984375 1.296875 C 16.234375 1.835938 15.046875 2.753906 13.421875 4.046875 C 11.804688 5.335938 10.351562 5.984375 9.0625 5.984375 C 8.519531 5.984375 8.085938 5.820312 7.765625 5.5 C 6.898438 4.632812 6.84375 3.226562 7.59375 1.28125 C 8.351562 -0.65625 9.351562 -2.59375 10.59375 -4.53125 C 11.832031 -6.46875 12.671875 -7.816406 13.109375 -8.578125 L 24.421875 -27.34375 C 25.503906 -29.28125 26.691406 -31.539062 27.984375 -34.125 C 29.273438 -36.71875 30.40625 -39.304688 31.375 -41.890625 C 32.351562 -44.484375 32.84375 -46.75 32.84375 -48.6875 C 31.4375 -48.476562 29.867188 -47.75 28.140625 -46.5 C 26.421875 -45.257812 25.128906 -44.15625 24.265625 -43.1875 C 23.503906 -42.539062 22.851562 -42.03125 22.3125 -41.65625 C 21.78125 -41.28125 21.132812 -40.710938 20.375 -39.953125 C 19.726562 -39.203125 19.191406 -38.554688 18.765625 -38.015625 C 18.335938 -37.472656 17.742188 -36.828125 16.984375 -36.078125 C 13.859375 -32.941406 11.78125 -30.40625 10.75 -28.46875 C 9.726562 -26.53125 9.109375 -25.070312 8.890625 -24.09375 C 8.679688 -23.125 8.28125 -22.476562 7.6875 -22.15625 C 7.09375 -21.832031 5.660156 -21.671875 3.390625 -21.671875 C 2.421875 -23.296875 1.988281 -24.644531 2.09375 -25.71875 C 2.207031 -26.800781 2.859375 -28.039062 4.046875 -29.4375 C 5.234375 -30.84375 6.847656 -32.734375 8.890625 -35.109375 C 9.648438 -35.960938 10.972656 -37.332031 12.859375 -39.21875 C 14.742188 -41.113281 16.925781 -43.113281 19.40625 -45.21875 C 21.882812 -47.320312 24.363281 -49.125 26.84375 -50.625 C 29.332031 -52.132812 31.4375 -52.890625 33.15625 -52.890625 C 34.988281 -52.890625 36.175781 -52.03125 36.71875 -50.3125 C 37.15625 -48.6875 37.078125 -46.710938 36.484375 -44.390625 C 35.890625 -42.078125 35.023438 -39.65625 33.890625 -37.125 C 32.753906 -34.59375 31.617188 -32.300781 30.484375 -30.25 C 29.359375 -28.195312 28.472656 -26.578125 27.828125 -25.390625 C 27.503906 -24.742188 26.691406 -23.367188 25.390625 -21.265625 C 24.097656 -19.171875 22.695312 -16.851562 21.1875 -14.3125 C 19.675781 -11.78125 18.351562 -9.488281 17.21875 -7.4375 C 16.09375 -5.394531 15.476562 -4.15625 15.375 -3.71875 Z M 2.421875 55.8125 C 2.421875 56.675781 2.800781 57.109375 3.5625 57.109375 C 4.957031 57.109375 6.734375 56.21875 8.890625 54.4375 C 11.046875 52.65625 13.253906 50.523438 15.515625 48.046875 C 17.785156 45.566406 19.8125 43.191406 21.59375 40.921875 C 23.375 38.660156 24.585938 37.046875 25.234375 36.078125 C 26.203125 34.566406 27.46875 32.539062 29.03125 30 C 30.59375 27.46875 32.15625 24.769531 33.71875 21.90625 C 35.289062 19.050781 36.722656 16.273438 38.015625 13.578125 C 39.304688 10.890625 40.171875 8.628906 40.609375 6.796875 C 39.742188 7.441406 38.554688 8.382812 37.046875 9.625 C 35.535156 10.863281 34.050781 12.128906 32.59375 13.421875 C 31.132812 14.722656 29.921875 15.800781 28.953125 16.65625 C 27.015625 18.28125 25.234375 20.035156 23.609375 21.921875 C 21.992188 23.804688 20.269531 25.71875 18.4375 27.65625 L 13.59375 33.640625 C 12.1875 35.472656 10.617188 37.65625 8.890625 40.1875 C 7.171875 42.726562 5.660156 45.347656 4.359375 48.046875 C 3.066406 50.742188 2.421875 53.332031 2.421875 55.8125 Z M 2.421875 55.8125 "/></g></g></g><g fill="#504081" fill-opacity="1"><g transform="translate(637.084685, 163.706181)"><g><path d="M 0 -16.34375 C 0 -18.601562 0.535156 -21.40625 1.609375 -24.75 C 2.691406 -28.09375 4.203125 -31.40625 6.140625 -34.6875 C 8.085938 -37.976562 10.328125 -40.703125 12.859375 -42.859375 C 15.390625 -45.023438 18.0625 -46.109375 20.875 -46.109375 C 23.457031 -46.109375 25.554688 -45.351562 27.171875 -43.84375 C 28.796875 -42.332031 29.769531 -40.789062 30.09375 -39.21875 C 30.414062 -37.65625 29.875 -36.875 28.46875 -36.875 C 27.394531 -36.875 26.289062 -37.492188 25.15625 -38.734375 C 24.019531 -39.984375 22.695312 -40.609375 21.1875 -40.609375 C 20 -40.609375 18.566406 -39.90625 16.890625 -38.5 C 15.222656 -37.09375 13.207031 -34.34375 10.84375 -30.25 C 9.757812 -28.519531 8.757812 -26.28125 7.84375 -23.53125 C 6.925781 -20.78125 6.46875 -18.0625 6.46875 -15.375 C 6.6875 -15.582031 6.765625 -15.660156 6.703125 -15.609375 C 6.648438 -15.554688 6.84375 -15.742188 7.28125 -16.171875 L 8.578125 -18.125 C 9.441406 -19.414062 10.4375 -21.082031 11.5625 -23.125 C 12.695312 -25.175781 13.859375 -27.253906 15.046875 -29.359375 C 16.234375 -31.460938 17.3125 -33.238281 18.28125 -34.6875 C 19.25 -36.144531 20.003906 -36.875 20.546875 -36.875 C 22.484375 -36.875 23.613281 -36.171875 23.9375 -34.765625 C 24.257812 -33.367188 24.394531 -31.644531 24.34375 -29.59375 C 24.289062 -27.550781 24.476562 -25.503906 24.90625 -23.453125 C 25.550781 -20.546875 26.546875 -18.414062 27.890625 -17.0625 C 29.242188 -15.71875 30.785156 -15.046875 32.515625 -15.046875 C 35.535156 -15.046875 38.878906 -16.878906 42.546875 -20.546875 C 44.054688 -21.941406 45.132812 -23.097656 45.78125 -24.015625 C 46.425781 -24.929688 47.289062 -25.984375 48.375 -27.171875 C 49.125 -28.253906 50.09375 -28.796875 51.28125 -28.796875 C 52.46875 -28.796875 52.976562 -27.796875 52.8125 -25.796875 C 52.65625 -23.804688 50.523438 -20.816406 46.421875 -16.828125 L 41.578125 -12.9375 C 38.441406 -10.78125 35.421875 -9.703125 32.515625 -9.703125 C 29.816406 -9.703125 27.46875 -10.507812 25.46875 -12.125 C 23.476562 -13.75 21.941406 -15.742188 20.859375 -18.109375 C 19.785156 -20.484375 19.25 -22.804688 19.25 -25.078125 C 18.5 -24.535156 17.632812 -23.347656 16.65625 -21.515625 C 15.6875 -19.679688 14.632812 -17.710938 13.5 -15.609375 C 12.375 -13.503906 11.21875 -11.671875 10.03125 -10.109375 C 8.84375 -8.546875 7.65625 -7.765625 6.46875 -7.765625 C 3.445312 -7.765625 1.613281 -8.460938 0.96875 -9.859375 C 0.320312 -11.265625 0 -13.425781 0 -16.34375 Z M 0 -16.34375 "/></g></g></g><g fill="#504081" fill-opacity="1"><g transform="translate(683.993282, 163.706181)"><g><path d="M -45.453125 -72.140625 C -45.453125 -73.546875 -44.15625 -75.03125 -41.5625 -76.59375 C -38.976562 -78.15625 -35.71875 -79.691406 -31.78125 -81.203125 C -27.84375 -82.710938 -23.691406 -84.140625 -19.328125 -85.484375 C -14.960938 -86.835938 -10.945312 -88 -7.28125 -88.96875 C -3.613281 -89.9375 -0.863281 -90.691406 0.96875 -91.234375 C 3.238281 -91.878906 4.832031 -92.253906 5.75 -92.359375 C 6.664062 -92.472656 7.253906 -92.828125 7.515625 -93.421875 C 7.785156 -94.015625 8.082031 -95.226562 8.40625 -97.0625 C 9.269531 -101.476562 10.269531 -104.519531 11.40625 -106.1875 C 12.539062 -107.863281 13.644531 -108.703125 14.71875 -108.703125 C 15.582031 -108.703125 16.3125 -108.242188 16.90625 -107.328125 C 17.5 -106.410156 17.796875 -105.304688 17.796875 -104.015625 C 17.796875 -103.046875 17.738281 -102.640625 17.625 -102.796875 C 17.519531 -102.960938 17.519531 -102.613281 17.625 -101.75 C 17.625 -101.53125 17.648438 -101.257812 17.703125 -100.9375 C 17.765625 -100.613281 17.796875 -100.179688 17.796875 -99.640625 C 17.796875 -98.242188 17.523438 -97.546875 16.984375 -97.546875 C 16.441406 -97.546875 15.898438 -97.460938 15.359375 -97.296875 C 14.828125 -97.140625 14.5625 -96.195312 14.5625 -94.46875 C 15.851562 -94.46875 17.28125 -94.65625 18.84375 -95.03125 C 20.40625 -95.414062 21.78125 -95.660156 22.96875 -95.765625 C 27.71875 -96.628906 32.460938 -97.410156 37.203125 -98.109375 C 41.953125 -98.804688 46.804688 -99.15625 51.765625 -99.15625 C 54.347656 -99.15625 56.234375 -98.613281 57.421875 -97.53125 C 58.609375 -96.457031 59.039062 -95.378906 58.71875 -94.296875 C 58.394531 -93.222656 57.207031 -92.6875 55.15625 -92.6875 C 54.945312 -93.550781 54.8125 -93.957031 54.75 -93.90625 C 54.695312 -93.851562 54.1875 -93.929688 53.21875 -94.140625 C 52.789062 -94.253906 51.925781 -94.3125 50.625 -94.3125 C 48.363281 -94.3125 45.375 -94.066406 41.65625 -93.578125 C 37.9375 -93.097656 34.082031 -92.53125 30.09375 -91.875 C 26.101562 -91.226562 22.539062 -90.609375 19.40625 -90.015625 C 16.28125 -89.429688 14.234375 -89.03125 13.265625 -88.8125 L 10.03125 -55.640625 C 9.925781 -54.890625 9.898438 -54.082031 9.953125 -53.21875 C 10.003906 -52.351562 10.03125 -51.488281 10.03125 -50.625 C 10.03125 -49.550781 9.945312 -48.851562 9.78125 -48.53125 C 9.625 -48.207031 9.546875 -47.453125 9.546875 -46.265625 C 9.546875 -43.890625 9.597656 -41.164062 9.703125 -38.09375 C 9.816406 -35.019531 9.765625 -32.617188 9.546875 -30.890625 C 9.429688 -29.921875 9.347656 -28.007812 9.296875 -25.15625 C 9.242188 -22.300781 9.191406 -18.984375 9.140625 -15.203125 C 9.085938 -11.429688 9.0625 -7.628906 9.0625 -3.796875 C 9.0625 0.0234375 9.0625 3.5 9.0625 6.625 C 9.0625 9.757812 9.113281 12.023438 9.21875 13.421875 C 9.21875 14.609375 9.351562 16.414062 9.625 18.84375 C 9.894531 21.269531 9.945312 23.453125 9.78125 25.390625 C 9.625 27.335938 8.84375 28.3125 7.4375 28.3125 C 5.394531 28.3125 4.15625 27.175781 3.71875 24.90625 C 3.289062 22.644531 3.078125 20.546875 3.078125 18.609375 C 2.753906 14.722656 2.5625 10.191406 2.5 5.015625 C 2.445312 -0.160156 2.445312 -5.335938 2.5 -10.515625 C 2.5625 -15.691406 2.59375 -20.222656 2.59375 -24.109375 L 3.078125 -31.703125 C 3.078125 -33.210938 3.078125 -35.53125 3.078125 -38.65625 C 3.078125 -41.789062 3.128906 -45.109375 3.234375 -48.609375 C 3.335938 -52.117188 3.441406 -55.328125 3.546875 -58.234375 C 3.660156 -61.148438 3.828125 -63.195312 4.046875 -64.375 C 4.265625 -65.457031 4.398438 -66.753906 4.453125 -68.265625 C 4.503906 -69.773438 4.582031 -71.066406 4.6875 -72.140625 L 6.140625 -87.1875 C 5.710938 -87.082031 4.769531 -86.867188 3.3125 -86.546875 C 1.851562 -86.222656 0.695312 -85.953125 -0.15625 -85.734375 C -5.445312 -84.441406 -10.488281 -83.066406 -15.28125 -81.609375 C -20.082031 -80.148438 -25.019531 -78.453125 -30.09375 -76.515625 C -31.0625 -76.085938 -31.945312 -75.628906 -32.75 -75.140625 C -33.5625 -74.648438 -34.453125 -74.191406 -35.421875 -73.765625 C -36.722656 -73.222656 -37.5625 -72.84375 -37.9375 -72.625 C -38.3125 -72.414062 -38.5 -72.148438 -38.5 -71.828125 C -38.5 -71.503906 -38.769531 -70.800781 -39.3125 -69.71875 C -39.738281 -69.613281 -40.164062 -69.53125 -40.59375 -69.46875 C -41.03125 -69.414062 -41.519531 -69.390625 -42.0625 -69.390625 C -42.925781 -69.390625 -43.707031 -69.578125 -44.40625 -69.953125 C -45.101562 -70.335938 -45.453125 -71.066406 -45.453125 -72.140625 Z M -45.453125 -72.140625 "/></g></g></g><g fill="#504081" fill-opacity="1"><g transform="translate(702.756739, 163.706181)"><g><path d="M 13.421875 0.640625 C 11.265625 0.640625 9.347656 -0.0546875 7.671875 -1.453125 C 6.003906 -2.859375 4.738281 -4.316406 3.875 -5.828125 C 1.9375 -9.492188 0.832031 -13.832031 0.5625 -18.84375 C 0.289062 -23.863281 0.585938 -28.421875 1.453125 -32.515625 C 1.671875 -33.703125 1.96875 -35.128906 2.34375 -36.796875 C 2.71875 -38.472656 3.28125 -39.957031 4.03125 -41.25 C 4.789062 -42.539062 5.710938 -43.1875 6.796875 -43.1875 C 9.273438 -43.1875 10.488281 -42.347656 10.4375 -40.671875 C 10.382812 -39.003906 9.925781 -36.414062 9.0625 -32.90625 C 8.195312 -29.40625 7.765625 -24.90625 7.765625 -19.40625 C 7.765625 -17.789062 7.976562 -15.847656 8.40625 -13.578125 C 8.84375 -11.316406 9.519531 -9.320312 10.4375 -7.59375 C 11.351562 -5.875 12.507812 -5.015625 13.90625 -5.015625 C 15.632812 -5.015625 17.601562 -5.769531 19.8125 -7.28125 C 22.019531 -8.789062 24.066406 -10.488281 25.953125 -12.375 C 27.847656 -14.257812 29.171875 -15.6875 29.921875 -16.65625 C 30.140625 -16.875 30.734375 -17.601562 31.703125 -18.84375 C 32.671875 -20.082031 33.828125 -21.484375 35.171875 -23.046875 C 36.523438 -24.609375 37.847656 -25.984375 39.140625 -27.171875 C 40.441406 -28.359375 41.46875 -28.953125 42.21875 -28.953125 C 42.976562 -28.953125 43.359375 -28.304688 43.359375 -27.015625 C 43.359375 -26.253906 42.84375 -25.09375 41.8125 -23.53125 C 40.789062 -21.96875 39.578125 -20.320312 38.171875 -18.59375 C 36.773438 -16.875 35.398438 -15.257812 34.046875 -13.75 C 32.703125 -12.238281 31.707031 -11.160156 31.0625 -10.515625 C 29.769531 -9.222656 28.234375 -7.6875 26.453125 -5.90625 C 24.671875 -4.125 22.703125 -2.585938 20.546875 -1.296875 C 18.390625 -0.00390625 16.015625 0.640625 13.421875 0.640625 Z M 8.25 -63.578125 C 8.25 -65.410156 8.734375 -67 9.703125 -68.34375 C 10.671875 -69.695312 11.75 -70.375 12.9375 -70.375 C 14.226562 -70.375 15.304688 -69.5625 16.171875 -67.9375 C 17.679688 -64.914062 17.867188 -62.566406 16.734375 -60.890625 C 15.609375 -59.222656 14.238281 -58.390625 12.625 -58.390625 C 11.539062 -58.390625 10.539062 -58.820312 9.625 -59.6875 C 8.707031 -60.550781 8.25 -61.847656 8.25 -63.578125 Z M 8.25 -63.578125 "/></g></g></g><g fill="#504081" fill-opacity="1"><g transform="translate(739.63665, 163.706181)"><g><path d="M 8.09375 -3.71875 C 9.707031 -4.15625 11.160156 -5.582031 12.453125 -8 C 13.742188 -10.425781 14.660156 -13.203125 15.203125 -16.328125 C 15.742188 -19.460938 15.878906 -22.347656 15.609375 -24.984375 C 15.335938 -27.628906 14.503906 -29.4375 13.109375 -30.40625 C 12.785156 -29.21875 12.191406 -27.519531 11.328125 -25.3125 C 10.460938 -23.101562 9.625 -20.675781 8.8125 -18.03125 C 8.007812 -15.394531 7.472656 -12.804688 7.203125 -10.265625 C 6.929688 -7.734375 7.226562 -5.550781 8.09375 -3.71875 Z M 0 -9.21875 C 0 -10.625 0.296875 -12.703125 0.890625 -15.453125 C 1.484375 -18.203125 2.316406 -21.164062 3.390625 -24.34375 C 4.472656 -27.53125 5.6875 -30.550781 7.03125 -33.40625 C 8.382812 -36.257812 9.84375 -38.601562 11.40625 -40.4375 C 12.96875 -42.269531 14.554688 -43.1875 16.171875 -43.1875 C 17.253906 -43.1875 18.007812 -42.703125 18.4375 -41.734375 C 18.875 -40.765625 18.984375 -39.957031 18.765625 -39.3125 C 18.546875 -38.769531 18.140625 -38.226562 17.546875 -37.6875 C 16.953125 -37.144531 16.441406 -36.550781 16.015625 -35.90625 C 16.234375 -35.15625 16.769531 -34.320312 17.625 -33.40625 C 18.488281 -32.488281 19.351562 -31.273438 20.21875 -29.765625 C 21.082031 -28.253906 21.648438 -26.203125 21.921875 -23.609375 C 22.191406 -21.023438 21.894531 -17.628906 21.03125 -13.421875 C 19.84375 -7.816406 17.953125 -3.613281 15.359375 -0.8125 C 12.773438 1.988281 10.242188 3.390625 7.765625 3.390625 C 5.710938 3.390625 3.90625 2.335938 2.34375 0.234375 C 0.78125 -1.859375 0 -5.007812 0 -9.21875 Z M 0 -9.21875 "/></g></g></g><g fill="#504081" fill-opacity="1"><g transform="translate(768.105291, 163.706181)"><g><path d="M 4.53125 -8.40625 C 2.476562 -8.40625 1.15625 -9.644531 0.5625 -12.125 C -0.03125 -14.613281 -0.113281 -17.71875 0.3125 -21.4375 C 0.75 -25.15625 1.535156 -28.875 2.671875 -32.59375 C 3.804688 -36.3125 5.070312 -39.410156 6.46875 -41.890625 C 7.875 -44.378906 9.171875 -45.625 10.359375 -45.625 C 12.191406 -45.625 13.050781 -44.785156 12.9375 -43.109375 C 12.832031 -41.441406 12.296875 -39.234375 11.328125 -36.484375 C 10.359375 -33.734375 9.382812 -30.710938 8.40625 -27.421875 C 7.4375 -24.128906 6.953125 -20.921875 6.953125 -17.796875 L 14.71875 -29.609375 C 15.039062 -30.253906 15.738281 -31.382812 16.8125 -33 C 17.894531 -34.613281 19.109375 -36.117188 20.453125 -37.515625 C 21.804688 -38.921875 23.128906 -39.625 24.421875 -39.625 C 25.722656 -39.625 26.75 -38.765625 27.5 -37.046875 L 28.46875 -27.984375 C 28.46875 -27.015625 28.519531 -25.503906 28.625 -23.453125 C 28.738281 -21.398438 28.984375 -19.320312 29.359375 -17.21875 C 29.734375 -15.125 30.351562 -13.320312 31.21875 -11.8125 C 32.082031 -10.300781 33.269531 -9.546875 34.78125 -9.546875 C 36.394531 -9.546875 38.09375 -10.515625 39.875 -12.453125 C 41.65625 -14.398438 43.378906 -16.640625 45.046875 -19.171875 C 46.722656 -21.703125 48.234375 -23.9375 49.578125 -25.875 C 50.929688 -27.820312 51.984375 -28.796875 52.734375 -28.796875 C 54.347656 -28.796875 55.101562 -28.175781 55 -26.9375 C 54.894531 -25.695312 54.351562 -24.265625 53.375 -22.640625 C 52.40625 -21.023438 51.410156 -19.515625 50.390625 -18.109375 C 49.367188 -16.710938 48.75 -15.851562 48.53125 -15.53125 C 47.769531 -14.5625 46.742188 -13.320312 45.453125 -11.8125 C 44.160156 -10.300781 42.8125 -8.894531 41.40625 -7.59375 C 40.007812 -6.300781 38.664062 -5.492188 37.375 -5.171875 C 36.289062 -4.847656 35.265625 -4.6875 34.296875 -4.6875 C 31.816406 -4.6875 29.847656 -5.601562 28.390625 -7.4375 C 26.929688 -9.269531 25.828125 -11.265625 25.078125 -13.421875 C 23.992188 -16.660156 23.394531 -19.546875 23.28125 -22.078125 C 23.175781 -24.609375 23.175781 -26.765625 23.28125 -28.546875 C 23.394531 -30.328125 23.179688 -31.703125 22.640625 -32.671875 C 21.347656 -31.804688 19.972656 -30.082031 18.515625 -27.5 C 17.066406 -24.914062 15.554688 -22.140625 13.984375 -19.171875 C 12.421875 -16.203125 10.859375 -13.664062 9.296875 -11.5625 C 7.734375 -9.457031 6.144531 -8.40625 4.53125 -8.40625 Z M 4.53125 -8.40625 "/></g></g></g><g fill="#504081" fill-opacity="1"><g transform="translate(827.083952, 186.581179)"><g><path d="M 16.382812 2.542969 C 13.394531 2.542969 10.960938 1.578125 9.085938 -0.347656 C 7.21875 -2.261719 6.285156 -4.621094 6.285156 -7.421875 C 6.285156 -10.324219 7.230469 -12.691406 9.113281 -14.527344 C 10.988281 -16.351562 13.410156 -17.261719 16.382812 -17.261719 C 19.4375 -17.261719 21.902344 -16.351562 23.777344 -14.527344 C 25.660156 -12.691406 26.605469 -10.324219 26.605469 -7.421875 C 26.605469 -4.621094 25.671875 -2.261719 23.804688 -0.347656 C 21.929688 1.578125 19.453125 2.542969 16.382812 2.542969 Z M 16.382812 -0.496094 C 18.597656 -0.496094 20.347656 -1.152344 21.628906 -2.46875 C 22.917969 -3.792969 23.5625 -5.445312 23.5625 -7.421875 C 23.5625 -9.46875 22.929688 -11.109375 21.65625 -12.347656 C 20.375 -13.597656 18.613281 -14.222656 16.382812 -14.222656 C 14.234375 -14.222656 12.519531 -13.597656 11.234375 -12.347656 C 9.960938 -11.109375 9.328125 -9.46875 9.328125 -7.421875 C 9.328125 -5.445312 9.972656 -3.792969 11.261719 -2.46875 C 12.542969 -1.152344 14.25 -0.496094 16.382812 -0.496094 Z M 16.382812 -0.496094 "/></g></g></g><g fill="#fef74b" fill-opacity="1"><g transform="translate(827.083952, 186.581179)"><g><path d="M 16.375 1.03125 C 13.820312 1.03125 11.753906 0.21875 10.171875 -1.40625 C 8.597656 -3.03125 7.8125 -5.035156 7.8125 -7.421875 C 7.8125 -9.898438 8.597656 -11.90625 10.171875 -13.4375 C 11.753906 -14.96875 13.820312 -15.734375 16.375 -15.734375 C 19.019531 -15.734375 21.128906 -14.96875 22.703125 -13.4375 C 24.285156 -11.90625 25.078125 -9.898438 25.078125 -7.421875 C 25.078125 -5.035156 24.285156 -3.03125 22.703125 -1.40625 C 21.128906 0.21875 19.019531 1.03125 16.375 1.03125 Z M 16.375 1.03125 "/></g></g></g></svg>