<svg xmlns="http://www.w3.org/2000/svg" xmlns:xlink="http://www.w3.org/1999/xlink" width="1548" zoomAndPan="magnify" viewBox="0 0 1161 296.999993" height="396" preserveAspectRatio="xMidYMid meet" version="1.0"><defs><g/></defs><g fill="#504081" fill-opacity="1"><g transform="translate(251.966027, 163.706181)"><g><path d="M 43.671875 4.203125 C 43.671875 2.691406 43.671875 1.078125 43.671875 -0.640625 C 43.671875 -2.367188 43.890625 -3.71875 44.328125 -4.6875 C 43.785156 -4.6875 42.675781 -4.226562 41 -3.3125 C 39.332031 -2.394531 37.742188 -1.453125 36.234375 -0.484375 C 34.722656 0.484375 33.859375 1.128906 33.640625 1.453125 C 34.296875 1.671875 35.109375 1.882812 36.078125 2.09375 C 37.046875 2.3125 38.015625 2.53125 38.984375 2.75 C 39.847656 2.96875 40.710938 3.207031 41.578125 3.46875 C 42.441406 3.738281 43.140625 3.984375 43.671875 4.203125 Z M 53.21875 -21.03125 C 58.175781 -24.476562 63.351562 -28.734375 68.75 -33.796875 C 74.144531 -38.867188 79.265625 -44.207031 84.109375 -49.8125 C 88.960938 -55.425781 93.007812 -60.660156 96.25 -65.515625 C 100.238281 -71.335938 103.847656 -77.484375 107.078125 -83.953125 C 110.316406 -90.421875 111.9375 -97.484375 111.9375 -105.140625 C 111.9375 -109.785156 110.289062 -113.75 107 -117.03125 C 103.71875 -120.320312 99.757812 -121.96875 95.125 -121.96875 C 89.945312 -121.96875 85.601562 -121.535156 82.09375 -120.671875 C 78.59375 -119.816406 74.578125 -118.253906 70.046875 -115.984375 C 68.429688 -115.234375 67.59375 -114.640625 67.53125 -114.203125 C 67.476562 -113.773438 67.289062 -112.585938 66.96875 -110.640625 C 66.539062 -108.160156 66.054688 -105.734375 65.515625 -103.359375 C 64.972656 -100.992188 64.429688 -98.570312 63.890625 -96.09375 C 63.460938 -93.71875 63.03125 -91.394531 62.59375 -89.125 C 62.164062 -86.863281 61.679688 -84.492188 61.140625 -82.015625 C 60.171875 -77.378906 59.335938 -72.5 58.640625 -67.375 C 57.941406 -62.25 57.320312 -57.207031 56.78125 -52.25 C 56.5625 -50.632812 56.265625 -48.367188 55.890625 -45.453125 C 55.515625 -42.546875 55.109375 -39.445312 54.671875 -36.15625 C 54.242188 -32.863281 53.894531 -29.84375 53.625 -27.09375 C 53.351562 -24.34375 53.21875 -22.320312 53.21875 -21.03125 Z M 8.25 -33.484375 C 8.25 -37.691406 9.082031 -42.515625 10.75 -47.953125 C 12.425781 -53.398438 14.640625 -59.0625 17.390625 -64.9375 C 20.140625 -70.820312 23.238281 -76.515625 26.6875 -82.015625 C 30.144531 -87.515625 33.648438 -92.445312 37.203125 -96.8125 C 40.765625 -101.1875 44.160156 -104.613281 47.390625 -107.09375 C 49.222656 -108.488281 50.625 -109.617188 51.59375 -110.484375 C 52.570312 -111.347656 53.65625 -112.265625 54.84375 -113.234375 C 56.03125 -114.203125 57.703125 -115.441406 59.859375 -116.953125 C 64.273438 -119.753906 69.445312 -122.394531 75.375 -124.875 C 81.3125 -127.363281 87.082031 -128.609375 92.6875 -128.609375 C 100.988281 -128.609375 107.566406 -126.285156 112.421875 -121.640625 C 117.273438 -117.003906 119.703125 -110.695312 119.703125 -102.71875 C 119.703125 -97.539062 118.921875 -92.550781 117.359375 -87.75 C 115.796875 -82.957031 113.828125 -78.457031 111.453125 -74.25 C 109.078125 -70.039062 106.648438 -66.050781 104.171875 -62.28125 C 101.691406 -58.71875 99.453125 -55.671875 97.453125 -53.140625 C 95.460938 -50.609375 93.414062 -48.207031 91.3125 -45.9375 C 89.207031 -43.675781 86.753906 -40.984375 83.953125 -37.859375 L 66.640625 -21.84375 C 63.410156 -18.925781 60.820312 -16.820312 58.875 -15.53125 C 56.9375 -14.238281 55.484375 -13.1875 54.515625 -12.375 C 53.546875 -11.5625 52.925781 -10.484375 52.65625 -9.140625 C 52.382812 -7.796875 52.25 -5.613281 52.25 -2.59375 C 52.25 -0.539062 52.140625 1.128906 51.921875 2.421875 C 51.710938 3.722656 51.609375 5.394531 51.609375 7.4375 C 53.441406 8.84375 55.273438 10.03125 57.109375 11 C 58.941406 11.96875 60.828125 13.15625 62.765625 14.5625 C 73.660156 22.644531 84.414062 31.21875 95.03125 40.28125 C 105.65625 49.34375 116.738281 58.023438 128.28125 66.328125 C 129.46875 67.191406 130.222656 67.785156 130.546875 68.109375 C 130.867188 68.429688 131.03125 69.613281 131.03125 71.65625 C 130.382812 71.769531 129.953125 71.90625 129.734375 72.0625 C 129.515625 72.226562 129.03125 72.3125 128.28125 72.3125 C 127.738281 72.3125 126.09375 71.363281 123.34375 69.46875 C 120.59375 67.582031 117.25 65.128906 113.3125 62.109375 C 109.375 59.097656 105.191406 55.835938 100.765625 52.328125 C 96.347656 48.828125 92.09375 45.429688 88 42.140625 C 83.90625 38.847656 80.347656 35.960938 77.328125 33.484375 C 74.304688 31.003906 72.253906 29.332031 71.171875 28.46875 C 70.421875 27.820312 69.128906 26.796875 67.296875 25.390625 C 65.460938 23.992188 63.492188 22.539062 61.390625 21.03125 C 59.285156 19.519531 57.34375 18.171875 55.5625 16.984375 C 53.78125 15.796875 52.460938 15.148438 51.609375 15.046875 C 51.609375 16.234375 51.523438 16.988281 51.359375 17.3125 C 51.203125 17.632812 51.125 18.492188 51.125 19.890625 C 51.125 25.285156 51.09375 31.164062 51.03125 37.53125 C 50.976562 43.894531 50.976562 50.175781 51.03125 56.375 C 51.09375 62.570312 51.335938 68.257812 51.765625 73.4375 C 51.984375 75.0625 52.253906 76.757812 52.578125 78.53125 C 52.898438 80.3125 52.953125 81.796875 52.734375 82.984375 C 52.515625 84.171875 51.597656 84.765625 49.984375 84.765625 C 48.367188 84.765625 47.101562 83.898438 46.1875 82.171875 C 45.269531 80.453125 44.59375 78.242188 44.15625 75.546875 C 43.726562 72.847656 43.457031 70.066406 43.34375 67.203125 C 43.238281 64.347656 43.1875 61.757812 43.1875 59.4375 C 43.1875 57.125 43.132812 55.484375 43.03125 54.515625 C 42.707031 50.953125 42.570312 46.5 42.625 41.15625 C 42.675781 35.820312 42.78125 30.351562 42.9375 24.75 C 43.101562 19.144531 43.1875 14.347656 43.1875 10.359375 C 41.144531 9.273438 38.316406 8.351562 34.703125 7.59375 C 31.085938 6.84375 27.71875 6.46875 24.59375 6.46875 C 23.832031 6.46875 22.859375 6.628906 21.671875 6.953125 C 20.484375 7.273438 19.351562 7.4375 18.28125 7.4375 C 16.664062 7.4375 15.695312 6.679688 15.375 5.171875 C 14.9375 3.335938 15.6875 2.039062 17.625 1.28125 C 19.570312 0.53125 21.515625 -0.328125 23.453125 -1.296875 C 25.828125 -2.585938 27.984375 -3.851562 29.921875 -5.09375 C 31.867188 -6.332031 34.023438 -7.65625 36.390625 -9.0625 C 37.578125 -9.707031 38.578125 -10.328125 39.390625 -10.921875 C 40.203125 -11.515625 41.195312 -12.1875 42.375 -12.9375 C 44.101562 -14.125 44.941406 -15.066406 44.890625 -15.765625 C 44.835938 -16.472656 44.8125 -18.066406 44.8125 -20.546875 L 45.453125 -30.25 C 46.316406 -40.707031 47.503906 -51.085938 49.015625 -61.390625 C 50.523438 -71.691406 52.304688 -81.910156 54.359375 -92.046875 L 58.390625 -107.890625 C 57.640625 -107.679688 56.832031 -107.222656 55.96875 -106.515625 C 55.101562 -105.816406 54.347656 -105.195312 53.703125 -104.65625 C 52.953125 -103.90625 52.28125 -103.285156 51.6875 -102.796875 C 51.09375 -102.316406 50.363281 -101.695312 49.5 -100.9375 C 45.082031 -96.945312 40.742188 -92.015625 36.484375 -86.140625 C 32.222656 -80.265625 28.335938 -74.035156 24.828125 -67.453125 C 21.328125 -60.878906 18.550781 -54.300781 16.5 -47.71875 C 14.445312 -41.144531 13.421875 -35.109375 13.421875 -29.609375 C 13.421875 -27.015625 13.609375 -25.335938 13.984375 -24.578125 C 14.367188 -23.828125 14.773438 -23.453125 15.203125 -23.453125 C 15.523438 -23.453125 15.875 -23.53125 16.25 -23.6875 C 16.632812 -23.851562 16.988281 -23.9375 17.3125 -23.9375 C 18.5 -23.9375 19.195312 -23.476562 19.40625 -22.5625 C 19.625 -21.644531 19.300781 -20.703125 18.4375 -19.734375 C 17.570312 -18.765625 16.0625 -18.28125 13.90625 -18.28125 C 12.289062 -18.28125 11.078125 -18.875 10.265625 -20.0625 C 9.460938 -21.25 8.925781 -22.703125 8.65625 -24.421875 C 8.382812 -26.148438 8.25 -27.847656 8.25 -29.515625 C 8.25 -31.191406 8.25 -32.515625 8.25 -33.484375 Z M 8.25 -33.484375 "/></g></g></g><g fill="#504081" fill-opacity="1"><g transform="translate(352.576902, 163.706181)"><g><path d="M 7.4375 -29.28125 C 9.488281 -30.351562 11.753906 -31.832031 14.234375 -33.71875 C 16.710938 -35.613281 18.0625 -37.851562 18.28125 -40.4375 C 16.875 -40.226562 15.390625 -39.472656 13.828125 -38.171875 C 12.265625 -36.878906 10.914062 -35.421875 9.78125 -33.796875 C 8.65625 -32.179688 7.875 -30.675781 7.4375 -29.28125 Z M 0.15625 -25.390625 C 0.15625 -28.085938 1.046875 -31 2.828125 -34.125 C 4.609375 -37.257812 6.816406 -39.929688 9.453125 -42.140625 C 12.097656 -44.347656 14.71875 -45.453125 17.3125 -45.453125 C 20.863281 -45.453125 22.71875 -44.101562 22.875 -41.40625 C 23.039062 -38.71875 21.882812 -35.804688 19.40625 -32.671875 C 18.113281 -31.273438 16.171875 -29.660156 13.578125 -27.828125 C 10.992188 -25.992188 8.460938 -24.96875 5.984375 -24.75 C 5.984375 -23.019531 6.035156 -21.484375 6.140625 -20.140625 C 6.253906 -18.796875 7.007812 -17.421875 8.40625 -16.015625 C 9.8125 -14.609375 11.59375 -13.90625 13.75 -13.90625 C 16.550781 -13.90625 19.460938 -14.796875 22.484375 -16.578125 C 25.503906 -18.359375 27.820312 -19.84375 29.4375 -21.03125 C 30.082031 -21.570312 30.59375 -22.003906 30.96875 -22.328125 C 31.351562 -22.648438 31.816406 -23.023438 32.359375 -23.453125 C 34.617188 -25.179688 36.046875 -26.445312 36.640625 -27.25 C 37.234375 -28.0625 37.742188 -28.601562 38.171875 -28.875 C 38.609375 -29.144531 39.632812 -29.28125 41.25 -29.28125 C 41.46875 -28.09375 41.546875 -27.28125 41.484375 -26.84375 C 41.429688 -26.414062 41.03125 -25.769531 40.28125 -24.90625 C 38.34375 -22.96875 35.890625 -20.757812 32.921875 -18.28125 C 29.953125 -15.800781 26.769531 -13.644531 23.375 -11.8125 C 19.976562 -9.976562 16.609375 -9.0625 13.265625 -9.0625 C 11.535156 -9.0625 9.890625 -9.359375 8.328125 -9.953125 C 6.765625 -10.546875 5.28125 -11.539062 3.875 -12.9375 C 1.9375 -14.882812 0.832031 -16.878906 0.5625 -18.921875 C 0.289062 -20.972656 0.15625 -23.128906 0.15625 -25.390625 Z M 0.15625 -25.390625 "/></g></g></g><g fill="#504081" fill-opacity="1"><g transform="translate(387.677486, 163.706181)"><g><path d="M -45.453125 -72.140625 C -45.453125 -73.546875 -44.15625 -75.03125 -41.5625 -76.59375 C -38.976562 -78.15625 -35.71875 -79.691406 -31.78125 -81.203125 C -27.84375 -82.710938 -23.691406 -84.140625 -19.328125 -85.484375 C -14.960938 -86.835938 -10.945312 -88 -7.28125 -88.96875 C -3.613281 -89.9375 -0.863281 -90.691406 0.96875 -91.234375 C 3.238281 -91.878906 4.832031 -92.253906 5.75 -92.359375 C 6.664062 -92.472656 7.253906 -92.828125 7.515625 -93.421875 C 7.785156 -94.015625 8.082031 -95.226562 8.40625 -97.0625 C 9.269531 -101.476562 10.269531 -104.519531 11.40625 -106.1875 C 12.539062 -107.863281 13.644531 -108.703125 14.71875 -108.703125 C 15.582031 -108.703125 16.3125 -108.242188 16.90625 -107.328125 C 17.5 -106.410156 17.796875 -105.304688 17.796875 -104.015625 C 17.796875 -103.046875 17.738281 -102.640625 17.625 -102.796875 C 17.519531 -102.960938 17.519531 -102.613281 17.625 -101.75 C 17.625 -101.53125 17.648438 -101.257812 17.703125 -100.9375 C 17.765625 -100.613281 17.796875 -100.179688 17.796875 -99.640625 C 17.796875 -98.242188 17.523438 -97.546875 16.984375 -97.546875 C 16.441406 -97.546875 15.898438 -97.460938 15.359375 -97.296875 C 14.828125 -97.140625 14.5625 -96.195312 14.5625 -94.46875 C 15.851562 -94.46875 17.28125 -94.65625 18.84375 -95.03125 C 20.40625 -95.414062 21.78125 -95.660156 22.96875 -95.765625 C 27.71875 -96.628906 32.460938 -97.410156 37.203125 -98.109375 C 41.953125 -98.804688 46.804688 -99.15625 51.765625 -99.15625 C 54.347656 -99.15625 56.234375 -98.613281 57.421875 -97.53125 C 58.609375 -96.457031 59.039062 -95.378906 58.71875 -94.296875 C 58.394531 -93.222656 57.207031 -92.6875 55.15625 -92.6875 C 54.945312 -93.550781 54.8125 -93.957031 54.75 -93.90625 C 54.695312 -93.851562 54.1875 -93.929688 53.21875 -94.140625 C 52.789062 -94.253906 51.925781 -94.3125 50.625 -94.3125 C 48.363281 -94.3125 45.375 -94.066406 41.65625 -93.578125 C 37.9375 -93.097656 34.082031 -92.53125 30.09375 -91.875 C 26.101562 -91.226562 22.539062 -90.609375 19.40625 -90.015625 C 16.28125 -89.429688 14.234375 -89.03125 13.265625 -88.8125 L 10.03125 -55.640625 C 9.925781 -54.890625 9.898438 -54.082031 9.953125 -53.21875 C 10.003906 -52.351562 10.03125 -51.488281 10.03125 -50.625 C 10.03125 -49.550781 9.945312 -48.851562 9.78125 -48.53125 C 9.625 -48.207031 9.546875 -47.453125 9.546875 -46.265625 C 9.546875 -43.890625 9.597656 -41.164062 9.703125 -38.09375 C 9.816406 -35.019531 9.765625 -32.617188 9.546875 -30.890625 C 9.429688 -29.921875 9.347656 -28.007812 9.296875 -25.15625 C 9.242188 -22.300781 9.191406 -18.984375 9.140625 -15.203125 C 9.085938 -11.429688 9.0625 -7.628906 9.0625 -3.796875 C 9.0625 0.0234375 9.0625 3.5 9.0625 6.625 C 9.0625 9.757812 9.113281 12.023438 9.21875 13.421875 C 9.21875 14.609375 9.351562 16.414062 9.625 18.84375 C 9.894531 21.269531 9.945312 23.453125 9.78125 25.390625 C 9.625 27.335938 8.84375 28.3125 7.4375 28.3125 C 5.394531 28.3125 4.15625 27.175781 3.71875 24.90625 C 3.289062 22.644531 3.078125 20.546875 3.078125 18.609375 C 2.753906 14.722656 2.5625 10.191406 2.5 5.015625 C 2.445312 -0.160156 2.445312 -5.335938 2.5 -10.515625 C 2.5625 -15.691406 2.59375 -20.222656 2.59375 -24.109375 L 3.078125 -31.703125 C 3.078125 -33.210938 3.078125 -35.53125 3.078125 -38.65625 C 3.078125 -41.789062 3.128906 -45.109375 3.234375 -48.609375 C 3.335938 -52.117188 3.441406 -55.328125 3.546875 -58.234375 C 3.660156 -61.148438 3.828125 -63.195312 4.046875 -64.375 C 4.265625 -65.457031 4.398438 -66.753906 4.453125 -68.265625 C 4.503906 -69.773438 4.582031 -71.066406 4.6875 -72.140625 L 6.140625 -87.1875 C 5.710938 -87.082031 4.769531 -86.867188 3.3125 -86.546875 C 1.851562 -86.222656 0.695312 -85.953125 -0.15625 -85.734375 C -5.445312 -84.441406 -10.488281 -83.066406 -15.28125 -81.609375 C -20.082031 -80.148438 -25.019531 -78.453125 -30.09375 -76.515625 C -31.0625 -76.085938 -31.945312 -75.628906 -32.75 -75.140625 C -33.5625 -74.648438 -34.453125 -74.191406 -35.421875 -73.765625 C -36.722656 -73.222656 -37.5625 -72.84375 -37.9375 -72.625 C -38.3125 -72.414062 -38.5 -72.148438 -38.5 -71.828125 C -38.5 -71.503906 -38.769531 -70.800781 -39.3125 -69.71875 C -39.738281 -69.613281 -40.164062 -69.53125 -40.59375 -69.46875 C -41.03125 -69.414062 -41.519531 -69.390625 -42.0625 -69.390625 C -42.925781 -69.390625 -43.707031 -69.578125 -44.40625 -69.953125 C -45.101562 -70.335938 -45.453125 -71.066406 -45.453125 -72.140625 Z M -45.453125 -72.140625 "/></g></g></g><g fill="#504081" fill-opacity="1"><g transform="translate(406.440931, 163.706181)"><g><path d="M 0.15625 -19.734375 C 0.15625 -22.109375 0.503906 -24.75 1.203125 -27.65625 C 1.910156 -30.570312 2.828125 -33.40625 3.953125 -36.15625 C 5.085938 -38.90625 6.304688 -41.144531 7.609375 -42.875 C 8.785156 -44.164062 9.96875 -44.8125 11.15625 -44.8125 C 12.132812 -44.8125 13.109375 -44.539062 14.078125 -44 C 14.179688 -43.457031 14.3125 -43.078125 14.46875 -42.859375 C 14.632812 -42.648438 14.71875 -42.164062 14.71875 -41.40625 C 14.71875 -41.300781 14.234375 -40.273438 13.265625 -38.328125 C 12.296875 -36.390625 11.242188 -33.960938 10.109375 -31.046875 C 8.972656 -28.140625 8.054688 -25.066406 7.359375 -21.828125 C 6.660156 -18.597656 6.632812 -15.632812 7.28125 -12.9375 C 8.570312 -13.375 9.703125 -14.210938 10.671875 -15.453125 C 11.640625 -16.691406 12.503906 -17.847656 13.265625 -18.921875 L 22.96875 -33.15625 C 24.050781 -34.664062 24.96875 -35.988281 25.71875 -37.125 C 26.476562 -38.257812 27.613281 -38.828125 29.125 -38.828125 C 30.625 -38.828125 31.507812 -37.878906 31.78125 -35.984375 C 32.050781 -34.097656 32.101562 -31.96875 31.9375 -29.59375 C 31.78125 -27.226562 31.757812 -25.34375 31.875 -23.9375 C 32.40625 -20.0625 33.238281 -17.335938 34.375 -15.765625 C 35.507812 -14.203125 36.832031 -13.421875 38.34375 -13.421875 C 40.175781 -13.421875 42.113281 -14.175781 44.15625 -15.6875 C 46.207031 -17.195312 48.253906 -18.945312 50.296875 -20.9375 C 52.347656 -22.9375 54.15625 -24.691406 55.71875 -26.203125 C 57.289062 -27.710938 58.453125 -28.46875 59.203125 -28.46875 C 59.847656 -28.46875 60.441406 -28.332031 60.984375 -28.0625 C 61.523438 -27.789062 61.796875 -27.226562 61.796875 -26.375 C 61.796875 -25.507812 61.144531 -24.347656 59.84375 -22.890625 C 58.550781 -21.429688 57.148438 -20.023438 55.640625 -18.671875 C 54.128906 -17.328125 53.050781 -16.332031 52.40625 -15.6875 C 50.25 -13.644531 47.90625 -11.894531 45.375 -10.4375 C 42.84375 -8.976562 40.335938 -8.25 37.859375 -8.25 C 35.160156 -8.25 33.054688 -8.976562 31.546875 -10.4375 C 30.035156 -11.894531 28.925781 -13.726562 28.21875 -15.9375 C 27.519531 -18.144531 27.0625 -20.460938 26.84375 -22.890625 C 26.632812 -25.316406 26.53125 -27.5 26.53125 -29.4375 C 25.882812 -29.007812 25.101562 -28.066406 24.1875 -26.609375 C 23.269531 -25.148438 22.539062 -23.988281 22 -23.125 C 21.351562 -22.050781 20.4375 -20.570312 19.25 -18.6875 C 18.0625 -16.800781 16.738281 -14.910156 15.28125 -13.015625 C 13.832031 -11.128906 12.378906 -9.539062 10.921875 -8.25 C 9.460938 -6.957031 8.085938 -6.3125 6.796875 -6.3125 C 4.316406 -6.3125 2.617188 -7.035156 1.703125 -8.484375 C 0.785156 -9.941406 0.296875 -11.722656 0.234375 -13.828125 C 0.179688 -15.929688 0.15625 -17.898438 0.15625 -19.734375 Z M 0.15625 -19.734375 "/></g></g></g><g fill="#504081" fill-opacity="1"><g transform="translate(461.113726, 163.706181)"><g><path d="M 2.265625 -0.640625 C 1.179688 -0.640625 0.53125 -1.3125 0.3125 -2.65625 C 0.101562 -4.007812 0.0507812 -5.441406 0.15625 -6.953125 C 0.269531 -8.460938 0.328125 -9.378906 0.328125 -9.703125 C 0.210938 -11.648438 0.179688 -13.617188 0.234375 -15.609375 C 0.296875 -17.609375 0.269531 -19.628906 0.15625 -21.671875 C 0.15625 -22.429688 0.179688 -23.863281 0.234375 -25.96875 C 0.296875 -28.070312 0.457031 -30.304688 0.71875 -32.671875 C 0.988281 -35.046875 1.394531 -37.09375 1.9375 -38.8125 C 2.476562 -40.539062 3.179688 -41.40625 4.046875 -41.40625 C 6.203125 -41.40625 7.304688 -40.703125 7.359375 -39.296875 C 7.410156 -37.898438 7.332031 -36.070312 7.125 -33.8125 C 7.007812 -33.050781 6.953125 -32.210938 6.953125 -31.296875 C 6.953125 -30.378906 6.953125 -29.488281 6.953125 -28.625 C 6.953125 -27.550781 6.894531 -26.851562 6.78125 -26.53125 C 6.675781 -26.207031 6.625 -25.503906 6.625 -24.421875 C 7.8125 -25.285156 8.890625 -26.285156 9.859375 -27.421875 C 10.835938 -28.554688 12.566406 -29.125 15.046875 -29.125 C 15.796875 -29.125 16.789062 -29.148438 18.03125 -29.203125 C 19.269531 -29.253906 20.59375 -29.28125 22 -29.28125 C 24.375 -29.28125 26.582031 -29.144531 28.625 -28.875 C 30.675781 -28.601562 31.703125 -27.929688 31.703125 -26.859375 C 31.703125 -25.773438 31.132812 -25.070312 30 -24.75 C 28.875 -24.425781 27.5 -24.265625 25.875 -24.265625 C 24.800781 -24.265625 23.695312 -24.289062 22.5625 -24.34375 C 21.4375 -24.394531 20.441406 -24.421875 19.578125 -24.421875 C 16.554688 -24.421875 14.53125 -24.257812 13.5 -23.9375 C 12.476562 -23.613281 11.320312 -22.375 10.03125 -20.21875 C 9.269531 -18.820312 8.539062 -17.3125 7.84375 -15.6875 C 7.144531 -14.070312 6.632812 -12.296875 6.3125 -10.359375 C 5.988281 -8.953125 5.851562 -7.492188 5.90625 -5.984375 C 5.957031 -4.472656 5.796875 -3.203125 5.421875 -2.171875 C 5.046875 -1.148438 3.992188 -0.640625 2.265625 -0.640625 Z M 2.265625 -0.640625 "/></g></g></g><g fill="#504081" fill-opacity="1"><g transform="translate(487.479606, 163.706181)"><g><path d="M 4.53125 -8.40625 C 2.476562 -8.40625 1.15625 -9.644531 0.5625 -12.125 C -0.03125 -14.613281 -0.113281 -17.71875 0.3125 -21.4375 C 0.75 -25.15625 1.535156 -28.875 2.671875 -32.59375 C 3.804688 -36.3125 5.070312 -39.410156 6.46875 -41.890625 C 7.875 -44.378906 9.171875 -45.625 10.359375 -45.625 C 12.191406 -45.625 13.050781 -44.785156 12.9375 -43.109375 C 12.832031 -41.441406 12.296875 -39.234375 11.328125 -36.484375 C 10.359375 -33.734375 9.382812 -30.710938 8.40625 -27.421875 C 7.4375 -24.128906 6.953125 -20.921875 6.953125 -17.796875 L 14.71875 -29.609375 C 15.039062 -30.253906 15.738281 -31.382812 16.8125 -33 C 17.894531 -34.613281 19.109375 -36.117188 20.453125 -37.515625 C 21.804688 -38.921875 23.128906 -39.625 24.421875 -39.625 C 25.722656 -39.625 26.75 -38.765625 27.5 -37.046875 L 28.46875 -27.984375 C 28.46875 -27.015625 28.519531 -25.503906 28.625 -23.453125 C 28.738281 -21.398438 28.984375 -19.320312 29.359375 -17.21875 C 29.734375 -15.125 30.351562 -13.320312 31.21875 -11.8125 C 32.082031 -10.300781 33.269531 -9.546875 34.78125 -9.546875 C 36.394531 -9.546875 38.09375 -10.515625 39.875 -12.453125 C 41.65625 -14.398438 43.378906 -16.640625 45.046875 -19.171875 C 46.722656 -21.703125 48.234375 -23.9375 49.578125 -25.875 C 50.929688 -27.820312 51.984375 -28.796875 52.734375 -28.796875 C 54.347656 -28.796875 55.101562 -28.175781 55 -26.9375 C 54.894531 -25.695312 54.351562 -24.265625 53.375 -22.640625 C 52.40625 -21.023438 51.410156 -19.515625 50.390625 -18.109375 C 49.367188 -16.710938 48.75 -15.851562 48.53125 -15.53125 C 47.769531 -14.5625 46.742188 -13.320312 45.453125 -11.8125 C 44.160156 -10.300781 42.8125 -8.894531 41.40625 -7.59375 C 40.007812 -6.300781 38.664062 -5.492188 37.375 -5.171875 C 36.289062 -4.847656 35.265625 -4.6875 34.296875 -4.6875 C 31.816406 -4.6875 29.847656 -5.601562 28.390625 -7.4375 C 26.929688 -9.269531 25.828125 -11.265625 25.078125 -13.421875 C 23.992188 -16.660156 23.394531 -19.546875 23.28125 -22.078125 C 23.175781 -24.609375 23.175781 -26.765625 23.28125 -28.546875 C 23.394531 -30.328125 23.179688 -31.703125 22.640625 -32.671875 C 21.347656 -31.804688 19.972656 -30.082031 18.515625 -27.5 C 17.066406 -24.914062 15.554688 -22.140625 13.984375 -19.171875 C 12.421875 -16.203125 10.859375 -13.664062 9.296875 -11.5625 C 7.734375 -9.457031 6.144531 -8.40625 4.53125 -8.40625 Z M 4.53125 -8.40625 "/></g></g></g><g fill="#504081" fill-opacity="1"><g transform="translate(536.005757, 163.706181)"><g/></g></g><g fill="#504081" fill-opacity="1"><g transform="translate(577.900011, 163.706181)"><g><path d="M 43.1875 16.015625 C 50.414062 16.015625 57.316406 14.421875 63.890625 11.234375 C 70.472656 8.054688 76.515625 4.015625 82.015625 -0.890625 C 87.515625 -5.796875 92.148438 -10.835938 95.921875 -16.015625 C 100.347656 -21.734375 104.234375 -28.066406 107.578125 -35.015625 C 110.921875 -41.972656 113.535156 -49.195312 115.421875 -56.6875 C 117.304688 -64.1875 118.25 -71.5 118.25 -78.625 C 118.25 -84.550781 117.410156 -90.019531 115.734375 -95.03125 C 114.066406 -100.050781 111.640625 -104.070312 108.453125 -107.09375 C 105.273438 -110.113281 101.421875 -111.625 96.890625 -111.625 C 91.929688 -111.625 87.296875 -110.140625 82.984375 -107.171875 C 78.671875 -104.203125 74.707031 -100.398438 71.09375 -95.765625 C 67.476562 -91.128906 64.347656 -86.328125 61.703125 -81.359375 C 59.066406 -76.398438 56.992188 -71.984375 55.484375 -68.109375 L 49.171875 -51.28125 C 47.234375 -45.457031 45.347656 -39.390625 43.515625 -33.078125 C 41.679688 -26.773438 40.171875 -20.707031 38.984375 -14.875 C 38.765625 -13.476562 38.382812 -11.40625 37.84375 -8.65625 C 37.3125 -5.90625 36.75 -2.992188 36.15625 0.078125 C 35.5625 3.148438 35.070312 6.007812 34.6875 8.65625 C 34.3125 11.300781 34.125 13.210938 34.125 14.390625 C 34.988281 14.828125 36.363281 15.207031 38.25 15.53125 C 40.144531 15.851562 41.789062 16.015625 43.1875 16.015625 Z M 34.125 -17.796875 C 34.125 -17.898438 34.148438 -17.953125 34.203125 -17.953125 C 34.265625 -17.953125 34.296875 -18.007812 34.296875 -18.125 L 36.234375 -25.875 C 37.640625 -31.707031 39.445312 -38.234375 41.65625 -45.453125 C 43.863281 -52.679688 46.421875 -59.929688 49.328125 -67.203125 C 52.242188 -74.484375 55.507812 -81.304688 59.125 -87.671875 C 62.738281 -94.035156 66.59375 -99.269531 70.6875 -103.375 C 74.570312 -107.25 78.535156 -110.535156 82.578125 -113.234375 C 86.617188 -115.929688 91.5 -117.28125 97.21875 -117.28125 C 101.644531 -117.28125 105.632812 -116.171875 109.1875 -113.953125 C 112.75 -111.742188 115.769531 -108.703125 118.25 -104.828125 C 121.164062 -100.191406 123.109375 -95.09375 124.078125 -89.53125 C 125.046875 -83.976562 125.257812 -78.265625 124.71875 -72.390625 C 124.175781 -66.515625 123.203125 -60.769531 121.796875 -55.15625 C 120.398438 -49.550781 118.84375 -44.484375 117.125 -39.953125 C 114.53125 -32.835938 110.753906 -25.640625 105.796875 -18.359375 C 100.835938 -11.078125 95.09375 -4.363281 88.5625 1.78125 C 82.039062 7.925781 74.953125 12.859375 67.296875 16.578125 C 59.640625 20.296875 51.765625 22.15625 43.671875 22.15625 C 41.085938 22.15625 39.015625 21.910156 37.453125 21.421875 C 35.890625 20.941406 34.351562 20.648438 32.84375 20.546875 L 30.578125 46.90625 C 30.359375 48.207031 30.191406 50.335938 30.078125 53.296875 C 29.972656 56.265625 29.867188 59.226562 29.765625 62.1875 C 29.660156 65.15625 29.5 67.453125 29.28125 69.078125 C 29.0625 71.660156 28.894531 74.140625 28.78125 76.515625 C 28.675781 78.890625 28.4375 80.832031 28.0625 82.34375 C 27.6875 83.851562 26.796875 84.609375 25.390625 84.609375 C 24.535156 84.609375 23.675781 84.390625 22.8125 83.953125 C 22.375 82.335938 22.128906 79.5625 22.078125 75.625 C 22.023438 71.6875 22.050781 67.398438 22.15625 62.765625 C 22.269531 58.128906 22.40625 53.757812 22.5625 49.65625 C 22.726562 45.5625 22.8125 42.488281 22.8125 40.4375 C 22.8125 38.0625 22.890625 35.957031 23.046875 34.125 C 23.210938 32.289062 23.296875 30.351562 23.296875 28.3125 C 23.296875 25.832031 23.347656 23.78125 23.453125 22.15625 C 23.566406 20.539062 23.625 18.65625 23.625 16.5 C 23.082031 15.957031 22.457031 15.46875 21.75 15.03125 C 21.050781 14.601562 20.378906 14.175781 19.734375 13.75 C 17.796875 12.34375 16.878906 10.9375 16.984375 9.53125 C 17.085938 8.132812 17.734375 7.4375 18.921875 7.4375 C 19.679688 7.4375 20.332031 7.65625 20.875 8.09375 C 21.625 8.519531 22.210938 8.894531 22.640625 9.21875 C 23.078125 9.539062 23.40625 9.703125 23.625 9.703125 C 24.050781 9.703125 24.238281 9.109375 24.1875 7.921875 C 24.132812 6.734375 24.160156 4.632812 24.265625 1.625 C 24.265625 0.21875 24.34375 -0.753906 24.5 -1.296875 C 24.664062 -1.835938 24.75 -2.753906 24.75 -4.046875 C 24.851562 -5.117188 24.878906 -6.222656 24.828125 -7.359375 C 24.773438 -8.492188 24.800781 -9.597656 24.90625 -10.671875 C 25.019531 -11.859375 25.128906 -12.828125 25.234375 -13.578125 C 25.335938 -14.335938 25.390625 -15.421875 25.390625 -16.828125 C 25.390625 -20.171875 25.5 -24.101562 25.71875 -28.625 C 25.9375 -33.15625 26.179688 -37.6875 26.453125 -42.21875 C 26.722656 -46.75 26.859375 -50.738281 26.859375 -54.1875 C 26.859375 -56.34375 26.9375 -59.226562 27.09375 -62.84375 C 27.257812 -66.457031 27.34375 -70.285156 27.34375 -74.328125 C 27.34375 -78.367188 27.234375 -82.140625 27.015625 -85.640625 C 26.796875 -89.148438 26.253906 -91.769531 25.390625 -93.5 C 24.210938 -92.75 23.082031 -91.425781 22 -89.53125 C 20.914062 -87.644531 19.914062 -85.625 19 -83.46875 C 18.082031 -81.3125 17.300781 -79.425781 16.65625 -77.8125 C 15.6875 -75.113281 14.820312 -71.90625 14.0625 -68.1875 C 13.3125 -64.46875 12.664062 -61.203125 12.125 -58.390625 C 11.695312 -54.722656 11.5625 -50.972656 11.71875 -47.140625 C 11.882812 -43.316406 12.238281 -39.789062 12.78125 -36.5625 C 13.53125 -32.894531 14.335938 -30.332031 15.203125 -28.875 C 16.066406 -27.414062 16.875 -26.46875 17.625 -26.03125 C 18.382812 -25.601562 18.875 -25.066406 19.09375 -24.421875 C 19.625 -23.671875 19.675781 -22.972656 19.25 -22.328125 C 18.820312 -21.679688 18.175781 -21.359375 17.3125 -21.359375 C 16.34375 -21.359375 15.179688 -21.894531 13.828125 -22.96875 C 12.484375 -24.050781 11.21875 -25.9375 10.03125 -28.625 C 8.84375 -31.863281 8.085938 -34.695312 7.765625 -37.125 C 7.441406 -39.550781 7.0625 -42.4375 6.625 -45.78125 C 6.519531 -46.851562 6.546875 -47.738281 6.703125 -48.4375 C 6.867188 -49.144531 6.953125 -50.203125 6.953125 -51.609375 C 6.953125 -57.535156 7.570312 -63.300781 8.8125 -68.90625 C 10.050781 -74.519531 11.695312 -79.914062 13.75 -85.09375 C 14.394531 -86.601562 15.285156 -88.539062 16.421875 -90.90625 C 17.554688 -93.28125 18.90625 -95.410156 20.46875 -97.296875 C 22.03125 -99.191406 23.671875 -100.140625 25.390625 -100.140625 C 27.660156 -100.140625 29.441406 -99.164062 30.734375 -97.21875 C 32.023438 -95.28125 32.96875 -92.828125 33.5625 -89.859375 C 34.15625 -86.890625 34.53125 -83.757812 34.6875 -80.46875 C 34.851562 -77.1875 34.9375 -74.195312 34.9375 -71.5 C 34.9375 -62.226562 34.800781 -53.113281 34.53125 -44.15625 C 34.257812 -35.207031 34.125 -26.421875 34.125 -17.796875 Z M 34.125 -17.796875 "/></g></g></g><g fill="#504081" fill-opacity="1"><g transform="translate(703.259225, 163.706181)"><g><path d="M 8.09375 -3.71875 C 9.707031 -4.15625 11.160156 -5.582031 12.453125 -8 C 13.742188 -10.425781 14.660156 -13.203125 15.203125 -16.328125 C 15.742188 -19.460938 15.878906 -22.347656 15.609375 -24.984375 C 15.335938 -27.628906 14.503906 -29.4375 13.109375 -30.40625 C 12.785156 -29.21875 12.191406 -27.519531 11.328125 -25.3125 C 10.460938 -23.101562 9.625 -20.675781 8.8125 -18.03125 C 8.007812 -15.394531 7.472656 -12.804688 7.203125 -10.265625 C 6.929688 -7.734375 7.226562 -5.550781 8.09375 -3.71875 Z M 0 -9.21875 C 0 -10.625 0.296875 -12.703125 0.890625 -15.453125 C 1.484375 -18.203125 2.316406 -21.164062 3.390625 -24.34375 C 4.472656 -27.53125 5.6875 -30.550781 7.03125 -33.40625 C 8.382812 -36.257812 9.84375 -38.601562 11.40625 -40.4375 C 12.96875 -42.269531 14.554688 -43.1875 16.171875 -43.1875 C 17.253906 -43.1875 18.007812 -42.703125 18.4375 -41.734375 C 18.875 -40.765625 18.984375 -39.957031 18.765625 -39.3125 C 18.546875 -38.769531 18.140625 -38.226562 17.546875 -37.6875 C 16.953125 -37.144531 16.441406 -36.550781 16.015625 -35.90625 C 16.234375 -35.15625 16.769531 -34.320312 17.625 -33.40625 C 18.488281 -32.488281 19.351562 -31.273438 20.21875 -29.765625 C 21.082031 -28.253906 21.648438 -26.203125 21.921875 -23.609375 C 22.191406 -21.023438 21.894531 -17.628906 21.03125 -13.421875 C 19.84375 -7.816406 17.953125 -3.613281 15.359375 -0.8125 C 12.773438 1.988281 10.242188 3.390625 7.765625 3.390625 C 5.710938 3.390625 3.90625 2.335938 2.34375 0.234375 C 0.78125 -1.859375 0 -5.007812 0 -9.21875 Z M 0 -9.21875 "/></g></g></g><g fill="#504081" fill-opacity="1"><g transform="translate(731.727912, 163.706181)"><g><path d="M 0.328125 -12.453125 C 0.328125 -17.847656 0.648438 -23.671875 1.296875 -29.921875 C 1.941406 -36.179688 2.800781 -42.382812 3.875 -48.53125 C 4.957031 -54.675781 6.144531 -60.226562 7.4375 -65.1875 C 7.976562 -66.8125 8.519531 -68.617188 9.0625 -70.609375 C 9.601562 -72.609375 10.300781 -74.332031 11.15625 -75.78125 C 12.019531 -77.238281 13.15625 -77.96875 14.5625 -77.96875 C 15.851562 -77.96875 16.660156 -77.484375 16.984375 -76.515625 C 17.304688 -75.546875 17.332031 -74.382812 17.0625 -73.03125 C 16.789062 -71.6875 16.441406 -70.445312 16.015625 -69.3125 C 15.585938 -68.1875 15.316406 -67.40625 15.203125 -66.96875 C 14.335938 -63.738281 13.335938 -59.34375 12.203125 -53.78125 C 11.078125 -48.226562 10 -42.160156 8.96875 -35.578125 C 7.945312 -29.003906 7.164062 -22.484375 6.625 -16.015625 C 6.09375 -9.546875 5.988281 -3.695312 6.3125 1.53125 C 6.632812 6.757812 7.492188 10.78125 8.890625 13.59375 C 10.722656 12.613281 12.234375 11.15625 13.421875 9.21875 C 14.609375 7.28125 15.632812 5.394531 16.5 3.5625 C 18.976562 -1.1875 21.40625 -6.203125 23.78125 -11.484375 C 26.15625 -16.765625 28.632812 -21.726562 31.21875 -26.375 C 32.082031 -28.09375 33 -28.953125 33.96875 -28.953125 C 34.40625 -28.953125 34.753906 -28.765625 35.015625 -28.390625 C 35.285156 -28.015625 35.421875 -27.609375 35.421875 -27.171875 C 35.421875 -26.847656 34.988281 -25.820312 34.125 -24.09375 C 33.269531 -22.375 32.382812 -20.597656 31.46875 -18.765625 C 30.550781 -16.929688 29.929688 -15.742188 29.609375 -15.203125 C 28.523438 -12.941406 27.304688 -10.300781 25.953125 -7.28125 C 24.609375 -4.257812 23.289062 -1.296875 22 1.609375 C 20.707031 4.523438 19.46875 7.007812 18.28125 9.0625 C 17.738281 9.925781 17.007812 11.082031 16.09375 12.53125 C 15.175781 13.988281 14.175781 15.253906 13.09375 16.328125 C 12.019531 17.410156 10.78125 17.953125 9.375 17.953125 C 7.21875 17.953125 5.519531 16.875 4.28125 14.71875 C 3.039062 12.5625 2.148438 9.863281 1.609375 6.625 C 1.078125 3.394531 0.726562 0.0546875 0.5625 -3.390625 C 0.40625 -6.847656 0.328125 -9.867188 0.328125 -12.453125 Z M 0.328125 -12.453125 "/></g></g></g><g fill="#504081" fill-opacity="1"><g transform="translate(760.196599, 163.706181)"><g><path d="M 13.421875 0.640625 C 11.265625 0.640625 9.347656 -0.0546875 7.671875 -1.453125 C 6.003906 -2.859375 4.738281 -4.316406 3.875 -5.828125 C 1.9375 -9.492188 0.832031 -13.832031 0.5625 -18.84375 C 0.289062 -23.863281 0.585938 -28.421875 1.453125 -32.515625 C 1.671875 -33.703125 1.96875 -35.128906 2.34375 -36.796875 C 2.71875 -38.472656 3.28125 -39.957031 4.03125 -41.25 C 4.789062 -42.539062 5.710938 -43.1875 6.796875 -43.1875 C 9.273438 -43.1875 10.488281 -42.347656 10.4375 -40.671875 C 10.382812 -39.003906 9.925781 -36.414062 9.0625 -32.90625 C 8.195312 -29.40625 7.765625 -24.90625 7.765625 -19.40625 C 7.765625 -17.789062 7.976562 -15.847656 8.40625 -13.578125 C 8.84375 -11.316406 9.519531 -9.320312 10.4375 -7.59375 C 11.351562 -5.875 12.507812 -5.015625 13.90625 -5.015625 C 15.632812 -5.015625 17.601562 -5.769531 19.8125 -7.28125 C 22.019531 -8.789062 24.066406 -10.488281 25.953125 -12.375 C 27.847656 -14.257812 29.171875 -15.6875 29.921875 -16.65625 C 30.140625 -16.875 30.734375 -17.601562 31.703125 -18.84375 C 32.671875 -20.082031 33.828125 -21.484375 35.171875 -23.046875 C 36.523438 -24.609375 37.847656 -25.984375 39.140625 -27.171875 C 40.441406 -28.359375 41.46875 -28.953125 42.21875 -28.953125 C 42.976562 -28.953125 43.359375 -28.304688 43.359375 -27.015625 C 43.359375 -26.253906 42.84375 -25.09375 41.8125 -23.53125 C 40.789062 -21.96875 39.578125 -20.320312 38.171875 -18.59375 C 36.773438 -16.875 35.398438 -15.257812 34.046875 -13.75 C 32.703125 -12.238281 31.707031 -11.160156 31.0625 -10.515625 C 29.769531 -9.222656 28.234375 -7.6875 26.453125 -5.90625 C 24.671875 -4.125 22.703125 -2.585938 20.546875 -1.296875 C 18.390625 -0.00390625 16.015625 0.640625 13.421875 0.640625 Z M 8.25 -63.578125 C 8.25 -65.410156 8.734375 -67 9.703125 -68.34375 C 10.671875 -69.695312 11.75 -70.375 12.9375 -70.375 C 14.226562 -70.375 15.304688 -69.5625 16.171875 -67.9375 C 17.679688 -64.914062 17.867188 -62.566406 16.734375 -60.890625 C 15.609375 -59.222656 14.238281 -58.390625 12.625 -58.390625 C 11.539062 -58.390625 10.539062 -58.820312 9.625 -59.6875 C 8.707031 -60.550781 8.25 -61.847656 8.25 -63.578125 Z M 8.25 -63.578125 "/></g></g></g><g fill="#504081" fill-opacity="1"><g transform="translate(797.076465, 163.706181)"><g><path d="M 0 -22.15625 C 0 -24.101562 0.398438 -26.367188 1.203125 -28.953125 C 2.015625 -31.546875 3.148438 -34.082031 4.609375 -36.5625 C 6.066406 -39.039062 7.789062 -41.113281 9.78125 -42.78125 C 11.78125 -44.457031 13.96875 -45.296875 16.34375 -45.296875 C 19.789062 -45.296875 21.515625 -43.140625 21.515625 -38.828125 C 21.515625 -36.023438 20.8125 -34.625 19.40625 -34.625 C 17.789062 -34.625 16.820312 -36.023438 16.5 -38.828125 C 14.664062 -37.523438 12.910156 -35.3125 11.234375 -32.1875 C 9.566406 -29.0625 8.460938 -25.71875 7.921875 -22.15625 C 7.390625 -18.601562 7.769531 -15.476562 9.0625 -12.78125 C 9.601562 -11.375 10.382812 -10.1875 11.40625 -9.21875 C 12.425781 -8.25 13.910156 -7.765625 15.859375 -7.765625 C 19.628906 -7.765625 23.101562 -8.816406 26.28125 -10.921875 C 29.46875 -13.023438 32.378906 -15.554688 35.015625 -18.515625 C 37.660156 -21.484375 39.953125 -24.316406 41.890625 -27.015625 C 43.078125 -28.628906 44.15625 -29.4375 45.125 -29.4375 C 45.882812 -29.4375 46.425781 -29.054688 46.75 -28.296875 C 47.070312 -27.546875 46.960938 -26.632812 46.421875 -25.5625 C 46.210938 -25.019531 45.863281 -24.425781 45.375 -23.78125 C 44.882812 -23.132812 44.425781 -22.539062 44 -22 C 41.738281 -19.195312 39.148438 -16.285156 36.234375 -13.265625 C 33.328125 -10.242188 30.144531 -7.679688 26.6875 -5.578125 C 23.238281 -3.472656 19.570312 -2.421875 15.6875 -2.421875 C 12.019531 -2.421875 9.023438 -3.363281 6.703125 -5.25 C 4.390625 -7.144531 2.691406 -9.597656 1.609375 -12.609375 C 0.535156 -15.628906 0 -18.8125 0 -22.15625 Z M 0 -22.15625 "/></g></g></g><g fill="#504081" fill-opacity="1"><g transform="translate(836.220887, 163.706181)"><g><path d="M 4.6875 64.875 C 7.8125 64.875 10.613281 63.957031 13.09375 62.125 C 15.582031 60.289062 17.769531 58.078125 19.65625 55.484375 C 21.539062 52.898438 23.128906 50.472656 24.421875 48.203125 C 25.609375 45.941406 26.929688 42.707031 28.390625 38.5 C 29.847656 34.289062 31.222656 29.734375 32.515625 24.828125 C 33.804688 19.921875 34.910156 15.285156 35.828125 10.921875 C 36.742188 6.554688 37.3125 3.128906 37.53125 0.640625 C 36.238281 1.398438 35.050781 2.210938 33.96875 3.078125 L 18.125 17.140625 C 17.6875 17.578125 17.25 18.09375 16.8125 18.6875 C 16.382812 19.28125 15.847656 19.84375 15.203125 20.375 C 12.617188 22.96875 10.300781 25.554688 8.25 28.140625 C 6.195312 30.734375 4.148438 33.59375 2.109375 36.71875 C 1.128906 38.125 0.101562 39.90625 -0.96875 42.0625 C -2.050781 44.21875 -2.941406 46.507812 -3.640625 48.9375 C -4.335938 51.363281 -4.601562 53.757812 -4.4375 56.125 C -4.28125 58.5 -3.394531 60.550781 -1.78125 62.28125 C -0.375 64.007812 1.78125 64.875 4.6875 64.875 Z M 8.40625 -14.234375 C 10.03125 -15.097656 11.921875 -16.796875 14.078125 -19.328125 C 16.234375 -21.859375 18.492188 -24.875 20.859375 -28.375 C 23.234375 -31.882812 25.550781 -35.5 27.8125 -39.21875 C 30.082031 -42.945312 32.160156 -46.398438 34.046875 -49.578125 C 35.929688 -52.765625 37.414062 -55.328125 38.5 -57.265625 C 39.789062 -59.421875 40.675781 -60.847656 41.15625 -61.546875 C 41.644531 -62.253906 42.753906 -62.609375 44.484375 -62.609375 C 45.347656 -62.609375 45.992188 -61.984375 46.421875 -60.734375 C 46.859375 -59.492188 47.179688 -57.984375 47.390625 -56.203125 C 47.609375 -54.429688 47.71875 -52.734375 47.71875 -51.109375 C 47.71875 -49.492188 47.71875 -48.253906 47.71875 -47.390625 L 47.71875 -34.9375 C 47.71875 -32.238281 47.582031 -29.378906 47.3125 -26.359375 C 47.039062 -23.347656 46.796875 -20.546875 46.578125 -17.953125 C 46.367188 -15.367188 46.265625 -13.320312 46.265625 -11.8125 L 69.390625 -25.234375 C 69.929688 -25.554688 71.0625 -26.3125 72.78125 -27.5 C 74.507812 -28.6875 75.96875 -29.28125 77.15625 -29.28125 C 78.132812 -29.28125 78.625 -28.6875 78.625 -27.5 C 78.625 -26.75 77.734375 -25.722656 75.953125 -24.421875 C 74.171875 -23.128906 72.28125 -21.941406 70.28125 -20.859375 C 68.289062 -19.785156 66.972656 -19.035156 66.328125 -18.609375 C 62.984375 -16.773438 59.664062 -14.804688 56.375 -12.703125 C 53.082031 -10.597656 49.875 -8.46875 46.75 -6.3125 C 46 -5.769531 45.59375 -5.3125 45.53125 -4.9375 C 45.476562 -4.5625 45.34375 -3.78125 45.125 -2.59375 C 44.375 2.695312 43.296875 8.679688 41.890625 15.359375 C 40.492188 22.046875 38.769531 28.570312 36.71875 34.9375 C 34.664062 41.300781 32.296875 46.640625 29.609375 50.953125 C 28.097656 53.867188 26.070312 56.753906 23.53125 59.609375 C 21 62.460938 18.171875 64.832031 15.046875 66.71875 C 11.921875 68.613281 8.578125 69.5625 5.015625 69.5625 C 1.023438 69.5625 -2.316406 68.210938 -5.015625 65.515625 C -7.710938 62.816406 -9.0625 59.039062 -9.0625 54.1875 C -9.0625 50.632812 -8.144531 46.804688 -6.3125 42.703125 C -4.476562 38.609375 -2.023438 34.429688 1.046875 30.171875 C 4.117188 25.910156 7.4375 21.835938 11 17.953125 C 14.5625 14.066406 18.117188 10.535156 21.671875 7.359375 C 25.234375 4.179688 28.414062 1.566406 31.21875 -0.484375 C 31.757812 -1.023438 32.242188 -1.429688 32.671875 -1.703125 C 33.109375 -1.972656 33.648438 -2.320312 34.296875 -2.75 C 35.804688 -4.039062 36.910156 -4.925781 37.609375 -5.40625 C 38.304688 -5.894531 38.710938 -6.84375 38.828125 -8.25 C 39.472656 -13.75 40.0625 -18.816406 40.59375 -23.453125 C 41.132812 -28.085938 41.539062 -32.859375 41.8125 -37.765625 C 42.082031 -42.671875 42.21875 -48.203125 42.21875 -54.359375 C 41.894531 -54.140625 41.003906 -52.867188 39.546875 -50.546875 C 38.097656 -48.234375 36.457031 -45.539062 34.625 -42.46875 C 32.789062 -39.394531 31.0625 -36.535156 29.4375 -33.890625 C 27.820312 -31.242188 26.691406 -29.4375 26.046875 -28.46875 C 24.429688 -25.882812 22.460938 -22.835938 20.140625 -19.328125 C 17.816406 -15.828125 15.578125 -13.050781 13.421875 -11 C 11.378906 -9.164062 9.492188 -8.25 7.765625 -8.25 C 6.035156 -8.25 4.578125 -9.082031 3.390625 -10.75 C 2.210938 -12.425781 1.625 -14.664062 1.625 -17.46875 C 1.625 -19.195312 1.835938 -21.351562 2.265625 -23.9375 C 2.691406 -26.53125 3.335938 -29.09375 4.203125 -31.625 C 5.066406 -34.15625 6.0625 -36.285156 7.1875 -38.015625 C 8.320312 -39.742188 9.539062 -40.609375 10.84375 -40.609375 C 12.675781 -40.609375 13.59375 -39.957031 13.59375 -38.65625 C 13.59375 -37.363281 13.160156 -35.554688 12.296875 -33.234375 C 11.429688 -30.921875 10.566406 -28.144531 9.703125 -24.90625 C 8.835938 -21.675781 8.40625 -18.117188 8.40625 -14.234375 Z M 8.40625 -14.234375 "/></g></g></g><path stroke-linecap="butt" transform="matrix(0.75, 0, 0, 0.75, 922.444946, 42.374997)" fill="none" stroke-linejoin="miter" d="M 21.828616 201.375017 C 18.411949 201.375017 15.651532 200.291683 13.536949 198.125017 C 11.458823 195.95835 10.417157 193.281266 10.417157 190.083349 C 10.417157 186.807308 11.458823 184.140641 13.536949 182.088557 C 15.651532 180.031265 18.411949 179.005224 21.828616 179.005224 C 25.354658 179.005224 28.177574 180.031265 30.28695 182.088557 C 32.396325 184.140641 33.453617 186.807308 33.453617 190.083349 C 33.453617 193.281266 32.396325 195.95835 30.28695 198.125017 C 28.177574 200.291683 25.354658 201.375017 21.828616 201.375017 Z M 21.828616 201.375017 " stroke="#504081" stroke-width="4.052866" stroke-opacity="1" stroke-miterlimit="4"/><g fill="#fef74b" fill-opacity="1"><g transform="translate(922.444946, 192.374987)"><g><path d="M 16.375 1.03125 C 13.820312 1.03125 11.753906 0.21875 10.171875 -1.40625 C 8.597656 -3.03125 7.8125 -5.035156 7.8125 -7.421875 C 7.8125 -9.898438 8.597656 -11.90625 10.171875 -13.4375 C 11.753906 -14.96875 13.820312 -15.734375 16.375 -15.734375 C 19.019531 -15.734375 21.128906 -14.96875 22.703125 -13.4375 C 24.285156 -11.90625 25.078125 -9.898438 25.078125 -7.421875 C 25.078125 -5.035156 24.285156 -3.03125 22.703125 -1.40625 C 21.128906 0.21875 19.019531 1.03125 16.375 1.03125 Z M 16.375 1.03125 "/></g></g></g></svg>