<svg xmlns="http://www.w3.org/2000/svg" xmlns:xlink="http://www.w3.org/1999/xlink" width="1548" zoomAndPan="magnify" viewBox="0 0 1161 296.999993" height="396" preserveAspectRatio="xMidYMid meet" version="1.0"><defs><g/></defs><g fill="#504081" fill-opacity="1"><g transform="translate(195.024625, 163.706159)"><g><path d="M 85.25 6.796875 L 87.03125 -10.03125 C 88.320312 -20.269531 89.5625 -29.890625 90.75 -38.890625 C 91.9375 -47.898438 93.203125 -56.71875 94.546875 -65.34375 C 95.898438 -73.976562 97.460938 -82.820312 99.234375 -91.875 C 101.015625 -100.9375 103.09375 -110.695312 105.46875 -121.15625 C 103.53125 -121.15625 100.890625 -120.882812 97.546875 -120.34375 C 94.203125 -119.8125 90.503906 -119.164062 86.453125 -118.40625 C 82.410156 -117.65625 78.367188 -116.820312 74.328125 -115.90625 C 70.285156 -114.988281 66.59375 -114.148438 63.25 -113.390625 C 59.90625 -112.640625 57.316406 -112.050781 55.484375 -111.625 C 51.492188 -110.539062 47.609375 -109.484375 43.828125 -108.453125 C 40.054688 -107.429688 36.234375 -106.328125 32.359375 -105.140625 C 30.523438 -104.609375 28.148438 -103.851562 25.234375 -102.875 C 22.328125 -101.90625 19.601562 -100.828125 17.0625 -99.640625 C 14.53125 -98.460938 12.832031 -97.222656 11.96875 -95.921875 C 12.40625 -94.523438 13.210938 -93.445312 14.390625 -92.6875 C 15.578125 -91.9375 16.710938 -91.128906 17.796875 -90.265625 L 36.71875 -76.515625 C 45.457031 -69.929688 53.140625 -62.675781 59.765625 -54.75 C 66.398438 -46.832031 71.710938 -37.75 75.703125 -27.5 C 78.398438 -20.8125 80.234375 -15.472656 81.203125 -11.484375 C 82.171875 -7.492188 82.84375 -4.203125 83.21875 -1.609375 C 83.601562 0.972656 84.171875 3.503906 84.921875 5.984375 Z M 6.46875 -97.0625 C 6.46875 -98.351562 7.003906 -99.5625 8.078125 -100.6875 C 9.160156 -101.820312 10.375 -102.847656 11.71875 -103.765625 C 13.070312 -104.679688 14.179688 -105.410156 15.046875 -105.953125 L 27.015625 -110.96875 C 39.523438 -115.28125 52.273438 -118.890625 65.265625 -121.796875 C 78.265625 -124.710938 91.289062 -126.875 104.34375 -128.28125 C 106.0625 -128.5 107.109375 -128.796875 107.484375 -129.171875 C 107.867188 -129.546875 108.140625 -129.921875 108.296875 -130.296875 C 108.460938 -130.679688 108.976562 -130.875 109.84375 -130.875 C 111.351562 -130.875 112.160156 -130.765625 112.265625 -130.546875 C 112.367188 -130.328125 112.5 -130.082031 112.65625 -129.8125 C 112.820312 -129.539062 113.660156 -129.351562 115.171875 -129.25 C 115.609375 -129.25 116.039062 -129.25 116.46875 -129.25 C 116.90625 -129.25 117.335938 -129.25 117.765625 -129.25 C 119.492188 -129.25 121.378906 -129.273438 123.421875 -129.328125 C 125.472656 -129.378906 127.414062 -129.40625 129.25 -129.40625 C 129.789062 -129.40625 130.300781 -129.40625 130.78125 -129.40625 C 131.269531 -129.40625 131.726562 -129.40625 132.15625 -129.40625 C 133.238281 -129.300781 135.316406 -129.085938 138.390625 -128.765625 C 141.460938 -128.441406 145.101562 -128.007812 149.3125 -127.46875 C 153.519531 -126.925781 157.832031 -126.304688 162.25 -125.609375 C 166.675781 -124.910156 170.800781 -124.128906 174.625 -123.265625 C 178.457031 -122.398438 181.554688 -121.484375 183.921875 -120.515625 C 186.296875 -119.546875 187.484375 -118.46875 187.484375 -117.28125 C 187.484375 -115.445312 186.890625 -114.53125 185.703125 -114.53125 C 184.953125 -114.53125 184.007812 -114.691406 182.875 -115.015625 C 181.738281 -115.335938 180.3125 -115.710938 178.59375 -116.140625 C 175.351562 -116.898438 171.550781 -117.679688 167.1875 -118.484375 C 162.820312 -119.296875 158.265625 -120.023438 153.515625 -120.671875 C 148.765625 -121.316406 144.234375 -121.828125 139.921875 -122.203125 C 135.609375 -122.585938 131.941406 -122.78125 128.921875 -122.78125 C 126.117188 -122.78125 123.613281 -122.671875 121.40625 -122.453125 C 119.195312 -122.242188 116.582031 -122.140625 113.5625 -122.140625 C 113.445312 -121.804688 113.144531 -120.507812 112.65625 -118.25 C 112.175781 -115.988281 111.640625 -113.398438 111.046875 -110.484375 C 110.453125 -107.578125 109.941406 -104.910156 109.515625 -102.484375 C 109.085938 -100.054688 108.816406 -98.460938 108.703125 -97.703125 L 99.96875 -48.375 C 98.570312 -39.414062 97.359375 -30.757812 96.328125 -22.40625 C 95.304688 -14.050781 94.203125 -5.554688 93.015625 3.078125 C 92.691406 5.441406 92.445312 7.648438 92.28125 9.703125 C 92.125 11.753906 91.882812 14.019531 91.5625 16.5 L 86.21875 69.078125 C 86.113281 70.148438 86.003906 71.492188 85.890625 73.109375 C 85.785156 74.734375 85.488281 76.191406 85 77.484375 C 84.519531 78.773438 83.6875 79.421875 82.5 79.421875 C 81.851562 79.421875 81.367188 79.234375 81.046875 78.859375 C 80.722656 78.484375 80.289062 78.132812 79.75 77.8125 L 82.5 31.875 C 82.5 27.226562 82.203125 22.265625 81.609375 16.984375 C 81.015625 11.703125 80.203125 6.445312 79.171875 1.21875 C 78.148438 -4.007812 77.050781 -8.726562 75.875 -12.9375 C 74.25 -18.976562 72.359375 -24.34375 70.203125 -29.03125 C 68.046875 -33.726562 65.59375 -38.175781 62.84375 -42.375 C 60.09375 -46.582031 56.992188 -50.84375 53.546875 -55.15625 C 51.273438 -58.070312 48.519531 -60.90625 45.28125 -63.65625 C 42.050781 -66.40625 38.710938 -69.070312 35.265625 -71.65625 C 31.816406 -74.25 28.6875 -76.570312 25.875 -78.625 L 11.15625 -89.140625 C 9.96875 -89.992188 8.890625 -91.015625 7.921875 -92.203125 C 6.953125 -93.390625 6.46875 -95.007812 6.46875 -97.0625 Z M 6.46875 -97.0625 "/></g></g></g><g fill="#504081" fill-opacity="1"><g transform="translate(301.782144, 163.706159)"><g><path d="M 7.4375 -29.28125 C 9.488281 -30.351562 11.753906 -31.832031 14.234375 -33.71875 C 16.710938 -35.613281 18.0625 -37.851562 18.28125 -40.4375 C 16.875 -40.226562 15.390625 -39.472656 13.828125 -38.171875 C 12.265625 -36.878906 10.914062 -35.421875 9.78125 -33.796875 C 8.65625 -32.179688 7.875 -30.675781 7.4375 -29.28125 Z M 0.15625 -25.390625 C 0.15625 -28.085938 1.046875 -31 2.828125 -34.125 C 4.609375 -37.257812 6.816406 -39.929688 9.453125 -42.140625 C 12.097656 -44.347656 14.71875 -45.453125 17.3125 -45.453125 C 20.863281 -45.453125 22.71875 -44.101562 22.875 -41.40625 C 23.039062 -38.71875 21.882812 -35.804688 19.40625 -32.671875 C 18.113281 -31.273438 16.171875 -29.660156 13.578125 -27.828125 C 10.992188 -25.992188 8.460938 -24.96875 5.984375 -24.75 C 5.984375 -23.019531 6.035156 -21.484375 6.140625 -20.140625 C 6.253906 -18.796875 7.007812 -17.421875 8.40625 -16.015625 C 9.8125 -14.609375 11.59375 -13.90625 13.75 -13.90625 C 16.550781 -13.90625 19.460938 -14.796875 22.484375 -16.578125 C 25.503906 -18.359375 27.820312 -19.84375 29.4375 -21.03125 C 30.082031 -21.570312 30.59375 -22.003906 30.96875 -22.328125 C 31.351562 -22.648438 31.816406 -23.023438 32.359375 -23.453125 C 34.617188 -25.179688 36.046875 -26.445312 36.640625 -27.25 C 37.234375 -28.0625 37.742188 -28.601562 38.171875 -28.875 C 38.609375 -29.144531 39.632812 -29.28125 41.25 -29.28125 C 41.46875 -28.09375 41.546875 -27.28125 41.484375 -26.84375 C 41.429688 -26.414062 41.03125 -25.769531 40.28125 -24.90625 C 38.34375 -22.96875 35.890625 -20.757812 32.921875 -18.28125 C 29.953125 -15.800781 26.769531 -13.644531 23.375 -11.8125 C 19.976562 -9.976562 16.609375 -9.0625 13.265625 -9.0625 C 11.535156 -9.0625 9.890625 -9.359375 8.328125 -9.953125 C 6.765625 -10.546875 5.28125 -11.539062 3.875 -12.9375 C 1.9375 -14.882812 0.832031 -16.878906 0.5625 -18.921875 C 0.289062 -20.972656 0.15625 -23.128906 0.15625 -25.390625 Z M 0.15625 -25.390625 "/></g></g></g><g fill="#504081" fill-opacity="1"><g transform="translate(336.882728, 163.706159)"><g><path d="M 2.265625 -0.640625 C 1.179688 -0.640625 0.53125 -1.3125 0.3125 -2.65625 C 0.101562 -4.007812 0.0507812 -5.441406 0.15625 -6.953125 C 0.269531 -8.460938 0.328125 -9.378906 0.328125 -9.703125 C 0.210938 -11.648438 0.179688 -13.617188 0.234375 -15.609375 C 0.296875 -17.609375 0.269531 -19.628906 0.15625 -21.671875 C 0.15625 -22.429688 0.179688 -23.863281 0.234375 -25.96875 C 0.296875 -28.070312 0.457031 -30.304688 0.71875 -32.671875 C 0.988281 -35.046875 1.394531 -37.09375 1.9375 -38.8125 C 2.476562 -40.539062 3.179688 -41.40625 4.046875 -41.40625 C 6.203125 -41.40625 7.304688 -40.703125 7.359375 -39.296875 C 7.410156 -37.898438 7.332031 -36.070312 7.125 -33.8125 C 7.007812 -33.050781 6.953125 -32.210938 6.953125 -31.296875 C 6.953125 -30.378906 6.953125 -29.488281 6.953125 -28.625 C 6.953125 -27.550781 6.894531 -26.851562 6.78125 -26.53125 C 6.675781 -26.207031 6.625 -25.503906 6.625 -24.421875 C 7.8125 -25.285156 8.890625 -26.285156 9.859375 -27.421875 C 10.835938 -28.554688 12.566406 -29.125 15.046875 -29.125 C 15.796875 -29.125 16.789062 -29.148438 18.03125 -29.203125 C 19.269531 -29.253906 20.59375 -29.28125 22 -29.28125 C 24.375 -29.28125 26.582031 -29.144531 28.625 -28.875 C 30.675781 -28.601562 31.703125 -27.929688 31.703125 -26.859375 C 31.703125 -25.773438 31.132812 -25.070312 30 -24.75 C 28.875 -24.425781 27.5 -24.265625 25.875 -24.265625 C 24.800781 -24.265625 23.695312 -24.289062 22.5625 -24.34375 C 21.4375 -24.394531 20.441406 -24.421875 19.578125 -24.421875 C 16.554688 -24.421875 14.53125 -24.257812 13.5 -23.9375 C 12.476562 -23.613281 11.320312 -22.375 10.03125 -20.21875 C 9.269531 -18.820312 8.539062 -17.3125 7.84375 -15.6875 C 7.144531 -14.070312 6.632812 -12.296875 6.3125 -10.359375 C 5.988281 -8.953125 5.851562 -7.492188 5.90625 -5.984375 C 5.957031 -4.472656 5.796875 -3.203125 5.421875 -2.171875 C 5.046875 -1.148438 3.992188 -0.640625 2.265625 -0.640625 Z M 2.265625 -0.640625 "/></g></g></g><g fill="#504081" fill-opacity="1"><g transform="translate(363.248597, 163.706159)"><g><path d="M 8.578125 -13.109375 C 6.304688 -13.109375 4.710938 -14.238281 3.796875 -16.5 C 2.878906 -18.757812 2.472656 -21.5625 2.578125 -24.90625 C 2.691406 -28.25 3.125 -31.59375 3.875 -34.9375 C 4.632812 -38.28125 5.578125 -41.082031 6.703125 -43.34375 C 7.835938 -45.613281 9 -46.75 10.1875 -46.75 C 12.238281 -46.75 13.453125 -46.289062 13.828125 -45.375 C 14.203125 -44.457031 14.117188 -43.023438 13.578125 -41.078125 C 13.046875 -39.140625 12.425781 -36.6875 11.71875 -33.71875 C 11.019531 -30.757812 10.671875 -27.226562 10.671875 -23.125 C 10.890625 -23.34375 11.050781 -23.503906 11.15625 -23.609375 C 11.269531 -23.722656 11.378906 -23.832031 11.484375 -23.9375 L 19.09375 -36.71875 C 19.738281 -37.800781 20.625 -39.226562 21.75 -41 C 22.882812 -42.78125 24.125 -44.398438 25.46875 -45.859375 C 26.820312 -47.316406 28.144531 -48.046875 29.4375 -48.046875 C 31.914062 -48.046875 33.53125 -46.773438 34.28125 -44.234375 C 35.039062 -41.703125 35.421875 -39.144531 35.421875 -36.5625 C 36.609375 -36.769531 38.0625 -37.765625 39.78125 -39.546875 C 41.507812 -41.328125 43.078125 -42.863281 44.484375 -44.15625 C 45.242188 -45.019531 45.914062 -45.773438 46.5 -46.421875 C 47.09375 -47.066406 47.820312 -47.609375 48.6875 -48.046875 C 49.769531 -48.585938 50.742188 -48.859375 51.609375 -48.859375 C 52.679688 -48.859375 53.597656 -48.425781 54.359375 -47.5625 C 55.109375 -46.695312 55.535156 -45.101562 55.640625 -42.78125 C 55.753906 -40.46875 55.703125 -37.800781 55.484375 -34.78125 C 55.265625 -31.757812 55.019531 -28.738281 54.75 -25.71875 C 54.488281 -22.695312 54.359375 -20.054688 54.359375 -17.796875 C 54.359375 -12.835938 54.757812 -9.359375 55.5625 -7.359375 C 56.375 -5.367188 57.476562 -4.375 58.875 -4.375 C 60.5 -4.375 62.304688 -5.453125 64.296875 -7.609375 C 66.296875 -9.765625 68.289062 -12.296875 70.28125 -15.203125 C 72.28125 -18.117188 73.976562 -20.757812 75.375 -23.125 C 76.132812 -24.3125 76.863281 -25.5 77.5625 -26.6875 C 78.269531 -27.875 79.484375 -28.46875 81.203125 -28.46875 C 81.523438 -28.46875 81.875 -28.25 82.25 -27.8125 C 82.632812 -27.382812 82.828125 -26.90625 82.828125 -26.375 C 82.828125 -25.71875 82.5 -24.796875 81.84375 -23.609375 C 81.195312 -22.429688 80.523438 -21.273438 79.828125 -20.140625 C 79.128906 -19.003906 78.5625 -18.113281 78.125 -17.46875 C 77.695312 -16.71875 77.320312 -16.070312 77 -15.53125 C 76.675781 -14.988281 76.242188 -14.285156 75.703125 -13.421875 C 75.273438 -12.773438 74.84375 -12.207031 74.40625 -11.71875 C 73.976562 -11.238281 73.492188 -10.566406 72.953125 -9.703125 C 70.898438 -6.679688 68.445312 -4.035156 65.59375 -1.765625 C 62.738281 0.492188 59.960938 1.625 57.265625 1.625 C 55.753906 1.625 54.296875 1.132812 52.890625 0.15625 C 51.492188 -0.8125 50.363281 -2.484375 49.5 -4.859375 C 47.988281 -8.847656 47.257812 -13.050781 47.3125 -17.46875 C 47.363281 -21.894531 47.710938 -26.207031 48.359375 -30.40625 C 49.015625 -34.613281 49.34375 -38.28125 49.34375 -41.40625 C 48.257812 -40.65625 46.9375 -39.414062 45.375 -37.6875 C 43.8125 -35.96875 42.21875 -34.378906 40.59375 -32.921875 C 38.976562 -31.460938 37.414062 -30.734375 35.90625 -30.734375 C 33.425781 -30.734375 31.726562 -31.921875 30.8125 -34.296875 C 29.894531 -36.671875 29.4375 -39.039062 29.4375 -41.40625 C 27.601562 -40.21875 25.847656 -38.113281 24.171875 -35.09375 C 22.503906 -32.082031 20.832031 -28.90625 19.15625 -25.5625 C 17.488281 -22.21875 15.816406 -19.332031 14.140625 -16.90625 C 12.472656 -14.476562 10.722656 -13.210938 8.890625 -13.109375 Z M 8.578125 -13.109375 "/></g></g></g><g fill="#504081" fill-opacity="1"><g transform="translate(438.787632, 163.706159)"><g><path d="M 1.9375 26.6875 C 1.9375 28.957031 2.640625 30.09375 4.046875 30.09375 C 4.796875 30.09375 5.601562 29.820312 6.46875 29.28125 C 7.332031 28.738281 8.035156 28.253906 8.578125 27.828125 C 10.734375 26.203125 12.644531 23.742188 14.3125 20.453125 C 15.988281 17.171875 17.203125 14.179688 17.953125 11.484375 C 18.492188 9.648438 18.789062 7.789062 18.84375 5.90625 C 18.894531 4.019531 18.921875 1.941406 18.921875 -0.328125 C 17.628906 0.429688 16.144531 1.753906 14.46875 3.640625 C 12.800781 5.523438 11.484375 7.0625 10.515625 8.25 C 8.578125 10.625 6.660156 13.484375 4.765625 16.828125 C 2.878906 20.171875 1.9375 23.457031 1.9375 26.6875 Z M 0.484375 -26.203125 C 0.484375 -29.003906 1.238281 -31.507812 2.75 -33.71875 C 4.257812 -35.9375 6.066406 -37.71875 8.171875 -39.0625 C 10.273438 -40.414062 12.082031 -41.09375 13.59375 -41.09375 C 14.78125 -41.09375 15.664062 -40.660156 16.25 -39.796875 C 16.84375 -38.929688 16.875 -37.472656 16.34375 -35.421875 C 15.039062 -35.097656 14.117188 -34.910156 13.578125 -34.859375 C 13.046875 -34.804688 12.617188 -34.644531 12.296875 -34.375 C 11.972656 -34.101562 11.378906 -33.484375 10.515625 -32.515625 C 8.359375 -30.140625 7.359375 -28.222656 7.515625 -26.765625 C 7.679688 -25.316406 8.546875 -23.972656 10.109375 -22.734375 C 11.671875 -21.492188 13.609375 -19.957031 15.921875 -18.125 C 18.242188 -16.289062 20.429688 -13.804688 22.484375 -10.671875 C 24.859375 -12.296875 27.285156 -14.1875 29.765625 -16.34375 L 44.8125 -26.859375 C 46.207031 -27.828125 47.414062 -28.5 48.4375 -28.875 C 49.46875 -29.25 50.363281 -29.4375 51.125 -29.4375 C 52.414062 -29.4375 52.953125 -28.894531 52.734375 -27.8125 C 52.515625 -26.738281 51.488281 -25.664062 49.65625 -24.59375 L 38.65625 -16.984375 C 38.226562 -16.765625 37.3125 -16.144531 35.90625 -15.125 C 34.507812 -14.101562 32.972656 -12.972656 31.296875 -11.734375 C 29.628906 -10.492188 28.203125 -9.332031 27.015625 -8.25 C 25.828125 -7.164062 25.179688 -6.460938 25.078125 -6.140625 C 24.960938 -5.609375 25.117188 -4.585938 25.546875 -3.078125 C 25.984375 -1.566406 26.28125 0.398438 26.4375 2.828125 C 26.601562 5.253906 26.28125 8.21875 25.46875 11.71875 C 24.664062 15.226562 22.914062 19.300781 20.21875 23.9375 C 17.84375 27.925781 15.253906 30.863281 12.453125 32.75 C 9.648438 34.644531 7.007812 35.59375 4.53125 35.59375 C 2.257812 35.59375 0.398438 34.835938 -1.046875 33.328125 C -2.503906 31.816406 -3.234375 29.601562 -3.234375 26.6875 C -3.234375 23.019531 -2.34375 19.460938 -0.5625 16.015625 C 1.21875 12.566406 3.347656 9.382812 5.828125 6.46875 C 8.304688 3.5625 10.597656 1.054688 12.703125 -1.046875 C 14.804688 -3.148438 16.179688 -4.6875 16.828125 -5.65625 C 15.523438 -7.925781 13.957031 -9.894531 12.125 -11.5625 C 10.289062 -13.238281 8.484375 -14.773438 6.703125 -16.171875 C 4.929688 -17.578125 3.453125 -19.0625 2.265625 -20.625 C 1.078125 -22.1875 0.484375 -24.046875 0.484375 -26.203125 Z M 0.484375 -26.203125 "/></g></g></g><g fill="#504081" fill-opacity="1"><g transform="translate(485.534478, 163.706159)"><g/></g></g><g fill="#504081" fill-opacity="1"><g transform="translate(527.428732, 163.706159)"><g><path d="M 8.09375 -3.71875 C 9.707031 -4.15625 11.160156 -5.582031 12.453125 -8 C 13.742188 -10.425781 14.660156 -13.203125 15.203125 -16.328125 C 15.742188 -19.460938 15.878906 -22.347656 15.609375 -24.984375 C 15.335938 -27.628906 14.503906 -29.4375 13.109375 -30.40625 C 12.785156 -29.21875 12.191406 -27.519531 11.328125 -25.3125 C 10.460938 -23.101562 9.625 -20.675781 8.8125 -18.03125 C 8.007812 -15.394531 7.472656 -12.804688 7.203125 -10.265625 C 6.929688 -7.734375 7.226562 -5.550781 8.09375 -3.71875 Z M 0 -9.21875 C 0 -10.625 0.296875 -12.703125 0.890625 -15.453125 C 1.484375 -18.203125 2.316406 -21.164062 3.390625 -24.34375 C 4.472656 -27.53125 5.6875 -30.550781 7.03125 -33.40625 C 8.382812 -36.257812 9.84375 -38.601562 11.40625 -40.4375 C 12.96875 -42.269531 14.554688 -43.1875 16.171875 -43.1875 C 17.253906 -43.1875 18.007812 -42.703125 18.4375 -41.734375 C 18.875 -40.765625 18.984375 -39.957031 18.765625 -39.3125 C 18.546875 -38.769531 18.140625 -38.226562 17.546875 -37.6875 C 16.953125 -37.144531 16.441406 -36.550781 16.015625 -35.90625 C 16.234375 -35.15625 16.769531 -34.320312 17.625 -33.40625 C 18.488281 -32.488281 19.351562 -31.273438 20.21875 -29.765625 C 21.082031 -28.253906 21.648438 -26.203125 21.921875 -23.609375 C 22.191406 -21.023438 21.894531 -17.628906 21.03125 -13.421875 C 19.84375 -7.816406 17.953125 -3.613281 15.359375 -0.8125 C 12.773438 1.988281 10.242188 3.390625 7.765625 3.390625 C 5.710938 3.390625 3.90625 2.335938 2.34375 0.234375 C 0.78125 -1.859375 0 -5.007812 0 -9.21875 Z M 0 -9.21875 "/></g></g></g><g fill="#504081" fill-opacity="1"><g transform="translate(555.897419, 163.706159)"><g><path d="M 5.015625 25.234375 C 5.015625 26.421875 5.09375 28.253906 5.25 30.734375 C 5.414062 33.210938 5.738281 35.828125 6.21875 38.578125 C 6.707031 41.328125 7.410156 43.726562 8.328125 45.78125 C 9.242188 47.832031 10.40625 49.019531 11.8125 49.34375 C 13 48.582031 14.15625 47.039062 15.28125 44.71875 C 16.414062 42.40625 17.382812 39.898438 18.1875 37.203125 C 19 34.503906 19.40625 32.1875 19.40625 30.25 L 19.40625 24.109375 C 19.40625 21.617188 18.648438 19.160156 17.140625 16.734375 C 15.628906 14.316406 13.769531 12.242188 11.5625 10.515625 C 9.351562 8.785156 7.171875 7.921875 5.015625 7.921875 Z M -20.875 8.578125 C -20.875 7.171875 -19.925781 6.007812 -18.03125 5.09375 C -16.144531 4.175781 -14.015625 3.445312 -11.640625 2.90625 C -9.273438 2.375 -7.5 2.050781 -6.3125 1.9375 C -4.582031 1.726562 -3.53125 1.59375 -3.15625 1.53125 C -2.78125 1.476562 -2.535156 0.535156 -2.421875 -1.296875 C -2.316406 -3.878906 -1.910156 -7.140625 -1.203125 -11.078125 C -0.503906 -15.015625 0.378906 -19.21875 1.453125 -23.6875 C 2.535156 -28.164062 3.695312 -32.585938 4.9375 -36.953125 C 6.175781 -41.328125 7.46875 -45.265625 8.8125 -48.765625 C 10.164062 -52.273438 11.488281 -54.894531 12.78125 -56.625 C 14.175781 -58.34375 15.628906 -59.203125 17.140625 -59.203125 C 17.898438 -59.203125 18.546875 -58.90625 19.078125 -58.3125 C 19.617188 -57.71875 19.890625 -56.722656 19.890625 -55.328125 C 19.890625 -53.378906 19.78125 -52.21875 19.5625 -51.84375 C 19.351562 -51.46875 19.03125 -51.222656 18.59375 -51.109375 C 18.164062 -51.003906 17.628906 -50.492188 16.984375 -49.578125 C 16.335938 -48.660156 15.582031 -46.640625 14.71875 -43.515625 C 13.644531 -39.742188 12.78125 -36.695312 12.125 -34.375 C 11.476562 -32.050781 10.859375 -29.703125 10.265625 -27.328125 C 9.671875 -24.960938 8.945312 -21.675781 8.09375 -17.46875 C 7.769531 -15.738281 7.414062 -13.472656 7.03125 -10.671875 C 6.65625 -7.867188 6.359375 -5.5 6.140625 -3.5625 C 6.796875 -3.769531 7.929688 -4.414062 9.546875 -5.5 C 11.160156 -6.582031 12.910156 -7.847656 14.796875 -9.296875 C 16.679688 -10.753906 18.488281 -12.15625 20.21875 -13.5 C 21.945312 -14.851562 23.242188 -15.90625 24.109375 -16.65625 L 35.90625 -27.828125 C 36.664062 -28.359375 37.421875 -28.625 38.171875 -28.625 C 39.359375 -28.625 39.953125 -27.976562 39.953125 -26.6875 C 39.953125 -25.613281 39.171875 -24.238281 37.609375 -22.5625 C 36.046875 -20.894531 34.347656 -19.25 32.515625 -17.625 C 30.679688 -16.007812 29.332031 -14.828125 28.46875 -14.078125 L 6.625 2.90625 C 12.882812 4.3125 17.441406 7.25 20.296875 11.71875 C 23.160156 16.195312 24.59375 21.375 24.59375 27.25 C 24.59375 33.132812 23.457031 39.039062 21.1875 44.96875 C 20.4375 47.238281 19.222656 49.582031 17.546875 52 C 15.878906 54.425781 13.585938 55.640625 10.671875 55.640625 C 8.191406 55.640625 6.144531 54.453125 4.53125 52.078125 C 2.914062 49.710938 1.59375 46.722656 0.5625 43.109375 C -0.457031 39.492188 -1.238281 35.769531 -1.78125 31.9375 C -2.320312 28.113281 -2.722656 24.609375 -2.984375 21.421875 C -3.253906 18.242188 -3.445312 16.007812 -3.5625 14.71875 C -3.664062 13.75 -3.609375 12.722656 -3.390625 11.640625 C -3.179688 10.566406 -3.078125 9.328125 -3.078125 7.921875 C -4.910156 8.359375 -6.984375 9.222656 -9.296875 10.515625 C -11.617188 11.804688 -14.34375 12.453125 -17.46875 12.453125 C -19.40625 12.453125 -20.457031 12.070312 -20.625 11.3125 C -20.789062 10.5625 -20.875 9.648438 -20.875 8.578125 Z M -20.875 8.578125 "/></g></g></g><g fill="#504081" fill-opacity="1"><g transform="translate(587.924669, 163.706159)"><g/></g></g><g fill="#504081" fill-opacity="1"><g transform="translate(629.818923, 163.706159)"><g><path d="M 44.328125 74.734375 C 46.804688 74.734375 49.582031 73.894531 52.65625 72.21875 C 55.726562 70.550781 58.640625 68.582031 61.390625 66.3125 C 64.140625 64.050781 66.21875 61.953125 67.625 60.015625 C 68.476562 58.929688 69.226562 57.984375 69.875 57.171875 C 70.53125 56.367188 71.234375 55.429688 71.984375 54.359375 C 72.523438 53.273438 73.117188 52.273438 73.765625 51.359375 C 74.410156 50.441406 74.945312 49.445312 75.375 48.375 C 77.101562 45.03125 78.238281 42.113281 78.78125 39.625 C 79.320312 37.144531 79.5625 34.691406 79.5 32.265625 C 79.445312 29.835938 79.257812 27.117188 78.9375 24.109375 C 78.1875 24.316406 77.59375 24.609375 77.15625 24.984375 C 76.726562 25.367188 76.132812 25.832031 75.375 26.375 C 74.945312 26.800781 74.488281 27.175781 74 27.5 C 73.519531 27.820312 73.007812 28.195312 72.46875 28.625 L 63.734375 36.390625 C 60.828125 39.085938 58.457031 41.269531 56.625 42.9375 C 54.789062 44.613281 53.035156 46.367188 51.359375 48.203125 C 49.691406 50.035156 47.613281 52.625 45.125 55.96875 C 44.375 56.9375 43.429688 58.285156 42.296875 60.015625 C 41.171875 61.742188 40.175781 63.578125 39.3125 65.515625 C 38.445312 67.453125 38.015625 69.175781 38.015625 70.6875 C 38.015625 72.632812 38.414062 73.796875 39.21875 74.171875 C 40.03125 74.546875 41.410156 74.734375 43.359375 74.734375 C 43.566406 74.734375 43.75 74.734375 43.90625 74.734375 C 44.070312 74.734375 44.210938 74.734375 44.328125 74.734375 Z M 0 -19.25 C 0 -25.070312 0.992188 -31.164062 2.984375 -37.53125 C 4.984375 -43.894531 7.519531 -50.148438 10.59375 -56.296875 C 13.664062 -62.441406 16.765625 -67.941406 19.890625 -72.796875 C 21.296875 -75.378906 23.101562 -78.15625 25.3125 -81.125 C 27.519531 -84.09375 29.835938 -87.03125 32.265625 -89.9375 C 34.691406 -92.851562 36.929688 -95.390625 38.984375 -97.546875 C 42.648438 -101.109375 46.367188 -104.367188 50.140625 -107.328125 C 53.921875 -110.296875 57.992188 -112.695312 62.359375 -114.53125 C 66.722656 -116.363281 71.550781 -117.28125 76.84375 -117.28125 C 82.019531 -116.957031 86.25 -114.988281 89.53125 -111.375 C 92.820312 -107.757812 95.273438 -103.3125 96.890625 -98.03125 C 98.515625 -92.75 99.328125 -87.300781 99.328125 -81.6875 C 99.328125 -75.320312 98.675781 -68.847656 97.375 -62.265625 C 96.082031 -55.691406 94.679688 -49.550781 93.171875 -43.84375 C 92.640625 -41.363281 92.078125 -39.175781 91.484375 -37.28125 C 90.890625 -35.394531 89.675781 -34.453125 87.84375 -34.453125 C 86.539062 -34.453125 85.835938 -35.421875 85.734375 -37.359375 C 85.628906 -39.304688 85.816406 -41.65625 86.296875 -44.40625 C 86.785156 -47.15625 87.328125 -49.710938 87.921875 -52.078125 C 88.515625 -54.453125 88.921875 -56.019531 89.140625 -56.78125 C 89.890625 -61.414062 90.5625 -66.398438 91.15625 -71.734375 C 91.75 -77.078125 91.828125 -82.390625 91.390625 -87.671875 C 90.960938 -92.960938 89.617188 -97.765625 87.359375 -102.078125 C 85.734375 -105.203125 83.785156 -107.382812 81.515625 -108.625 C 79.253906 -109.863281 76.832031 -110.484375 74.25 -110.484375 C 71.988281 -110.484375 69.695312 -110.078125 67.375 -109.265625 C 65.050781 -108.460938 62.8125 -107.46875 60.65625 -106.28125 C 59.144531 -105.3125 57.445312 -104.207031 55.5625 -102.96875 C 53.675781 -101.726562 52.085938 -100.457031 50.796875 -99.15625 C 50.035156 -98.40625 49.304688 -97.785156 48.609375 -97.296875 C 47.910156 -96.816406 47.179688 -96.144531 46.421875 -95.28125 L 27.34375 -72.46875 C 25.1875 -69.125 23.484375 -66.347656 22.234375 -64.140625 C 20.992188 -61.929688 19.625 -59.425781 18.125 -56.625 C 16.613281 -54.25 15.046875 -51.195312 13.421875 -47.46875 C 11.804688 -43.75 10.40625 -39.972656 9.21875 -36.140625 C 8.03125 -32.316406 7.164062 -29.0625 6.625 -26.375 C 6.300781 -23.882812 6.085938 -21.453125 5.984375 -19.078125 C 5.878906 -16.710938 6.203125 -14.34375 6.953125 -11.96875 C 8.035156 -9.269531 10.03125 -7.351562 12.9375 -6.21875 C 15.851562 -5.09375 19.085938 -4.421875 22.640625 -4.203125 C 26.203125 -3.984375 29.441406 -3.820312 32.359375 -3.71875 C 36.234375 -3.5 39.734375 -3.363281 42.859375 -3.3125 C 45.992188 -3.257812 49.125 -3.070312 52.25 -2.75 C 55.375 -2.425781 58.828125 -1.617188 62.609375 -0.328125 C 64.765625 0.316406 67.160156 1.394531 69.796875 2.90625 C 72.441406 4.414062 74.84375 6.195312 77 8.25 C 79.15625 10.300781 80.503906 12.457031 81.046875 14.71875 C 83.421875 13.101562 86.171875 11.023438 89.296875 8.484375 C 92.421875 5.953125 95.570312 3.335938 98.75 0.640625 C 101.9375 -2.046875 104.71875 -4.363281 107.09375 -6.3125 L 119.546875 -17.3125 C 120.617188 -18.382812 121.640625 -19.296875 122.609375 -20.046875 C 123.585938 -20.804688 124.613281 -21.726562 125.6875 -22.8125 C 127.519531 -24.75 128.894531 -26.039062 129.8125 -26.6875 C 130.726562 -27.332031 131.507812 -27.65625 132.15625 -27.65625 C 132.59375 -27.65625 132.972656 -27.601562 133.296875 -27.5 C 133.617188 -27.394531 133.992188 -27.285156 134.421875 -27.171875 C 134.421875 -26.097656 134.53125 -25.453125 134.75 -25.234375 C 134.96875 -25.015625 135.046875 -24.820312 134.984375 -24.65625 C 134.929688 -24.5 134.554688 -24.125 133.859375 -23.53125 C 133.160156 -22.9375 131.894531 -21.722656 130.0625 -19.890625 C 126.5 -16.441406 123.234375 -13.421875 120.265625 -10.828125 C 117.304688 -8.242188 114.15625 -5.335938 110.8125 -2.109375 L 100.453125 6.3125 C 99.585938 6.957031 98.316406 7.953125 96.640625 9.296875 C 94.972656 10.648438 93.195312 12.082031 91.3125 13.59375 C 89.425781 15.101562 87.753906 16.476562 86.296875 17.71875 C 84.847656 18.957031 83.957031 19.84375 83.625 20.375 C 84.0625 22.101562 84.441406 23.859375 84.765625 25.640625 C 85.085938 27.421875 85.25 29.332031 85.25 31.375 C 85.25 37.09375 83.925781 42.8125 81.28125 48.53125 C 78.644531 54.25 75.25 59.503906 71.09375 64.296875 C 66.945312 69.097656 62.550781 72.925781 57.90625 75.78125 C 53.269531 78.644531 48.957031 80.078125 44.96875 80.078125 C 43.457031 80.078125 41.757812 79.914062 39.875 79.59375 C 37.988281 79.269531 36.34375 78.59375 34.9375 77.5625 C 33.539062 76.539062 32.84375 74.894531 32.84375 72.625 C 32.84375 68.632812 33.515625 65.179688 34.859375 62.265625 C 36.203125 59.359375 38.0625 56.289062 40.4375 53.0625 C 44 48.101562 47.71875 43.789062 51.59375 40.125 C 55.476562 36.457031 59.578125 32.734375 63.890625 28.953125 L 76.84375 18.28125 C 73.925781 12.78125 70.253906 8.976562 65.828125 6.875 C 61.410156 4.769531 56.019531 3.34375 49.65625 2.59375 L 36.5625 1.625 C 31.488281 1.507812 26.769531 1.394531 22.40625 1.28125 C 18.039062 1.175781 14.023438 0.425781 10.359375 -0.96875 C 6.898438 -2.257812 4.304688 -4.46875 2.578125 -7.59375 C 0.859375 -10.726562 0 -14.613281 0 -19.25 Z M 0 -19.25 "/></g></g></g><g fill="#504081" fill-opacity="1"><g transform="translate(758.57497, 163.706159)"><g><path d="M 7.4375 -29.28125 C 9.488281 -30.351562 11.753906 -31.832031 14.234375 -33.71875 C 16.710938 -35.613281 18.0625 -37.851562 18.28125 -40.4375 C 16.875 -40.226562 15.390625 -39.472656 13.828125 -38.171875 C 12.265625 -36.878906 10.914062 -35.421875 9.78125 -33.796875 C 8.65625 -32.179688 7.875 -30.675781 7.4375 -29.28125 Z M 0.15625 -25.390625 C 0.15625 -28.085938 1.046875 -31 2.828125 -34.125 C 4.609375 -37.257812 6.816406 -39.929688 9.453125 -42.140625 C 12.097656 -44.347656 14.71875 -45.453125 17.3125 -45.453125 C 20.863281 -45.453125 22.71875 -44.101562 22.875 -41.40625 C 23.039062 -38.71875 21.882812 -35.804688 19.40625 -32.671875 C 18.113281 -31.273438 16.171875 -29.660156 13.578125 -27.828125 C 10.992188 -25.992188 8.460938 -24.96875 5.984375 -24.75 C 5.984375 -23.019531 6.035156 -21.484375 6.140625 -20.140625 C 6.253906 -18.796875 7.007812 -17.421875 8.40625 -16.015625 C 9.8125 -14.609375 11.59375 -13.90625 13.75 -13.90625 C 16.550781 -13.90625 19.460938 -14.796875 22.484375 -16.578125 C 25.503906 -18.359375 27.820312 -19.84375 29.4375 -21.03125 C 30.082031 -21.570312 30.59375 -22.003906 30.96875 -22.328125 C 31.351562 -22.648438 31.816406 -23.023438 32.359375 -23.453125 C 34.617188 -25.179688 36.046875 -26.445312 36.640625 -27.25 C 37.234375 -28.0625 37.742188 -28.601562 38.171875 -28.875 C 38.609375 -29.144531 39.632812 -29.28125 41.25 -29.28125 C 41.46875 -28.09375 41.546875 -27.28125 41.484375 -26.84375 C 41.429688 -26.414062 41.03125 -25.769531 40.28125 -24.90625 C 38.34375 -22.96875 35.890625 -20.757812 32.921875 -18.28125 C 29.953125 -15.800781 26.769531 -13.644531 23.375 -11.8125 C 19.976562 -9.976562 16.609375 -9.0625 13.265625 -9.0625 C 11.535156 -9.0625 9.890625 -9.359375 8.328125 -9.953125 C 6.765625 -10.546875 5.28125 -11.539062 3.875 -12.9375 C 1.9375 -14.882812 0.832031 -16.878906 0.5625 -18.921875 C 0.289062 -20.972656 0.15625 -23.128906 0.15625 -25.390625 Z M 0.15625 -25.390625 "/></g></g></g><g fill="#504081" fill-opacity="1"><g transform="translate(793.675553, 163.706159)"><g><path d="M 2.265625 -0.640625 C 1.179688 -0.640625 0.53125 -1.3125 0.3125 -2.65625 C 0.101562 -4.007812 0.0507812 -5.441406 0.15625 -6.953125 C 0.269531 -8.460938 0.328125 -9.378906 0.328125 -9.703125 C 0.210938 -11.648438 0.179688 -13.617188 0.234375 -15.609375 C 0.296875 -17.609375 0.269531 -19.628906 0.15625 -21.671875 C 0.15625 -22.429688 0.179688 -23.863281 0.234375 -25.96875 C 0.296875 -28.070312 0.457031 -30.304688 0.71875 -32.671875 C 0.988281 -35.046875 1.394531 -37.09375 1.9375 -38.8125 C 2.476562 -40.539062 3.179688 -41.40625 4.046875 -41.40625 C 6.203125 -41.40625 7.304688 -40.703125 7.359375 -39.296875 C 7.410156 -37.898438 7.332031 -36.070312 7.125 -33.8125 C 7.007812 -33.050781 6.953125 -32.210938 6.953125 -31.296875 C 6.953125 -30.378906 6.953125 -29.488281 6.953125 -28.625 C 6.953125 -27.550781 6.894531 -26.851562 6.78125 -26.53125 C 6.675781 -26.207031 6.625 -25.503906 6.625 -24.421875 C 7.8125 -25.285156 8.890625 -26.285156 9.859375 -27.421875 C 10.835938 -28.554688 12.566406 -29.125 15.046875 -29.125 C 15.796875 -29.125 16.789062 -29.148438 18.03125 -29.203125 C 19.269531 -29.253906 20.59375 -29.28125 22 -29.28125 C 24.375 -29.28125 26.582031 -29.144531 28.625 -28.875 C 30.675781 -28.601562 31.703125 -27.929688 31.703125 -26.859375 C 31.703125 -25.773438 31.132812 -25.070312 30 -24.75 C 28.875 -24.425781 27.5 -24.265625 25.875 -24.265625 C 24.800781 -24.265625 23.695312 -24.289062 22.5625 -24.34375 C 21.4375 -24.394531 20.441406 -24.421875 19.578125 -24.421875 C 16.554688 -24.421875 14.53125 -24.257812 13.5 -23.9375 C 12.476562 -23.613281 11.320312 -22.375 10.03125 -20.21875 C 9.269531 -18.820312 8.539062 -17.3125 7.84375 -15.6875 C 7.144531 -14.070312 6.632812 -12.296875 6.3125 -10.359375 C 5.988281 -8.953125 5.851562 -7.492188 5.90625 -5.984375 C 5.957031 -4.472656 5.796875 -3.203125 5.421875 -2.171875 C 5.046875 -1.148438 3.992188 -0.640625 2.265625 -0.640625 Z M 2.265625 -0.640625 "/></g></g></g><g fill="#504081" fill-opacity="1"><g transform="translate(820.041411, 163.706159)"><g><path d="M 0.15625 -17.625 C 0.15625 -19.25 0.34375 -21.539062 0.71875 -24.5 C 1.101562 -27.46875 1.644531 -30.488281 2.34375 -33.5625 C 3.039062 -36.632812 3.875 -39.25 4.84375 -41.40625 C 5.820312 -43.5625 6.90625 -44.640625 8.09375 -44.640625 C 8.84375 -44.640625 9.328125 -44.585938 9.546875 -44.484375 C 9.765625 -44.378906 10.140625 -44.269531 10.671875 -44.15625 C 11.535156 -42.320312 11.617188 -40.003906 10.921875 -37.203125 C 10.222656 -34.398438 9.601562 -31.328125 9.0625 -27.984375 C 8.300781 -23.242188 7.675781 -19.039062 7.1875 -15.375 C 6.707031 -11.707031 7.007812 -7.550781 8.09375 -2.90625 C 9.707031 -3.34375 11.375 -4.691406 13.09375 -6.953125 C 14.820312 -9.222656 16.519531 -11.894531 18.1875 -14.96875 C 19.863281 -18.039062 21.320312 -20.953125 22.5625 -23.703125 C 23.800781 -26.453125 24.742188 -28.523438 25.390625 -29.921875 C 25.929688 -31.003906 26.472656 -32.242188 27.015625 -33.640625 C 27.554688 -35.046875 28.203125 -36.3125 28.953125 -37.4375 C 29.710938 -38.570312 30.578125 -39.140625 31.546875 -39.140625 C 32.617188 -39.140625 33.15625 -38.570312 33.15625 -37.4375 C 33.15625 -36.3125 32.859375 -34.9375 32.265625 -33.3125 C 31.671875 -31.695312 31.023438 -30.082031 30.328125 -28.46875 C 29.628906 -26.851562 29.0625 -25.613281 28.625 -24.75 C 27.976562 -23.457031 26.953125 -21.300781 25.546875 -18.28125 C 24.148438 -15.257812 22.507812 -12.078125 20.625 -8.734375 C 18.738281 -5.390625 16.6875 -2.554688 14.46875 -0.234375 C 12.257812 2.078125 10.078125 3.234375 7.921875 3.234375 C 6.410156 3.234375 4.957031 2.53125 3.5625 1.125 C 2.15625 -0.269531 1.234375 -2.070312 0.796875 -4.28125 C 0.367188 -6.5 0.15625 -8.816406 0.15625 -11.234375 C 0.15625 -13.660156 0.15625 -15.789062 0.15625 -17.625 Z M 0.15625 -17.625 "/></g></g></g><g fill="#504081" fill-opacity="1"><g transform="translate(854.818494, 163.706159)"><g><path d="M 13.421875 0.640625 C 11.265625 0.640625 9.347656 -0.0546875 7.671875 -1.453125 C 6.003906 -2.859375 4.738281 -4.316406 3.875 -5.828125 C 1.9375 -9.492188 0.832031 -13.832031 0.5625 -18.84375 C 0.289062 -23.863281 0.585938 -28.421875 1.453125 -32.515625 C 1.671875 -33.703125 1.96875 -35.128906 2.34375 -36.796875 C 2.71875 -38.472656 3.28125 -39.957031 4.03125 -41.25 C 4.789062 -42.539062 5.710938 -43.1875 6.796875 -43.1875 C 9.273438 -43.1875 10.488281 -42.347656 10.4375 -40.671875 C 10.382812 -39.003906 9.925781 -36.414062 9.0625 -32.90625 C 8.195312 -29.40625 7.765625 -24.90625 7.765625 -19.40625 C 7.765625 -17.789062 7.976562 -15.847656 8.40625 -13.578125 C 8.84375 -11.316406 9.519531 -9.320312 10.4375 -7.59375 C 11.351562 -5.875 12.507812 -5.015625 13.90625 -5.015625 C 15.632812 -5.015625 17.601562 -5.769531 19.8125 -7.28125 C 22.019531 -8.789062 24.066406 -10.488281 25.953125 -12.375 C 27.847656 -14.257812 29.171875 -15.6875 29.921875 -16.65625 C 30.140625 -16.875 30.734375 -17.601562 31.703125 -18.84375 C 32.671875 -20.082031 33.828125 -21.484375 35.171875 -23.046875 C 36.523438 -24.609375 37.847656 -25.984375 39.140625 -27.171875 C 40.441406 -28.359375 41.46875 -28.953125 42.21875 -28.953125 C 42.976562 -28.953125 43.359375 -28.304688 43.359375 -27.015625 C 43.359375 -26.253906 42.84375 -25.09375 41.8125 -23.53125 C 40.789062 -21.96875 39.578125 -20.320312 38.171875 -18.59375 C 36.773438 -16.875 35.398438 -15.257812 34.046875 -13.75 C 32.703125 -12.238281 31.707031 -11.160156 31.0625 -10.515625 C 29.769531 -9.222656 28.234375 -7.6875 26.453125 -5.90625 C 24.671875 -4.125 22.703125 -2.585938 20.546875 -1.296875 C 18.390625 -0.00390625 16.015625 0.640625 13.421875 0.640625 Z M 8.25 -63.578125 C 8.25 -65.410156 8.734375 -67 9.703125 -68.34375 C 10.671875 -69.695312 11.75 -70.375 12.9375 -70.375 C 14.226562 -70.375 15.304688 -69.5625 16.171875 -67.9375 C 17.679688 -64.914062 17.867188 -62.566406 16.734375 -60.890625 C 15.609375 -59.222656 14.238281 -58.390625 12.625 -58.390625 C 11.539062 -58.390625 10.539062 -58.820312 9.625 -59.6875 C 8.707031 -60.550781 8.25 -61.847656 8.25 -63.578125 Z M 8.25 -63.578125 "/></g></g></g><g fill="#504081" fill-opacity="1"><g transform="translate(891.698359, 163.706159)"><g><path d="M 0 -22.15625 C 0 -24.101562 0.398438 -26.367188 1.203125 -28.953125 C 2.015625 -31.546875 3.148438 -34.082031 4.609375 -36.5625 C 6.066406 -39.039062 7.789062 -41.113281 9.78125 -42.78125 C 11.78125 -44.457031 13.96875 -45.296875 16.34375 -45.296875 C 19.789062 -45.296875 21.515625 -43.140625 21.515625 -38.828125 C 21.515625 -36.023438 20.8125 -34.625 19.40625 -34.625 C 17.789062 -34.625 16.820312 -36.023438 16.5 -38.828125 C 14.664062 -37.523438 12.910156 -35.3125 11.234375 -32.1875 C 9.566406 -29.0625 8.460938 -25.71875 7.921875 -22.15625 C 7.390625 -18.601562 7.769531 -15.476562 9.0625 -12.78125 C 9.601562 -11.375 10.382812 -10.1875 11.40625 -9.21875 C 12.425781 -8.25 13.910156 -7.765625 15.859375 -7.765625 C 19.628906 -7.765625 23.101562 -8.816406 26.28125 -10.921875 C 29.46875 -13.023438 32.378906 -15.554688 35.015625 -18.515625 C 37.660156 -21.484375 39.953125 -24.316406 41.890625 -27.015625 C 43.078125 -28.628906 44.15625 -29.4375 45.125 -29.4375 C 45.882812 -29.4375 46.425781 -29.054688 46.75 -28.296875 C 47.070312 -27.546875 46.960938 -26.632812 46.421875 -25.5625 C 46.210938 -25.019531 45.863281 -24.425781 45.375 -23.78125 C 44.882812 -23.132812 44.425781 -22.539062 44 -22 C 41.738281 -19.195312 39.148438 -16.285156 36.234375 -13.265625 C 33.328125 -10.242188 30.144531 -7.679688 26.6875 -5.578125 C 23.238281 -3.472656 19.570312 -2.421875 15.6875 -2.421875 C 12.019531 -2.421875 9.023438 -3.363281 6.703125 -5.25 C 4.390625 -7.144531 2.691406 -9.597656 1.609375 -12.609375 C 0.535156 -15.628906 0 -18.8125 0 -22.15625 Z M 0 -22.15625 "/></g></g></g><g fill="#504081" fill-opacity="1"><g transform="translate(930.842781, 163.706159)"><g><path d="M 7.4375 -29.28125 C 9.488281 -30.351562 11.753906 -31.832031 14.234375 -33.71875 C 16.710938 -35.613281 18.0625 -37.851562 18.28125 -40.4375 C 16.875 -40.226562 15.390625 -39.472656 13.828125 -38.171875 C 12.265625 -36.878906 10.914062 -35.421875 9.78125 -33.796875 C 8.65625 -32.179688 7.875 -30.675781 7.4375 -29.28125 Z M 0.15625 -25.390625 C 0.15625 -28.085938 1.046875 -31 2.828125 -34.125 C 4.609375 -37.257812 6.816406 -39.929688 9.453125 -42.140625 C 12.097656 -44.347656 14.71875 -45.453125 17.3125 -45.453125 C 20.863281 -45.453125 22.71875 -44.101562 22.875 -41.40625 C 23.039062 -38.71875 21.882812 -35.804688 19.40625 -32.671875 C 18.113281 -31.273438 16.171875 -29.660156 13.578125 -27.828125 C 10.992188 -25.992188 8.460938 -24.96875 5.984375 -24.75 C 5.984375 -23.019531 6.035156 -21.484375 6.140625 -20.140625 C 6.253906 -18.796875 7.007812 -17.421875 8.40625 -16.015625 C 9.8125 -14.609375 11.59375 -13.90625 13.75 -13.90625 C 16.550781 -13.90625 19.460938 -14.796875 22.484375 -16.578125 C 25.503906 -18.359375 27.820312 -19.84375 29.4375 -21.03125 C 30.082031 -21.570312 30.59375 -22.003906 30.96875 -22.328125 C 31.351562 -22.648438 31.816406 -23.023438 32.359375 -23.453125 C 34.617188 -25.179688 36.046875 -26.445312 36.640625 -27.25 C 37.234375 -28.0625 37.742188 -28.601562 38.171875 -28.875 C 38.609375 -29.144531 39.632812 -29.28125 41.25 -29.28125 C 41.46875 -28.09375 41.546875 -27.28125 41.484375 -26.84375 C 41.429688 -26.414062 41.03125 -25.769531 40.28125 -24.90625 C 38.34375 -22.96875 35.890625 -20.757812 32.921875 -18.28125 C 29.953125 -15.800781 26.769531 -13.644531 23.375 -11.8125 C 19.976562 -9.976562 16.609375 -9.0625 13.265625 -9.0625 C 11.535156 -9.0625 9.890625 -9.359375 8.328125 -9.953125 C 6.765625 -10.546875 5.28125 -11.539062 3.875 -12.9375 C 1.9375 -14.882812 0.832031 -16.878906 0.5625 -18.921875 C 0.289062 -20.972656 0.15625 -23.128906 0.15625 -25.390625 Z M 0.15625 -25.390625 "/></g></g></g><path stroke-linecap="butt" transform="matrix(0.75, 0, 0, 0.75, 979.971982, 42.374997)" fill="none" stroke-linejoin="miter" d="M 21.829026 201.375017 C 18.412359 201.375017 15.651942 200.291683 13.537359 198.125017 C 11.454025 195.95835 10.417567 193.281266 10.417567 190.083349 C 10.417567 186.807308 11.454025 184.140641 13.537359 182.088557 C 15.651942 180.031265 18.412359 179.005224 21.829026 179.005224 C 25.355068 179.005224 28.177985 180.031265 30.28736 182.088557 C 32.396735 184.140641 33.454027 186.807308 33.454027 190.083349 C 33.454027 193.281266 32.396735 195.95835 30.28736 198.125017 C 28.177985 200.291683 25.355068 201.375017 21.829026 201.375017 Z M 21.829026 201.375017 " stroke="#504081" stroke-width="4.052866" stroke-opacity="1" stroke-miterlimit="4"/><g fill="#fef74b" fill-opacity="1"><g transform="translate(979.971982, 192.374987)"><g><path d="M 16.375 1.03125 C 13.820312 1.03125 11.753906 0.21875 10.171875 -1.40625 C 8.597656 -3.03125 7.8125 -5.035156 7.8125 -7.421875 C 7.8125 -9.898438 8.597656 -11.90625 10.171875 -13.4375 C 11.753906 -14.96875 13.820312 -15.734375 16.375 -15.734375 C 19.019531 -15.734375 21.128906 -14.96875 22.703125 -13.4375 C 24.285156 -11.90625 25.078125 -9.898438 25.078125 -7.421875 C 25.078125 -5.035156 24.285156 -3.03125 22.703125 -1.40625 C 21.128906 0.21875 19.019531 1.03125 16.375 1.03125 Z M 16.375 1.03125 "/></g></g></g></svg>