<svg xmlns="http://www.w3.org/2000/svg" xmlns:xlink="http://www.w3.org/1999/xlink" width="1548" zoomAndPan="magnify" viewBox="0 0 1161 296.999993" height="396" preserveAspectRatio="xMidYMid meet" version="1.0"><defs><g/></defs><g fill="#504081" fill-opacity="1"><g transform="translate(453.270705, 163.706159)"><g><path d="M 5.015625 -140.09375 C 5.554688 -140.519531 5.988281 -140.921875 6.3125 -141.296875 C 6.632812 -141.679688 7.117188 -141.875 7.765625 -141.875 C 9.703125 -141.875 11.019531 -140.789062 11.71875 -138.625 C 12.425781 -136.46875 12.832031 -133.90625 12.9375 -130.9375 C 13.050781 -127.976562 13.269531 -125.367188 13.59375 -123.109375 C 13.800781 -121.703125 13.957031 -119.648438 14.0625 -116.953125 C 14.175781 -114.253906 14.257812 -111.316406 14.3125 -108.140625 C 14.363281 -104.960938 14.390625 -101.96875 14.390625 -99.15625 C 14.390625 -96.351562 14.390625 -94.035156 14.390625 -92.203125 C 14.390625 -82.171875 14.117188 -71.570312 13.578125 -60.40625 C 13.046875 -49.25 12.5625 -37.925781 12.125 -26.4375 C 11.695312 -14.957031 11.5625 -3.71875 11.71875 7.28125 C 11.882812 18.28125 12.671875 28.578125 14.078125 38.171875 C 14.285156 39.472656 14.632812 41.6875 15.125 44.8125 C 15.613281 47.9375 16.285156 51.273438 17.140625 54.828125 C 18.003906 58.390625 19.054688 61.519531 20.296875 64.21875 C 21.535156 66.914062 22.910156 68.535156 24.421875 69.078125 C 25.722656 68.210938 26.960938 66.507812 28.140625 63.96875 C 29.328125 61.4375 30.457031 58.550781 31.53125 55.3125 C 32.613281 52.082031 33.585938 48.957031 34.453125 45.9375 C 35.316406 42.914062 36.070312 40.4375 36.71875 38.5 L 60.015625 -37.375 C 61.203125 -41.039062 62.332031 -44.675781 63.40625 -48.28125 C 64.488281 -51.894531 65.566406 -55.484375 66.640625 -59.046875 C 66.960938 -60.117188 67.554688 -62.21875 68.421875 -65.34375 C 69.285156 -68.476562 70.3125 -71.984375 71.5 -75.859375 C 72.6875 -79.742188 73.925781 -83.546875 75.21875 -87.265625 C 76.507812 -90.992188 77.773438 -94.070312 79.015625 -96.5 C 80.253906 -98.925781 81.363281 -100.140625 82.34375 -100.140625 C 83.851562 -100.140625 84.769531 -99.707031 85.09375 -98.84375 C 85.414062 -97.976562 85.359375 -97.003906 84.921875 -95.921875 C 83.628906 -92.796875 82.578125 -90.15625 81.765625 -88 C 80.960938 -85.84375 80.078125 -82.984375 79.109375 -79.421875 C 77.804688 -74.785156 76.316406 -69.796875 74.640625 -64.453125 C 72.972656 -59.117188 71.300781 -53.753906 69.625 -48.359375 C 67.957031 -42.972656 66.476562 -37.90625 65.1875 -33.15625 L 58.234375 -10.1875 C 54.566406 0.8125 51.0625 12.296875 47.71875 24.265625 C 44.375 36.234375 40.816406 47.71875 37.046875 58.71875 C 36.285156 61.195312 35.3125 63.757812 34.125 66.40625 C 32.945312 69.050781 31.492188 71.257812 29.765625 73.03125 C 28.035156 74.8125 25.878906 75.703125 23.296875 75.703125 C 20.921875 75.703125 18.734375 74.164062 16.734375 71.09375 C 14.742188 68.019531 12.96875 64.109375 11.40625 59.359375 C 9.84375 54.617188 8.546875 49.632812 7.515625 44.40625 C 6.492188 39.175781 5.710938 34.296875 5.171875 29.765625 C 4.640625 25.234375 4.375 21.78125 4.375 19.40625 L 3.234375 -3.875 C 3.234375 -20.375 3.691406 -36.550781 4.609375 -52.40625 C 5.523438 -68.257812 5.984375 -84.332031 5.984375 -100.625 C 5.984375 -106.875 5.820312 -113.53125 5.5 -120.59375 C 5.175781 -127.65625 5.015625 -134.15625 5.015625 -140.09375 Z M 5.015625 -140.09375 "/></g></g></g><g fill="#504081" fill-opacity="1"><g transform="translate(524.280638, 163.706159)"><g><path d="M 13.421875 0.640625 C 11.265625 0.640625 9.347656 -0.0546875 7.671875 -1.453125 C 6.003906 -2.859375 4.738281 -4.316406 3.875 -5.828125 C 1.9375 -9.492188 0.832031 -13.832031 0.5625 -18.84375 C 0.289062 -23.863281 0.585938 -28.421875 1.453125 -32.515625 C 1.671875 -33.703125 1.96875 -35.128906 2.34375 -36.796875 C 2.71875 -38.472656 3.28125 -39.957031 4.03125 -41.25 C 4.789062 -42.539062 5.710938 -43.1875 6.796875 -43.1875 C 9.273438 -43.1875 10.488281 -42.347656 10.4375 -40.671875 C 10.382812 -39.003906 9.925781 -36.414062 9.0625 -32.90625 C 8.195312 -29.40625 7.765625 -24.90625 7.765625 -19.40625 C 7.765625 -17.789062 7.976562 -15.847656 8.40625 -13.578125 C 8.84375 -11.316406 9.519531 -9.320312 10.4375 -7.59375 C 11.351562 -5.875 12.507812 -5.015625 13.90625 -5.015625 C 15.632812 -5.015625 17.601562 -5.769531 19.8125 -7.28125 C 22.019531 -8.789062 24.066406 -10.488281 25.953125 -12.375 C 27.847656 -14.257812 29.171875 -15.6875 29.921875 -16.65625 C 30.140625 -16.875 30.734375 -17.601562 31.703125 -18.84375 C 32.671875 -20.082031 33.828125 -21.484375 35.171875 -23.046875 C 36.523438 -24.609375 37.847656 -25.984375 39.140625 -27.171875 C 40.441406 -28.359375 41.46875 -28.953125 42.21875 -28.953125 C 42.976562 -28.953125 43.359375 -28.304688 43.359375 -27.015625 C 43.359375 -26.253906 42.84375 -25.09375 41.8125 -23.53125 C 40.789062 -21.96875 39.578125 -20.320312 38.171875 -18.59375 C 36.773438 -16.875 35.398438 -15.257812 34.046875 -13.75 C 32.703125 -12.238281 31.707031 -11.160156 31.0625 -10.515625 C 29.769531 -9.222656 28.234375 -7.6875 26.453125 -5.90625 C 24.671875 -4.125 22.703125 -2.585938 20.546875 -1.296875 C 18.390625 -0.00390625 16.015625 0.640625 13.421875 0.640625 Z M 8.25 -63.578125 C 8.25 -65.410156 8.734375 -67 9.703125 -68.34375 C 10.671875 -69.695312 11.75 -70.375 12.9375 -70.375 C 14.226562 -70.375 15.304688 -69.5625 16.171875 -67.9375 C 17.679688 -64.914062 17.867188 -62.566406 16.734375 -60.890625 C 15.609375 -59.222656 14.238281 -58.390625 12.625 -58.390625 C 11.539062 -58.390625 10.539062 -58.820312 9.625 -59.6875 C 8.707031 -60.550781 8.25 -61.847656 8.25 -63.578125 Z M 8.25 -63.578125 "/></g></g></g><g fill="#504081" fill-opacity="1"><g transform="translate(561.160514, 163.706159)"><g><path d="M 5.65625 -11.8125 C 5.65625 -10.84375 5.875 -10.359375 6.3125 -10.359375 C 7.0625 -10.359375 8.054688 -11.4375 9.296875 -13.59375 C 10.535156 -15.75 11.859375 -18.441406 13.265625 -21.671875 C 14.671875 -24.910156 16.019531 -28.171875 17.3125 -31.453125 C 18.601562 -34.742188 19.679688 -37.628906 20.546875 -40.109375 C 21.410156 -42.597656 21.84375 -44.054688 21.84375 -44.484375 C 20.007812 -44.265625 18.578125 -43.695312 17.546875 -42.78125 C 16.523438 -41.863281 15.582031 -40.8125 14.71875 -39.625 C 11.914062 -36.175781 9.703125 -31.941406 8.078125 -26.921875 C 6.460938 -21.910156 5.65625 -16.875 5.65625 -11.8125 Z M 24.109375 -48.859375 C 24.109375 -50.035156 24.296875 -51.054688 24.671875 -51.921875 C 25.046875 -52.785156 25.394531 -53.757812 25.71875 -54.84375 L 29.125 -73.125 C 29.445312 -74.300781 29.847656 -76.078125 30.328125 -78.453125 C 30.816406 -80.828125 31.488281 -83.09375 32.34375 -85.25 C 33.207031 -87.40625 34.289062 -88.59375 35.59375 -88.8125 C 35.800781 -88.8125 35.957031 -88.835938 36.0625 -88.890625 C 36.175781 -88.941406 36.285156 -88.96875 36.390625 -88.96875 C 37.898438 -88.96875 38.765625 -88.128906 38.984375 -86.453125 C 39.203125 -84.785156 39.066406 -82.765625 38.578125 -80.390625 C 38.097656 -78.023438 37.503906 -75.765625 36.796875 -73.609375 C 36.097656 -71.453125 35.640625 -69.882812 35.421875 -68.90625 C 32.835938 -60.175781 31.164062 -51.226562 30.40625 -42.0625 C 29.65625 -32.894531 29.359375 -23.671875 29.515625 -14.390625 C 29.679688 -5.117188 29.816406 4.046875 29.921875 13.109375 C 30.035156 16.554688 30.332031 19.332031 30.8125 21.4375 C 31.300781 23.539062 31.488281 25.019531 31.375 25.875 C 31.269531 26.738281 30.25 27.171875 28.3125 27.171875 C 27.125 27.171875 26.175781 25.847656 25.46875 23.203125 C 24.769531 20.566406 24.257812 17.117188 23.9375 12.859375 C 23.613281 8.597656 23.453125 4.039062 23.453125 -0.8125 C 23.453125 -5.664062 23.503906 -10.410156 23.609375 -15.046875 C 23.722656 -19.679688 23.832031 -23.671875 23.9375 -27.015625 C 24.050781 -30.359375 24.109375 -32.566406 24.109375 -33.640625 C 23.671875 -33.210938 23.394531 -32.941406 23.28125 -32.828125 C 23.175781 -32.722656 23.019531 -32.296875 22.8125 -31.546875 L 17.140625 -17.796875 C 16.390625 -16.179688 15.53125 -14.347656 14.5625 -12.296875 C 13.59375 -10.242188 12.378906 -8.460938 10.921875 -6.953125 C 9.460938 -5.441406 7.707031 -4.6875 5.65625 -4.6875 C 3.394531 -4.6875 1.859375 -5.765625 1.046875 -7.921875 C 0.242188 -10.078125 0.00390625 -12.851562 0.328125 -16.25 C 0.648438 -19.65625 1.429688 -23.242188 2.671875 -27.015625 C 3.910156 -30.785156 5.472656 -34.367188 7.359375 -37.765625 C 9.242188 -41.171875 11.34375 -43.953125 13.65625 -46.109375 C 15.976562 -48.265625 18.382812 -49.34375 20.875 -49.34375 C 21.726562 -49.34375 22.179688 -49.257812 22.234375 -49.09375 C 22.296875 -48.9375 22.921875 -48.859375 24.109375 -48.859375 Z M 24.109375 -48.859375 "/></g></g></g><g fill="#504081" fill-opacity="1"><g transform="translate(597.393376, 163.706159)"><g><path d="M 7.4375 -29.28125 C 9.488281 -30.351562 11.753906 -31.832031 14.234375 -33.71875 C 16.710938 -35.613281 18.0625 -37.851562 18.28125 -40.4375 C 16.875 -40.226562 15.390625 -39.472656 13.828125 -38.171875 C 12.265625 -36.878906 10.914062 -35.421875 9.78125 -33.796875 C 8.65625 -32.179688 7.875 -30.675781 7.4375 -29.28125 Z M 0.15625 -25.390625 C 0.15625 -28.085938 1.046875 -31 2.828125 -34.125 C 4.609375 -37.257812 6.816406 -39.929688 9.453125 -42.140625 C 12.097656 -44.347656 14.71875 -45.453125 17.3125 -45.453125 C 20.863281 -45.453125 22.71875 -44.101562 22.875 -41.40625 C 23.039062 -38.71875 21.882812 -35.804688 19.40625 -32.671875 C 18.113281 -31.273438 16.171875 -29.660156 13.578125 -27.828125 C 10.992188 -25.992188 8.460938 -24.96875 5.984375 -24.75 C 5.984375 -23.019531 6.035156 -21.484375 6.140625 -20.140625 C 6.253906 -18.796875 7.007812 -17.421875 8.40625 -16.015625 C 9.8125 -14.609375 11.59375 -13.90625 13.75 -13.90625 C 16.550781 -13.90625 19.460938 -14.796875 22.484375 -16.578125 C 25.503906 -18.359375 27.820312 -19.84375 29.4375 -21.03125 C 30.082031 -21.570312 30.59375 -22.003906 30.96875 -22.328125 C 31.351562 -22.648438 31.816406 -23.023438 32.359375 -23.453125 C 34.617188 -25.179688 36.046875 -26.445312 36.640625 -27.25 C 37.234375 -28.0625 37.742188 -28.601562 38.171875 -28.875 C 38.609375 -29.144531 39.632812 -29.28125 41.25 -29.28125 C 41.46875 -28.09375 41.546875 -27.28125 41.484375 -26.84375 C 41.429688 -26.414062 41.03125 -25.769531 40.28125 -24.90625 C 38.34375 -22.96875 35.890625 -20.757812 32.921875 -18.28125 C 29.953125 -15.800781 26.769531 -13.644531 23.375 -11.8125 C 19.976562 -9.976562 16.609375 -9.0625 13.265625 -9.0625 C 11.535156 -9.0625 9.890625 -9.359375 8.328125 -9.953125 C 6.765625 -10.546875 5.28125 -11.539062 3.875 -12.9375 C 1.9375 -14.882812 0.832031 -16.878906 0.5625 -18.921875 C 0.289062 -20.972656 0.15625 -23.128906 0.15625 -25.390625 Z M 0.15625 -25.390625 "/></g></g></g><g fill="#504081" fill-opacity="1"><g transform="translate(632.49396, 163.706159)"><g><path d="M 8.09375 -3.71875 C 9.707031 -4.15625 11.160156 -5.582031 12.453125 -8 C 13.742188 -10.425781 14.660156 -13.203125 15.203125 -16.328125 C 15.742188 -19.460938 15.878906 -22.347656 15.609375 -24.984375 C 15.335938 -27.628906 14.503906 -29.4375 13.109375 -30.40625 C 12.785156 -29.21875 12.191406 -27.519531 11.328125 -25.3125 C 10.460938 -23.101562 9.625 -20.675781 8.8125 -18.03125 C 8.007812 -15.394531 7.472656 -12.804688 7.203125 -10.265625 C 6.929688 -7.734375 7.226562 -5.550781 8.09375 -3.71875 Z M 0 -9.21875 C 0 -10.625 0.296875 -12.703125 0.890625 -15.453125 C 1.484375 -18.203125 2.316406 -21.164062 3.390625 -24.34375 C 4.472656 -27.53125 5.6875 -30.550781 7.03125 -33.40625 C 8.382812 -36.257812 9.84375 -38.601562 11.40625 -40.4375 C 12.96875 -42.269531 14.554688 -43.1875 16.171875 -43.1875 C 17.253906 -43.1875 18.007812 -42.703125 18.4375 -41.734375 C 18.875 -40.765625 18.984375 -39.957031 18.765625 -39.3125 C 18.546875 -38.769531 18.140625 -38.226562 17.546875 -37.6875 C 16.953125 -37.144531 16.441406 -36.550781 16.015625 -35.90625 C 16.234375 -35.15625 16.769531 -34.320312 17.625 -33.40625 C 18.488281 -32.488281 19.351562 -31.273438 20.21875 -29.765625 C 21.082031 -28.253906 21.648438 -26.203125 21.921875 -23.609375 C 22.191406 -21.023438 21.894531 -17.628906 21.03125 -13.421875 C 19.84375 -7.816406 17.953125 -3.613281 15.359375 -0.8125 C 12.773438 1.988281 10.242188 3.390625 7.765625 3.390625 C 5.710938 3.390625 3.90625 2.335938 2.34375 0.234375 C 0.78125 -1.859375 0 -5.007812 0 -9.21875 Z M 0 -9.21875 "/></g></g></g><g fill="#504081" fill-opacity="1"><g transform="translate(660.962647, 163.706159)"><g><path d="M 1.9375 26.6875 C 1.9375 28.957031 2.640625 30.09375 4.046875 30.09375 C 4.796875 30.09375 5.601562 29.820312 6.46875 29.28125 C 7.332031 28.738281 8.035156 28.253906 8.578125 27.828125 C 10.734375 26.203125 12.644531 23.742188 14.3125 20.453125 C 15.988281 17.171875 17.203125 14.179688 17.953125 11.484375 C 18.492188 9.648438 18.789062 7.789062 18.84375 5.90625 C 18.894531 4.019531 18.921875 1.941406 18.921875 -0.328125 C 17.628906 0.429688 16.144531 1.753906 14.46875 3.640625 C 12.800781 5.523438 11.484375 7.0625 10.515625 8.25 C 8.578125 10.625 6.660156 13.484375 4.765625 16.828125 C 2.878906 20.171875 1.9375 23.457031 1.9375 26.6875 Z M 0.484375 -26.203125 C 0.484375 -29.003906 1.238281 -31.507812 2.75 -33.71875 C 4.257812 -35.9375 6.066406 -37.71875 8.171875 -39.0625 C 10.273438 -40.414062 12.082031 -41.09375 13.59375 -41.09375 C 14.78125 -41.09375 15.664062 -40.660156 16.25 -39.796875 C 16.84375 -38.929688 16.875 -37.472656 16.34375 -35.421875 C 15.039062 -35.097656 14.117188 -34.910156 13.578125 -34.859375 C 13.046875 -34.804688 12.617188 -34.644531 12.296875 -34.375 C 11.972656 -34.101562 11.378906 -33.484375 10.515625 -32.515625 C 8.359375 -30.140625 7.359375 -28.222656 7.515625 -26.765625 C 7.679688 -25.316406 8.546875 -23.972656 10.109375 -22.734375 C 11.671875 -21.492188 13.609375 -19.957031 15.921875 -18.125 C 18.242188 -16.289062 20.429688 -13.804688 22.484375 -10.671875 C 24.859375 -12.296875 27.285156 -14.1875 29.765625 -16.34375 L 44.8125 -26.859375 C 46.207031 -27.828125 47.414062 -28.5 48.4375 -28.875 C 49.46875 -29.25 50.363281 -29.4375 51.125 -29.4375 C 52.414062 -29.4375 52.953125 -28.894531 52.734375 -27.8125 C 52.515625 -26.738281 51.488281 -25.664062 49.65625 -24.59375 L 38.65625 -16.984375 C 38.226562 -16.765625 37.3125 -16.144531 35.90625 -15.125 C 34.507812 -14.101562 32.972656 -12.972656 31.296875 -11.734375 C 29.628906 -10.492188 28.203125 -9.332031 27.015625 -8.25 C 25.828125 -7.164062 25.179688 -6.460938 25.078125 -6.140625 C 24.960938 -5.609375 25.117188 -4.585938 25.546875 -3.078125 C 25.984375 -1.566406 26.28125 0.398438 26.4375 2.828125 C 26.601562 5.253906 26.28125 8.21875 25.46875 11.71875 C 24.664062 15.226562 22.914062 19.300781 20.21875 23.9375 C 17.84375 27.925781 15.253906 30.863281 12.453125 32.75 C 9.648438 34.644531 7.007812 35.59375 4.53125 35.59375 C 2.257812 35.59375 0.398438 34.835938 -1.046875 33.328125 C -2.503906 31.816406 -3.234375 29.601562 -3.234375 26.6875 C -3.234375 23.019531 -2.34375 19.460938 -0.5625 16.015625 C 1.21875 12.566406 3.347656 9.382812 5.828125 6.46875 C 8.304688 3.5625 10.597656 1.054688 12.703125 -1.046875 C 14.804688 -3.148438 16.179688 -4.6875 16.828125 -5.65625 C 15.523438 -7.925781 13.957031 -9.894531 12.125 -11.5625 C 10.289062 -13.238281 8.484375 -14.773438 6.703125 -16.171875 C 4.929688 -17.578125 3.453125 -19.0625 2.265625 -20.625 C 1.078125 -22.1875 0.484375 -24.046875 0.484375 -26.203125 Z M 0.484375 -26.203125 "/></g></g></g><path stroke-linecap="butt" transform="matrix(0.75, 0, 0, 0.75, 720.502935, 36.581167)" fill="none" stroke-linejoin="miter" d="M 21.829422 201.376166 C 18.412755 201.376166 15.652338 200.292832 13.537755 198.126165 C 11.454421 195.959498 10.412754 193.277207 10.412754 190.084498 C 10.412754 186.808456 11.454421 184.141789 13.537755 182.084498 C 15.652338 180.032414 18.412755 179.001164 21.829422 179.001164 C 25.355464 179.001164 28.178381 180.032414 30.287756 182.084498 C 32.397131 184.141789 33.454423 186.808456 33.454423 190.084498 C 33.454423 193.277207 32.397131 195.959498 30.287756 198.126165 C 28.178381 200.292832 25.355464 201.376166 21.829422 201.376166 Z M 21.829422 201.376166 " stroke="#504081" stroke-width="4.052866" stroke-opacity="1" stroke-miterlimit="4"/><g fill="#fef74b" fill-opacity="1"><g transform="translate(720.502935, 186.581157)"><g><path d="M 16.375 1.03125 C 13.820312 1.03125 11.753906 0.21875 10.171875 -1.40625 C 8.597656 -3.03125 7.8125 -5.035156 7.8125 -7.421875 C 7.8125 -9.898438 8.597656 -11.90625 10.171875 -13.4375 C 11.753906 -14.96875 13.820312 -15.734375 16.375 -15.734375 C 19.019531 -15.734375 21.128906 -14.96875 22.703125 -13.4375 C 24.285156 -11.90625 25.078125 -9.898438 25.078125 -7.421875 C 25.078125 -5.035156 24.285156 -3.03125 22.703125 -1.40625 C 21.128906 0.21875 19.019531 1.03125 16.375 1.03125 Z M 16.375 1.03125 "/></g></g></g></svg>