<svg xmlns="http://www.w3.org/2000/svg" xmlns:xlink="http://www.w3.org/1999/xlink" width="1548" zoomAndPan="magnify" viewBox="0 0 1161 296.999993" height="396" preserveAspectRatio="xMidYMid meet" version="1.0"><defs><g/><clipPath id="97dcffcfcc"><rect x="0" width="747" y="0" height="189"/></clipPath><clipPath id="5d02789b7d"><rect x="0" width="39" y="0" height="158"/></clipPath></defs><g transform="matrix(1, 0, 0, 1, 210, 44)"><g clip-path="url(#97dcffcfcc)"><g fill="#efe1ff" fill-opacity="1"><g transform="translate(0.773514, 108.779969)"><g><path d="M 40.734375 2.765625 C 41.398438 2.328125 42.066406 1.476562 42.734375 0.21875 C 43.398438 -1.03125 43.988281 -2.375 44.5 -3.8125 C 45.019531 -5.257812 45.425781 -6.425781 45.71875 -7.3125 C 47.863281 -12.769531 49.800781 -18.171875 51.53125 -23.515625 C 53.269531 -28.867188 55.242188 -34.351562 57.453125 -39.96875 C 57.828125 -40.925781 58.472656 -42.492188 59.390625 -44.671875 C 60.316406 -46.847656 61.40625 -49.316406 62.65625 -52.078125 C 63.914062 -54.847656 65.300781 -57.65625 66.8125 -60.5 C 68.320312 -63.34375 69.867188 -65.976562 71.453125 -68.40625 C 73.046875 -70.84375 74.597656 -72.816406 76.109375 -74.328125 C 77.617188 -75.847656 79.003906 -76.609375 80.265625 -76.609375 C 81.960938 -76.609375 83.210938 -75.773438 84.015625 -74.109375 C 84.828125 -72.453125 85.289062 -70.367188 85.40625 -67.859375 C 85.519531 -65.347656 85.460938 -62.742188 85.234375 -60.046875 C 85.015625 -57.359375 84.757812 -54.960938 84.46875 -52.859375 C 84.175781 -50.753906 83.953125 -49.332031 83.796875 -48.59375 L 76.9375 -2.875 C 75.757812 5.3125 74.851562 13.316406 74.21875 21.140625 C 73.59375 28.960938 72.835938 36.859375 71.953125 44.828125 C 71.804688 46.828125 71.734375 49.003906 71.734375 51.359375 C 71.734375 53.722656 71.734375 55.941406 71.734375 58.015625 C 71.734375 58.972656 71.566406 59.691406 71.234375 60.171875 C 70.898438 60.648438 70.550781 60.890625 70.1875 60.890625 C 69.738281 60.890625 69.3125 60.628906 68.90625 60.109375 C 68.5 59.597656 68.257812 58.898438 68.1875 58.015625 C 68.113281 57.046875 68.078125 56.320312 68.078125 55.84375 C 68.078125 55.363281 68.039062 54.796875 67.96875 54.140625 L 71.296875 4.765625 C 71.878906 0.109375 72.410156 -4.191406 72.890625 -8.140625 C 73.378906 -12.085938 73.898438 -16.070312 74.453125 -20.09375 C 75.003906 -24.113281 75.6875 -28.5625 76.5 -33.4375 C 76.71875 -34.6875 77.046875 -36.640625 77.484375 -39.296875 C 77.929688 -41.953125 78.410156 -44.941406 78.921875 -48.265625 C 79.441406 -51.585938 79.90625 -54.910156 80.3125 -58.234375 C 80.71875 -61.554688 80.9375 -64.503906 80.96875 -67.078125 C 81.007812 -69.660156 80.773438 -71.507812 80.265625 -72.625 C 78.859375 -71.882812 77.546875 -70.71875 76.328125 -69.125 C 75.109375 -67.539062 74.09375 -66.015625 73.28125 -64.546875 C 71.8125 -62.109375 70.539062 -59.875 69.46875 -57.84375 C 68.394531 -55.8125 67.378906 -53.757812 66.421875 -51.6875 C 65.460938 -49.625 64.394531 -47.265625 63.21875 -44.609375 C 61.363281 -40.554688 59.882812 -36.867188 58.78125 -33.546875 C 57.675781 -30.222656 56.382812 -26.71875 54.90625 -23.03125 C 54.539062 -22.070312 54.003906 -20.425781 53.296875 -18.09375 C 52.597656 -15.769531 51.769531 -13.1875 50.8125 -10.34375 C 49.851562 -7.507812 48.816406 -4.78125 47.703125 -2.15625 C 46.597656 0.457031 45.457031 2.628906 44.28125 4.359375 C 43.101562 6.097656 41.921875 6.96875 40.734375 6.96875 C 39.554688 6.96875 38.632812 6.320312 37.96875 5.03125 C 37.300781 3.738281 36.835938 2.132812 36.578125 0.21875 C 36.328125 -1.695312 36.203125 -3.613281 36.203125 -5.53125 C 36.203125 -7.445312 36.238281 -9 36.3125 -10.1875 L 37.96875 -32.328125 C 37.96875 -32.765625 37.929688 -33.257812 37.859375 -33.8125 C 37.785156 -34.375 37.75 -35.0625 37.75 -35.875 C 37.082031 -35.71875 36.675781 -35.53125 36.53125 -35.3125 C 36.382812 -35.09375 36.125 -34.722656 35.75 -34.203125 C 34.207031 -32.140625 32.753906 -29.613281 31.390625 -26.625 C 30.023438 -23.632812 28.75 -20.457031 27.5625 -17.09375 C 26.382812 -13.738281 25.351562 -10.472656 24.46875 -7.296875 C 23.582031 -4.128906 22.84375 -1.363281 22.25 1 C 21.363281 4.46875 20.492188 7.988281 19.640625 11.5625 C 18.796875 15.144531 17.894531 18.5625 16.9375 21.8125 C 16.34375 24.320312 15.640625 26.789062 14.828125 29.21875 C 14.015625 31.65625 13.09375 34.09375 12.0625 36.53125 C 11.550781 37.414062 11.054688 38.113281 10.578125 38.625 C 10.097656 39.144531 9.300781 39.40625 8.1875 39.40625 C 6.9375 39.40625 5.867188 38.460938 4.984375 36.578125 C 4.097656 34.703125 3.394531 32.285156 2.875 29.328125 C 2.363281 26.378906 1.976562 23.300781 1.71875 20.09375 C 1.457031 16.882812 1.289062 13.894531 1.21875 11.125 C 1.144531 8.351562 1.109375 6.269531 1.109375 4.875 L 2.21875 -17.484375 C 2.582031 -20.953125 2.984375 -24.398438 3.421875 -27.828125 C 3.867188 -31.265625 4.351562 -34.679688 4.875 -38.078125 C 4.945312 -38.453125 5.128906 -39.578125 5.421875 -41.453125 C 5.722656 -43.335938 6.148438 -45.644531 6.703125 -48.375 C 7.253906 -51.101562 7.859375 -53.960938 8.515625 -56.953125 C 9.179688 -59.941406 9.882812 -62.742188 10.625 -65.359375 C 11.363281 -67.984375 12.117188 -70.109375 12.890625 -71.734375 C 13.671875 -73.359375 14.429688 -74.171875 15.171875 -74.171875 C 16.203125 -74.171875 16.769531 -73.800781 16.875 -73.0625 C 16.988281 -72.320312 16.894531 -71.453125 16.59375 -70.453125 C 16.300781 -69.460938 16.046875 -68.597656 15.828125 -67.859375 C 14.648438 -63.648438 13.691406 -59.828125 12.953125 -56.390625 C 12.210938 -52.960938 11.53125 -49.492188 10.90625 -45.984375 C 10.28125 -42.484375 9.632812 -38.484375 8.96875 -33.984375 C 8.375 -29.921875 7.816406 -25.195312 7.296875 -19.8125 C 6.785156 -14.425781 6.363281 -8.757812 6.03125 -2.8125 C 5.695312 3.125 5.601562 8.894531 5.75 14.5 C 5.90625 20.113281 6.347656 25.171875 7.078125 29.671875 L 8.1875 35.09375 C 8.78125 34.945312 9.148438 34.707031 9.296875 34.375 C 9.441406 34.039062 9.664062 33.578125 9.96875 32.984375 L 12.625 25.015625 C 14.320312 18.960938 15.976562 12.6875 17.59375 6.1875 C 19.21875 -0.300781 21.007812 -6.660156 22.96875 -12.890625 C 24.925781 -19.128906 27.195312 -24.90625 29.78125 -30.21875 C 30.519531 -31.625 31.382812 -33.226562 32.375 -35.03125 C 33.375 -36.84375 34.460938 -38.117188 35.640625 -38.859375 C 36.304688 -39.296875 37.046875 -39.515625 37.859375 -39.515625 C 39.117188 -39.515625 39.96875 -39 40.40625 -37.96875 C 41 -36.9375 41.332031 -35.054688 41.40625 -32.328125 C 41.476562 -29.597656 41.398438 -26.535156 41.171875 -23.140625 C 40.953125 -19.742188 40.734375 -16.457031 40.515625 -13.28125 C 40.296875 -10.113281 40.1875 -7.566406 40.1875 -5.640625 C 40.1875 -3.429688 40.273438 -1.769531 40.453125 -0.65625 C 40.640625 0.445312 40.734375 1.585938 40.734375 2.765625 Z M 40.734375 2.765625 "/></g></g></g><g fill="#efe1ff" fill-opacity="1"><g transform="translate(85.455963, 108.779969)"><g><path d="M 0.109375 -13.5 C 0.109375 -15.125 0.347656 -16.929688 0.828125 -18.921875 C 1.304688 -20.921875 1.929688 -22.859375 2.703125 -24.734375 C 3.484375 -26.617188 4.316406 -28.15625 5.203125 -29.34375 C 6.015625 -30.226562 6.828125 -30.671875 7.640625 -30.671875 C 8.304688 -30.671875 8.96875 -30.484375 9.625 -30.109375 C 9.695312 -29.742188 9.789062 -29.484375 9.90625 -29.328125 C 10.019531 -29.179688 10.078125 -28.851562 10.078125 -28.34375 C 10.078125 -28.269531 9.742188 -27.566406 9.078125 -26.234375 C 8.410156 -24.910156 7.6875 -23.25 6.90625 -21.25 C 6.132812 -19.257812 5.507812 -17.15625 5.03125 -14.9375 C 4.550781 -12.726562 4.535156 -10.703125 4.984375 -8.859375 C 5.867188 -9.148438 6.640625 -9.71875 7.296875 -10.5625 C 7.960938 -11.414062 8.554688 -12.210938 9.078125 -12.953125 L 15.71875 -22.6875 C 16.457031 -23.726562 17.082031 -24.632812 17.59375 -25.40625 C 18.113281 -26.175781 18.890625 -26.5625 19.921875 -26.5625 C 20.953125 -26.5625 21.5625 -25.914062 21.75 -24.625 C 21.9375 -23.332031 21.972656 -21.875 21.859375 -20.25 C 21.753906 -18.632812 21.738281 -17.347656 21.8125 -16.390625 C 22.175781 -13.734375 22.742188 -11.867188 23.515625 -10.796875 C 24.296875 -9.722656 25.203125 -9.1875 26.234375 -9.1875 C 27.492188 -9.1875 28.820312 -9.703125 30.21875 -10.734375 C 31.625 -11.765625 33.023438 -12.960938 34.421875 -14.328125 C 35.828125 -15.703125 37.066406 -16.90625 38.140625 -17.9375 C 39.210938 -18.96875 40.003906 -19.484375 40.515625 -19.484375 C 40.960938 -19.484375 41.367188 -19.390625 41.734375 -19.203125 C 42.097656 -19.023438 42.28125 -18.640625 42.28125 -18.046875 C 42.28125 -17.453125 41.835938 -16.65625 40.953125 -15.65625 C 40.066406 -14.664062 39.109375 -13.707031 38.078125 -12.78125 C 37.046875 -11.863281 36.3125 -11.179688 35.875 -10.734375 C 34.394531 -9.335938 32.785156 -8.140625 31.046875 -7.140625 C 29.316406 -6.140625 27.601562 -5.640625 25.90625 -5.640625 C 24.0625 -5.640625 22.617188 -6.140625 21.578125 -7.140625 C 20.546875 -8.140625 19.789062 -9.394531 19.3125 -10.90625 C 18.832031 -12.414062 18.519531 -14 18.375 -15.65625 C 18.226562 -17.320312 18.15625 -18.816406 18.15625 -20.140625 C 17.707031 -19.847656 17.171875 -19.203125 16.546875 -18.203125 C 15.921875 -17.210938 15.425781 -16.421875 15.0625 -15.828125 C 14.613281 -15.085938 13.984375 -14.070312 13.171875 -12.78125 C 12.359375 -11.488281 11.453125 -10.195312 10.453125 -8.90625 C 9.460938 -7.613281 8.46875 -6.523438 7.46875 -5.640625 C 6.476562 -4.753906 5.539062 -4.3125 4.65625 -4.3125 C 2.957031 -4.3125 1.789062 -4.8125 1.15625 -5.8125 C 0.53125 -6.8125 0.195312 -8.03125 0.15625 -9.46875 C 0.125 -10.90625 0.109375 -12.25 0.109375 -13.5 Z M 0.109375 -13.5 "/></g></g></g><g fill="#efe1ff" fill-opacity="1"><g transform="translate(122.871218, 108.779969)"><g><path d="M 1.328125 18.265625 C 1.328125 19.816406 1.804688 20.59375 2.765625 20.59375 C 3.285156 20.59375 3.835938 20.40625 4.421875 20.03125 C 5.015625 19.664062 5.5 19.335938 5.875 19.046875 C 7.34375 17.929688 8.648438 16.25 9.796875 14 C 10.941406 11.75 11.769531 9.703125 12.28125 7.859375 C 12.65625 6.609375 12.859375 5.335938 12.890625 4.046875 C 12.929688 2.753906 12.953125 1.332031 12.953125 -0.21875 C 12.066406 0.289062 11.050781 1.191406 9.90625 2.484375 C 8.757812 3.773438 7.859375 4.828125 7.203125 5.640625 C 5.867188 7.265625 4.554688 9.21875 3.265625 11.5 C 1.972656 13.789062 1.328125 16.046875 1.328125 18.265625 Z M 0.328125 -17.9375 C 0.328125 -19.851562 0.84375 -21.566406 1.875 -23.078125 C 2.914062 -24.585938 4.15625 -25.804688 5.59375 -26.734375 C 7.03125 -27.660156 8.265625 -28.125 9.296875 -28.125 C 10.109375 -28.125 10.71875 -27.828125 11.125 -27.234375 C 11.53125 -26.640625 11.550781 -25.644531 11.1875 -24.25 C 10.300781 -24.019531 9.671875 -23.882812 9.296875 -23.84375 C 8.929688 -23.8125 8.632812 -23.703125 8.40625 -23.515625 C 8.1875 -23.335938 7.785156 -22.914062 7.203125 -22.25 C 5.722656 -20.625 5.035156 -19.3125 5.140625 -18.3125 C 5.253906 -17.320312 5.847656 -16.398438 6.921875 -15.546875 C 7.992188 -14.703125 9.320312 -13.648438 10.90625 -12.390625 C 12.488281 -11.140625 13.984375 -9.445312 15.390625 -7.3125 C 17.015625 -8.414062 18.675781 -9.707031 20.375 -11.1875 L 30.671875 -18.375 C 31.628906 -19.039062 32.457031 -19.5 33.15625 -19.75 C 33.851562 -20.007812 34.460938 -20.140625 34.984375 -20.140625 C 35.867188 -20.140625 36.238281 -19.769531 36.09375 -19.03125 C 35.945312 -18.300781 35.242188 -17.566406 33.984375 -16.828125 L 26.453125 -11.625 C 26.160156 -11.476562 25.535156 -11.050781 24.578125 -10.34375 C 23.617188 -9.644531 22.566406 -8.867188 21.421875 -8.015625 C 20.273438 -7.171875 19.296875 -6.378906 18.484375 -5.640625 C 17.671875 -4.898438 17.226562 -4.421875 17.15625 -4.203125 C 17.082031 -3.835938 17.191406 -3.132812 17.484375 -2.09375 C 17.785156 -1.0625 17.988281 0.28125 18.09375 1.9375 C 18.207031 3.59375 17.988281 5.617188 17.4375 8.015625 C 16.882812 10.421875 15.6875 13.210938 13.84375 16.390625 C 12.21875 19.117188 10.441406 21.128906 8.515625 22.421875 C 6.597656 23.710938 4.789062 24.359375 3.09375 24.359375 C 1.550781 24.359375 0.28125 23.835938 -0.71875 22.796875 C -1.71875 21.765625 -2.21875 20.253906 -2.21875 18.265625 C -2.21875 15.753906 -1.609375 13.316406 -0.390625 10.953125 C 0.828125 8.597656 2.285156 6.421875 3.984375 4.421875 C 5.679688 2.429688 7.25 0.71875 8.6875 -0.71875 C 10.125 -2.15625 11.066406 -3.207031 11.515625 -3.875 C 10.628906 -5.425781 9.554688 -6.769531 8.296875 -7.90625 C 7.046875 -9.050781 5.8125 -10.101562 4.59375 -11.0625 C 3.375 -12.03125 2.359375 -13.046875 1.546875 -14.109375 C 0.734375 -15.179688 0.328125 -16.457031 0.328125 -17.9375 Z M 0.328125 -17.9375 "/></g></g></g><g fill="#efe1ff" fill-opacity="1"><g transform="translate(154.862367, 108.779969)"><g><path d="M 0.21875 -8.53125 C 0.21875 -12.21875 0.4375 -16.203125 0.875 -20.484375 C 1.320312 -24.765625 1.914062 -29.003906 2.65625 -33.203125 C 3.394531 -37.410156 4.207031 -41.210938 5.09375 -44.609375 C 5.457031 -45.722656 5.820312 -46.960938 6.1875 -48.328125 C 6.5625 -49.691406 7.046875 -50.867188 7.640625 -51.859375 C 8.234375 -52.859375 9.007812 -53.359375 9.96875 -53.359375 C 10.851562 -53.359375 11.40625 -53.023438 11.625 -52.359375 C 11.84375 -51.691406 11.859375 -50.894531 11.671875 -49.96875 C 11.492188 -49.050781 11.253906 -48.207031 10.953125 -47.4375 C 10.660156 -46.664062 10.476562 -46.128906 10.40625 -45.828125 C 9.8125 -43.617188 9.128906 -40.613281 8.359375 -36.8125 C 7.585938 -33.007812 6.847656 -28.859375 6.140625 -24.359375 C 5.441406 -19.859375 4.90625 -15.390625 4.53125 -10.953125 C 4.164062 -6.523438 4.09375 -2.523438 4.3125 1.046875 C 4.539062 4.628906 5.132812 7.378906 6.09375 9.296875 C 7.34375 8.628906 8.375 7.628906 9.1875 6.296875 C 10 4.972656 10.703125 3.6875 11.296875 2.4375 C 12.992188 -0.8125 14.648438 -4.242188 16.265625 -7.859375 C 17.890625 -11.472656 19.585938 -14.867188 21.359375 -18.046875 C 21.953125 -19.222656 22.582031 -19.8125 23.25 -19.8125 C 23.539062 -19.8125 23.78125 -19.679688 23.96875 -19.421875 C 24.15625 -19.171875 24.25 -18.894531 24.25 -18.59375 C 24.25 -18.375 23.953125 -17.671875 23.359375 -16.484375 C 22.765625 -15.304688 22.15625 -14.085938 21.53125 -12.828125 C 20.90625 -11.578125 20.484375 -10.769531 20.265625 -10.40625 C 19.523438 -8.851562 18.691406 -7.039062 17.765625 -4.96875 C 16.847656 -2.90625 15.945312 -0.878906 15.0625 1.109375 C 14.175781 3.097656 13.328125 4.796875 12.515625 6.203125 C 12.140625 6.785156 11.640625 7.578125 11.015625 8.578125 C 10.390625 9.578125 9.707031 10.441406 8.96875 11.171875 C 8.226562 11.910156 7.378906 12.28125 6.421875 12.28125 C 4.941406 12.28125 3.773438 11.539062 2.921875 10.0625 C 2.078125 8.59375 1.46875 6.75 1.09375 4.53125 C 0.726562 2.320312 0.488281 0.0351562 0.375 -2.328125 C 0.269531 -4.691406 0.21875 -6.757812 0.21875 -8.53125 Z M 0.21875 -8.53125 "/></g></g></g><g fill="#efe1ff" fill-opacity="1"><g transform="translate(174.34486, 108.779969)"><g><path d="M 9.1875 0.4375 C 7.707031 0.4375 6.394531 -0.0390625 5.25 -1 C 4.113281 -1.957031 3.25 -2.953125 2.65625 -3.984375 C 1.332031 -6.492188 0.578125 -9.460938 0.390625 -12.890625 C 0.203125 -16.328125 0.40625 -19.445312 1 -22.25 C 1.144531 -23.0625 1.347656 -24.039062 1.609375 -25.1875 C 1.867188 -26.332031 2.253906 -27.347656 2.765625 -28.234375 C 3.285156 -29.117188 3.914062 -29.5625 4.65625 -29.5625 C 6.351562 -29.5625 7.179688 -28.988281 7.140625 -27.84375 C 7.097656 -26.695312 6.78125 -24.925781 6.1875 -22.53125 C 5.601562 -20.132812 5.3125 -17.050781 5.3125 -13.28125 C 5.3125 -12.175781 5.457031 -10.847656 5.75 -9.296875 C 6.050781 -7.742188 6.515625 -6.378906 7.140625 -5.203125 C 7.765625 -4.023438 8.554688 -3.4375 9.515625 -3.4375 C 10.703125 -3.4375 12.050781 -3.953125 13.5625 -4.984375 C 15.070312 -6.015625 16.472656 -7.175781 17.765625 -8.46875 C 19.054688 -9.757812 19.960938 -10.738281 20.484375 -11.40625 C 20.628906 -11.550781 21.03125 -12.046875 21.6875 -12.890625 C 22.351562 -13.742188 23.148438 -14.703125 24.078125 -15.765625 C 25.003906 -16.835938 25.910156 -17.78125 26.796875 -18.59375 C 27.679688 -19.40625 28.378906 -19.8125 28.890625 -19.8125 C 29.410156 -19.8125 29.671875 -19.367188 29.671875 -18.484375 C 29.671875 -17.972656 29.316406 -17.179688 28.609375 -16.109375 C 27.910156 -15.035156 27.082031 -13.90625 26.125 -12.71875 C 25.164062 -11.539062 24.222656 -10.4375 23.296875 -9.40625 C 22.378906 -8.375 21.695312 -7.640625 21.25 -7.203125 C 20.363281 -6.316406 19.3125 -5.265625 18.09375 -4.046875 C 16.875 -2.828125 15.523438 -1.773438 14.046875 -0.890625 C 12.578125 -0.00390625 10.957031 0.4375 9.1875 0.4375 Z M 5.640625 -43.5 C 5.640625 -44.757812 5.972656 -45.847656 6.640625 -46.765625 C 7.304688 -47.691406 8.046875 -48.15625 8.859375 -48.15625 C 9.742188 -48.15625 10.484375 -47.601562 11.078125 -46.5 C 12.109375 -44.425781 12.234375 -42.816406 11.453125 -41.671875 C 10.679688 -40.535156 9.742188 -39.96875 8.640625 -39.96875 C 7.898438 -39.96875 7.210938 -40.257812 6.578125 -40.84375 C 5.953125 -41.4375 5.640625 -42.320312 5.640625 -43.5 Z M 5.640625 -43.5 "/></g></g></g><g fill="#efe1ff" fill-opacity="1"><g transform="translate(199.583562, 108.779969)"><g><path d="M 5.875 -8.96875 C 4.320312 -8.96875 3.226562 -9.738281 2.59375 -11.28125 C 1.96875 -12.832031 1.691406 -14.753906 1.765625 -17.046875 C 1.835938 -19.335938 2.132812 -21.625 2.65625 -23.90625 C 3.175781 -26.195312 3.820312 -28.117188 4.59375 -29.671875 C 5.363281 -31.222656 6.15625 -32 6.96875 -32 C 8.375 -32 9.207031 -31.679688 9.46875 -31.046875 C 9.726562 -30.421875 9.671875 -29.441406 9.296875 -28.109375 C 8.929688 -26.785156 8.507812 -25.109375 8.03125 -23.078125 C 7.550781 -21.046875 7.3125 -18.628906 7.3125 -15.828125 C 7.457031 -15.972656 7.566406 -16.082031 7.640625 -16.15625 C 7.710938 -16.226562 7.785156 -16.304688 7.859375 -16.390625 L 13.0625 -25.125 C 13.507812 -25.863281 14.117188 -26.84375 14.890625 -28.0625 C 15.660156 -29.28125 16.503906 -30.382812 17.421875 -31.375 C 18.347656 -32.375 19.253906 -32.875 20.140625 -32.875 C 21.835938 -32.875 22.945312 -32.003906 23.46875 -30.265625 C 23.988281 -28.535156 24.25 -26.785156 24.25 -25.015625 C 25.0625 -25.160156 26.054688 -25.84375 27.234375 -27.0625 C 28.410156 -28.28125 29.476562 -29.332031 30.4375 -30.21875 C 30.957031 -30.8125 31.421875 -31.328125 31.828125 -31.765625 C 32.234375 -32.210938 32.734375 -32.582031 33.328125 -32.875 C 34.054688 -33.25 34.71875 -33.4375 35.3125 -33.4375 C 36.050781 -33.4375 36.679688 -33.140625 37.203125 -32.546875 C 37.710938 -31.953125 38.003906 -30.863281 38.078125 -29.28125 C 38.148438 -27.695312 38.113281 -25.867188 37.96875 -23.796875 C 37.820312 -21.734375 37.65625 -19.664062 37.46875 -17.59375 C 37.289062 -15.53125 37.203125 -13.722656 37.203125 -12.171875 C 37.203125 -8.773438 37.476562 -6.394531 38.03125 -5.03125 C 38.582031 -3.664062 39.335938 -2.984375 40.296875 -2.984375 C 41.398438 -2.984375 42.632812 -3.722656 44 -5.203125 C 45.363281 -6.679688 46.726562 -8.414062 48.09375 -10.40625 C 49.46875 -12.394531 50.632812 -14.203125 51.59375 -15.828125 C 52.101562 -16.640625 52.597656 -17.453125 53.078125 -18.265625 C 53.554688 -19.078125 54.390625 -19.484375 55.578125 -19.484375 C 55.796875 -19.484375 56.035156 -19.332031 56.296875 -19.03125 C 56.554688 -18.738281 56.6875 -18.410156 56.6875 -18.046875 C 56.6875 -17.597656 56.460938 -16.96875 56.015625 -16.15625 C 55.578125 -15.34375 55.113281 -14.550781 54.625 -13.78125 C 54.144531 -13.007812 53.757812 -12.398438 53.46875 -11.953125 C 53.175781 -11.441406 52.914062 -11 52.6875 -10.625 C 52.46875 -10.257812 52.175781 -9.78125 51.8125 -9.1875 C 51.507812 -8.75 51.210938 -8.363281 50.921875 -8.03125 C 50.628906 -7.695312 50.296875 -7.234375 49.921875 -6.640625 C 48.523438 -4.578125 46.847656 -2.769531 44.890625 -1.21875 C 42.929688 0.332031 41.03125 1.109375 39.1875 1.109375 C 38.15625 1.109375 37.160156 0.773438 36.203125 0.109375 C 35.242188 -0.554688 34.46875 -1.703125 33.875 -3.328125 C 32.84375 -6.054688 32.34375 -8.929688 32.375 -11.953125 C 32.414062 -14.984375 32.65625 -17.9375 33.09375 -20.8125 C 33.539062 -23.6875 33.765625 -26.195312 33.765625 -28.34375 C 33.023438 -27.820312 32.117188 -26.96875 31.046875 -25.78125 C 29.984375 -24.601562 28.894531 -23.515625 27.78125 -22.515625 C 26.675781 -21.523438 25.609375 -21.03125 24.578125 -21.03125 C 22.878906 -21.03125 21.710938 -21.84375 21.078125 -23.46875 C 20.453125 -25.09375 20.140625 -26.71875 20.140625 -28.34375 C 18.890625 -27.53125 17.691406 -26.085938 16.546875 -24.015625 C 15.398438 -21.953125 14.253906 -19.773438 13.109375 -17.484375 C 11.972656 -15.203125 10.832031 -13.226562 9.6875 -11.5625 C 8.539062 -9.90625 7.34375 -9.039062 6.09375 -8.96875 Z M 5.875 -8.96875 "/></g></g></g><g fill="#efe1ff" fill-opacity="1"><g transform="translate(251.2786, 108.779969)"><g/></g></g><g fill="#efe1ff" fill-opacity="1"><g transform="translate(279.948877, 108.779969)"><g><path d="M 30.328125 51.140625 C 32.023438 51.140625 33.925781 50.566406 36.03125 49.421875 C 38.132812 48.285156 40.125 46.941406 42 45.390625 C 43.882812 43.835938 45.3125 42.398438 46.28125 41.078125 C 46.863281 40.335938 47.375 39.6875 47.8125 39.125 C 48.257812 38.570312 48.742188 37.929688 49.265625 37.203125 C 49.628906 36.460938 50.03125 35.773438 50.46875 35.140625 C 50.914062 34.515625 51.289062 33.832031 51.59375 33.09375 C 52.769531 30.8125 53.539062 28.820312 53.90625 27.125 C 54.28125 25.425781 54.445312 23.742188 54.40625 22.078125 C 54.375 20.421875 54.242188 18.5625 54.015625 16.5 C 53.503906 16.644531 53.097656 16.84375 52.796875 17.09375 C 52.503906 17.351562 52.101562 17.671875 51.59375 18.046875 C 51.289062 18.335938 50.972656 18.59375 50.640625 18.8125 C 50.316406 19.039062 49.96875 19.300781 49.59375 19.59375 L 43.609375 24.90625 C 41.617188 26.75 39.992188 28.242188 38.734375 29.390625 C 37.484375 30.535156 36.285156 31.734375 35.140625 32.984375 C 34.003906 34.242188 32.585938 36.015625 30.890625 38.296875 C 30.367188 38.960938 29.71875 39.882812 28.9375 41.0625 C 28.164062 42.25 27.484375 43.503906 26.890625 44.828125 C 26.304688 46.160156 26.015625 47.34375 26.015625 48.375 C 26.015625 49.707031 26.289062 50.5 26.84375 50.75 C 27.394531 51.007812 28.335938 51.140625 29.671875 51.140625 C 29.816406 51.140625 29.941406 51.140625 30.046875 51.140625 C 30.160156 51.140625 30.253906 51.140625 30.328125 51.140625 Z M 0 -13.171875 C 0 -17.160156 0.679688 -21.332031 2.046875 -25.6875 C 3.410156 -30.039062 5.144531 -34.316406 7.25 -38.515625 C 9.351562 -42.722656 11.472656 -46.488281 13.609375 -49.8125 C 14.578125 -51.582031 15.816406 -53.484375 17.328125 -55.515625 C 18.835938 -57.546875 20.421875 -59.554688 22.078125 -61.546875 C 23.742188 -63.546875 25.273438 -65.28125 26.671875 -66.75 C 29.179688 -69.1875 31.726562 -71.421875 34.3125 -73.453125 C 36.894531 -75.484375 39.679688 -77.125 42.671875 -78.375 C 45.660156 -79.632812 48.960938 -80.265625 52.578125 -80.265625 C 56.117188 -80.035156 59.015625 -78.6875 61.265625 -76.21875 C 63.523438 -73.75 65.207031 -70.703125 66.3125 -67.078125 C 67.414062 -63.460938 67.96875 -59.738281 67.96875 -55.90625 C 67.96875 -51.550781 67.523438 -47.125 66.640625 -42.625 C 65.753906 -38.125 64.796875 -33.914062 63.765625 -30 C 63.398438 -28.300781 63.015625 -26.804688 62.609375 -25.515625 C 62.203125 -24.222656 61.367188 -23.578125 60.109375 -23.578125 C 59.222656 -23.578125 58.742188 -24.238281 58.671875 -25.5625 C 58.597656 -26.894531 58.726562 -28.503906 59.0625 -30.390625 C 59.394531 -32.273438 59.765625 -34.023438 60.171875 -35.640625 C 60.578125 -37.265625 60.851562 -38.335938 61 -38.859375 C 61.507812 -42.023438 61.96875 -45.4375 62.375 -49.09375 C 62.78125 -52.75 62.835938 -56.382812 62.546875 -60 C 62.253906 -63.613281 61.332031 -66.898438 59.78125 -69.859375 C 58.675781 -71.992188 57.347656 -73.484375 55.796875 -74.328125 C 54.242188 -75.179688 52.582031 -75.609375 50.8125 -75.609375 C 49.257812 -75.609375 47.691406 -75.332031 46.109375 -74.78125 C 44.523438 -74.226562 42.992188 -73.546875 41.515625 -72.734375 C 40.484375 -72.066406 39.320312 -71.304688 38.03125 -70.453125 C 36.738281 -69.609375 35.648438 -68.742188 34.765625 -67.859375 C 34.242188 -67.347656 33.742188 -66.925781 33.265625 -66.59375 C 32.785156 -66.257812 32.285156 -65.796875 31.765625 -65.203125 L 18.703125 -49.59375 C 17.234375 -47.300781 16.070312 -45.398438 15.21875 -43.890625 C 14.375 -42.378906 13.4375 -40.664062 12.40625 -38.75 C 11.363281 -37.125 10.289062 -35.035156 9.1875 -32.484375 C 8.082031 -29.941406 7.125 -27.359375 6.3125 -24.734375 C 5.5 -22.117188 4.90625 -19.890625 4.53125 -18.046875 C 4.3125 -16.347656 4.164062 -14.6875 4.09375 -13.0625 C 4.019531 -11.4375 4.242188 -9.8125 4.765625 -8.1875 C 5.503906 -6.34375 6.867188 -5.03125 8.859375 -4.25 C 10.847656 -3.476562 13.0625 -3.019531 15.5 -2.875 C 17.9375 -2.726562 20.148438 -2.617188 22.140625 -2.546875 C 24.796875 -2.398438 27.191406 -2.304688 29.328125 -2.265625 C 31.472656 -2.234375 33.613281 -2.101562 35.75 -1.875 C 37.894531 -1.65625 40.257812 -1.101562 42.84375 -0.21875 C 44.320312 0.21875 45.960938 0.953125 47.765625 1.984375 C 49.578125 3.023438 51.21875 4.242188 52.6875 5.640625 C 54.164062 7.046875 55.09375 8.523438 55.46875 10.078125 C 57.082031 8.960938 58.957031 7.535156 61.09375 5.796875 C 63.238281 4.066406 65.398438 2.28125 67.578125 0.4375 C 69.753906 -1.40625 71.65625 -2.988281 73.28125 -4.3125 L 81.8125 -11.84375 C 82.550781 -12.582031 83.25 -13.207031 83.90625 -13.71875 C 84.570312 -14.238281 85.273438 -14.867188 86.015625 -15.609375 C 87.265625 -16.941406 88.203125 -17.828125 88.828125 -18.265625 C 89.460938 -18.710938 90 -18.9375 90.4375 -18.9375 C 90.738281 -18.9375 91 -18.894531 91.21875 -18.8125 C 91.4375 -18.738281 91.695312 -18.664062 92 -18.59375 C 92 -17.851562 92.070312 -17.410156 92.21875 -17.265625 C 92.363281 -17.117188 92.414062 -16.988281 92.375 -16.875 C 92.34375 -16.769531 92.085938 -16.515625 91.609375 -16.109375 C 91.128906 -15.703125 90.257812 -14.867188 89 -13.609375 C 86.570312 -11.253906 84.34375 -9.191406 82.3125 -7.421875 C 80.28125 -5.648438 78.117188 -3.65625 75.828125 -1.4375 L 68.75 4.3125 C 68.15625 4.757812 67.285156 5.441406 66.140625 6.359375 C 64.992188 7.285156 63.773438 8.265625 62.484375 9.296875 C 61.191406 10.328125 60.046875 11.265625 59.046875 12.109375 C 58.054688 12.960938 57.453125 13.578125 57.234375 13.953125 C 57.523438 15.128906 57.78125 16.328125 58 17.546875 C 58.226562 18.765625 58.34375 20.070312 58.34375 21.46875 C 58.34375 25.382812 57.4375 29.296875 55.625 33.203125 C 53.820312 37.117188 51.5 40.71875 48.65625 44 C 45.8125 47.289062 42.800781 49.910156 39.625 51.859375 C 36.457031 53.816406 33.507812 54.796875 30.78125 54.796875 C 29.738281 54.796875 28.570312 54.6875 27.28125 54.46875 C 25.988281 54.25 24.863281 53.785156 23.90625 53.078125 C 22.945312 52.378906 22.46875 51.253906 22.46875 49.703125 C 22.46875 46.972656 22.925781 44.609375 23.84375 42.609375 C 24.769531 40.617188 26.046875 38.519531 27.671875 36.3125 C 30.109375 32.914062 32.65625 29.960938 35.3125 27.453125 C 37.96875 24.941406 40.773438 22.394531 43.734375 19.8125 L 52.578125 12.515625 C 50.585938 8.742188 48.078125 6.140625 45.046875 4.703125 C 42.023438 3.265625 38.335938 2.285156 33.984375 1.765625 L 25.015625 1.109375 C 21.546875 1.035156 18.316406 0.960938 15.328125 0.890625 C 12.335938 0.816406 9.585938 0.296875 7.078125 -0.671875 C 4.722656 -1.554688 2.953125 -3.066406 1.765625 -5.203125 C 0.585938 -7.335938 0 -9.992188 0 -13.171875 Z M 0 -13.171875 "/></g></g></g><g fill="#efe1ff" fill-opacity="1"><g transform="translate(368.062906, 108.779969)"><g><path d="M 0.109375 -13.5 C 0.109375 -15.125 0.347656 -16.929688 0.828125 -18.921875 C 1.304688 -20.921875 1.929688 -22.859375 2.703125 -24.734375 C 3.484375 -26.617188 4.316406 -28.15625 5.203125 -29.34375 C 6.015625 -30.226562 6.828125 -30.671875 7.640625 -30.671875 C 8.304688 -30.671875 8.96875 -30.484375 9.625 -30.109375 C 9.695312 -29.742188 9.789062 -29.484375 9.90625 -29.328125 C 10.019531 -29.179688 10.078125 -28.851562 10.078125 -28.34375 C 10.078125 -28.269531 9.742188 -27.566406 9.078125 -26.234375 C 8.410156 -24.910156 7.6875 -23.25 6.90625 -21.25 C 6.132812 -19.257812 5.507812 -17.15625 5.03125 -14.9375 C 4.550781 -12.726562 4.535156 -10.703125 4.984375 -8.859375 C 5.867188 -9.148438 6.640625 -9.71875 7.296875 -10.5625 C 7.960938 -11.414062 8.554688 -12.210938 9.078125 -12.953125 L 15.71875 -22.6875 C 16.457031 -23.726562 17.082031 -24.632812 17.59375 -25.40625 C 18.113281 -26.175781 18.890625 -26.5625 19.921875 -26.5625 C 20.953125 -26.5625 21.5625 -25.914062 21.75 -24.625 C 21.9375 -23.332031 21.972656 -21.875 21.859375 -20.25 C 21.753906 -18.632812 21.738281 -17.347656 21.8125 -16.390625 C 22.175781 -13.734375 22.742188 -11.867188 23.515625 -10.796875 C 24.296875 -9.722656 25.203125 -9.1875 26.234375 -9.1875 C 27.492188 -9.1875 28.820312 -9.703125 30.21875 -10.734375 C 31.625 -11.765625 33.023438 -12.960938 34.421875 -14.328125 C 35.828125 -15.703125 37.066406 -16.90625 38.140625 -17.9375 C 39.210938 -18.96875 40.003906 -19.484375 40.515625 -19.484375 C 40.960938 -19.484375 41.367188 -19.390625 41.734375 -19.203125 C 42.097656 -19.023438 42.28125 -18.640625 42.28125 -18.046875 C 42.28125 -17.453125 41.835938 -16.65625 40.953125 -15.65625 C 40.066406 -14.664062 39.109375 -13.707031 38.078125 -12.78125 C 37.046875 -11.863281 36.3125 -11.179688 35.875 -10.734375 C 34.394531 -9.335938 32.785156 -8.140625 31.046875 -7.140625 C 29.316406 -6.140625 27.601562 -5.640625 25.90625 -5.640625 C 24.0625 -5.640625 22.617188 -6.140625 21.578125 -7.140625 C 20.546875 -8.140625 19.789062 -9.394531 19.3125 -10.90625 C 18.832031 -12.414062 18.519531 -14 18.375 -15.65625 C 18.226562 -17.320312 18.15625 -18.816406 18.15625 -20.140625 C 17.707031 -19.847656 17.171875 -19.203125 16.546875 -18.203125 C 15.921875 -17.210938 15.425781 -16.421875 15.0625 -15.828125 C 14.613281 -15.085938 13.984375 -14.070312 13.171875 -12.78125 C 12.359375 -11.488281 11.453125 -10.195312 10.453125 -8.90625 C 9.460938 -7.613281 8.46875 -6.523438 7.46875 -5.640625 C 6.476562 -4.753906 5.539062 -4.3125 4.65625 -4.3125 C 2.957031 -4.3125 1.789062 -4.8125 1.15625 -5.8125 C 0.53125 -6.8125 0.195312 -8.03125 0.15625 -9.46875 C 0.125 -10.90625 0.109375 -12.25 0.109375 -13.5 Z M 0.109375 -13.5 "/></g></g></g><g fill="#efe1ff" fill-opacity="1"><g transform="translate(405.478145, 108.779969)"><g><path d="M 0 -15.171875 C 0 -16.492188 0.273438 -18.039062 0.828125 -19.8125 C 1.378906 -21.582031 2.15625 -23.316406 3.15625 -25.015625 C 4.15625 -26.710938 5.335938 -28.132812 6.703125 -29.28125 C 8.066406 -30.425781 9.5625 -31 11.1875 -31 C 13.539062 -31 14.71875 -29.519531 14.71875 -26.5625 C 14.71875 -24.644531 14.238281 -23.6875 13.28125 -23.6875 C 12.175781 -23.6875 11.515625 -24.644531 11.296875 -26.5625 C 10.035156 -25.675781 8.832031 -24.160156 7.6875 -22.015625 C 6.550781 -19.878906 5.796875 -17.59375 5.421875 -15.15625 C 5.054688 -12.726562 5.316406 -10.59375 6.203125 -8.75 C 6.566406 -7.789062 7.097656 -6.976562 7.796875 -6.3125 C 8.503906 -5.644531 9.519531 -5.3125 10.84375 -5.3125 C 13.425781 -5.3125 15.804688 -6.03125 17.984375 -7.46875 C 20.160156 -8.90625 22.148438 -10.640625 23.953125 -12.671875 C 25.765625 -14.703125 27.335938 -16.640625 28.671875 -18.484375 C 29.484375 -19.585938 30.222656 -20.140625 30.890625 -20.140625 C 31.398438 -20.140625 31.765625 -19.878906 31.984375 -19.359375 C 32.210938 -18.847656 32.140625 -18.222656 31.765625 -17.484375 C 31.617188 -17.117188 31.378906 -16.710938 31.046875 -16.265625 C 30.710938 -15.828125 30.398438 -15.425781 30.109375 -15.0625 C 28.554688 -13.132812 26.785156 -11.140625 24.796875 -9.078125 C 22.804688 -7.015625 20.628906 -5.257812 18.265625 -3.8125 C 15.898438 -2.375 13.390625 -1.65625 10.734375 -1.65625 C 8.222656 -1.65625 6.175781 -2.300781 4.59375 -3.59375 C 3.007812 -4.882812 1.847656 -6.5625 1.109375 -8.625 C 0.367188 -10.695312 0 -12.878906 0 -15.171875 Z M 0 -15.171875 "/></g></g></g><g fill="#efe1ff" fill-opacity="1"><g transform="translate(432.266578, 108.779969)"><g><path d="M 0 -15.171875 C 0 -16.492188 0.273438 -18.039062 0.828125 -19.8125 C 1.378906 -21.582031 2.15625 -23.316406 3.15625 -25.015625 C 4.15625 -26.710938 5.335938 -28.132812 6.703125 -29.28125 C 8.066406 -30.425781 9.5625 -31 11.1875 -31 C 13.539062 -31 14.71875 -29.519531 14.71875 -26.5625 C 14.71875 -24.644531 14.238281 -23.6875 13.28125 -23.6875 C 12.175781 -23.6875 11.515625 -24.644531 11.296875 -26.5625 C 10.035156 -25.675781 8.832031 -24.160156 7.6875 -22.015625 C 6.550781 -19.878906 5.796875 -17.59375 5.421875 -15.15625 C 5.054688 -12.726562 5.316406 -10.59375 6.203125 -8.75 C 6.566406 -7.789062 7.097656 -6.976562 7.796875 -6.3125 C 8.503906 -5.644531 9.519531 -5.3125 10.84375 -5.3125 C 13.425781 -5.3125 15.804688 -6.03125 17.984375 -7.46875 C 20.160156 -8.90625 22.148438 -10.640625 23.953125 -12.671875 C 25.765625 -14.703125 27.335938 -16.640625 28.671875 -18.484375 C 29.484375 -19.585938 30.222656 -20.140625 30.890625 -20.140625 C 31.398438 -20.140625 31.765625 -19.878906 31.984375 -19.359375 C 32.210938 -18.847656 32.140625 -18.222656 31.765625 -17.484375 C 31.617188 -17.117188 31.378906 -16.710938 31.046875 -16.265625 C 30.710938 -15.828125 30.398438 -15.425781 30.109375 -15.0625 C 28.554688 -13.132812 26.785156 -11.140625 24.796875 -9.078125 C 22.804688 -7.015625 20.628906 -5.257812 18.265625 -3.8125 C 15.898438 -2.375 13.390625 -1.65625 10.734375 -1.65625 C 8.222656 -1.65625 6.175781 -2.300781 4.59375 -3.59375 C 3.007812 -4.882812 1.847656 -6.5625 1.109375 -8.625 C 0.367188 -10.695312 0 -12.878906 0 -15.171875 Z M 0 -15.171875 "/></g></g></g><g fill="#efe1ff" fill-opacity="1"><g transform="translate(459.055012, 108.779969)"><g><path d="M 5.09375 -20.03125 C 6.5 -20.769531 8.046875 -21.785156 9.734375 -23.078125 C 11.429688 -24.367188 12.359375 -25.898438 12.515625 -27.671875 C 11.554688 -27.523438 10.539062 -27.007812 9.46875 -26.125 C 8.394531 -25.238281 7.46875 -24.238281 6.6875 -23.125 C 5.914062 -22.019531 5.382812 -20.988281 5.09375 -20.03125 Z M 0.109375 -17.375 C 0.109375 -19.21875 0.71875 -21.207031 1.9375 -23.34375 C 3.15625 -25.488281 4.664062 -27.316406 6.46875 -28.828125 C 8.28125 -30.347656 10.070312 -31.109375 11.84375 -31.109375 C 14.28125 -31.109375 15.550781 -30.1875 15.65625 -28.34375 C 15.769531 -26.5 14.976562 -24.503906 13.28125 -22.359375 C 12.394531 -21.398438 11.066406 -20.289062 9.296875 -19.03125 C 7.523438 -17.78125 5.789062 -17.082031 4.09375 -16.9375 C 4.09375 -15.757812 4.128906 -14.707031 4.203125 -13.78125 C 4.273438 -12.863281 4.789062 -11.921875 5.75 -10.953125 C 6.71875 -9.992188 7.9375 -9.515625 9.40625 -9.515625 C 11.320312 -9.515625 13.3125 -10.125 15.375 -11.34375 C 17.445312 -12.5625 19.035156 -13.578125 20.140625 -14.390625 C 20.585938 -14.753906 20.941406 -15.046875 21.203125 -15.265625 C 21.460938 -15.492188 21.773438 -15.753906 22.140625 -16.046875 C 23.691406 -17.234375 24.671875 -18.101562 25.078125 -18.65625 C 25.484375 -19.207031 25.832031 -19.570312 26.125 -19.75 C 26.414062 -19.9375 27.117188 -20.03125 28.234375 -20.03125 C 28.378906 -19.21875 28.429688 -18.664062 28.390625 -18.375 C 28.359375 -18.082031 28.082031 -17.640625 27.5625 -17.046875 C 26.238281 -15.722656 24.5625 -14.210938 22.53125 -12.515625 C 20.5 -10.816406 18.320312 -9.335938 16 -8.078125 C 13.675781 -6.828125 11.367188 -6.203125 9.078125 -6.203125 C 7.898438 -6.203125 6.773438 -6.40625 5.703125 -6.8125 C 4.628906 -7.21875 3.613281 -7.898438 2.65625 -8.859375 C 1.332031 -10.179688 0.578125 -11.546875 0.390625 -12.953125 C 0.203125 -14.359375 0.109375 -15.832031 0.109375 -17.375 Z M 0.109375 -17.375 "/></g></g></g><g fill="#efe1ff" fill-opacity="1"><g transform="translate(483.076049, 108.779969)"><g><path d="M 1.328125 18.265625 C 1.328125 19.816406 1.804688 20.59375 2.765625 20.59375 C 3.285156 20.59375 3.835938 20.40625 4.421875 20.03125 C 5.015625 19.664062 5.5 19.335938 5.875 19.046875 C 7.34375 17.929688 8.648438 16.25 9.796875 14 C 10.941406 11.75 11.769531 9.703125 12.28125 7.859375 C 12.65625 6.609375 12.859375 5.335938 12.890625 4.046875 C 12.929688 2.753906 12.953125 1.332031 12.953125 -0.21875 C 12.066406 0.289062 11.050781 1.191406 9.90625 2.484375 C 8.757812 3.773438 7.859375 4.828125 7.203125 5.640625 C 5.867188 7.265625 4.554688 9.21875 3.265625 11.5 C 1.972656 13.789062 1.328125 16.046875 1.328125 18.265625 Z M 0.328125 -17.9375 C 0.328125 -19.851562 0.84375 -21.566406 1.875 -23.078125 C 2.914062 -24.585938 4.15625 -25.804688 5.59375 -26.734375 C 7.03125 -27.660156 8.265625 -28.125 9.296875 -28.125 C 10.109375 -28.125 10.71875 -27.828125 11.125 -27.234375 C 11.53125 -26.640625 11.550781 -25.644531 11.1875 -24.25 C 10.300781 -24.019531 9.671875 -23.882812 9.296875 -23.84375 C 8.929688 -23.8125 8.632812 -23.703125 8.40625 -23.515625 C 8.1875 -23.335938 7.785156 -22.914062 7.203125 -22.25 C 5.722656 -20.625 5.035156 -19.3125 5.140625 -18.3125 C 5.253906 -17.320312 5.847656 -16.398438 6.921875 -15.546875 C 7.992188 -14.703125 9.320312 -13.648438 10.90625 -12.390625 C 12.488281 -11.140625 13.984375 -9.445312 15.390625 -7.3125 C 17.015625 -8.414062 18.675781 -9.707031 20.375 -11.1875 L 30.671875 -18.375 C 31.628906 -19.039062 32.457031 -19.5 33.15625 -19.75 C 33.851562 -20.007812 34.460938 -20.140625 34.984375 -20.140625 C 35.867188 -20.140625 36.238281 -19.769531 36.09375 -19.03125 C 35.945312 -18.300781 35.242188 -17.566406 33.984375 -16.828125 L 26.453125 -11.625 C 26.160156 -11.476562 25.535156 -11.050781 24.578125 -10.34375 C 23.617188 -9.644531 22.566406 -8.867188 21.421875 -8.015625 C 20.273438 -7.171875 19.296875 -6.378906 18.484375 -5.640625 C 17.671875 -4.898438 17.226562 -4.421875 17.15625 -4.203125 C 17.082031 -3.835938 17.191406 -3.132812 17.484375 -2.09375 C 17.785156 -1.0625 17.988281 0.28125 18.09375 1.9375 C 18.207031 3.59375 17.988281 5.617188 17.4375 8.015625 C 16.882812 10.421875 15.6875 13.210938 13.84375 16.390625 C 12.21875 19.117188 10.441406 21.128906 8.515625 22.421875 C 6.597656 23.710938 4.789062 24.359375 3.09375 24.359375 C 1.550781 24.359375 0.28125 23.835938 -0.71875 22.796875 C -1.71875 21.765625 -2.21875 20.253906 -2.21875 18.265625 C -2.21875 15.753906 -1.609375 13.316406 -0.390625 10.953125 C 0.828125 8.597656 2.285156 6.421875 3.984375 4.421875 C 5.679688 2.429688 7.25 0.71875 8.6875 -0.71875 C 10.125 -2.15625 11.066406 -3.207031 11.515625 -3.875 C 10.628906 -5.425781 9.554688 -6.769531 8.296875 -7.90625 C 7.046875 -9.050781 5.8125 -10.101562 4.59375 -11.0625 C 3.375 -12.03125 2.359375 -13.046875 1.546875 -14.109375 C 0.734375 -15.179688 0.328125 -16.457031 0.328125 -17.9375 Z M 0.328125 -17.9375 "/></g></g></g><g fill="#efe1ff" fill-opacity="1"><g transform="translate(515.067207, 108.779969)"><g><path d="M 1.328125 18.265625 C 1.328125 19.816406 1.804688 20.59375 2.765625 20.59375 C 3.285156 20.59375 3.835938 20.40625 4.421875 20.03125 C 5.015625 19.664062 5.5 19.335938 5.875 19.046875 C 7.34375 17.929688 8.648438 16.25 9.796875 14 C 10.941406 11.75 11.769531 9.703125 12.28125 7.859375 C 12.65625 6.609375 12.859375 5.335938 12.890625 4.046875 C 12.929688 2.753906 12.953125 1.332031 12.953125 -0.21875 C 12.066406 0.289062 11.050781 1.191406 9.90625 2.484375 C 8.757812 3.773438 7.859375 4.828125 7.203125 5.640625 C 5.867188 7.265625 4.554688 9.21875 3.265625 11.5 C 1.972656 13.789062 1.328125 16.046875 1.328125 18.265625 Z M 0.328125 -17.9375 C 0.328125 -19.851562 0.84375 -21.566406 1.875 -23.078125 C 2.914062 -24.585938 4.15625 -25.804688 5.59375 -26.734375 C 7.03125 -27.660156 8.265625 -28.125 9.296875 -28.125 C 10.109375 -28.125 10.71875 -27.828125 11.125 -27.234375 C 11.53125 -26.640625 11.550781 -25.644531 11.1875 -24.25 C 10.300781 -24.019531 9.671875 -23.882812 9.296875 -23.84375 C 8.929688 -23.8125 8.632812 -23.703125 8.40625 -23.515625 C 8.1875 -23.335938 7.785156 -22.914062 7.203125 -22.25 C 5.722656 -20.625 5.035156 -19.3125 5.140625 -18.3125 C 5.253906 -17.320312 5.847656 -16.398438 6.921875 -15.546875 C 7.992188 -14.703125 9.320312 -13.648438 10.90625 -12.390625 C 12.488281 -11.140625 13.984375 -9.445312 15.390625 -7.3125 C 17.015625 -8.414062 18.675781 -9.707031 20.375 -11.1875 L 30.671875 -18.375 C 31.628906 -19.039062 32.457031 -19.5 33.15625 -19.75 C 33.851562 -20.007812 34.460938 -20.140625 34.984375 -20.140625 C 35.867188 -20.140625 36.238281 -19.769531 36.09375 -19.03125 C 35.945312 -18.300781 35.242188 -17.566406 33.984375 -16.828125 L 26.453125 -11.625 C 26.160156 -11.476562 25.535156 -11.050781 24.578125 -10.34375 C 23.617188 -9.644531 22.566406 -8.867188 21.421875 -8.015625 C 20.273438 -7.171875 19.296875 -6.378906 18.484375 -5.640625 C 17.671875 -4.898438 17.226562 -4.421875 17.15625 -4.203125 C 17.082031 -3.835938 17.191406 -3.132812 17.484375 -2.09375 C 17.785156 -1.0625 17.988281 0.28125 18.09375 1.9375 C 18.207031 3.59375 17.988281 5.617188 17.4375 8.015625 C 16.882812 10.421875 15.6875 13.210938 13.84375 16.390625 C 12.21875 19.117188 10.441406 21.128906 8.515625 22.421875 C 6.597656 23.710938 4.789062 24.359375 3.09375 24.359375 C 1.550781 24.359375 0.28125 23.835938 -0.71875 22.796875 C -1.71875 21.765625 -2.21875 20.253906 -2.21875 18.265625 C -2.21875 15.753906 -1.609375 13.316406 -0.390625 10.953125 C 0.828125 8.597656 2.285156 6.421875 3.984375 4.421875 C 5.679688 2.429688 7.25 0.71875 8.6875 -0.71875 C 10.125 -2.15625 11.066406 -3.207031 11.515625 -3.875 C 10.628906 -5.425781 9.554688 -6.769531 8.296875 -7.90625 C 7.046875 -9.050781 5.8125 -10.101562 4.59375 -11.0625 C 3.375 -12.03125 2.359375 -13.046875 1.546875 -14.109375 C 0.734375 -15.179688 0.328125 -16.457031 0.328125 -17.9375 Z M 0.328125 -17.9375 "/></g></g></g><g fill="#efe1ff" fill-opacity="1"><g transform="translate(547.058334, 108.779969)"><g/></g></g><g fill="#efe1ff" fill-opacity="1"><g transform="translate(575.728611, 108.779969)"><g><path d="M 29.5625 10.953125 C 34.5 10.953125 39.21875 9.863281 43.71875 7.6875 C 48.226562 5.507812 52.363281 2.742188 56.125 -0.609375 C 59.882812 -3.960938 63.054688 -7.410156 65.640625 -10.953125 C 68.671875 -14.867188 71.328125 -19.207031 73.609375 -23.96875 C 75.898438 -28.726562 77.691406 -33.671875 78.984375 -38.796875 C 80.273438 -43.929688 80.921875 -48.929688 80.921875 -53.796875 C 80.921875 -57.859375 80.347656 -61.601562 79.203125 -65.03125 C 78.066406 -68.46875 76.40625 -71.21875 74.21875 -73.28125 C 72.039062 -75.351562 69.40625 -76.390625 66.3125 -76.390625 C 62.914062 -76.390625 59.738281 -75.375 56.78125 -73.34375 C 53.832031 -71.3125 51.125 -68.707031 48.65625 -65.53125 C 46.1875 -62.363281 44.046875 -59.082031 42.234375 -55.6875 C 40.421875 -52.289062 39 -49.265625 37.96875 -46.609375 L 33.65625 -35.09375 C 32.320312 -31.101562 31.023438 -26.945312 29.765625 -22.625 C 28.515625 -18.3125 27.484375 -14.164062 26.671875 -10.1875 C 26.523438 -9.226562 26.265625 -7.804688 25.890625 -5.921875 C 25.523438 -4.035156 25.140625 -2.046875 24.734375 0.046875 C 24.335938 2.148438 24.007812 4.109375 23.75 5.921875 C 23.488281 7.734375 23.359375 9.046875 23.359375 9.859375 C 23.953125 10.148438 24.894531 10.40625 26.1875 10.625 C 27.476562 10.84375 28.601562 10.953125 29.5625 10.953125 Z M 23.359375 -12.171875 C 23.359375 -12.242188 23.375 -12.28125 23.40625 -12.28125 C 23.445312 -12.28125 23.46875 -12.320312 23.46875 -12.40625 L 24.796875 -17.71875 C 25.753906 -21.695312 26.988281 -26.160156 28.5 -31.109375 C 30.019531 -36.054688 31.773438 -41.019531 33.765625 -46 C 35.753906 -50.976562 37.984375 -55.644531 40.453125 -60 C 42.929688 -64.351562 45.570312 -67.929688 48.375 -70.734375 C 51.03125 -73.390625 53.742188 -75.640625 56.515625 -77.484375 C 59.285156 -79.335938 62.625 -80.265625 66.53125 -80.265625 C 69.5625 -80.265625 72.289062 -79.503906 74.71875 -77.984375 C 77.15625 -76.472656 79.222656 -74.390625 80.921875 -71.734375 C 82.910156 -68.554688 84.238281 -65.066406 84.90625 -61.265625 C 85.570312 -57.472656 85.71875 -53.5625 85.34375 -49.53125 C 84.976562 -45.507812 84.316406 -41.582031 83.359375 -37.75 C 82.398438 -33.914062 81.332031 -30.445312 80.15625 -27.34375 C 78.382812 -22.46875 75.800781 -17.539062 72.40625 -12.5625 C 69.007812 -7.582031 65.078125 -2.988281 60.609375 1.21875 C 56.140625 5.425781 51.285156 8.800781 46.046875 11.34375 C 40.804688 13.894531 35.421875 15.171875 29.890625 15.171875 C 28.117188 15.171875 26.695312 15.003906 25.625 14.671875 C 24.550781 14.335938 23.5 14.132812 22.46875 14.0625 L 20.921875 32.109375 C 20.773438 32.992188 20.664062 34.445312 20.59375 36.46875 C 20.519531 38.5 20.445312 40.53125 20.375 42.5625 C 20.300781 44.59375 20.1875 46.160156 20.03125 47.265625 C 19.882812 49.035156 19.773438 50.734375 19.703125 52.359375 C 19.628906 53.984375 19.460938 55.3125 19.203125 56.34375 C 18.941406 57.375 18.332031 57.890625 17.375 57.890625 C 16.789062 57.890625 16.203125 57.742188 15.609375 57.453125 C 15.316406 56.347656 15.148438 54.445312 15.109375 51.75 C 15.078125 49.0625 15.097656 46.128906 15.171875 42.953125 C 15.242188 39.773438 15.332031 36.785156 15.4375 33.984375 C 15.550781 31.179688 15.609375 29.078125 15.609375 27.671875 C 15.609375 26.046875 15.660156 24.601562 15.765625 23.34375 C 15.878906 22.09375 15.9375 20.769531 15.9375 19.375 C 15.9375 17.675781 15.972656 16.269531 16.046875 15.15625 C 16.117188 14.050781 16.15625 12.765625 16.15625 11.296875 C 15.789062 10.921875 15.367188 10.585938 14.890625 10.296875 C 14.410156 10.003906 13.945312 9.707031 13.5 9.40625 C 12.175781 8.445312 11.550781 7.488281 11.625 6.53125 C 11.695312 5.570312 12.140625 5.09375 12.953125 5.09375 C 13.472656 5.09375 13.914062 5.238281 14.28125 5.53125 C 14.800781 5.832031 15.207031 6.09375 15.5 6.3125 C 15.789062 6.53125 16.007812 6.640625 16.15625 6.640625 C 16.457031 6.640625 16.585938 6.234375 16.546875 5.421875 C 16.515625 4.609375 16.535156 3.171875 16.609375 1.109375 C 16.609375 0.148438 16.660156 -0.507812 16.765625 -0.875 C 16.878906 -1.25 16.9375 -1.878906 16.9375 -2.765625 C 17.007812 -3.503906 17.023438 -4.257812 16.984375 -5.03125 C 16.953125 -5.8125 16.972656 -6.570312 17.046875 -7.3125 C 17.117188 -8.125 17.191406 -8.785156 17.265625 -9.296875 C 17.335938 -9.816406 17.375 -10.554688 17.375 -11.515625 C 17.375 -13.796875 17.445312 -16.488281 17.59375 -19.59375 C 17.75 -22.695312 17.914062 -25.796875 18.09375 -28.890625 C 18.28125 -31.992188 18.375 -34.722656 18.375 -37.078125 C 18.375 -38.554688 18.425781 -40.53125 18.53125 -43 C 18.644531 -45.476562 18.703125 -48.097656 18.703125 -50.859375 C 18.703125 -53.628906 18.628906 -56.210938 18.484375 -58.609375 C 18.335938 -61.015625 17.96875 -62.804688 17.375 -63.984375 C 16.5625 -63.472656 15.785156 -62.570312 15.046875 -61.28125 C 14.316406 -59.988281 13.632812 -58.601562 13 -57.125 C 12.375 -55.644531 11.84375 -54.351562 11.40625 -53.25 C 10.738281 -51.40625 10.144531 -49.207031 9.625 -46.65625 C 9.113281 -44.113281 8.671875 -41.882812 8.296875 -39.96875 C 8.003906 -37.457031 7.910156 -34.890625 8.015625 -32.265625 C 8.128906 -29.648438 8.375 -27.234375 8.75 -25.015625 C 9.257812 -22.503906 9.8125 -20.75 10.40625 -19.75 C 11 -18.757812 11.550781 -18.113281 12.0625 -17.8125 C 12.582031 -17.519531 12.914062 -17.15625 13.0625 -16.71875 C 13.425781 -16.195312 13.460938 -15.710938 13.171875 -15.265625 C 12.878906 -14.828125 12.4375 -14.609375 11.84375 -14.609375 C 11.175781 -14.609375 10.378906 -14.976562 9.453125 -15.71875 C 8.535156 -16.457031 7.671875 -17.75 6.859375 -19.59375 C 6.046875 -21.8125 5.53125 -23.75 5.3125 -25.40625 C 5.09375 -27.0625 4.832031 -29.035156 4.53125 -31.328125 C 4.457031 -32.066406 4.476562 -32.675781 4.59375 -33.15625 C 4.707031 -33.632812 4.765625 -34.351562 4.765625 -35.3125 C 4.765625 -39.375 5.1875 -43.320312 6.03125 -47.15625 C 6.882812 -51 8.007812 -54.691406 9.40625 -58.234375 C 9.851562 -59.265625 10.460938 -60.59375 11.234375 -62.21875 C 12.015625 -63.84375 12.9375 -65.300781 14 -66.59375 C 15.070312 -67.882812 16.195312 -68.53125 17.375 -68.53125 C 18.925781 -68.53125 20.144531 -67.863281 21.03125 -66.53125 C 21.914062 -65.207031 22.5625 -63.53125 22.96875 -61.5 C 23.375 -59.46875 23.628906 -57.328125 23.734375 -55.078125 C 23.847656 -52.828125 23.90625 -50.78125 23.90625 -48.9375 C 23.90625 -42.582031 23.8125 -36.34375 23.625 -30.21875 C 23.445312 -24.09375 23.359375 -18.078125 23.359375 -12.171875 Z M 23.359375 -12.171875 "/></g></g></g><g fill="#efe1ff" fill-opacity="1"><g transform="translate(661.518023, 108.779969)"><g><path d="M 0 -11.1875 C 0 -12.726562 0.367188 -14.644531 1.109375 -16.9375 C 1.847656 -19.226562 2.878906 -21.5 4.203125 -23.75 C 5.535156 -26 7.066406 -27.859375 8.796875 -29.328125 C 10.535156 -30.804688 12.363281 -31.546875 14.28125 -31.546875 C 16.050781 -31.546875 17.488281 -31.03125 18.59375 -30 C 19.707031 -28.96875 20.375 -27.914062 20.59375 -26.84375 C 20.8125 -25.769531 20.441406 -25.234375 19.484375 -25.234375 C 18.742188 -25.234375 17.984375 -25.65625 17.203125 -26.5 C 16.429688 -27.351562 15.53125 -27.78125 14.5 -27.78125 C 13.6875 -27.78125 12.707031 -27.300781 11.5625 -26.34375 C 10.425781 -25.382812 9.046875 -23.503906 7.421875 -20.703125 C 6.679688 -19.523438 5.992188 -17.992188 5.359375 -16.109375 C 4.734375 -14.222656 4.421875 -12.359375 4.421875 -10.515625 C 4.578125 -10.660156 4.632812 -10.710938 4.59375 -10.671875 C 4.550781 -10.640625 4.679688 -10.773438 4.984375 -11.078125 L 5.875 -12.40625 C 6.457031 -13.289062 7.132812 -14.429688 7.90625 -15.828125 C 8.6875 -17.234375 9.484375 -18.65625 10.296875 -20.09375 C 11.109375 -21.53125 11.84375 -22.742188 12.5 -23.734375 C 13.164062 -24.734375 13.6875 -25.234375 14.0625 -25.234375 C 15.382812 -25.234375 16.15625 -24.753906 16.375 -23.796875 C 16.601562 -22.835938 16.695312 -21.65625 16.65625 -20.25 C 16.625 -18.851562 16.753906 -17.453125 17.046875 -16.046875 C 17.492188 -14.054688 18.175781 -12.597656 19.09375 -11.671875 C 20.019531 -10.753906 21.070312 -10.296875 22.25 -10.296875 C 24.3125 -10.296875 26.597656 -11.550781 29.109375 -14.0625 C 30.148438 -15.019531 30.890625 -15.8125 31.328125 -16.4375 C 31.773438 -17.0625 32.363281 -17.78125 33.09375 -18.59375 C 33.613281 -19.332031 34.28125 -19.703125 35.09375 -19.703125 C 35.90625 -19.703125 36.253906 -19.019531 36.140625 -17.65625 C 36.035156 -16.289062 34.578125 -14.242188 31.765625 -11.515625 L 28.453125 -8.859375 C 26.304688 -7.378906 24.238281 -6.640625 22.25 -6.640625 C 20.40625 -6.640625 18.800781 -7.191406 17.4375 -8.296875 C 16.070312 -9.410156 15.019531 -10.773438 14.28125 -12.390625 C 13.539062 -14.015625 13.171875 -15.601562 13.171875 -17.15625 C 12.660156 -16.789062 12.070312 -15.976562 11.40625 -14.71875 C 10.738281 -13.46875 10.015625 -12.125 9.234375 -10.6875 C 8.460938 -9.25 7.671875 -7.992188 6.859375 -6.921875 C 6.046875 -5.847656 5.234375 -5.3125 4.421875 -5.3125 C 2.359375 -5.3125 1.101562 -5.789062 0.65625 -6.75 C 0.21875 -7.707031 0 -9.1875 0 -11.1875 Z M 0 -11.1875 "/></g></g></g><g fill="#efe1ff" fill-opacity="1"><g transform="translate(693.619859, 108.779969)"><g><path d="M -31.109375 -49.375 C -31.109375 -50.332031 -30.222656 -51.34375 -28.453125 -52.40625 C -26.679688 -53.476562 -24.445312 -54.53125 -21.75 -55.5625 C -19.0625 -56.601562 -16.222656 -57.582031 -13.234375 -58.5 C -10.242188 -59.425781 -7.492188 -60.222656 -4.984375 -60.890625 C -2.472656 -61.554688 -0.585938 -62.070312 0.671875 -62.4375 C 2.210938 -62.875 3.296875 -63.128906 3.921875 -63.203125 C 4.554688 -63.285156 4.960938 -63.53125 5.140625 -63.9375 C 5.328125 -64.34375 5.53125 -65.171875 5.75 -66.421875 C 6.34375 -69.441406 7.023438 -71.523438 7.796875 -72.671875 C 8.578125 -73.816406 9.335938 -74.390625 10.078125 -74.390625 C 10.660156 -74.390625 11.15625 -74.078125 11.5625 -73.453125 C 11.96875 -72.828125 12.171875 -72.070312 12.171875 -71.1875 C 12.171875 -70.519531 12.132812 -70.238281 12.0625 -70.34375 C 11.988281 -70.457031 11.988281 -70.21875 12.0625 -69.625 C 12.0625 -69.476562 12.078125 -69.296875 12.109375 -69.078125 C 12.148438 -68.859375 12.171875 -68.5625 12.171875 -68.1875 C 12.171875 -67.226562 11.988281 -66.75 11.625 -66.75 C 11.257812 -66.75 10.890625 -66.691406 10.515625 -66.578125 C 10.148438 -66.472656 9.96875 -65.832031 9.96875 -64.65625 C 10.851562 -64.65625 11.828125 -64.78125 12.890625 -65.03125 C 13.960938 -65.289062 14.90625 -65.457031 15.71875 -65.53125 C 18.96875 -66.125 22.210938 -66.660156 25.453125 -67.140625 C 28.703125 -67.617188 32.023438 -67.859375 35.421875 -67.859375 C 37.191406 -67.859375 38.484375 -67.488281 39.296875 -66.75 C 40.109375 -66.007812 40.40625 -65.269531 40.1875 -64.53125 C 39.96875 -63.800781 39.15625 -63.4375 37.75 -63.4375 C 37.601562 -64.019531 37.507812 -64.289062 37.46875 -64.25 C 37.4375 -64.21875 37.085938 -64.273438 36.421875 -64.421875 C 36.128906 -64.503906 35.539062 -64.546875 34.65625 -64.546875 C 33.101562 -64.546875 31.050781 -64.378906 28.5 -64.046875 C 25.957031 -63.710938 23.320312 -63.320312 20.59375 -62.875 C 17.863281 -62.4375 15.425781 -62.015625 13.28125 -61.609375 C 11.144531 -61.203125 9.742188 -60.925781 9.078125 -60.78125 L 6.859375 -38.078125 C 6.785156 -37.566406 6.765625 -37.015625 6.796875 -36.421875 C 6.835938 -35.828125 6.859375 -35.238281 6.859375 -34.65625 C 6.859375 -33.914062 6.800781 -33.429688 6.6875 -33.203125 C 6.582031 -32.984375 6.53125 -32.46875 6.53125 -31.65625 C 6.53125 -30.03125 6.566406 -28.164062 6.640625 -26.0625 C 6.710938 -23.96875 6.675781 -22.328125 6.53125 -21.140625 C 6.457031 -20.472656 6.398438 -19.160156 6.359375 -17.203125 C 6.328125 -15.253906 6.289062 -12.988281 6.25 -10.40625 C 6.21875 -7.820312 6.203125 -5.21875 6.203125 -2.59375 C 6.203125 0.0195312 6.203125 2.394531 6.203125 4.53125 C 6.203125 6.675781 6.238281 8.226562 6.3125 9.1875 C 6.3125 10 6.398438 11.234375 6.578125 12.890625 C 6.765625 14.554688 6.800781 16.050781 6.6875 17.375 C 6.582031 18.707031 6.050781 19.375 5.09375 19.375 C 3.6875 19.375 2.835938 18.597656 2.546875 17.046875 C 2.253906 15.492188 2.109375 14.054688 2.109375 12.734375 C 1.878906 10.078125 1.742188 6.976562 1.703125 3.4375 C 1.671875 -0.101562 1.671875 -3.644531 1.703125 -7.1875 C 1.742188 -10.738281 1.765625 -13.84375 1.765625 -16.5 L 2.109375 -21.703125 C 2.109375 -22.734375 2.109375 -24.316406 2.109375 -26.453125 C 2.109375 -28.597656 2.144531 -30.867188 2.21875 -33.265625 C 2.289062 -35.660156 2.363281 -37.851562 2.4375 -39.84375 C 2.507812 -41.84375 2.617188 -43.25 2.765625 -44.0625 C 2.910156 -44.800781 3 -45.6875 3.03125 -46.71875 C 3.070312 -47.75 3.128906 -48.632812 3.203125 -49.375 L 4.203125 -59.671875 C 3.910156 -59.597656 3.265625 -59.445312 2.265625 -59.21875 C 1.273438 -59 0.484375 -58.816406 -0.109375 -58.671875 C -3.722656 -57.785156 -7.171875 -56.84375 -10.453125 -55.84375 C -13.742188 -54.851562 -17.125 -53.691406 -20.59375 -52.359375 C -21.257812 -52.066406 -21.867188 -51.753906 -22.421875 -51.421875 C -22.972656 -51.085938 -23.582031 -50.773438 -24.25 -50.484375 C -25.132812 -50.109375 -25.703125 -49.847656 -25.953125 -49.703125 C -26.210938 -49.554688 -26.34375 -49.367188 -26.34375 -49.140625 C -26.34375 -48.921875 -26.53125 -48.445312 -26.90625 -47.71875 C -27.195312 -47.644531 -27.488281 -47.585938 -27.78125 -47.546875 C -28.082031 -47.503906 -28.414062 -47.484375 -28.78125 -47.484375 C -29.375 -47.484375 -29.910156 -47.613281 -30.390625 -47.875 C -30.867188 -48.132812 -31.109375 -48.632812 -31.109375 -49.375 Z M -31.109375 -49.375 "/></g></g></g><g fill="#efe1ff" fill-opacity="1"><g transform="translate(706.460605, 108.779969)"><g><path d="M -0.671875 -9.1875 L 0 -21.703125 C 0.0703125 -22.515625 0.144531 -23.488281 0.21875 -24.625 C 0.289062 -25.769531 0.363281 -26.75 0.4375 -27.5625 C 0.59375 -31.25 1.054688 -34.898438 1.828125 -38.515625 C 2.597656 -42.140625 3.425781 -45.722656 4.3125 -49.265625 C 4.832031 -50.742188 5.238281 -51.722656 5.53125 -52.203125 C 5.832031 -52.679688 6.238281 -52.921875 6.75 -52.921875 C 6.96875 -52.921875 7.222656 -52.898438 7.515625 -52.859375 C 7.816406 -52.828125 8.15625 -52.769531 8.53125 -52.6875 C 8.894531 -51 8.816406 -48.988281 8.296875 -46.65625 C 7.785156 -44.332031 7.378906 -42.210938 7.078125 -40.296875 C 6.273438 -35.203125 5.613281 -29.59375 5.09375 -23.46875 C 4.570312 -17.34375 4.3125 -11.515625 4.3125 -5.984375 L 4.65625 6.421875 L 5.53125 4.3125 C 6.5625 1.363281 7.425781 -1.125 8.125 -3.15625 C 8.832031 -5.1875 9.644531 -7.195312 10.5625 -9.1875 C 11.488281 -11.175781 12.726562 -13.613281 14.28125 -16.5 C 15.09375 -17.96875 15.882812 -19.21875 16.65625 -20.25 C 17.4375 -21.289062 18.640625 -21.8125 20.265625 -21.8125 C 21.066406 -21.8125 21.632812 -21.21875 21.96875 -20.03125 C 22.300781 -18.851562 22.503906 -17.5625 22.578125 -16.15625 C 22.648438 -14.757812 22.6875 -13.726562 22.6875 -13.0625 C 22.6875 -11 22.742188 -9.242188 22.859375 -7.796875 C 22.972656 -6.359375 23.398438 -4.941406 24.140625 -3.546875 C 25.828125 -3.910156 27.257812 -4.992188 28.4375 -6.796875 C 29.625 -8.609375 30.695312 -10.179688 31.65625 -11.515625 C 32.175781 -12.328125 32.65625 -13.140625 33.09375 -13.953125 C 33.539062 -14.765625 33.984375 -15.613281 34.421875 -16.5 C 35.085938 -17.675781 35.625 -18.484375 36.03125 -18.921875 C 36.4375 -19.367188 36.863281 -19.59375 37.3125 -19.59375 C 37.53125 -19.59375 37.9375 -19.519531 38.53125 -19.375 C 38.894531 -18.039062 38.816406 -16.96875 38.296875 -16.15625 C 37.785156 -15.34375 37.234375 -14.382812 36.640625 -13.28125 C 36.128906 -12.320312 35.429688 -11.085938 34.546875 -9.578125 C 33.660156 -8.066406 32.660156 -6.585938 31.546875 -5.140625 C 30.441406 -3.703125 29.257812 -2.484375 28 -1.484375 C 26.75 -0.492188 25.460938 0 24.140625 0 C 21.703125 0 20.113281 -2.175781 19.375 -6.53125 C 19.15625 -7.78125 19.003906 -9.457031 18.921875 -11.5625 C 18.847656 -13.664062 18.8125 -15.492188 18.8125 -17.046875 C 18.300781 -16.679688 17.675781 -15.832031 16.9375 -14.5 C 16.195312 -13.175781 15.457031 -11.679688 14.71875 -10.015625 C 13.976562 -8.359375 13.296875 -6.753906 12.671875 -5.203125 C 12.046875 -3.648438 11.550781 -2.46875 11.1875 -1.65625 C 10.300781 0.625 9.578125 2.910156 9.015625 5.203125 C 8.460938 7.492188 7.859375 9.671875 7.203125 11.734375 C 6.828125 12.910156 6.398438 13.664062 5.921875 14 C 5.441406 14.332031 4.6875 14.5 3.65625 14.5 C 2.84375 14.5 2.175781 13.796875 1.65625 12.390625 C 1.144531 10.992188 0.722656 9.242188 0.390625 7.140625 C 0.0546875 5.035156 -0.179688 2.859375 -0.328125 0.609375 C -0.472656 -1.640625 -0.566406 -3.664062 -0.609375 -5.46875 C -0.648438 -7.28125 -0.671875 -8.519531 -0.671875 -9.1875 Z M -0.671875 -9.1875 "/></g></g></g></g></g><g transform="matrix(1, 0, 0, 1, 953, 81)"><g clip-path="url(#5d02789b7d)"><g fill="#504081" fill-opacity="1"><g transform="translate(0.513213, 116.152617)"><g><path d="M 13.804688 2.144531 C 11.285156 2.144531 9.238281 1.332031 7.65625 -0.292969 C 6.082031 -1.90625 5.296875 -3.894531 5.296875 -6.253906 C 5.296875 -8.699219 6.089844 -10.695312 7.679688 -12.242188 C 9.257812 -13.777344 11.300781 -14.542969 13.804688 -14.542969 C 16.378906 -14.542969 18.457031 -13.777344 20.035156 -12.242188 C 21.621094 -10.695312 22.417969 -8.699219 22.417969 -6.253906 C 22.417969 -3.894531 21.632812 -1.90625 20.058594 -0.292969 C 18.476562 1.332031 16.390625 2.144531 13.804688 2.144531 Z M 13.804688 -0.417969 C 15.671875 -0.417969 17.144531 -0.972656 18.222656 -2.078125 C 19.3125 -3.195312 19.855469 -4.589844 19.855469 -6.253906 C 19.855469 -7.980469 19.320312 -9.363281 18.25 -10.40625 C 17.167969 -11.457031 15.683594 -11.984375 13.804688 -11.984375 C 11.992188 -11.984375 10.546875 -11.457031 9.464844 -10.40625 C 8.394531 -9.363281 7.859375 -7.980469 7.859375 -6.253906 C 7.859375 -4.589844 8.402344 -3.195312 9.492188 -2.078125 C 10.570312 -0.972656 12.007812 -0.417969 13.804688 -0.417969 Z M 13.804688 -0.417969 "/></g></g></g><g fill="#fef74b" fill-opacity="1"><g transform="translate(0.513213, 116.152617)"><g><path d="M 13.796875 0.859375 C 11.640625 0.859375 9.894531 0.175781 8.5625 -1.1875 C 7.238281 -2.550781 6.578125 -4.238281 6.578125 -6.25 C 6.578125 -8.332031 7.238281 -10.019531 8.5625 -11.3125 C 9.894531 -12.613281 11.640625 -13.265625 13.796875 -13.265625 C 16.023438 -13.265625 17.804688 -12.613281 19.140625 -11.3125 C 20.472656 -10.019531 21.140625 -8.332031 21.140625 -6.25 C 21.140625 -4.238281 20.472656 -2.550781 19.140625 -1.1875 C 17.804688 0.175781 16.023438 0.859375 13.796875 0.859375 Z M 13.796875 0.859375 "/></g></g></g></g></g></svg>