<svg xmlns="http://www.w3.org/2000/svg" xmlns:xlink="http://www.w3.org/1999/xlink" width="1548" zoomAndPan="magnify" viewBox="0 0 1161 296.999993" height="396" preserveAspectRatio="xMidYMid meet" version="1.0"><defs><g/></defs><g fill="#504081" fill-opacity="1"><g transform="translate(350.309775, 163.706159)"><g><path d="M 7.4375 43.1875 C 9.8125 43.1875 12.101562 42.160156 14.3125 40.109375 C 16.519531 38.066406 18.515625 35.722656 20.296875 33.078125 C 22.078125 30.441406 23.398438 28.207031 24.265625 26.375 C 27.390625 20.113281 29.4375 14.828125 30.40625 10.515625 C 31.382812 6.203125 32.25 3.398438 33 2.109375 C 32.351562 2.210938 31.378906 2.773438 30.078125 3.796875 C 28.785156 4.828125 27.519531 5.878906 26.28125 6.953125 C 25.039062 8.035156 24.15625 8.898438 23.625 9.546875 C 21.789062 11.378906 19.6875 13.585938 17.3125 16.171875 C 14.9375 18.765625 12.671875 21.570312 10.515625 24.59375 C 8.359375 27.613281 6.710938 30.660156 5.578125 33.734375 C 4.441406 36.804688 4.203125 39.796875 4.859375 42.703125 C 5.503906 42.816406 5.929688 42.925781 6.140625 43.03125 C 6.359375 43.132812 6.789062 43.1875 7.4375 43.1875 Z M 86.390625 -34.625 C 86.816406 -36.125 87.132812 -37.789062 87.34375 -39.625 C 87.5625 -41.457031 87.78125 -43.1875 88 -44.8125 C 88.644531 -49.445312 89.476562 -54.726562 90.5 -60.65625 C 91.53125 -66.59375 92.640625 -72.523438 93.828125 -78.453125 C 95.015625 -84.390625 96.09375 -89.675781 97.0625 -94.3125 C 97.382812 -95.820312 97.757812 -97.789062 98.1875 -100.21875 C 98.625 -102.644531 99.003906 -105.257812 99.328125 -108.0625 C 99.648438 -110.863281 99.753906 -113.476562 99.640625 -115.90625 C 99.535156 -118.332031 99.050781 -120.242188 98.1875 -121.640625 C 95.925781 -121.535156 93.5 -120.40625 90.90625 -118.25 C 88.320312 -116.09375 85.707031 -113.367188 83.0625 -110.078125 C 80.425781 -106.785156 77.945312 -103.332031 75.625 -99.71875 C 73.300781 -96.113281 71.222656 -92.742188 69.390625 -89.609375 C 67.554688 -86.484375 66.210938 -84.003906 65.359375 -82.171875 L 58.71875 -67.9375 C 57.207031 -64.59375 55.644531 -60.628906 54.03125 -56.046875 C 52.414062 -51.460938 50.90625 -46.851562 49.5 -42.21875 C 48.09375 -37.582031 46.90625 -33.429688 45.9375 -29.765625 C 45.726562 -28.578125 45.328125 -26.878906 44.734375 -24.671875 C 44.140625 -22.460938 43.570312 -20.273438 43.03125 -18.109375 C 42.488281 -15.953125 42.164062 -14.335938 42.0625 -13.265625 C 43.03125 -13.585938 43.972656 -14.070312 44.890625 -14.71875 C 45.804688 -15.363281 46.695312 -15.957031 47.5625 -16.5 L 63.40625 -25.234375 C 65.882812 -26.421875 68.632812 -27.710938 71.65625 -29.109375 C 74.675781 -30.515625 77.535156 -31.703125 80.234375 -32.671875 C 81.316406 -32.890625 82.421875 -33.160156 83.546875 -33.484375 C 84.679688 -33.804688 85.628906 -34.1875 86.390625 -34.625 Z M 6.46875 48.6875 C 3.988281 48.6875 2.019531 47.742188 0.5625 45.859375 C -0.894531 43.972656 -1.625 41.734375 -1.625 39.140625 C -1.507812 35.585938 -0.429688 31.84375 1.609375 27.90625 C 3.660156 23.96875 6.222656 20.109375 9.296875 16.328125 C 12.367188 12.554688 15.550781 9.050781 18.84375 5.8125 C 22.132812 2.582031 25.070312 -0.109375 27.65625 -2.265625 C 29.925781 -4.097656 31.597656 -5.390625 32.671875 -6.140625 C 33.753906 -6.898438 34.507812 -7.628906 34.9375 -8.328125 C 35.375 -9.023438 35.753906 -10.128906 36.078125 -11.640625 C 37.910156 -19.953125 40.09375 -28.609375 42.625 -37.609375 C 45.15625 -46.617188 48.117188 -55.539062 51.515625 -64.375 C 54.921875 -73.21875 58.804688 -81.679688 63.171875 -89.765625 C 67.535156 -97.859375 72.359375 -105.144531 77.640625 -111.625 C 78.828125 -113.132812 80.523438 -115.097656 82.734375 -117.515625 C 84.953125 -119.941406 87.378906 -122.097656 90.015625 -123.984375 C 92.660156 -125.878906 95.222656 -126.828125 97.703125 -126.828125 C 100.503906 -126.828125 102.390625 -125.910156 103.359375 -124.078125 C 104.335938 -122.242188 104.878906 -120.140625 104.984375 -117.765625 C 105.085938 -115.390625 105.140625 -113.34375 105.140625 -111.625 C 105.140625 -109.570312 104.84375 -106.46875 104.25 -102.3125 C 103.664062 -98.164062 102.941406 -93.503906 102.078125 -88.328125 C 101.210938 -83.148438 100.265625 -77.863281 99.234375 -72.46875 C 98.210938 -67.070312 97.296875 -62.082031 96.484375 -57.5 C 95.679688 -52.914062 95.066406 -49.171875 94.640625 -46.265625 C 94.421875 -44.535156 94.175781 -42.96875 93.90625 -41.5625 C 93.632812 -40.164062 93.5 -38.550781 93.5 -36.71875 C 95.332031 -36.71875 96.976562 -36.878906 98.4375 -37.203125 C 99.894531 -37.523438 101.644531 -37.6875 103.6875 -37.6875 C 105.738281 -37.6875 107.085938 -37.203125 107.734375 -36.234375 C 108.378906 -35.265625 108.484375 -34.265625 108.046875 -33.234375 C 107.617188 -32.210938 106.816406 -31.703125 105.640625 -31.703125 C 104.234375 -31.703125 103.664062 -31.835938 103.9375 -32.109375 C 104.207031 -32.378906 103.910156 -32.515625 103.046875 -32.515625 C 102.609375 -32.515625 101.796875 -32.457031 100.609375 -32.34375 C 99.429688 -32.238281 97.765625 -31.972656 95.609375 -31.546875 C 94.097656 -31.222656 93.179688 -30.898438 92.859375 -30.578125 C 92.535156 -30.253906 92.265625 -29.226562 92.046875 -27.5 L 84.28125 56.453125 C 84.28125 58.828125 84.195312 61.171875 84.03125 63.484375 C 83.875 65.804688 83.796875 68.367188 83.796875 71.171875 C 83.796875 74.410156 83.898438 77.023438 84.109375 79.015625 C 84.328125 81.015625 84.300781 82.5 84.03125 83.46875 C 83.757812 84.4375 82.816406 84.921875 81.203125 84.921875 C 80.015625 84.921875 79.125 83.953125 78.53125 82.015625 C 77.9375 80.078125 77.53125 77.734375 77.3125 74.984375 C 77.101562 72.234375 77.023438 69.585938 77.078125 67.046875 C 77.128906 64.515625 77.210938 62.65625 77.328125 61.46875 C 77.328125 60.175781 77.40625 59.207031 77.5625 58.5625 C 77.726562 57.914062 77.8125 56.890625 77.8125 55.484375 C 77.8125 53.546875 77.914062 51.09375 78.125 48.125 C 78.34375 45.15625 78.5625 42.078125 78.78125 38.890625 C 79 35.710938 79.160156 32.882812 79.265625 30.40625 L 84.28125 -16.828125 C 84.5 -18.984375 84.738281 -20.921875 85 -22.640625 C 85.269531 -24.367188 85.40625 -26.363281 85.40625 -28.625 C 83.894531 -27.875 81.898438 -27.09375 79.421875 -26.28125 C 76.941406 -25.476562 74.25 -24.320312 71.34375 -22.8125 C 68.101562 -21.1875 65.484375 -19.890625 63.484375 -18.921875 C 61.492188 -17.953125 59.742188 -17.035156 58.234375 -16.171875 C 56.722656 -15.304688 55.078125 -14.304688 53.296875 -13.171875 C 51.515625 -12.046875 49.171875 -10.566406 46.265625 -8.734375 C 46.046875 -8.628906 45.476562 -8.28125 44.5625 -7.6875 C 43.644531 -7.09375 42.78125 -6.472656 41.96875 -5.828125 C 41.164062 -5.179688 40.710938 -4.800781 40.609375 -4.6875 C 40.285156 -4.363281 39.769531 -2.851562 39.0625 -0.15625 C 38.363281 2.53125 37.421875 5.894531 36.234375 9.9375 C 35.046875 13.988281 33.585938 18.25 31.859375 22.71875 C 30.140625 27.195312 28.066406 31.40625 25.640625 35.34375 C 23.210938 39.28125 20.40625 42.488281 17.21875 44.96875 C 14.039062 47.445312 10.457031 48.6875 6.46875 48.6875 Z M 6.46875 48.6875 "/></g></g></g><g fill="#504081" fill-opacity="1"><g transform="translate(450.597148, 163.706159)"><g><path d="M 7.4375 19.890625 C 10.675781 19.890625 13.613281 18.726562 16.25 16.40625 C 18.894531 14.09375 21.1875 11.375 23.125 8.25 C 25.070312 5.125 26.691406 2.375 27.984375 0 C 27.335938 0.21875 26.039062 0.8125 24.09375 1.78125 C 22.15625 2.75 20.21875 3.769531 18.28125 4.84375 C 16.34375 5.925781 14.992188 6.738281 14.234375 7.28125 C 12.828125 8.144531 11.316406 9.273438 9.703125 10.671875 C 8.085938 12.078125 6.710938 13.476562 5.578125 14.875 C 4.441406 16.28125 3.957031 17.46875 4.125 18.4375 C 4.289062 19.40625 5.394531 19.890625 7.4375 19.890625 Z M 2.265625 -10.1875 C 2.265625 -14.289062 2.425781 -19.332031 2.75 -25.3125 C 3.070312 -31.300781 3.554688 -37.609375 4.203125 -44.234375 C 4.847656 -50.867188 5.707031 -57.148438 6.78125 -63.078125 C 7.863281 -69.015625 9.160156 -73.867188 10.671875 -77.640625 C 11.535156 -79.796875 12.34375 -81.28125 13.09375 -82.09375 C 13.851562 -82.90625 14.554688 -83.3125 15.203125 -83.3125 C 15.960938 -83.3125 16.554688 -82.929688 16.984375 -82.171875 C 17.410156 -81.421875 17.570312 -80.773438 17.46875 -80.234375 C 17.46875 -80.015625 17.332031 -79.445312 17.0625 -78.53125 C 16.789062 -77.613281 16.601562 -76.78125 16.5 -76.03125 C 15.632812 -72.6875 14.71875 -68.289062 13.75 -62.84375 C 12.78125 -57.394531 11.890625 -51.597656 11.078125 -45.453125 C 10.273438 -39.304688 9.628906 -33.484375 9.140625 -27.984375 C 8.648438 -22.484375 8.40625 -18.113281 8.40625 -14.875 L 11.96875 -20.703125 C 12.507812 -21.785156 13.078125 -22.785156 13.671875 -23.703125 C 14.265625 -24.617188 14.9375 -25.453125 15.6875 -26.203125 C 17.414062 -28.578125 19.359375 -30.4375 21.515625 -31.78125 C 23.671875 -33.132812 25.773438 -33.8125 27.828125 -33.8125 C 31.273438 -33.8125 34.023438 -31.976562 36.078125 -28.3125 C 37.910156 -24.75 38.664062 -21.566406 38.34375 -18.765625 C 38.019531 -15.960938 37.859375 -13.320312 37.859375 -10.84375 C 39.898438 -11.914062 41.539062 -12.773438 42.78125 -13.421875 C 44.019531 -14.066406 45.234375 -14.765625 46.421875 -15.515625 C 47.609375 -16.273438 49.175781 -17.359375 51.125 -18.765625 C 52.09375 -19.515625 53.410156 -20.59375 55.078125 -22 C 56.753906 -23.40625 58.347656 -24.726562 59.859375 -25.96875 C 61.367188 -27.207031 62.285156 -27.828125 62.609375 -27.828125 C 64.222656 -27.828125 65.109375 -27.472656 65.265625 -26.765625 C 65.429688 -26.066406 65.160156 -25.257812 64.453125 -24.34375 C 63.753906 -23.425781 63.023438 -22.617188 62.265625 -21.921875 C 61.515625 -21.222656 61.035156 -20.816406 60.828125 -20.703125 C 59.640625 -19.410156 58.394531 -18.28125 57.09375 -17.3125 C 55.800781 -16.34375 54.507812 -15.265625 53.21875 -14.078125 C 51.488281 -12.890625 49.300781 -11.515625 46.65625 -9.953125 C 44.019531 -8.390625 41.648438 -6.984375 39.546875 -5.734375 C 37.441406 -4.492188 36.226562 -3.660156 35.90625 -3.234375 C 35.582031 -2.691406 35.070312 -1.476562 34.375 0.40625 C 33.675781 2.289062 32.675781 4.5 31.375 7.03125 C 30.082031 9.570312 28.410156 12.109375 26.359375 14.640625 C 24.316406 17.171875 21.785156 19.351562 18.765625 21.1875 C 14.992188 23.5625 11.164062 24.75 7.28125 24.75 C 5.007812 24.75 3.066406 24.179688 1.453125 23.046875 C -0.160156 21.921875 -0.96875 20.113281 -0.96875 17.625 C -0.96875 15.257812 0.109375 12.914062 2.265625 10.59375 C 4.421875 8.28125 7.0625 6.070312 10.1875 3.96875 C 13.3125 1.863281 16.4375 0.00390625 19.5625 -1.609375 C 22.695312 -3.234375 25.234375 -4.53125 27.171875 -5.5 C 28.679688 -6.25 29.625 -6.734375 30 -6.953125 C 30.382812 -7.171875 30.789062 -8.195312 31.21875 -10.03125 C 31.976562 -13.15625 32.300781 -16.117188 32.1875 -18.921875 C 32.082031 -21.722656 31.625 -24.015625 30.8125 -25.796875 C 30.007812 -27.578125 28.796875 -28.46875 27.171875 -28.46875 C 25.128906 -28.46875 22.539062 -26.6875 19.40625 -23.125 C 16.71875 -19.894531 14.5625 -16.390625 12.9375 -12.609375 C 11.320312 -8.835938 10 -5.601562 8.96875 -2.90625 C 7.945312 -0.21875 6.898438 1.125 5.828125 1.125 C 4.421875 1.125 3.472656 0.503906 2.984375 -0.734375 C 2.503906 -1.972656 2.265625 -3.476562 2.265625 -5.25 C 2.265625 -7.03125 2.265625 -8.675781 2.265625 -10.1875 Z M 2.265625 -10.1875 "/></g></g></g><g fill="#504081" fill-opacity="1"><g transform="translate(508.019752, 163.706159)"><g><path d="M 8.09375 -3.71875 C 9.707031 -4.15625 11.160156 -5.582031 12.453125 -8 C 13.742188 -10.425781 14.660156 -13.203125 15.203125 -16.328125 C 15.742188 -19.460938 15.878906 -22.347656 15.609375 -24.984375 C 15.335938 -27.628906 14.503906 -29.4375 13.109375 -30.40625 C 12.785156 -29.21875 12.191406 -27.519531 11.328125 -25.3125 C 10.460938 -23.101562 9.625 -20.675781 8.8125 -18.03125 C 8.007812 -15.394531 7.472656 -12.804688 7.203125 -10.265625 C 6.929688 -7.734375 7.226562 -5.550781 8.09375 -3.71875 Z M 0 -9.21875 C 0 -10.625 0.296875 -12.703125 0.890625 -15.453125 C 1.484375 -18.203125 2.316406 -21.164062 3.390625 -24.34375 C 4.472656 -27.53125 5.6875 -30.550781 7.03125 -33.40625 C 8.382812 -36.257812 9.84375 -38.601562 11.40625 -40.4375 C 12.96875 -42.269531 14.554688 -43.1875 16.171875 -43.1875 C 17.253906 -43.1875 18.007812 -42.703125 18.4375 -41.734375 C 18.875 -40.765625 18.984375 -39.957031 18.765625 -39.3125 C 18.546875 -38.769531 18.140625 -38.226562 17.546875 -37.6875 C 16.953125 -37.144531 16.441406 -36.550781 16.015625 -35.90625 C 16.234375 -35.15625 16.769531 -34.320312 17.625 -33.40625 C 18.488281 -32.488281 19.351562 -31.273438 20.21875 -29.765625 C 21.082031 -28.253906 21.648438 -26.203125 21.921875 -23.609375 C 22.191406 -21.023438 21.894531 -17.628906 21.03125 -13.421875 C 19.84375 -7.816406 17.953125 -3.613281 15.359375 -0.8125 C 12.773438 1.988281 10.242188 3.390625 7.765625 3.390625 C 5.710938 3.390625 3.90625 2.335938 2.34375 0.234375 C 0.78125 -1.859375 0 -5.007812 0 -9.21875 Z M 0 -9.21875 "/></g></g></g><g fill="#504081" fill-opacity="1"><g transform="translate(536.488428, 163.706159)"><g><path d="M 0.15625 -19.734375 C 0.15625 -22.109375 0.503906 -24.75 1.203125 -27.65625 C 1.910156 -30.570312 2.828125 -33.40625 3.953125 -36.15625 C 5.085938 -38.90625 6.304688 -41.144531 7.609375 -42.875 C 8.785156 -44.164062 9.96875 -44.8125 11.15625 -44.8125 C 12.132812 -44.8125 13.109375 -44.539062 14.078125 -44 C 14.179688 -43.457031 14.3125 -43.078125 14.46875 -42.859375 C 14.632812 -42.648438 14.71875 -42.164062 14.71875 -41.40625 C 14.71875 -41.300781 14.234375 -40.273438 13.265625 -38.328125 C 12.296875 -36.390625 11.242188 -33.960938 10.109375 -31.046875 C 8.972656 -28.140625 8.054688 -25.066406 7.359375 -21.828125 C 6.660156 -18.597656 6.632812 -15.632812 7.28125 -12.9375 C 8.570312 -13.375 9.703125 -14.210938 10.671875 -15.453125 C 11.640625 -16.691406 12.503906 -17.847656 13.265625 -18.921875 L 22.96875 -33.15625 C 24.050781 -34.664062 24.96875 -35.988281 25.71875 -37.125 C 26.476562 -38.257812 27.613281 -38.828125 29.125 -38.828125 C 30.625 -38.828125 31.507812 -37.878906 31.78125 -35.984375 C 32.050781 -34.097656 32.101562 -31.96875 31.9375 -29.59375 C 31.78125 -27.226562 31.757812 -25.34375 31.875 -23.9375 C 32.40625 -20.0625 33.238281 -17.335938 34.375 -15.765625 C 35.507812 -14.203125 36.832031 -13.421875 38.34375 -13.421875 C 40.175781 -13.421875 42.113281 -14.175781 44.15625 -15.6875 C 46.207031 -17.195312 48.253906 -18.945312 50.296875 -20.9375 C 52.347656 -22.9375 54.15625 -24.691406 55.71875 -26.203125 C 57.289062 -27.710938 58.453125 -28.46875 59.203125 -28.46875 C 59.847656 -28.46875 60.441406 -28.332031 60.984375 -28.0625 C 61.523438 -27.789062 61.796875 -27.226562 61.796875 -26.375 C 61.796875 -25.507812 61.144531 -24.347656 59.84375 -22.890625 C 58.550781 -21.429688 57.148438 -20.023438 55.640625 -18.671875 C 54.128906 -17.328125 53.050781 -16.332031 52.40625 -15.6875 C 50.25 -13.644531 47.90625 -11.894531 45.375 -10.4375 C 42.84375 -8.976562 40.335938 -8.25 37.859375 -8.25 C 35.160156 -8.25 33.054688 -8.976562 31.546875 -10.4375 C 30.035156 -11.894531 28.925781 -13.726562 28.21875 -15.9375 C 27.519531 -18.144531 27.0625 -20.460938 26.84375 -22.890625 C 26.632812 -25.316406 26.53125 -27.5 26.53125 -29.4375 C 25.882812 -29.007812 25.101562 -28.066406 24.1875 -26.609375 C 23.269531 -25.148438 22.539062 -23.988281 22 -23.125 C 21.351562 -22.050781 20.4375 -20.570312 19.25 -18.6875 C 18.0625 -16.800781 16.738281 -14.910156 15.28125 -13.015625 C 13.832031 -11.128906 12.378906 -9.539062 10.921875 -8.25 C 9.460938 -6.957031 8.085938 -6.3125 6.796875 -6.3125 C 4.316406 -6.3125 2.617188 -7.035156 1.703125 -8.484375 C 0.785156 -9.941406 0.296875 -11.722656 0.234375 -13.828125 C 0.179688 -15.929688 0.15625 -17.898438 0.15625 -19.734375 Z M 0.15625 -19.734375 "/></g></g></g><g fill="#504081" fill-opacity="1"><g transform="translate(591.161223, 163.706159)"><g><path d="M -45.453125 -72.140625 C -45.453125 -73.546875 -44.15625 -75.03125 -41.5625 -76.59375 C -38.976562 -78.15625 -35.71875 -79.691406 -31.78125 -81.203125 C -27.84375 -82.710938 -23.691406 -84.140625 -19.328125 -85.484375 C -14.960938 -86.835938 -10.945312 -88 -7.28125 -88.96875 C -3.613281 -89.9375 -0.863281 -90.691406 0.96875 -91.234375 C 3.238281 -91.878906 4.832031 -92.253906 5.75 -92.359375 C 6.664062 -92.472656 7.253906 -92.828125 7.515625 -93.421875 C 7.785156 -94.015625 8.082031 -95.226562 8.40625 -97.0625 C 9.269531 -101.476562 10.269531 -104.519531 11.40625 -106.1875 C 12.539062 -107.863281 13.644531 -108.703125 14.71875 -108.703125 C 15.582031 -108.703125 16.3125 -108.242188 16.90625 -107.328125 C 17.5 -106.410156 17.796875 -105.304688 17.796875 -104.015625 C 17.796875 -103.046875 17.738281 -102.640625 17.625 -102.796875 C 17.519531 -102.960938 17.519531 -102.613281 17.625 -101.75 C 17.625 -101.53125 17.648438 -101.257812 17.703125 -100.9375 C 17.765625 -100.613281 17.796875 -100.179688 17.796875 -99.640625 C 17.796875 -98.242188 17.523438 -97.546875 16.984375 -97.546875 C 16.441406 -97.546875 15.898438 -97.460938 15.359375 -97.296875 C 14.828125 -97.140625 14.5625 -96.195312 14.5625 -94.46875 C 15.851562 -94.46875 17.28125 -94.65625 18.84375 -95.03125 C 20.40625 -95.414062 21.78125 -95.660156 22.96875 -95.765625 C 27.71875 -96.628906 32.460938 -97.410156 37.203125 -98.109375 C 41.953125 -98.804688 46.804688 -99.15625 51.765625 -99.15625 C 54.347656 -99.15625 56.234375 -98.613281 57.421875 -97.53125 C 58.609375 -96.457031 59.039062 -95.378906 58.71875 -94.296875 C 58.394531 -93.222656 57.207031 -92.6875 55.15625 -92.6875 C 54.945312 -93.550781 54.8125 -93.957031 54.75 -93.90625 C 54.695312 -93.851562 54.1875 -93.929688 53.21875 -94.140625 C 52.789062 -94.253906 51.925781 -94.3125 50.625 -94.3125 C 48.363281 -94.3125 45.375 -94.066406 41.65625 -93.578125 C 37.9375 -93.097656 34.082031 -92.53125 30.09375 -91.875 C 26.101562 -91.226562 22.539062 -90.609375 19.40625 -90.015625 C 16.28125 -89.429688 14.234375 -89.03125 13.265625 -88.8125 L 10.03125 -55.640625 C 9.925781 -54.890625 9.898438 -54.082031 9.953125 -53.21875 C 10.003906 -52.351562 10.03125 -51.488281 10.03125 -50.625 C 10.03125 -49.550781 9.945312 -48.851562 9.78125 -48.53125 C 9.625 -48.207031 9.546875 -47.453125 9.546875 -46.265625 C 9.546875 -43.890625 9.597656 -41.164062 9.703125 -38.09375 C 9.816406 -35.019531 9.765625 -32.617188 9.546875 -30.890625 C 9.429688 -29.921875 9.347656 -28.007812 9.296875 -25.15625 C 9.242188 -22.300781 9.191406 -18.984375 9.140625 -15.203125 C 9.085938 -11.429688 9.0625 -7.628906 9.0625 -3.796875 C 9.0625 0.0234375 9.0625 3.5 9.0625 6.625 C 9.0625 9.757812 9.113281 12.023438 9.21875 13.421875 C 9.21875 14.609375 9.351562 16.414062 9.625 18.84375 C 9.894531 21.269531 9.945312 23.453125 9.78125 25.390625 C 9.625 27.335938 8.84375 28.3125 7.4375 28.3125 C 5.394531 28.3125 4.15625 27.175781 3.71875 24.90625 C 3.289062 22.644531 3.078125 20.546875 3.078125 18.609375 C 2.753906 14.722656 2.5625 10.191406 2.5 5.015625 C 2.445312 -0.160156 2.445312 -5.335938 2.5 -10.515625 C 2.5625 -15.691406 2.59375 -20.222656 2.59375 -24.109375 L 3.078125 -31.703125 C 3.078125 -33.210938 3.078125 -35.53125 3.078125 -38.65625 C 3.078125 -41.789062 3.128906 -45.109375 3.234375 -48.609375 C 3.335938 -52.117188 3.441406 -55.328125 3.546875 -58.234375 C 3.660156 -61.148438 3.828125 -63.195312 4.046875 -64.375 C 4.265625 -65.457031 4.398438 -66.753906 4.453125 -68.265625 C 4.503906 -69.773438 4.582031 -71.066406 4.6875 -72.140625 L 6.140625 -87.1875 C 5.710938 -87.082031 4.769531 -86.867188 3.3125 -86.546875 C 1.851562 -86.222656 0.695312 -85.953125 -0.15625 -85.734375 C -5.445312 -84.441406 -10.488281 -83.066406 -15.28125 -81.609375 C -20.082031 -80.148438 -25.019531 -78.453125 -30.09375 -76.515625 C -31.0625 -76.085938 -31.945312 -75.628906 -32.75 -75.140625 C -33.5625 -74.648438 -34.453125 -74.191406 -35.421875 -73.765625 C -36.722656 -73.222656 -37.5625 -72.84375 -37.9375 -72.625 C -38.3125 -72.414062 -38.5 -72.148438 -38.5 -71.828125 C -38.5 -71.503906 -38.769531 -70.800781 -39.3125 -69.71875 C -39.738281 -69.613281 -40.164062 -69.53125 -40.59375 -69.46875 C -41.03125 -69.414062 -41.519531 -69.390625 -42.0625 -69.390625 C -42.925781 -69.390625 -43.707031 -69.578125 -44.40625 -69.953125 C -45.101562 -70.335938 -45.453125 -71.066406 -45.453125 -72.140625 Z M -45.453125 -72.140625 "/></g></g></g><g fill="#504081" fill-opacity="1"><g transform="translate(609.924657, 163.706159)"><g/></g></g><g fill="#504081" fill-opacity="1"><g transform="translate(651.818911, 163.706159)"><g><path d="M 59.53125 4.046875 C 60.5 3.398438 61.46875 2.160156 62.4375 0.328125 C 63.40625 -1.503906 64.265625 -3.472656 65.015625 -5.578125 C 65.773438 -7.679688 66.375 -9.378906 66.8125 -10.671875 C 69.9375 -18.648438 72.765625 -26.550781 75.296875 -34.375 C 77.835938 -42.195312 80.722656 -50.203125 83.953125 -58.390625 C 84.492188 -59.796875 85.4375 -62.085938 86.78125 -65.265625 C 88.132812 -68.453125 89.726562 -72.066406 91.5625 -76.109375 C 93.394531 -80.148438 95.414062 -84.25 97.625 -88.40625 C 99.832031 -92.5625 102.09375 -96.414062 104.40625 -99.96875 C 106.726562 -103.53125 108.992188 -106.414062 111.203125 -108.625 C 113.421875 -110.832031 115.445312 -111.9375 117.28125 -111.9375 C 119.757812 -111.9375 121.59375 -110.722656 122.78125 -108.296875 C 123.96875 -105.867188 124.640625 -102.820312 124.796875 -99.15625 C 124.960938 -95.488281 124.882812 -91.6875 124.5625 -87.75 C 124.238281 -83.820312 123.859375 -80.316406 123.421875 -77.234375 C 122.992188 -74.160156 122.671875 -72.085938 122.453125 -71.015625 L 112.421875 -4.203125 C 110.703125 7.765625 109.382812 19.460938 108.46875 30.890625 C 107.550781 42.328125 106.441406 53.867188 105.140625 65.515625 C 104.929688 68.421875 104.828125 71.597656 104.828125 75.046875 C 104.828125 78.503906 104.828125 81.742188 104.828125 84.765625 C 104.828125 86.171875 104.582031 87.222656 104.09375 87.921875 C 103.613281 88.617188 103.101562 88.96875 102.5625 88.96875 C 101.914062 88.96875 101.296875 88.585938 100.703125 87.828125 C 100.109375 87.078125 99.753906 86.054688 99.640625 84.765625 C 99.535156 83.359375 99.484375 82.304688 99.484375 81.609375 C 99.484375 80.910156 99.429688 80.078125 99.328125 79.109375 L 104.171875 6.953125 C 105.035156 0.160156 105.816406 -6.117188 106.515625 -11.890625 C 107.222656 -17.660156 107.976562 -23.484375 108.78125 -29.359375 C 109.59375 -35.234375 110.59375 -41.734375 111.78125 -48.859375 C 112.101562 -50.691406 112.585938 -53.546875 113.234375 -57.421875 C 113.878906 -61.304688 114.578125 -65.675781 115.328125 -70.53125 C 116.085938 -75.382812 116.765625 -80.238281 117.359375 -85.09375 C 117.953125 -89.945312 118.273438 -94.257812 118.328125 -98.03125 C 118.378906 -101.800781 118.03125 -104.5 117.28125 -106.125 C 115.226562 -105.039062 113.3125 -103.335938 111.53125 -101.015625 C 109.757812 -98.703125 108.28125 -96.46875 107.09375 -94.3125 C 104.9375 -90.75 103.070312 -87.484375 101.5 -84.515625 C 99.9375 -81.554688 98.453125 -78.566406 97.046875 -75.546875 C 95.648438 -72.523438 94.09375 -69.070312 92.375 -65.1875 C 89.675781 -59.257812 87.515625 -53.867188 85.890625 -49.015625 C 84.273438 -44.160156 82.390625 -39.035156 80.234375 -33.640625 C 79.691406 -32.242188 78.910156 -29.847656 77.890625 -26.453125 C 76.867188 -23.054688 75.65625 -19.28125 74.25 -15.125 C 72.84375 -10.96875 71.332031 -6.972656 69.71875 -3.140625 C 68.101562 0.679688 66.429688 3.859375 64.703125 6.390625 C 62.984375 8.921875 61.257812 10.1875 59.53125 10.1875 C 57.800781 10.1875 56.453125 9.242188 55.484375 7.359375 C 54.515625 5.472656 53.835938 3.128906 53.453125 0.328125 C 53.078125 -2.472656 52.890625 -5.273438 52.890625 -8.078125 C 52.890625 -10.890625 52.945312 -13.15625 53.0625 -14.875 L 55.484375 -47.234375 C 55.484375 -47.878906 55.425781 -48.601562 55.3125 -49.40625 C 55.207031 -50.21875 55.15625 -51.21875 55.15625 -52.40625 C 54.1875 -52.195312 53.59375 -51.929688 53.375 -51.609375 C 53.164062 -51.285156 52.789062 -50.742188 52.25 -49.984375 C 49.988281 -46.960938 47.859375 -43.269531 45.859375 -38.90625 C 43.867188 -34.539062 42.007812 -29.898438 40.28125 -24.984375 C 38.550781 -20.078125 37.039062 -15.304688 35.75 -10.671875 C 34.457031 -6.035156 33.378906 -1.992188 32.515625 1.453125 C 31.222656 6.523438 29.957031 11.675781 28.71875 16.90625 C 27.476562 22.132812 26.15625 27.125 24.75 31.875 C 23.882812 35.539062 22.859375 39.148438 21.671875 42.703125 C 20.484375 46.265625 19.132812 49.820312 17.625 53.375 C 16.875 54.675781 16.144531 55.703125 15.4375 56.453125 C 14.738281 57.210938 13.582031 57.59375 11.96875 57.59375 C 10.132812 57.59375 8.570312 56.21875 7.28125 53.46875 C 5.988281 50.71875 4.960938 47.179688 4.203125 42.859375 C 3.453125 38.546875 2.882812 34.046875 2.5 29.359375 C 2.125 24.671875 1.882812 20.300781 1.78125 16.25 C 1.675781 12.207031 1.625 9.164062 1.625 7.125 L 3.234375 -25.5625 C 3.773438 -30.625 4.367188 -35.660156 5.015625 -40.671875 C 5.660156 -45.691406 6.363281 -50.679688 7.125 -55.640625 C 7.226562 -56.179688 7.492188 -57.828125 7.921875 -60.578125 C 8.359375 -63.328125 8.976562 -66.695312 9.78125 -70.6875 C 10.59375 -74.675781 11.484375 -78.851562 12.453125 -83.21875 C 13.421875 -87.59375 14.441406 -91.691406 15.515625 -95.515625 C 16.597656 -99.347656 17.707031 -102.453125 18.84375 -104.828125 C 19.976562 -107.203125 21.082031 -108.390625 22.15625 -108.390625 C 23.664062 -108.390625 24.5 -107.847656 24.65625 -106.765625 C 24.820312 -105.679688 24.691406 -104.410156 24.265625 -102.953125 C 23.835938 -101.503906 23.457031 -100.238281 23.125 -99.15625 C 21.40625 -93.007812 20.003906 -87.425781 18.921875 -82.40625 C 17.847656 -77.394531 16.851562 -72.328125 15.9375 -67.203125 C 15.019531 -62.085938 14.078125 -56.238281 13.109375 -49.65625 C 12.242188 -43.726562 11.429688 -36.828125 10.671875 -28.953125 C 9.921875 -21.078125 9.300781 -12.800781 8.8125 -4.125 C 8.332031 4.550781 8.195312 12.988281 8.40625 21.1875 C 8.625 29.382812 9.273438 36.773438 10.359375 43.359375 L 11.96875 51.28125 C 12.832031 51.0625 13.367188 50.707031 13.578125 50.21875 C 13.796875 49.738281 14.125 49.066406 14.5625 48.203125 L 18.4375 36.5625 C 20.914062 27.71875 23.34375 18.550781 25.71875 9.0625 C 28.09375 -0.425781 30.707031 -9.726562 33.5625 -18.84375 C 36.425781 -27.957031 39.742188 -36.394531 43.515625 -44.15625 C 44.585938 -46.207031 45.851562 -48.550781 47.3125 -51.1875 C 48.769531 -53.832031 50.363281 -55.695312 52.09375 -56.78125 C 53.0625 -57.425781 54.140625 -57.75 55.328125 -57.75 C 57.160156 -57.75 58.398438 -56.992188 59.046875 -55.484375 C 59.910156 -53.972656 60.394531 -51.222656 60.5 -47.234375 C 60.601562 -43.242188 60.492188 -38.769531 60.171875 -33.8125 C 59.847656 -28.851562 59.523438 -24.050781 59.203125 -19.40625 C 58.878906 -14.769531 58.71875 -11.050781 58.71875 -8.25 C 58.71875 -5.007812 58.851562 -2.582031 59.125 -0.96875 C 59.394531 0.644531 59.53125 2.316406 59.53125 4.046875 Z M 59.53125 4.046875 "/></g></g></g><g fill="#504081" fill-opacity="1"><g transform="translate(775.560572, 163.706159)"><g><path d="M 7.4375 -29.28125 C 9.488281 -30.351562 11.753906 -31.832031 14.234375 -33.71875 C 16.710938 -35.613281 18.0625 -37.851562 18.28125 -40.4375 C 16.875 -40.226562 15.390625 -39.472656 13.828125 -38.171875 C 12.265625 -36.878906 10.914062 -35.421875 9.78125 -33.796875 C 8.65625 -32.179688 7.875 -30.675781 7.4375 -29.28125 Z M 0.15625 -25.390625 C 0.15625 -28.085938 1.046875 -31 2.828125 -34.125 C 4.609375 -37.257812 6.816406 -39.929688 9.453125 -42.140625 C 12.097656 -44.347656 14.71875 -45.453125 17.3125 -45.453125 C 20.863281 -45.453125 22.71875 -44.101562 22.875 -41.40625 C 23.039062 -38.71875 21.882812 -35.804688 19.40625 -32.671875 C 18.113281 -31.273438 16.171875 -29.660156 13.578125 -27.828125 C 10.992188 -25.992188 8.460938 -24.96875 5.984375 -24.75 C 5.984375 -23.019531 6.035156 -21.484375 6.140625 -20.140625 C 6.253906 -18.796875 7.007812 -17.421875 8.40625 -16.015625 C 9.8125 -14.609375 11.59375 -13.90625 13.75 -13.90625 C 16.550781 -13.90625 19.460938 -14.796875 22.484375 -16.578125 C 25.503906 -18.359375 27.820312 -19.84375 29.4375 -21.03125 C 30.082031 -21.570312 30.59375 -22.003906 30.96875 -22.328125 C 31.351562 -22.648438 31.816406 -23.023438 32.359375 -23.453125 C 34.617188 -25.179688 36.046875 -26.445312 36.640625 -27.25 C 37.234375 -28.0625 37.742188 -28.601562 38.171875 -28.875 C 38.609375 -29.144531 39.632812 -29.28125 41.25 -29.28125 C 41.46875 -28.09375 41.546875 -27.28125 41.484375 -26.84375 C 41.429688 -26.414062 41.03125 -25.769531 40.28125 -24.90625 C 38.34375 -22.96875 35.890625 -20.757812 32.921875 -18.28125 C 29.953125 -15.800781 26.769531 -13.644531 23.375 -11.8125 C 19.976562 -9.976562 16.609375 -9.0625 13.265625 -9.0625 C 11.535156 -9.0625 9.890625 -9.359375 8.328125 -9.953125 C 6.765625 -10.546875 5.28125 -11.539062 3.875 -12.9375 C 1.9375 -14.882812 0.832031 -16.878906 0.5625 -18.921875 C 0.289062 -20.972656 0.15625 -23.128906 0.15625 -25.390625 Z M 0.15625 -25.390625 "/></g></g></g><path stroke-linecap="butt" transform="matrix(0.75, 0, 0, 0.75, 828.584072, 36.581167)" fill="none" stroke-linejoin="miter" d="M 21.830614 201.376166 C 18.413947 201.376166 15.648322 200.292832 13.538947 198.126165 C 11.455614 195.959498 10.413947 193.277207 10.413947 190.084498 C 10.413947 186.808456 11.455614 184.141789 13.538947 182.084498 C 15.648322 180.032414 18.413947 179.001164 21.830614 179.001164 C 25.356656 179.001164 28.174365 180.032414 30.288948 182.084498 C 32.398323 184.141789 33.455615 186.808456 33.455615 190.084498 C 33.455615 193.277207 32.398323 195.959498 30.288948 198.126165 C 28.174365 200.292832 25.356656 201.376166 21.830614 201.376166 Z M 21.830614 201.376166 " stroke="#504081" stroke-width="4.052866" stroke-opacity="1" stroke-miterlimit="4"/><g fill="#fef74b" fill-opacity="1"><g transform="translate(828.584072, 186.581157)"><g><path d="M 16.375 1.03125 C 13.820312 1.03125 11.753906 0.21875 10.171875 -1.40625 C 8.597656 -3.03125 7.8125 -5.035156 7.8125 -7.421875 C 7.8125 -9.898438 8.597656 -11.90625 10.171875 -13.4375 C 11.753906 -14.96875 13.820312 -15.734375 16.375 -15.734375 C 19.019531 -15.734375 21.128906 -14.96875 22.703125 -13.4375 C 24.285156 -11.90625 25.078125 -9.898438 25.078125 -7.421875 C 25.078125 -5.035156 24.285156 -3.03125 22.703125 -1.40625 C 21.128906 0.21875 19.019531 1.03125 16.375 1.03125 Z M 16.375 1.03125 "/></g></g></g></svg>