<svg xmlns="http://www.w3.org/2000/svg" xmlns:xlink="http://www.w3.org/1999/xlink" width="1548" zoomAndPan="magnify" viewBox="0 0 1161 296.999993" height="396" preserveAspectRatio="xMidYMid meet" version="1.0"><defs><g/></defs><g fill="#504081" fill-opacity="1"><g transform="translate(461.684767, 163.706181)"><g><path d="M 7.4375 43.1875 C 9.8125 43.1875 12.101562 42.160156 14.3125 40.109375 C 16.519531 38.066406 18.515625 35.722656 20.296875 33.078125 C 22.078125 30.441406 23.398438 28.207031 24.265625 26.375 C 27.390625 20.113281 29.4375 14.828125 30.40625 10.515625 C 31.382812 6.203125 32.25 3.398438 33 2.109375 C 32.351562 2.210938 31.378906 2.773438 30.078125 3.796875 C 28.785156 4.828125 27.519531 5.878906 26.28125 6.953125 C 25.039062 8.035156 24.15625 8.898438 23.625 9.546875 C 21.789062 11.378906 19.6875 13.585938 17.3125 16.171875 C 14.9375 18.765625 12.671875 21.570312 10.515625 24.59375 C 8.359375 27.613281 6.710938 30.660156 5.578125 33.734375 C 4.441406 36.804688 4.203125 39.796875 4.859375 42.703125 C 5.503906 42.816406 5.929688 42.925781 6.140625 43.03125 C 6.359375 43.132812 6.789062 43.1875 7.4375 43.1875 Z M 86.390625 -34.625 C 86.816406 -36.125 87.132812 -37.789062 87.34375 -39.625 C 87.5625 -41.457031 87.78125 -43.1875 88 -44.8125 C 88.644531 -49.445312 89.476562 -54.726562 90.5 -60.65625 C 91.53125 -66.59375 92.640625 -72.523438 93.828125 -78.453125 C 95.015625 -84.390625 96.09375 -89.675781 97.0625 -94.3125 C 97.382812 -95.820312 97.757812 -97.789062 98.1875 -100.21875 C 98.625 -102.644531 99.003906 -105.257812 99.328125 -108.0625 C 99.648438 -110.863281 99.753906 -113.476562 99.640625 -115.90625 C 99.535156 -118.332031 99.050781 -120.242188 98.1875 -121.640625 C 95.925781 -121.535156 93.5 -120.40625 90.90625 -118.25 C 88.320312 -116.09375 85.707031 -113.367188 83.0625 -110.078125 C 80.425781 -106.785156 77.945312 -103.332031 75.625 -99.71875 C 73.300781 -96.113281 71.222656 -92.742188 69.390625 -89.609375 C 67.554688 -86.484375 66.210938 -84.003906 65.359375 -82.171875 L 58.71875 -67.9375 C 57.207031 -64.59375 55.644531 -60.628906 54.03125 -56.046875 C 52.414062 -51.460938 50.90625 -46.851562 49.5 -42.21875 C 48.09375 -37.582031 46.90625 -33.429688 45.9375 -29.765625 C 45.726562 -28.578125 45.328125 -26.878906 44.734375 -24.671875 C 44.140625 -22.460938 43.570312 -20.273438 43.03125 -18.109375 C 42.488281 -15.953125 42.164062 -14.335938 42.0625 -13.265625 C 43.03125 -13.585938 43.972656 -14.070312 44.890625 -14.71875 C 45.804688 -15.363281 46.695312 -15.957031 47.5625 -16.5 L 63.40625 -25.234375 C 65.882812 -26.421875 68.632812 -27.710938 71.65625 -29.109375 C 74.675781 -30.515625 77.535156 -31.703125 80.234375 -32.671875 C 81.316406 -32.890625 82.421875 -33.160156 83.546875 -33.484375 C 84.679688 -33.804688 85.628906 -34.1875 86.390625 -34.625 Z M 6.46875 48.6875 C 3.988281 48.6875 2.019531 47.742188 0.5625 45.859375 C -0.894531 43.972656 -1.625 41.734375 -1.625 39.140625 C -1.507812 35.585938 -0.429688 31.84375 1.609375 27.90625 C 3.660156 23.96875 6.222656 20.109375 9.296875 16.328125 C 12.367188 12.554688 15.550781 9.050781 18.84375 5.8125 C 22.132812 2.582031 25.070312 -0.109375 27.65625 -2.265625 C 29.925781 -4.097656 31.597656 -5.390625 32.671875 -6.140625 C 33.753906 -6.898438 34.507812 -7.628906 34.9375 -8.328125 C 35.375 -9.023438 35.753906 -10.128906 36.078125 -11.640625 C 37.910156 -19.953125 40.09375 -28.609375 42.625 -37.609375 C 45.15625 -46.617188 48.117188 -55.539062 51.515625 -64.375 C 54.921875 -73.21875 58.804688 -81.679688 63.171875 -89.765625 C 67.535156 -97.859375 72.359375 -105.144531 77.640625 -111.625 C 78.828125 -113.132812 80.523438 -115.097656 82.734375 -117.515625 C 84.953125 -119.941406 87.378906 -122.097656 90.015625 -123.984375 C 92.660156 -125.878906 95.222656 -126.828125 97.703125 -126.828125 C 100.503906 -126.828125 102.390625 -125.910156 103.359375 -124.078125 C 104.335938 -122.242188 104.878906 -120.140625 104.984375 -117.765625 C 105.085938 -115.390625 105.140625 -113.34375 105.140625 -111.625 C 105.140625 -109.570312 104.84375 -106.46875 104.25 -102.3125 C 103.664062 -98.164062 102.941406 -93.503906 102.078125 -88.328125 C 101.210938 -83.148438 100.265625 -77.863281 99.234375 -72.46875 C 98.210938 -67.070312 97.296875 -62.082031 96.484375 -57.5 C 95.679688 -52.914062 95.066406 -49.171875 94.640625 -46.265625 C 94.421875 -44.535156 94.175781 -42.96875 93.90625 -41.5625 C 93.632812 -40.164062 93.5 -38.550781 93.5 -36.71875 C 95.332031 -36.71875 96.976562 -36.878906 98.4375 -37.203125 C 99.894531 -37.523438 101.644531 -37.6875 103.6875 -37.6875 C 105.738281 -37.6875 107.085938 -37.203125 107.734375 -36.234375 C 108.378906 -35.265625 108.484375 -34.265625 108.046875 -33.234375 C 107.617188 -32.210938 106.816406 -31.703125 105.640625 -31.703125 C 104.234375 -31.703125 103.664062 -31.835938 103.9375 -32.109375 C 104.207031 -32.378906 103.910156 -32.515625 103.046875 -32.515625 C 102.609375 -32.515625 101.796875 -32.457031 100.609375 -32.34375 C 99.429688 -32.238281 97.765625 -31.972656 95.609375 -31.546875 C 94.097656 -31.222656 93.179688 -30.898438 92.859375 -30.578125 C 92.535156 -30.253906 92.265625 -29.226562 92.046875 -27.5 L 84.28125 56.453125 C 84.28125 58.828125 84.195312 61.171875 84.03125 63.484375 C 83.875 65.804688 83.796875 68.367188 83.796875 71.171875 C 83.796875 74.410156 83.898438 77.023438 84.109375 79.015625 C 84.328125 81.015625 84.300781 82.5 84.03125 83.46875 C 83.757812 84.4375 82.816406 84.921875 81.203125 84.921875 C 80.015625 84.921875 79.125 83.953125 78.53125 82.015625 C 77.9375 80.078125 77.53125 77.734375 77.3125 74.984375 C 77.101562 72.234375 77.023438 69.585938 77.078125 67.046875 C 77.128906 64.515625 77.210938 62.65625 77.328125 61.46875 C 77.328125 60.175781 77.40625 59.207031 77.5625 58.5625 C 77.726562 57.914062 77.8125 56.890625 77.8125 55.484375 C 77.8125 53.546875 77.914062 51.09375 78.125 48.125 C 78.34375 45.15625 78.5625 42.078125 78.78125 38.890625 C 79 35.710938 79.160156 32.882812 79.265625 30.40625 L 84.28125 -16.828125 C 84.5 -18.984375 84.738281 -20.921875 85 -22.640625 C 85.269531 -24.367188 85.40625 -26.363281 85.40625 -28.625 C 83.894531 -27.875 81.898438 -27.09375 79.421875 -26.28125 C 76.941406 -25.476562 74.25 -24.320312 71.34375 -22.8125 C 68.101562 -21.1875 65.484375 -19.890625 63.484375 -18.921875 C 61.492188 -17.953125 59.742188 -17.035156 58.234375 -16.171875 C 56.722656 -15.304688 55.078125 -14.304688 53.296875 -13.171875 C 51.515625 -12.046875 49.171875 -10.566406 46.265625 -8.734375 C 46.046875 -8.628906 45.476562 -8.28125 44.5625 -7.6875 C 43.644531 -7.09375 42.78125 -6.472656 41.96875 -5.828125 C 41.164062 -5.179688 40.710938 -4.800781 40.609375 -4.6875 C 40.285156 -4.363281 39.769531 -2.851562 39.0625 -0.15625 C 38.363281 2.53125 37.421875 5.894531 36.234375 9.9375 C 35.046875 13.988281 33.585938 18.25 31.859375 22.71875 C 30.140625 27.195312 28.066406 31.40625 25.640625 35.34375 C 23.210938 39.28125 20.40625 42.488281 17.21875 44.96875 C 14.039062 47.445312 10.457031 48.6875 6.46875 48.6875 Z M 6.46875 48.6875 "/></g></g></g><g fill="#504081" fill-opacity="1"><g transform="translate(561.972141, 163.706181)"><g><path d="M 11.15625 10.03125 C 12.988281 9.0625 14.847656 7.601562 16.734375 5.65625 C 18.628906 3.71875 20.300781 1.671875 21.75 -0.484375 C 23.207031 -2.640625 24.15625 -4.523438 24.59375 -6.140625 L 16.5 0.8125 C 15.207031 2 14.265625 2.890625 13.671875 3.484375 C 13.078125 4.078125 12.644531 4.800781 12.375 5.65625 C 12.101562 6.519531 11.695312 7.976562 11.15625 10.03125 Z M 15.203125 -4.203125 C 15.742188 -4.523438 16.066406 -4.765625 16.171875 -4.921875 C 16.285156 -5.085938 16.554688 -5.390625 16.984375 -5.828125 C 17.628906 -6.253906 18.222656 -6.6875 18.765625 -7.125 C 21.140625 -9.164062 22.945312 -10.671875 24.1875 -11.640625 C 25.425781 -12.617188 26.285156 -13.429688 26.765625 -14.078125 C 27.253906 -14.722656 27.523438 -15.472656 27.578125 -16.328125 C 27.628906 -17.191406 27.65625 -18.539062 27.65625 -20.375 C 27.65625 -22.863281 27.171875 -24.109375 26.203125 -24.109375 C 25.453125 -24.109375 24.484375 -23.378906 23.296875 -21.921875 C 22.109375 -20.460938 20.921875 -18.628906 19.734375 -16.421875 C 18.546875 -14.210938 17.519531 -12 16.65625 -9.78125 C 15.800781 -7.570312 15.316406 -5.710938 15.203125 -4.203125 Z M 0 -0.640625 C 0 -1.941406 0.101562 -4.453125 0.3125 -8.171875 C 0.53125 -11.890625 0.882812 -16.144531 1.375 -20.9375 C 1.863281 -25.738281 2.484375 -30.378906 3.234375 -34.859375 C 3.992188 -39.335938 4.910156 -43.054688 5.984375 -46.015625 C 7.066406 -48.984375 8.304688 -50.46875 9.703125 -50.46875 C 10.460938 -50.46875 11.21875 -50.253906 11.96875 -49.828125 C 12.289062 -48.640625 12.453125 -47.773438 12.453125 -47.234375 C 12.453125 -46.691406 12.367188 -46.097656 12.203125 -45.453125 C 12.046875 -44.804688 11.753906 -43.566406 11.328125 -41.734375 C 9.816406 -34.078125 8.707031 -26.554688 8 -19.171875 C 7.300781 -11.785156 6.953125 -4.046875 6.953125 4.046875 C 7.710938 3.503906 8.492188 2.019531 9.296875 -0.40625 C 10.109375 -2.832031 11.050781 -5.632812 12.125 -8.8125 C 13.207031 -12 14.394531 -15.15625 15.6875 -18.28125 C 16.976562 -21.40625 18.488281 -23.992188 20.21875 -26.046875 C 21.945312 -28.097656 23.941406 -29.125 26.203125 -29.125 C 28.578125 -29.125 30.328125 -28.015625 31.453125 -25.796875 C 32.585938 -23.585938 33.15625 -21.351562 33.15625 -19.09375 C 33.800781 -19.300781 34.554688 -19.703125 35.421875 -20.296875 C 36.285156 -20.890625 37.039062 -21.40625 37.6875 -21.84375 C 38.769531 -22.59375 40.035156 -23.503906 41.484375 -24.578125 C 42.941406 -25.660156 44.367188 -26.632812 45.765625 -27.5 C 47.171875 -28.363281 48.304688 -28.796875 49.171875 -28.796875 C 50.140625 -28.796875 50.625 -28.148438 50.625 -26.859375 C 50.625 -26.316406 49.816406 -25.394531 48.203125 -24.09375 C 46.585938 -22.800781 44.703125 -21.398438 42.546875 -19.890625 C 40.390625 -18.378906 38.363281 -16.976562 36.46875 -15.6875 C 34.582031 -14.394531 33.375 -13.425781 32.84375 -12.78125 C 32.519531 -12.34375 32.003906 -11.125 31.296875 -9.125 C 30.597656 -7.132812 29.628906 -4.765625 28.390625 -2.015625 C 27.148438 0.734375 25.476562 3.484375 23.375 6.234375 C 21.269531 8.984375 18.546875 11.328125 15.203125 13.265625 C 14.554688 13.585938 13.828125 13.910156 13.015625 14.234375 C 12.210938 14.554688 11.539062 14.9375 11 15.375 C 10.25 15.800781 9.628906 17.09375 9.140625 19.25 C 8.648438 21.40625 8.296875 23.613281 8.078125 25.875 C 7.867188 28.144531 7.765625 29.765625 7.765625 30.734375 C 7.765625 32.671875 7.898438 34.800781 8.171875 37.125 C 8.441406 39.445312 8.519531 41.414062 8.40625 43.03125 C 8.300781 44.644531 7.65625 45.453125 6.46875 45.453125 C 5.28125 45.453125 4.578125 45.070312 4.359375 44.3125 C 4.148438 43.5625 3.9375 42.488281 3.71875 41.09375 C 2.75 34.289062 1.882812 27.359375 1.125 20.296875 C 0.375 13.234375 0 6.253906 0 -0.640625 Z M 0 -0.640625 "/></g></g></g><g fill="#504081" fill-opacity="1"><g transform="translate(607.263207, 163.706181)"><g><path d="M 11.15625 10.03125 C 12.988281 9.0625 14.847656 7.601562 16.734375 5.65625 C 18.628906 3.71875 20.300781 1.671875 21.75 -0.484375 C 23.207031 -2.640625 24.15625 -4.523438 24.59375 -6.140625 L 16.5 0.8125 C 15.207031 2 14.265625 2.890625 13.671875 3.484375 C 13.078125 4.078125 12.644531 4.800781 12.375 5.65625 C 12.101562 6.519531 11.695312 7.976562 11.15625 10.03125 Z M 15.203125 -4.203125 C 15.742188 -4.523438 16.066406 -4.765625 16.171875 -4.921875 C 16.285156 -5.085938 16.554688 -5.390625 16.984375 -5.828125 C 17.628906 -6.253906 18.222656 -6.6875 18.765625 -7.125 C 21.140625 -9.164062 22.945312 -10.671875 24.1875 -11.640625 C 25.425781 -12.617188 26.285156 -13.429688 26.765625 -14.078125 C 27.253906 -14.722656 27.523438 -15.472656 27.578125 -16.328125 C 27.628906 -17.191406 27.65625 -18.539062 27.65625 -20.375 C 27.65625 -22.863281 27.171875 -24.109375 26.203125 -24.109375 C 25.453125 -24.109375 24.484375 -23.378906 23.296875 -21.921875 C 22.109375 -20.460938 20.921875 -18.628906 19.734375 -16.421875 C 18.546875 -14.210938 17.519531 -12 16.65625 -9.78125 C 15.800781 -7.570312 15.316406 -5.710938 15.203125 -4.203125 Z M 0 -0.640625 C 0 -1.941406 0.101562 -4.453125 0.3125 -8.171875 C 0.53125 -11.890625 0.882812 -16.144531 1.375 -20.9375 C 1.863281 -25.738281 2.484375 -30.378906 3.234375 -34.859375 C 3.992188 -39.335938 4.910156 -43.054688 5.984375 -46.015625 C 7.066406 -48.984375 8.304688 -50.46875 9.703125 -50.46875 C 10.460938 -50.46875 11.21875 -50.253906 11.96875 -49.828125 C 12.289062 -48.640625 12.453125 -47.773438 12.453125 -47.234375 C 12.453125 -46.691406 12.367188 -46.097656 12.203125 -45.453125 C 12.046875 -44.804688 11.753906 -43.566406 11.328125 -41.734375 C 9.816406 -34.078125 8.707031 -26.554688 8 -19.171875 C 7.300781 -11.785156 6.953125 -4.046875 6.953125 4.046875 C 7.710938 3.503906 8.492188 2.019531 9.296875 -0.40625 C 10.109375 -2.832031 11.050781 -5.632812 12.125 -8.8125 C 13.207031 -12 14.394531 -15.15625 15.6875 -18.28125 C 16.976562 -21.40625 18.488281 -23.992188 20.21875 -26.046875 C 21.945312 -28.097656 23.941406 -29.125 26.203125 -29.125 C 28.578125 -29.125 30.328125 -28.015625 31.453125 -25.796875 C 32.585938 -23.585938 33.15625 -21.351562 33.15625 -19.09375 C 33.800781 -19.300781 34.554688 -19.703125 35.421875 -20.296875 C 36.285156 -20.890625 37.039062 -21.40625 37.6875 -21.84375 C 38.769531 -22.59375 40.035156 -23.503906 41.484375 -24.578125 C 42.941406 -25.660156 44.367188 -26.632812 45.765625 -27.5 C 47.171875 -28.363281 48.304688 -28.796875 49.171875 -28.796875 C 50.140625 -28.796875 50.625 -28.148438 50.625 -26.859375 C 50.625 -26.316406 49.816406 -25.394531 48.203125 -24.09375 C 46.585938 -22.800781 44.703125 -21.398438 42.546875 -19.890625 C 40.390625 -18.378906 38.363281 -16.976562 36.46875 -15.6875 C 34.582031 -14.394531 33.375 -13.425781 32.84375 -12.78125 C 32.519531 -12.34375 32.003906 -11.125 31.296875 -9.125 C 30.597656 -7.132812 29.628906 -4.765625 28.390625 -2.015625 C 27.148438 0.734375 25.476562 3.484375 23.375 6.234375 C 21.269531 8.984375 18.546875 11.328125 15.203125 13.265625 C 14.554688 13.585938 13.828125 13.910156 13.015625 14.234375 C 12.210938 14.554688 11.539062 14.9375 11 15.375 C 10.25 15.800781 9.628906 17.09375 9.140625 19.25 C 8.648438 21.40625 8.296875 23.613281 8.078125 25.875 C 7.867188 28.144531 7.765625 29.765625 7.765625 30.734375 C 7.765625 32.671875 7.898438 34.800781 8.171875 37.125 C 8.441406 39.445312 8.519531 41.414062 8.40625 43.03125 C 8.300781 44.644531 7.65625 45.453125 6.46875 45.453125 C 5.28125 45.453125 4.578125 45.070312 4.359375 44.3125 C 4.148438 43.5625 3.9375 42.488281 3.71875 41.09375 C 2.75 34.289062 1.882812 27.359375 1.125 20.296875 C 0.375 13.234375 0 6.253906 0 -0.640625 Z M 0 -0.640625 "/></g></g></g><g fill="#504081" fill-opacity="1"><g transform="translate(652.554273, 163.706181)"><g><path d="M 1.9375 26.6875 C 1.9375 28.957031 2.640625 30.09375 4.046875 30.09375 C 4.796875 30.09375 5.601562 29.820312 6.46875 29.28125 C 7.332031 28.738281 8.035156 28.253906 8.578125 27.828125 C 10.734375 26.203125 12.644531 23.742188 14.3125 20.453125 C 15.988281 17.171875 17.203125 14.179688 17.953125 11.484375 C 18.492188 9.648438 18.789062 7.789062 18.84375 5.90625 C 18.894531 4.019531 18.921875 1.941406 18.921875 -0.328125 C 17.628906 0.429688 16.144531 1.753906 14.46875 3.640625 C 12.800781 5.523438 11.484375 7.0625 10.515625 8.25 C 8.578125 10.625 6.660156 13.484375 4.765625 16.828125 C 2.878906 20.171875 1.9375 23.457031 1.9375 26.6875 Z M 0.484375 -26.203125 C 0.484375 -29.003906 1.238281 -31.507812 2.75 -33.71875 C 4.257812 -35.9375 6.066406 -37.71875 8.171875 -39.0625 C 10.273438 -40.414062 12.082031 -41.09375 13.59375 -41.09375 C 14.78125 -41.09375 15.664062 -40.660156 16.25 -39.796875 C 16.84375 -38.929688 16.875 -37.472656 16.34375 -35.421875 C 15.039062 -35.097656 14.117188 -34.910156 13.578125 -34.859375 C 13.046875 -34.804688 12.617188 -34.644531 12.296875 -34.375 C 11.972656 -34.101562 11.378906 -33.484375 10.515625 -32.515625 C 8.359375 -30.140625 7.359375 -28.222656 7.515625 -26.765625 C 7.679688 -25.316406 8.546875 -23.972656 10.109375 -22.734375 C 11.671875 -21.492188 13.609375 -19.957031 15.921875 -18.125 C 18.242188 -16.289062 20.429688 -13.804688 22.484375 -10.671875 C 24.859375 -12.296875 27.285156 -14.1875 29.765625 -16.34375 L 44.8125 -26.859375 C 46.207031 -27.828125 47.414062 -28.5 48.4375 -28.875 C 49.46875 -29.25 50.363281 -29.4375 51.125 -29.4375 C 52.414062 -29.4375 52.953125 -28.894531 52.734375 -27.8125 C 52.515625 -26.738281 51.488281 -25.664062 49.65625 -24.59375 L 38.65625 -16.984375 C 38.226562 -16.765625 37.3125 -16.144531 35.90625 -15.125 C 34.507812 -14.101562 32.972656 -12.972656 31.296875 -11.734375 C 29.628906 -10.492188 28.203125 -9.332031 27.015625 -8.25 C 25.828125 -7.164062 25.179688 -6.460938 25.078125 -6.140625 C 24.960938 -5.609375 25.117188 -4.585938 25.546875 -3.078125 C 25.984375 -1.566406 26.28125 0.398438 26.4375 2.828125 C 26.601562 5.253906 26.28125 8.21875 25.46875 11.71875 C 24.664062 15.226562 22.914062 19.300781 20.21875 23.9375 C 17.84375 27.925781 15.253906 30.863281 12.453125 32.75 C 9.648438 34.644531 7.007812 35.59375 4.53125 35.59375 C 2.257812 35.59375 0.398438 34.835938 -1.046875 33.328125 C -2.503906 31.816406 -3.234375 29.601562 -3.234375 26.6875 C -3.234375 23.019531 -2.34375 19.460938 -0.5625 16.015625 C 1.21875 12.566406 3.347656 9.382812 5.828125 6.46875 C 8.304688 3.5625 10.597656 1.054688 12.703125 -1.046875 C 14.804688 -3.148438 16.179688 -4.6875 16.828125 -5.65625 C 15.523438 -7.925781 13.957031 -9.894531 12.125 -11.5625 C 10.289062 -13.238281 8.484375 -14.773438 6.703125 -16.171875 C 4.929688 -17.578125 3.453125 -19.0625 2.265625 -20.625 C 1.078125 -22.1875 0.484375 -24.046875 0.484375 -26.203125 Z M 0.484375 -26.203125 "/></g></g></g><path stroke-linecap="butt" transform="matrix(0.75, 0, 0, 0.75, 720.502935, 36.581189)" fill="none" stroke-linejoin="miter" d="M 21.829422 201.376136 C 18.412755 201.376136 15.652338 200.292803 13.537755 198.126136 C 11.454421 195.959469 10.412754 193.277177 10.412754 190.084469 C 10.412754 186.808427 11.454421 184.14176 13.537755 182.084468 C 15.652338 180.032385 18.412755 179.001135 21.829422 179.001135 C 25.355464 179.001135 28.178381 180.032385 30.287756 182.084468 C 32.397131 184.14176 33.454423 186.808427 33.454423 190.084469 C 33.454423 193.277177 32.397131 195.959469 30.287756 198.126136 C 28.178381 200.292803 25.355464 201.376136 21.829422 201.376136 Z M 21.829422 201.376136 " stroke="#504081" stroke-width="4.052866" stroke-opacity="1" stroke-miterlimit="4"/><g fill="#fef74b" fill-opacity="1"><g transform="translate(720.502935, 186.581179)"><g><path d="M 16.375 1.03125 C 13.820312 1.03125 11.753906 0.21875 10.171875 -1.40625 C 8.597656 -3.03125 7.8125 -5.035156 7.8125 -7.421875 C 7.8125 -9.898438 8.597656 -11.90625 10.171875 -13.4375 C 11.753906 -14.96875 13.820312 -15.734375 16.375 -15.734375 C 19.019531 -15.734375 21.128906 -14.96875 22.703125 -13.4375 C 24.285156 -11.90625 25.078125 -9.898438 25.078125 -7.421875 C 25.078125 -5.035156 24.285156 -3.03125 22.703125 -1.40625 C 21.128906 0.21875 19.019531 1.03125 16.375 1.03125 Z M 16.375 1.03125 "/></g></g></g></svg>