<svg xmlns="http://www.w3.org/2000/svg" xmlns:xlink="http://www.w3.org/1999/xlink" width="1548" zoomAndPan="magnify" viewBox="0 0 1161 296.999993" height="396" preserveAspectRatio="xMidYMid meet" version="1.0"><defs><g/></defs><g fill="#504081" fill-opacity="1"><g transform="translate(437.907421, 163.706181)"><g><path d="M 73.921875 -32.1875 C 76.296875 -32.726562 78.671875 -33.5625 81.046875 -34.6875 C 83.421875 -35.820312 85.953125 -36.390625 88.640625 -36.390625 C 88.859375 -36.390625 89.101562 -36.363281 89.375 -36.3125 C 89.644531 -36.257812 89.890625 -36.234375 90.109375 -36.234375 C 94.847656 -35.910156 98.59375 -34.425781 101.34375 -31.78125 C 104.09375 -29.144531 106.085938 -25.800781 107.328125 -21.75 C 108.566406 -17.707031 109.347656 -13.367188 109.671875 -8.734375 C 109.992188 -4.097656 110.15625 0.429688 110.15625 4.859375 C 111.132812 4.640625 112.320312 4.015625 113.71875 2.984375 C 115.125 1.960938 116.523438 0.859375 117.921875 -0.328125 C 119.328125 -1.515625 120.40625 -2.375 121.15625 -2.90625 L 128.921875 -9.375 C 130.972656 -11.101562 133.375 -13.367188 136.125 -16.171875 C 138.875 -18.972656 141.21875 -21.398438 143.15625 -23.453125 C 144.664062 -25.066406 145.691406 -26.332031 146.234375 -27.25 C 146.773438 -28.164062 148.070312 -28.625 150.125 -28.625 C 150.332031 -28.625 150.515625 -28.625 150.671875 -28.625 C 150.835938 -28.625 150.976562 -28.625 151.09375 -28.625 C 151.414062 -27.332031 151.578125 -26.441406 151.578125 -25.953125 C 151.578125 -25.472656 151.144531 -24.695312 150.28125 -23.625 C 149.738281 -22.863281 149.25 -22.1875 148.8125 -21.59375 C 148.382812 -21 147.796875 -20.429688 147.046875 -19.890625 C 146.503906 -19.140625 146.070312 -18.492188 145.75 -17.953125 C 145.425781 -17.410156 144.832031 -16.816406 143.96875 -16.171875 C 143.101562 -14.984375 142.078125 -13.960938 140.890625 -13.109375 L 127.3125 -0.484375 C 126.226562 0.585938 125.066406 1.609375 123.828125 2.578125 C 122.585938 3.554688 121.320312 4.53125 120.03125 5.5 C 117.113281 7.65625 114.925781 9.191406 113.46875 10.109375 C 112.019531 11.023438 111 11.78125 110.40625 12.375 C 109.8125 12.96875 109.429688 13.773438 109.265625 14.796875 C 109.109375 15.828125 108.757812 17.523438 108.21875 19.890625 C 106.164062 31.328125 102.578125 42.25 97.453125 52.65625 C 92.335938 63.0625 85.628906 72.414062 77.328125 80.71875 C 71.390625 86.65625 65.507812 90.941406 59.6875 93.578125 C 53.863281 96.222656 48.523438 97.546875 43.671875 97.546875 C 38.390625 97.546875 33.992188 96.171875 30.484375 93.421875 C 26.984375 90.671875 24.878906 86.921875 24.171875 82.171875 C 23.472656 77.429688 24.632812 72.09375 27.65625 66.15625 C 29.8125 62.0625 32.507812 58.207031 35.75 54.59375 C 38.988281 50.976562 42.382812 47.820312 45.9375 45.125 C 54.03125 38.769531 61.984375 33.378906 69.796875 28.953125 C 77.617188 24.535156 85.84375 19.84375 94.46875 14.875 C 96.945312 13.476562 98.832031 12.425781 100.125 11.71875 C 101.425781 11.019531 102.289062 9.972656 102.71875 8.578125 L 102.71875 8.09375 C 103.257812 4.957031 103.53125 1.265625 103.53125 -2.984375 C 103.53125 -7.242188 103.070312 -11.421875 102.15625 -15.515625 C 101.238281 -19.617188 99.703125 -23.046875 97.546875 -25.796875 C 95.390625 -28.546875 92.421875 -29.921875 88.640625 -29.921875 C 86.921875 -29.921875 85.085938 -29.597656 83.140625 -28.953125 C 78.722656 -27.554688 75.351562 -26.101562 73.03125 -24.59375 C 70.71875 -23.082031 68.78125 -21.597656 67.21875 -20.140625 C 65.65625 -18.679688 63.628906 -17.144531 61.140625 -15.53125 C 60.816406 -15.425781 60.570312 -15.265625 60.40625 -15.046875 C 60.25 -14.828125 59.90625 -14.71875 59.375 -14.71875 C 59.257812 -14.71875 59.09375 -14.742188 58.875 -14.796875 C 58.664062 -14.847656 58.453125 -14.875 58.234375 -14.875 C 56.503906 -15.207031 55.664062 -15.992188 55.71875 -17.234375 C 55.78125 -18.472656 56.269531 -19.789062 57.1875 -21.1875 C 58.101562 -22.59375 58.832031 -23.617188 59.375 -24.265625 C 59.90625 -25.128906 60.410156 -25.882812 60.890625 -26.53125 C 61.378906 -27.175781 61.894531 -27.875 62.4375 -28.625 C 66.75 -34.882812 71.0625 -40.976562 75.375 -46.90625 C 79.695312 -52.84375 83.796875 -59.097656 87.671875 -65.671875 C 88.972656 -67.941406 90.484375 -71.015625 92.203125 -74.890625 C 93.929688 -78.773438 95.578125 -83.007812 97.140625 -87.59375 C 98.703125 -92.175781 99.882812 -96.734375 100.6875 -101.265625 C 101.5 -105.796875 101.53125 -109.894531 100.78125 -113.5625 C 100.351562 -115.71875 99.734375 -117.226562 98.921875 -118.09375 C 98.109375 -118.957031 97.164062 -119.390625 96.09375 -119.390625 C 94.789062 -119.390625 93.332031 -118.875 91.71875 -117.84375 C 90.101562 -116.820312 88.566406 -115.632812 87.109375 -114.28125 C 85.648438 -112.9375 84.4375 -111.78125 83.46875 -110.8125 C 78.9375 -106.28125 74.59375 -100.722656 70.4375 -94.140625 C 66.289062 -87.566406 62.4375 -80.453125 58.875 -72.796875 C 55.320312 -65.140625 52.035156 -57.289062 49.015625 -49.25 C 45.992188 -41.21875 43.296875 -33.375 40.921875 -25.71875 C 38.554688 -18.0625 36.5625 -11.050781 34.9375 -4.6875 C 33.863281 -0.476562 32.785156 3.585938 31.703125 7.515625 C 30.628906 11.453125 29.660156 15.632812 28.796875 20.0625 L 25.71875 40.609375 C 25.394531 42.003906 25.070312 42.914062 24.75 43.34375 C 24.425781 43.78125 23.671875 44.269531 22.484375 44.8125 C 20.429688 44.375 19.378906 43.5625 19.328125 42.375 C 19.273438 41.195312 19.300781 39.582031 19.40625 37.53125 L 22.484375 7.125 C 23.671875 -6.570312 25.207031 -20.078125 27.09375 -33.390625 C 28.976562 -46.710938 30.625 -60.117188 32.03125 -73.609375 C 32.570312 -76.953125 33.03125 -80.347656 33.40625 -83.796875 C 33.78125 -87.242188 33.96875 -90.640625 33.96875 -93.984375 C 33.96875 -95.710938 34.019531 -97.679688 34.125 -99.890625 C 34.238281 -102.097656 34.1875 -103.957031 33.96875 -105.46875 C 33.644531 -107.300781 33.347656 -108.890625 33.078125 -110.234375 C 32.804688 -111.585938 32.457031 -113.019531 32.03125 -114.53125 C 30.300781 -114.425781 28.816406 -113.484375 27.578125 -111.703125 C 26.335938 -109.921875 25.285156 -108.273438 24.421875 -106.765625 C 19.890625 -99.972656 16.003906 -92.394531 12.765625 -84.03125 C 9.535156 -75.675781 7.328125 -67.347656 6.140625 -59.046875 C 5.710938 -56.128906 5.441406 -52.785156 5.328125 -49.015625 C 5.222656 -45.242188 5.601562 -42.0625 6.46875 -39.46875 C 7.113281 -37.851562 7.867188 -36.851562 8.734375 -36.46875 C 9.597656 -36.09375 10.429688 -35.90625 11.234375 -35.90625 C 12.046875 -35.90625 12.640625 -35.691406 13.015625 -35.265625 C 13.398438 -34.835938 13.429688 -33.8125 13.109375 -32.1875 C 11.703125 -31.863281 10.351562 -31.703125 9.0625 -31.703125 C 7.332031 -31.703125 5.953125 -32.101562 4.921875 -32.90625 C 3.898438 -33.71875 2.960938 -34.9375 2.109375 -36.5625 C 0.703125 -39.6875 0 -43.109375 0 -46.828125 C 0 -50.546875 0.210938 -54.078125 0.640625 -57.421875 C 1.179688 -62.816406 2.234375 -68.15625 3.796875 -73.4375 C 5.359375 -78.726562 7.054688 -83.851562 8.890625 -88.8125 L 13.90625 -99.8125 C 14.445312 -101 15.335938 -102.773438 16.578125 -105.140625 C 17.816406 -107.515625 19.300781 -109.941406 21.03125 -112.421875 C 22.757812 -114.898438 24.566406 -117.003906 26.453125 -118.734375 C 28.335938 -120.460938 30.25 -121.328125 32.1875 -121.328125 C 34.019531 -121.328125 35.640625 -120.410156 37.046875 -118.578125 C 38.878906 -116.304688 40.09375 -113.609375 40.6875 -110.484375 C 41.28125 -107.359375 41.546875 -104.125 41.484375 -100.78125 C 41.429688 -97.4375 41.40625 -94.304688 41.40625 -91.390625 C 41.40625 -88.703125 41.269531 -86.25 41 -84.03125 C 40.738281 -81.820312 40.5 -79.425781 40.28125 -76.84375 C 40.0625 -71.988281 39.628906 -67.210938 38.984375 -62.515625 C 38.335938 -57.828125 37.632812 -53.054688 36.875 -48.203125 L 34.453125 -27.34375 C 34.234375 -25.9375 34.015625 -24.71875 33.796875 -23.6875 C 33.585938 -22.664062 33.484375 -21.507812 33.484375 -20.21875 C 34.242188 -21.1875 34.785156 -22.367188 35.109375 -23.765625 C 35.429688 -25.171875 35.753906 -26.414062 36.078125 -27.5 L 38.34375 -34.78125 C 41.144531 -44.050781 44.515625 -53.320312 48.453125 -62.59375 C 52.390625 -71.875 56.617188 -80.722656 61.140625 -89.140625 C 62.867188 -91.941406 65.082031 -95.390625 67.78125 -99.484375 C 70.476562 -103.585938 73.46875 -107.632812 76.75 -111.625 C 80.039062 -115.613281 83.410156 -118.925781 86.859375 -121.5625 C 90.316406 -124.207031 93.660156 -125.53125 96.890625 -125.53125 C 99.484375 -125.53125 101.75 -124.476562 103.6875 -122.375 C 105.632812 -120.269531 106.984375 -117.0625 107.734375 -112.75 C 108.492188 -108.21875 108.414062 -103.414062 107.5 -98.34375 C 106.582031 -93.28125 105.148438 -88.160156 103.203125 -82.984375 C 101.265625 -77.804688 99.082031 -72.816406 96.65625 -68.015625 C 94.226562 -63.222656 91.828125 -58.882812 89.453125 -55 C 88.585938 -53.707031 87.398438 -51.953125 85.890625 -49.734375 C 84.378906 -47.523438 82.789062 -45.234375 81.125 -42.859375 C 79.457031 -40.492188 77.945312 -38.335938 76.59375 -36.390625 C 75.25 -34.453125 74.359375 -33.050781 73.921875 -32.1875 Z M 43.359375 92.046875 C 45.722656 92.046875 48.144531 91.613281 50.625 90.75 C 53.113281 89.882812 55.164062 89.078125 56.78125 88.328125 C 62.925781 85.191406 68.265625 81.28125 72.796875 76.59375 C 77.328125 71.90625 81.316406 66.703125 84.765625 60.984375 C 88.210938 55.265625 91.285156 49.390625 93.984375 43.359375 C 94.523438 42.171875 95.195312 40.441406 96 38.171875 C 96.8125 35.910156 97.617188 33.457031 98.421875 30.8125 C 99.234375 28.175781 99.910156 25.722656 100.453125 23.453125 C 100.992188 21.191406 101.265625 19.414062 101.265625 18.125 L 64.21875 39.3125 L 49.984375 49.65625 C 48.148438 51.0625 45.992188 52.976562 43.515625 55.40625 C 41.035156 57.832031 39.039062 60.015625 37.53125 61.953125 C 33.21875 67.566406 30.765625 72.632812 30.171875 77.15625 C 29.578125 81.6875 30.492188 85.300781 32.921875 88 C 35.347656 90.695312 38.828125 92.046875 43.359375 92.046875 Z M 43.359375 92.046875 "/></g></g></g><g fill="#504081" fill-opacity="1"><g transform="translate(582.677099, 163.706181)"><g><path d="M 8.09375 -3.71875 C 9.707031 -4.15625 11.160156 -5.582031 12.453125 -8 C 13.742188 -10.425781 14.660156 -13.203125 15.203125 -16.328125 C 15.742188 -19.460938 15.878906 -22.347656 15.609375 -24.984375 C 15.335938 -27.628906 14.503906 -29.4375 13.109375 -30.40625 C 12.785156 -29.21875 12.191406 -27.519531 11.328125 -25.3125 C 10.460938 -23.101562 9.625 -20.675781 8.8125 -18.03125 C 8.007812 -15.394531 7.472656 -12.804688 7.203125 -10.265625 C 6.929688 -7.734375 7.226562 -5.550781 8.09375 -3.71875 Z M 0 -9.21875 C 0 -10.625 0.296875 -12.703125 0.890625 -15.453125 C 1.484375 -18.203125 2.316406 -21.164062 3.390625 -24.34375 C 4.472656 -27.53125 5.6875 -30.550781 7.03125 -33.40625 C 8.382812 -36.257812 9.84375 -38.601562 11.40625 -40.4375 C 12.96875 -42.269531 14.554688 -43.1875 16.171875 -43.1875 C 17.253906 -43.1875 18.007812 -42.703125 18.4375 -41.734375 C 18.875 -40.765625 18.984375 -39.957031 18.765625 -39.3125 C 18.546875 -38.769531 18.140625 -38.226562 17.546875 -37.6875 C 16.953125 -37.144531 16.441406 -36.550781 16.015625 -35.90625 C 16.234375 -35.15625 16.769531 -34.320312 17.625 -33.40625 C 18.488281 -32.488281 19.351562 -31.273438 20.21875 -29.765625 C 21.082031 -28.253906 21.648438 -26.203125 21.921875 -23.609375 C 22.191406 -21.023438 21.894531 -17.628906 21.03125 -13.421875 C 19.84375 -7.816406 17.953125 -3.613281 15.359375 -0.8125 C 12.773438 1.988281 10.242188 3.390625 7.765625 3.390625 C 5.710938 3.390625 3.90625 2.335938 2.34375 0.234375 C 0.78125 -1.859375 0 -5.007812 0 -9.21875 Z M 0 -9.21875 "/></g></g></g><g fill="#504081" fill-opacity="1"><g transform="translate(611.145775, 163.706181)"><g><path d="M 8.09375 -3.71875 C 9.707031 -4.15625 11.160156 -5.582031 12.453125 -8 C 13.742188 -10.425781 14.660156 -13.203125 15.203125 -16.328125 C 15.742188 -19.460938 15.878906 -22.347656 15.609375 -24.984375 C 15.335938 -27.628906 14.503906 -29.4375 13.109375 -30.40625 C 12.785156 -29.21875 12.191406 -27.519531 11.328125 -25.3125 C 10.460938 -23.101562 9.625 -20.675781 8.8125 -18.03125 C 8.007812 -15.394531 7.472656 -12.804688 7.203125 -10.265625 C 6.929688 -7.734375 7.226562 -5.550781 8.09375 -3.71875 Z M 0 -9.21875 C 0 -10.625 0.296875 -12.703125 0.890625 -15.453125 C 1.484375 -18.203125 2.316406 -21.164062 3.390625 -24.34375 C 4.472656 -27.53125 5.6875 -30.550781 7.03125 -33.40625 C 8.382812 -36.257812 9.84375 -38.601562 11.40625 -40.4375 C 12.96875 -42.269531 14.554688 -43.1875 16.171875 -43.1875 C 17.253906 -43.1875 18.007812 -42.703125 18.4375 -41.734375 C 18.875 -40.765625 18.984375 -39.957031 18.765625 -39.3125 C 18.546875 -38.769531 18.140625 -38.226562 17.546875 -37.6875 C 16.953125 -37.144531 16.441406 -36.550781 16.015625 -35.90625 C 16.234375 -35.15625 16.769531 -34.320312 17.625 -33.40625 C 18.488281 -32.488281 19.351562 -31.273438 20.21875 -29.765625 C 21.082031 -28.253906 21.648438 -26.203125 21.921875 -23.609375 C 22.191406 -21.023438 21.894531 -17.628906 21.03125 -13.421875 C 19.84375 -7.816406 17.953125 -3.613281 15.359375 -0.8125 C 12.773438 1.988281 10.242188 3.390625 7.765625 3.390625 C 5.710938 3.390625 3.90625 2.335938 2.34375 0.234375 C 0.78125 -1.859375 0 -5.007812 0 -9.21875 Z M 0 -9.21875 "/></g></g></g><g fill="#504081" fill-opacity="1"><g transform="translate(639.614451, 163.706181)"><g><path d="M 0 -12.296875 C 0 -20.054688 0.1875 -27.816406 0.5625 -35.578125 C 0.9375 -43.347656 1.453125 -50.847656 2.109375 -58.078125 C 2.210938 -58.828125 2.425781 -60.601562 2.75 -63.40625 C 3.070312 -66.21875 3.503906 -69.484375 4.046875 -73.203125 C 4.585938 -76.921875 5.234375 -80.554688 5.984375 -84.109375 C 6.742188 -87.671875 7.609375 -90.640625 8.578125 -93.015625 C 9.546875 -95.390625 10.566406 -96.578125 11.640625 -96.578125 C 13.796875 -96.578125 15.035156 -96.007812 15.359375 -94.875 C 15.691406 -93.738281 15.585938 -92.203125 15.046875 -90.265625 C 14.503906 -88.328125 14.019531 -86.113281 13.59375 -83.625 C 12.1875 -75.644531 10.914062 -67.019531 9.78125 -57.75 C 8.65625 -48.476562 7.796875 -39.257812 7.203125 -30.09375 C 6.609375 -20.925781 6.3125 -12.515625 6.3125 -4.859375 C 6.519531 -5.066406 7.164062 -6.222656 8.25 -8.328125 C 9.332031 -10.429688 10.707031 -13.097656 12.375 -16.328125 C 14.039062 -19.566406 15.84375 -22.992188 17.78125 -26.609375 C 19.726562 -30.222656 21.671875 -33.617188 23.609375 -36.796875 C 25.554688 -39.984375 27.3125 -42.570312 28.875 -44.5625 C 30.4375 -46.5625 31.648438 -47.5625 32.515625 -47.5625 C 34.890625 -47.5625 35.941406 -46.992188 35.671875 -45.859375 C 35.398438 -44.722656 34.507812 -43.1875 33 -41.25 C 31.488281 -39.3125 29.925781 -36.992188 28.3125 -34.296875 C 27.875 -33.648438 27.46875 -33.03125 27.09375 -32.4375 C 26.71875 -31.84375 26.3125 -31.222656 25.875 -30.578125 C 24.90625 -28.953125 24.257812 -27.679688 23.9375 -26.765625 C 23.613281 -25.847656 23.476562 -24.71875 23.53125 -23.375 C 23.59375 -22.03125 23.785156 -19.789062 24.109375 -16.65625 C 24.316406 -14.394531 24.769531 -11.507812 25.46875 -8 C 26.175781 -4.5 27.015625 -1 27.984375 2.5 C 28.953125 6.007812 29.816406 8.84375 30.578125 11 C 31.441406 13.050781 32.195312 14.5625 32.84375 15.53125 C 33.488281 16.5 33.914062 17.523438 34.125 18.609375 C 33.695312 19.035156 33.265625 19.488281 32.828125 19.96875 C 32.398438 20.457031 31.863281 20.703125 31.21875 20.703125 C 31 20.703125 30.566406 20.59375 29.921875 20.375 C 28.628906 19.726562 27.523438 18.597656 26.609375 16.984375 C 25.691406 15.367188 24.9375 13.644531 24.34375 11.8125 C 23.75 9.976562 23.238281 8.414062 22.8125 7.125 C 21.625 3.5625 20.648438 -0.078125 19.890625 -3.796875 C 19.140625 -7.515625 18.332031 -11.207031 17.46875 -14.875 L 10.359375 0.640625 C 9.597656 3.015625 8.921875 5.46875 8.328125 8 C 7.734375 10.539062 7.085938 12.671875 6.390625 14.390625 C 5.691406 16.117188 4.800781 16.984375 3.71875 16.984375 C 2.320312 16.984375 1.429688 16.46875 1.046875 15.4375 C 0.671875 14.414062 0.507812 13.148438 0.5625 11.640625 C 0.613281 10.128906 0.585938 8.726562 0.484375 7.4375 C 0.378906 6.25 0.269531 5.332031 0.15625 4.6875 C 0.0507812 4.039062 0 2.960938 0 1.453125 Z M 0 -12.296875 "/></g></g></g><g fill="#504081" fill-opacity="1"><g transform="translate(676.332566, 163.706181)"><g><path d="M 1.9375 26.6875 C 1.9375 28.957031 2.640625 30.09375 4.046875 30.09375 C 4.796875 30.09375 5.601562 29.820312 6.46875 29.28125 C 7.332031 28.738281 8.035156 28.253906 8.578125 27.828125 C 10.734375 26.203125 12.644531 23.742188 14.3125 20.453125 C 15.988281 17.171875 17.203125 14.179688 17.953125 11.484375 C 18.492188 9.648438 18.789062 7.789062 18.84375 5.90625 C 18.894531 4.019531 18.921875 1.941406 18.921875 -0.328125 C 17.628906 0.429688 16.144531 1.753906 14.46875 3.640625 C 12.800781 5.523438 11.484375 7.0625 10.515625 8.25 C 8.578125 10.625 6.660156 13.484375 4.765625 16.828125 C 2.878906 20.171875 1.9375 23.457031 1.9375 26.6875 Z M 0.484375 -26.203125 C 0.484375 -29.003906 1.238281 -31.507812 2.75 -33.71875 C 4.257812 -35.9375 6.066406 -37.71875 8.171875 -39.0625 C 10.273438 -40.414062 12.082031 -41.09375 13.59375 -41.09375 C 14.78125 -41.09375 15.664062 -40.660156 16.25 -39.796875 C 16.84375 -38.929688 16.875 -37.472656 16.34375 -35.421875 C 15.039062 -35.097656 14.117188 -34.910156 13.578125 -34.859375 C 13.046875 -34.804688 12.617188 -34.644531 12.296875 -34.375 C 11.972656 -34.101562 11.378906 -33.484375 10.515625 -32.515625 C 8.359375 -30.140625 7.359375 -28.222656 7.515625 -26.765625 C 7.679688 -25.316406 8.546875 -23.972656 10.109375 -22.734375 C 11.671875 -21.492188 13.609375 -19.957031 15.921875 -18.125 C 18.242188 -16.289062 20.429688 -13.804688 22.484375 -10.671875 C 24.859375 -12.296875 27.285156 -14.1875 29.765625 -16.34375 L 44.8125 -26.859375 C 46.207031 -27.828125 47.414062 -28.5 48.4375 -28.875 C 49.46875 -29.25 50.363281 -29.4375 51.125 -29.4375 C 52.414062 -29.4375 52.953125 -28.894531 52.734375 -27.8125 C 52.515625 -26.738281 51.488281 -25.664062 49.65625 -24.59375 L 38.65625 -16.984375 C 38.226562 -16.765625 37.3125 -16.144531 35.90625 -15.125 C 34.507812 -14.101562 32.972656 -12.972656 31.296875 -11.734375 C 29.628906 -10.492188 28.203125 -9.332031 27.015625 -8.25 C 25.828125 -7.164062 25.179688 -6.460938 25.078125 -6.140625 C 24.960938 -5.609375 25.117188 -4.585938 25.546875 -3.078125 C 25.984375 -1.566406 26.28125 0.398438 26.4375 2.828125 C 26.601562 5.253906 26.28125 8.21875 25.46875 11.71875 C 24.664062 15.226562 22.914062 19.300781 20.21875 23.9375 C 17.84375 27.925781 15.253906 30.863281 12.453125 32.75 C 9.648438 34.644531 7.007812 35.59375 4.53125 35.59375 C 2.257812 35.59375 0.398438 34.835938 -1.046875 33.328125 C -2.503906 31.816406 -3.234375 29.601562 -3.234375 26.6875 C -3.234375 23.019531 -2.34375 19.460938 -0.5625 16.015625 C 1.21875 12.566406 3.347656 9.382812 5.828125 6.46875 C 8.304688 3.5625 10.597656 1.054688 12.703125 -1.046875 C 14.804688 -3.148438 16.179688 -4.6875 16.828125 -5.65625 C 15.523438 -7.925781 13.957031 -9.894531 12.125 -11.5625 C 10.289062 -13.238281 8.484375 -14.773438 6.703125 -16.171875 C 4.929688 -17.578125 3.453125 -19.0625 2.265625 -20.625 C 1.078125 -22.1875 0.484375 -24.046875 0.484375 -26.203125 Z M 0.484375 -26.203125 "/></g></g></g><path stroke-linecap="butt" transform="matrix(0.75, 0, 0, 0.75, 736.192166, 42.374997)" fill="none" stroke-linejoin="miter" d="M 21.832322 201.375017 C 18.415655 201.375017 15.65003 200.291683 13.540655 198.125017 C 11.457322 195.95835 10.415655 193.281266 10.415655 190.083349 C 10.415655 186.807308 11.457322 184.140641 13.540655 182.088557 C 15.65003 180.031265 18.415655 179.005224 21.832322 179.005224 C 25.358364 179.005224 28.176073 180.031265 30.285448 182.088557 C 32.400031 184.140641 33.452115 186.807308 33.452115 190.083349 C 33.452115 193.281266 32.400031 195.95835 30.285448 198.125017 C 28.176073 200.291683 25.358364 201.375017 21.832322 201.375017 Z M 21.832322 201.375017 " stroke="#504081" stroke-width="4.052866" stroke-opacity="1" stroke-miterlimit="4"/><g fill="#fef74b" fill-opacity="1"><g transform="translate(736.192166, 192.374987)"><g><path d="M 16.375 1.03125 C 13.820312 1.03125 11.753906 0.21875 10.171875 -1.40625 C 8.597656 -3.03125 7.8125 -5.035156 7.8125 -7.421875 C 7.8125 -9.898438 8.597656 -11.90625 10.171875 -13.4375 C 11.753906 -14.96875 13.820312 -15.734375 16.375 -15.734375 C 19.019531 -15.734375 21.128906 -14.96875 22.703125 -13.4375 C 24.285156 -11.90625 25.078125 -9.898438 25.078125 -7.421875 C 25.078125 -5.035156 24.285156 -3.03125 22.703125 -1.40625 C 21.128906 0.21875 19.019531 1.03125 16.375 1.03125 Z M 16.375 1.03125 "/></g></g></g></svg>