<svg xmlns="http://www.w3.org/2000/svg" xmlns:xlink="http://www.w3.org/1999/xlink" width="150" zoomAndPan="magnify" viewBox="0 0 112.5 112.499997" height="150" preserveAspectRatio="xMidYMid meet" version="1.0"><defs><g/><clipPath id="b7dfad345c"><path d="M 0 0 L 112.003906 0 L 112.003906 112.003906 L 0 112.003906 Z M 0 0 " clip-rule="nonzero"/></clipPath></defs><g clip-path="url(#b7dfad345c)"><path fill="#ffffff" d="M 0 0 L 112.003906 0 L 112.003906 112.003906 L 0 112.003906 Z M 0 0 " fill-opacity="1" fill-rule="nonzero"/><path fill="#efe1ff" d="M 0 0 L 112.003906 0 L 112.003906 112.003906 L 0 112.003906 Z M 0 0 " fill-opacity="1" fill-rule="nonzero"/></g><g fill="#504081" fill-opacity="1"><g transform="translate(11.336732, 58.91332)"><g><path d="M -0.34375 2.265625 C -0.34375 0.0546875 -0.160156 -2.117188 0.203125 -4.265625 C 0.578125 -6.410156 1.050781 -8.453125 1.625 -10.390625 C 2.195312 -12.335938 2.796875 -14.101562 3.421875 -15.6875 C 3.867188 -16.8125 4.40625 -17.992188 5.03125 -19.234375 C 5.664062 -20.484375 6.382812 -21.671875 7.1875 -22.796875 C 7.988281 -23.929688 8.851562 -24.875 9.78125 -25.625 C 10.4375 -26.132812 11.15625 -26.5625 11.9375 -26.90625 C 12.71875 -27.257812 13.476562 -27.4375 14.21875 -27.4375 C 14.78125 -27.4375 15.316406 -27.3125 15.828125 -27.0625 C 16.347656 -26.820312 16.804688 -26.4375 17.203125 -25.90625 C 17.734375 -25.132812 18.023438 -24.40625 18.078125 -23.71875 C 18.140625 -23.03125 18.171875 -22.242188 18.171875 -21.359375 C 18.171875 -20.585938 18.050781 -19.71875 17.8125 -18.75 C 17.582031 -17.78125 17.273438 -16.78125 16.890625 -15.75 C 16.515625 -14.726562 16.117188 -13.742188 15.703125 -12.796875 C 15.296875 -11.859375 14.921875 -11.039062 14.578125 -10.34375 C 14.460938 -10.0625 14.359375 -9.84375 14.265625 -9.6875 C 14.171875 -9.539062 13.945312 -9.4375 13.59375 -9.375 C 13.289062 -9.582031 13.144531 -9.765625 13.15625 -9.921875 C 13.164062 -10.085938 13.253906 -10.332031 13.421875 -10.65625 C 13.515625 -10.914062 13.609375 -11.148438 13.703125 -11.359375 C 13.796875 -11.566406 13.890625 -11.789062 13.984375 -12.03125 C 14.679688 -13.632812 15.328125 -15.28125 15.921875 -16.96875 C 16.515625 -18.65625 16.8125 -20.441406 16.8125 -22.328125 C 16.8125 -23.523438 16.566406 -24.394531 16.078125 -24.9375 C 15.585938 -25.488281 14.984375 -25.765625 14.265625 -25.765625 C 13.023438 -25.765625 11.800781 -25.15625 10.59375 -23.9375 C 9.59375 -22.9375 8.664062 -21.707031 7.8125 -20.25 C 6.957031 -18.800781 6.191406 -17.242188 5.515625 -15.578125 C 4.847656 -13.910156 4.269531 -12.25 3.78125 -10.59375 C 3.289062 -8.9375 2.90625 -7.410156 2.625 -6.015625 C 2.289062 -4.472656 2.007812 -2.785156 1.78125 -0.953125 C 1.550781 0.867188 1.46875 2.691406 1.53125 4.515625 C 1.601562 6.347656 1.929688 8.046875 2.515625 9.609375 C 2.816406 10.585938 3.3125 11.441406 4 12.171875 C 4.6875 12.910156 5.59375 13.28125 6.71875 13.28125 C 7.71875 13.28125 8.691406 13.015625 9.640625 12.484375 C 10.597656 11.960938 11.425781 11.4375 12.125 10.90625 L 13.3125 9.859375 C 13.550781 9.648438 13.757812 9.472656 13.9375 9.328125 C 14.125 9.191406 14.335938 9.003906 14.578125 8.765625 C 15.859375 7.460938 17.007812 6.046875 18.03125 4.515625 C 19.0625 2.992188 20.023438 1.410156 20.921875 -0.234375 C 21.816406 -1.890625 22.6875 -3.523438 23.53125 -5.140625 C 23.738281 -5.535156 23.941406 -5.804688 24.140625 -5.953125 C 24.335938 -6.109375 24.515625 -6.1875 24.671875 -6.1875 C 24.835938 -6.1875 24.96875 -6.128906 25.0625 -6.015625 C 25.15625 -5.898438 25.203125 -5.78125 25.203125 -5.65625 L 20 3.84375 C 19.664062 4.332031 19.34375 4.8125 19.03125 5.28125 C 18.71875 5.75 18.382812 6.210938 18.03125 6.671875 C 17.539062 7.328125 16.875 8.109375 16.03125 9.015625 C 15.195312 9.921875 14.257812 10.8125 13.21875 11.6875 C 12.1875 12.5625 11.109375 13.285156 9.984375 13.859375 C 8.867188 14.429688 7.765625 14.71875 6.671875 14.71875 C 5.503906 14.71875 4.507812 14.429688 3.6875 13.859375 C 2.863281 13.285156 2.1875 12.53125 1.65625 11.59375 C 1.132812 10.664062 0.726562 9.648438 0.4375 8.546875 C 0.144531 7.441406 -0.0546875 6.335938 -0.171875 5.234375 C -0.285156 4.140625 -0.34375 3.148438 -0.34375 2.265625 Z M -0.34375 2.265625 "/></g></g></g><g fill="#504081" fill-opacity="1"><g transform="translate(35.135554, 58.91332)"><g><path d="M 1.75 -0.796875 C 2.09375 -0.890625 2.40625 -1.195312 2.6875 -1.71875 C 2.96875 -2.25 3.164062 -2.851562 3.28125 -3.53125 C 3.394531 -4.207031 3.421875 -4.828125 3.359375 -5.390625 C 3.304688 -5.960938 3.128906 -6.359375 2.828125 -6.578125 C 2.753906 -6.316406 2.625 -5.945312 2.4375 -5.46875 C 2.257812 -4.988281 2.082031 -4.460938 1.90625 -3.890625 C 1.726562 -3.328125 1.609375 -2.769531 1.546875 -2.21875 C 1.492188 -1.664062 1.5625 -1.191406 1.75 -0.796875 Z M 0 -2 C 0 -2.300781 0.0625 -2.75 0.1875 -3.34375 C 0.320312 -3.9375 0.503906 -4.578125 0.734375 -5.265625 C 0.960938 -5.953125 1.222656 -6.601562 1.515625 -7.21875 C 1.804688 -7.832031 2.117188 -8.335938 2.453125 -8.734375 C 2.796875 -9.128906 3.144531 -9.328125 3.5 -9.328125 C 3.726562 -9.328125 3.890625 -9.222656 3.984375 -9.015625 C 4.078125 -8.804688 4.097656 -8.632812 4.046875 -8.5 C 4.003906 -8.375 3.914062 -8.253906 3.78125 -8.140625 C 3.65625 -8.023438 3.546875 -7.898438 3.453125 -7.765625 C 3.503906 -7.597656 3.625 -7.414062 3.8125 -7.21875 C 4 -7.019531 4.1875 -6.753906 4.375 -6.421875 C 4.5625 -6.097656 4.679688 -5.65625 4.734375 -5.09375 C 4.796875 -4.539062 4.734375 -3.8125 4.546875 -2.90625 C 4.285156 -1.6875 3.875 -0.773438 3.3125 -0.171875 C 2.757812 0.429688 2.210938 0.734375 1.671875 0.734375 C 1.234375 0.734375 0.84375 0.503906 0.5 0.046875 C 0.164062 -0.398438 0 -1.082031 0 -2 Z M 0 -2 "/></g></g></g><g fill="#504081" fill-opacity="1"><g transform="translate(41.286204, 58.91332)"><g><path d="M 1.859375 -2.828125 C 1.367188 -2.828125 1.023438 -3.070312 0.828125 -3.5625 C 0.628906 -4.050781 0.539062 -4.65625 0.5625 -5.375 C 0.582031 -6.101562 0.671875 -6.828125 0.828125 -7.546875 C 0.992188 -8.273438 1.195312 -8.878906 1.4375 -9.359375 C 1.6875 -9.847656 1.941406 -10.09375 2.203125 -10.09375 C 2.640625 -10.09375 2.898438 -9.992188 2.984375 -9.796875 C 3.066406 -9.597656 3.050781 -9.289062 2.9375 -8.875 C 2.820312 -8.457031 2.6875 -7.925781 2.53125 -7.28125 C 2.382812 -6.644531 2.3125 -5.882812 2.3125 -5 C 2.351562 -5.039062 2.382812 -5.070312 2.40625 -5.09375 C 2.4375 -5.125 2.460938 -5.148438 2.484375 -5.171875 L 4.125 -7.9375 C 4.257812 -8.164062 4.445312 -8.472656 4.6875 -8.859375 C 4.9375 -9.242188 5.207031 -9.59375 5.5 -9.90625 C 5.789062 -10.21875 6.078125 -10.375 6.359375 -10.375 C 6.898438 -10.375 7.25 -10.097656 7.40625 -9.546875 C 7.570312 -9.003906 7.65625 -8.457031 7.65625 -7.90625 C 7.914062 -7.945312 8.226562 -8.160156 8.59375 -8.546875 C 8.96875 -8.929688 9.304688 -9.265625 9.609375 -9.546875 C 9.773438 -9.734375 9.921875 -9.894531 10.046875 -10.03125 C 10.171875 -10.164062 10.328125 -10.28125 10.515625 -10.375 C 10.753906 -10.5 10.96875 -10.5625 11.15625 -10.5625 C 11.382812 -10.5625 11.582031 -10.46875 11.75 -10.28125 C 11.90625 -10.09375 11.992188 -9.75 12.015625 -9.25 C 12.046875 -8.75 12.035156 -8.171875 11.984375 -7.515625 C 11.941406 -6.859375 11.890625 -6.203125 11.828125 -5.546875 C 11.773438 -4.898438 11.75 -4.332031 11.75 -3.84375 C 11.75 -2.769531 11.832031 -2.015625 12 -1.578125 C 12.175781 -1.148438 12.414062 -0.9375 12.71875 -0.9375 C 13.070312 -0.9375 13.460938 -1.171875 13.890625 -1.640625 C 14.328125 -2.109375 14.757812 -2.65625 15.1875 -3.28125 C 15.613281 -3.914062 15.976562 -4.488281 16.28125 -5 C 16.445312 -5.25 16.601562 -5.503906 16.75 -5.765625 C 16.90625 -6.023438 17.171875 -6.15625 17.546875 -6.15625 C 17.617188 -6.15625 17.691406 -6.109375 17.765625 -6.015625 C 17.847656 -5.921875 17.890625 -5.816406 17.890625 -5.703125 C 17.890625 -5.554688 17.816406 -5.351562 17.671875 -5.09375 C 17.535156 -4.84375 17.390625 -4.59375 17.234375 -4.34375 C 17.085938 -4.101562 16.96875 -3.914062 16.875 -3.78125 C 16.789062 -3.613281 16.710938 -3.472656 16.640625 -3.359375 C 16.566406 -3.242188 16.472656 -3.09375 16.359375 -2.90625 C 16.265625 -2.757812 16.171875 -2.632812 16.078125 -2.53125 C 15.984375 -2.425781 15.878906 -2.28125 15.765625 -2.09375 C 15.316406 -1.445312 14.785156 -0.878906 14.171875 -0.390625 C 13.554688 0.0976562 12.957031 0.34375 12.375 0.34375 C 12.050781 0.34375 11.734375 0.238281 11.421875 0.03125 C 11.117188 -0.175781 10.878906 -0.535156 10.703125 -1.046875 C 10.367188 -1.910156 10.207031 -2.816406 10.21875 -3.765625 C 10.226562 -4.722656 10.300781 -5.65625 10.4375 -6.5625 C 10.582031 -7.476562 10.65625 -8.273438 10.65625 -8.953125 C 10.425781 -8.785156 10.140625 -8.515625 9.796875 -8.140625 C 9.460938 -7.765625 9.117188 -7.421875 8.765625 -7.109375 C 8.421875 -6.796875 8.085938 -6.640625 7.765625 -6.640625 C 7.222656 -6.640625 6.851562 -6.894531 6.65625 -7.40625 C 6.457031 -7.914062 6.359375 -8.429688 6.359375 -8.953125 C 5.960938 -8.691406 5.582031 -8.234375 5.21875 -7.578125 C 4.863281 -6.929688 4.503906 -6.242188 4.140625 -5.515625 C 3.773438 -4.796875 3.410156 -4.171875 3.046875 -3.640625 C 2.691406 -3.117188 2.316406 -2.847656 1.921875 -2.828125 Z M 1.859375 -2.828125 "/></g></g></g><g fill="#504081" fill-opacity="1"><g transform="translate(57.606378, 58.91332)"><g><path d="M 2.40625 2.171875 C 2.800781 1.960938 3.203125 1.644531 3.609375 1.21875 C 4.023438 0.800781 4.390625 0.363281 4.703125 -0.09375 C 5.015625 -0.5625 5.21875 -0.972656 5.3125 -1.328125 L 3.5625 0.171875 C 3.28125 0.429688 3.078125 0.625 2.953125 0.75 C 2.828125 0.875 2.734375 1.03125 2.671875 1.21875 C 2.617188 1.40625 2.53125 1.722656 2.40625 2.171875 Z M 3.28125 -0.90625 C 3.394531 -0.976562 3.460938 -1.03125 3.484375 -1.0625 C 3.515625 -1.101562 3.578125 -1.171875 3.671875 -1.265625 C 3.804688 -1.347656 3.929688 -1.4375 4.046875 -1.53125 C 4.566406 -1.976562 4.957031 -2.304688 5.21875 -2.515625 C 5.488281 -2.722656 5.675781 -2.894531 5.78125 -3.03125 C 5.882812 -3.175781 5.941406 -3.34375 5.953125 -3.53125 C 5.972656 -3.71875 5.984375 -4.007812 5.984375 -4.40625 C 5.984375 -4.9375 5.875 -5.203125 5.65625 -5.203125 C 5.5 -5.203125 5.289062 -5.046875 5.03125 -4.734375 C 4.78125 -4.421875 4.523438 -4.023438 4.265625 -3.546875 C 4.003906 -3.066406 3.78125 -2.585938 3.59375 -2.109375 C 3.414062 -1.628906 3.3125 -1.226562 3.28125 -0.90625 Z M 0 -0.140625 C 0 -0.421875 0.0195312 -0.960938 0.0625 -1.765625 C 0.113281 -2.566406 0.191406 -3.484375 0.296875 -4.515625 C 0.398438 -5.554688 0.53125 -6.5625 0.6875 -7.53125 C 0.851562 -8.5 1.050781 -9.300781 1.28125 -9.9375 C 1.519531 -10.582031 1.789062 -10.90625 2.09375 -10.90625 C 2.257812 -10.90625 2.425781 -10.859375 2.59375 -10.765625 C 2.65625 -10.503906 2.6875 -10.316406 2.6875 -10.203125 C 2.6875 -10.085938 2.671875 -9.957031 2.640625 -9.8125 C 2.609375 -9.675781 2.546875 -9.410156 2.453125 -9.015625 C 2.117188 -7.359375 1.875 -5.734375 1.71875 -4.140625 C 1.570312 -2.546875 1.5 -0.875 1.5 0.875 C 1.664062 0.757812 1.832031 0.441406 2 -0.078125 C 2.175781 -0.609375 2.378906 -1.21875 2.609375 -1.90625 C 2.847656 -2.59375 3.109375 -3.273438 3.390625 -3.953125 C 3.671875 -4.628906 3.992188 -5.1875 4.359375 -5.625 C 4.734375 -6.070312 5.164062 -6.296875 5.65625 -6.296875 C 6.175781 -6.296875 6.554688 -6.054688 6.796875 -5.578125 C 7.046875 -5.097656 7.171875 -4.613281 7.171875 -4.125 C 7.304688 -4.164062 7.46875 -4.25 7.65625 -4.375 C 7.84375 -4.507812 8.003906 -4.625 8.140625 -4.71875 C 8.378906 -4.882812 8.65625 -5.082031 8.96875 -5.3125 C 9.28125 -5.539062 9.585938 -5.75 9.890625 -5.9375 C 10.191406 -6.125 10.4375 -6.21875 10.625 -6.21875 C 10.832031 -6.21875 10.9375 -6.078125 10.9375 -5.796875 C 10.9375 -5.679688 10.757812 -5.484375 10.40625 -5.203125 C 10.0625 -4.921875 9.65625 -4.617188 9.1875 -4.296875 C 8.726562 -3.972656 8.289062 -3.671875 7.875 -3.390625 C 7.46875 -3.109375 7.207031 -2.898438 7.09375 -2.765625 C 7.019531 -2.671875 6.90625 -2.40625 6.75 -1.96875 C 6.601562 -1.539062 6.394531 -1.03125 6.125 -0.4375 C 5.863281 0.15625 5.503906 0.75 5.046875 1.34375 C 4.597656 1.9375 4.007812 2.441406 3.28125 2.859375 C 3.144531 2.929688 2.988281 3.003906 2.8125 3.078125 C 2.632812 3.148438 2.488281 3.234375 2.375 3.328125 C 2.207031 3.410156 2.070312 3.6875 1.96875 4.15625 C 1.863281 4.625 1.785156 5.101562 1.734375 5.59375 C 1.691406 6.082031 1.671875 6.429688 1.671875 6.640625 C 1.671875 7.054688 1.703125 7.515625 1.765625 8.015625 C 1.828125 8.515625 1.84375 8.941406 1.8125 9.296875 C 1.789062 9.648438 1.648438 9.828125 1.390625 9.828125 C 1.140625 9.828125 0.988281 9.742188 0.9375 9.578125 C 0.894531 9.410156 0.847656 9.175781 0.796875 8.875 C 0.585938 7.40625 0.398438 5.90625 0.234375 4.375 C 0.078125 2.851562 0 1.347656 0 -0.140625 Z M 0 -0.140625 "/></g></g></g><g fill="#504081" fill-opacity="1"><g transform="translate(67.391525, 58.91332)"><g><path d="M 0.0625 -2.6875 C 0.0625 -3.851562 0.128906 -5.113281 0.265625 -6.46875 C 0.410156 -7.820312 0.597656 -9.160156 0.828125 -10.484375 C 1.066406 -11.816406 1.328125 -13.019531 1.609375 -14.09375 C 1.722656 -14.4375 1.835938 -14.820312 1.953125 -15.25 C 2.066406 -15.6875 2.21875 -16.0625 2.40625 -16.375 C 2.59375 -16.6875 2.835938 -16.84375 3.140625 -16.84375 C 3.421875 -16.84375 3.597656 -16.738281 3.671875 -16.53125 C 3.742188 -16.320312 3.75 -16.070312 3.6875 -15.78125 C 3.625 -15.488281 3.546875 -15.21875 3.453125 -14.96875 C 3.367188 -14.726562 3.3125 -14.5625 3.28125 -14.46875 C 3.09375 -13.769531 2.875 -12.820312 2.625 -11.625 C 2.382812 -10.425781 2.15625 -9.113281 1.9375 -7.6875 C 1.71875 -6.269531 1.550781 -4.859375 1.4375 -3.453125 C 1.320312 -2.054688 1.296875 -0.796875 1.359375 0.328125 C 1.429688 1.460938 1.617188 2.332031 1.921875 2.9375 C 2.316406 2.726562 2.640625 2.410156 2.890625 1.984375 C 3.148438 1.566406 3.375 1.160156 3.5625 0.765625 C 4.101562 -0.253906 4.628906 -1.332031 5.140625 -2.46875 C 5.648438 -3.613281 6.1875 -4.691406 6.75 -5.703125 C 6.9375 -6.066406 7.132812 -6.25 7.34375 -6.25 C 7.4375 -6.25 7.507812 -6.207031 7.5625 -6.125 C 7.625 -6.050781 7.65625 -5.96875 7.65625 -5.875 C 7.65625 -5.800781 7.5625 -5.578125 7.375 -5.203125 C 7.1875 -4.835938 6.992188 -4.453125 6.796875 -4.046875 C 6.597656 -3.648438 6.460938 -3.394531 6.390625 -3.28125 C 6.160156 -2.789062 5.898438 -2.21875 5.609375 -1.5625 C 5.316406 -0.914062 5.03125 -0.28125 4.75 0.34375 C 4.46875 0.976562 4.203125 1.515625 3.953125 1.953125 C 3.835938 2.140625 3.679688 2.390625 3.484375 2.703125 C 3.285156 3.023438 3.066406 3.300781 2.828125 3.53125 C 2.597656 3.757812 2.332031 3.875 2.03125 3.875 C 1.5625 3.875 1.191406 3.640625 0.921875 3.171875 C 0.660156 2.710938 0.46875 2.132812 0.34375 1.4375 C 0.226562 0.738281 0.148438 0.015625 0.109375 -0.734375 C 0.078125 -1.484375 0.0625 -2.132812 0.0625 -2.6875 Z M 0.0625 -2.6875 "/></g></g></g><g fill="#504081" fill-opacity="1"><g transform="translate(73.542174, 58.91332)"><g><path d="M 1.609375 -6.328125 C 2.046875 -6.554688 2.53125 -6.875 3.0625 -7.28125 C 3.601562 -7.695312 3.898438 -8.179688 3.953125 -8.734375 C 3.648438 -8.691406 3.328125 -8.53125 2.984375 -8.25 C 2.648438 -7.96875 2.359375 -7.648438 2.109375 -7.296875 C 1.867188 -6.953125 1.703125 -6.628906 1.609375 -6.328125 Z M 0.03125 -5.484375 C 0.03125 -6.066406 0.222656 -6.695312 0.609375 -7.375 C 0.992188 -8.050781 1.472656 -8.628906 2.046875 -9.109375 C 2.617188 -9.585938 3.179688 -9.828125 3.734375 -9.828125 C 4.503906 -9.828125 4.90625 -9.535156 4.9375 -8.953125 C 4.976562 -8.367188 4.726562 -7.738281 4.1875 -7.0625 C 3.914062 -6.757812 3.5 -6.410156 2.9375 -6.015625 C 2.375 -5.617188 1.828125 -5.394531 1.296875 -5.34375 C 1.296875 -4.96875 1.304688 -4.632812 1.328125 -4.34375 C 1.347656 -4.0625 1.507812 -3.765625 1.8125 -3.453125 C 2.113281 -3.148438 2.5 -3 2.96875 -3 C 3.570312 -3 4.203125 -3.191406 4.859375 -3.578125 C 5.515625 -3.960938 6.015625 -4.285156 6.359375 -4.546875 C 6.503906 -4.660156 6.613281 -4.75 6.6875 -4.8125 C 6.769531 -4.882812 6.867188 -4.96875 6.984375 -5.0625 C 7.472656 -5.4375 7.78125 -5.710938 7.90625 -5.890625 C 8.039062 -6.066406 8.15625 -6.179688 8.25 -6.234375 C 8.34375 -6.296875 8.5625 -6.328125 8.90625 -6.328125 C 8.957031 -6.066406 8.976562 -5.890625 8.96875 -5.796875 C 8.957031 -5.703125 8.867188 -5.5625 8.703125 -5.375 C 8.285156 -4.957031 7.753906 -4.476562 7.109375 -3.9375 C 6.472656 -3.40625 5.785156 -2.941406 5.046875 -2.546875 C 4.316406 -2.148438 3.585938 -1.953125 2.859375 -1.953125 C 2.492188 -1.953125 2.140625 -2.015625 1.796875 -2.140625 C 1.460938 -2.273438 1.144531 -2.492188 0.84375 -2.796875 C 0.414062 -3.210938 0.171875 -3.640625 0.109375 -4.078125 C 0.0546875 -4.523438 0.03125 -4.992188 0.03125 -5.484375 Z M 0.03125 -5.484375 "/></g></g></g><g fill="#504081" fill-opacity="1"><g transform="translate(81.125648, 58.91332)"><g><path d="M -9.828125 -15.59375 C -9.828125 -15.894531 -9.546875 -16.210938 -8.984375 -16.546875 C -8.421875 -16.890625 -7.710938 -17.222656 -6.859375 -17.546875 C -6.015625 -17.867188 -5.117188 -18.175781 -4.171875 -18.46875 C -3.234375 -18.757812 -2.367188 -19.007812 -1.578125 -19.21875 C -0.785156 -19.425781 -0.191406 -19.59375 0.203125 -19.71875 C 0.691406 -19.851562 1.035156 -19.929688 1.234375 -19.953125 C 1.429688 -19.984375 1.5625 -20.0625 1.625 -20.1875 C 1.6875 -20.3125 1.75 -20.570312 1.8125 -20.96875 C 2 -21.925781 2.210938 -22.582031 2.453125 -22.9375 C 2.703125 -23.300781 2.945312 -23.484375 3.1875 -23.484375 C 3.363281 -23.484375 3.515625 -23.382812 3.640625 -23.1875 C 3.773438 -22.988281 3.84375 -22.75 3.84375 -22.46875 C 3.84375 -22.257812 3.832031 -22.171875 3.8125 -22.203125 C 3.789062 -22.242188 3.789062 -22.171875 3.8125 -21.984375 C 3.8125 -21.941406 3.816406 -21.882812 3.828125 -21.8125 C 3.835938 -21.738281 3.84375 -21.644531 3.84375 -21.53125 C 3.84375 -21.226562 3.785156 -21.078125 3.671875 -21.078125 C 3.554688 -21.078125 3.4375 -21.054688 3.3125 -21.015625 C 3.195312 -20.984375 3.140625 -20.78125 3.140625 -20.40625 C 3.421875 -20.40625 3.726562 -20.445312 4.0625 -20.53125 C 4.40625 -20.613281 4.707031 -20.664062 4.96875 -20.6875 C 5.988281 -20.875 7.007812 -21.039062 8.03125 -21.1875 C 9.0625 -21.34375 10.113281 -21.421875 11.1875 -21.421875 C 11.75 -21.421875 12.15625 -21.304688 12.40625 -21.078125 C 12.664062 -20.847656 12.757812 -20.613281 12.6875 -20.375 C 12.613281 -20.144531 12.359375 -20.03125 11.921875 -20.03125 C 11.867188 -20.21875 11.835938 -20.300781 11.828125 -20.28125 C 11.816406 -20.269531 11.707031 -20.289062 11.5 -20.34375 C 11.40625 -20.363281 11.21875 -20.375 10.9375 -20.375 C 10.445312 -20.375 9.800781 -20.320312 9 -20.21875 C 8.195312 -20.113281 7.363281 -19.988281 6.5 -19.84375 C 5.632812 -19.707031 4.863281 -19.578125 4.1875 -19.453125 C 3.519531 -19.328125 3.078125 -19.238281 2.859375 -19.1875 L 2.171875 -12.03125 C 2.140625 -11.863281 2.128906 -11.6875 2.140625 -11.5 C 2.160156 -11.3125 2.171875 -11.125 2.171875 -10.9375 C 2.171875 -10.707031 2.148438 -10.554688 2.109375 -10.484375 C 2.078125 -10.410156 2.0625 -10.25 2.0625 -10 C 2.0625 -9.488281 2.070312 -8.898438 2.09375 -8.234375 C 2.113281 -7.566406 2.101562 -7.046875 2.0625 -6.671875 C 2.039062 -6.460938 2.023438 -6.050781 2.015625 -5.4375 C 2.003906 -4.820312 1.988281 -4.101562 1.96875 -3.28125 C 1.957031 -2.46875 1.953125 -1.644531 1.953125 -0.8125 C 1.953125 0.0078125 1.953125 0.757812 1.953125 1.4375 C 1.953125 2.113281 1.96875 2.601562 2 2.90625 C 2 3.15625 2.023438 3.539062 2.078125 4.0625 C 2.140625 4.59375 2.148438 5.066406 2.109375 5.484375 C 2.078125 5.898438 1.910156 6.109375 1.609375 6.109375 C 1.160156 6.109375 0.890625 5.863281 0.796875 5.375 C 0.710938 4.894531 0.671875 4.441406 0.671875 4.015625 C 0.597656 3.179688 0.554688 2.203125 0.546875 1.078125 C 0.535156 -0.0351562 0.535156 -1.148438 0.546875 -2.265625 C 0.554688 -3.390625 0.5625 -4.367188 0.5625 -5.203125 L 0.671875 -6.84375 C 0.671875 -7.175781 0.671875 -7.679688 0.671875 -8.359375 C 0.671875 -9.035156 0.679688 -9.75 0.703125 -10.5 C 0.722656 -11.257812 0.742188 -11.953125 0.765625 -12.578125 C 0.785156 -13.210938 0.820312 -13.65625 0.875 -13.90625 C 0.914062 -14.144531 0.941406 -14.425781 0.953125 -14.75 C 0.972656 -15.070312 0.992188 -15.351562 1.015625 -15.59375 L 1.328125 -18.84375 C 1.234375 -18.820312 1.03125 -18.773438 0.71875 -18.703125 C 0.40625 -18.628906 0.15625 -18.570312 -0.03125 -18.53125 C -1.175781 -18.25 -2.265625 -17.945312 -3.296875 -17.625 C -4.335938 -17.3125 -5.40625 -16.945312 -6.5 -16.53125 C -6.707031 -16.4375 -6.898438 -16.335938 -7.078125 -16.234375 C -7.253906 -16.128906 -7.445312 -16.03125 -7.65625 -15.9375 C -7.9375 -15.820312 -8.113281 -15.738281 -8.1875 -15.6875 C -8.269531 -15.644531 -8.3125 -15.585938 -8.3125 -15.515625 C -8.3125 -15.453125 -8.375 -15.300781 -8.5 -15.0625 C -8.59375 -15.039062 -8.679688 -15.023438 -8.765625 -15.015625 C -8.859375 -15.003906 -8.96875 -15 -9.09375 -15 C -9.28125 -15 -9.445312 -15.035156 -9.59375 -15.109375 C -9.75 -15.191406 -9.828125 -15.351562 -9.828125 -15.59375 Z M -9.828125 -15.59375 "/></g></g></g><g fill="#504081" fill-opacity="1"><g transform="translate(85.179496, 58.91332)"><g><path d="M 1.609375 -6.328125 C 2.046875 -6.554688 2.53125 -6.875 3.0625 -7.28125 C 3.601562 -7.695312 3.898438 -8.179688 3.953125 -8.734375 C 3.648438 -8.691406 3.328125 -8.53125 2.984375 -8.25 C 2.648438 -7.96875 2.359375 -7.648438 2.109375 -7.296875 C 1.867188 -6.953125 1.703125 -6.628906 1.609375 -6.328125 Z M 0.03125 -5.484375 C 0.03125 -6.066406 0.222656 -6.695312 0.609375 -7.375 C 0.992188 -8.050781 1.472656 -8.628906 2.046875 -9.109375 C 2.617188 -9.585938 3.179688 -9.828125 3.734375 -9.828125 C 4.503906 -9.828125 4.90625 -9.535156 4.9375 -8.953125 C 4.976562 -8.367188 4.726562 -7.738281 4.1875 -7.0625 C 3.914062 -6.757812 3.5 -6.410156 2.9375 -6.015625 C 2.375 -5.617188 1.828125 -5.394531 1.296875 -5.34375 C 1.296875 -4.96875 1.304688 -4.632812 1.328125 -4.34375 C 1.347656 -4.0625 1.507812 -3.765625 1.8125 -3.453125 C 2.113281 -3.148438 2.5 -3 2.96875 -3 C 3.570312 -3 4.203125 -3.191406 4.859375 -3.578125 C 5.515625 -3.960938 6.015625 -4.285156 6.359375 -4.546875 C 6.503906 -4.660156 6.613281 -4.75 6.6875 -4.8125 C 6.769531 -4.882812 6.867188 -4.96875 6.984375 -5.0625 C 7.472656 -5.4375 7.78125 -5.710938 7.90625 -5.890625 C 8.039062 -6.066406 8.15625 -6.179688 8.25 -6.234375 C 8.34375 -6.296875 8.5625 -6.328125 8.90625 -6.328125 C 8.957031 -6.066406 8.976562 -5.890625 8.96875 -5.796875 C 8.957031 -5.703125 8.867188 -5.5625 8.703125 -5.375 C 8.285156 -4.957031 7.753906 -4.476562 7.109375 -3.9375 C 6.472656 -3.40625 5.785156 -2.941406 5.046875 -2.546875 C 4.316406 -2.148438 3.585938 -1.953125 2.859375 -1.953125 C 2.492188 -1.953125 2.140625 -2.015625 1.796875 -2.140625 C 1.460938 -2.273438 1.144531 -2.492188 0.84375 -2.796875 C 0.414062 -3.210938 0.171875 -3.640625 0.109375 -4.078125 C 0.0546875 -4.523438 0.03125 -4.992188 0.03125 -5.484375 Z M 0.03125 -5.484375 "/></g></g></g><g fill="#504081" fill-opacity="1"><g transform="translate(92.76297, 58.91332)"><g><path d="M 1.21875 -2.546875 C 1.21875 -2.335938 1.265625 -2.234375 1.359375 -2.234375 C 1.523438 -2.234375 1.738281 -2.46875 2 -2.9375 C 2.269531 -3.40625 2.554688 -3.988281 2.859375 -4.6875 C 3.171875 -5.382812 3.460938 -6.085938 3.734375 -6.796875 C 4.015625 -7.503906 4.25 -8.125 4.4375 -8.65625 C 4.625 -9.195312 4.71875 -9.515625 4.71875 -9.609375 C 4.320312 -9.566406 4.007812 -9.445312 3.78125 -9.25 C 3.5625 -9.050781 3.363281 -8.820312 3.1875 -8.5625 C 2.570312 -7.8125 2.085938 -6.894531 1.734375 -5.8125 C 1.390625 -4.726562 1.21875 -3.640625 1.21875 -2.546875 Z M 5.203125 -10.5625 C 5.203125 -10.8125 5.242188 -11.03125 5.328125 -11.21875 C 5.410156 -11.40625 5.488281 -11.613281 5.5625 -11.84375 L 6.296875 -15.796875 C 6.359375 -16.054688 6.441406 -16.441406 6.546875 -16.953125 C 6.660156 -17.460938 6.804688 -17.953125 6.984375 -18.421875 C 7.171875 -18.890625 7.40625 -19.144531 7.6875 -19.1875 C 7.738281 -19.1875 7.773438 -19.191406 7.796875 -19.203125 C 7.816406 -19.210938 7.835938 -19.21875 7.859375 -19.21875 C 8.191406 -19.21875 8.378906 -19.035156 8.421875 -18.671875 C 8.472656 -18.316406 8.441406 -17.882812 8.328125 -17.375 C 8.222656 -16.863281 8.09375 -16.375 7.9375 -15.90625 C 7.789062 -15.4375 7.695312 -15.097656 7.65625 -14.890625 C 7.09375 -13.003906 6.726562 -11.066406 6.5625 -9.078125 C 6.40625 -7.097656 6.34375 -5.109375 6.375 -3.109375 C 6.414062 -1.109375 6.445312 0.867188 6.46875 2.828125 C 6.488281 3.578125 6.550781 4.175781 6.65625 4.625 C 6.757812 5.082031 6.800781 5.40625 6.78125 5.59375 C 6.757812 5.78125 6.535156 5.875 6.109375 5.875 C 5.859375 5.875 5.65625 5.585938 5.5 5.015625 C 5.351562 4.441406 5.242188 3.691406 5.171875 2.765625 C 5.097656 1.847656 5.0625 0.867188 5.0625 -0.171875 C 5.0625 -1.222656 5.070312 -2.25 5.09375 -3.25 C 5.125 -4.25 5.148438 -5.109375 5.171875 -5.828125 C 5.191406 -6.554688 5.203125 -7.035156 5.203125 -7.265625 C 5.109375 -7.171875 5.050781 -7.113281 5.03125 -7.09375 C 5.007812 -7.070312 4.972656 -6.976562 4.921875 -6.8125 L 3.703125 -3.84375 C 3.535156 -3.5 3.347656 -3.101562 3.140625 -2.65625 C 2.929688 -2.21875 2.671875 -1.832031 2.359375 -1.5 C 2.046875 -1.175781 1.664062 -1.015625 1.21875 -1.015625 C 0.726562 -1.015625 0.394531 -1.242188 0.21875 -1.703125 C 0.0507812 -2.171875 0 -2.769531 0.0625 -3.5 C 0.132812 -4.238281 0.304688 -5.015625 0.578125 -5.828125 C 0.847656 -6.648438 1.1875 -7.425781 1.59375 -8.15625 C 2 -8.894531 2.453125 -9.492188 2.953125 -9.953125 C 3.453125 -10.421875 3.972656 -10.65625 4.515625 -10.65625 C 4.691406 -10.65625 4.785156 -10.640625 4.796875 -10.609375 C 4.816406 -10.578125 4.953125 -10.5625 5.203125 -10.5625 Z M 5.203125 -10.5625 "/></g></g></g></svg>