<svg xmlns="http://www.w3.org/2000/svg" xmlns:xlink="http://www.w3.org/1999/xlink" width="1548" zoomAndPan="magnify" viewBox="0 0 1161 296.999993" height="396" preserveAspectRatio="xMidYMid meet" version="1.0"><defs><g/></defs><g fill="#504081" fill-opacity="1"><g transform="translate(256.091027, 163.706181)"><g><path d="M -1.625 10.515625 C -1.625 0.265625 -0.757812 -9.816406 0.96875 -19.734375 C 2.695312 -29.660156 4.878906 -39.125 7.515625 -48.125 C 10.160156 -57.125 12.941406 -65.289062 15.859375 -72.625 C 17.898438 -77.800781 20.375 -83.273438 23.28125 -89.046875 C 26.195312 -94.816406 29.515625 -100.316406 33.234375 -105.546875 C 36.960938 -110.773438 40.984375 -115.117188 45.296875 -118.578125 C 48.316406 -120.953125 51.628906 -122.945312 55.234375 -124.5625 C 58.847656 -126.175781 62.382812 -126.984375 65.84375 -126.984375 C 68.425781 -126.984375 70.90625 -126.414062 73.28125 -125.28125 C 75.65625 -124.15625 77.757812 -122.351562 79.59375 -119.875 C 82.070312 -116.3125 83.445312 -112.9375 83.71875 -109.75 C 83.988281 -106.570312 84.125 -102.9375 84.125 -98.84375 C 84.125 -95.28125 83.582031 -91.257812 82.5 -86.78125 C 81.414062 -82.3125 79.984375 -77.703125 78.203125 -72.953125 C 76.429688 -68.210938 74.597656 -63.65625 72.703125 -59.28125 C 70.816406 -54.914062 69.066406 -51.113281 67.453125 -47.875 C 66.910156 -46.582031 66.425781 -45.585938 66 -44.890625 C 65.570312 -44.191406 64.546875 -43.679688 62.921875 -43.359375 C 61.523438 -44.328125 60.851562 -45.1875 60.90625 -45.9375 C 60.957031 -46.695312 61.363281 -47.832031 62.125 -49.34375 C 62.550781 -50.53125 62.976562 -51.609375 63.40625 -52.578125 C 63.84375 -53.546875 64.273438 -54.566406 64.703125 -55.640625 C 67.941406 -63.085938 70.9375 -70.71875 73.6875 -78.53125 C 76.4375 -86.351562 77.8125 -94.632812 77.8125 -103.375 C 77.8125 -108.875 76.675781 -112.890625 74.40625 -115.421875 C 72.144531 -117.953125 69.34375 -119.21875 66 -119.21875 C 60.28125 -119.21875 54.617188 -116.414062 49.015625 -110.8125 C 44.378906 -106.175781 40.09375 -100.484375 36.15625 -93.734375 C 32.21875 -86.992188 28.6875 -79.769531 25.5625 -72.0625 C 22.4375 -64.351562 19.738281 -56.671875 17.46875 -49.015625 C 15.207031 -41.359375 13.425781 -34.296875 12.125 -27.828125 C 10.625 -20.703125 9.332031 -12.90625 8.25 -4.4375 C 7.164062 4.019531 6.785156 12.476562 7.109375 20.9375 C 7.441406 29.40625 8.953125 37.253906 11.640625 44.484375 C 13.046875 49.015625 15.335938 52.976562 18.515625 56.375 C 21.703125 59.769531 25.882812 61.46875 31.0625 61.46875 C 35.695312 61.46875 40.222656 60.253906 44.640625 57.828125 C 49.066406 55.398438 52.894531 52.945312 56.125 50.46875 L 61.625 45.625 C 62.707031 44.644531 63.679688 43.832031 64.546875 43.1875 C 65.410156 42.539062 66.378906 41.679688 67.453125 40.609375 C 73.390625 34.566406 78.726562 28.015625 83.46875 20.953125 C 88.21875 13.890625 92.664062 6.53125 96.8125 -1.125 C 100.96875 -8.789062 104.988281 -16.34375 108.875 -23.78125 C 109.84375 -25.613281 110.785156 -26.878906 111.703125 -27.578125 C 112.617188 -28.273438 113.453125 -28.625 114.203125 -28.625 C 114.960938 -28.625 115.554688 -28.351562 115.984375 -27.8125 C 116.421875 -27.28125 116.640625 -26.742188 116.640625 -26.203125 L 92.53125 17.796875 C 91.019531 20.054688 89.535156 22.265625 88.078125 24.421875 C 86.617188 26.578125 85.082031 28.734375 83.46875 30.890625 C 81.207031 33.910156 78.132812 37.523438 74.25 41.734375 C 70.363281 45.941406 66.019531 50.066406 61.21875 54.109375 C 56.425781 58.148438 51.441406 61.492188 46.265625 64.140625 C 41.085938 66.785156 35.960938 68.109375 30.890625 68.109375 C 25.503906 68.109375 20.894531 66.785156 17.0625 64.140625 C 13.238281 61.492188 10.113281 58.015625 7.6875 53.703125 C 5.257812 49.390625 3.367188 44.671875 2.015625 39.546875 C 0.671875 34.429688 -0.269531 29.335938 -0.8125 24.265625 C -1.351562 19.191406 -1.625 14.609375 -1.625 10.515625 Z M -1.625 10.515625 "/></g></g></g><g fill="#504081" fill-opacity="1"><g transform="translate(366.245381, 163.706181)"><g><path d="M 8.09375 -3.71875 C 9.707031 -4.15625 11.160156 -5.582031 12.453125 -8 C 13.742188 -10.425781 14.660156 -13.203125 15.203125 -16.328125 C 15.742188 -19.460938 15.878906 -22.347656 15.609375 -24.984375 C 15.335938 -27.628906 14.503906 -29.4375 13.109375 -30.40625 C 12.785156 -29.21875 12.191406 -27.519531 11.328125 -25.3125 C 10.460938 -23.101562 9.625 -20.675781 8.8125 -18.03125 C 8.007812 -15.394531 7.472656 -12.804688 7.203125 -10.265625 C 6.929688 -7.734375 7.226562 -5.550781 8.09375 -3.71875 Z M 0 -9.21875 C 0 -10.625 0.296875 -12.703125 0.890625 -15.453125 C 1.484375 -18.203125 2.316406 -21.164062 3.390625 -24.34375 C 4.472656 -27.53125 5.6875 -30.550781 7.03125 -33.40625 C 8.382812 -36.257812 9.84375 -38.601562 11.40625 -40.4375 C 12.96875 -42.269531 14.554688 -43.1875 16.171875 -43.1875 C 17.253906 -43.1875 18.007812 -42.703125 18.4375 -41.734375 C 18.875 -40.765625 18.984375 -39.957031 18.765625 -39.3125 C 18.546875 -38.769531 18.140625 -38.226562 17.546875 -37.6875 C 16.953125 -37.144531 16.441406 -36.550781 16.015625 -35.90625 C 16.234375 -35.15625 16.769531 -34.320312 17.625 -33.40625 C 18.488281 -32.488281 19.351562 -31.273438 20.21875 -29.765625 C 21.082031 -28.253906 21.648438 -26.203125 21.921875 -23.609375 C 22.191406 -21.023438 21.894531 -17.628906 21.03125 -13.421875 C 19.84375 -7.816406 17.953125 -3.613281 15.359375 -0.8125 C 12.773438 1.988281 10.242188 3.390625 7.765625 3.390625 C 5.710938 3.390625 3.90625 2.335938 2.34375 0.234375 C 0.78125 -1.859375 0 -5.007812 0 -9.21875 Z M 0 -9.21875 "/></g></g></g><g fill="#504081" fill-opacity="1"><g transform="translate(394.714057, 163.706181)"><g><path d="M 8.09375 -3.71875 C 9.707031 -4.15625 11.160156 -5.582031 12.453125 -8 C 13.742188 -10.425781 14.660156 -13.203125 15.203125 -16.328125 C 15.742188 -19.460938 15.878906 -22.347656 15.609375 -24.984375 C 15.335938 -27.628906 14.503906 -29.4375 13.109375 -30.40625 C 12.785156 -29.21875 12.191406 -27.519531 11.328125 -25.3125 C 10.460938 -23.101562 9.625 -20.675781 8.8125 -18.03125 C 8.007812 -15.394531 7.472656 -12.804688 7.203125 -10.265625 C 6.929688 -7.734375 7.226562 -5.550781 8.09375 -3.71875 Z M 0 -9.21875 C 0 -10.625 0.296875 -12.703125 0.890625 -15.453125 C 1.484375 -18.203125 2.316406 -21.164062 3.390625 -24.34375 C 4.472656 -27.53125 5.6875 -30.550781 7.03125 -33.40625 C 8.382812 -36.257812 9.84375 -38.601562 11.40625 -40.4375 C 12.96875 -42.269531 14.554688 -43.1875 16.171875 -43.1875 C 17.253906 -43.1875 18.007812 -42.703125 18.4375 -41.734375 C 18.875 -40.765625 18.984375 -39.957031 18.765625 -39.3125 C 18.546875 -38.769531 18.140625 -38.226562 17.546875 -37.6875 C 16.953125 -37.144531 16.441406 -36.550781 16.015625 -35.90625 C 16.234375 -35.15625 16.769531 -34.320312 17.625 -33.40625 C 18.488281 -32.488281 19.351562 -31.273438 20.21875 -29.765625 C 21.082031 -28.253906 21.648438 -26.203125 21.921875 -23.609375 C 22.191406 -21.023438 21.894531 -17.628906 21.03125 -13.421875 C 19.84375 -7.816406 17.953125 -3.613281 15.359375 -0.8125 C 12.773438 1.988281 10.242188 3.390625 7.765625 3.390625 C 5.710938 3.390625 3.90625 2.335938 2.34375 0.234375 C 0.78125 -1.859375 0 -5.007812 0 -9.21875 Z M 0 -9.21875 "/></g></g></g><g fill="#504081" fill-opacity="1"><g transform="translate(423.182733, 163.706181)"><g><path d="M 0 -12.296875 C 0 -20.054688 0.1875 -27.816406 0.5625 -35.578125 C 0.9375 -43.347656 1.453125 -50.847656 2.109375 -58.078125 C 2.210938 -58.828125 2.425781 -60.601562 2.75 -63.40625 C 3.070312 -66.21875 3.503906 -69.484375 4.046875 -73.203125 C 4.585938 -76.921875 5.234375 -80.554688 5.984375 -84.109375 C 6.742188 -87.671875 7.609375 -90.640625 8.578125 -93.015625 C 9.546875 -95.390625 10.566406 -96.578125 11.640625 -96.578125 C 13.796875 -96.578125 15.035156 -96.007812 15.359375 -94.875 C 15.691406 -93.738281 15.585938 -92.203125 15.046875 -90.265625 C 14.503906 -88.328125 14.019531 -86.113281 13.59375 -83.625 C 12.1875 -75.644531 10.914062 -67.019531 9.78125 -57.75 C 8.65625 -48.476562 7.796875 -39.257812 7.203125 -30.09375 C 6.609375 -20.925781 6.3125 -12.515625 6.3125 -4.859375 C 6.519531 -5.066406 7.164062 -6.222656 8.25 -8.328125 C 9.332031 -10.429688 10.707031 -13.097656 12.375 -16.328125 C 14.039062 -19.566406 15.84375 -22.992188 17.78125 -26.609375 C 19.726562 -30.222656 21.671875 -33.617188 23.609375 -36.796875 C 25.554688 -39.984375 27.3125 -42.570312 28.875 -44.5625 C 30.4375 -46.5625 31.648438 -47.5625 32.515625 -47.5625 C 34.890625 -47.5625 35.941406 -46.992188 35.671875 -45.859375 C 35.398438 -44.722656 34.507812 -43.1875 33 -41.25 C 31.488281 -39.3125 29.925781 -36.992188 28.3125 -34.296875 C 27.875 -33.648438 27.46875 -33.03125 27.09375 -32.4375 C 26.71875 -31.84375 26.3125 -31.222656 25.875 -30.578125 C 24.90625 -28.953125 24.257812 -27.679688 23.9375 -26.765625 C 23.613281 -25.847656 23.476562 -24.71875 23.53125 -23.375 C 23.59375 -22.03125 23.785156 -19.789062 24.109375 -16.65625 C 24.316406 -14.394531 24.769531 -11.507812 25.46875 -8 C 26.175781 -4.5 27.015625 -1 27.984375 2.5 C 28.953125 6.007812 29.816406 8.84375 30.578125 11 C 31.441406 13.050781 32.195312 14.5625 32.84375 15.53125 C 33.488281 16.5 33.914062 17.523438 34.125 18.609375 C 33.695312 19.035156 33.265625 19.488281 32.828125 19.96875 C 32.398438 20.457031 31.863281 20.703125 31.21875 20.703125 C 31 20.703125 30.566406 20.59375 29.921875 20.375 C 28.628906 19.726562 27.523438 18.597656 26.609375 16.984375 C 25.691406 15.367188 24.9375 13.644531 24.34375 11.8125 C 23.75 9.976562 23.238281 8.414062 22.8125 7.125 C 21.625 3.5625 20.648438 -0.078125 19.890625 -3.796875 C 19.140625 -7.515625 18.332031 -11.207031 17.46875 -14.875 L 10.359375 0.640625 C 9.597656 3.015625 8.921875 5.46875 8.328125 8 C 7.734375 10.539062 7.085938 12.671875 6.390625 14.390625 C 5.691406 16.117188 4.800781 16.984375 3.71875 16.984375 C 2.320312 16.984375 1.429688 16.46875 1.046875 15.4375 C 0.671875 14.414062 0.507812 13.148438 0.5625 11.640625 C 0.613281 10.128906 0.585938 8.726562 0.484375 7.4375 C 0.378906 6.25 0.269531 5.332031 0.15625 4.6875 C 0.0507812 4.039062 0 2.960938 0 1.453125 Z M 0 -12.296875 "/></g></g></g><g fill="#504081" fill-opacity="1"><g transform="translate(459.900859, 163.706181)"><g><path d="M 13.421875 0.640625 C 11.265625 0.640625 9.347656 -0.0546875 7.671875 -1.453125 C 6.003906 -2.859375 4.738281 -4.316406 3.875 -5.828125 C 1.9375 -9.492188 0.832031 -13.832031 0.5625 -18.84375 C 0.289062 -23.863281 0.585938 -28.421875 1.453125 -32.515625 C 1.671875 -33.703125 1.96875 -35.128906 2.34375 -36.796875 C 2.71875 -38.472656 3.28125 -39.957031 4.03125 -41.25 C 4.789062 -42.539062 5.710938 -43.1875 6.796875 -43.1875 C 9.273438 -43.1875 10.488281 -42.347656 10.4375 -40.671875 C 10.382812 -39.003906 9.925781 -36.414062 9.0625 -32.90625 C 8.195312 -29.40625 7.765625 -24.90625 7.765625 -19.40625 C 7.765625 -17.789062 7.976562 -15.847656 8.40625 -13.578125 C 8.84375 -11.316406 9.519531 -9.320312 10.4375 -7.59375 C 11.351562 -5.875 12.507812 -5.015625 13.90625 -5.015625 C 15.632812 -5.015625 17.601562 -5.769531 19.8125 -7.28125 C 22.019531 -8.789062 24.066406 -10.488281 25.953125 -12.375 C 27.847656 -14.257812 29.171875 -15.6875 29.921875 -16.65625 C 30.140625 -16.875 30.734375 -17.601562 31.703125 -18.84375 C 32.671875 -20.082031 33.828125 -21.484375 35.171875 -23.046875 C 36.523438 -24.609375 37.847656 -25.984375 39.140625 -27.171875 C 40.441406 -28.359375 41.46875 -28.953125 42.21875 -28.953125 C 42.976562 -28.953125 43.359375 -28.304688 43.359375 -27.015625 C 43.359375 -26.253906 42.84375 -25.09375 41.8125 -23.53125 C 40.789062 -21.96875 39.578125 -20.320312 38.171875 -18.59375 C 36.773438 -16.875 35.398438 -15.257812 34.046875 -13.75 C 32.703125 -12.238281 31.707031 -11.160156 31.0625 -10.515625 C 29.769531 -9.222656 28.234375 -7.6875 26.453125 -5.90625 C 24.671875 -4.125 22.703125 -2.585938 20.546875 -1.296875 C 18.390625 -0.00390625 16.015625 0.640625 13.421875 0.640625 Z M 8.25 -63.578125 C 8.25 -65.410156 8.734375 -67 9.703125 -68.34375 C 10.671875 -69.695312 11.75 -70.375 12.9375 -70.375 C 14.226562 -70.375 15.304688 -69.5625 16.171875 -67.9375 C 17.679688 -64.914062 17.867188 -62.566406 16.734375 -60.890625 C 15.609375 -59.222656 14.238281 -58.390625 12.625 -58.390625 C 11.539062 -58.390625 10.539062 -58.820312 9.625 -59.6875 C 8.707031 -60.550781 8.25 -61.847656 8.25 -63.578125 Z M 8.25 -63.578125 "/></g></g></g><g fill="#504081" fill-opacity="1"><g transform="translate(496.780724, 163.706181)"><g><path d="M 7.4375 -29.28125 C 9.488281 -30.351562 11.753906 -31.832031 14.234375 -33.71875 C 16.710938 -35.613281 18.0625 -37.851562 18.28125 -40.4375 C 16.875 -40.226562 15.390625 -39.472656 13.828125 -38.171875 C 12.265625 -36.878906 10.914062 -35.421875 9.78125 -33.796875 C 8.65625 -32.179688 7.875 -30.675781 7.4375 -29.28125 Z M 0.15625 -25.390625 C 0.15625 -28.085938 1.046875 -31 2.828125 -34.125 C 4.609375 -37.257812 6.816406 -39.929688 9.453125 -42.140625 C 12.097656 -44.347656 14.71875 -45.453125 17.3125 -45.453125 C 20.863281 -45.453125 22.71875 -44.101562 22.875 -41.40625 C 23.039062 -38.71875 21.882812 -35.804688 19.40625 -32.671875 C 18.113281 -31.273438 16.171875 -29.660156 13.578125 -27.828125 C 10.992188 -25.992188 8.460938 -24.96875 5.984375 -24.75 C 5.984375 -23.019531 6.035156 -21.484375 6.140625 -20.140625 C 6.253906 -18.796875 7.007812 -17.421875 8.40625 -16.015625 C 9.8125 -14.609375 11.59375 -13.90625 13.75 -13.90625 C 16.550781 -13.90625 19.460938 -14.796875 22.484375 -16.578125 C 25.503906 -18.359375 27.820312 -19.84375 29.4375 -21.03125 C 30.082031 -21.570312 30.59375 -22.003906 30.96875 -22.328125 C 31.351562 -22.648438 31.816406 -23.023438 32.359375 -23.453125 C 34.617188 -25.179688 36.046875 -26.445312 36.640625 -27.25 C 37.234375 -28.0625 37.742188 -28.601562 38.171875 -28.875 C 38.609375 -29.144531 39.632812 -29.28125 41.25 -29.28125 C 41.46875 -28.09375 41.546875 -27.28125 41.484375 -26.84375 C 41.429688 -26.414062 41.03125 -25.769531 40.28125 -24.90625 C 38.34375 -22.96875 35.890625 -20.757812 32.921875 -18.28125 C 29.953125 -15.800781 26.769531 -13.644531 23.375 -11.8125 C 19.976562 -9.976562 16.609375 -9.0625 13.265625 -9.0625 C 11.535156 -9.0625 9.890625 -9.359375 8.328125 -9.953125 C 6.765625 -10.546875 5.28125 -11.539062 3.875 -12.9375 C 1.9375 -14.882812 0.832031 -16.878906 0.5625 -18.921875 C 0.289062 -20.972656 0.15625 -23.128906 0.15625 -25.390625 Z M 0.15625 -25.390625 "/></g></g></g><g fill="#504081" fill-opacity="1"><g transform="translate(531.881307, 163.706181)"><g/></g></g><g fill="#504081" fill-opacity="1"><g transform="translate(573.775561, 163.706181)"><g><path d="M 43.1875 16.015625 C 50.414062 16.015625 57.316406 14.421875 63.890625 11.234375 C 70.472656 8.054688 76.515625 4.015625 82.015625 -0.890625 C 87.515625 -5.796875 92.148438 -10.835938 95.921875 -16.015625 C 100.347656 -21.734375 104.234375 -28.066406 107.578125 -35.015625 C 110.921875 -41.972656 113.535156 -49.195312 115.421875 -56.6875 C 117.304688 -64.1875 118.25 -71.5 118.25 -78.625 C 118.25 -84.550781 117.410156 -90.019531 115.734375 -95.03125 C 114.066406 -100.050781 111.640625 -104.070312 108.453125 -107.09375 C 105.273438 -110.113281 101.421875 -111.625 96.890625 -111.625 C 91.929688 -111.625 87.296875 -110.140625 82.984375 -107.171875 C 78.671875 -104.203125 74.707031 -100.398438 71.09375 -95.765625 C 67.476562 -91.128906 64.347656 -86.328125 61.703125 -81.359375 C 59.066406 -76.398438 56.992188 -71.984375 55.484375 -68.109375 L 49.171875 -51.28125 C 47.234375 -45.457031 45.347656 -39.390625 43.515625 -33.078125 C 41.679688 -26.773438 40.171875 -20.707031 38.984375 -14.875 C 38.765625 -13.476562 38.382812 -11.40625 37.84375 -8.65625 C 37.3125 -5.90625 36.75 -2.992188 36.15625 0.078125 C 35.5625 3.148438 35.070312 6.007812 34.6875 8.65625 C 34.3125 11.300781 34.125 13.210938 34.125 14.390625 C 34.988281 14.828125 36.363281 15.207031 38.25 15.53125 C 40.144531 15.851562 41.789062 16.015625 43.1875 16.015625 Z M 34.125 -17.796875 C 34.125 -17.898438 34.148438 -17.953125 34.203125 -17.953125 C 34.265625 -17.953125 34.296875 -18.007812 34.296875 -18.125 L 36.234375 -25.875 C 37.640625 -31.707031 39.445312 -38.234375 41.65625 -45.453125 C 43.863281 -52.679688 46.421875 -59.929688 49.328125 -67.203125 C 52.242188 -74.484375 55.507812 -81.304688 59.125 -87.671875 C 62.738281 -94.035156 66.59375 -99.269531 70.6875 -103.375 C 74.570312 -107.25 78.535156 -110.535156 82.578125 -113.234375 C 86.617188 -115.929688 91.5 -117.28125 97.21875 -117.28125 C 101.644531 -117.28125 105.632812 -116.171875 109.1875 -113.953125 C 112.75 -111.742188 115.769531 -108.703125 118.25 -104.828125 C 121.164062 -100.191406 123.109375 -95.09375 124.078125 -89.53125 C 125.046875 -83.976562 125.257812 -78.265625 124.71875 -72.390625 C 124.175781 -66.515625 123.203125 -60.769531 121.796875 -55.15625 C 120.398438 -49.550781 118.84375 -44.484375 117.125 -39.953125 C 114.53125 -32.835938 110.753906 -25.640625 105.796875 -18.359375 C 100.835938 -11.078125 95.09375 -4.363281 88.5625 1.78125 C 82.039062 7.925781 74.953125 12.859375 67.296875 16.578125 C 59.640625 20.296875 51.765625 22.15625 43.671875 22.15625 C 41.085938 22.15625 39.015625 21.910156 37.453125 21.421875 C 35.890625 20.941406 34.351562 20.648438 32.84375 20.546875 L 30.578125 46.90625 C 30.359375 48.207031 30.191406 50.335938 30.078125 53.296875 C 29.972656 56.265625 29.867188 59.226562 29.765625 62.1875 C 29.660156 65.15625 29.5 67.453125 29.28125 69.078125 C 29.0625 71.660156 28.894531 74.140625 28.78125 76.515625 C 28.675781 78.890625 28.4375 80.832031 28.0625 82.34375 C 27.6875 83.851562 26.796875 84.609375 25.390625 84.609375 C 24.535156 84.609375 23.675781 84.390625 22.8125 83.953125 C 22.375 82.335938 22.128906 79.5625 22.078125 75.625 C 22.023438 71.6875 22.050781 67.398438 22.15625 62.765625 C 22.269531 58.128906 22.40625 53.757812 22.5625 49.65625 C 22.726562 45.5625 22.8125 42.488281 22.8125 40.4375 C 22.8125 38.0625 22.890625 35.957031 23.046875 34.125 C 23.210938 32.289062 23.296875 30.351562 23.296875 28.3125 C 23.296875 25.832031 23.347656 23.78125 23.453125 22.15625 C 23.566406 20.539062 23.625 18.65625 23.625 16.5 C 23.082031 15.957031 22.457031 15.46875 21.75 15.03125 C 21.050781 14.601562 20.378906 14.175781 19.734375 13.75 C 17.796875 12.34375 16.878906 10.9375 16.984375 9.53125 C 17.085938 8.132812 17.734375 7.4375 18.921875 7.4375 C 19.679688 7.4375 20.332031 7.65625 20.875 8.09375 C 21.625 8.519531 22.210938 8.894531 22.640625 9.21875 C 23.078125 9.539062 23.40625 9.703125 23.625 9.703125 C 24.050781 9.703125 24.238281 9.109375 24.1875 7.921875 C 24.132812 6.734375 24.160156 4.632812 24.265625 1.625 C 24.265625 0.21875 24.34375 -0.753906 24.5 -1.296875 C 24.664062 -1.835938 24.75 -2.753906 24.75 -4.046875 C 24.851562 -5.117188 24.878906 -6.222656 24.828125 -7.359375 C 24.773438 -8.492188 24.800781 -9.597656 24.90625 -10.671875 C 25.019531 -11.859375 25.128906 -12.828125 25.234375 -13.578125 C 25.335938 -14.335938 25.390625 -15.421875 25.390625 -16.828125 C 25.390625 -20.171875 25.5 -24.101562 25.71875 -28.625 C 25.9375 -33.15625 26.179688 -37.6875 26.453125 -42.21875 C 26.722656 -46.75 26.859375 -50.738281 26.859375 -54.1875 C 26.859375 -56.34375 26.9375 -59.226562 27.09375 -62.84375 C 27.257812 -66.457031 27.34375 -70.285156 27.34375 -74.328125 C 27.34375 -78.367188 27.234375 -82.140625 27.015625 -85.640625 C 26.796875 -89.148438 26.253906 -91.769531 25.390625 -93.5 C 24.210938 -92.75 23.082031 -91.425781 22 -89.53125 C 20.914062 -87.644531 19.914062 -85.625 19 -83.46875 C 18.082031 -81.3125 17.300781 -79.425781 16.65625 -77.8125 C 15.6875 -75.113281 14.820312 -71.90625 14.0625 -68.1875 C 13.3125 -64.46875 12.664062 -61.203125 12.125 -58.390625 C 11.695312 -54.722656 11.5625 -50.972656 11.71875 -47.140625 C 11.882812 -43.316406 12.238281 -39.789062 12.78125 -36.5625 C 13.53125 -32.894531 14.335938 -30.332031 15.203125 -28.875 C 16.066406 -27.414062 16.875 -26.46875 17.625 -26.03125 C 18.382812 -25.601562 18.875 -25.066406 19.09375 -24.421875 C 19.625 -23.671875 19.675781 -22.972656 19.25 -22.328125 C 18.820312 -21.679688 18.175781 -21.359375 17.3125 -21.359375 C 16.34375 -21.359375 15.179688 -21.894531 13.828125 -22.96875 C 12.484375 -24.050781 11.21875 -25.9375 10.03125 -28.625 C 8.84375 -31.863281 8.085938 -34.695312 7.765625 -37.125 C 7.441406 -39.550781 7.0625 -42.4375 6.625 -45.78125 C 6.519531 -46.851562 6.546875 -47.738281 6.703125 -48.4375 C 6.867188 -49.144531 6.953125 -50.203125 6.953125 -51.609375 C 6.953125 -57.535156 7.570312 -63.300781 8.8125 -68.90625 C 10.050781 -74.519531 11.695312 -79.914062 13.75 -85.09375 C 14.394531 -86.601562 15.285156 -88.539062 16.421875 -90.90625 C 17.554688 -93.28125 18.90625 -95.410156 20.46875 -97.296875 C 22.03125 -99.191406 23.671875 -100.140625 25.390625 -100.140625 C 27.660156 -100.140625 29.441406 -99.164062 30.734375 -97.21875 C 32.023438 -95.28125 32.96875 -92.828125 33.5625 -89.859375 C 34.15625 -86.890625 34.53125 -83.757812 34.6875 -80.46875 C 34.851562 -77.1875 34.9375 -74.195312 34.9375 -71.5 C 34.9375 -62.226562 34.800781 -53.113281 34.53125 -44.15625 C 34.257812 -35.207031 34.125 -26.421875 34.125 -17.796875 Z M 34.125 -17.796875 "/></g></g></g><g fill="#504081" fill-opacity="1"><g transform="translate(699.134776, 163.706181)"><g><path d="M 8.09375 -3.71875 C 9.707031 -4.15625 11.160156 -5.582031 12.453125 -8 C 13.742188 -10.425781 14.660156 -13.203125 15.203125 -16.328125 C 15.742188 -19.460938 15.878906 -22.347656 15.609375 -24.984375 C 15.335938 -27.628906 14.503906 -29.4375 13.109375 -30.40625 C 12.785156 -29.21875 12.191406 -27.519531 11.328125 -25.3125 C 10.460938 -23.101562 9.625 -20.675781 8.8125 -18.03125 C 8.007812 -15.394531 7.472656 -12.804688 7.203125 -10.265625 C 6.929688 -7.734375 7.226562 -5.550781 8.09375 -3.71875 Z M 0 -9.21875 C 0 -10.625 0.296875 -12.703125 0.890625 -15.453125 C 1.484375 -18.203125 2.316406 -21.164062 3.390625 -24.34375 C 4.472656 -27.53125 5.6875 -30.550781 7.03125 -33.40625 C 8.382812 -36.257812 9.84375 -38.601562 11.40625 -40.4375 C 12.96875 -42.269531 14.554688 -43.1875 16.171875 -43.1875 C 17.253906 -43.1875 18.007812 -42.703125 18.4375 -41.734375 C 18.875 -40.765625 18.984375 -39.957031 18.765625 -39.3125 C 18.546875 -38.769531 18.140625 -38.226562 17.546875 -37.6875 C 16.953125 -37.144531 16.441406 -36.550781 16.015625 -35.90625 C 16.234375 -35.15625 16.769531 -34.320312 17.625 -33.40625 C 18.488281 -32.488281 19.351562 -31.273438 20.21875 -29.765625 C 21.082031 -28.253906 21.648438 -26.203125 21.921875 -23.609375 C 22.191406 -21.023438 21.894531 -17.628906 21.03125 -13.421875 C 19.84375 -7.816406 17.953125 -3.613281 15.359375 -0.8125 C 12.773438 1.988281 10.242188 3.390625 7.765625 3.390625 C 5.710938 3.390625 3.90625 2.335938 2.34375 0.234375 C 0.78125 -1.859375 0 -5.007812 0 -9.21875 Z M 0 -9.21875 "/></g></g></g><g fill="#504081" fill-opacity="1"><g transform="translate(727.603463, 163.706181)"><g><path d="M 0.328125 -12.453125 C 0.328125 -17.847656 0.648438 -23.671875 1.296875 -29.921875 C 1.941406 -36.179688 2.800781 -42.382812 3.875 -48.53125 C 4.957031 -54.675781 6.144531 -60.226562 7.4375 -65.1875 C 7.976562 -66.8125 8.519531 -68.617188 9.0625 -70.609375 C 9.601562 -72.609375 10.300781 -74.332031 11.15625 -75.78125 C 12.019531 -77.238281 13.15625 -77.96875 14.5625 -77.96875 C 15.851562 -77.96875 16.660156 -77.484375 16.984375 -76.515625 C 17.304688 -75.546875 17.332031 -74.382812 17.0625 -73.03125 C 16.789062 -71.6875 16.441406 -70.445312 16.015625 -69.3125 C 15.585938 -68.1875 15.316406 -67.40625 15.203125 -66.96875 C 14.335938 -63.738281 13.335938 -59.34375 12.203125 -53.78125 C 11.078125 -48.226562 10 -42.160156 8.96875 -35.578125 C 7.945312 -29.003906 7.164062 -22.484375 6.625 -16.015625 C 6.09375 -9.546875 5.988281 -3.695312 6.3125 1.53125 C 6.632812 6.757812 7.492188 10.78125 8.890625 13.59375 C 10.722656 12.613281 12.234375 11.15625 13.421875 9.21875 C 14.609375 7.28125 15.632812 5.394531 16.5 3.5625 C 18.976562 -1.1875 21.40625 -6.203125 23.78125 -11.484375 C 26.15625 -16.765625 28.632812 -21.726562 31.21875 -26.375 C 32.082031 -28.09375 33 -28.953125 33.96875 -28.953125 C 34.40625 -28.953125 34.753906 -28.765625 35.015625 -28.390625 C 35.285156 -28.015625 35.421875 -27.609375 35.421875 -27.171875 C 35.421875 -26.847656 34.988281 -25.820312 34.125 -24.09375 C 33.269531 -22.375 32.382812 -20.597656 31.46875 -18.765625 C 30.550781 -16.929688 29.929688 -15.742188 29.609375 -15.203125 C 28.523438 -12.941406 27.304688 -10.300781 25.953125 -7.28125 C 24.609375 -4.257812 23.289062 -1.296875 22 1.609375 C 20.707031 4.523438 19.46875 7.007812 18.28125 9.0625 C 17.738281 9.925781 17.007812 11.082031 16.09375 12.53125 C 15.175781 13.988281 14.175781 15.253906 13.09375 16.328125 C 12.019531 17.410156 10.78125 17.953125 9.375 17.953125 C 7.21875 17.953125 5.519531 16.875 4.28125 14.71875 C 3.039062 12.5625 2.148438 9.863281 1.609375 6.625 C 1.078125 3.394531 0.726562 0.0546875 0.5625 -3.390625 C 0.40625 -6.847656 0.328125 -9.867188 0.328125 -12.453125 Z M 0.328125 -12.453125 "/></g></g></g><g fill="#504081" fill-opacity="1"><g transform="translate(756.07215, 163.706181)"><g><path d="M 13.421875 0.640625 C 11.265625 0.640625 9.347656 -0.0546875 7.671875 -1.453125 C 6.003906 -2.859375 4.738281 -4.316406 3.875 -5.828125 C 1.9375 -9.492188 0.832031 -13.832031 0.5625 -18.84375 C 0.289062 -23.863281 0.585938 -28.421875 1.453125 -32.515625 C 1.671875 -33.703125 1.96875 -35.128906 2.34375 -36.796875 C 2.71875 -38.472656 3.28125 -39.957031 4.03125 -41.25 C 4.789062 -42.539062 5.710938 -43.1875 6.796875 -43.1875 C 9.273438 -43.1875 10.488281 -42.347656 10.4375 -40.671875 C 10.382812 -39.003906 9.925781 -36.414062 9.0625 -32.90625 C 8.195312 -29.40625 7.765625 -24.90625 7.765625 -19.40625 C 7.765625 -17.789062 7.976562 -15.847656 8.40625 -13.578125 C 8.84375 -11.316406 9.519531 -9.320312 10.4375 -7.59375 C 11.351562 -5.875 12.507812 -5.015625 13.90625 -5.015625 C 15.632812 -5.015625 17.601562 -5.769531 19.8125 -7.28125 C 22.019531 -8.789062 24.066406 -10.488281 25.953125 -12.375 C 27.847656 -14.257812 29.171875 -15.6875 29.921875 -16.65625 C 30.140625 -16.875 30.734375 -17.601562 31.703125 -18.84375 C 32.671875 -20.082031 33.828125 -21.484375 35.171875 -23.046875 C 36.523438 -24.609375 37.847656 -25.984375 39.140625 -27.171875 C 40.441406 -28.359375 41.46875 -28.953125 42.21875 -28.953125 C 42.976562 -28.953125 43.359375 -28.304688 43.359375 -27.015625 C 43.359375 -26.253906 42.84375 -25.09375 41.8125 -23.53125 C 40.789062 -21.96875 39.578125 -20.320312 38.171875 -18.59375 C 36.773438 -16.875 35.398438 -15.257812 34.046875 -13.75 C 32.703125 -12.238281 31.707031 -11.160156 31.0625 -10.515625 C 29.769531 -9.222656 28.234375 -7.6875 26.453125 -5.90625 C 24.671875 -4.125 22.703125 -2.585938 20.546875 -1.296875 C 18.390625 -0.00390625 16.015625 0.640625 13.421875 0.640625 Z M 8.25 -63.578125 C 8.25 -65.410156 8.734375 -67 9.703125 -68.34375 C 10.671875 -69.695312 11.75 -70.375 12.9375 -70.375 C 14.226562 -70.375 15.304688 -69.5625 16.171875 -67.9375 C 17.679688 -64.914062 17.867188 -62.566406 16.734375 -60.890625 C 15.609375 -59.222656 14.238281 -58.390625 12.625 -58.390625 C 11.539062 -58.390625 10.539062 -58.820312 9.625 -59.6875 C 8.707031 -60.550781 8.25 -61.847656 8.25 -63.578125 Z M 8.25 -63.578125 "/></g></g></g><g fill="#504081" fill-opacity="1"><g transform="translate(792.952015, 163.706181)"><g><path d="M 0 -22.15625 C 0 -24.101562 0.398438 -26.367188 1.203125 -28.953125 C 2.015625 -31.546875 3.148438 -34.082031 4.609375 -36.5625 C 6.066406 -39.039062 7.789062 -41.113281 9.78125 -42.78125 C 11.78125 -44.457031 13.96875 -45.296875 16.34375 -45.296875 C 19.789062 -45.296875 21.515625 -43.140625 21.515625 -38.828125 C 21.515625 -36.023438 20.8125 -34.625 19.40625 -34.625 C 17.789062 -34.625 16.820312 -36.023438 16.5 -38.828125 C 14.664062 -37.523438 12.910156 -35.3125 11.234375 -32.1875 C 9.566406 -29.0625 8.460938 -25.71875 7.921875 -22.15625 C 7.390625 -18.601562 7.769531 -15.476562 9.0625 -12.78125 C 9.601562 -11.375 10.382812 -10.1875 11.40625 -9.21875 C 12.425781 -8.25 13.910156 -7.765625 15.859375 -7.765625 C 19.628906 -7.765625 23.101562 -8.816406 26.28125 -10.921875 C 29.46875 -13.023438 32.378906 -15.554688 35.015625 -18.515625 C 37.660156 -21.484375 39.953125 -24.316406 41.890625 -27.015625 C 43.078125 -28.628906 44.15625 -29.4375 45.125 -29.4375 C 45.882812 -29.4375 46.425781 -29.054688 46.75 -28.296875 C 47.070312 -27.546875 46.960938 -26.632812 46.421875 -25.5625 C 46.210938 -25.019531 45.863281 -24.425781 45.375 -23.78125 C 44.882812 -23.132812 44.425781 -22.539062 44 -22 C 41.738281 -19.195312 39.148438 -16.285156 36.234375 -13.265625 C 33.328125 -10.242188 30.144531 -7.679688 26.6875 -5.578125 C 23.238281 -3.472656 19.570312 -2.421875 15.6875 -2.421875 C 12.019531 -2.421875 9.023438 -3.363281 6.703125 -5.25 C 4.390625 -7.144531 2.691406 -9.597656 1.609375 -12.609375 C 0.535156 -15.628906 0 -18.8125 0 -22.15625 Z M 0 -22.15625 "/></g></g></g><g fill="#504081" fill-opacity="1"><g transform="translate(832.096437, 163.706181)"><g><path d="M 4.6875 64.875 C 7.8125 64.875 10.613281 63.957031 13.09375 62.125 C 15.582031 60.289062 17.769531 58.078125 19.65625 55.484375 C 21.539062 52.898438 23.128906 50.472656 24.421875 48.203125 C 25.609375 45.941406 26.929688 42.707031 28.390625 38.5 C 29.847656 34.289062 31.222656 29.734375 32.515625 24.828125 C 33.804688 19.921875 34.910156 15.285156 35.828125 10.921875 C 36.742188 6.554688 37.3125 3.128906 37.53125 0.640625 C 36.238281 1.398438 35.050781 2.210938 33.96875 3.078125 L 18.125 17.140625 C 17.6875 17.578125 17.25 18.09375 16.8125 18.6875 C 16.382812 19.28125 15.847656 19.84375 15.203125 20.375 C 12.617188 22.96875 10.300781 25.554688 8.25 28.140625 C 6.195312 30.734375 4.148438 33.59375 2.109375 36.71875 C 1.128906 38.125 0.101562 39.90625 -0.96875 42.0625 C -2.050781 44.21875 -2.941406 46.507812 -3.640625 48.9375 C -4.335938 51.363281 -4.601562 53.757812 -4.4375 56.125 C -4.28125 58.5 -3.394531 60.550781 -1.78125 62.28125 C -0.375 64.007812 1.78125 64.875 4.6875 64.875 Z M 8.40625 -14.234375 C 10.03125 -15.097656 11.921875 -16.796875 14.078125 -19.328125 C 16.234375 -21.859375 18.492188 -24.875 20.859375 -28.375 C 23.234375 -31.882812 25.550781 -35.5 27.8125 -39.21875 C 30.082031 -42.945312 32.160156 -46.398438 34.046875 -49.578125 C 35.929688 -52.765625 37.414062 -55.328125 38.5 -57.265625 C 39.789062 -59.421875 40.675781 -60.847656 41.15625 -61.546875 C 41.644531 -62.253906 42.753906 -62.609375 44.484375 -62.609375 C 45.347656 -62.609375 45.992188 -61.984375 46.421875 -60.734375 C 46.859375 -59.492188 47.179688 -57.984375 47.390625 -56.203125 C 47.609375 -54.429688 47.71875 -52.734375 47.71875 -51.109375 C 47.71875 -49.492188 47.71875 -48.253906 47.71875 -47.390625 L 47.71875 -34.9375 C 47.71875 -32.238281 47.582031 -29.378906 47.3125 -26.359375 C 47.039062 -23.347656 46.796875 -20.546875 46.578125 -17.953125 C 46.367188 -15.367188 46.265625 -13.320312 46.265625 -11.8125 L 69.390625 -25.234375 C 69.929688 -25.554688 71.0625 -26.3125 72.78125 -27.5 C 74.507812 -28.6875 75.96875 -29.28125 77.15625 -29.28125 C 78.132812 -29.28125 78.625 -28.6875 78.625 -27.5 C 78.625 -26.75 77.734375 -25.722656 75.953125 -24.421875 C 74.171875 -23.128906 72.28125 -21.941406 70.28125 -20.859375 C 68.289062 -19.785156 66.972656 -19.035156 66.328125 -18.609375 C 62.984375 -16.773438 59.664062 -14.804688 56.375 -12.703125 C 53.082031 -10.597656 49.875 -8.46875 46.75 -6.3125 C 46 -5.769531 45.59375 -5.3125 45.53125 -4.9375 C 45.476562 -4.5625 45.34375 -3.78125 45.125 -2.59375 C 44.375 2.695312 43.296875 8.679688 41.890625 15.359375 C 40.492188 22.046875 38.769531 28.570312 36.71875 34.9375 C 34.664062 41.300781 32.296875 46.640625 29.609375 50.953125 C 28.097656 53.867188 26.070312 56.753906 23.53125 59.609375 C 21 62.460938 18.171875 64.832031 15.046875 66.71875 C 11.921875 68.613281 8.578125 69.5625 5.015625 69.5625 C 1.023438 69.5625 -2.316406 68.210938 -5.015625 65.515625 C -7.710938 62.816406 -9.0625 59.039062 -9.0625 54.1875 C -9.0625 50.632812 -8.144531 46.804688 -6.3125 42.703125 C -4.476562 38.609375 -2.023438 34.429688 1.046875 30.171875 C 4.117188 25.910156 7.4375 21.835938 11 17.953125 C 14.5625 14.066406 18.117188 10.535156 21.671875 7.359375 C 25.234375 4.179688 28.414062 1.566406 31.21875 -0.484375 C 31.757812 -1.023438 32.242188 -1.429688 32.671875 -1.703125 C 33.109375 -1.972656 33.648438 -2.320312 34.296875 -2.75 C 35.804688 -4.039062 36.910156 -4.925781 37.609375 -5.40625 C 38.304688 -5.894531 38.710938 -6.84375 38.828125 -8.25 C 39.472656 -13.75 40.0625 -18.816406 40.59375 -23.453125 C 41.132812 -28.085938 41.539062 -32.859375 41.8125 -37.765625 C 42.082031 -42.671875 42.21875 -48.203125 42.21875 -54.359375 C 41.894531 -54.140625 41.003906 -52.867188 39.546875 -50.546875 C 38.097656 -48.234375 36.457031 -45.539062 34.625 -42.46875 C 32.789062 -39.394531 31.0625 -36.535156 29.4375 -33.890625 C 27.820312 -31.242188 26.691406 -29.4375 26.046875 -28.46875 C 24.429688 -25.882812 22.460938 -22.835938 20.140625 -19.328125 C 17.816406 -15.828125 15.578125 -13.050781 13.421875 -11 C 11.378906 -9.164062 9.492188 -8.25 7.765625 -8.25 C 6.035156 -8.25 4.578125 -9.082031 3.390625 -10.75 C 2.210938 -12.425781 1.625 -14.664062 1.625 -17.46875 C 1.625 -19.195312 1.835938 -21.351562 2.265625 -23.9375 C 2.691406 -26.53125 3.335938 -29.09375 4.203125 -31.625 C 5.066406 -34.15625 6.0625 -36.285156 7.1875 -38.015625 C 8.320312 -39.742188 9.539062 -40.609375 10.84375 -40.609375 C 12.675781 -40.609375 13.59375 -39.957031 13.59375 -38.65625 C 13.59375 -37.363281 13.160156 -35.554688 12.296875 -33.234375 C 11.429688 -30.921875 10.566406 -28.144531 9.703125 -24.90625 C 8.835938 -21.675781 8.40625 -18.117188 8.40625 -14.234375 Z M 8.40625 -14.234375 "/></g></g></g><path stroke-linecap="butt" transform="matrix(0.75, 0, 0, 0.75, 918.95849, 36.581189)" fill="none" stroke-linejoin="miter" d="M 21.83139 201.376136 C 18.414723 201.376136 15.649098 200.292803 13.539723 198.126136 C 11.456389 195.959469 10.414723 193.277177 10.414723 190.084469 C 10.414723 186.808427 11.456389 184.14176 13.539723 182.084468 C 15.649098 180.032385 18.414723 179.001135 21.83139 179.001135 C 25.357432 179.001135 28.175141 180.032385 30.284516 182.084468 C 32.399099 184.14176 33.451183 186.808427 33.451183 190.084469 C 33.451183 193.277177 32.399099 195.959469 30.284516 198.126136 C 28.175141 200.292803 25.357432 201.376136 21.83139 201.376136 Z M 21.83139 201.376136 " stroke="#504081" stroke-width="4.052866" stroke-opacity="1" stroke-miterlimit="4"/><g fill="#fef74b" fill-opacity="1"><g transform="translate(918.95849, 186.581179)"><g><path d="M 16.375 1.03125 C 13.820312 1.03125 11.753906 0.21875 10.171875 -1.40625 C 8.597656 -3.03125 7.8125 -5.035156 7.8125 -7.421875 C 7.8125 -9.898438 8.597656 -11.90625 10.171875 -13.4375 C 11.753906 -14.96875 13.820312 -15.734375 16.375 -15.734375 C 19.019531 -15.734375 21.128906 -14.96875 22.703125 -13.4375 C 24.285156 -11.90625 25.078125 -9.898438 25.078125 -7.421875 C 25.078125 -5.035156 24.285156 -3.03125 22.703125 -1.40625 C 21.128906 0.21875 19.019531 1.03125 16.375 1.03125 Z M 16.375 1.03125 "/></g></g></g></svg>