<svg xmlns="http://www.w3.org/2000/svg" xmlns:xlink="http://www.w3.org/1999/xlink" width="1548" zoomAndPan="magnify" viewBox="0 0 1161 296.999993" height="396" preserveAspectRatio="xMidYMid meet" version="1.0"><defs><g/></defs><g fill="#504081" fill-opacity="1"><g transform="translate(300.09493, 163.706181)"><g><path d="M 64.21875 29.125 C 62.28125 29.550781 60.015625 30.25 57.421875 31.21875 C 54.835938 32.1875 52.492188 33.34375 50.390625 34.6875 C 48.285156 36.039062 46.859375 37.421875 46.109375 38.828125 C 44.804688 41.191406 44.910156 43.15625 46.421875 44.71875 C 47.929688 46.289062 50.085938 47.476562 52.890625 48.28125 C 55.703125 49.09375 58.238281 49.5 60.5 49.5 L 64.21875 49.5 Z M 71.171875 48.53125 C 73.328125 48.53125 76.1875 47.988281 79.75 46.90625 C 83.3125 45.832031 87.164062 44.429688 91.3125 42.703125 C 95.46875 40.984375 99.484375 39.175781 103.359375 37.28125 C 107.242188 35.394531 110.535156 33.585938 113.234375 31.859375 C 115.929688 30.140625 117.65625 28.796875 118.40625 27.828125 C 116.894531 27.828125 115.195312 27.609375 113.3125 27.171875 C 111.425781 26.742188 109.726562 26.421875 108.21875 26.203125 C 105.519531 25.773438 103.007812 25.476562 100.6875 25.3125 C 98.375 25.15625 96.140625 25.078125 93.984375 25.078125 C 91.078125 25.078125 88.113281 25.238281 85.09375 25.5625 C 82.070312 25.882812 78.726562 26.316406 75.0625 26.859375 C 73.332031 27.066406 72.28125 27.382812 71.90625 27.8125 C 71.53125 28.25 71.445312 28.898438 71.65625 29.765625 C 71.875 30.628906 71.875 31.976562 71.65625 33.8125 Z M 125.046875 23.625 C 125.046875 23.625 125.503906 23.269531 126.421875 22.5625 C 127.335938 21.863281 128.304688 21.132812 129.328125 20.375 C 130.359375 19.625 130.976562 19.195312 131.1875 19.09375 L 139.28125 12.125 C 139.925781 11.59375 140.410156 11.191406 140.734375 10.921875 C 141.054688 10.648438 141.539062 10.300781 142.1875 9.875 C 143.050781 9.21875 144.265625 8.082031 145.828125 6.46875 C 147.390625 4.851562 149.0625 3.046875 150.84375 1.046875 C 152.625 -0.941406 154.296875 -2.828125 155.859375 -4.609375 C 157.421875 -6.390625 158.523438 -7.710938 159.171875 -8.578125 C 159.609375 -9.109375 159.988281 -9.5625 160.3125 -9.9375 C 160.632812 -10.320312 161.007812 -10.785156 161.4375 -11.328125 C 163.59375 -14.128906 165.722656 -17.171875 167.828125 -20.453125 C 169.929688 -23.742188 171.847656 -26.898438 173.578125 -29.921875 C 176.484375 -34.992188 179.066406 -40.816406 181.328125 -47.390625 C 183.597656 -53.972656 185.164062 -60.738281 186.03125 -67.6875 C 186.894531 -74.644531 186.8125 -81.382812 185.78125 -87.90625 C 184.757812 -94.4375 182.441406 -100.289062 178.828125 -105.46875 C 175.210938 -110.644531 170.007812 -114.632812 163.21875 -117.4375 C 159.875 -118.945312 156.421875 -119.972656 152.859375 -120.515625 C 149.304688 -121.054688 145.75 -121.328125 142.1875 -121.328125 C 137.226562 -121.328125 132.347656 -120.894531 127.546875 -120.03125 C 122.753906 -119.164062 118.144531 -118.085938 113.71875 -116.796875 L 97.546875 -111.140625 C 94.203125 -109.628906 91.75 -108.519531 90.1875 -107.8125 C 88.625 -107.113281 87.597656 -106.359375 87.109375 -105.546875 C 86.628906 -104.742188 86.171875 -103.316406 85.734375 -101.265625 C 84.546875 -94.796875 83.410156 -88.835938 82.328125 -83.390625 C 81.253906 -77.941406 80.179688 -71.875 79.109375 -65.1875 C 78.128906 -59.257812 77.394531 -53.734375 76.90625 -48.609375 C 76.425781 -43.484375 75.8125 -38.226562 75.0625 -32.84375 L 72.796875 0.96875 C 72.898438 6.789062 72.765625 11.210938 72.390625 14.234375 C 72.015625 17.253906 71.769531 19.273438 71.65625 20.296875 C 71.550781 21.328125 71.875 21.84375 72.625 21.84375 C 73.0625 21.84375 73.601562 21.757812 74.25 21.59375 C 74.894531 21.4375 75.757812 21.300781 76.84375 21.1875 C 79.644531 20.757812 82.335938 20.460938 84.921875 20.296875 C 87.515625 20.140625 90 20.0625 92.375 20.0625 C 96.6875 20.0625 100.914062 20.273438 105.0625 20.703125 C 109.21875 21.140625 113.664062 21.785156 118.40625 22.640625 C 119.59375 22.859375 120.644531 23.078125 121.5625 23.296875 C 122.476562 23.515625 123.640625 23.625 125.046875 23.625 Z M 88.96875 -114.375 C 90.15625 -114.375 91.234375 -114.640625 92.203125 -115.171875 C 93.171875 -115.710938 94.195312 -116.203125 95.28125 -116.640625 L 113.71875 -123.59375 C 118.144531 -124.882812 122.753906 -125.929688 127.546875 -126.734375 C 132.347656 -127.546875 137.175781 -127.953125 142.03125 -127.953125 C 149.039062 -127.953125 155.890625 -126.898438 162.578125 -124.796875 C 169.265625 -122.691406 175.085938 -119.109375 180.046875 -114.046875 C 184.898438 -109.191406 188.40625 -103.660156 190.5625 -97.453125 C 192.71875 -91.253906 193.820312 -84.785156 193.875 -78.046875 C 193.925781 -71.304688 193.195312 -64.753906 191.6875 -58.390625 C 188.988281 -46.960938 185.132812 -36.691406 180.125 -27.578125 C 175.113281 -18.460938 168.941406 -9.59375 161.609375 -0.96875 L 156.75 4.375 C 156 5.34375 154.757812 6.710938 153.03125 8.484375 C 151.300781 10.265625 149.570312 11.988281 147.84375 13.65625 C 146.125 15.332031 144.832031 16.492188 143.96875 17.140625 C 143 17.898438 142.054688 18.65625 141.140625 19.40625 C 140.222656 20.164062 139.28125 20.976562 138.3125 21.84375 C 136.90625 22.8125 135.769531 23.617188 134.90625 24.265625 C 134.050781 24.910156 133.460938 25.773438 133.140625 26.859375 C 134.859375 27.179688 136.472656 27.929688 137.984375 29.109375 C 139.492188 30.296875 140.4375 31.59375 140.8125 33 C 141.195312 34.40625 140.523438 35.695312 138.796875 36.875 C 137.710938 36.125 137.035156 35.394531 136.765625 34.6875 C 136.503906 33.988281 135.617188 33.265625 134.109375 32.515625 C 131.296875 31.109375 129.300781 30.40625 128.125 30.40625 C 127.039062 30.40625 126.039062 30.753906 125.125 31.453125 C 124.207031 32.160156 122.832031 33.109375 121 34.296875 C 117.976562 36.234375 114.5 38.28125 110.5625 40.4375 C 106.625 42.59375 102.609375 44.585938 98.515625 46.421875 C 94.421875 48.253906 90.644531 49.710938 87.1875 50.796875 C 86.113281 51.222656 84.550781 51.734375 82.5 52.328125 C 80.445312 52.921875 78.367188 53.429688 76.265625 53.859375 C 74.171875 54.296875 72.421875 54.566406 71.015625 54.671875 L 71.65625 67.625 C 71.769531 68.15625 71.554688 68.660156 71.015625 69.140625 C 70.472656 69.628906 69.828125 69.875 69.078125 69.875 C 68.429688 69.875 67.78125 69.601562 67.125 69.0625 C 66.476562 68.53125 65.890625 67.5625 65.359375 66.15625 C 65.035156 64.96875 64.84375 63.941406 64.78125 63.078125 C 64.726562 62.222656 64.648438 61.148438 64.546875 59.859375 C 64.328125 57.804688 64.082031 56.484375 63.8125 55.890625 C 63.539062 55.296875 63.082031 55 62.4375 55 C 62.007812 55 61.550781 55.023438 61.0625 55.078125 C 60.582031 55.128906 59.960938 55.15625 59.203125 55.15625 C 56.828125 55.15625 54.128906 54.671875 51.109375 53.703125 C 48.097656 52.734375 45.484375 51.304688 43.265625 49.421875 C 41.054688 47.535156 39.953125 45.1875 39.953125 42.375 C 39.953125 38.820312 40.921875 35.96875 42.859375 33.8125 C 44.804688 31.65625 47.179688 29.957031 49.984375 28.71875 C 52.785156 27.476562 55.535156 26.425781 58.234375 25.5625 C 60.929688 24.695312 63.085938 23.882812 64.703125 23.125 C 64.703125 20.113281 64.78125 17.3125 64.9375 14.71875 C 65.101562 12.132812 65.1875 9.4375 65.1875 6.625 C 65.1875 4.039062 65.375 1.296875 65.75 -1.609375 C 66.132812 -4.523438 66.328125 -7.28125 66.328125 -9.875 C 66.328125 -12.457031 66.457031 -15.851562 66.71875 -20.0625 C 66.988281 -24.269531 67.367188 -28.878906 67.859375 -33.890625 C 68.347656 -38.898438 68.859375 -43.910156 69.390625 -48.921875 C 69.929688 -53.941406 70.472656 -58.523438 71.015625 -62.671875 C 71.554688 -66.828125 72.039062 -70.09375 72.46875 -72.46875 L 78.296875 -100.9375 C 76.460938 -99.96875 74.113281 -98.507812 71.25 -96.5625 C 68.394531 -94.625 65.40625 -92.46875 62.28125 -90.09375 C 59.15625 -87.726562 56.21875 -85.382812 53.46875 -83.0625 C 50.71875 -80.75 48.53125 -78.78125 46.90625 -77.15625 L 36.234375 -65.84375 C 32.890625 -62.0625 29.25 -57.472656 25.3125 -52.078125 C 21.375 -46.691406 17.625 -40.976562 14.0625 -34.9375 C 10.507812 -28.894531 7.570312 -22.9375 5.25 -17.0625 C 2.9375 -11.1875 1.78125 -5.820312 1.78125 -0.96875 C 1.78125 1.613281 2.101562 3.441406 2.75 4.515625 C 3.394531 5.597656 4.148438 6.273438 5.015625 6.546875 C 5.878906 6.816406 6.660156 7.03125 7.359375 7.1875 C 8.054688 7.351562 8.515625 7.921875 8.734375 8.890625 C 9.054688 10.398438 8.191406 11.15625 6.140625 11.15625 C 4.421875 11.15625 2.425781 10.210938 0.15625 8.328125 C -2.101562 6.441406 -3.234375 3.34375 -3.234375 -0.96875 C -3.234375 -4.632812 -2.613281 -8.597656 -1.375 -12.859375 C -0.132812 -17.117188 1.425781 -21.378906 3.3125 -25.640625 C 5.195312 -29.898438 7.21875 -33.941406 9.375 -37.765625 C 11.539062 -41.597656 13.539062 -44.863281 15.375 -47.5625 C 18.925781 -52.945312 22.347656 -57.660156 25.640625 -61.703125 C 28.929688 -65.753906 32.351562 -69.664062 35.90625 -73.4375 C 39.46875 -77.21875 43.457031 -81.316406 47.875 -85.734375 C 51.976562 -89.296875 56.128906 -92.75 60.328125 -96.09375 C 64.535156 -99.4375 68.960938 -102.507812 73.609375 -105.3125 C 75.222656 -106.175781 76.726562 -107.007812 78.125 -107.8125 C 79.53125 -108.625 80.445312 -109.566406 80.875 -110.640625 C 81.632812 -112.148438 82.253906 -113.609375 82.734375 -115.015625 C 83.222656 -116.421875 84.441406 -117.335938 86.390625 -117.765625 C 87.460938 -117.222656 88.160156 -116.867188 88.484375 -116.703125 C 88.804688 -116.546875 88.96875 -115.769531 88.96875 -114.375 Z M 88.96875 -114.375 "/></g></g></g><g fill="#504081" fill-opacity="1"><g transform="translate(488.861638, 163.706181)"><g><path d="M 13.421875 0.640625 C 11.265625 0.640625 9.347656 -0.0546875 7.671875 -1.453125 C 6.003906 -2.859375 4.738281 -4.316406 3.875 -5.828125 C 1.9375 -9.492188 0.832031 -13.832031 0.5625 -18.84375 C 0.289062 -23.863281 0.585938 -28.421875 1.453125 -32.515625 C 1.671875 -33.703125 1.96875 -35.128906 2.34375 -36.796875 C 2.71875 -38.472656 3.28125 -39.957031 4.03125 -41.25 C 4.789062 -42.539062 5.710938 -43.1875 6.796875 -43.1875 C 9.273438 -43.1875 10.488281 -42.347656 10.4375 -40.671875 C 10.382812 -39.003906 9.925781 -36.414062 9.0625 -32.90625 C 8.195312 -29.40625 7.765625 -24.90625 7.765625 -19.40625 C 7.765625 -17.789062 7.976562 -15.847656 8.40625 -13.578125 C 8.84375 -11.316406 9.519531 -9.320312 10.4375 -7.59375 C 11.351562 -5.875 12.507812 -5.015625 13.90625 -5.015625 C 15.632812 -5.015625 17.601562 -5.769531 19.8125 -7.28125 C 22.019531 -8.789062 24.066406 -10.488281 25.953125 -12.375 C 27.847656 -14.257812 29.171875 -15.6875 29.921875 -16.65625 C 30.140625 -16.875 30.734375 -17.601562 31.703125 -18.84375 C 32.671875 -20.082031 33.828125 -21.484375 35.171875 -23.046875 C 36.523438 -24.609375 37.847656 -25.984375 39.140625 -27.171875 C 40.441406 -28.359375 41.46875 -28.953125 42.21875 -28.953125 C 42.976562 -28.953125 43.359375 -28.304688 43.359375 -27.015625 C 43.359375 -26.253906 42.84375 -25.09375 41.8125 -23.53125 C 40.789062 -21.96875 39.578125 -20.320312 38.171875 -18.59375 C 36.773438 -16.875 35.398438 -15.257812 34.046875 -13.75 C 32.703125 -12.238281 31.707031 -11.160156 31.0625 -10.515625 C 29.769531 -9.222656 28.234375 -7.6875 26.453125 -5.90625 C 24.671875 -4.125 22.703125 -2.585938 20.546875 -1.296875 C 18.390625 -0.00390625 16.015625 0.640625 13.421875 0.640625 Z M 8.25 -63.578125 C 8.25 -65.410156 8.734375 -67 9.703125 -68.34375 C 10.671875 -69.695312 11.75 -70.375 12.9375 -70.375 C 14.226562 -70.375 15.304688 -69.5625 16.171875 -67.9375 C 17.679688 -64.914062 17.867188 -62.566406 16.734375 -60.890625 C 15.609375 -59.222656 14.238281 -58.390625 12.625 -58.390625 C 11.539062 -58.390625 10.539062 -58.820312 9.625 -59.6875 C 8.707031 -60.550781 8.25 -61.847656 8.25 -63.578125 Z M 8.25 -63.578125 "/></g></g></g><g fill="#504081" fill-opacity="1"><g transform="translate(525.741503, 163.706181)"><g><path d="M 1.9375 26.6875 C 1.9375 28.957031 2.640625 30.09375 4.046875 30.09375 C 4.796875 30.09375 5.601562 29.820312 6.46875 29.28125 C 7.332031 28.738281 8.035156 28.253906 8.578125 27.828125 C 10.734375 26.203125 12.644531 23.742188 14.3125 20.453125 C 15.988281 17.171875 17.203125 14.179688 17.953125 11.484375 C 18.492188 9.648438 18.789062 7.789062 18.84375 5.90625 C 18.894531 4.019531 18.921875 1.941406 18.921875 -0.328125 C 17.628906 0.429688 16.144531 1.753906 14.46875 3.640625 C 12.800781 5.523438 11.484375 7.0625 10.515625 8.25 C 8.578125 10.625 6.660156 13.484375 4.765625 16.828125 C 2.878906 20.171875 1.9375 23.457031 1.9375 26.6875 Z M 0.484375 -26.203125 C 0.484375 -29.003906 1.238281 -31.507812 2.75 -33.71875 C 4.257812 -35.9375 6.066406 -37.71875 8.171875 -39.0625 C 10.273438 -40.414062 12.082031 -41.09375 13.59375 -41.09375 C 14.78125 -41.09375 15.664062 -40.660156 16.25 -39.796875 C 16.84375 -38.929688 16.875 -37.472656 16.34375 -35.421875 C 15.039062 -35.097656 14.117188 -34.910156 13.578125 -34.859375 C 13.046875 -34.804688 12.617188 -34.644531 12.296875 -34.375 C 11.972656 -34.101562 11.378906 -33.484375 10.515625 -32.515625 C 8.359375 -30.140625 7.359375 -28.222656 7.515625 -26.765625 C 7.679688 -25.316406 8.546875 -23.972656 10.109375 -22.734375 C 11.671875 -21.492188 13.609375 -19.957031 15.921875 -18.125 C 18.242188 -16.289062 20.429688 -13.804688 22.484375 -10.671875 C 24.859375 -12.296875 27.285156 -14.1875 29.765625 -16.34375 L 44.8125 -26.859375 C 46.207031 -27.828125 47.414062 -28.5 48.4375 -28.875 C 49.46875 -29.25 50.363281 -29.4375 51.125 -29.4375 C 52.414062 -29.4375 52.953125 -28.894531 52.734375 -27.8125 C 52.515625 -26.738281 51.488281 -25.664062 49.65625 -24.59375 L 38.65625 -16.984375 C 38.226562 -16.765625 37.3125 -16.144531 35.90625 -15.125 C 34.507812 -14.101562 32.972656 -12.972656 31.296875 -11.734375 C 29.628906 -10.492188 28.203125 -9.332031 27.015625 -8.25 C 25.828125 -7.164062 25.179688 -6.460938 25.078125 -6.140625 C 24.960938 -5.609375 25.117188 -4.585938 25.546875 -3.078125 C 25.984375 -1.566406 26.28125 0.398438 26.4375 2.828125 C 26.601562 5.253906 26.28125 8.21875 25.46875 11.71875 C 24.664062 15.226562 22.914062 19.300781 20.21875 23.9375 C 17.84375 27.925781 15.253906 30.863281 12.453125 32.75 C 9.648438 34.644531 7.007812 35.59375 4.53125 35.59375 C 2.257812 35.59375 0.398438 34.835938 -1.046875 33.328125 C -2.503906 31.816406 -3.234375 29.601562 -3.234375 26.6875 C -3.234375 23.019531 -2.34375 19.460938 -0.5625 16.015625 C 1.21875 12.566406 3.347656 9.382812 5.828125 6.46875 C 8.304688 3.5625 10.597656 1.054688 12.703125 -1.046875 C 14.804688 -3.148438 16.179688 -4.6875 16.828125 -5.65625 C 15.523438 -7.925781 13.957031 -9.894531 12.125 -11.5625 C 10.289062 -13.238281 8.484375 -14.773438 6.703125 -16.171875 C 4.929688 -17.578125 3.453125 -19.0625 2.265625 -20.625 C 1.078125 -22.1875 0.484375 -24.046875 0.484375 -26.203125 Z M 0.484375 -26.203125 "/></g></g></g><g fill="#504081" fill-opacity="1"><g transform="translate(572.488373, 163.706181)"><g><path d="M 0 -22.15625 C 0 -24.101562 0.398438 -26.367188 1.203125 -28.953125 C 2.015625 -31.546875 3.148438 -34.082031 4.609375 -36.5625 C 6.066406 -39.039062 7.789062 -41.113281 9.78125 -42.78125 C 11.78125 -44.457031 13.96875 -45.296875 16.34375 -45.296875 C 19.789062 -45.296875 21.515625 -43.140625 21.515625 -38.828125 C 21.515625 -36.023438 20.8125 -34.625 19.40625 -34.625 C 17.789062 -34.625 16.820312 -36.023438 16.5 -38.828125 C 14.664062 -37.523438 12.910156 -35.3125 11.234375 -32.1875 C 9.566406 -29.0625 8.460938 -25.71875 7.921875 -22.15625 C 7.390625 -18.601562 7.769531 -15.476562 9.0625 -12.78125 C 9.601562 -11.375 10.382812 -10.1875 11.40625 -9.21875 C 12.425781 -8.25 13.910156 -7.765625 15.859375 -7.765625 C 19.628906 -7.765625 23.101562 -8.816406 26.28125 -10.921875 C 29.46875 -13.023438 32.378906 -15.554688 35.015625 -18.515625 C 37.660156 -21.484375 39.953125 -24.316406 41.890625 -27.015625 C 43.078125 -28.628906 44.15625 -29.4375 45.125 -29.4375 C 45.882812 -29.4375 46.425781 -29.054688 46.75 -28.296875 C 47.070312 -27.546875 46.960938 -26.632812 46.421875 -25.5625 C 46.210938 -25.019531 45.863281 -24.425781 45.375 -23.78125 C 44.882812 -23.132812 44.425781 -22.539062 44 -22 C 41.738281 -19.195312 39.148438 -16.285156 36.234375 -13.265625 C 33.328125 -10.242188 30.144531 -7.679688 26.6875 -5.578125 C 23.238281 -3.472656 19.570312 -2.421875 15.6875 -2.421875 C 12.019531 -2.421875 9.023438 -3.363281 6.703125 -5.25 C 4.390625 -7.144531 2.691406 -9.597656 1.609375 -12.609375 C 0.535156 -15.628906 0 -18.8125 0 -22.15625 Z M 0 -22.15625 "/></g></g></g><g fill="#504081" fill-opacity="1"><g transform="translate(611.632794, 163.706181)"><g><path d="M 0.328125 -12.453125 C 0.328125 -17.847656 0.648438 -23.671875 1.296875 -29.921875 C 1.941406 -36.179688 2.800781 -42.382812 3.875 -48.53125 C 4.957031 -54.675781 6.144531 -60.226562 7.4375 -65.1875 C 7.976562 -66.8125 8.519531 -68.617188 9.0625 -70.609375 C 9.601562 -72.609375 10.300781 -74.332031 11.15625 -75.78125 C 12.019531 -77.238281 13.15625 -77.96875 14.5625 -77.96875 C 15.851562 -77.96875 16.660156 -77.484375 16.984375 -76.515625 C 17.304688 -75.546875 17.332031 -74.382812 17.0625 -73.03125 C 16.789062 -71.6875 16.441406 -70.445312 16.015625 -69.3125 C 15.585938 -68.1875 15.316406 -67.40625 15.203125 -66.96875 C 14.335938 -63.738281 13.335938 -59.34375 12.203125 -53.78125 C 11.078125 -48.226562 10 -42.160156 8.96875 -35.578125 C 7.945312 -29.003906 7.164062 -22.484375 6.625 -16.015625 C 6.09375 -9.546875 5.988281 -3.695312 6.3125 1.53125 C 6.632812 6.757812 7.492188 10.78125 8.890625 13.59375 C 10.722656 12.613281 12.234375 11.15625 13.421875 9.21875 C 14.609375 7.28125 15.632812 5.394531 16.5 3.5625 C 18.976562 -1.1875 21.40625 -6.203125 23.78125 -11.484375 C 26.15625 -16.765625 28.632812 -21.726562 31.21875 -26.375 C 32.082031 -28.09375 33 -28.953125 33.96875 -28.953125 C 34.40625 -28.953125 34.753906 -28.765625 35.015625 -28.390625 C 35.285156 -28.015625 35.421875 -27.609375 35.421875 -27.171875 C 35.421875 -26.847656 34.988281 -25.820312 34.125 -24.09375 C 33.269531 -22.375 32.382812 -20.597656 31.46875 -18.765625 C 30.550781 -16.929688 29.929688 -15.742188 29.609375 -15.203125 C 28.523438 -12.941406 27.304688 -10.300781 25.953125 -7.28125 C 24.609375 -4.257812 23.289062 -1.296875 22 1.609375 C 20.707031 4.523438 19.46875 7.007812 18.28125 9.0625 C 17.738281 9.925781 17.007812 11.082031 16.09375 12.53125 C 15.175781 13.988281 14.175781 15.253906 13.09375 16.328125 C 12.019531 17.410156 10.78125 17.953125 9.375 17.953125 C 7.21875 17.953125 5.519531 16.875 4.28125 14.71875 C 3.039062 12.5625 2.148438 9.863281 1.609375 6.625 C 1.078125 3.394531 0.726562 0.0546875 0.5625 -3.390625 C 0.40625 -6.847656 0.328125 -9.867188 0.328125 -12.453125 Z M 0.328125 -12.453125 "/></g></g></g><g fill="#504081" fill-opacity="1"><g transform="translate(640.101482, 163.706181)"><g><path d="M 0 -16.34375 C 0 -18.601562 0.535156 -21.40625 1.609375 -24.75 C 2.691406 -28.09375 4.203125 -31.40625 6.140625 -34.6875 C 8.085938 -37.976562 10.328125 -40.703125 12.859375 -42.859375 C 15.390625 -45.023438 18.0625 -46.109375 20.875 -46.109375 C 23.457031 -46.109375 25.554688 -45.351562 27.171875 -43.84375 C 28.796875 -42.332031 29.769531 -40.789062 30.09375 -39.21875 C 30.414062 -37.65625 29.875 -36.875 28.46875 -36.875 C 27.394531 -36.875 26.289062 -37.492188 25.15625 -38.734375 C 24.019531 -39.984375 22.695312 -40.609375 21.1875 -40.609375 C 20 -40.609375 18.566406 -39.90625 16.890625 -38.5 C 15.222656 -37.09375 13.207031 -34.34375 10.84375 -30.25 C 9.757812 -28.519531 8.757812 -26.28125 7.84375 -23.53125 C 6.925781 -20.78125 6.46875 -18.0625 6.46875 -15.375 C 6.6875 -15.582031 6.765625 -15.660156 6.703125 -15.609375 C 6.648438 -15.554688 6.84375 -15.742188 7.28125 -16.171875 L 8.578125 -18.125 C 9.441406 -19.414062 10.4375 -21.082031 11.5625 -23.125 C 12.695312 -25.175781 13.859375 -27.253906 15.046875 -29.359375 C 16.234375 -31.460938 17.3125 -33.238281 18.28125 -34.6875 C 19.25 -36.144531 20.003906 -36.875 20.546875 -36.875 C 22.484375 -36.875 23.613281 -36.171875 23.9375 -34.765625 C 24.257812 -33.367188 24.394531 -31.644531 24.34375 -29.59375 C 24.289062 -27.550781 24.476562 -25.503906 24.90625 -23.453125 C 25.550781 -20.546875 26.546875 -18.414062 27.890625 -17.0625 C 29.242188 -15.71875 30.785156 -15.046875 32.515625 -15.046875 C 35.535156 -15.046875 38.878906 -16.878906 42.546875 -20.546875 C 44.054688 -21.941406 45.132812 -23.097656 45.78125 -24.015625 C 46.425781 -24.929688 47.289062 -25.984375 48.375 -27.171875 C 49.125 -28.253906 50.09375 -28.796875 51.28125 -28.796875 C 52.46875 -28.796875 52.976562 -27.796875 52.8125 -25.796875 C 52.65625 -23.804688 50.523438 -20.816406 46.421875 -16.828125 L 41.578125 -12.9375 C 38.441406 -10.78125 35.421875 -9.703125 32.515625 -9.703125 C 29.816406 -9.703125 27.46875 -10.507812 25.46875 -12.125 C 23.476562 -13.75 21.941406 -15.742188 20.859375 -18.109375 C 19.785156 -20.484375 19.25 -22.804688 19.25 -25.078125 C 18.5 -24.535156 17.632812 -23.347656 16.65625 -21.515625 C 15.6875 -19.679688 14.632812 -17.710938 13.5 -15.609375 C 12.375 -13.503906 11.21875 -11.671875 10.03125 -10.109375 C 8.84375 -8.546875 7.65625 -7.765625 6.46875 -7.765625 C 3.445312 -7.765625 1.613281 -8.460938 0.96875 -9.859375 C 0.320312 -11.265625 0 -13.425781 0 -16.34375 Z M 0 -16.34375 "/></g></g></g><g fill="#504081" fill-opacity="1"><g transform="translate(687.010079, 163.706181)"><g><path d="M 13.421875 0.640625 C 11.265625 0.640625 9.347656 -0.0546875 7.671875 -1.453125 C 6.003906 -2.859375 4.738281 -4.316406 3.875 -5.828125 C 1.9375 -9.492188 0.832031 -13.832031 0.5625 -18.84375 C 0.289062 -23.863281 0.585938 -28.421875 1.453125 -32.515625 C 1.671875 -33.703125 1.96875 -35.128906 2.34375 -36.796875 C 2.71875 -38.472656 3.28125 -39.957031 4.03125 -41.25 C 4.789062 -42.539062 5.710938 -43.1875 6.796875 -43.1875 C 9.273438 -43.1875 10.488281 -42.347656 10.4375 -40.671875 C 10.382812 -39.003906 9.925781 -36.414062 9.0625 -32.90625 C 8.195312 -29.40625 7.765625 -24.90625 7.765625 -19.40625 C 7.765625 -17.789062 7.976562 -15.847656 8.40625 -13.578125 C 8.84375 -11.316406 9.519531 -9.320312 10.4375 -7.59375 C 11.351562 -5.875 12.507812 -5.015625 13.90625 -5.015625 C 15.632812 -5.015625 17.601562 -5.769531 19.8125 -7.28125 C 22.019531 -8.789062 24.066406 -10.488281 25.953125 -12.375 C 27.847656 -14.257812 29.171875 -15.6875 29.921875 -16.65625 C 30.140625 -16.875 30.734375 -17.601562 31.703125 -18.84375 C 32.671875 -20.082031 33.828125 -21.484375 35.171875 -23.046875 C 36.523438 -24.609375 37.847656 -25.984375 39.140625 -27.171875 C 40.441406 -28.359375 41.46875 -28.953125 42.21875 -28.953125 C 42.976562 -28.953125 43.359375 -28.304688 43.359375 -27.015625 C 43.359375 -26.253906 42.84375 -25.09375 41.8125 -23.53125 C 40.789062 -21.96875 39.578125 -20.320312 38.171875 -18.59375 C 36.773438 -16.875 35.398438 -15.257812 34.046875 -13.75 C 32.703125 -12.238281 31.707031 -11.160156 31.0625 -10.515625 C 29.769531 -9.222656 28.234375 -7.6875 26.453125 -5.90625 C 24.671875 -4.125 22.703125 -2.585938 20.546875 -1.296875 C 18.390625 -0.00390625 16.015625 0.640625 13.421875 0.640625 Z M 8.25 -63.578125 C 8.25 -65.410156 8.734375 -67 9.703125 -68.34375 C 10.671875 -69.695312 11.75 -70.375 12.9375 -70.375 C 14.226562 -70.375 15.304688 -69.5625 16.171875 -67.9375 C 17.679688 -64.914062 17.867188 -62.566406 16.734375 -60.890625 C 15.609375 -59.222656 14.238281 -58.390625 12.625 -58.390625 C 11.539062 -58.390625 10.539062 -58.820312 9.625 -59.6875 C 8.707031 -60.550781 8.25 -61.847656 8.25 -63.578125 Z M 8.25 -63.578125 "/></g></g></g><g fill="#504081" fill-opacity="1"><g transform="translate(723.889944, 163.706181)"><g><path d="M 8.578125 -13.109375 C 6.304688 -13.109375 4.710938 -14.238281 3.796875 -16.5 C 2.878906 -18.757812 2.472656 -21.5625 2.578125 -24.90625 C 2.691406 -28.25 3.125 -31.59375 3.875 -34.9375 C 4.632812 -38.28125 5.578125 -41.082031 6.703125 -43.34375 C 7.835938 -45.613281 9 -46.75 10.1875 -46.75 C 12.238281 -46.75 13.453125 -46.289062 13.828125 -45.375 C 14.203125 -44.457031 14.117188 -43.023438 13.578125 -41.078125 C 13.046875 -39.140625 12.425781 -36.6875 11.71875 -33.71875 C 11.019531 -30.757812 10.671875 -27.226562 10.671875 -23.125 C 10.890625 -23.34375 11.050781 -23.503906 11.15625 -23.609375 C 11.269531 -23.722656 11.378906 -23.832031 11.484375 -23.9375 L 19.09375 -36.71875 C 19.738281 -37.800781 20.625 -39.226562 21.75 -41 C 22.882812 -42.78125 24.125 -44.398438 25.46875 -45.859375 C 26.820312 -47.316406 28.144531 -48.046875 29.4375 -48.046875 C 31.914062 -48.046875 33.53125 -46.773438 34.28125 -44.234375 C 35.039062 -41.703125 35.421875 -39.144531 35.421875 -36.5625 C 36.609375 -36.769531 38.0625 -37.765625 39.78125 -39.546875 C 41.507812 -41.328125 43.078125 -42.863281 44.484375 -44.15625 C 45.242188 -45.019531 45.914062 -45.773438 46.5 -46.421875 C 47.09375 -47.066406 47.820312 -47.609375 48.6875 -48.046875 C 49.769531 -48.585938 50.742188 -48.859375 51.609375 -48.859375 C 52.679688 -48.859375 53.597656 -48.425781 54.359375 -47.5625 C 55.109375 -46.695312 55.535156 -45.101562 55.640625 -42.78125 C 55.753906 -40.46875 55.703125 -37.800781 55.484375 -34.78125 C 55.265625 -31.757812 55.019531 -28.738281 54.75 -25.71875 C 54.488281 -22.695312 54.359375 -20.054688 54.359375 -17.796875 C 54.359375 -12.835938 54.757812 -9.359375 55.5625 -7.359375 C 56.375 -5.367188 57.476562 -4.375 58.875 -4.375 C 60.5 -4.375 62.304688 -5.453125 64.296875 -7.609375 C 66.296875 -9.765625 68.289062 -12.296875 70.28125 -15.203125 C 72.28125 -18.117188 73.976562 -20.757812 75.375 -23.125 C 76.132812 -24.3125 76.863281 -25.5 77.5625 -26.6875 C 78.269531 -27.875 79.484375 -28.46875 81.203125 -28.46875 C 81.523438 -28.46875 81.875 -28.25 82.25 -27.8125 C 82.632812 -27.382812 82.828125 -26.90625 82.828125 -26.375 C 82.828125 -25.71875 82.5 -24.796875 81.84375 -23.609375 C 81.195312 -22.429688 80.523438 -21.273438 79.828125 -20.140625 C 79.128906 -19.003906 78.5625 -18.113281 78.125 -17.46875 C 77.695312 -16.71875 77.320312 -16.070312 77 -15.53125 C 76.675781 -14.988281 76.242188 -14.285156 75.703125 -13.421875 C 75.273438 -12.773438 74.84375 -12.207031 74.40625 -11.71875 C 73.976562 -11.238281 73.492188 -10.566406 72.953125 -9.703125 C 70.898438 -6.679688 68.445312 -4.035156 65.59375 -1.765625 C 62.738281 0.492188 59.960938 1.625 57.265625 1.625 C 55.753906 1.625 54.296875 1.132812 52.890625 0.15625 C 51.492188 -0.8125 50.363281 -2.484375 49.5 -4.859375 C 47.988281 -8.847656 47.257812 -13.050781 47.3125 -17.46875 C 47.363281 -21.894531 47.710938 -26.207031 48.359375 -30.40625 C 49.015625 -34.613281 49.34375 -38.28125 49.34375 -41.40625 C 48.257812 -40.65625 46.9375 -39.414062 45.375 -37.6875 C 43.8125 -35.96875 42.21875 -34.378906 40.59375 -32.921875 C 38.976562 -31.460938 37.414062 -30.734375 35.90625 -30.734375 C 33.425781 -30.734375 31.726562 -31.921875 30.8125 -34.296875 C 29.894531 -36.671875 29.4375 -39.039062 29.4375 -41.40625 C 27.601562 -40.21875 25.847656 -38.113281 24.171875 -35.09375 C 22.503906 -32.082031 20.832031 -28.90625 19.15625 -25.5625 C 17.488281 -22.21875 15.816406 -19.332031 14.140625 -16.90625 C 12.472656 -14.476562 10.722656 -13.210938 8.890625 -13.109375 Z M 8.578125 -13.109375 "/></g></g></g><g fill="#504081" fill-opacity="1"><g transform="translate(799.429001, 163.706181)"><g><path d="M 7.4375 -29.28125 C 9.488281 -30.351562 11.753906 -31.832031 14.234375 -33.71875 C 16.710938 -35.613281 18.0625 -37.851562 18.28125 -40.4375 C 16.875 -40.226562 15.390625 -39.472656 13.828125 -38.171875 C 12.265625 -36.878906 10.914062 -35.421875 9.78125 -33.796875 C 8.65625 -32.179688 7.875 -30.675781 7.4375 -29.28125 Z M 0.15625 -25.390625 C 0.15625 -28.085938 1.046875 -31 2.828125 -34.125 C 4.609375 -37.257812 6.816406 -39.929688 9.453125 -42.140625 C 12.097656 -44.347656 14.71875 -45.453125 17.3125 -45.453125 C 20.863281 -45.453125 22.71875 -44.101562 22.875 -41.40625 C 23.039062 -38.71875 21.882812 -35.804688 19.40625 -32.671875 C 18.113281 -31.273438 16.171875 -29.660156 13.578125 -27.828125 C 10.992188 -25.992188 8.460938 -24.96875 5.984375 -24.75 C 5.984375 -23.019531 6.035156 -21.484375 6.140625 -20.140625 C 6.253906 -18.796875 7.007812 -17.421875 8.40625 -16.015625 C 9.8125 -14.609375 11.59375 -13.90625 13.75 -13.90625 C 16.550781 -13.90625 19.460938 -14.796875 22.484375 -16.578125 C 25.503906 -18.359375 27.820312 -19.84375 29.4375 -21.03125 C 30.082031 -21.570312 30.59375 -22.003906 30.96875 -22.328125 C 31.351562 -22.648438 31.816406 -23.023438 32.359375 -23.453125 C 34.617188 -25.179688 36.046875 -26.445312 36.640625 -27.25 C 37.234375 -28.0625 37.742188 -28.601562 38.171875 -28.875 C 38.609375 -29.144531 39.632812 -29.28125 41.25 -29.28125 C 41.46875 -28.09375 41.546875 -27.28125 41.484375 -26.84375 C 41.429688 -26.414062 41.03125 -25.769531 40.28125 -24.90625 C 38.34375 -22.96875 35.890625 -20.757812 32.921875 -18.28125 C 29.953125 -15.800781 26.769531 -13.644531 23.375 -11.8125 C 19.976562 -9.976562 16.609375 -9.0625 13.265625 -9.0625 C 11.535156 -9.0625 9.890625 -9.359375 8.328125 -9.953125 C 6.765625 -10.546875 5.28125 -11.539062 3.875 -12.9375 C 1.9375 -14.882812 0.832031 -16.878906 0.5625 -18.921875 C 0.289062 -20.972656 0.15625 -23.128906 0.15625 -25.390625 Z M 0.15625 -25.390625 "/></g></g></g><g fill="#504081" fill-opacity="1"><g transform="translate(834.529585, 163.706181)"><g><path d="M 2.265625 -0.640625 C 1.179688 -0.640625 0.53125 -1.3125 0.3125 -2.65625 C 0.101562 -4.007812 0.0507812 -5.441406 0.15625 -6.953125 C 0.269531 -8.460938 0.328125 -9.378906 0.328125 -9.703125 C 0.210938 -11.648438 0.179688 -13.617188 0.234375 -15.609375 C 0.296875 -17.609375 0.269531 -19.628906 0.15625 -21.671875 C 0.15625 -22.429688 0.179688 -23.863281 0.234375 -25.96875 C 0.296875 -28.070312 0.457031 -30.304688 0.71875 -32.671875 C 0.988281 -35.046875 1.394531 -37.09375 1.9375 -38.8125 C 2.476562 -40.539062 3.179688 -41.40625 4.046875 -41.40625 C 6.203125 -41.40625 7.304688 -40.703125 7.359375 -39.296875 C 7.410156 -37.898438 7.332031 -36.070312 7.125 -33.8125 C 7.007812 -33.050781 6.953125 -32.210938 6.953125 -31.296875 C 6.953125 -30.378906 6.953125 -29.488281 6.953125 -28.625 C 6.953125 -27.550781 6.894531 -26.851562 6.78125 -26.53125 C 6.675781 -26.207031 6.625 -25.503906 6.625 -24.421875 C 7.8125 -25.285156 8.890625 -26.285156 9.859375 -27.421875 C 10.835938 -28.554688 12.566406 -29.125 15.046875 -29.125 C 15.796875 -29.125 16.789062 -29.148438 18.03125 -29.203125 C 19.269531 -29.253906 20.59375 -29.28125 22 -29.28125 C 24.375 -29.28125 26.582031 -29.144531 28.625 -28.875 C 30.675781 -28.601562 31.703125 -27.929688 31.703125 -26.859375 C 31.703125 -25.773438 31.132812 -25.070312 30 -24.75 C 28.875 -24.425781 27.5 -24.265625 25.875 -24.265625 C 24.800781 -24.265625 23.695312 -24.289062 22.5625 -24.34375 C 21.4375 -24.394531 20.441406 -24.421875 19.578125 -24.421875 C 16.554688 -24.421875 14.53125 -24.257812 13.5 -23.9375 C 12.476562 -23.613281 11.320312 -22.375 10.03125 -20.21875 C 9.269531 -18.820312 8.539062 -17.3125 7.84375 -15.6875 C 7.144531 -14.070312 6.632812 -12.296875 6.3125 -10.359375 C 5.988281 -8.953125 5.851562 -7.492188 5.90625 -5.984375 C 5.957031 -4.472656 5.796875 -3.203125 5.421875 -2.171875 C 5.046875 -1.148438 3.992188 -0.640625 2.265625 -0.640625 Z M 2.265625 -0.640625 "/></g></g></g><path stroke-linecap="butt" transform="matrix(0.75, 0, 0, 0.75, 884.093572, 36.581189)" fill="none" stroke-linejoin="miter" d="M 21.828364 201.376136 C 18.411697 201.376136 15.65128 200.292803 13.541905 198.126136 C 11.458571 195.959469 10.416905 193.277177 10.416905 190.084469 C 10.416905 186.808427 11.458571 184.14176 13.541905 182.084468 C 15.65128 180.032385 18.411697 179.001135 21.828364 179.001135 C 25.359614 179.001135 28.177322 180.032385 30.286698 182.084468 C 32.396073 184.14176 33.453365 186.808427 33.453365 190.084469 C 33.453365 193.277177 32.396073 195.959469 30.286698 198.126136 C 28.177322 200.292803 25.359614 201.376136 21.828364 201.376136 Z M 21.828364 201.376136 " stroke="#504081" stroke-width="4.052866" stroke-opacity="1" stroke-miterlimit="4"/><g fill="#fef74b" fill-opacity="1"><g transform="translate(884.093572, 186.581179)"><g><path d="M 16.375 1.03125 C 13.820312 1.03125 11.753906 0.21875 10.171875 -1.40625 C 8.597656 -3.03125 7.8125 -5.035156 7.8125 -7.421875 C 7.8125 -9.898438 8.597656 -11.90625 10.171875 -13.4375 C 11.753906 -14.96875 13.820312 -15.734375 16.375 -15.734375 C 19.019531 -15.734375 21.128906 -14.96875 22.703125 -13.4375 C 24.285156 -11.90625 25.078125 -9.898438 25.078125 -7.421875 C 25.078125 -5.035156 24.285156 -3.03125 22.703125 -1.40625 C 21.128906 0.21875 19.019531 1.03125 16.375 1.03125 Z M 16.375 1.03125 "/></g></g></g></svg>