<svg xmlns="http://www.w3.org/2000/svg" xmlns:xlink="http://www.w3.org/1999/xlink" width="1161" zoomAndPan="magnify" viewBox="0 0 870.75 222.749995" height="297" preserveAspectRatio="xMidYMid meet" version="1.0"><path fill="#504081" d="M 205.613281 164.863281 C 205.613281 164.375 205.632812 163.609375 205.671875 162.554688 C 205.710938 161.503906 205.789062 160.449219 205.90625 159.394531 C 206.027344 158.347656 206.132812 157.703125 206.222656 157.464844 C 205.652344 157.546875 205.324219 157.6875 205.238281 157.886719 C 205.160156 158.085938 204.960938 158.472656 204.640625 159.042969 C 204.15625 160.089844 203.972656 161.15625 204.089844 162.25 C 204.214844 163.34375 204.722656 164.210938 205.613281 164.863281 Z M 215.304688 52.277344 C 215.304688 49.9375 215.484375 47.699219 215.84375 45.558594 C 216.210938 43.414062 216.394531 41.210938 216.394531 38.945312 C 216.394531 38.054688 216.476562 36.964844 216.640625 35.679688 C 216.804688 34.386719 216.925781 33.207031 217.003906 32.15625 C 217.167969 31.027344 217.226562 30.199219 217.179688 29.671875 C 217.136719 29.152344 217.238281 28.75 217.484375 28.46875 C 217.722656 28.179688 218.25 27.796875 219.0625 27.308594 C 219.710938 27.636719 220.257812 28.003906 220.703125 28.410156 C 221.148438 28.808594 221.367188 29.535156 221.367188 30.585938 C 221.367188 34.46875 221.265625 37.78125 221.066406 40.523438 C 220.859375 43.273438 220.597656 46.421875 220.269531 49.972656 C 220.914062 49.808594 221.742188 49.507812 222.75 49.070312 C 223.761719 48.625 224.636719 48.28125 225.359375 48.027344 C 230.773438 45.851562 236.613281 43.714844 242.871094 41.613281 C 249.136719 39.515625 255.179688 37.9375 260.992188 36.882812 C 262.285156 36.566406 264.609375 36.125 267.957031 35.5625 C 271.3125 34.992188 275.070312 34.484375 279.230469 34.039062 C 283.386719 33.59375 287.367188 33.371094 291.167969 33.371094 C 295.210938 33.371094 298.625 33.734375 301.410156 34.460938 C 304.199219 35.1875 305.589844 36.5625 305.589844 38.582031 C 305.589844 40.847656 304.761719 42.5625 303.109375 43.730469 C 301.453125 44.902344 299.8125 45.570312 298.191406 45.734375 C 298.597656 44.605469 299.246094 43.453125 300.136719 42.28125 C 301.027344 41.109375 301.550781 40 301.714844 38.945312 C 300.664062 38.78125 299.707031 38.578125 298.859375 38.335938 C 298.015625 38.097656 296.910156 37.972656 295.535156 37.972656 C 291.414062 37.972656 287.835938 38.015625 284.800781 38.101562 C 281.773438 38.179688 278.90625 38.382812 276.199219 38.710938 C 273.496094 39.03125 270.648438 39.476562 267.652344 40.042969 C 264.664062 40.605469 261.152344 41.375 257.117188 42.339844 C 256.546875 42.503906 255.292969 42.890625 253.347656 43.496094 C 251.410156 44.101562 249.070312 44.828125 246.324219 45.675781 C 243.578125 46.519531 240.730469 47.449219 237.78125 48.460938 C 234.835938 49.46875 232.050781 50.460938 229.421875 51.433594 C 226.800781 52.402344 224.617188 53.269531 222.878906 54.03125 C 221.136719 54.800781 220.144531 55.421875 219.90625 55.90625 L 216.03125 93.960938 C 215.953125 95.015625 215.8125 96.230469 215.609375 97.601562 C 215.40625 98.976562 215.304688 100.265625 215.304688 101.476562 C 216.195312 101.3125 217.589844 100.851562 219.484375 100.082031 C 221.378906 99.320312 222.9375 98.773438 224.15625 98.445312 C 225.605469 97.960938 227.503906 97.398438 229.84375 96.757812 C 232.191406 96.113281 234.554688 95.507812 236.9375 94.945312 C 239.316406 94.375 241.238281 94.007812 242.695312 93.84375 C 244.386719 93.605469 245.800781 93.480469 246.933594 93.480469 C 249.03125 93.480469 250.285156 93.886719 250.691406 94.699219 C 251.09375 95.503906 251.09375 96.710938 250.691406 98.328125 C 250.285156 98.40625 250 98.46875 249.835938 98.515625 C 249.679688 98.554688 249.316406 98.613281 248.75 98.691406 C 248.589844 97.636719 248.109375 97.109375 247.296875 97.109375 C 245.757812 97.109375 243.738281 97.375 241.234375 97.90625 C 238.734375 98.429688 236.070312 99.078125 233.238281 99.847656 C 230.410156 100.617188 227.703125 101.421875 225.113281 102.273438 C 222.53125 103.113281 220.433594 103.859375 218.816406 104.507812 C 218.253906 104.75 217.648438 104.992188 217.003906 105.234375 C 216.351562 105.476562 215.667969 105.640625 214.941406 105.726562 L 211.066406 148.132812 C 212.035156 148.054688 213.121094 147.648438 214.335938 146.917969 C 215.542969 146.191406 216.59375 145.667969 217.484375 145.347656 C 220.796875 143.898438 224.25 142.664062 227.84375 141.648438 C 231.4375 140.644531 235.054688 139.851562 238.695312 139.285156 C 239.417969 139.128906 240.871094 138.90625 243.046875 138.617188 C 245.230469 138.335938 247.882812 138.03125 250.996094 137.703125 C 254.109375 137.382812 257.402344 137.121094 260.875 136.921875 C 264.347656 136.722656 267.738281 136.628906 271.046875 136.628906 C 275.734375 136.628906 279.757812 136.945312 283.105469 137.585938 C 286.457031 138.234375 288.136719 139.449219 288.136719 141.226562 C 288.136719 142.03125 288.117188 142.535156 288.078125 142.738281 C 288.039062 142.941406 287.917969 143.082031 287.714844 143.160156 C 287.511719 143.246094 287.207031 143.570312 286.804688 144.132812 C 286.40625 143.808594 286.105469 143.46875 285.902344 143.101562 C 285.699219 142.742188 285.292969 142.378906 284.683594 142.011719 C 284.074219 141.652344 282.886719 141.351562 281.113281 141.109375 C 278.445312 140.621094 274.808594 140.375 270.203125 140.375 C 264.789062 140.375 259.074219 140.613281 253.054688 141.097656 C 247.039062 141.589844 241.140625 142.441406 235.355469 143.652344 C 229.582031 144.859375 224.191406 146.558594 219.179688 148.742188 C 218.375 149.0625 217.707031 149.34375 217.179688 149.585938 C 216.65625 149.824219 216.03125 150.152344 215.304688 150.558594 C 214.65625 150.886719 214.007812 151.191406 213.363281 151.46875 C 212.722656 151.75 212.199219 152.011719 211.792969 152.253906 C 211.144531 152.660156 210.699219 153.464844 210.460938 154.679688 C 210.214844 155.886719 210.074219 157.175781 210.027344 158.550781 C 209.984375 159.925781 209.925781 161.175781 209.851562 162.308594 C 209.609375 165.054688 209.144531 166.957031 208.457031 168.011719 C 207.769531 169.0625 206.984375 169.589844 206.09375 169.589844 C 205.289062 169.589844 204.441406 169.183594 203.554688 168.375 C 202.664062 167.558594 201.933594 166.628906 201.363281 165.574219 C 200.800781 164.527344 200.519531 163.644531 200.519531 162.917969 C 200.519531 160.578125 200.78125 158.777344 201.304688 157.523438 C 201.835938 156.273438 202.445312 155.324219 203.132812 154.679688 C 203.816406 154.027344 204.480469 153.464844 205.121094 152.980469 C 205.769531 152.496094 206.214844 151.890625 206.457031 151.167969 C 206.539062 150.839844 206.644531 150.007812 206.761719 148.671875 C 206.882812 147.34375 207.007812 145.851562 207.125 144.191406 C 207.246094 142.535156 207.347656 141 207.425781 139.589844 C 207.503906 138.175781 207.542969 137.226562 207.542969 136.746094 C 207.542969 135.777344 207.582031 135.171875 207.660156 134.929688 C 207.746094 134.6875 207.828125 134.160156 207.90625 133.351562 C 207.90625 132.699219 207.886719 132.074219 207.847656 131.464844 C 207.808594 130.863281 207.828125 130.238281 207.90625 129.59375 L 209.488281 108.019531 L 199.304688 113.226562 C 199.226562 113.226562 198.722656 113.53125 197.792969 114.140625 C 196.863281 114.75 195.996094 115.054688 195.183594 115.054688 C 194.378906 115.054688 193.976562 114.527344 193.976562 113.472656 C 193.976562 112.828125 194.480469 112.101562 195.488281 111.296875 C 196.5 110.484375 197.59375 109.738281 198.765625 109.050781 C 199.9375 108.363281 200.761719 107.898438 201.246094 107.65625 L 210.214844 103.417969 C 210.214844 101.320312 210.296875 99.34375 210.460938 97.484375 C 210.625 95.621094 210.824219 93.679688 211.066406 91.667969 L 214.460938 57.730469 C 213.648438 58.128906 212.839844 58.535156 212.027344 58.9375 C 211.222656 59.34375 210.378906 59.707031 209.488281 60.027344 L 195.066406 67.542969 C 193.527344 68.429688 191.992188 69.339844 190.453125 70.269531 C 188.925781 71.199219 187.390625 72.1875 185.855469 73.242188 C 185.449219 73.484375 185.0625 73.726562 184.695312 73.96875 C 184.335938 74.210938 183.914062 74.496094 183.429688 74.820312 C 183.023438 75.144531 182.71875 75.382812 182.519531 75.546875 C 182.324219 75.707031 181.984375 75.945312 181.5 76.273438 C 181.171875 76.433594 180.808594 76.589844 180.410156 76.753906 C 180.007812 76.917969 179.601562 77 179.195312 77 C 178.0625 77 177.496094 76.398438 177.496094 75.183594 C 177.496094 74.453125 178.304688 73.441406 179.917969 72.152344 C 181.535156 70.859375 183.574219 69.445312 186.042969 67.914062 C 188.503906 66.378906 191.050781 64.867188 193.671875 63.375 C 196.296875 61.875 198.617188 60.5625 200.636719 59.429688 C 202.65625 58.300781 204.03125 57.566406 204.757812 57.242188 Z M 215.304688 52.277344 " fill-opacity="1" fill-rule="nonzero"/><path fill="#504081" d="M 292.253906 119.902344 C 292.253906 115.859375 292.496094 111.496094 292.980469 106.8125 C 293.464844 102.125 294.109375 97.476562 294.914062 92.871094 C 295.722656 88.269531 296.613281 84.109375 297.582031 80.394531 C 297.984375 79.175781 298.390625 77.824219 298.800781 76.332031 C 299.203125 74.832031 299.726562 73.542969 300.367188 72.457031 C 301.015625 71.367188 301.867188 70.820312 302.917969 70.820312 C 303.886719 70.820312 304.492188 71.183594 304.734375 71.90625 C 304.972656 72.632812 304.996094 73.503906 304.792969 74.519531 C 304.585938 75.523438 304.328125 76.457031 304.007812 77.304688 C 303.6875 78.148438 303.484375 78.730469 303.398438 79.058594 C 302.75 81.480469 302 84.773438 301.152344 88.9375 C 300.308594 93.101562 299.5 97.644531 298.730469 102.578125 C 297.960938 107.5 297.378906 112.386719 296.972656 117.230469 C 296.574219 122.078125 296.496094 126.460938 296.738281 130.378906 C 296.980469 134.292969 297.621094 137.308594 298.671875 139.414062 C 300.042969 138.679688 301.175781 137.585938 302.066406 136.136719 C 302.953125 134.683594 303.722656 133.269531 304.371094 131.898438 C 306.226562 128.339844 308.046875 124.582031 309.824219 120.625 C 311.605469 116.667969 313.460938 112.953125 315.398438 109.472656 C 316.042969 108.183594 316.730469 107.539062 317.457031 107.539062 C 317.785156 107.539062 318.046875 107.679688 318.242188 107.960938 C 318.445312 108.242188 318.546875 108.546875 318.546875 108.875 C 318.546875 109.117188 318.222656 109.886719 317.574219 111.179688 C 316.933594 112.46875 316.269531 113.800781 315.585938 115.171875 C 314.898438 116.546875 314.433594 117.4375 314.191406 117.839844 C 313.378906 119.535156 312.464844 121.511719 311.453125 123.773438 C 310.445312 126.039062 309.457031 128.257812 308.492188 130.4375 C 307.523438 132.617188 306.59375 134.480469 305.707031 136.019531 C 305.296875 136.664062 304.75 137.53125 304.066406 138.617188 C 303.378906 139.710938 302.628906 140.65625 301.820312 141.460938 C 301.015625 142.273438 300.085938 142.679688 299.035156 142.679688 C 297.417969 142.679688 296.144531 141.871094 295.21875 140.257812 C 294.285156 138.640625 293.621094 136.617188 293.214844 134.191406 C 292.816406 131.773438 292.554688 129.269531 292.429688 126.691406 C 292.3125 124.101562 292.253906 121.835938 292.253906 119.902344 Z M 292.253906 119.902344 " fill-opacity="1" fill-rule="nonzero"/><path fill="#504081" d="M 323.394531 129.710938 C 321.777344 129.710938 320.339844 129.1875 319.085938 128.140625 C 317.835938 127.085938 316.886719 125.996094 316.242188 124.863281 C 314.789062 122.117188 313.960938 118.867188 313.757812 115.113281 C 313.554688 111.351562 313.777344 107.9375 314.425781 104.871094 C 314.589844 103.980469 314.8125 102.914062 315.09375 101.664062 C 315.375 100.40625 315.796875 99.296875 316.359375 98.328125 C 316.925781 97.363281 317.617188 96.875 318.429688 96.875 C 320.285156 96.875 321.195312 97.503906 321.15625 98.761719 C 321.117188 100.011719 320.773438 101.949219 320.125 104.578125 C 319.476562 107.199219 319.15625 110.570312 319.15625 114.691406 C 319.15625 115.902344 319.3125 117.359375 319.636719 119.058594 C 319.960938 120.753906 320.46875 122.246094 321.15625 123.539062 C 321.839844 124.828125 322.707031 125.472656 323.753906 125.472656 C 325.050781 125.472656 326.523438 124.90625 328.179688 123.773438 C 329.832031 122.644531 331.367188 121.371094 332.78125 119.960938 C 334.199219 118.546875 335.191406 117.476562 335.753906 116.75 C 335.917969 116.585938 336.363281 116.042969 337.089844 115.113281 C 337.8125 114.183594 338.679688 113.132812 339.6875 111.964844 C 340.699219 110.792969 341.691406 109.761719 342.660156 108.875 C 343.632812 107.984375 344.402344 107.539062 344.964844 107.539062 C 345.535156 107.539062 345.820312 108.023438 345.820312 108.992188 C 345.820312 109.5625 345.433594 110.429688 344.660156 111.601562 C 343.894531 112.773438 342.988281 114.007812 341.933594 115.300781 C 340.886719 116.585938 339.855469 117.800781 338.84375 118.929688 C 337.835938 120.0625 337.089844 120.871094 336.609375 121.351562 C 335.640625 122.320312 334.488281 123.472656 333.15625 124.804688 C 331.820312 126.140625 330.347656 127.292969 328.730469 128.257812 C 327.113281 129.226562 325.335938 129.710938 323.394531 129.710938 Z M 319.519531 81.601562 C 319.519531 80.226562 319.882812 79.035156 320.605469 78.03125 C 321.332031 77.015625 322.140625 76.507812 323.03125 76.507812 C 323.996094 76.507812 324.804688 77.117188 325.453125 78.332031 C 326.582031 80.597656 326.722656 82.359375 325.875 83.613281 C 325.03125 84.863281 324.003906 85.484375 322.796875 85.484375 C 321.980469 85.484375 321.234375 85.164062 320.546875 84.515625 C 319.859375 83.867188 319.519531 82.894531 319.519531 81.601562 Z M 319.519531 81.601562 " fill-opacity="1" fill-rule="nonzero"/><path fill="#504081" d="M 344.722656 148.132812 C 344.722656 149.023438 344.78125 150.398438 344.898438 152.253906 C 345.023438 154.109375 345.265625 156.070312 345.625 158.132812 C 345.992188 160.191406 346.519531 161.988281 347.207031 163.527344 C 347.890625 165.0625 348.761719 165.953125 349.816406 166.195312 C 350.707031 165.625 351.570312 164.46875 352.414062 162.730469 C 353.261719 161 353.988281 159.121094 354.589844 157.101562 C 355.199219 155.078125 355.503906 153.34375 355.503906 151.890625 L 355.503906 147.292969 C 355.503906 145.425781 354.9375 143.582031 353.808594 141.765625 C 352.675781 139.957031 351.28125 138.402344 349.628906 137.109375 C 347.972656 135.8125 346.339844 135.164062 344.722656 135.164062 Z M 325.328125 135.65625 C 325.328125 134.601562 326.039062 133.730469 327.457031 133.046875 C 328.871094 132.359375 330.464844 131.8125 332.246094 131.40625 C 334.019531 131.007812 335.347656 130.765625 336.238281 130.679688 C 337.535156 130.523438 338.320312 130.425781 338.601562 130.378906 C 338.882812 130.335938 339.066406 129.628906 339.152344 128.257812 C 339.230469 126.324219 339.535156 123.878906 340.066406 120.929688 C 340.589844 117.980469 341.25 114.832031 342.054688 111.484375 C 342.867188 108.128906 343.734375 104.816406 344.664062 101.546875 C 345.59375 98.269531 346.5625 95.320312 347.566406 92.695312 C 348.582031 90.070312 349.574219 88.105469 350.542969 86.808594 C 351.585938 85.519531 352.675781 84.878906 353.808594 84.878906 C 354.375 84.878906 354.859375 85.101562 355.257812 85.542969 C 355.664062 85.988281 355.867188 86.734375 355.867188 87.78125 C 355.867188 89.242188 355.785156 90.109375 355.621094 90.390625 C 355.464844 90.671875 355.222656 90.855469 354.894531 90.941406 C 354.574219 91.019531 354.171875 91.402344 353.691406 92.089844 C 353.203125 92.777344 352.640625 94.289062 351.992188 96.628906 C 351.1875 99.457031 350.542969 101.738281 350.050781 103.476562 C 349.5625 105.21875 349.101562 106.976562 348.65625 108.757812 C 348.210938 110.53125 347.667969 112.992188 347.03125 116.144531 C 346.785156 117.441406 346.519531 119.136719 346.234375 121.234375 C 345.953125 123.335938 345.730469 125.109375 345.566406 126.5625 C 346.058594 126.40625 346.90625 125.921875 348.117188 125.109375 C 349.328125 124.300781 350.636719 123.351562 352.050781 122.265625 C 353.460938 121.171875 354.816406 120.121094 356.113281 119.117188 C 357.40625 118.105469 358.378906 117.3125 359.027344 116.75 L 367.867188 108.382812 C 368.433594 107.984375 369 107.785156 369.5625 107.785156 C 370.453125 107.785156 370.898438 108.269531 370.898438 109.238281 C 370.898438 110.042969 370.3125 111.070312 369.140625 112.328125 C 367.972656 113.578125 366.699219 114.808594 365.324219 116.027344 C 363.949219 117.238281 362.941406 118.121094 362.292969 118.683594 L 345.929688 131.40625 C 350.617188 132.460938 354.03125 134.660156 356.171875 138.007812 C 358.316406 141.363281 359.390625 145.242188 359.390625 149.644531 C 359.390625 154.050781 358.539062 158.476562 356.839844 162.917969 C 356.277344 164.617188 355.367188 166.375 354.113281 168.1875 C 352.863281 170.003906 351.144531 170.914062 348.960938 170.914062 C 347.101562 170.914062 345.570312 170.023438 344.359375 168.246094 C 343.148438 166.472656 342.160156 164.234375 341.386719 161.527344 C 340.625 158.816406 340.039062 156.027344 339.632812 153.15625 C 339.226562 150.292969 338.925781 147.667969 338.730469 145.277344 C 338.527344 142.894531 338.386719 141.222656 338.296875 140.257812 C 338.222656 139.53125 338.261719 138.761719 338.425781 137.949219 C 338.585938 137.144531 338.660156 136.21875 338.660156 135.164062 C 337.289062 135.492188 335.734375 136.140625 334 137.109375 C 332.261719 138.074219 330.21875 138.558594 327.878906 138.558594 C 326.429688 138.558594 325.640625 138.273438 325.515625 137.703125 C 325.390625 137.144531 325.328125 136.457031 325.328125 135.65625 Z M 325.328125 135.65625 " fill-opacity="1" fill-rule="nonzero"/><path fill="#504081" d="M 395.128906 137.109375 C 395.128906 129.429688 395.777344 121.875 397.070312 114.445312 C 398.363281 107.007812 400 99.917969 401.976562 93.175781 C 403.957031 86.433594 406.039062 80.316406 408.226562 74.820312 C 409.753906 70.945312 411.609375 66.84375 413.785156 62.519531 C 415.96875 58.199219 418.457031 54.078125 421.242188 50.160156 C 424.035156 46.242188 427.050781 42.988281 430.28125 40.394531 C 432.542969 38.617188 435.023438 37.125 437.726562 35.914062 C 440.433594 34.703125 443.078125 34.097656 445.671875 34.097656 C 447.605469 34.097656 449.464844 34.527344 451.246094 35.375 C 453.023438 36.21875 454.597656 37.570312 455.972656 39.425781 C 457.828125 42.09375 458.859375 44.621094 459.0625 47.007812 C 459.265625 49.390625 459.367188 52.113281 459.367188 55.179688 C 459.367188 57.847656 458.960938 60.863281 458.152344 64.21875 C 457.335938 67.566406 456.265625 71.019531 454.933594 74.578125 C 453.601562 78.128906 452.230469 81.542969 450.8125 84.820312 C 449.398438 88.089844 448.085938 90.9375 446.878906 93.363281 C 446.472656 94.332031 446.109375 95.078125 445.789062 95.601562 C 445.46875 96.125 444.703125 96.507812 443.484375 96.746094 C 442.4375 96.019531 441.933594 95.378906 441.972656 94.816406 C 442.011719 94.246094 442.316406 93.394531 442.886719 92.261719 C 443.207031 91.375 443.523438 90.566406 443.847656 89.839844 C 444.175781 89.113281 444.496094 88.351562 444.816406 87.546875 C 447.246094 81.96875 449.488281 76.25 451.550781 70.398438 C 453.609375 64.539062 454.640625 58.335938 454.640625 51.785156 C 454.640625 47.664062 453.789062 44.65625 452.085938 42.761719 C 450.394531 40.863281 448.292969 39.917969 445.789062 39.917969 C 441.503906 39.917969 437.261719 42.015625 433.066406 46.214844 C 429.59375 49.6875 426.382812 53.949219 423.433594 59.007812 C 420.480469 64.058594 417.835938 69.46875 415.496094 75.242188 C 413.15625 81.019531 411.132812 86.773438 409.433594 92.507812 C 407.738281 98.246094 406.402344 103.535156 405.429688 108.382812 C 404.304688 113.71875 403.335938 119.5625 402.527344 125.90625 C 401.710938 132.242188 401.429688 138.578125 401.671875 144.914062 C 401.921875 151.261719 403.050781 157.140625 405.066406 162.554688 C 406.121094 165.949219 407.835938 168.917969 410.214844 171.464844 C 412.605469 174.007812 415.734375 175.28125 419.617188 175.28125 C 423.085938 175.28125 426.480469 174.371094 429.789062 172.550781 C 433.105469 170.730469 435.972656 168.894531 438.390625 167.039062 L 442.511719 163.410156 C 443.324219 162.675781 444.050781 162.066406 444.703125 161.585938 C 445.347656 161.097656 446.074219 160.453125 446.878906 159.652344 C 451.328125 155.125 455.324219 150.21875 458.875 144.925781 C 462.433594 139.636719 465.765625 134.121094 468.875 128.386719 C 471.988281 122.644531 475 116.984375 477.910156 111.414062 C 478.636719 110.042969 479.339844 109.09375 480.027344 108.570312 C 480.714844 108.046875 481.339844 107.785156 481.902344 107.785156 C 482.46875 107.785156 482.914062 107.988281 483.234375 108.394531 C 483.5625 108.792969 483.726562 109.195312 483.726562 109.601562 L 465.667969 142.5625 C 464.535156 144.253906 463.421875 145.910156 462.328125 147.527344 C 461.234375 149.140625 460.085938 150.757812 458.875 152.371094 C 457.183594 154.632812 454.878906 157.339844 451.96875 160.496094 C 449.058594 163.648438 445.804688 166.738281 442.207031 169.765625 C 438.617188 172.792969 434.882812 175.296875 431.003906 177.28125 C 427.125 179.261719 423.285156 180.253906 419.488281 180.253906 C 415.453125 180.253906 412 179.261719 409.128906 177.28125 C 406.261719 175.296875 403.921875 172.691406 402.105469 169.460938 C 400.285156 166.230469 398.867188 162.695312 397.855469 158.855469 C 396.847656 155.023438 396.144531 151.207031 395.738281 147.410156 C 395.332031 143.605469 395.128906 140.175781 395.128906 137.109375 Z M 395.128906 137.109375 " fill-opacity="1" fill-rule="nonzero"/><path fill="#504081" d="M 478.867188 116.984375 C 478.867188 115.292969 479.269531 113.191406 480.074219 110.6875 C 480.886719 108.183594 482.015625 105.703125 483.46875 103.242188 C 484.925781 100.78125 486.605469 98.738281 488.503906 97.121094 C 490.398438 95.5 492.398438 94.6875 494.507812 94.6875 C 496.441406 94.6875 498.011719 95.253906 499.226562 96.382812 C 500.441406 97.515625 501.171875 98.671875 501.414062 99.847656 C 501.652344 101.019531 501.25 101.605469 500.195312 101.605469 C 499.390625 101.605469 498.5625 101.140625 497.714844 100.210938 C 496.863281 99.273438 495.871094 98.808594 494.742188 98.808594 C 493.851562 98.808594 492.777344 99.332031 491.523438 100.386719 C 490.273438 101.441406 488.761719 103.5 486.992188 106.566406 C 486.179688 107.863281 485.429688 109.542969 484.746094 111.601562 C 484.058594 113.660156 483.714844 115.699219 483.714844 117.710938 C 483.878906 117.554688 483.9375 117.496094 483.890625 117.535156 C 483.847656 117.578125 483.996094 117.4375 484.324219 117.113281 L 485.296875 115.652344 C 485.941406 114.6875 486.6875 113.4375 487.53125 111.90625 C 488.378906 110.371094 489.25 108.8125 490.140625 107.234375 C 491.03125 105.660156 491.839844 104.328125 492.5625 103.242188 C 493.289062 102.152344 493.855469 101.605469 494.261719 101.605469 C 495.714844 101.605469 496.558594 102.132812 496.800781 103.183594 C 497.042969 104.234375 497.144531 105.523438 497.105469 107.058594 C 497.066406 108.589844 497.207031 110.125 497.527344 111.660156 C 498.011719 113.835938 498.757812 115.433594 499.761719 116.449219 C 500.777344 117.453125 501.929688 117.957031 503.226562 117.957031 C 505.488281 117.957031 507.996094 116.585938 510.742188 113.835938 C 511.871094 112.792969 512.679688 111.925781 513.164062 111.238281 C 513.648438 110.554688 514.296875 109.761719 515.109375 108.875 C 515.671875 108.0625 516.398438 107.65625 517.285156 107.65625 C 518.175781 107.65625 518.554688 108.40625 518.433594 109.902344 C 518.316406 111.394531 516.71875 113.636719 513.644531 116.621094 L 510.015625 119.539062 C 507.667969 121.152344 505.40625 121.960938 503.226562 121.960938 C 501.207031 121.960938 499.445312 121.359375 497.949219 120.144531 C 496.457031 118.929688 495.304688 117.4375 494.496094 115.664062 C 493.691406 113.882812 493.289062 112.144531 493.289062 110.441406 C 492.726562 110.847656 492.078125 111.738281 491.347656 113.109375 C 490.621094 114.488281 489.832031 115.960938 488.980469 117.535156 C 488.140625 119.113281 487.273438 120.484375 486.382812 121.65625 C 485.492188 122.828125 484.605469 123.414062 483.714844 123.414062 C 481.449219 123.414062 480.078125 122.890625 479.59375 121.84375 C 479.109375 120.789062 478.867188 119.171875 478.867188 116.984375 Z M 478.867188 116.984375 " fill-opacity="1" fill-rule="nonzero"/><path fill="#504081" d="M 514.011719 120.019531 C 514.011719 114.207031 514.152344 108.390625 514.433594 102.578125 C 514.710938 96.753906 515.097656 91.136719 515.589844 85.71875 C 515.667969 85.160156 515.828125 83.828125 516.070312 81.730469 C 516.3125 79.621094 516.636719 77.175781 517.042969 74.390625 C 517.445312 71.601562 517.933594 68.882812 518.492188 66.21875 C 519.0625 63.550781 519.710938 61.324219 520.4375 59.546875 C 521.164062 57.765625 521.925781 56.878906 522.730469 56.878906 C 524.347656 56.878906 525.273438 57.304688 525.515625 58.152344 C 525.765625 59.003906 525.6875 60.15625 525.28125 61.605469 C 524.875 63.058594 524.511719 64.71875 524.195312 66.582031 C 523.140625 72.558594 522.1875 79.023438 521.339844 85.964844 C 520.496094 92.914062 519.851562 99.820312 519.40625 106.683594 C 518.960938 113.554688 518.738281 119.855469 518.738281 125.589844 C 518.894531 125.433594 519.378906 124.566406 520.191406 122.992188 C 521 121.417969 522.03125 119.417969 523.28125 116.996094 C 524.527344 114.570312 525.878906 112.003906 527.332031 109.296875 C 528.789062 106.589844 530.246094 104.046875 531.699219 101.664062 C 533.15625 99.273438 534.472656 97.339844 535.640625 95.84375 C 536.8125 94.347656 537.71875 93.597656 538.371094 93.597656 C 540.148438 93.597656 540.9375 94.023438 540.734375 94.875 C 540.53125 95.726562 539.863281 96.875 538.734375 98.328125 C 537.601562 99.777344 536.429688 101.515625 535.222656 103.535156 C 534.894531 104.023438 534.589844 104.484375 534.308594 104.929688 C 534.027344 105.375 533.722656 105.839844 533.394531 106.320312 C 532.667969 107.539062 532.183594 108.492188 531.945312 109.179688 C 531.699219 109.867188 531.597656 110.710938 531.640625 111.71875 C 531.6875 112.726562 531.828125 114.40625 532.070312 116.75 C 532.226562 118.445312 532.566406 120.609375 533.089844 123.238281 C 533.621094 125.859375 534.25 128.480469 534.976562 131.101562 C 535.699219 133.730469 536.347656 135.855469 536.917969 137.46875 C 537.566406 139.007812 538.128906 140.140625 538.617188 140.867188 C 539.097656 141.589844 539.417969 142.359375 539.574219 143.171875 C 539.253906 143.492188 538.933594 143.828125 538.605469 144.191406 C 538.28125 144.554688 537.882812 144.738281 537.398438 144.738281 C 537.234375 144.738281 536.910156 144.65625 536.425781 144.492188 C 535.457031 144.007812 534.628906 143.164062 533.945312 141.953125 C 533.257812 140.742188 532.691406 139.453125 532.246094 138.078125 C 531.804688 136.703125 531.417969 135.535156 531.101562 134.566406 C 530.210938 131.898438 529.480469 129.171875 528.910156 126.386719 C 528.351562 123.597656 527.742188 120.835938 527.097656 118.085938 L 521.769531 129.710938 C 521.199219 131.488281 520.695312 133.328125 520.25 135.222656 C 519.804688 137.125 519.320312 138.722656 518.796875 140.011719 C 518.273438 141.304688 517.605469 141.953125 516.796875 141.953125 C 515.75 141.953125 515.082031 141.566406 514.792969 140.796875 C 514.515625 140.027344 514.390625 139.082031 514.433594 137.949219 C 514.46875 136.816406 514.449219 135.765625 514.375 134.800781 C 514.292969 133.914062 514.210938 133.222656 514.128906 132.742188 C 514.046875 132.253906 514.011719 131.449219 514.011719 130.320312 Z M 514.011719 120.019531 " fill-opacity="1" fill-rule="nonzero"/><path fill="#504081" d="M 547.945312 119.410156 C 546.242188 119.410156 545.046875 118.5625 544.363281 116.867188 C 543.675781 115.175781 543.371094 113.078125 543.449219 110.570312 C 543.535156 108.066406 543.859375 105.5625 544.421875 103.054688 C 544.988281 100.550781 545.695312 98.453125 546.539062 96.757812 C 547.386719 95.058594 548.261719 94.207031 549.148438 94.207031 C 550.6875 94.207031 551.597656 94.550781 551.878906 95.238281 C 552.160156 95.925781 552.09375 97 551.691406 98.457031 C 551.292969 99.90625 550.828125 101.746094 550.296875 103.96875 C 549.773438 106.1875 549.511719 108.832031 549.511719 111.90625 C 549.675781 111.742188 549.796875 111.621094 549.875 111.542969 C 549.960938 111.457031 550.042969 111.375 550.121094 111.296875 L 555.824219 101.722656 C 556.304688 100.910156 556.96875 99.84375 557.8125 98.515625 C 558.660156 97.179688 559.589844 95.96875 560.597656 94.875 C 561.609375 93.78125 562.601562 93.234375 563.570312 93.234375 C 565.425781 93.234375 566.636719 94.1875 567.199219 96.089844 C 567.769531 97.988281 568.054688 99.90625 568.054688 101.839844 C 568.945312 101.683594 570.03125 100.9375 571.320312 99.601562 C 572.613281 98.269531 573.789062 97.117188 574.84375 96.148438 C 575.410156 95.503906 575.914062 94.9375 576.355469 94.453125 C 576.800781 93.96875 577.34375 93.5625 577.992188 93.234375 C 578.804688 92.832031 579.53125 92.625 580.183594 92.625 C 580.984375 92.625 581.671875 92.953125 582.242188 93.597656 C 582.804688 94.246094 583.121094 95.441406 583.203125 97.179688 C 583.285156 98.914062 583.25 100.910156 583.085938 103.171875 C 582.921875 105.4375 582.738281 107.699219 582.535156 109.960938 C 582.339844 112.226562 582.242188 114.207031 582.242188 115.898438 C 582.242188 119.613281 582.539062 122.21875 583.144531 123.714844 C 583.753906 125.210938 584.578125 125.953125 585.625 125.953125 C 586.84375 125.953125 588.195312 125.144531 589.6875 123.53125 C 591.183594 121.914062 592.675781 120.019531 594.171875 117.839844 C 595.667969 115.65625 596.9375 113.679688 597.984375 111.90625 C 598.554688 111.015625 599.101562 110.125 599.625 109.238281 C 600.15625 108.347656 601.066406 107.902344 602.351562 107.902344 C 602.59375 107.902344 602.855469 108.066406 603.136719 108.394531 C 603.421875 108.714844 603.570312 109.074219 603.570312 109.472656 C 603.570312 109.960938 603.324219 110.652344 602.832031 111.542969 C 602.347656 112.425781 601.84375 113.292969 601.320312 114.140625 C 600.796875 114.992188 600.375 115.660156 600.046875 116.144531 C 599.722656 116.703125 599.445312 117.191406 599.203125 117.59375 C 598.960938 118 598.636719 118.527344 598.230469 119.175781 C 597.910156 119.660156 597.589844 120.085938 597.261719 120.449219 C 596.9375 120.8125 596.574219 121.3125 596.171875 121.960938 C 594.632812 124.226562 592.792969 126.207031 590.660156 127.90625 C 588.519531 129.597656 586.4375 130.449219 584.417969 130.449219 C 583.285156 130.449219 582.195312 130.078125 581.140625 129.347656 C 580.09375 128.621094 579.25 127.367188 578.601562 125.589844 C 577.46875 122.601562 576.921875 119.453125 576.960938 116.144531 C 577 112.828125 577.261719 109.597656 577.746094 106.449219 C 578.238281 103.300781 578.484375 100.550781 578.484375 98.210938 C 577.671875 98.773438 576.683594 99.703125 575.511719 100.996094 C 574.339844 102.285156 573.148438 103.476562 571.929688 104.566406 C 570.71875 105.660156 569.546875 106.203125 568.417969 106.203125 C 566.558594 106.203125 565.285156 105.316406 564.601562 103.535156 C 563.914062 101.757812 563.570312 99.984375 563.570312 98.210938 C 562.195312 99.101562 560.882812 100.675781 559.625 102.9375 C 558.378906 105.195312 557.125 107.574219 555.871094 110.078125 C 554.621094 112.585938 553.367188 114.746094 552.113281 116.566406 C 550.863281 118.382812 549.550781 119.332031 548.179688 119.410156 Z M 547.945312 119.410156 " fill-opacity="1" fill-rule="nonzero"/><path fill="#504081" d="M 598.109375 116.984375 C 598.109375 115.292969 598.511719 113.191406 599.316406 110.6875 C 600.125 108.183594 601.257812 105.703125 602.710938 103.242188 C 604.167969 100.78125 605.847656 98.738281 607.742188 97.121094 C 609.640625 95.5 611.640625 94.6875 613.746094 94.6875 C 615.683594 94.6875 617.253906 95.253906 618.464844 96.382812 C 619.683594 97.515625 620.410156 98.671875 620.652344 99.847656 C 620.894531 101.019531 620.488281 101.605469 619.4375 101.605469 C 618.632812 101.605469 617.804688 101.140625 616.953125 100.210938 C 616.101562 99.273438 615.113281 98.808594 613.980469 98.808594 C 613.09375 98.808594 612.019531 99.332031 610.761719 100.386719 C 609.511719 101.441406 608.003906 103.5 606.234375 106.566406 C 605.417969 107.863281 604.671875 109.542969 603.984375 111.601562 C 603.296875 113.660156 602.957031 115.699219 602.957031 117.710938 C 603.117188 117.554688 603.175781 117.496094 603.128906 117.535156 C 603.089844 117.578125 603.234375 117.4375 603.5625 117.113281 L 604.535156 115.652344 C 605.183594 114.6875 605.929688 113.4375 606.769531 111.90625 C 607.621094 110.371094 608.492188 108.8125 609.382812 107.234375 C 610.269531 105.660156 611.078125 104.328125 611.804688 103.242188 C 612.53125 102.152344 613.09375 101.605469 613.5 101.605469 C 614.953125 101.605469 615.800781 102.132812 616.042969 103.183594 C 616.28125 104.234375 616.382812 105.523438 616.347656 107.058594 C 616.304688 108.589844 616.445312 110.125 616.769531 111.660156 C 617.25 113.835938 617.996094 115.433594 619.003906 116.449219 C 620.015625 117.453125 621.171875 117.957031 622.46875 117.957031 C 624.730469 117.957031 627.234375 116.585938 629.984375 113.835938 C 631.113281 112.792969 631.921875 111.925781 632.40625 111.238281 C 632.890625 110.554688 633.535156 109.761719 634.347656 108.875 C 634.910156 108.0625 635.636719 107.65625 636.527344 107.65625 C 637.417969 107.65625 637.796875 108.40625 637.675781 109.902344 C 637.558594 111.394531 635.960938 113.636719 632.886719 116.621094 L 629.257812 119.539062 C 626.90625 121.152344 624.644531 121.960938 622.46875 121.960938 C 620.445312 121.960938 618.6875 121.359375 617.1875 120.144531 C 615.695312 118.929688 614.546875 117.4375 613.734375 115.664062 C 612.929688 113.882812 612.53125 112.144531 612.53125 110.441406 C 611.96875 110.847656 611.320312 111.738281 610.585938 113.109375 C 609.863281 114.488281 609.070312 115.960938 608.222656 117.535156 C 607.378906 119.113281 606.511719 120.484375 605.625 121.65625 C 604.734375 122.828125 603.84375 123.414062 602.957031 123.414062 C 600.691406 123.414062 599.316406 122.890625 598.835938 121.84375 C 598.347656 120.789062 598.109375 119.171875 598.109375 116.984375 Z M 598.109375 116.984375 " fill-opacity="1" fill-rule="nonzero"/><path fill="#504081" d="M 633.25 120.019531 C 633.25 114.207031 633.390625 108.390625 633.671875 102.578125 C 633.953125 96.753906 634.339844 91.136719 634.832031 85.71875 C 634.90625 85.160156 635.066406 83.828125 635.3125 81.730469 C 635.550781 79.621094 635.875 77.175781 636.28125 74.390625 C 636.6875 71.601562 637.171875 68.882812 637.734375 66.21875 C 638.300781 63.550781 638.953125 61.324219 639.675781 59.546875 C 640.402344 57.765625 641.167969 56.878906 641.972656 56.878906 C 643.585938 56.878906 644.515625 57.304688 644.757812 58.152344 C 645.007812 59.003906 644.925781 60.15625 644.523438 61.605469 C 644.117188 63.058594 643.753906 64.71875 643.433594 66.582031 C 642.382812 72.558594 641.425781 79.023438 640.578125 85.964844 C 639.734375 92.914062 639.09375 99.820312 638.648438 106.683594 C 638.203125 113.554688 637.980469 119.855469 637.980469 125.589844 C 638.136719 125.433594 638.617188 124.566406 639.429688 122.992188 C 640.242188 121.417969 641.273438 119.417969 642.523438 116.996094 C 643.769531 114.570312 645.121094 112.003906 646.570312 109.296875 C 648.03125 106.589844 649.488281 104.046875 650.9375 101.664062 C 652.394531 99.273438 653.710938 97.339844 654.882812 95.84375 C 656.054688 94.347656 656.960938 93.597656 657.609375 93.597656 C 659.390625 93.597656 660.175781 94.023438 659.976562 94.875 C 659.769531 95.726562 659.101562 96.875 657.972656 98.328125 C 656.839844 99.777344 655.671875 101.515625 654.460938 103.535156 C 654.132812 104.023438 653.828125 104.484375 653.546875 104.929688 C 653.269531 105.375 652.964844 105.839844 652.636719 106.320312 C 651.910156 107.539062 651.425781 108.492188 651.183594 109.179688 C 650.941406 109.867188 650.839844 110.710938 650.878906 111.71875 C 650.925781 112.726562 651.070312 114.40625 651.3125 116.75 C 651.46875 118.445312 651.808594 120.609375 652.332031 123.238281 C 652.859375 125.859375 653.488281 128.480469 654.214844 131.101562 C 654.941406 133.730469 655.589844 135.855469 656.160156 137.46875 C 656.804688 139.007812 657.371094 140.140625 657.855469 140.867188 C 658.339844 141.589844 658.65625 142.359375 658.816406 143.171875 C 658.496094 143.492188 658.171875 143.828125 657.84375 144.191406 C 657.523438 144.554688 657.121094 144.738281 656.640625 144.738281 C 656.476562 144.738281 656.148438 144.65625 655.667969 144.492188 C 654.699219 144.007812 653.871094 143.164062 653.1875 141.953125 C 652.496094 140.742188 651.933594 139.453125 651.488281 138.078125 C 651.042969 136.703125 650.660156 135.535156 650.339844 134.566406 C 649.453125 131.898438 648.71875 129.171875 648.152344 126.386719 C 647.589844 123.597656 646.984375 120.835938 646.339844 118.085938 L 641.011719 129.710938 C 640.441406 131.488281 639.933594 133.328125 639.488281 135.222656 C 639.046875 137.125 638.558594 138.722656 638.039062 140.011719 C 637.515625 141.304688 636.847656 141.953125 636.035156 141.953125 C 634.988281 141.953125 634.320312 141.566406 634.035156 140.796875 C 633.753906 140.027344 633.632812 139.082031 633.671875 137.949219 C 633.710938 136.816406 633.691406 135.765625 633.613281 134.800781 C 633.535156 133.914062 633.453125 133.222656 633.367188 132.742188 C 633.289062 132.253906 633.25 131.449219 633.25 130.320312 Z M 633.25 120.019531 " fill-opacity="1" fill-rule="nonzero"/><path stroke-linecap="butt" transform="matrix(0.561869, 0, 0, 0.561869, 671.019111, 27.405114)" fill="none" stroke-linejoin="miter" d="M 21.830778 201.373621 C 18.410276 201.373621 15.650237 200.296024 13.536757 198.126926 C 11.458037 195.957827 10.415201 193.274263 10.415201 190.083185 C 10.415201 186.808681 11.458037 184.139021 13.536757 182.081158 C 15.650237 180.030248 18.410276 179.001316 21.830778 179.001316 C 25.355563 179.001316 28.178172 180.030248 30.2847 182.081158 C 32.398181 184.139021 33.454921 186.808681 33.454921 190.083185 C 33.454921 193.274263 32.398181 195.957827 30.2847 198.126926 C 28.178172 200.296024 25.355563 201.373621 21.830778 201.373621 Z M 21.830778 201.373621 " stroke="#504081" stroke-width="4.053" stroke-opacity="1" stroke-miterlimit="4"/><path fill="#fef74b" d="M 683.285156 140.550781 C 681.371094 140.550781 679.824219 139.941406 678.640625 138.726562 C 677.460938 137.507812 676.871094 136.007812 676.871094 134.21875 C 676.871094 132.363281 677.460938 130.859375 678.640625 129.710938 C 679.824219 128.566406 681.371094 127.992188 683.285156 127.992188 C 685.269531 127.992188 686.847656 128.566406 688.027344 129.710938 C 689.210938 130.859375 689.804688 132.363281 689.804688 134.21875 C 689.804688 136.007812 689.210938 137.507812 688.027344 138.726562 C 686.847656 139.941406 685.269531 140.550781 683.285156 140.550781 Z M 683.285156 140.550781 " fill-opacity="1" fill-rule="nonzero"/></svg>