<?xml version="1.0" standalone="no"?>
<!DOCTYPE svg PUBLIC "-//W3C//DTD SVG 20010904//EN"
 "http://www.w3.org/TR/2001/REC-SVG-20010904/DTD/svg10.dtd">
<svg version="1.0" xmlns="http://www.w3.org/2000/svg"
 width="500.000000pt" height="500.000000pt" viewBox="0 0 500.000000 500.000000"
 preserveAspectRatio="xMidYMid meet">
<metadata>
Created by potrace 1.16, written by Peter Selinger 2001-2019
</metadata>
<g transform="translate(0.000000,500.000000) scale(0.100000,-0.100000)"
fill="#000000" stroke="none">
<path d="M906 3123 c-3 -21 -6 -56 -6 -78 0 -59 -9 -83 -33 -89 -33 -8 -228
-121 -256 -147 -41 -39 -5 -33 62 9 68 43 207 115 212 110 1 -2 -6 -79 -16
-173 -10 -93 -18 -176 -19 -183 0 -7 -12 -18 -27 -24 -52 -23 -104 -59 -98
-68 4 -6 30 3 61 20 30 17 54 27 55 23 2 -13 0 -61 -7 -201 -6 -121 -9 -136
-30 -162 -25 -30 -31 -69 -14 -101 24 -45 52 -6 62 85 2 24 12 34 50 53 95 47
199 66 373 67 88 1 168 -3 178 -8 26 -12 21 11 -5 26 -32 18 -250 14 -367 -6
-51 -9 -119 -27 -153 -41 -70 -28 -79 -30 -74 -12 3 6 10 81 17 166 l12 153
41 17 c61 26 161 52 206 54 27 1 40 6 40 15 0 20 -96 9 -195 -24 -42 -14 -79
-23 -82 -20 -3 3 3 84 13 181 16 157 20 178 38 190 28 18 222 82 324 106 81
20 293 31 307 17 4 -3 2 -16 -5 -27 -16 -31 6 -27 26 5 16 24 16 26 0 42 -14
14 -36 17 -124 16 -127 -2 -268 -29 -409 -79 -54 -20 -106 -39 -117 -42 -17
-5 -18 0 -15 77 3 55 0 84 -7 87 -6 2 -14 -13 -18 -34z"/>
<path d="M2649 3090 c-91 -48 -183 -191 -248 -385 -53 -162 -66 -237 -66 -395
0 -170 16 -236 74 -302 33 -37 42 -41 94 -46 48 -4 66 0 114 23 109 54 225
190 329 383 32 60 41 70 50 57 20 -27 44 -16 76 37 l32 51 11 -32 c20 -61 65
-76 123 -41 30 18 32 18 33 2 4 -52 6 -92 7 -135 2 -64 21 -58 42 14 9 30 26
72 37 93 l20 39 16 -72 c20 -88 44 -141 64 -141 11 0 13 5 7 18 -17 40 -53
190 -53 227 -1 30 8 53 35 93 20 29 33 56 29 60 -12 11 -54 -48 -112 -155
l-53 -98 0 80 c0 87 24 318 40 387 5 24 10 51 10 61 0 29 -28 19 -39 -15 -18
-54 -41 -228 -41 -309 0 -72 -1 -76 -33 -107 -35 -34 -76 -42 -96 -18 -6 7
-14 34 -17 60 -4 25 -12 46 -18 46 -7 0 -27 -27 -46 -60 -18 -33 -36 -58 -38
-55 -11 11 11 74 39 108 31 38 56 46 77 25 20 -20 26 1 7 22 -20 22 -46 25
-75 10 -23 -12 -88 -111 -164 -250 -128 -232 -282 -380 -397 -380 -159 0 -192
325 -72 695 76 235 185 385 280 385 94 0 97 -141 8 -350 -37 -87 -41 -100 -25
-100 14 0 52 79 89 183 51 145 40 266 -26 296 -35 16 -83 13 -124 -9z"/>
<path d="M4266 2879 c-9 -28 -20 -102 -26 -163 -6 -61 -13 -134 -16 -163 -4
-43 -11 -57 -35 -78 -33 -27 -70 -32 -88 -11 -6 7 -14 34 -17 60 -4 25 -12 46
-18 46 -7 0 -28 -28 -47 -61 -26 -48 -35 -57 -37 -40 -2 11 9 43 24 71 29 54
62 72 89 50 23 -19 31 -3 10 20 -22 25 -56 26 -83 3 -12 -10 -46 -58 -76 -108
-30 -49 -66 -99 -80 -109 -43 -33 -51 -12 -49 119 3 141 -6 154 -67 99 -22
-20 -42 -35 -43 -33 -2 2 -8 17 -15 32 -17 40 -41 31 -79 -28 -17 -28 -39 -59
-48 -70 -15 -19 -16 -18 -10 20 3 22 8 53 11 68 5 24 3 28 -13 25 -34 -6 -60
-147 -31 -176 21 -21 37 -13 64 36 15 26 38 65 52 87 l26 40 8 -32 c11 -41 44
-44 78 -8 13 14 26 25 29 25 3 0 4 -41 2 -90 -6 -166 43 -203 136 -101 17 18
26 22 30 14 11 -29 44 -12 76 38 l31 51 11 -32 c20 -60 65 -75 123 -40 l32 20
0 -54 c0 -79 11 -147 24 -143 5 2 18 28 26 58 17 54 49 124 55 117 1 -1 13
-39 25 -82 24 -88 38 -116 57 -116 16 0 16 6 3 31 -17 31 -50 171 -50 214 0
30 9 54 36 93 20 30 33 57 29 60 -12 12 -59 -54 -114 -156 l-52 -97 5 145 c5
128 18 241 41 363 6 30 4 37 -8 37 -11 0 -22 -18 -31 -51z"/>
<path d="M1566 2793 c-31 -62 -51 -195 -51 -349 0 -162 7 -188 49 -182 15 2
33 27 64 88 24 46 45 86 47 89 3 2 10 -9 15 -26 13 -37 49 -58 85 -49 14 4 47
26 72 49 l46 42 -8 -50 c-9 -63 -10 -65 -43 -65 -30 0 -72 -25 -72 -42 0 -10
44 -7 85 6 18 6 20 2 22 -44 2 -82 23 -178 45 -206 30 -38 58 -28 87 30 48 96
28 203 -45 242 l-32 18 71 57 c90 71 137 119 115 119 -8 0 -23 -9 -34 -21 -25
-27 -140 -119 -149 -119 -19 0 33 235 61 278 16 24 13 52 -5 52 -14 0 -46 -64
-66 -135 -14 -47 -29 -71 -79 -122 -38 -39 -70 -63 -84 -63 -40 0 -53 57 -37
168 6 43 4 52 -8 52 -21 0 -24 -7 -36 -78 -11 -72 -97 -247 -121 -247 -35 0
-17 313 26 454 16 54 18 81 4 81 -5 0 -16 -12 -24 -27z m415 -514 c24 -26 29
-39 29 -83 0 -29 -9 -70 -20 -95 -17 -36 -22 -41 -35 -31 -22 19 -35 77 -35
163 0 89 12 98 61 46z"/>
</g>
</svg>
