<svg xmlns="http://www.w3.org/2000/svg" xmlns:xlink="http://www.w3.org/1999/xlink" width="1548" zoomAndPan="magnify" viewBox="0 0 1161 296.999993" height="396" preserveAspectRatio="xMidYMid meet" version="1.0"><defs><g/></defs><g fill="#504081" fill-opacity="1"><g transform="translate(429.054242, 172.499989)"><g><path d="M 31.0625 47.5625 C 31.0625 46.914062 31.085938 45.890625 31.140625 44.484375 C 31.191406 43.078125 31.296875 41.671875 31.453125 40.265625 C 31.617188 38.867188 31.757812 38.007812 31.875 37.6875 C 31.113281 37.800781 30.675781 37.988281 30.5625 38.25 C 30.457031 38.519531 30.191406 39.035156 29.765625 39.796875 C 29.117188 41.191406 28.875 42.617188 29.03125 44.078125 C 29.195312 45.535156 29.875 46.695312 31.0625 47.5625 Z M 44 -102.71875 C 44 -105.84375 44.238281 -108.832031 44.71875 -111.6875 C 45.207031 -114.550781 45.453125 -117.492188 45.453125 -120.515625 C 45.453125 -121.703125 45.5625 -123.15625 45.78125 -124.875 C 46 -126.601562 46.160156 -128.171875 46.265625 -129.578125 C 46.484375 -131.085938 46.5625 -132.191406 46.5 -132.890625 C 46.445312 -133.585938 46.582031 -134.125 46.90625 -134.5 C 47.226562 -134.882812 47.929688 -135.398438 49.015625 -136.046875 C 49.878906 -135.609375 50.609375 -135.117188 51.203125 -134.578125 C 51.796875 -134.046875 52.09375 -133.078125 52.09375 -131.671875 C 52.09375 -126.492188 51.957031 -122.070312 51.6875 -118.40625 C 51.414062 -114.738281 51.0625 -110.535156 50.625 -105.796875 C 51.488281 -106.015625 52.59375 -106.414062 53.9375 -107 C 55.289062 -107.59375 56.453125 -108.054688 57.421875 -108.390625 C 64.648438 -111.296875 72.441406 -114.148438 80.796875 -116.953125 C 89.160156 -119.753906 97.222656 -121.859375 104.984375 -123.265625 C 106.710938 -123.691406 109.8125 -124.28125 114.28125 -125.03125 C 118.757812 -125.789062 123.773438 -126.46875 129.328125 -127.0625 C 134.878906 -127.65625 140.191406 -127.953125 145.265625 -127.953125 C 150.660156 -127.953125 155.21875 -127.46875 158.9375 -126.5 C 162.65625 -125.53125 164.515625 -123.695312 164.515625 -121 C 164.515625 -117.976562 163.410156 -115.6875 161.203125 -114.125 C 158.992188 -112.5625 156.804688 -111.671875 154.640625 -111.453125 C 155.179688 -112.960938 156.046875 -114.5 157.234375 -116.0625 C 158.421875 -117.625 159.125 -119.109375 159.34375 -120.515625 C 157.9375 -120.734375 156.664062 -121.003906 155.53125 -121.328125 C 154.40625 -121.648438 152.925781 -121.8125 151.09375 -121.8125 C 145.59375 -121.8125 140.816406 -121.753906 136.765625 -121.640625 C 132.722656 -121.535156 128.894531 -121.265625 125.28125 -120.828125 C 121.675781 -120.398438 117.875 -119.804688 113.875 -119.046875 C 109.882812 -118.296875 105.195312 -117.273438 99.8125 -115.984375 C 99.050781 -115.765625 97.375 -115.25 94.78125 -114.4375 C 92.195312 -113.632812 89.070312 -112.664062 85.40625 -111.53125 C 81.738281 -110.40625 77.9375 -109.164062 74 -107.8125 C 70.070312 -106.46875 66.351562 -105.144531 62.84375 -103.84375 C 59.34375 -102.550781 56.429688 -101.394531 54.109375 -100.375 C 51.785156 -99.351562 50.460938 -98.519531 50.140625 -97.875 L 44.96875 -47.078125 C 44.863281 -45.671875 44.675781 -44.050781 44.40625 -42.21875 C 44.132812 -40.382812 44 -38.660156 44 -37.046875 C 45.1875 -37.265625 47.046875 -37.882812 49.578125 -38.90625 C 52.109375 -39.925781 54.1875 -40.65625 55.8125 -41.09375 C 57.75 -41.738281 60.28125 -42.488281 63.40625 -43.34375 C 66.539062 -44.207031 69.695312 -45.015625 72.875 -45.765625 C 76.050781 -46.523438 78.613281 -47.015625 80.5625 -47.234375 C 82.820312 -47.554688 84.707031 -47.71875 86.21875 -47.71875 C 89.019531 -47.71875 90.691406 -47.175781 91.234375 -46.09375 C 91.773438 -45.019531 91.773438 -43.40625 91.234375 -41.25 C 90.691406 -41.144531 90.3125 -41.0625 90.09375 -41 C 89.882812 -40.945312 89.398438 -40.867188 88.640625 -40.765625 C 88.429688 -42.171875 87.785156 -42.875 86.703125 -42.875 C 84.648438 -42.875 81.953125 -42.519531 78.609375 -41.8125 C 75.273438 -41.113281 71.71875 -40.25 67.9375 -39.21875 C 64.164062 -38.195312 60.550781 -37.117188 57.09375 -35.984375 C 53.644531 -34.859375 50.84375 -33.863281 48.6875 -33 C 47.9375 -32.675781 47.128906 -32.351562 46.265625 -32.03125 C 45.398438 -31.707031 44.484375 -31.488281 43.515625 -31.375 L 38.34375 25.234375 C 39.632812 25.128906 41.085938 24.585938 42.703125 23.609375 C 44.316406 22.640625 45.71875 21.941406 46.90625 21.515625 C 51.332031 19.578125 55.941406 17.929688 60.734375 16.578125 C 65.535156 15.234375 70.363281 14.179688 75.21875 13.421875 C 76.1875 13.210938 78.125 12.914062 81.03125 12.53125 C 83.945312 12.15625 87.484375 11.75 91.640625 11.3125 C 95.796875 10.882812 100.191406 10.535156 104.828125 10.265625 C 109.460938 10.003906 113.988281 9.875 118.40625 9.875 C 124.664062 9.875 130.03125 10.300781 134.5 11.15625 C 138.976562 12.019531 141.21875 13.640625 141.21875 16.015625 C 141.21875 17.085938 141.191406 17.757812 141.140625 18.03125 C 141.085938 18.300781 140.925781 18.488281 140.65625 18.59375 C 140.382812 18.707031 139.976562 19.140625 139.4375 19.890625 C 138.90625 19.460938 138.503906 19.003906 138.234375 18.515625 C 137.960938 18.035156 137.421875 17.550781 136.609375 17.0625 C 135.796875 16.582031 134.207031 16.179688 131.84375 15.859375 C 128.28125 15.203125 123.425781 14.875 117.28125 14.875 C 110.050781 14.875 102.421875 15.195312 94.390625 15.84375 C 86.359375 16.5 78.484375 17.632812 70.765625 19.25 C 63.054688 20.863281 55.859375 23.128906 49.171875 26.046875 C 48.097656 26.472656 47.207031 26.847656 46.5 27.171875 C 45.800781 27.492188 44.96875 27.925781 44 28.46875 C 43.132812 28.90625 42.269531 29.3125 41.40625 29.6875 C 40.550781 30.0625 39.851562 30.410156 39.3125 30.734375 C 38.445312 31.273438 37.851562 32.351562 37.53125 33.96875 C 37.207031 35.582031 37.015625 37.304688 36.953125 39.140625 C 36.898438 40.972656 36.820312 42.644531 36.71875 44.15625 C 36.394531 47.820312 35.773438 50.359375 34.859375 51.765625 C 33.941406 53.171875 32.890625 53.875 31.703125 53.875 C 30.628906 53.875 29.5 53.332031 28.3125 52.25 C 27.125 51.164062 26.148438 49.921875 25.390625 48.515625 C 24.640625 47.117188 24.265625 45.9375 24.265625 44.96875 C 24.265625 41.84375 24.613281 39.441406 25.3125 37.765625 C 26.019531 36.097656 26.832031 34.832031 27.75 33.96875 C 28.664062 33.101562 29.550781 32.347656 30.40625 31.703125 C 31.269531 31.054688 31.863281 30.25 32.1875 29.28125 C 32.300781 28.84375 32.4375 27.734375 32.59375 25.953125 C 32.757812 24.179688 32.921875 22.1875 33.078125 19.96875 C 33.242188 17.757812 33.378906 15.710938 33.484375 13.828125 C 33.585938 11.941406 33.640625 10.675781 33.640625 10.03125 C 33.640625 8.738281 33.691406 7.929688 33.796875 7.609375 C 33.910156 7.285156 34.019531 6.582031 34.125 5.5 C 34.125 4.632812 34.097656 3.796875 34.046875 2.984375 C 33.992188 2.179688 34.019531 1.347656 34.125 0.484375 L 36.234375 -28.3125 L 22.640625 -21.359375 C 22.535156 -21.359375 21.863281 -20.953125 20.625 -20.140625 C 19.382812 -19.328125 18.222656 -18.921875 17.140625 -18.921875 C 16.066406 -18.921875 15.53125 -19.625 15.53125 -21.03125 C 15.53125 -21.894531 16.203125 -22.863281 17.546875 -23.9375 C 18.898438 -25.019531 20.359375 -26.019531 21.921875 -26.9375 C 23.484375 -27.851562 24.585938 -28.472656 25.234375 -28.796875 L 37.203125 -34.453125 C 37.203125 -37.253906 37.3125 -39.894531 37.53125 -42.375 C 37.75 -44.863281 38.019531 -47.453125 38.34375 -50.140625 L 42.875 -95.4375 C 41.789062 -94.90625 40.707031 -94.367188 39.625 -93.828125 C 38.550781 -93.285156 37.421875 -92.800781 36.234375 -92.375 L 16.984375 -82.34375 C 14.929688 -81.15625 12.878906 -79.941406 10.828125 -78.703125 C 8.785156 -77.460938 6.738281 -76.140625 4.6875 -74.734375 C 4.144531 -74.410156 3.628906 -74.085938 3.140625 -73.765625 C 2.660156 -73.441406 2.097656 -73.0625 1.453125 -72.625 C 0.910156 -72.195312 0.503906 -71.875 0.234375 -71.65625 C -0.0234375 -71.445312 -0.476562 -71.125 -1.125 -70.6875 C -1.5625 -70.476562 -2.046875 -70.265625 -2.578125 -70.046875 C -3.117188 -69.828125 -3.660156 -69.71875 -4.203125 -69.71875 C -5.710938 -69.71875 -6.46875 -70.523438 -6.46875 -72.140625 C -6.46875 -73.117188 -5.390625 -74.46875 -3.234375 -76.1875 C -1.078125 -77.914062 1.644531 -79.800781 4.9375 -81.84375 C 8.226562 -83.894531 11.625 -85.914062 15.125 -87.90625 C 18.625 -89.90625 21.722656 -91.660156 24.421875 -93.171875 C 27.117188 -94.679688 28.953125 -95.65625 29.921875 -96.09375 Z M 44 -102.71875 "/></g></g></g><g fill="#504081" fill-opacity="1"><g transform="translate(575.441445, 172.499989)"><g><path d="M 0.328125 -12.453125 C 0.328125 -17.847656 0.648438 -23.671875 1.296875 -29.921875 C 1.941406 -36.179688 2.800781 -42.382812 3.875 -48.53125 C 4.957031 -54.675781 6.144531 -60.226562 7.4375 -65.1875 C 7.976562 -66.8125 8.519531 -68.617188 9.0625 -70.609375 C 9.601562 -72.609375 10.300781 -74.332031 11.15625 -75.78125 C 12.019531 -77.238281 13.15625 -77.96875 14.5625 -77.96875 C 15.851562 -77.96875 16.660156 -77.484375 16.984375 -76.515625 C 17.304688 -75.546875 17.332031 -74.382812 17.0625 -73.03125 C 16.789062 -71.6875 16.441406 -70.445312 16.015625 -69.3125 C 15.585938 -68.1875 15.316406 -67.40625 15.203125 -66.96875 C 14.335938 -63.738281 13.335938 -59.34375 12.203125 -53.78125 C 11.078125 -48.226562 10 -42.160156 8.96875 -35.578125 C 7.945312 -29.003906 7.164062 -22.484375 6.625 -16.015625 C 6.09375 -9.546875 5.988281 -3.695312 6.3125 1.53125 C 6.632812 6.757812 7.492188 10.78125 8.890625 13.59375 C 10.722656 12.613281 12.234375 11.15625 13.421875 9.21875 C 14.609375 7.28125 15.632812 5.394531 16.5 3.5625 C 18.976562 -1.1875 21.40625 -6.203125 23.78125 -11.484375 C 26.15625 -16.765625 28.632812 -21.726562 31.21875 -26.375 C 32.082031 -28.09375 33 -28.953125 33.96875 -28.953125 C 34.40625 -28.953125 34.753906 -28.765625 35.015625 -28.390625 C 35.285156 -28.015625 35.421875 -27.609375 35.421875 -27.171875 C 35.421875 -26.847656 34.988281 -25.820312 34.125 -24.09375 C 33.269531 -22.375 32.382812 -20.597656 31.46875 -18.765625 C 30.550781 -16.929688 29.929688 -15.742188 29.609375 -15.203125 C 28.523438 -12.941406 27.304688 -10.300781 25.953125 -7.28125 C 24.609375 -4.257812 23.289062 -1.296875 22 1.609375 C 20.707031 4.523438 19.46875 7.007812 18.28125 9.0625 C 17.738281 9.925781 17.007812 11.082031 16.09375 12.53125 C 15.175781 13.988281 14.175781 15.253906 13.09375 16.328125 C 12.019531 17.410156 10.78125 17.953125 9.375 17.953125 C 7.21875 17.953125 5.519531 16.875 4.28125 14.71875 C 3.039062 12.5625 2.148438 9.863281 1.609375 6.625 C 1.078125 3.394531 0.726562 0.0546875 0.5625 -3.390625 C 0.40625 -6.847656 0.328125 -9.867188 0.328125 -12.453125 Z M 0.328125 -12.453125 "/></g></g></g><g fill="#504081" fill-opacity="1"><g transform="translate(603.910121, 172.499989)"><g><path d="M 13.421875 0.640625 C 11.265625 0.640625 9.347656 -0.0546875 7.671875 -1.453125 C 6.003906 -2.859375 4.738281 -4.316406 3.875 -5.828125 C 1.9375 -9.492188 0.832031 -13.832031 0.5625 -18.84375 C 0.289062 -23.863281 0.585938 -28.421875 1.453125 -32.515625 C 1.671875 -33.703125 1.96875 -35.128906 2.34375 -36.796875 C 2.71875 -38.472656 3.28125 -39.957031 4.03125 -41.25 C 4.789062 -42.539062 5.710938 -43.1875 6.796875 -43.1875 C 9.273438 -43.1875 10.488281 -42.347656 10.4375 -40.671875 C 10.382812 -39.003906 9.925781 -36.414062 9.0625 -32.90625 C 8.195312 -29.40625 7.765625 -24.90625 7.765625 -19.40625 C 7.765625 -17.789062 7.976562 -15.847656 8.40625 -13.578125 C 8.84375 -11.316406 9.519531 -9.320312 10.4375 -7.59375 C 11.351562 -5.875 12.507812 -5.015625 13.90625 -5.015625 C 15.632812 -5.015625 17.601562 -5.769531 19.8125 -7.28125 C 22.019531 -8.789062 24.066406 -10.488281 25.953125 -12.375 C 27.847656 -14.257812 29.171875 -15.6875 29.921875 -16.65625 C 30.140625 -16.875 30.734375 -17.601562 31.703125 -18.84375 C 32.671875 -20.082031 33.828125 -21.484375 35.171875 -23.046875 C 36.523438 -24.609375 37.847656 -25.984375 39.140625 -27.171875 C 40.441406 -28.359375 41.46875 -28.953125 42.21875 -28.953125 C 42.976562 -28.953125 43.359375 -28.304688 43.359375 -27.015625 C 43.359375 -26.253906 42.84375 -25.09375 41.8125 -23.53125 C 40.789062 -21.96875 39.578125 -20.320312 38.171875 -18.59375 C 36.773438 -16.875 35.398438 -15.257812 34.046875 -13.75 C 32.703125 -12.238281 31.707031 -11.160156 31.0625 -10.515625 C 29.769531 -9.222656 28.234375 -7.6875 26.453125 -5.90625 C 24.671875 -4.125 22.703125 -2.585938 20.546875 -1.296875 C 18.390625 -0.00390625 16.015625 0.640625 13.421875 0.640625 Z M 8.25 -63.578125 C 8.25 -65.410156 8.734375 -67 9.703125 -68.34375 C 10.671875 -69.695312 11.75 -70.375 12.9375 -70.375 C 14.226562 -70.375 15.304688 -69.5625 16.171875 -67.9375 C 17.679688 -64.914062 17.867188 -62.566406 16.734375 -60.890625 C 15.609375 -59.222656 14.238281 -58.390625 12.625 -58.390625 C 11.539062 -58.390625 10.539062 -58.820312 9.625 -59.6875 C 8.707031 -60.550781 8.25 -61.847656 8.25 -63.578125 Z M 8.25 -63.578125 "/></g></g></g><g fill="#504081" fill-opacity="1"><g transform="translate(640.789998, 172.499989)"><g><path d="M 5.015625 25.234375 C 5.015625 26.421875 5.09375 28.253906 5.25 30.734375 C 5.414062 33.210938 5.738281 35.828125 6.21875 38.578125 C 6.707031 41.328125 7.410156 43.726562 8.328125 45.78125 C 9.242188 47.832031 10.40625 49.019531 11.8125 49.34375 C 13 48.582031 14.15625 47.039062 15.28125 44.71875 C 16.414062 42.40625 17.382812 39.898438 18.1875 37.203125 C 19 34.503906 19.40625 32.1875 19.40625 30.25 L 19.40625 24.109375 C 19.40625 21.617188 18.648438 19.160156 17.140625 16.734375 C 15.628906 14.316406 13.769531 12.242188 11.5625 10.515625 C 9.351562 8.785156 7.171875 7.921875 5.015625 7.921875 Z M -20.875 8.578125 C -20.875 7.171875 -19.925781 6.007812 -18.03125 5.09375 C -16.144531 4.175781 -14.015625 3.445312 -11.640625 2.90625 C -9.273438 2.375 -7.5 2.050781 -6.3125 1.9375 C -4.582031 1.726562 -3.53125 1.59375 -3.15625 1.53125 C -2.78125 1.476562 -2.535156 0.535156 -2.421875 -1.296875 C -2.316406 -3.878906 -1.910156 -7.140625 -1.203125 -11.078125 C -0.503906 -15.015625 0.378906 -19.21875 1.453125 -23.6875 C 2.535156 -28.164062 3.695312 -32.585938 4.9375 -36.953125 C 6.175781 -41.328125 7.46875 -45.265625 8.8125 -48.765625 C 10.164062 -52.273438 11.488281 -54.894531 12.78125 -56.625 C 14.175781 -58.34375 15.628906 -59.203125 17.140625 -59.203125 C 17.898438 -59.203125 18.546875 -58.90625 19.078125 -58.3125 C 19.617188 -57.71875 19.890625 -56.722656 19.890625 -55.328125 C 19.890625 -53.378906 19.78125 -52.21875 19.5625 -51.84375 C 19.351562 -51.46875 19.03125 -51.222656 18.59375 -51.109375 C 18.164062 -51.003906 17.628906 -50.492188 16.984375 -49.578125 C 16.335938 -48.660156 15.582031 -46.640625 14.71875 -43.515625 C 13.644531 -39.742188 12.78125 -36.695312 12.125 -34.375 C 11.476562 -32.050781 10.859375 -29.703125 10.265625 -27.328125 C 9.671875 -24.960938 8.945312 -21.675781 8.09375 -17.46875 C 7.769531 -15.738281 7.414062 -13.472656 7.03125 -10.671875 C 6.65625 -7.867188 6.359375 -5.5 6.140625 -3.5625 C 6.796875 -3.769531 7.929688 -4.414062 9.546875 -5.5 C 11.160156 -6.582031 12.910156 -7.847656 14.796875 -9.296875 C 16.679688 -10.753906 18.488281 -12.15625 20.21875 -13.5 C 21.945312 -14.851562 23.242188 -15.90625 24.109375 -16.65625 L 35.90625 -27.828125 C 36.664062 -28.359375 37.421875 -28.625 38.171875 -28.625 C 39.359375 -28.625 39.953125 -27.976562 39.953125 -26.6875 C 39.953125 -25.613281 39.171875 -24.238281 37.609375 -22.5625 C 36.046875 -20.894531 34.347656 -19.25 32.515625 -17.625 C 30.679688 -16.007812 29.332031 -14.828125 28.46875 -14.078125 L 6.625 2.90625 C 12.882812 4.3125 17.441406 7.25 20.296875 11.71875 C 23.160156 16.195312 24.59375 21.375 24.59375 27.25 C 24.59375 33.132812 23.457031 39.039062 21.1875 44.96875 C 20.4375 47.238281 19.222656 49.582031 17.546875 52 C 15.878906 54.425781 13.585938 55.640625 10.671875 55.640625 C 8.191406 55.640625 6.144531 54.453125 4.53125 52.078125 C 2.914062 49.710938 1.59375 46.722656 0.5625 43.109375 C -0.457031 39.492188 -1.238281 35.769531 -1.78125 31.9375 C -2.320312 28.113281 -2.722656 24.609375 -2.984375 21.421875 C -3.253906 18.242188 -3.445312 16.007812 -3.5625 14.71875 C -3.664062 13.75 -3.609375 12.722656 -3.390625 11.640625 C -3.179688 10.566406 -3.078125 9.328125 -3.078125 7.921875 C -4.910156 8.359375 -6.984375 9.222656 -9.296875 10.515625 C -11.617188 11.804688 -14.34375 12.453125 -17.46875 12.453125 C -19.40625 12.453125 -20.457031 12.070312 -20.625 11.3125 C -20.789062 10.5625 -20.875 9.648438 -20.875 8.578125 Z M -20.875 8.578125 "/></g></g></g><g fill="#504081" fill-opacity="1"><g transform="translate(672.81727, 172.499989)"><g/></g></g><g fill="#504081" fill-opacity="1"><g transform="translate(714.711524, 172.499989)"><g><path d="M -1.625 10.515625 C -1.625 0.265625 -0.757812 -9.816406 0.96875 -19.734375 C 2.695312 -29.660156 4.878906 -39.125 7.515625 -48.125 C 10.160156 -57.125 12.941406 -65.289062 15.859375 -72.625 C 17.898438 -77.800781 20.375 -83.273438 23.28125 -89.046875 C 26.195312 -94.816406 29.515625 -100.316406 33.234375 -105.546875 C 36.960938 -110.773438 40.984375 -115.117188 45.296875 -118.578125 C 48.316406 -120.953125 51.628906 -122.945312 55.234375 -124.5625 C 58.847656 -126.175781 62.382812 -126.984375 65.84375 -126.984375 C 68.425781 -126.984375 70.90625 -126.414062 73.28125 -125.28125 C 75.65625 -124.15625 77.757812 -122.351562 79.59375 -119.875 C 82.070312 -116.3125 83.445312 -112.9375 83.71875 -109.75 C 83.988281 -106.570312 84.125 -102.9375 84.125 -98.84375 C 84.125 -95.28125 83.582031 -91.257812 82.5 -86.78125 C 81.414062 -82.3125 79.984375 -77.703125 78.203125 -72.953125 C 76.429688 -68.210938 74.597656 -63.65625 72.703125 -59.28125 C 70.816406 -54.914062 69.066406 -51.113281 67.453125 -47.875 C 66.910156 -46.582031 66.425781 -45.585938 66 -44.890625 C 65.570312 -44.191406 64.546875 -43.679688 62.921875 -43.359375 C 61.523438 -44.328125 60.851562 -45.1875 60.90625 -45.9375 C 60.957031 -46.695312 61.363281 -47.832031 62.125 -49.34375 C 62.550781 -50.53125 62.976562 -51.609375 63.40625 -52.578125 C 63.84375 -53.546875 64.273438 -54.566406 64.703125 -55.640625 C 67.941406 -63.085938 70.9375 -70.71875 73.6875 -78.53125 C 76.4375 -86.351562 77.8125 -94.632812 77.8125 -103.375 C 77.8125 -108.875 76.675781 -112.890625 74.40625 -115.421875 C 72.144531 -117.953125 69.34375 -119.21875 66 -119.21875 C 60.28125 -119.21875 54.617188 -116.414062 49.015625 -110.8125 C 44.378906 -106.175781 40.09375 -100.484375 36.15625 -93.734375 C 32.21875 -86.992188 28.6875 -79.769531 25.5625 -72.0625 C 22.4375 -64.351562 19.738281 -56.671875 17.46875 -49.015625 C 15.207031 -41.359375 13.425781 -34.296875 12.125 -27.828125 C 10.625 -20.703125 9.332031 -12.90625 8.25 -4.4375 C 7.164062 4.019531 6.785156 12.476562 7.109375 20.9375 C 7.441406 29.40625 8.953125 37.253906 11.640625 44.484375 C 13.046875 49.015625 15.335938 52.976562 18.515625 56.375 C 21.703125 59.769531 25.882812 61.46875 31.0625 61.46875 C 35.695312 61.46875 40.222656 60.253906 44.640625 57.828125 C 49.066406 55.398438 52.894531 52.945312 56.125 50.46875 L 61.625 45.625 C 62.707031 44.644531 63.679688 43.832031 64.546875 43.1875 C 65.410156 42.539062 66.378906 41.679688 67.453125 40.609375 C 73.390625 34.566406 78.726562 28.015625 83.46875 20.953125 C 88.21875 13.890625 92.664062 6.53125 96.8125 -1.125 C 100.96875 -8.789062 104.988281 -16.34375 108.875 -23.78125 C 109.84375 -25.613281 110.785156 -26.878906 111.703125 -27.578125 C 112.617188 -28.273438 113.453125 -28.625 114.203125 -28.625 C 114.960938 -28.625 115.554688 -28.351562 115.984375 -27.8125 C 116.421875 -27.28125 116.640625 -26.742188 116.640625 -26.203125 L 92.53125 17.796875 C 91.019531 20.054688 89.535156 22.265625 88.078125 24.421875 C 86.617188 26.578125 85.082031 28.734375 83.46875 30.890625 C 81.207031 33.910156 78.132812 37.523438 74.25 41.734375 C 70.363281 45.941406 66.019531 50.066406 61.21875 54.109375 C 56.425781 58.148438 51.441406 61.492188 46.265625 64.140625 C 41.085938 66.785156 35.960938 68.109375 30.890625 68.109375 C 25.503906 68.109375 20.894531 66.785156 17.0625 64.140625 C 13.238281 61.492188 10.113281 58.015625 7.6875 53.703125 C 5.257812 49.390625 3.367188 44.671875 2.015625 39.546875 C 0.671875 34.429688 -0.269531 29.335938 -0.8125 24.265625 C -1.351562 19.191406 -1.625 14.609375 -1.625 10.515625 Z M -1.625 10.515625 "/></g></g></g><g fill="#504081" fill-opacity="1"><g transform="translate(824.865891, 172.499989)"><g><path d="M 0 -16.34375 C 0 -18.601562 0.535156 -21.40625 1.609375 -24.75 C 2.691406 -28.09375 4.203125 -31.40625 6.140625 -34.6875 C 8.085938 -37.976562 10.328125 -40.703125 12.859375 -42.859375 C 15.390625 -45.023438 18.0625 -46.109375 20.875 -46.109375 C 23.457031 -46.109375 25.554688 -45.351562 27.171875 -43.84375 C 28.796875 -42.332031 29.769531 -40.789062 30.09375 -39.21875 C 30.414062 -37.65625 29.875 -36.875 28.46875 -36.875 C 27.394531 -36.875 26.289062 -37.492188 25.15625 -38.734375 C 24.019531 -39.984375 22.695312 -40.609375 21.1875 -40.609375 C 20 -40.609375 18.566406 -39.90625 16.890625 -38.5 C 15.222656 -37.09375 13.207031 -34.34375 10.84375 -30.25 C 9.757812 -28.519531 8.757812 -26.28125 7.84375 -23.53125 C 6.925781 -20.78125 6.46875 -18.0625 6.46875 -15.375 C 6.6875 -15.582031 6.765625 -15.660156 6.703125 -15.609375 C 6.648438 -15.554688 6.84375 -15.742188 7.28125 -16.171875 L 8.578125 -18.125 C 9.441406 -19.414062 10.4375 -21.082031 11.5625 -23.125 C 12.695312 -25.175781 13.859375 -27.253906 15.046875 -29.359375 C 16.234375 -31.460938 17.3125 -33.238281 18.28125 -34.6875 C 19.25 -36.144531 20.003906 -36.875 20.546875 -36.875 C 22.484375 -36.875 23.613281 -36.171875 23.9375 -34.765625 C 24.257812 -33.367188 24.394531 -31.644531 24.34375 -29.59375 C 24.289062 -27.550781 24.476562 -25.503906 24.90625 -23.453125 C 25.550781 -20.546875 26.546875 -18.414062 27.890625 -17.0625 C 29.242188 -15.71875 30.785156 -15.046875 32.515625 -15.046875 C 35.535156 -15.046875 38.878906 -16.878906 42.546875 -20.546875 C 44.054688 -21.941406 45.132812 -23.097656 45.78125 -24.015625 C 46.425781 -24.929688 47.289062 -25.984375 48.375 -27.171875 C 49.125 -28.253906 50.09375 -28.796875 51.28125 -28.796875 C 52.46875 -28.796875 52.976562 -27.796875 52.8125 -25.796875 C 52.65625 -23.804688 50.523438 -20.816406 46.421875 -16.828125 L 41.578125 -12.9375 C 38.441406 -10.78125 35.421875 -9.703125 32.515625 -9.703125 C 29.816406 -9.703125 27.46875 -10.507812 25.46875 -12.125 C 23.476562 -13.75 21.941406 -15.742188 20.859375 -18.109375 C 19.785156 -20.484375 19.25 -22.804688 19.25 -25.078125 C 18.5 -24.535156 17.632812 -23.347656 16.65625 -21.515625 C 15.6875 -19.679688 14.632812 -17.710938 13.5 -15.609375 C 12.375 -13.503906 11.21875 -11.671875 10.03125 -10.109375 C 8.84375 -8.546875 7.65625 -7.765625 6.46875 -7.765625 C 3.445312 -7.765625 1.613281 -8.460938 0.96875 -9.859375 C 0.320312 -11.265625 0 -13.425781 0 -16.34375 Z M 0 -16.34375 "/></g></g></g><g fill="#504081" fill-opacity="1"><g transform="translate(871.774488, 172.499989)"><g><path d="M 0 -12.296875 C 0 -20.054688 0.1875 -27.816406 0.5625 -35.578125 C 0.9375 -43.347656 1.453125 -50.847656 2.109375 -58.078125 C 2.210938 -58.828125 2.425781 -60.601562 2.75 -63.40625 C 3.070312 -66.21875 3.503906 -69.484375 4.046875 -73.203125 C 4.585938 -76.921875 5.234375 -80.554688 5.984375 -84.109375 C 6.742188 -87.671875 7.609375 -90.640625 8.578125 -93.015625 C 9.546875 -95.390625 10.566406 -96.578125 11.640625 -96.578125 C 13.796875 -96.578125 15.035156 -96.007812 15.359375 -94.875 C 15.691406 -93.738281 15.585938 -92.203125 15.046875 -90.265625 C 14.503906 -88.328125 14.019531 -86.113281 13.59375 -83.625 C 12.1875 -75.644531 10.914062 -67.019531 9.78125 -57.75 C 8.65625 -48.476562 7.796875 -39.257812 7.203125 -30.09375 C 6.609375 -20.925781 6.3125 -12.515625 6.3125 -4.859375 C 6.519531 -5.066406 7.164062 -6.222656 8.25 -8.328125 C 9.332031 -10.429688 10.707031 -13.097656 12.375 -16.328125 C 14.039062 -19.566406 15.84375 -22.992188 17.78125 -26.609375 C 19.726562 -30.222656 21.671875 -33.617188 23.609375 -36.796875 C 25.554688 -39.984375 27.3125 -42.570312 28.875 -44.5625 C 30.4375 -46.5625 31.648438 -47.5625 32.515625 -47.5625 C 34.890625 -47.5625 35.941406 -46.992188 35.671875 -45.859375 C 35.398438 -44.722656 34.507812 -43.1875 33 -41.25 C 31.488281 -39.3125 29.925781 -36.992188 28.3125 -34.296875 C 27.875 -33.648438 27.46875 -33.03125 27.09375 -32.4375 C 26.71875 -31.84375 26.3125 -31.222656 25.875 -30.578125 C 24.90625 -28.953125 24.257812 -27.679688 23.9375 -26.765625 C 23.613281 -25.847656 23.476562 -24.71875 23.53125 -23.375 C 23.59375 -22.03125 23.785156 -19.789062 24.109375 -16.65625 C 24.316406 -14.394531 24.769531 -11.507812 25.46875 -8 C 26.175781 -4.5 27.015625 -1 27.984375 2.5 C 28.953125 6.007812 29.816406 8.84375 30.578125 11 C 31.441406 13.050781 32.195312 14.5625 32.84375 15.53125 C 33.488281 16.5 33.914062 17.523438 34.125 18.609375 C 33.695312 19.035156 33.265625 19.488281 32.828125 19.96875 C 32.398438 20.457031 31.863281 20.703125 31.21875 20.703125 C 31 20.703125 30.566406 20.59375 29.921875 20.375 C 28.628906 19.726562 27.523438 18.597656 26.609375 16.984375 C 25.691406 15.367188 24.9375 13.644531 24.34375 11.8125 C 23.75 9.976562 23.238281 8.414062 22.8125 7.125 C 21.625 3.5625 20.648438 -0.078125 19.890625 -3.796875 C 19.140625 -7.515625 18.332031 -11.207031 17.46875 -14.875 L 10.359375 0.640625 C 9.597656 3.015625 8.921875 5.46875 8.328125 8 C 7.734375 10.539062 7.085938 12.671875 6.390625 14.390625 C 5.691406 16.117188 4.800781 16.984375 3.71875 16.984375 C 2.320312 16.984375 1.429688 16.46875 1.046875 15.4375 C 0.671875 14.414062 0.507812 13.148438 0.5625 11.640625 C 0.613281 10.128906 0.585938 8.726562 0.484375 7.4375 C 0.378906 6.25 0.269531 5.332031 0.15625 4.6875 C 0.0507812 4.039062 0 2.960938 0 1.453125 Z M 0 -12.296875 "/></g></g></g><g fill="#504081" fill-opacity="1"><g transform="translate(908.492625, 172.499989)"><g><path d="M 8.578125 -13.109375 C 6.304688 -13.109375 4.710938 -14.238281 3.796875 -16.5 C 2.878906 -18.757812 2.472656 -21.5625 2.578125 -24.90625 C 2.691406 -28.25 3.125 -31.59375 3.875 -34.9375 C 4.632812 -38.28125 5.578125 -41.082031 6.703125 -43.34375 C 7.835938 -45.613281 9 -46.75 10.1875 -46.75 C 12.238281 -46.75 13.453125 -46.289062 13.828125 -45.375 C 14.203125 -44.457031 14.117188 -43.023438 13.578125 -41.078125 C 13.046875 -39.140625 12.425781 -36.6875 11.71875 -33.71875 C 11.019531 -30.757812 10.671875 -27.226562 10.671875 -23.125 C 10.890625 -23.34375 11.050781 -23.503906 11.15625 -23.609375 C 11.269531 -23.722656 11.378906 -23.832031 11.484375 -23.9375 L 19.09375 -36.71875 C 19.738281 -37.800781 20.625 -39.226562 21.75 -41 C 22.882812 -42.78125 24.125 -44.398438 25.46875 -45.859375 C 26.820312 -47.316406 28.144531 -48.046875 29.4375 -48.046875 C 31.914062 -48.046875 33.53125 -46.773438 34.28125 -44.234375 C 35.039062 -41.703125 35.421875 -39.144531 35.421875 -36.5625 C 36.609375 -36.769531 38.0625 -37.765625 39.78125 -39.546875 C 41.507812 -41.328125 43.078125 -42.863281 44.484375 -44.15625 C 45.242188 -45.019531 45.914062 -45.773438 46.5 -46.421875 C 47.09375 -47.066406 47.820312 -47.609375 48.6875 -48.046875 C 49.769531 -48.585938 50.742188 -48.859375 51.609375 -48.859375 C 52.679688 -48.859375 53.597656 -48.425781 54.359375 -47.5625 C 55.109375 -46.695312 55.535156 -45.101562 55.640625 -42.78125 C 55.753906 -40.46875 55.703125 -37.800781 55.484375 -34.78125 C 55.265625 -31.757812 55.019531 -28.738281 54.75 -25.71875 C 54.488281 -22.695312 54.359375 -20.054688 54.359375 -17.796875 C 54.359375 -12.835938 54.757812 -9.359375 55.5625 -7.359375 C 56.375 -5.367188 57.476562 -4.375 58.875 -4.375 C 60.5 -4.375 62.304688 -5.453125 64.296875 -7.609375 C 66.296875 -9.765625 68.289062 -12.296875 70.28125 -15.203125 C 72.28125 -18.117188 73.976562 -20.757812 75.375 -23.125 C 76.132812 -24.3125 76.863281 -25.5 77.5625 -26.6875 C 78.269531 -27.875 79.484375 -28.46875 81.203125 -28.46875 C 81.523438 -28.46875 81.875 -28.25 82.25 -27.8125 C 82.632812 -27.382812 82.828125 -26.90625 82.828125 -26.375 C 82.828125 -25.71875 82.5 -24.796875 81.84375 -23.609375 C 81.195312 -22.429688 80.523438 -21.273438 79.828125 -20.140625 C 79.128906 -19.003906 78.5625 -18.113281 78.125 -17.46875 C 77.695312 -16.71875 77.320312 -16.070312 77 -15.53125 C 76.675781 -14.988281 76.242188 -14.285156 75.703125 -13.421875 C 75.273438 -12.773438 74.84375 -12.207031 74.40625 -11.71875 C 73.976562 -11.238281 73.492188 -10.566406 72.953125 -9.703125 C 70.898438 -6.679688 68.445312 -4.035156 65.59375 -1.765625 C 62.738281 0.492188 59.960938 1.625 57.265625 1.625 C 55.753906 1.625 54.296875 1.132812 52.890625 0.15625 C 51.492188 -0.8125 50.363281 -2.484375 49.5 -4.859375 C 47.988281 -8.847656 47.257812 -13.050781 47.3125 -17.46875 C 47.363281 -21.894531 47.710938 -26.207031 48.359375 -30.40625 C 49.015625 -34.613281 49.34375 -38.28125 49.34375 -41.40625 C 48.257812 -40.65625 46.9375 -39.414062 45.375 -37.6875 C 43.8125 -35.96875 42.21875 -34.378906 40.59375 -32.921875 C 38.976562 -31.460938 37.414062 -30.734375 35.90625 -30.734375 C 33.425781 -30.734375 31.726562 -31.921875 30.8125 -34.296875 C 29.894531 -36.671875 29.4375 -39.039062 29.4375 -41.40625 C 27.601562 -40.21875 25.847656 -38.113281 24.171875 -35.09375 C 22.503906 -32.082031 20.832031 -28.90625 19.15625 -25.5625 C 17.488281 -22.21875 15.816406 -19.332031 14.140625 -16.90625 C 12.472656 -14.476562 10.722656 -13.210938 8.890625 -13.109375 Z M 8.578125 -13.109375 "/></g></g></g><g fill="#504081" fill-opacity="1"><g transform="translate(984.031683, 172.499989)"><g><path d="M 0 -16.34375 C 0 -18.601562 0.535156 -21.40625 1.609375 -24.75 C 2.691406 -28.09375 4.203125 -31.40625 6.140625 -34.6875 C 8.085938 -37.976562 10.328125 -40.703125 12.859375 -42.859375 C 15.390625 -45.023438 18.0625 -46.109375 20.875 -46.109375 C 23.457031 -46.109375 25.554688 -45.351562 27.171875 -43.84375 C 28.796875 -42.332031 29.769531 -40.789062 30.09375 -39.21875 C 30.414062 -37.65625 29.875 -36.875 28.46875 -36.875 C 27.394531 -36.875 26.289062 -37.492188 25.15625 -38.734375 C 24.019531 -39.984375 22.695312 -40.609375 21.1875 -40.609375 C 20 -40.609375 18.566406 -39.90625 16.890625 -38.5 C 15.222656 -37.09375 13.207031 -34.34375 10.84375 -30.25 C 9.757812 -28.519531 8.757812 -26.28125 7.84375 -23.53125 C 6.925781 -20.78125 6.46875 -18.0625 6.46875 -15.375 C 6.6875 -15.582031 6.765625 -15.660156 6.703125 -15.609375 C 6.648438 -15.554688 6.84375 -15.742188 7.28125 -16.171875 L 8.578125 -18.125 C 9.441406 -19.414062 10.4375 -21.082031 11.5625 -23.125 C 12.695312 -25.175781 13.859375 -27.253906 15.046875 -29.359375 C 16.234375 -31.460938 17.3125 -33.238281 18.28125 -34.6875 C 19.25 -36.144531 20.003906 -36.875 20.546875 -36.875 C 22.484375 -36.875 23.613281 -36.171875 23.9375 -34.765625 C 24.257812 -33.367188 24.394531 -31.644531 24.34375 -29.59375 C 24.289062 -27.550781 24.476562 -25.503906 24.90625 -23.453125 C 25.550781 -20.546875 26.546875 -18.414062 27.890625 -17.0625 C 29.242188 -15.71875 30.785156 -15.046875 32.515625 -15.046875 C 35.535156 -15.046875 38.878906 -16.878906 42.546875 -20.546875 C 44.054688 -21.941406 45.132812 -23.097656 45.78125 -24.015625 C 46.425781 -24.929688 47.289062 -25.984375 48.375 -27.171875 C 49.125 -28.253906 50.09375 -28.796875 51.28125 -28.796875 C 52.46875 -28.796875 52.976562 -27.796875 52.8125 -25.796875 C 52.65625 -23.804688 50.523438 -20.816406 46.421875 -16.828125 L 41.578125 -12.9375 C 38.441406 -10.78125 35.421875 -9.703125 32.515625 -9.703125 C 29.816406 -9.703125 27.46875 -10.507812 25.46875 -12.125 C 23.476562 -13.75 21.941406 -15.742188 20.859375 -18.109375 C 19.785156 -20.484375 19.25 -22.804688 19.25 -25.078125 C 18.5 -24.535156 17.632812 -23.347656 16.65625 -21.515625 C 15.6875 -19.679688 14.632812 -17.710938 13.5 -15.609375 C 12.375 -13.503906 11.21875 -11.671875 10.03125 -10.109375 C 8.84375 -8.546875 7.65625 -7.765625 6.46875 -7.765625 C 3.445312 -7.765625 1.613281 -8.460938 0.96875 -9.859375 C 0.320312 -11.265625 0 -13.425781 0 -16.34375 Z M 0 -16.34375 "/></g></g></g><g fill="#504081" fill-opacity="1"><g transform="translate(1030.94028, 172.499989)"><g><path d="M 0 -12.296875 C 0 -20.054688 0.1875 -27.816406 0.5625 -35.578125 C 0.9375 -43.347656 1.453125 -50.847656 2.109375 -58.078125 C 2.210938 -58.828125 2.425781 -60.601562 2.75 -63.40625 C 3.070312 -66.21875 3.503906 -69.484375 4.046875 -73.203125 C 4.585938 -76.921875 5.234375 -80.554688 5.984375 -84.109375 C 6.742188 -87.671875 7.609375 -90.640625 8.578125 -93.015625 C 9.546875 -95.390625 10.566406 -96.578125 11.640625 -96.578125 C 13.796875 -96.578125 15.035156 -96.007812 15.359375 -94.875 C 15.691406 -93.738281 15.585938 -92.203125 15.046875 -90.265625 C 14.503906 -88.328125 14.019531 -86.113281 13.59375 -83.625 C 12.1875 -75.644531 10.914062 -67.019531 9.78125 -57.75 C 8.65625 -48.476562 7.796875 -39.257812 7.203125 -30.09375 C 6.609375 -20.925781 6.3125 -12.515625 6.3125 -4.859375 C 6.519531 -5.066406 7.164062 -6.222656 8.25 -8.328125 C 9.332031 -10.429688 10.707031 -13.097656 12.375 -16.328125 C 14.039062 -19.566406 15.84375 -22.992188 17.78125 -26.609375 C 19.726562 -30.222656 21.671875 -33.617188 23.609375 -36.796875 C 25.554688 -39.984375 27.3125 -42.570312 28.875 -44.5625 C 30.4375 -46.5625 31.648438 -47.5625 32.515625 -47.5625 C 34.890625 -47.5625 35.941406 -46.992188 35.671875 -45.859375 C 35.398438 -44.722656 34.507812 -43.1875 33 -41.25 C 31.488281 -39.3125 29.925781 -36.992188 28.3125 -34.296875 C 27.875 -33.648438 27.46875 -33.03125 27.09375 -32.4375 C 26.71875 -31.84375 26.3125 -31.222656 25.875 -30.578125 C 24.90625 -28.953125 24.257812 -27.679688 23.9375 -26.765625 C 23.613281 -25.847656 23.476562 -24.71875 23.53125 -23.375 C 23.59375 -22.03125 23.785156 -19.789062 24.109375 -16.65625 C 24.316406 -14.394531 24.769531 -11.507812 25.46875 -8 C 26.175781 -4.5 27.015625 -1 27.984375 2.5 C 28.953125 6.007812 29.816406 8.84375 30.578125 11 C 31.441406 13.050781 32.195312 14.5625 32.84375 15.53125 C 33.488281 16.5 33.914062 17.523438 34.125 18.609375 C 33.695312 19.035156 33.265625 19.488281 32.828125 19.96875 C 32.398438 20.457031 31.863281 20.703125 31.21875 20.703125 C 31 20.703125 30.566406 20.59375 29.921875 20.375 C 28.628906 19.726562 27.523438 18.597656 26.609375 16.984375 C 25.691406 15.367188 24.9375 13.644531 24.34375 11.8125 C 23.75 9.976562 23.238281 8.414062 22.8125 7.125 C 21.625 3.5625 20.648438 -0.078125 19.890625 -3.796875 C 19.140625 -7.515625 18.332031 -11.207031 17.46875 -14.875 L 10.359375 0.640625 C 9.597656 3.015625 8.921875 5.46875 8.328125 8 C 7.734375 10.539062 7.085938 12.671875 6.390625 14.390625 C 5.691406 16.117188 4.800781 16.984375 3.71875 16.984375 C 2.320312 16.984375 1.429688 16.46875 1.046875 15.4375 C 0.671875 14.414062 0.507812 13.148438 0.5625 11.640625 C 0.613281 10.128906 0.585938 8.726562 0.484375 7.4375 C 0.378906 6.25 0.269531 5.332031 0.15625 4.6875 C 0.0507812 4.039062 0 2.960938 0 1.453125 Z M 0 -12.296875 "/></g></g></g><path stroke-linecap="butt" transform="matrix(0.75, 0, 0, 0.75, 1081.354287, 36.581167)" fill="none" stroke-linejoin="miter" d="M 21.829702 201.376166 C 18.413035 201.376166 15.652618 200.292832 13.538035 198.126165 C 11.454701 195.959498 10.413034 193.277207 10.413034 190.084498 C 10.413034 186.808456 11.454701 184.141789 13.538035 182.084498 C 15.652618 180.032414 18.413035 179.001164 21.829702 179.001164 C 25.355744 179.001164 28.178661 180.032414 30.288036 182.084498 C 32.397411 184.141789 33.454703 186.808456 33.454703 190.084498 C 33.454703 193.277207 32.397411 195.959498 30.288036 198.126165 C 28.178661 200.292832 25.355744 201.376166 21.829702 201.376166 Z M 21.829702 201.376166 " stroke="#504081" stroke-width="4.052866" stroke-opacity="1" stroke-miterlimit="4"/><g fill="#fef74b" fill-opacity="1"><g transform="translate(1081.354287, 186.581157)"><g><path d="M 16.375 1.03125 C 13.820312 1.03125 11.753906 0.21875 10.171875 -1.40625 C 8.597656 -3.03125 7.8125 -5.035156 7.8125 -7.421875 C 7.8125 -9.898438 8.597656 -11.90625 10.171875 -13.4375 C 11.753906 -14.96875 13.820312 -15.734375 16.375 -15.734375 C 19.019531 -15.734375 21.128906 -14.96875 22.703125 -13.4375 C 24.285156 -11.90625 25.078125 -9.898438 25.078125 -7.421875 C 25.078125 -5.035156 24.285156 -3.03125 22.703125 -1.40625 C 21.128906 0.21875 19.019531 1.03125 16.375 1.03125 Z M 16.375 1.03125 "/></g></g></g></svg>