<svg xmlns="http://www.w3.org/2000/svg" width="17" height="16" viewBox="0 0 17 16" fill="none">
  <path d="M8.46701 0C10.5425 0 10.8015 0.00763884 11.6158 0.0458333C12.4293 0.0840277 12.9831 0.211597 13.4705 0.401042C13.9747 0.595069 14.3994 0.857847 14.8241 1.28181C15.2125 1.66367 15.5131 2.12559 15.7049 2.63542C15.8935 3.12201 16.0219 3.6766 16.0601 4.49014C16.096 5.30444 16.1059 5.5634 16.1059 7.63889C16.1059 9.71437 16.0983 9.97333 16.0601 10.7876C16.0219 11.6012 15.8935 12.155 15.7049 12.6424C15.5136 13.1525 15.213 13.6145 14.8241 13.996C14.4421 14.3843 13.9802 14.6848 13.4705 14.8767C12.9839 15.0654 12.4293 15.1937 11.6158 15.2319C10.8015 15.2678 10.5425 15.2778 8.46701 15.2778C6.39153 15.2778 6.13257 15.2701 5.31826 15.2319C4.50472 15.1937 3.9509 15.0654 3.46354 14.8767C2.95351 14.6854 2.49151 14.3847 2.10993 13.996C1.72142 13.6142 1.42085 13.1522 1.22917 12.6424C1.03972 12.1558 0.912153 11.6012 0.873958 10.7876C0.838056 9.97333 0.828125 9.71437 0.828125 7.63889C0.828125 5.5634 0.835764 5.30444 0.873958 4.49014C0.912153 3.67583 1.03972 3.12278 1.22917 2.63542C1.42032 2.12528 1.72096 1.66323 2.10993 1.28181C2.49162 0.893163 2.95359 0.592571 3.46354 0.401042C3.9509 0.211597 4.50396 0.0840277 5.31826 0.0458333C6.13257 0.00993051 6.39153 0 8.46701 0ZM8.46701 3.81944C7.45403 3.81944 6.48254 4.22185 5.76626 4.93813C5.04997 5.65442 4.64757 6.62591 4.64757 7.63889C4.64757 8.65187 5.04997 9.62336 5.76626 10.3396C6.48254 11.0559 7.45403 11.4583 8.46701 11.4583C9.47999 11.4583 10.4515 11.0559 11.1678 10.3396C11.8841 9.62336 12.2865 8.65187 12.2865 7.63889C12.2865 6.62591 11.8841 5.65442 11.1678 4.93813C10.4515 4.22185 9.47999 3.81944 8.46701 3.81944ZM13.4323 3.62847C13.4323 3.37523 13.3317 3.13235 13.1526 2.95328C12.9735 2.77421 12.7307 2.67361 12.4774 2.67361C12.2242 2.67361 11.9813 2.77421 11.8022 2.95328C11.6232 3.13235 11.5226 3.37523 11.5226 3.62847C11.5226 3.88172 11.6232 4.12459 11.8022 4.30366C11.9813 4.48273 12.2242 4.58333 12.4774 4.58333C12.7307 4.58333 12.9735 4.48273 13.1526 4.30366C13.3317 4.12459 13.4323 3.88172 13.4323 3.62847ZM8.46701 5.34722C9.0748 5.34722 9.6577 5.58866 10.0875 6.01844C10.5172 6.44821 10.7587 7.0311 10.7587 7.63889C10.7587 8.24668 10.5172 8.82957 10.0875 9.25934C9.6577 9.68911 9.0748 9.93056 8.46701 9.93056C7.85923 9.93056 7.27633 9.68911 6.84656 9.25934C6.41679 8.82957 6.17535 8.24668 6.17535 7.63889C6.17535 7.0311 6.41679 6.44821 6.84656 6.01844C7.27633 5.58866 7.85923 5.34722 8.46701 5.34722Z" fill="white"></path>
</svg>