<svg xmlns="http://www.w3.org/2000/svg" width="18" height="17" viewBox="0 0 18 17" fill="none">
  <path d="M16.3594 0C16.9902 0 17.5469 0.556641 17.5469 1.22461V15.4375C17.5469 16.1055 16.9902 16.625 16.3594 16.625H2.07227C1.44141 16.625 0.921875 16.1055 0.921875 15.4375V1.22461C0.921875 0.556641 1.44141 0 2.07227 0H16.3594ZM5.93164 14.25V6.3457H3.48242V14.25H5.93164ZM4.70703 5.23242C5.48633 5.23242 6.11719 4.60156 6.11719 3.82227C6.11719 3.04297 5.48633 2.375 4.70703 2.375C3.89062 2.375 3.25977 3.04297 3.25977 3.82227C3.25977 4.60156 3.89062 5.23242 4.70703 5.23242ZM15.1719 14.25V9.9082C15.1719 7.79297 14.6895 6.12305 12.2031 6.12305C11.0156 6.12305 10.1992 6.79102 9.86523 7.42188H9.82812V6.3457H7.49023V14.25H9.93945V10.3535C9.93945 9.31445 10.125 8.3125 11.4238 8.3125C12.6855 8.3125 12.6855 9.5 12.6855 10.3906V14.25H15.1719Z" fill="white"></path>
</svg>