<svg xmlns="http://www.w3.org/2000/svg" xmlns:xlink="http://www.w3.org/1999/xlink" width="1548" zoomAndPan="magnify" viewBox="0 0 1161 296.999993" height="396" preserveAspectRatio="xMidYMid meet" version="1.0"><defs><g/><clipPath id="ae78a9b7d3"><path d="M 544 42 L 575.960938 42 L 575.960938 95 L 544 95 Z M 544 42 " clip-rule="nonzero"/></clipPath><clipPath id="e5029256e2"><rect x="0" width="576" y="0" height="146"/></clipPath></defs><rect x="-116.1" width="1393.2" fill="#ffffff" y="-29.699999" height="356.399992" fill-opacity="1"/><rect x="-116.1" width="1393.2" fill="#504081" y="-29.699999" height="356.399992" fill-opacity="1"/><g transform="matrix(1, 0, 0, 1, 265, 76)"><g clip-path="url(#e5029256e2)"><g fill="#efe1ff" fill-opacity="1"><g transform="translate(1.21726, 83.578703)"><g><path d="M 31.40625 2.140625 C 31.914062 1.796875 32.425781 1.140625 32.9375 0.171875 C 33.445312 -0.796875 33.898438 -1.832031 34.296875 -2.9375 C 34.703125 -4.050781 35.019531 -4.945312 35.25 -5.625 C 36.894531 -9.84375 38.382812 -14.015625 39.71875 -18.140625 C 41.0625 -22.265625 42.585938 -26.488281 44.296875 -30.8125 C 44.578125 -31.550781 45.070312 -32.757812 45.78125 -34.4375 C 46.5 -36.113281 47.335938 -38.019531 48.296875 -40.15625 C 49.265625 -42.289062 50.332031 -44.453125 51.5 -46.640625 C 52.664062 -48.828125 53.859375 -50.859375 55.078125 -52.734375 C 56.304688 -54.617188 57.503906 -56.144531 58.671875 -57.3125 C 59.835938 -58.476562 60.90625 -59.0625 61.875 -59.0625 C 63.1875 -59.0625 64.15625 -58.421875 64.78125 -57.140625 C 65.40625 -55.859375 65.757812 -54.25 65.84375 -52.3125 C 65.925781 -50.382812 65.878906 -48.378906 65.703125 -46.296875 C 65.535156 -44.222656 65.335938 -42.375 65.109375 -40.75 C 64.890625 -39.125 64.722656 -38.03125 64.609375 -37.46875 L 59.3125 -2.21875 C 58.40625 4.09375 57.707031 10.265625 57.21875 16.296875 C 56.738281 22.328125 56.15625 28.414062 55.46875 34.5625 C 55.351562 36.101562 55.296875 37.78125 55.296875 39.59375 C 55.296875 41.414062 55.296875 43.125 55.296875 44.71875 C 55.296875 45.457031 55.164062 46.007812 54.90625 46.375 C 54.65625 46.75 54.390625 46.9375 54.109375 46.9375 C 53.765625 46.9375 53.4375 46.738281 53.125 46.34375 C 52.8125 45.945312 52.628906 45.40625 52.578125 44.71875 C 52.515625 43.976562 52.484375 43.421875 52.484375 43.046875 C 52.484375 42.679688 52.457031 42.242188 52.40625 41.734375 L 54.96875 3.671875 C 55.414062 0.0859375 55.820312 -3.222656 56.1875 -6.265625 C 56.5625 -9.316406 56.960938 -12.390625 57.390625 -15.484375 C 57.816406 -18.585938 58.34375 -22.019531 58.96875 -25.78125 C 59.144531 -26.738281 59.398438 -28.242188 59.734375 -30.296875 C 60.078125 -32.347656 60.445312 -34.648438 60.84375 -37.203125 C 61.25 -39.765625 61.609375 -42.328125 61.921875 -44.890625 C 62.234375 -47.453125 62.398438 -49.726562 62.421875 -51.71875 C 62.453125 -53.707031 62.269531 -55.128906 61.875 -55.984375 C 60.789062 -55.410156 59.78125 -54.515625 58.84375 -53.296875 C 57.90625 -52.078125 57.125 -50.894531 56.5 -49.75 C 55.363281 -47.875 54.378906 -46.15625 53.546875 -44.59375 C 52.722656 -43.03125 51.941406 -41.453125 51.203125 -39.859375 C 50.460938 -38.265625 49.640625 -36.441406 48.734375 -34.390625 C 47.304688 -31.265625 46.164062 -28.421875 45.3125 -25.859375 C 44.457031 -23.296875 43.460938 -20.59375 42.328125 -17.75 C 42.046875 -17.007812 41.632812 -15.742188 41.09375 -13.953125 C 40.550781 -12.160156 39.910156 -10.164062 39.171875 -7.96875 C 38.429688 -5.78125 37.632812 -3.675781 36.78125 -1.65625 C 35.925781 0.351562 35.039062 2.023438 34.125 3.359375 C 33.21875 4.703125 32.3125 5.375 31.40625 5.375 C 30.5 5.375 29.785156 4.875 29.265625 3.875 C 28.753906 2.882812 28.398438 1.648438 28.203125 0.171875 C 28.003906 -1.304688 27.90625 -2.785156 27.90625 -4.265625 C 27.90625 -5.742188 27.9375 -6.941406 28 -7.859375 L 29.265625 -24.921875 C 29.265625 -25.265625 29.238281 -25.648438 29.1875 -26.078125 C 29.132812 -26.503906 29.109375 -27.03125 29.109375 -27.65625 C 28.585938 -27.539062 28.269531 -27.394531 28.15625 -27.21875 C 28.050781 -27.050781 27.851562 -26.769531 27.5625 -26.375 C 26.375 -24.78125 25.25 -22.828125 24.1875 -20.515625 C 23.132812 -18.210938 22.15625 -15.765625 21.25 -13.171875 C 20.34375 -10.585938 19.546875 -8.070312 18.859375 -5.625 C 18.179688 -3.1875 17.613281 -1.054688 17.15625 0.765625 C 16.46875 3.441406 15.796875 6.160156 15.140625 8.921875 C 14.492188 11.679688 13.800781 14.3125 13.0625 16.8125 C 12.601562 18.75 12.0625 20.65625 11.4375 22.53125 C 10.8125 24.40625 10.097656 26.28125 9.296875 28.15625 C 8.898438 28.84375 8.515625 29.382812 8.140625 29.78125 C 7.773438 30.175781 7.164062 30.375 6.3125 30.375 C 5.34375 30.375 4.515625 29.648438 3.828125 28.203125 C 3.148438 26.753906 2.613281 24.890625 2.21875 22.609375 C 1.820312 20.335938 1.523438 17.960938 1.328125 15.484375 C 1.128906 13.015625 1 10.710938 0.9375 8.578125 C 0.882812 6.441406 0.859375 4.832031 0.859375 3.75 L 1.703125 -13.484375 C 1.992188 -16.160156 2.304688 -18.820312 2.640625 -21.46875 C 2.984375 -24.113281 3.351562 -26.742188 3.75 -29.359375 C 3.8125 -29.640625 3.953125 -30.503906 4.171875 -31.953125 C 4.398438 -33.410156 4.726562 -35.191406 5.15625 -37.296875 C 5.582031 -39.398438 6.050781 -41.601562 6.5625 -43.90625 C 7.082031 -46.207031 7.625 -48.367188 8.1875 -50.390625 C 8.757812 -52.410156 9.34375 -54.046875 9.9375 -55.296875 C 10.539062 -56.554688 11.125 -57.1875 11.6875 -57.1875 C 12.488281 -57.1875 12.929688 -56.898438 13.015625 -56.328125 C 13.097656 -55.753906 13.023438 -55.082031 12.796875 -54.3125 C 12.566406 -53.550781 12.367188 -52.882812 12.203125 -52.3125 C 11.296875 -49.070312 10.554688 -46.128906 9.984375 -43.484375 C 9.410156 -40.835938 8.882812 -38.160156 8.40625 -35.453125 C 7.925781 -32.753906 7.425781 -29.671875 6.90625 -26.203125 C 6.457031 -23.066406 6.03125 -19.421875 5.625 -15.265625 C 5.226562 -11.117188 4.898438 -6.753906 4.640625 -2.171875 C 4.390625 2.398438 4.320312 6.847656 4.4375 11.171875 C 4.550781 15.503906 4.894531 19.40625 5.46875 22.875 L 6.3125 27.046875 C 6.769531 26.941406 7.054688 26.757812 7.171875 26.5 C 7.285156 26.238281 7.457031 25.882812 7.6875 25.4375 L 9.734375 19.28125 C 11.035156 14.625 12.3125 9.789062 13.5625 4.78125 C 14.820312 -0.226562 16.203125 -5.132812 17.703125 -9.9375 C 19.210938 -14.75 20.960938 -19.203125 22.953125 -23.296875 C 23.523438 -24.378906 24.191406 -25.617188 24.953125 -27.015625 C 25.722656 -28.410156 26.566406 -29.390625 27.484375 -29.953125 C 27.992188 -30.296875 28.5625 -30.46875 29.1875 -30.46875 C 30.15625 -30.46875 30.8125 -30.066406 31.15625 -29.265625 C 31.601562 -28.472656 31.851562 -27.023438 31.90625 -24.921875 C 31.96875 -22.816406 31.910156 -20.453125 31.734375 -17.828125 C 31.566406 -15.210938 31.398438 -12.679688 31.234375 -10.234375 C 31.066406 -7.796875 30.984375 -5.835938 30.984375 -4.359375 C 30.984375 -2.648438 31.050781 -1.367188 31.1875 -0.515625 C 31.332031 0.335938 31.40625 1.222656 31.40625 2.140625 Z M 31.40625 2.140625 "/></g></g></g><g fill="#efe1ff" fill-opacity="1"><g transform="translate(66.498148, 83.578703)"><g><path d="M 0.078125 -10.40625 C 0.078125 -11.664062 0.257812 -13.0625 0.625 -14.59375 C 1 -16.125 1.484375 -17.613281 2.078125 -19.0625 C 2.679688 -20.519531 3.328125 -21.703125 4.015625 -22.609375 C 4.640625 -23.296875 5.265625 -23.640625 5.890625 -23.640625 C 6.398438 -23.640625 6.910156 -23.5 7.421875 -23.21875 C 7.484375 -22.925781 7.554688 -22.722656 7.640625 -22.609375 C 7.722656 -22.503906 7.765625 -22.25 7.765625 -21.84375 C 7.765625 -21.789062 7.507812 -21.25 7 -20.21875 C 6.488281 -19.195312 5.929688 -17.914062 5.328125 -16.375 C 4.734375 -14.84375 4.25 -13.222656 3.875 -11.515625 C 3.507812 -9.816406 3.5 -8.253906 3.84375 -6.828125 C 4.519531 -7.054688 5.113281 -7.492188 5.625 -8.140625 C 6.144531 -8.796875 6.601562 -9.410156 7 -9.984375 L 12.125 -17.5 C 12.6875 -18.289062 13.164062 -18.984375 13.5625 -19.578125 C 13.96875 -20.179688 14.566406 -20.484375 15.359375 -20.484375 C 16.160156 -20.484375 16.628906 -19.984375 16.765625 -18.984375 C 16.910156 -17.992188 16.941406 -16.867188 16.859375 -15.609375 C 16.773438 -14.359375 16.757812 -13.363281 16.8125 -12.625 C 17.09375 -10.582031 17.53125 -9.144531 18.125 -8.3125 C 18.726562 -7.488281 19.425781 -7.078125 20.21875 -7.078125 C 21.1875 -7.078125 22.210938 -7.472656 23.296875 -8.265625 C 24.378906 -9.066406 25.457031 -9.992188 26.53125 -11.046875 C 27.613281 -12.097656 28.566406 -13.019531 29.390625 -13.8125 C 30.222656 -14.613281 30.835938 -15.015625 31.234375 -15.015625 C 31.578125 -15.015625 31.890625 -14.941406 32.171875 -14.796875 C 32.453125 -14.660156 32.59375 -14.363281 32.59375 -13.90625 C 32.59375 -13.457031 32.25 -12.847656 31.5625 -12.078125 C 30.882812 -11.304688 30.144531 -10.566406 29.34375 -9.859375 C 28.550781 -9.148438 27.988281 -8.625 27.65625 -8.28125 C 26.507812 -7.195312 25.269531 -6.269531 23.9375 -5.5 C 22.601562 -4.738281 21.28125 -4.359375 19.96875 -4.359375 C 18.550781 -4.359375 17.441406 -4.738281 16.640625 -5.5 C 15.847656 -6.269531 15.265625 -7.238281 14.890625 -8.40625 C 14.523438 -9.570312 14.285156 -10.796875 14.171875 -12.078125 C 14.054688 -13.359375 14 -14.507812 14 -15.53125 C 13.65625 -15.300781 13.238281 -14.800781 12.75 -14.03125 C 12.269531 -13.269531 11.890625 -12.660156 11.609375 -12.203125 C 11.265625 -11.628906 10.78125 -10.84375 10.15625 -9.84375 C 9.53125 -8.851562 8.832031 -7.859375 8.0625 -6.859375 C 7.289062 -5.867188 6.519531 -5.03125 5.75 -4.34375 C 4.988281 -3.664062 4.265625 -3.328125 3.578125 -3.328125 C 2.273438 -3.328125 1.378906 -3.707031 0.890625 -4.46875 C 0.410156 -5.238281 0.15625 -6.179688 0.125 -7.296875 C 0.09375 -8.410156 0.078125 -9.445312 0.078125 -10.40625 Z M 0.078125 -10.40625 "/></g></g></g><g fill="#efe1ff" fill-opacity="1"><g transform="translate(95.341209, 83.578703)"><g><path d="M 1.03125 14.078125 C 1.03125 15.273438 1.398438 15.875 2.140625 15.875 C 2.535156 15.875 2.957031 15.726562 3.40625 15.4375 C 3.863281 15.15625 4.234375 14.898438 4.515625 14.671875 C 5.660156 13.828125 6.671875 12.535156 7.546875 10.796875 C 8.429688 9.054688 9.070312 7.476562 9.46875 6.0625 C 9.757812 5.09375 9.914062 4.109375 9.9375 3.109375 C 9.96875 2.117188 9.984375 1.023438 9.984375 -0.171875 C 9.304688 0.222656 8.523438 0.914062 7.640625 1.90625 C 6.753906 2.90625 6.054688 3.722656 5.546875 4.359375 C 4.523438 5.609375 3.515625 7.113281 2.515625 8.875 C 1.523438 10.632812 1.03125 12.367188 1.03125 14.078125 Z M 0.25 -13.828125 C 0.25 -15.304688 0.644531 -16.628906 1.4375 -17.796875 C 2.238281 -18.960938 3.191406 -19.898438 4.296875 -20.609375 C 5.410156 -21.316406 6.367188 -21.671875 7.171875 -21.671875 C 7.796875 -21.671875 8.265625 -21.441406 8.578125 -20.984375 C 8.890625 -20.535156 8.90625 -19.769531 8.625 -18.6875 C 7.9375 -18.519531 7.445312 -18.421875 7.15625 -18.390625 C 6.875 -18.359375 6.648438 -18.269531 6.484375 -18.125 C 6.316406 -17.988281 6.003906 -17.664062 5.546875 -17.15625 C 4.410156 -15.90625 3.882812 -14.894531 3.96875 -14.125 C 4.050781 -13.351562 4.503906 -12.640625 5.328125 -11.984375 C 6.160156 -11.335938 7.1875 -10.53125 8.40625 -9.5625 C 9.625 -8.59375 10.773438 -7.28125 11.859375 -5.625 C 13.109375 -6.476562 14.390625 -7.476562 15.703125 -8.625 L 23.640625 -14.171875 C 24.378906 -14.679688 25.019531 -15.035156 25.5625 -15.234375 C 26.101562 -15.429688 26.570312 -15.53125 26.96875 -15.53125 C 27.65625 -15.53125 27.941406 -15.242188 27.828125 -14.671875 C 27.710938 -14.109375 27.171875 -13.539062 26.203125 -12.96875 L 20.390625 -8.96875 C 20.171875 -8.851562 19.691406 -8.523438 18.953125 -7.984375 C 18.210938 -7.441406 17.398438 -6.84375 16.515625 -6.1875 C 15.628906 -5.53125 14.875 -4.914062 14.25 -4.34375 C 13.625 -3.78125 13.285156 -3.414062 13.234375 -3.25 C 13.171875 -2.957031 13.253906 -2.410156 13.484375 -1.609375 C 13.710938 -0.816406 13.867188 0.210938 13.953125 1.484375 C 14.035156 2.765625 13.863281 4.332031 13.4375 6.1875 C 13.007812 8.039062 12.085938 10.1875 10.671875 12.625 C 9.421875 14.726562 8.054688 16.28125 6.578125 17.28125 C 5.097656 18.28125 3.703125 18.78125 2.390625 18.78125 C 1.191406 18.78125 0.210938 18.378906 -0.546875 17.578125 C -1.316406 16.785156 -1.703125 15.617188 -1.703125 14.078125 C -1.703125 12.148438 -1.234375 10.273438 -0.296875 8.453125 C 0.640625 6.628906 1.757812 4.945312 3.0625 3.40625 C 4.375 1.875 5.582031 0.554688 6.6875 -0.546875 C 7.800781 -1.660156 8.53125 -2.472656 8.875 -2.984375 C 8.195312 -4.179688 7.375 -5.21875 6.40625 -6.09375 C 5.4375 -6.976562 4.484375 -7.789062 3.546875 -8.53125 C 2.609375 -9.269531 1.820312 -10.050781 1.1875 -10.875 C 0.5625 -11.707031 0.25 -12.691406 0.25 -13.828125 Z M 0.25 -13.828125 "/></g></g></g><g fill="#efe1ff" fill-opacity="1"><g transform="translate(120.00288, 83.578703)"><g><path d="M 0.171875 -6.578125 C 0.171875 -9.421875 0.335938 -12.488281 0.671875 -15.78125 C 1.015625 -19.082031 1.472656 -22.351562 2.046875 -25.59375 C 2.617188 -28.84375 3.242188 -31.773438 3.921875 -34.390625 C 4.210938 -35.242188 4.5 -36.195312 4.78125 -37.25 C 5.0625 -38.300781 5.429688 -39.210938 5.890625 -39.984375 C 6.347656 -40.753906 6.945312 -41.140625 7.6875 -41.140625 C 8.363281 -41.140625 8.785156 -40.878906 8.953125 -40.359375 C 9.128906 -39.847656 9.144531 -39.238281 9 -38.53125 C 8.863281 -37.820312 8.679688 -37.164062 8.453125 -36.5625 C 8.222656 -35.96875 8.078125 -35.554688 8.015625 -35.328125 C 7.566406 -33.617188 7.039062 -31.300781 6.4375 -28.375 C 5.84375 -25.445312 5.273438 -22.242188 4.734375 -18.765625 C 4.191406 -15.296875 3.78125 -11.851562 3.5 -8.4375 C 3.21875 -5.03125 3.160156 -1.945312 3.328125 0.8125 C 3.492188 3.570312 3.945312 5.691406 4.6875 7.171875 C 5.65625 6.660156 6.453125 5.890625 7.078125 4.859375 C 7.703125 3.835938 8.242188 2.84375 8.703125 1.875 C 10.015625 -0.625 11.296875 -3.265625 12.546875 -6.046875 C 13.796875 -8.835938 15.101562 -11.457031 16.46875 -13.90625 C 16.925781 -14.820312 17.410156 -15.28125 17.921875 -15.28125 C 18.148438 -15.28125 18.332031 -15.175781 18.46875 -14.96875 C 18.613281 -14.769531 18.6875 -14.5625 18.6875 -14.34375 C 18.6875 -14.164062 18.457031 -13.617188 18 -12.703125 C 17.550781 -11.796875 17.082031 -10.859375 16.59375 -9.890625 C 16.113281 -8.929688 15.789062 -8.304688 15.625 -8.015625 C 15.050781 -6.828125 14.40625 -5.4375 13.6875 -3.84375 C 12.976562 -2.25 12.28125 -0.6875 11.59375 0.84375 C 10.914062 2.382812 10.265625 3.695312 9.640625 4.78125 C 9.359375 5.238281 8.972656 5.847656 8.484375 6.609375 C 8.003906 7.378906 7.476562 8.046875 6.90625 8.609375 C 6.34375 9.179688 5.691406 9.46875 4.953125 9.46875 C 3.816406 9.46875 2.921875 8.898438 2.265625 7.765625 C 1.609375 6.628906 1.132812 5.207031 0.84375 3.5 C 0.5625 1.789062 0.378906 0.03125 0.296875 -1.78125 C 0.210938 -3.601562 0.171875 -5.203125 0.171875 -6.578125 Z M 0.171875 -6.578125 "/></g></g></g><g fill="#efe1ff" fill-opacity="1"><g transform="translate(135.021746, 83.578703)"><g><path d="M 7.078125 0.34375 C 5.941406 0.34375 4.929688 -0.0234375 4.046875 -0.765625 C 3.171875 -1.503906 2.503906 -2.273438 2.046875 -3.078125 C 1.023438 -5.003906 0.441406 -7.289062 0.296875 -9.9375 C 0.148438 -12.582031 0.304688 -14.988281 0.765625 -17.15625 C 0.878906 -17.78125 1.035156 -18.53125 1.234375 -19.40625 C 1.429688 -20.289062 1.726562 -21.070312 2.125 -21.75 C 2.53125 -22.4375 3.015625 -22.78125 3.578125 -22.78125 C 4.890625 -22.78125 5.53125 -22.335938 5.5 -21.453125 C 5.476562 -20.578125 5.238281 -19.210938 4.78125 -17.359375 C 4.320312 -15.515625 4.09375 -13.140625 4.09375 -10.234375 C 4.09375 -9.390625 4.207031 -8.367188 4.4375 -7.171875 C 4.664062 -5.972656 5.019531 -4.914062 5.5 -4 C 5.988281 -3.09375 6.601562 -2.640625 7.34375 -2.640625 C 8.25 -2.640625 9.285156 -3.035156 10.453125 -3.828125 C 11.617188 -4.628906 12.695312 -5.523438 13.6875 -6.515625 C 14.6875 -7.515625 15.382812 -8.273438 15.78125 -8.796875 C 15.894531 -8.910156 16.207031 -9.289062 16.71875 -9.9375 C 17.238281 -10.59375 17.851562 -11.332031 18.5625 -12.15625 C 19.269531 -12.988281 19.960938 -13.71875 20.640625 -14.34375 C 21.328125 -14.96875 21.875 -15.28125 22.28125 -15.28125 C 22.675781 -15.28125 22.875 -14.9375 22.875 -14.25 C 22.875 -13.851562 22.601562 -13.242188 22.0625 -12.421875 C 21.519531 -11.597656 20.878906 -10.726562 20.140625 -9.8125 C 19.398438 -8.90625 18.671875 -8.050781 17.953125 -7.25 C 17.242188 -6.457031 16.722656 -5.890625 16.390625 -5.546875 C 15.703125 -4.859375 14.890625 -4.046875 13.953125 -3.109375 C 13.015625 -2.171875 11.972656 -1.359375 10.828125 -0.671875 C 9.691406 0.00390625 8.441406 0.34375 7.078125 0.34375 Z M 4.359375 -33.546875 C 4.359375 -34.503906 4.613281 -35.335938 5.125 -36.046875 C 5.632812 -36.765625 6.203125 -37.125 6.828125 -37.125 C 7.515625 -37.125 8.082031 -36.695312 8.53125 -35.84375 C 9.332031 -34.25 9.429688 -33.007812 8.828125 -32.125 C 8.234375 -31.25 7.507812 -30.8125 6.65625 -30.8125 C 6.082031 -30.8125 5.554688 -31.035156 5.078125 -31.484375 C 4.597656 -31.941406 4.359375 -32.628906 4.359375 -33.546875 Z M 4.359375 -33.546875 "/></g></g></g><g fill="#efe1ff" fill-opacity="1"><g transform="translate(154.47802, 83.578703)"><g><path d="M 4.515625 -6.90625 C 3.328125 -6.90625 2.488281 -7.503906 2 -8.703125 C 1.519531 -9.898438 1.304688 -11.378906 1.359375 -13.140625 C 1.421875 -14.898438 1.648438 -16.660156 2.046875 -18.421875 C 2.441406 -20.191406 2.9375 -21.675781 3.53125 -22.875 C 4.132812 -24.070312 4.75 -24.671875 5.375 -24.671875 C 6.457031 -24.671875 7.097656 -24.425781 7.296875 -23.9375 C 7.492188 -23.457031 7.445312 -22.703125 7.15625 -21.671875 C 6.875 -20.648438 6.546875 -19.359375 6.171875 -17.796875 C 5.804688 -16.234375 5.625 -14.367188 5.625 -12.203125 C 5.738281 -12.316406 5.820312 -12.398438 5.875 -12.453125 C 5.9375 -12.515625 6 -12.570312 6.0625 -12.625 L 10.078125 -19.375 C 10.410156 -19.9375 10.875 -20.6875 11.46875 -21.625 C 12.070312 -22.570312 12.726562 -23.425781 13.4375 -24.1875 C 14.15625 -24.957031 14.851562 -25.34375 15.53125 -25.34375 C 16.84375 -25.34375 17.695312 -24.675781 18.09375 -23.34375 C 18.488281 -22.007812 18.6875 -20.65625 18.6875 -19.28125 C 19.3125 -19.394531 20.078125 -19.921875 20.984375 -20.859375 C 21.898438 -21.804688 22.726562 -22.617188 23.46875 -23.296875 C 23.863281 -23.753906 24.21875 -24.148438 24.53125 -24.484375 C 24.84375 -24.828125 25.226562 -25.113281 25.6875 -25.34375 C 26.257812 -25.632812 26.769531 -25.78125 27.21875 -25.78125 C 27.789062 -25.78125 28.273438 -25.550781 28.671875 -25.09375 C 29.066406 -24.632812 29.289062 -23.789062 29.34375 -22.5625 C 29.40625 -21.34375 29.378906 -19.9375 29.265625 -18.34375 C 29.160156 -16.75 29.035156 -15.15625 28.890625 -13.5625 C 28.742188 -11.976562 28.671875 -10.585938 28.671875 -9.390625 C 28.671875 -6.773438 28.882812 -4.9375 29.3125 -3.875 C 29.738281 -2.820312 30.320312 -2.296875 31.0625 -2.296875 C 31.914062 -2.296875 32.867188 -2.863281 33.921875 -4 C 34.972656 -5.144531 36.023438 -6.484375 37.078125 -8.015625 C 38.128906 -9.554688 39.023438 -10.953125 39.765625 -12.203125 C 40.171875 -12.828125 40.554688 -13.453125 40.921875 -14.078125 C 41.296875 -14.703125 41.9375 -15.015625 42.84375 -15.015625 C 43.007812 -15.015625 43.191406 -14.898438 43.390625 -14.671875 C 43.597656 -14.453125 43.703125 -14.195312 43.703125 -13.90625 C 43.703125 -13.570312 43.53125 -13.085938 43.1875 -12.453125 C 42.84375 -11.828125 42.484375 -11.21875 42.109375 -10.625 C 41.742188 -10.03125 41.445312 -9.5625 41.21875 -9.21875 C 40.988281 -8.820312 40.789062 -8.476562 40.625 -8.1875 C 40.457031 -7.90625 40.226562 -7.535156 39.9375 -7.078125 C 39.707031 -6.742188 39.476562 -6.445312 39.25 -6.1875 C 39.03125 -5.925781 38.773438 -5.570312 38.484375 -5.125 C 37.410156 -3.53125 36.117188 -2.132812 34.609375 -0.9375 C 33.097656 0.257812 31.632812 0.859375 30.21875 0.859375 C 29.414062 0.859375 28.644531 0.597656 27.90625 0.078125 C 27.164062 -0.429688 26.566406 -1.3125 26.109375 -2.5625 C 25.316406 -4.664062 24.929688 -6.882812 24.953125 -9.21875 C 24.984375 -11.550781 25.171875 -13.828125 25.515625 -16.046875 C 25.859375 -18.265625 26.03125 -20.195312 26.03125 -21.84375 C 25.457031 -21.445312 24.757812 -20.789062 23.9375 -19.875 C 23.113281 -18.96875 22.273438 -18.128906 21.421875 -17.359375 C 20.566406 -16.597656 19.742188 -16.21875 18.953125 -16.21875 C 17.640625 -16.21875 16.738281 -16.84375 16.25 -18.09375 C 15.769531 -19.34375 15.53125 -20.59375 15.53125 -21.84375 C 14.5625 -21.21875 13.632812 -20.109375 12.75 -18.515625 C 11.875 -16.921875 10.992188 -15.242188 10.109375 -13.484375 C 9.234375 -11.722656 8.351562 -10.203125 7.46875 -8.921875 C 6.582031 -7.640625 5.65625 -6.96875 4.6875 -6.90625 Z M 4.515625 -6.90625 "/></g></g></g><g fill="#efe1ff" fill-opacity="1"><g transform="translate(194.329229, 83.578703)"><g/></g></g><g fill="#efe1ff" fill-opacity="1"><g transform="translate(216.430871, 83.578703)"><g><path d="M 23.390625 39.421875 C 24.691406 39.421875 26.15625 38.976562 27.78125 38.09375 C 29.40625 37.21875 30.941406 36.179688 32.390625 34.984375 C 33.835938 33.796875 34.929688 32.6875 35.671875 31.65625 C 36.128906 31.09375 36.523438 30.597656 36.859375 30.171875 C 37.203125 29.742188 37.578125 29.242188 37.984375 28.671875 C 38.265625 28.109375 38.570312 27.582031 38.90625 27.09375 C 39.25 26.613281 39.535156 26.085938 39.765625 25.515625 C 40.679688 23.753906 41.28125 22.21875 41.5625 20.90625 C 41.84375 19.601562 41.96875 18.3125 41.9375 17.03125 C 41.914062 15.75 41.816406 14.3125 41.640625 12.71875 C 41.242188 12.832031 40.929688 12.988281 40.703125 13.1875 C 40.484375 13.382812 40.171875 13.625 39.765625 13.90625 C 39.535156 14.132812 39.289062 14.332031 39.03125 14.5 C 38.78125 14.675781 38.515625 14.878906 38.234375 15.109375 L 33.625 19.203125 C 32.09375 20.628906 30.84375 21.78125 29.875 22.65625 C 28.90625 23.539062 27.976562 24.46875 27.09375 25.4375 C 26.21875 26.40625 25.125 27.769531 23.8125 29.53125 C 23.414062 30.039062 22.914062 30.75 22.3125 31.65625 C 21.71875 32.570312 21.191406 33.539062 20.734375 34.5625 C 20.285156 35.582031 20.0625 36.492188 20.0625 37.296875 C 20.0625 38.316406 20.273438 38.925781 20.703125 39.125 C 21.128906 39.320312 21.851562 39.421875 22.875 39.421875 C 22.988281 39.421875 23.085938 39.421875 23.171875 39.421875 C 23.253906 39.421875 23.328125 39.421875 23.390625 39.421875 Z M 0 -10.15625 C 0 -13.226562 0.523438 -16.441406 1.578125 -19.796875 C 2.628906 -23.148438 3.960938 -26.445312 5.578125 -29.6875 C 7.203125 -32.9375 8.84375 -35.84375 10.5 -38.40625 C 11.238281 -39.769531 12.191406 -41.234375 13.359375 -42.796875 C 14.523438 -44.359375 15.75 -45.90625 17.03125 -47.4375 C 18.3125 -48.976562 19.488281 -50.320312 20.5625 -51.46875 C 22.5 -53.34375 24.460938 -55.0625 26.453125 -56.625 C 28.441406 -58.1875 30.585938 -59.453125 32.890625 -60.421875 C 35.203125 -61.390625 37.75 -61.875 40.53125 -61.875 C 43.269531 -61.707031 45.503906 -60.671875 47.234375 -58.765625 C 48.972656 -56.859375 50.269531 -54.507812 51.125 -51.71875 C 51.976562 -48.925781 52.40625 -46.050781 52.40625 -43.09375 C 52.40625 -39.738281 52.0625 -36.328125 51.375 -32.859375 C 50.695312 -29.390625 49.957031 -26.144531 49.15625 -23.125 C 48.875 -21.820312 48.578125 -20.671875 48.265625 -19.671875 C 47.953125 -18.671875 47.3125 -18.171875 46.34375 -18.171875 C 45.65625 -18.171875 45.28125 -18.679688 45.21875 -19.703125 C 45.164062 -20.734375 45.269531 -21.972656 45.53125 -23.421875 C 45.789062 -24.878906 46.078125 -26.234375 46.390625 -27.484375 C 46.703125 -28.734375 46.914062 -29.554688 47.03125 -29.953125 C 47.425781 -32.398438 47.78125 -35.03125 48.09375 -37.84375 C 48.40625 -40.664062 48.445312 -43.46875 48.21875 -46.25 C 47.988281 -49.039062 47.273438 -51.578125 46.078125 -53.859375 C 45.234375 -55.503906 44.210938 -56.65625 43.015625 -57.3125 C 41.816406 -57.96875 40.535156 -58.296875 39.171875 -58.296875 C 37.972656 -58.296875 36.757812 -58.082031 35.53125 -57.65625 C 34.3125 -57.226562 33.132812 -56.703125 32 -56.078125 C 31.207031 -55.554688 30.3125 -54.96875 29.3125 -54.3125 C 28.320312 -53.664062 27.484375 -53 26.796875 -52.3125 C 26.398438 -51.914062 26.015625 -51.585938 25.640625 -51.328125 C 25.273438 -51.078125 24.894531 -50.722656 24.5 -50.265625 L 14.421875 -38.234375 C 13.285156 -36.472656 12.390625 -35.007812 11.734375 -33.84375 C 11.078125 -32.675781 10.351562 -31.351562 9.5625 -29.875 C 8.757812 -28.625 7.929688 -27.015625 7.078125 -25.046875 C 6.222656 -23.085938 5.484375 -21.097656 4.859375 -19.078125 C 4.234375 -17.054688 3.78125 -15.332031 3.5 -13.90625 C 3.332031 -12.601562 3.21875 -11.320312 3.15625 -10.0625 C 3.101562 -8.8125 3.273438 -7.5625 3.671875 -6.3125 C 4.234375 -4.894531 5.28125 -3.882812 6.8125 -3.28125 C 8.351562 -2.6875 10.0625 -2.332031 11.9375 -2.21875 C 13.820312 -2.101562 15.53125 -2.019531 17.0625 -1.96875 C 19.113281 -1.851562 20.960938 -1.78125 22.609375 -1.75 C 24.265625 -1.71875 25.914062 -1.613281 27.5625 -1.4375 C 29.21875 -1.269531 31.039062 -0.847656 33.03125 -0.171875 C 34.164062 0.171875 35.429688 0.738281 36.828125 1.53125 C 38.222656 2.332031 39.488281 3.269531 40.625 4.34375 C 41.757812 5.425781 42.46875 6.566406 42.75 7.765625 C 44.007812 6.910156 45.460938 5.8125 47.109375 4.46875 C 48.753906 3.132812 50.414062 1.753906 52.09375 0.328125 C 53.78125 -1.085938 55.25 -2.304688 56.5 -3.328125 L 63.0625 -9.125 C 63.632812 -9.695312 64.175781 -10.179688 64.6875 -10.578125 C 65.195312 -10.984375 65.738281 -11.46875 66.3125 -12.03125 C 67.28125 -13.050781 68.003906 -13.734375 68.484375 -14.078125 C 68.972656 -14.421875 69.382812 -14.59375 69.71875 -14.59375 C 69.945312 -14.59375 70.144531 -14.5625 70.3125 -14.5 C 70.488281 -14.445312 70.691406 -14.394531 70.921875 -14.34375 C 70.921875 -13.769531 70.976562 -13.425781 71.09375 -13.3125 C 71.207031 -13.195312 71.25 -13.097656 71.21875 -13.015625 C 71.1875 -12.929688 70.984375 -12.734375 70.609375 -12.421875 C 70.242188 -12.109375 69.578125 -11.46875 68.609375 -10.5 C 66.734375 -8.675781 65.015625 -7.082031 63.453125 -5.71875 C 61.890625 -4.351562 60.222656 -2.816406 58.453125 -1.109375 L 53 3.328125 C 52.539062 3.671875 51.867188 4.195312 50.984375 4.90625 C 50.109375 5.613281 49.171875 6.363281 48.171875 7.15625 C 47.179688 7.957031 46.300781 8.6875 45.53125 9.34375 C 44.757812 10 44.289062 10.46875 44.125 10.75 C 44.351562 11.664062 44.550781 12.59375 44.71875 13.53125 C 44.882812 14.46875 44.96875 15.476562 44.96875 16.5625 C 44.96875 19.570312 44.269531 22.582031 42.875 25.59375 C 41.488281 28.613281 39.695312 31.390625 37.5 33.921875 C 35.3125 36.453125 32.992188 38.472656 30.546875 39.984375 C 28.109375 41.492188 25.832031 42.25 23.71875 42.25 C 22.925781 42.25 22.03125 42.160156 21.03125 41.984375 C 20.039062 41.816406 19.175781 41.460938 18.4375 40.921875 C 17.695312 40.378906 17.328125 39.507812 17.328125 38.3125 C 17.328125 36.207031 17.679688 34.382812 18.390625 32.84375 C 19.097656 31.3125 20.082031 29.695312 21.34375 28 C 23.21875 25.375 25.175781 23.09375 27.21875 21.15625 C 29.269531 19.226562 31.429688 17.269531 33.703125 15.28125 L 40.53125 9.640625 C 39 6.742188 37.066406 4.738281 34.734375 3.625 C 32.398438 2.519531 29.554688 1.765625 26.203125 1.359375 L 19.28125 0.859375 C 16.613281 0.796875 14.125 0.734375 11.8125 0.671875 C 9.507812 0.617188 7.394531 0.222656 5.46875 -0.515625 C 3.644531 -1.191406 2.273438 -2.351562 1.359375 -4 C 0.453125 -5.65625 0 -7.707031 0 -10.15625 Z M 0 -10.15625 "/></g></g></g><g fill="#efe1ff" fill-opacity="1"><g transform="translate(284.357131, 83.578703)"><g><path d="M 0.078125 -10.40625 C 0.078125 -11.664062 0.257812 -13.0625 0.625 -14.59375 C 1 -16.125 1.484375 -17.613281 2.078125 -19.0625 C 2.679688 -20.519531 3.328125 -21.703125 4.015625 -22.609375 C 4.640625 -23.296875 5.265625 -23.640625 5.890625 -23.640625 C 6.398438 -23.640625 6.910156 -23.5 7.421875 -23.21875 C 7.484375 -22.925781 7.554688 -22.722656 7.640625 -22.609375 C 7.722656 -22.503906 7.765625 -22.25 7.765625 -21.84375 C 7.765625 -21.789062 7.507812 -21.25 7 -20.21875 C 6.488281 -19.195312 5.929688 -17.914062 5.328125 -16.375 C 4.734375 -14.84375 4.25 -13.222656 3.875 -11.515625 C 3.507812 -9.816406 3.5 -8.253906 3.84375 -6.828125 C 4.519531 -7.054688 5.113281 -7.492188 5.625 -8.140625 C 6.144531 -8.796875 6.601562 -9.410156 7 -9.984375 L 12.125 -17.5 C 12.6875 -18.289062 13.164062 -18.984375 13.5625 -19.578125 C 13.96875 -20.179688 14.566406 -20.484375 15.359375 -20.484375 C 16.160156 -20.484375 16.628906 -19.984375 16.765625 -18.984375 C 16.910156 -17.992188 16.941406 -16.867188 16.859375 -15.609375 C 16.773438 -14.359375 16.757812 -13.363281 16.8125 -12.625 C 17.09375 -10.582031 17.53125 -9.144531 18.125 -8.3125 C 18.726562 -7.488281 19.425781 -7.078125 20.21875 -7.078125 C 21.1875 -7.078125 22.210938 -7.472656 23.296875 -8.265625 C 24.378906 -9.066406 25.457031 -9.992188 26.53125 -11.046875 C 27.613281 -12.097656 28.566406 -13.019531 29.390625 -13.8125 C 30.222656 -14.613281 30.835938 -15.015625 31.234375 -15.015625 C 31.578125 -15.015625 31.890625 -14.941406 32.171875 -14.796875 C 32.453125 -14.660156 32.59375 -14.363281 32.59375 -13.90625 C 32.59375 -13.457031 32.25 -12.847656 31.5625 -12.078125 C 30.882812 -11.304688 30.144531 -10.566406 29.34375 -9.859375 C 28.550781 -9.148438 27.988281 -8.625 27.65625 -8.28125 C 26.507812 -7.195312 25.269531 -6.269531 23.9375 -5.5 C 22.601562 -4.738281 21.28125 -4.359375 19.96875 -4.359375 C 18.550781 -4.359375 17.441406 -4.738281 16.640625 -5.5 C 15.847656 -6.269531 15.265625 -7.238281 14.890625 -8.40625 C 14.523438 -9.570312 14.285156 -10.796875 14.171875 -12.078125 C 14.054688 -13.359375 14 -14.507812 14 -15.53125 C 13.65625 -15.300781 13.238281 -14.800781 12.75 -14.03125 C 12.269531 -13.269531 11.890625 -12.660156 11.609375 -12.203125 C 11.265625 -11.628906 10.78125 -10.84375 10.15625 -9.84375 C 9.53125 -8.851562 8.832031 -7.859375 8.0625 -6.859375 C 7.289062 -5.867188 6.519531 -5.03125 5.75 -4.34375 C 4.988281 -3.664062 4.265625 -3.328125 3.578125 -3.328125 C 2.273438 -3.328125 1.378906 -3.707031 0.890625 -4.46875 C 0.410156 -5.238281 0.15625 -6.179688 0.125 -7.296875 C 0.09375 -8.410156 0.078125 -9.445312 0.078125 -10.40625 Z M 0.078125 -10.40625 "/></g></g></g><g fill="#efe1ff" fill-opacity="1"><g transform="translate(313.20018, 83.578703)"><g><path d="M 0 -11.6875 C 0 -12.71875 0.210938 -13.914062 0.640625 -15.28125 C 1.066406 -16.644531 1.660156 -17.976562 2.421875 -19.28125 C 3.191406 -20.59375 4.101562 -21.6875 5.15625 -22.5625 C 6.207031 -23.445312 7.363281 -23.890625 8.625 -23.890625 C 10.4375 -23.890625 11.34375 -22.753906 11.34375 -20.484375 C 11.34375 -19.003906 10.972656 -18.265625 10.234375 -18.265625 C 9.390625 -18.265625 8.878906 -19.003906 8.703125 -20.484375 C 7.734375 -19.796875 6.804688 -18.628906 5.921875 -16.984375 C 5.046875 -15.335938 4.460938 -13.570312 4.171875 -11.6875 C 3.890625 -9.8125 4.09375 -8.160156 4.78125 -6.734375 C 5.0625 -5.992188 5.472656 -5.367188 6.015625 -4.859375 C 6.554688 -4.347656 7.335938 -4.09375 8.359375 -4.09375 C 10.347656 -4.09375 12.179688 -4.644531 13.859375 -5.75 C 15.546875 -6.863281 17.082031 -8.203125 18.46875 -9.765625 C 19.863281 -11.335938 21.078125 -12.832031 22.109375 -14.25 C 22.734375 -15.101562 23.300781 -15.53125 23.8125 -15.53125 C 24.207031 -15.53125 24.488281 -15.332031 24.65625 -14.9375 C 24.832031 -14.539062 24.78125 -14.054688 24.5 -13.484375 C 24.382812 -13.203125 24.195312 -12.890625 23.9375 -12.546875 C 23.6875 -12.203125 23.445312 -11.890625 23.21875 -11.609375 C 22.019531 -10.128906 20.648438 -8.59375 19.109375 -7 C 17.578125 -5.40625 15.898438 -4.050781 14.078125 -2.9375 C 12.253906 -1.832031 10.320312 -1.28125 8.28125 -1.28125 C 6.34375 -1.28125 4.757812 -1.773438 3.53125 -2.765625 C 2.3125 -3.765625 1.414062 -5.0625 0.84375 -6.65625 C 0.28125 -8.25 0 -9.925781 0 -11.6875 Z M 0 -11.6875 "/></g></g></g><g fill="#efe1ff" fill-opacity="1"><g transform="translate(333.851127, 83.578703)"><g><path d="M 0 -11.6875 C 0 -12.71875 0.210938 -13.914062 0.640625 -15.28125 C 1.066406 -16.644531 1.660156 -17.976562 2.421875 -19.28125 C 3.191406 -20.59375 4.101562 -21.6875 5.15625 -22.5625 C 6.207031 -23.445312 7.363281 -23.890625 8.625 -23.890625 C 10.4375 -23.890625 11.34375 -22.753906 11.34375 -20.484375 C 11.34375 -19.003906 10.972656 -18.265625 10.234375 -18.265625 C 9.390625 -18.265625 8.878906 -19.003906 8.703125 -20.484375 C 7.734375 -19.796875 6.804688 -18.628906 5.921875 -16.984375 C 5.046875 -15.335938 4.460938 -13.570312 4.171875 -11.6875 C 3.890625 -9.8125 4.09375 -8.160156 4.78125 -6.734375 C 5.0625 -5.992188 5.472656 -5.367188 6.015625 -4.859375 C 6.554688 -4.347656 7.335938 -4.09375 8.359375 -4.09375 C 10.347656 -4.09375 12.179688 -4.644531 13.859375 -5.75 C 15.546875 -6.863281 17.082031 -8.203125 18.46875 -9.765625 C 19.863281 -11.335938 21.078125 -12.832031 22.109375 -14.25 C 22.734375 -15.101562 23.300781 -15.53125 23.8125 -15.53125 C 24.207031 -15.53125 24.488281 -15.332031 24.65625 -14.9375 C 24.832031 -14.539062 24.78125 -14.054688 24.5 -13.484375 C 24.382812 -13.203125 24.195312 -12.890625 23.9375 -12.546875 C 23.6875 -12.203125 23.445312 -11.890625 23.21875 -11.609375 C 22.019531 -10.128906 20.648438 -8.59375 19.109375 -7 C 17.578125 -5.40625 15.898438 -4.050781 14.078125 -2.9375 C 12.253906 -1.832031 10.320312 -1.28125 8.28125 -1.28125 C 6.34375 -1.28125 4.757812 -1.773438 3.53125 -2.765625 C 2.3125 -3.765625 1.414062 -5.0625 0.84375 -6.65625 C 0.28125 -8.25 0 -9.925781 0 -11.6875 Z M 0 -11.6875 "/></g></g></g><g fill="#efe1ff" fill-opacity="1"><g transform="translate(354.502073, 83.578703)"><g><path d="M 3.921875 -15.453125 C 5.003906 -16.015625 6.195312 -16.789062 7.5 -17.78125 C 8.8125 -18.78125 9.523438 -19.96875 9.640625 -21.34375 C 8.898438 -21.226562 8.117188 -20.828125 7.296875 -20.140625 C 6.472656 -19.453125 5.757812 -18.679688 5.15625 -17.828125 C 4.5625 -16.984375 4.148438 -16.191406 3.921875 -15.453125 Z M 0.078125 -13.40625 C 0.078125 -14.820312 0.546875 -16.351562 1.484375 -18 C 2.429688 -19.65625 3.597656 -21.066406 4.984375 -22.234375 C 6.378906 -23.398438 7.757812 -23.984375 9.125 -23.984375 C 11.007812 -23.984375 11.992188 -23.269531 12.078125 -21.84375 C 12.160156 -20.425781 11.546875 -18.890625 10.234375 -17.234375 C 9.554688 -16.492188 8.535156 -15.640625 7.171875 -14.671875 C 5.804688 -13.710938 4.46875 -13.175781 3.15625 -13.0625 C 3.15625 -12.144531 3.179688 -11.332031 3.234375 -10.625 C 3.296875 -9.914062 3.695312 -9.191406 4.4375 -8.453125 C 5.175781 -7.710938 6.113281 -7.34375 7.25 -7.34375 C 8.726562 -7.34375 10.265625 -7.8125 11.859375 -8.75 C 13.453125 -9.6875 14.675781 -10.46875 15.53125 -11.09375 C 15.875 -11.375 16.144531 -11.597656 16.34375 -11.765625 C 16.539062 -11.941406 16.78125 -12.144531 17.0625 -12.375 C 18.257812 -13.28125 19.015625 -13.945312 19.328125 -14.375 C 19.640625 -14.800781 19.910156 -15.085938 20.140625 -15.234375 C 20.367188 -15.378906 20.910156 -15.453125 21.765625 -15.453125 C 21.878906 -14.828125 21.921875 -14.398438 21.890625 -14.171875 C 21.859375 -13.941406 21.644531 -13.597656 21.25 -13.140625 C 20.226562 -12.117188 18.929688 -10.953125 17.359375 -9.640625 C 15.796875 -8.335938 14.117188 -7.203125 12.328125 -6.234375 C 10.535156 -5.265625 8.757812 -4.78125 7 -4.78125 C 6.082031 -4.78125 5.210938 -4.9375 4.390625 -5.25 C 3.566406 -5.5625 2.785156 -6.085938 2.046875 -6.828125 C 1.023438 -7.847656 0.441406 -8.898438 0.296875 -9.984375 C 0.148438 -11.066406 0.078125 -12.207031 0.078125 -13.40625 Z M 0.078125 -13.40625 "/></g></g></g><g fill="#efe1ff" fill-opacity="1"><g transform="translate(373.019661, 83.578703)"><g><path d="M 1.03125 14.078125 C 1.03125 15.273438 1.398438 15.875 2.140625 15.875 C 2.535156 15.875 2.957031 15.726562 3.40625 15.4375 C 3.863281 15.15625 4.234375 14.898438 4.515625 14.671875 C 5.660156 13.828125 6.671875 12.535156 7.546875 10.796875 C 8.429688 9.054688 9.070312 7.476562 9.46875 6.0625 C 9.757812 5.09375 9.914062 4.109375 9.9375 3.109375 C 9.96875 2.117188 9.984375 1.023438 9.984375 -0.171875 C 9.304688 0.222656 8.523438 0.914062 7.640625 1.90625 C 6.753906 2.90625 6.054688 3.722656 5.546875 4.359375 C 4.523438 5.609375 3.515625 7.113281 2.515625 8.875 C 1.523438 10.632812 1.03125 12.367188 1.03125 14.078125 Z M 0.25 -13.828125 C 0.25 -15.304688 0.644531 -16.628906 1.4375 -17.796875 C 2.238281 -18.960938 3.191406 -19.898438 4.296875 -20.609375 C 5.410156 -21.316406 6.367188 -21.671875 7.171875 -21.671875 C 7.796875 -21.671875 8.265625 -21.441406 8.578125 -20.984375 C 8.890625 -20.535156 8.90625 -19.769531 8.625 -18.6875 C 7.9375 -18.519531 7.445312 -18.421875 7.15625 -18.390625 C 6.875 -18.359375 6.648438 -18.269531 6.484375 -18.125 C 6.316406 -17.988281 6.003906 -17.664062 5.546875 -17.15625 C 4.410156 -15.90625 3.882812 -14.894531 3.96875 -14.125 C 4.050781 -13.351562 4.503906 -12.640625 5.328125 -11.984375 C 6.160156 -11.335938 7.1875 -10.53125 8.40625 -9.5625 C 9.625 -8.59375 10.773438 -7.28125 11.859375 -5.625 C 13.109375 -6.476562 14.390625 -7.476562 15.703125 -8.625 L 23.640625 -14.171875 C 24.378906 -14.679688 25.019531 -15.035156 25.5625 -15.234375 C 26.101562 -15.429688 26.570312 -15.53125 26.96875 -15.53125 C 27.65625 -15.53125 27.941406 -15.242188 27.828125 -14.671875 C 27.710938 -14.109375 27.171875 -13.539062 26.203125 -12.96875 L 20.390625 -8.96875 C 20.171875 -8.851562 19.691406 -8.523438 18.953125 -7.984375 C 18.210938 -7.441406 17.398438 -6.84375 16.515625 -6.1875 C 15.628906 -5.53125 14.875 -4.914062 14.25 -4.34375 C 13.625 -3.78125 13.285156 -3.414062 13.234375 -3.25 C 13.171875 -2.957031 13.253906 -2.410156 13.484375 -1.609375 C 13.710938 -0.816406 13.867188 0.210938 13.953125 1.484375 C 14.035156 2.765625 13.863281 4.332031 13.4375 6.1875 C 13.007812 8.039062 12.085938 10.1875 10.671875 12.625 C 9.421875 14.726562 8.054688 16.28125 6.578125 17.28125 C 5.097656 18.28125 3.703125 18.78125 2.390625 18.78125 C 1.191406 18.78125 0.210938 18.378906 -0.546875 17.578125 C -1.316406 16.785156 -1.703125 15.617188 -1.703125 14.078125 C -1.703125 12.148438 -1.234375 10.273438 -0.296875 8.453125 C 0.640625 6.628906 1.757812 4.945312 3.0625 3.40625 C 4.375 1.875 5.582031 0.554688 6.6875 -0.546875 C 7.800781 -1.660156 8.53125 -2.472656 8.875 -2.984375 C 8.195312 -4.179688 7.375 -5.21875 6.40625 -6.09375 C 5.4375 -6.976562 4.484375 -7.789062 3.546875 -8.53125 C 2.609375 -9.269531 1.820312 -10.050781 1.1875 -10.875 C 0.5625 -11.707031 0.25 -12.691406 0.25 -13.828125 Z M 0.25 -13.828125 "/></g></g></g><g fill="#efe1ff" fill-opacity="1"><g transform="translate(397.681338, 83.578703)"><g><path d="M 1.03125 14.078125 C 1.03125 15.273438 1.398438 15.875 2.140625 15.875 C 2.535156 15.875 2.957031 15.726562 3.40625 15.4375 C 3.863281 15.15625 4.234375 14.898438 4.515625 14.671875 C 5.660156 13.828125 6.671875 12.535156 7.546875 10.796875 C 8.429688 9.054688 9.070312 7.476562 9.46875 6.0625 C 9.757812 5.09375 9.914062 4.109375 9.9375 3.109375 C 9.96875 2.117188 9.984375 1.023438 9.984375 -0.171875 C 9.304688 0.222656 8.523438 0.914062 7.640625 1.90625 C 6.753906 2.90625 6.054688 3.722656 5.546875 4.359375 C 4.523438 5.609375 3.515625 7.113281 2.515625 8.875 C 1.523438 10.632812 1.03125 12.367188 1.03125 14.078125 Z M 0.25 -13.828125 C 0.25 -15.304688 0.644531 -16.628906 1.4375 -17.796875 C 2.238281 -18.960938 3.191406 -19.898438 4.296875 -20.609375 C 5.410156 -21.316406 6.367188 -21.671875 7.171875 -21.671875 C 7.796875 -21.671875 8.265625 -21.441406 8.578125 -20.984375 C 8.890625 -20.535156 8.90625 -19.769531 8.625 -18.6875 C 7.9375 -18.519531 7.445312 -18.421875 7.15625 -18.390625 C 6.875 -18.359375 6.648438 -18.269531 6.484375 -18.125 C 6.316406 -17.988281 6.003906 -17.664062 5.546875 -17.15625 C 4.410156 -15.90625 3.882812 -14.894531 3.96875 -14.125 C 4.050781 -13.351562 4.503906 -12.640625 5.328125 -11.984375 C 6.160156 -11.335938 7.1875 -10.53125 8.40625 -9.5625 C 9.625 -8.59375 10.773438 -7.28125 11.859375 -5.625 C 13.109375 -6.476562 14.390625 -7.476562 15.703125 -8.625 L 23.640625 -14.171875 C 24.378906 -14.679688 25.019531 -15.035156 25.5625 -15.234375 C 26.101562 -15.429688 26.570312 -15.53125 26.96875 -15.53125 C 27.65625 -15.53125 27.941406 -15.242188 27.828125 -14.671875 C 27.710938 -14.109375 27.171875 -13.539062 26.203125 -12.96875 L 20.390625 -8.96875 C 20.171875 -8.851562 19.691406 -8.523438 18.953125 -7.984375 C 18.210938 -7.441406 17.398438 -6.84375 16.515625 -6.1875 C 15.628906 -5.53125 14.875 -4.914062 14.25 -4.34375 C 13.625 -3.78125 13.285156 -3.414062 13.234375 -3.25 C 13.171875 -2.957031 13.253906 -2.410156 13.484375 -1.609375 C 13.710938 -0.816406 13.867188 0.210938 13.953125 1.484375 C 14.035156 2.765625 13.863281 4.332031 13.4375 6.1875 C 13.007812 8.039062 12.085938 10.1875 10.671875 12.625 C 9.421875 14.726562 8.054688 16.28125 6.578125 17.28125 C 5.097656 18.28125 3.703125 18.78125 2.390625 18.78125 C 1.191406 18.78125 0.210938 18.378906 -0.546875 17.578125 C -1.316406 16.785156 -1.703125 15.617188 -1.703125 14.078125 C -1.703125 12.148438 -1.234375 10.273438 -0.296875 8.453125 C 0.640625 6.628906 1.757812 4.945312 3.0625 3.40625 C 4.375 1.875 5.582031 0.554688 6.6875 -0.546875 C 7.800781 -1.660156 8.53125 -2.472656 8.875 -2.984375 C 8.195312 -4.179688 7.375 -5.21875 6.40625 -6.09375 C 5.4375 -6.976562 4.484375 -7.789062 3.546875 -8.53125 C 2.609375 -9.269531 1.820312 -10.050781 1.1875 -10.875 C 0.5625 -11.707031 0.25 -12.691406 0.25 -13.828125 Z M 0.25 -13.828125 "/></g></g></g><g fill="#efe1ff" fill-opacity="1"><g transform="translate(422.34299, 83.578703)"><g/></g></g><g fill="#efe1ff" fill-opacity="1"><g transform="translate(444.444632, 83.578703)"><g><path d="M 22.78125 8.453125 C 26.59375 8.453125 30.234375 7.609375 33.703125 5.921875 C 37.179688 4.242188 40.367188 2.113281 43.265625 -0.46875 C 46.171875 -3.0625 48.617188 -5.722656 50.609375 -8.453125 C 52.941406 -11.460938 54.988281 -14.800781 56.75 -18.46875 C 58.519531 -22.144531 59.898438 -25.957031 60.890625 -29.90625 C 61.890625 -33.863281 62.390625 -37.722656 62.390625 -41.484375 C 62.390625 -44.609375 61.945312 -47.492188 61.0625 -50.140625 C 60.175781 -52.785156 58.894531 -54.90625 57.21875 -56.5 C 55.539062 -58.09375 53.507812 -58.890625 51.125 -58.890625 C 48.5 -58.890625 46.050781 -58.101562 43.78125 -56.53125 C 41.507812 -54.96875 39.421875 -52.960938 37.515625 -50.515625 C 35.609375 -48.078125 33.957031 -45.546875 32.5625 -42.921875 C 31.164062 -40.304688 30.066406 -37.976562 29.265625 -35.9375 L 25.9375 -27.046875 C 24.914062 -23.984375 23.921875 -20.785156 22.953125 -17.453125 C 21.984375 -14.117188 21.1875 -10.921875 20.5625 -7.859375 C 20.445312 -7.109375 20.25 -6.007812 19.96875 -4.5625 C 19.6875 -3.113281 19.390625 -1.582031 19.078125 0.03125 C 18.765625 1.65625 18.503906 3.164062 18.296875 4.5625 C 18.097656 5.957031 18 6.96875 18 7.59375 C 18.457031 7.820312 19.179688 8.019531 20.171875 8.1875 C 21.171875 8.363281 22.039062 8.453125 22.78125 8.453125 Z M 18 -9.390625 C 18 -9.441406 18.015625 -9.46875 18.046875 -9.46875 C 18.078125 -9.46875 18.09375 -9.5 18.09375 -9.5625 L 19.109375 -13.65625 C 19.847656 -16.726562 20.800781 -20.171875 21.96875 -23.984375 C 23.132812 -27.796875 24.484375 -31.617188 26.015625 -35.453125 C 27.554688 -39.296875 29.28125 -42.894531 31.1875 -46.25 C 33.09375 -49.613281 35.128906 -52.375 37.296875 -54.53125 C 39.347656 -56.582031 41.4375 -58.316406 43.5625 -59.734375 C 45.695312 -61.160156 48.273438 -61.875 51.296875 -61.875 C 53.628906 -61.875 55.734375 -61.289062 57.609375 -60.125 C 59.484375 -58.957031 61.078125 -57.347656 62.390625 -55.296875 C 63.921875 -52.859375 64.941406 -50.171875 65.453125 -47.234375 C 65.972656 -44.304688 66.085938 -41.289062 65.796875 -38.1875 C 65.515625 -35.09375 65.003906 -32.066406 64.265625 -29.109375 C 63.523438 -26.148438 62.695312 -23.472656 61.78125 -21.078125 C 60.414062 -17.328125 58.425781 -13.53125 55.8125 -9.6875 C 53.195312 -5.84375 50.164062 -2.300781 46.71875 0.9375 C 43.28125 4.175781 39.539062 6.773438 35.5 8.734375 C 31.457031 10.703125 27.304688 11.6875 23.046875 11.6875 C 21.679688 11.6875 20.582031 11.554688 19.75 11.296875 C 18.925781 11.046875 18.117188 10.894531 17.328125 10.84375 L 16.125 24.75 C 16.007812 25.4375 15.921875 26.5625 15.859375 28.125 C 15.804688 29.6875 15.753906 31.25 15.703125 32.8125 C 15.648438 34.375 15.566406 35.582031 15.453125 36.4375 C 15.335938 37.800781 15.25 39.109375 15.1875 40.359375 C 15.132812 41.617188 15.007812 42.644531 14.8125 43.4375 C 14.613281 44.238281 14.144531 44.640625 13.40625 44.640625 C 12.945312 44.640625 12.488281 44.523438 12.03125 44.296875 C 11.800781 43.441406 11.671875 41.972656 11.640625 39.890625 C 11.617188 37.816406 11.632812 35.554688 11.6875 33.109375 C 11.75 30.660156 11.820312 28.351562 11.90625 26.1875 C 11.988281 24.03125 12.03125 22.414062 12.03125 21.34375 C 12.03125 20.082031 12.070312 18.96875 12.15625 18 C 12.25 17.039062 12.296875 16.019531 12.296875 14.9375 C 12.296875 13.625 12.320312 12.539062 12.375 11.6875 C 12.425781 10.832031 12.453125 9.835938 12.453125 8.703125 C 12.171875 8.421875 11.84375 8.164062 11.46875 7.9375 C 11.101562 7.707031 10.75 7.476562 10.40625 7.25 C 9.382812 6.507812 8.898438 5.769531 8.953125 5.03125 C 9.015625 4.289062 9.359375 3.921875 9.984375 3.921875 C 10.378906 3.921875 10.722656 4.035156 11.015625 4.265625 C 11.410156 4.492188 11.722656 4.691406 11.953125 4.859375 C 12.179688 5.035156 12.347656 5.125 12.453125 5.125 C 12.679688 5.125 12.78125 4.8125 12.75 4.1875 C 12.726562 3.5625 12.742188 2.453125 12.796875 0.859375 C 12.796875 0.117188 12.835938 -0.390625 12.921875 -0.671875 C 13.015625 -0.960938 13.0625 -1.453125 13.0625 -2.140625 C 13.113281 -2.703125 13.125 -3.28125 13.09375 -3.875 C 13.070312 -4.476562 13.085938 -5.0625 13.140625 -5.625 C 13.203125 -6.257812 13.257812 -6.773438 13.3125 -7.171875 C 13.375 -7.566406 13.40625 -8.132812 13.40625 -8.875 C 13.40625 -10.632812 13.457031 -12.707031 13.5625 -15.09375 C 13.675781 -17.488281 13.804688 -19.878906 13.953125 -22.265625 C 14.097656 -24.660156 14.171875 -26.769531 14.171875 -28.59375 C 14.171875 -29.726562 14.210938 -31.25 14.296875 -33.15625 C 14.378906 -35.0625 14.421875 -37.082031 14.421875 -39.21875 C 14.421875 -41.351562 14.363281 -43.34375 14.25 -45.1875 C 14.132812 -47.039062 13.851562 -48.421875 13.40625 -49.328125 C 12.769531 -48.929688 12.164062 -48.234375 11.59375 -47.234375 C 11.03125 -46.242188 10.503906 -45.175781 10.015625 -44.03125 C 9.535156 -42.894531 9.128906 -41.898438 8.796875 -41.046875 C 8.273438 -39.628906 7.816406 -37.9375 7.421875 -35.96875 C 7.023438 -34.007812 6.6875 -32.289062 6.40625 -30.8125 C 6.175781 -28.875 6.101562 -26.894531 6.1875 -24.875 C 6.269531 -22.851562 6.453125 -20.988281 6.734375 -19.28125 C 7.140625 -17.351562 7.566406 -16.003906 8.015625 -15.234375 C 8.472656 -14.460938 8.898438 -13.960938 9.296875 -13.734375 C 9.703125 -13.515625 9.960938 -13.234375 10.078125 -12.890625 C 10.359375 -12.492188 10.382812 -12.125 10.15625 -11.78125 C 9.925781 -11.4375 9.582031 -11.265625 9.125 -11.265625 C 8.613281 -11.265625 8.003906 -11.546875 7.296875 -12.109375 C 6.585938 -12.679688 5.921875 -13.679688 5.296875 -15.109375 C 4.671875 -16.816406 4.269531 -18.304688 4.09375 -19.578125 C 3.925781 -20.859375 3.726562 -22.382812 3.5 -24.15625 C 3.4375 -24.71875 3.445312 -25.179688 3.53125 -25.546875 C 3.625 -25.921875 3.671875 -26.476562 3.671875 -27.21875 C 3.671875 -30.351562 3.992188 -33.398438 4.640625 -36.359375 C 5.296875 -39.316406 6.164062 -42.160156 7.25 -44.890625 C 7.59375 -45.679688 8.0625 -46.703125 8.65625 -47.953125 C 9.257812 -49.210938 9.972656 -50.335938 10.796875 -51.328125 C 11.617188 -52.328125 12.488281 -52.828125 13.40625 -52.828125 C 14.59375 -52.828125 15.523438 -52.3125 16.203125 -51.28125 C 16.890625 -50.257812 17.390625 -48.96875 17.703125 -47.40625 C 18.015625 -45.84375 18.210938 -44.191406 18.296875 -42.453125 C 18.390625 -40.722656 18.4375 -39.144531 18.4375 -37.71875 C 18.4375 -32.820312 18.363281 -28.015625 18.21875 -23.296875 C 18.070312 -18.578125 18 -13.941406 18 -9.390625 Z M 18 -9.390625 "/></g></g></g><g fill="#efe1ff" fill-opacity="1"><g transform="translate(510.578867, 83.578703)"><g><path d="M 0 -8.625 C 0 -9.8125 0.28125 -11.285156 0.84375 -13.046875 C 1.414062 -14.816406 2.210938 -16.566406 3.234375 -18.296875 C 4.265625 -20.035156 5.445312 -21.472656 6.78125 -22.609375 C 8.125 -23.753906 9.535156 -24.328125 11.015625 -24.328125 C 12.378906 -24.328125 13.488281 -23.925781 14.34375 -23.125 C 15.195312 -22.332031 15.707031 -21.519531 15.875 -20.6875 C 16.039062 -19.863281 15.753906 -19.453125 15.015625 -19.453125 C 14.453125 -19.453125 13.867188 -19.78125 13.265625 -20.4375 C 12.671875 -21.09375 11.976562 -21.421875 11.1875 -21.421875 C 10.550781 -21.421875 9.789062 -21.050781 8.90625 -20.3125 C 8.03125 -19.570312 6.96875 -18.117188 5.71875 -15.953125 C 5.144531 -15.046875 4.613281 -13.863281 4.125 -12.40625 C 3.644531 -10.957031 3.40625 -9.523438 3.40625 -8.109375 C 3.519531 -8.222656 3.5625 -8.265625 3.53125 -8.234375 C 3.507812 -8.203125 3.613281 -8.300781 3.84375 -8.53125 L 4.515625 -9.5625 C 4.972656 -10.238281 5.5 -11.117188 6.09375 -12.203125 C 6.695312 -13.285156 7.3125 -14.378906 7.9375 -15.484375 C 8.5625 -16.597656 9.128906 -17.535156 9.640625 -18.296875 C 10.148438 -19.066406 10.550781 -19.453125 10.84375 -19.453125 C 11.863281 -19.453125 12.457031 -19.082031 12.625 -18.34375 C 12.800781 -17.601562 12.875 -16.691406 12.84375 -15.609375 C 12.8125 -14.535156 12.910156 -13.457031 13.140625 -12.375 C 13.484375 -10.84375 14.007812 -9.71875 14.71875 -9 C 15.425781 -8.289062 16.238281 -7.9375 17.15625 -7.9375 C 18.75 -7.9375 20.515625 -8.90625 22.453125 -10.84375 C 23.242188 -11.582031 23.8125 -12.191406 24.15625 -12.671875 C 24.5 -13.160156 24.953125 -13.71875 25.515625 -14.34375 C 25.910156 -14.90625 26.421875 -15.1875 27.046875 -15.1875 C 27.679688 -15.1875 27.953125 -14.660156 27.859375 -13.609375 C 27.773438 -12.554688 26.65625 -10.976562 24.5 -8.875 L 21.9375 -6.828125 C 20.28125 -5.691406 18.6875 -5.125 17.15625 -5.125 C 15.726562 -5.125 14.488281 -5.550781 13.4375 -6.40625 C 12.382812 -7.257812 11.570312 -8.3125 11 -9.5625 C 10.4375 -10.8125 10.15625 -12.035156 10.15625 -13.234375 C 9.757812 -12.941406 9.300781 -12.3125 8.78125 -11.34375 C 8.269531 -10.382812 7.71875 -9.347656 7.125 -8.234375 C 6.53125 -7.128906 5.921875 -6.160156 5.296875 -5.328125 C 4.671875 -4.503906 4.039062 -4.09375 3.40625 -4.09375 C 1.820312 -4.09375 0.859375 -4.460938 0.515625 -5.203125 C 0.171875 -5.941406 0 -7.082031 0 -8.625 Z M 0 -8.625 "/></g></g></g><g fill="#efe1ff" fill-opacity="1"><g transform="translate(535.325865, 83.578703)"><g><path d="M -23.984375 -38.0625 C -23.984375 -38.800781 -23.300781 -39.582031 -21.9375 -40.40625 C -20.570312 -41.226562 -18.847656 -42.035156 -16.765625 -42.828125 C -14.691406 -43.628906 -12.5 -44.382812 -10.1875 -45.09375 C -7.882812 -45.8125 -5.765625 -46.425781 -3.828125 -46.9375 C -1.898438 -47.445312 -0.453125 -47.847656 0.515625 -48.140625 C 1.703125 -48.472656 2.535156 -48.664062 3.015625 -48.71875 C 3.503906 -48.78125 3.820312 -48.96875 3.96875 -49.28125 C 4.113281 -49.59375 4.269531 -50.234375 4.4375 -51.203125 C 4.894531 -53.535156 5.421875 -55.140625 6.015625 -56.015625 C 6.609375 -56.898438 7.191406 -57.34375 7.765625 -57.34375 C 8.222656 -57.34375 8.609375 -57.101562 8.921875 -56.625 C 9.234375 -56.144531 9.390625 -55.5625 9.390625 -54.875 C 9.390625 -54.363281 9.359375 -54.148438 9.296875 -54.234375 C 9.242188 -54.316406 9.242188 -54.132812 9.296875 -53.6875 C 9.296875 -53.570312 9.3125 -53.425781 9.34375 -53.25 C 9.375 -53.082031 9.390625 -52.859375 9.390625 -52.578125 C 9.390625 -51.835938 9.242188 -51.46875 8.953125 -51.46875 C 8.671875 -51.46875 8.390625 -51.421875 8.109375 -51.328125 C 7.828125 -51.242188 7.6875 -50.75 7.6875 -49.84375 C 8.363281 -49.84375 9.113281 -49.941406 9.9375 -50.140625 C 10.769531 -50.335938 11.5 -50.46875 12.125 -50.53125 C 14.625 -50.976562 17.125 -51.382812 19.625 -51.75 C 22.132812 -52.125 24.695312 -52.3125 27.3125 -52.3125 C 28.675781 -52.3125 29.671875 -52.023438 30.296875 -51.453125 C 30.921875 -50.890625 31.144531 -50.320312 30.96875 -49.75 C 30.800781 -49.1875 30.179688 -48.90625 29.109375 -48.90625 C 28.992188 -49.351562 28.921875 -49.5625 28.890625 -49.53125 C 28.859375 -49.507812 28.585938 -49.554688 28.078125 -49.671875 C 27.847656 -49.722656 27.394531 -49.75 26.71875 -49.75 C 25.519531 -49.75 23.9375 -49.617188 21.96875 -49.359375 C 20.007812 -49.109375 17.976562 -48.8125 15.875 -48.46875 C 13.769531 -48.132812 11.890625 -47.8125 10.234375 -47.5 C 8.585938 -47.1875 7.507812 -46.972656 7 -46.859375 L 5.296875 -29.359375 C 5.234375 -28.960938 5.21875 -28.535156 5.25 -28.078125 C 5.28125 -27.617188 5.296875 -27.164062 5.296875 -26.71875 C 5.296875 -26.144531 5.25 -25.769531 5.15625 -25.59375 C 5.070312 -25.425781 5.03125 -25.03125 5.03125 -24.40625 C 5.03125 -23.15625 5.054688 -21.71875 5.109375 -20.09375 C 5.171875 -18.476562 5.144531 -17.210938 5.03125 -16.296875 C 4.976562 -15.785156 4.9375 -14.773438 4.90625 -13.265625 C 4.875 -11.765625 4.84375 -10.015625 4.8125 -8.015625 C 4.789062 -6.023438 4.78125 -4.019531 4.78125 -2 C 4.78125 0.0195312 4.78125 1.851562 4.78125 3.5 C 4.78125 5.144531 4.804688 6.335938 4.859375 7.078125 C 4.859375 7.703125 4.929688 8.65625 5.078125 9.9375 C 5.222656 11.21875 5.25 12.367188 5.15625 13.390625 C 5.070312 14.421875 4.660156 14.9375 3.921875 14.9375 C 2.835938 14.9375 2.179688 14.335938 1.953125 13.140625 C 1.734375 11.941406 1.625 10.832031 1.625 9.8125 C 1.445312 7.757812 1.34375 5.367188 1.3125 2.640625 C 1.289062 -0.0859375 1.289062 -2.816406 1.3125 -5.546875 C 1.34375 -8.273438 1.359375 -10.664062 1.359375 -12.71875 L 1.625 -16.734375 C 1.625 -17.523438 1.625 -18.742188 1.625 -20.390625 C 1.625 -22.046875 1.648438 -23.796875 1.703125 -25.640625 C 1.765625 -27.492188 1.820312 -29.1875 1.875 -30.71875 C 1.9375 -32.257812 2.023438 -33.34375 2.140625 -33.96875 C 2.242188 -34.53125 2.3125 -35.207031 2.34375 -36 C 2.375 -36.800781 2.414062 -37.488281 2.46875 -38.0625 L 3.25 -46 C 3.019531 -45.945312 2.519531 -45.832031 1.75 -45.65625 C 0.976562 -45.488281 0.367188 -45.347656 -0.078125 -45.234375 C -2.867188 -44.546875 -5.53125 -43.816406 -8.0625 -43.046875 C -10.59375 -42.285156 -13.195312 -41.394531 -15.875 -40.375 C -16.382812 -40.144531 -16.851562 -39.898438 -17.28125 -39.640625 C -17.707031 -39.390625 -18.175781 -39.148438 -18.6875 -38.921875 C -19.375 -38.628906 -19.816406 -38.425781 -20.015625 -38.3125 C -20.210938 -38.207031 -20.3125 -38.066406 -20.3125 -37.890625 C -20.3125 -37.722656 -20.453125 -37.351562 -20.734375 -36.78125 C -20.960938 -36.726562 -21.191406 -36.6875 -21.421875 -36.65625 C -21.648438 -36.625 -21.90625 -36.609375 -22.1875 -36.609375 C -22.644531 -36.609375 -23.054688 -36.707031 -23.421875 -36.90625 C -23.796875 -37.101562 -23.984375 -37.488281 -23.984375 -38.0625 Z M -23.984375 -38.0625 "/></g></g></g><g clip-path="url(#ae78a9b7d3)"><g fill="#efe1ff" fill-opacity="1"><g transform="translate(545.224673, 83.578703)"><g><path d="M -0.515625 -7.078125 L 0 -16.734375 C 0.0507812 -17.359375 0.101562 -18.109375 0.15625 -18.984375 C 0.21875 -19.867188 0.28125 -20.625 0.34375 -21.25 C 0.457031 -24.09375 0.8125 -26.90625 1.40625 -29.6875 C 2 -32.476562 2.640625 -35.242188 3.328125 -37.984375 C 3.722656 -39.117188 4.035156 -39.867188 4.265625 -40.234375 C 4.492188 -40.609375 4.804688 -40.796875 5.203125 -40.796875 C 5.378906 -40.796875 5.578125 -40.78125 5.796875 -40.75 C 6.023438 -40.71875 6.285156 -40.675781 6.578125 -40.625 C 6.859375 -39.3125 6.796875 -37.757812 6.390625 -35.96875 C 5.992188 -34.175781 5.6875 -32.539062 5.46875 -31.0625 C 4.832031 -27.132812 4.316406 -22.8125 3.921875 -18.09375 C 3.523438 -13.375 3.328125 -8.878906 3.328125 -4.609375 L 3.578125 4.953125 L 4.265625 3.328125 C 5.066406 1.054688 5.734375 -0.859375 6.265625 -2.421875 C 6.804688 -3.992188 7.429688 -5.546875 8.140625 -7.078125 C 8.859375 -8.617188 9.816406 -10.5 11.015625 -12.71875 C 11.640625 -13.851562 12.25 -14.816406 12.84375 -15.609375 C 13.4375 -16.410156 14.363281 -16.8125 15.625 -16.8125 C 16.25 -16.8125 16.6875 -16.351562 16.9375 -15.4375 C 17.195312 -14.53125 17.351562 -13.535156 17.40625 -12.453125 C 17.46875 -11.378906 17.5 -10.585938 17.5 -10.078125 C 17.5 -8.484375 17.539062 -7.128906 17.625 -6.015625 C 17.707031 -4.910156 18.035156 -3.816406 18.609375 -2.734375 C 19.910156 -3.015625 21.015625 -3.851562 21.921875 -5.25 C 22.835938 -6.644531 23.664062 -7.851562 24.40625 -8.875 C 24.800781 -9.5 25.171875 -10.125 25.515625 -10.75 C 25.859375 -11.375 26.203125 -12.03125 26.546875 -12.71875 C 27.054688 -13.625 27.46875 -14.25 27.78125 -14.59375 C 28.09375 -14.9375 28.421875 -15.109375 28.765625 -15.109375 C 28.929688 -15.109375 29.242188 -15.050781 29.703125 -14.9375 C 29.984375 -13.914062 29.925781 -13.085938 29.53125 -12.453125 C 29.132812 -11.828125 28.707031 -11.085938 28.25 -10.234375 C 27.851562 -9.492188 27.3125 -8.539062 26.625 -7.375 C 25.945312 -6.207031 25.179688 -5.066406 24.328125 -3.953125 C 23.472656 -2.847656 22.5625 -1.910156 21.59375 -1.140625 C 20.625 -0.378906 19.628906 0 18.609375 0 C 16.722656 0 15.5 -1.675781 14.9375 -5.03125 C 14.757812 -6 14.644531 -7.289062 14.59375 -8.90625 C 14.539062 -10.53125 14.515625 -11.941406 14.515625 -13.140625 C 14.109375 -12.859375 13.617188 -12.203125 13.046875 -11.171875 C 12.484375 -10.148438 11.914062 -9 11.34375 -7.71875 C 10.78125 -6.4375 10.253906 -5.195312 9.765625 -4 C 9.285156 -2.8125 8.90625 -1.90625 8.625 -1.28125 C 7.9375 0.476562 7.378906 2.238281 6.953125 4 C 6.523438 5.769531 6.054688 7.453125 5.546875 9.046875 C 5.265625 9.953125 4.9375 10.535156 4.5625 10.796875 C 4.195312 11.054688 3.613281 11.1875 2.8125 11.1875 C 2.1875 11.1875 1.675781 10.644531 1.28125 9.5625 C 0.882812 8.476562 0.554688 7.125 0.296875 5.5 C 0.046875 3.882812 -0.132812 2.207031 -0.25 0.46875 C -0.363281 -1.269531 -0.4375 -2.832031 -0.46875 -4.21875 C -0.5 -5.613281 -0.515625 -6.566406 -0.515625 -7.078125 Z M -0.515625 -7.078125 "/></g></g></g></g></g></g><g fill="#504081" fill-opacity="1"><g transform="translate(840.851215, 182.286459)"><g><path d="M 16.382812 2.542969 C 13.394531 2.542969 10.960938 1.578125 9.085938 -0.347656 C 7.21875 -2.261719 6.285156 -4.621094 6.285156 -7.421875 C 6.285156 -10.324219 7.230469 -12.691406 9.113281 -14.527344 C 10.988281 -16.351562 13.410156 -17.261719 16.382812 -17.261719 C 19.4375 -17.261719 21.902344 -16.351562 23.777344 -14.527344 C 25.660156 -12.691406 26.605469 -10.324219 26.605469 -7.421875 C 26.605469 -4.621094 25.671875 -2.261719 23.804688 -0.347656 C 21.929688 1.578125 19.453125 2.542969 16.382812 2.542969 Z M 16.382812 -0.496094 C 18.597656 -0.496094 20.347656 -1.152344 21.628906 -2.46875 C 22.917969 -3.792969 23.5625 -5.445312 23.5625 -7.421875 C 23.5625 -9.46875 22.929688 -11.109375 21.65625 -12.347656 C 20.375 -13.597656 18.613281 -14.222656 16.382812 -14.222656 C 14.234375 -14.222656 12.519531 -13.597656 11.234375 -12.347656 C 9.960938 -11.109375 9.328125 -9.46875 9.328125 -7.421875 C 9.328125 -5.445312 9.972656 -3.792969 11.261719 -2.46875 C 12.542969 -1.152344 14.25 -0.496094 16.382812 -0.496094 Z M 16.382812 -0.496094 "/></g></g></g><g fill="#fef74b" fill-opacity="1"><g transform="translate(840.851215, 182.286459)"><g><path d="M 16.375 1.03125 C 13.820312 1.03125 11.753906 0.21875 10.171875 -1.40625 C 8.597656 -3.03125 7.8125 -5.035156 7.8125 -7.421875 C 7.8125 -9.898438 8.597656 -11.90625 10.171875 -13.4375 C 11.753906 -14.96875 13.820312 -15.734375 16.375 -15.734375 C 19.019531 -15.734375 21.128906 -14.96875 22.703125 -13.4375 C 24.285156 -11.90625 25.078125 -9.898438 25.078125 -7.421875 C 25.078125 -5.035156 24.285156 -3.03125 22.703125 -1.40625 C 21.128906 0.21875 19.019531 1.03125 16.375 1.03125 Z M 16.375 1.03125 "/></g></g></g></svg>