<svg xmlns="http://www.w3.org/2000/svg" xmlns:xlink="http://www.w3.org/1999/xlink" width="1548" zoomAndPan="magnify" viewBox="0 0 1161 296.999993" height="396" preserveAspectRatio="xMidYMid meet" version="1.0"><defs><g/></defs><g fill="#504081" fill-opacity="1"><g transform="translate(409.676958, 163.706181)"><g><path d="M 43.1875 16.015625 C 50.414062 16.015625 57.316406 14.421875 63.890625 11.234375 C 70.472656 8.054688 76.515625 4.015625 82.015625 -0.890625 C 87.515625 -5.796875 92.148438 -10.835938 95.921875 -16.015625 C 100.347656 -21.734375 104.234375 -28.066406 107.578125 -35.015625 C 110.921875 -41.972656 113.535156 -49.195312 115.421875 -56.6875 C 117.304688 -64.1875 118.25 -71.5 118.25 -78.625 C 118.25 -84.550781 117.410156 -90.019531 115.734375 -95.03125 C 114.066406 -100.050781 111.640625 -104.070312 108.453125 -107.09375 C 105.273438 -110.113281 101.421875 -111.625 96.890625 -111.625 C 91.929688 -111.625 87.296875 -110.140625 82.984375 -107.171875 C 78.671875 -104.203125 74.707031 -100.398438 71.09375 -95.765625 C 67.476562 -91.128906 64.347656 -86.328125 61.703125 -81.359375 C 59.066406 -76.398438 56.992188 -71.984375 55.484375 -68.109375 L 49.171875 -51.28125 C 47.234375 -45.457031 45.347656 -39.390625 43.515625 -33.078125 C 41.679688 -26.773438 40.171875 -20.707031 38.984375 -14.875 C 38.765625 -13.476562 38.382812 -11.40625 37.84375 -8.65625 C 37.3125 -5.90625 36.75 -2.992188 36.15625 0.078125 C 35.5625 3.148438 35.070312 6.007812 34.6875 8.65625 C 34.3125 11.300781 34.125 13.210938 34.125 14.390625 C 34.988281 14.828125 36.363281 15.207031 38.25 15.53125 C 40.144531 15.851562 41.789062 16.015625 43.1875 16.015625 Z M 34.125 -17.796875 C 34.125 -17.898438 34.148438 -17.953125 34.203125 -17.953125 C 34.265625 -17.953125 34.296875 -18.007812 34.296875 -18.125 L 36.234375 -25.875 C 37.640625 -31.707031 39.445312 -38.234375 41.65625 -45.453125 C 43.863281 -52.679688 46.421875 -59.929688 49.328125 -67.203125 C 52.242188 -74.484375 55.507812 -81.304688 59.125 -87.671875 C 62.738281 -94.035156 66.59375 -99.269531 70.6875 -103.375 C 74.570312 -107.25 78.535156 -110.535156 82.578125 -113.234375 C 86.617188 -115.929688 91.5 -117.28125 97.21875 -117.28125 C 101.644531 -117.28125 105.632812 -116.171875 109.1875 -113.953125 C 112.75 -111.742188 115.769531 -108.703125 118.25 -104.828125 C 121.164062 -100.191406 123.109375 -95.09375 124.078125 -89.53125 C 125.046875 -83.976562 125.257812 -78.265625 124.71875 -72.390625 C 124.175781 -66.515625 123.203125 -60.769531 121.796875 -55.15625 C 120.398438 -49.550781 118.84375 -44.484375 117.125 -39.953125 C 114.53125 -32.835938 110.753906 -25.640625 105.796875 -18.359375 C 100.835938 -11.078125 95.09375 -4.363281 88.5625 1.78125 C 82.039062 7.925781 74.953125 12.859375 67.296875 16.578125 C 59.640625 20.296875 51.765625 22.15625 43.671875 22.15625 C 41.085938 22.15625 39.015625 21.910156 37.453125 21.421875 C 35.890625 20.941406 34.351562 20.648438 32.84375 20.546875 L 30.578125 46.90625 C 30.359375 48.207031 30.191406 50.335938 30.078125 53.296875 C 29.972656 56.265625 29.867188 59.226562 29.765625 62.1875 C 29.660156 65.15625 29.5 67.453125 29.28125 69.078125 C 29.0625 71.660156 28.894531 74.140625 28.78125 76.515625 C 28.675781 78.890625 28.4375 80.832031 28.0625 82.34375 C 27.6875 83.851562 26.796875 84.609375 25.390625 84.609375 C 24.535156 84.609375 23.675781 84.390625 22.8125 83.953125 C 22.375 82.335938 22.128906 79.5625 22.078125 75.625 C 22.023438 71.6875 22.050781 67.398438 22.15625 62.765625 C 22.269531 58.128906 22.40625 53.757812 22.5625 49.65625 C 22.726562 45.5625 22.8125 42.488281 22.8125 40.4375 C 22.8125 38.0625 22.890625 35.957031 23.046875 34.125 C 23.210938 32.289062 23.296875 30.351562 23.296875 28.3125 C 23.296875 25.832031 23.347656 23.78125 23.453125 22.15625 C 23.566406 20.539062 23.625 18.65625 23.625 16.5 C 23.082031 15.957031 22.457031 15.46875 21.75 15.03125 C 21.050781 14.601562 20.378906 14.175781 19.734375 13.75 C 17.796875 12.34375 16.878906 10.9375 16.984375 9.53125 C 17.085938 8.132812 17.734375 7.4375 18.921875 7.4375 C 19.679688 7.4375 20.332031 7.65625 20.875 8.09375 C 21.625 8.519531 22.210938 8.894531 22.640625 9.21875 C 23.078125 9.539062 23.40625 9.703125 23.625 9.703125 C 24.050781 9.703125 24.238281 9.109375 24.1875 7.921875 C 24.132812 6.734375 24.160156 4.632812 24.265625 1.625 C 24.265625 0.21875 24.34375 -0.753906 24.5 -1.296875 C 24.664062 -1.835938 24.75 -2.753906 24.75 -4.046875 C 24.851562 -5.117188 24.878906 -6.222656 24.828125 -7.359375 C 24.773438 -8.492188 24.800781 -9.597656 24.90625 -10.671875 C 25.019531 -11.859375 25.128906 -12.828125 25.234375 -13.578125 C 25.335938 -14.335938 25.390625 -15.421875 25.390625 -16.828125 C 25.390625 -20.171875 25.5 -24.101562 25.71875 -28.625 C 25.9375 -33.15625 26.179688 -37.6875 26.453125 -42.21875 C 26.722656 -46.75 26.859375 -50.738281 26.859375 -54.1875 C 26.859375 -56.34375 26.9375 -59.226562 27.09375 -62.84375 C 27.257812 -66.457031 27.34375 -70.285156 27.34375 -74.328125 C 27.34375 -78.367188 27.234375 -82.140625 27.015625 -85.640625 C 26.796875 -89.148438 26.253906 -91.769531 25.390625 -93.5 C 24.210938 -92.75 23.082031 -91.425781 22 -89.53125 C 20.914062 -87.644531 19.914062 -85.625 19 -83.46875 C 18.082031 -81.3125 17.300781 -79.425781 16.65625 -77.8125 C 15.6875 -75.113281 14.820312 -71.90625 14.0625 -68.1875 C 13.3125 -64.46875 12.664062 -61.203125 12.125 -58.390625 C 11.695312 -54.722656 11.5625 -50.972656 11.71875 -47.140625 C 11.882812 -43.316406 12.238281 -39.789062 12.78125 -36.5625 C 13.53125 -32.894531 14.335938 -30.332031 15.203125 -28.875 C 16.066406 -27.414062 16.875 -26.46875 17.625 -26.03125 C 18.382812 -25.601562 18.875 -25.066406 19.09375 -24.421875 C 19.625 -23.671875 19.675781 -22.972656 19.25 -22.328125 C 18.820312 -21.679688 18.175781 -21.359375 17.3125 -21.359375 C 16.34375 -21.359375 15.179688 -21.894531 13.828125 -22.96875 C 12.484375 -24.050781 11.21875 -25.9375 10.03125 -28.625 C 8.84375 -31.863281 8.085938 -34.695312 7.765625 -37.125 C 7.441406 -39.550781 7.0625 -42.4375 6.625 -45.78125 C 6.519531 -46.851562 6.546875 -47.738281 6.703125 -48.4375 C 6.867188 -49.144531 6.953125 -50.203125 6.953125 -51.609375 C 6.953125 -57.535156 7.570312 -63.300781 8.8125 -68.90625 C 10.050781 -74.519531 11.695312 -79.914062 13.75 -85.09375 C 14.394531 -86.601562 15.285156 -88.539062 16.421875 -90.90625 C 17.554688 -93.28125 18.90625 -95.410156 20.46875 -97.296875 C 22.03125 -99.191406 23.671875 -100.140625 25.390625 -100.140625 C 27.660156 -100.140625 29.441406 -99.164062 30.734375 -97.21875 C 32.023438 -95.28125 32.96875 -92.828125 33.5625 -89.859375 C 34.15625 -86.890625 34.53125 -83.757812 34.6875 -80.46875 C 34.851562 -77.1875 34.9375 -74.195312 34.9375 -71.5 C 34.9375 -62.226562 34.800781 -53.113281 34.53125 -44.15625 C 34.257812 -35.207031 34.125 -26.421875 34.125 -17.796875 Z M 34.125 -17.796875 "/></g></g></g><g fill="#504081" fill-opacity="1"><g transform="translate(535.036172, 163.706181)"><g><path d="M 8.09375 -3.71875 C 9.707031 -4.15625 11.160156 -5.582031 12.453125 -8 C 13.742188 -10.425781 14.660156 -13.203125 15.203125 -16.328125 C 15.742188 -19.460938 15.878906 -22.347656 15.609375 -24.984375 C 15.335938 -27.628906 14.503906 -29.4375 13.109375 -30.40625 C 12.785156 -29.21875 12.191406 -27.519531 11.328125 -25.3125 C 10.460938 -23.101562 9.625 -20.675781 8.8125 -18.03125 C 8.007812 -15.394531 7.472656 -12.804688 7.203125 -10.265625 C 6.929688 -7.734375 7.226562 -5.550781 8.09375 -3.71875 Z M 0 -9.21875 C 0 -10.625 0.296875 -12.703125 0.890625 -15.453125 C 1.484375 -18.203125 2.316406 -21.164062 3.390625 -24.34375 C 4.472656 -27.53125 5.6875 -30.550781 7.03125 -33.40625 C 8.382812 -36.257812 9.84375 -38.601562 11.40625 -40.4375 C 12.96875 -42.269531 14.554688 -43.1875 16.171875 -43.1875 C 17.253906 -43.1875 18.007812 -42.703125 18.4375 -41.734375 C 18.875 -40.765625 18.984375 -39.957031 18.765625 -39.3125 C 18.546875 -38.769531 18.140625 -38.226562 17.546875 -37.6875 C 16.953125 -37.144531 16.441406 -36.550781 16.015625 -35.90625 C 16.234375 -35.15625 16.769531 -34.320312 17.625 -33.40625 C 18.488281 -32.488281 19.351562 -31.273438 20.21875 -29.765625 C 21.082031 -28.253906 21.648438 -26.203125 21.921875 -23.609375 C 22.191406 -21.023438 21.894531 -17.628906 21.03125 -13.421875 C 19.84375 -7.816406 17.953125 -3.613281 15.359375 -0.8125 C 12.773438 1.988281 10.242188 3.390625 7.765625 3.390625 C 5.710938 3.390625 3.90625 2.335938 2.34375 0.234375 C 0.78125 -1.859375 0 -5.007812 0 -9.21875 Z M 0 -9.21875 "/></g></g></g><g fill="#504081" fill-opacity="1"><g transform="translate(563.504848, 163.706181)"><g><path d="M 5.65625 -11.8125 C 5.65625 -10.84375 5.875 -10.359375 6.3125 -10.359375 C 7.0625 -10.359375 8.054688 -11.4375 9.296875 -13.59375 C 10.535156 -15.75 11.859375 -18.441406 13.265625 -21.671875 C 14.671875 -24.910156 16.019531 -28.171875 17.3125 -31.453125 C 18.601562 -34.742188 19.679688 -37.628906 20.546875 -40.109375 C 21.410156 -42.597656 21.84375 -44.054688 21.84375 -44.484375 C 20.007812 -44.265625 18.578125 -43.695312 17.546875 -42.78125 C 16.523438 -41.863281 15.582031 -40.8125 14.71875 -39.625 C 11.914062 -36.175781 9.703125 -31.941406 8.078125 -26.921875 C 6.460938 -21.910156 5.65625 -16.875 5.65625 -11.8125 Z M 24.109375 -48.859375 C 24.109375 -50.035156 24.296875 -51.054688 24.671875 -51.921875 C 25.046875 -52.785156 25.394531 -53.757812 25.71875 -54.84375 L 29.125 -73.125 C 29.445312 -74.300781 29.847656 -76.078125 30.328125 -78.453125 C 30.816406 -80.828125 31.488281 -83.09375 32.34375 -85.25 C 33.207031 -87.40625 34.289062 -88.59375 35.59375 -88.8125 C 35.800781 -88.8125 35.957031 -88.835938 36.0625 -88.890625 C 36.175781 -88.941406 36.285156 -88.96875 36.390625 -88.96875 C 37.898438 -88.96875 38.765625 -88.128906 38.984375 -86.453125 C 39.203125 -84.785156 39.066406 -82.765625 38.578125 -80.390625 C 38.097656 -78.023438 37.503906 -75.765625 36.796875 -73.609375 C 36.097656 -71.453125 35.640625 -69.882812 35.421875 -68.90625 C 32.835938 -60.175781 31.164062 -51.226562 30.40625 -42.0625 C 29.65625 -32.894531 29.359375 -23.671875 29.515625 -14.390625 C 29.679688 -5.117188 29.816406 4.046875 29.921875 13.109375 C 30.035156 16.554688 30.332031 19.332031 30.8125 21.4375 C 31.300781 23.539062 31.488281 25.019531 31.375 25.875 C 31.269531 26.738281 30.25 27.171875 28.3125 27.171875 C 27.125 27.171875 26.175781 25.847656 25.46875 23.203125 C 24.769531 20.566406 24.257812 17.117188 23.9375 12.859375 C 23.613281 8.597656 23.453125 4.039062 23.453125 -0.8125 C 23.453125 -5.664062 23.503906 -10.410156 23.609375 -15.046875 C 23.722656 -19.679688 23.832031 -23.671875 23.9375 -27.015625 C 24.050781 -30.359375 24.109375 -32.566406 24.109375 -33.640625 C 23.671875 -33.210938 23.394531 -32.941406 23.28125 -32.828125 C 23.175781 -32.722656 23.019531 -32.296875 22.8125 -31.546875 L 17.140625 -17.796875 C 16.390625 -16.179688 15.53125 -14.347656 14.5625 -12.296875 C 13.59375 -10.242188 12.378906 -8.460938 10.921875 -6.953125 C 9.460938 -5.441406 7.707031 -4.6875 5.65625 -4.6875 C 3.394531 -4.6875 1.859375 -5.765625 1.046875 -7.921875 C 0.242188 -10.078125 0.00390625 -12.851562 0.328125 -16.25 C 0.648438 -19.65625 1.429688 -23.242188 2.671875 -27.015625 C 3.910156 -30.785156 5.472656 -34.367188 7.359375 -37.765625 C 9.242188 -41.171875 11.34375 -43.953125 13.65625 -46.109375 C 15.976562 -48.265625 18.382812 -49.34375 20.875 -49.34375 C 21.726562 -49.34375 22.179688 -49.257812 22.234375 -49.09375 C 22.296875 -48.9375 22.921875 -48.859375 24.109375 -48.859375 Z M 24.109375 -48.859375 "/></g></g></g><g fill="#504081" fill-opacity="1"><g transform="translate(599.737711, 163.706181)"><g><path d="M 0 -22.15625 C 0 -24.101562 0.398438 -26.367188 1.203125 -28.953125 C 2.015625 -31.546875 3.148438 -34.082031 4.609375 -36.5625 C 6.066406 -39.039062 7.789062 -41.113281 9.78125 -42.78125 C 11.78125 -44.457031 13.96875 -45.296875 16.34375 -45.296875 C 19.789062 -45.296875 21.515625 -43.140625 21.515625 -38.828125 C 21.515625 -36.023438 20.8125 -34.625 19.40625 -34.625 C 17.789062 -34.625 16.820312 -36.023438 16.5 -38.828125 C 14.664062 -37.523438 12.910156 -35.3125 11.234375 -32.1875 C 9.566406 -29.0625 8.460938 -25.71875 7.921875 -22.15625 C 7.390625 -18.601562 7.769531 -15.476562 9.0625 -12.78125 C 9.601562 -11.375 10.382812 -10.1875 11.40625 -9.21875 C 12.425781 -8.25 13.910156 -7.765625 15.859375 -7.765625 C 19.628906 -7.765625 23.101562 -8.816406 26.28125 -10.921875 C 29.46875 -13.023438 32.378906 -15.554688 35.015625 -18.515625 C 37.660156 -21.484375 39.953125 -24.316406 41.890625 -27.015625 C 43.078125 -28.628906 44.15625 -29.4375 45.125 -29.4375 C 45.882812 -29.4375 46.425781 -29.054688 46.75 -28.296875 C 47.070312 -27.546875 46.960938 -26.632812 46.421875 -25.5625 C 46.210938 -25.019531 45.863281 -24.425781 45.375 -23.78125 C 44.882812 -23.132812 44.425781 -22.539062 44 -22 C 41.738281 -19.195312 39.148438 -16.285156 36.234375 -13.265625 C 33.328125 -10.242188 30.144531 -7.679688 26.6875 -5.578125 C 23.238281 -3.472656 19.570312 -2.421875 15.6875 -2.421875 C 12.019531 -2.421875 9.023438 -3.363281 6.703125 -5.25 C 4.390625 -7.144531 2.691406 -9.597656 1.609375 -12.609375 C 0.535156 -15.628906 0 -18.8125 0 -22.15625 Z M 0 -22.15625 "/></g></g></g><g fill="#504081" fill-opacity="1"><g transform="translate(638.882144, 163.706181)"><g><path d="M 0 -16.34375 C 0 -18.601562 0.535156 -21.40625 1.609375 -24.75 C 2.691406 -28.09375 4.203125 -31.40625 6.140625 -34.6875 C 8.085938 -37.976562 10.328125 -40.703125 12.859375 -42.859375 C 15.390625 -45.023438 18.0625 -46.109375 20.875 -46.109375 C 23.457031 -46.109375 25.554688 -45.351562 27.171875 -43.84375 C 28.796875 -42.332031 29.769531 -40.789062 30.09375 -39.21875 C 30.414062 -37.65625 29.875 -36.875 28.46875 -36.875 C 27.394531 -36.875 26.289062 -37.492188 25.15625 -38.734375 C 24.019531 -39.984375 22.695312 -40.609375 21.1875 -40.609375 C 20 -40.609375 18.566406 -39.90625 16.890625 -38.5 C 15.222656 -37.09375 13.207031 -34.34375 10.84375 -30.25 C 9.757812 -28.519531 8.757812 -26.28125 7.84375 -23.53125 C 6.925781 -20.78125 6.46875 -18.0625 6.46875 -15.375 C 6.6875 -15.582031 6.765625 -15.660156 6.703125 -15.609375 C 6.648438 -15.554688 6.84375 -15.742188 7.28125 -16.171875 L 8.578125 -18.125 C 9.441406 -19.414062 10.4375 -21.082031 11.5625 -23.125 C 12.695312 -25.175781 13.859375 -27.253906 15.046875 -29.359375 C 16.234375 -31.460938 17.3125 -33.238281 18.28125 -34.6875 C 19.25 -36.144531 20.003906 -36.875 20.546875 -36.875 C 22.484375 -36.875 23.613281 -36.171875 23.9375 -34.765625 C 24.257812 -33.367188 24.394531 -31.644531 24.34375 -29.59375 C 24.289062 -27.550781 24.476562 -25.503906 24.90625 -23.453125 C 25.550781 -20.546875 26.546875 -18.414062 27.890625 -17.0625 C 29.242188 -15.71875 30.785156 -15.046875 32.515625 -15.046875 C 35.535156 -15.046875 38.878906 -16.878906 42.546875 -20.546875 C 44.054688 -21.941406 45.132812 -23.097656 45.78125 -24.015625 C 46.425781 -24.929688 47.289062 -25.984375 48.375 -27.171875 C 49.125 -28.253906 50.09375 -28.796875 51.28125 -28.796875 C 52.46875 -28.796875 52.976562 -27.796875 52.8125 -25.796875 C 52.65625 -23.804688 50.523438 -20.816406 46.421875 -16.828125 L 41.578125 -12.9375 C 38.441406 -10.78125 35.421875 -9.703125 32.515625 -9.703125 C 29.816406 -9.703125 27.46875 -10.507812 25.46875 -12.125 C 23.476562 -13.75 21.941406 -15.742188 20.859375 -18.109375 C 19.785156 -20.484375 19.25 -22.804688 19.25 -25.078125 C 18.5 -24.535156 17.632812 -23.347656 16.65625 -21.515625 C 15.6875 -19.679688 14.632812 -17.710938 13.5 -15.609375 C 12.375 -13.503906 11.21875 -11.671875 10.03125 -10.109375 C 8.84375 -8.546875 7.65625 -7.765625 6.46875 -7.765625 C 3.445312 -7.765625 1.613281 -8.460938 0.96875 -9.859375 C 0.320312 -11.265625 0 -13.425781 0 -16.34375 Z M 0 -16.34375 "/></g></g></g><g fill="#504081" fill-opacity="1"><g transform="translate(685.790741, 163.706181)"><g><path d="M 1.9375 26.6875 C 1.9375 28.957031 2.640625 30.09375 4.046875 30.09375 C 4.796875 30.09375 5.601562 29.820312 6.46875 29.28125 C 7.332031 28.738281 8.035156 28.253906 8.578125 27.828125 C 10.734375 26.203125 12.644531 23.742188 14.3125 20.453125 C 15.988281 17.171875 17.203125 14.179688 17.953125 11.484375 C 18.492188 9.648438 18.789062 7.789062 18.84375 5.90625 C 18.894531 4.019531 18.921875 1.941406 18.921875 -0.328125 C 17.628906 0.429688 16.144531 1.753906 14.46875 3.640625 C 12.800781 5.523438 11.484375 7.0625 10.515625 8.25 C 8.578125 10.625 6.660156 13.484375 4.765625 16.828125 C 2.878906 20.171875 1.9375 23.457031 1.9375 26.6875 Z M 0.484375 -26.203125 C 0.484375 -29.003906 1.238281 -31.507812 2.75 -33.71875 C 4.257812 -35.9375 6.066406 -37.71875 8.171875 -39.0625 C 10.273438 -40.414062 12.082031 -41.09375 13.59375 -41.09375 C 14.78125 -41.09375 15.664062 -40.660156 16.25 -39.796875 C 16.84375 -38.929688 16.875 -37.472656 16.34375 -35.421875 C 15.039062 -35.097656 14.117188 -34.910156 13.578125 -34.859375 C 13.046875 -34.804688 12.617188 -34.644531 12.296875 -34.375 C 11.972656 -34.101562 11.378906 -33.484375 10.515625 -32.515625 C 8.359375 -30.140625 7.359375 -28.222656 7.515625 -26.765625 C 7.679688 -25.316406 8.546875 -23.972656 10.109375 -22.734375 C 11.671875 -21.492188 13.609375 -19.957031 15.921875 -18.125 C 18.242188 -16.289062 20.429688 -13.804688 22.484375 -10.671875 C 24.859375 -12.296875 27.285156 -14.1875 29.765625 -16.34375 L 44.8125 -26.859375 C 46.207031 -27.828125 47.414062 -28.5 48.4375 -28.875 C 49.46875 -29.25 50.363281 -29.4375 51.125 -29.4375 C 52.414062 -29.4375 52.953125 -28.894531 52.734375 -27.8125 C 52.515625 -26.738281 51.488281 -25.664062 49.65625 -24.59375 L 38.65625 -16.984375 C 38.226562 -16.765625 37.3125 -16.144531 35.90625 -15.125 C 34.507812 -14.101562 32.972656 -12.972656 31.296875 -11.734375 C 29.628906 -10.492188 28.203125 -9.332031 27.015625 -8.25 C 25.828125 -7.164062 25.179688 -6.460938 25.078125 -6.140625 C 24.960938 -5.609375 25.117188 -4.585938 25.546875 -3.078125 C 25.984375 -1.566406 26.28125 0.398438 26.4375 2.828125 C 26.601562 5.253906 26.28125 8.21875 25.46875 11.71875 C 24.664062 15.226562 22.914062 19.300781 20.21875 23.9375 C 17.84375 27.925781 15.253906 30.863281 12.453125 32.75 C 9.648438 34.644531 7.007812 35.59375 4.53125 35.59375 C 2.257812 35.59375 0.398438 34.835938 -1.046875 33.328125 C -2.503906 31.816406 -3.234375 29.601562 -3.234375 26.6875 C -3.234375 23.019531 -2.34375 19.460938 -0.5625 16.015625 C 1.21875 12.566406 3.347656 9.382812 5.828125 6.46875 C 8.304688 3.5625 10.597656 1.054688 12.703125 -1.046875 C 14.804688 -3.148438 16.179688 -4.6875 16.828125 -5.65625 C 15.523438 -7.925781 13.957031 -9.894531 12.125 -11.5625 C 10.289062 -13.238281 8.484375 -14.773438 6.703125 -16.171875 C 4.929688 -17.578125 3.453125 -19.0625 2.265625 -20.625 C 1.078125 -22.1875 0.484375 -24.046875 0.484375 -26.203125 Z M 0.484375 -26.203125 "/></g></g></g><g fill="#504081" fill-opacity="1"><g transform="translate(732.53761, 163.706181)"><g><path d="M -45.453125 -72.140625 C -45.453125 -73.546875 -44.15625 -75.03125 -41.5625 -76.59375 C -38.976562 -78.15625 -35.71875 -79.691406 -31.78125 -81.203125 C -27.84375 -82.710938 -23.691406 -84.140625 -19.328125 -85.484375 C -14.960938 -86.835938 -10.945312 -88 -7.28125 -88.96875 C -3.613281 -89.9375 -0.863281 -90.691406 0.96875 -91.234375 C 3.238281 -91.878906 4.832031 -92.253906 5.75 -92.359375 C 6.664062 -92.472656 7.253906 -92.828125 7.515625 -93.421875 C 7.785156 -94.015625 8.082031 -95.226562 8.40625 -97.0625 C 9.269531 -101.476562 10.269531 -104.519531 11.40625 -106.1875 C 12.539062 -107.863281 13.644531 -108.703125 14.71875 -108.703125 C 15.582031 -108.703125 16.3125 -108.242188 16.90625 -107.328125 C 17.5 -106.410156 17.796875 -105.304688 17.796875 -104.015625 C 17.796875 -103.046875 17.738281 -102.640625 17.625 -102.796875 C 17.519531 -102.960938 17.519531 -102.613281 17.625 -101.75 C 17.625 -101.53125 17.648438 -101.257812 17.703125 -100.9375 C 17.765625 -100.613281 17.796875 -100.179688 17.796875 -99.640625 C 17.796875 -98.242188 17.523438 -97.546875 16.984375 -97.546875 C 16.441406 -97.546875 15.898438 -97.460938 15.359375 -97.296875 C 14.828125 -97.140625 14.5625 -96.195312 14.5625 -94.46875 C 15.851562 -94.46875 17.28125 -94.65625 18.84375 -95.03125 C 20.40625 -95.414062 21.78125 -95.660156 22.96875 -95.765625 C 27.71875 -96.628906 32.460938 -97.410156 37.203125 -98.109375 C 41.953125 -98.804688 46.804688 -99.15625 51.765625 -99.15625 C 54.347656 -99.15625 56.234375 -98.613281 57.421875 -97.53125 C 58.609375 -96.457031 59.039062 -95.378906 58.71875 -94.296875 C 58.394531 -93.222656 57.207031 -92.6875 55.15625 -92.6875 C 54.945312 -93.550781 54.8125 -93.957031 54.75 -93.90625 C 54.695312 -93.851562 54.1875 -93.929688 53.21875 -94.140625 C 52.789062 -94.253906 51.925781 -94.3125 50.625 -94.3125 C 48.363281 -94.3125 45.375 -94.066406 41.65625 -93.578125 C 37.9375 -93.097656 34.082031 -92.53125 30.09375 -91.875 C 26.101562 -91.226562 22.539062 -90.609375 19.40625 -90.015625 C 16.28125 -89.429688 14.234375 -89.03125 13.265625 -88.8125 L 10.03125 -55.640625 C 9.925781 -54.890625 9.898438 -54.082031 9.953125 -53.21875 C 10.003906 -52.351562 10.03125 -51.488281 10.03125 -50.625 C 10.03125 -49.550781 9.945312 -48.851562 9.78125 -48.53125 C 9.625 -48.207031 9.546875 -47.453125 9.546875 -46.265625 C 9.546875 -43.890625 9.597656 -41.164062 9.703125 -38.09375 C 9.816406 -35.019531 9.765625 -32.617188 9.546875 -30.890625 C 9.429688 -29.921875 9.347656 -28.007812 9.296875 -25.15625 C 9.242188 -22.300781 9.191406 -18.984375 9.140625 -15.203125 C 9.085938 -11.429688 9.0625 -7.628906 9.0625 -3.796875 C 9.0625 0.0234375 9.0625 3.5 9.0625 6.625 C 9.0625 9.757812 9.113281 12.023438 9.21875 13.421875 C 9.21875 14.609375 9.351562 16.414062 9.625 18.84375 C 9.894531 21.269531 9.945312 23.453125 9.78125 25.390625 C 9.625 27.335938 8.84375 28.3125 7.4375 28.3125 C 5.394531 28.3125 4.15625 27.175781 3.71875 24.90625 C 3.289062 22.644531 3.078125 20.546875 3.078125 18.609375 C 2.753906 14.722656 2.5625 10.191406 2.5 5.015625 C 2.445312 -0.160156 2.445312 -5.335938 2.5 -10.515625 C 2.5625 -15.691406 2.59375 -20.222656 2.59375 -24.109375 L 3.078125 -31.703125 C 3.078125 -33.210938 3.078125 -35.53125 3.078125 -38.65625 C 3.078125 -41.789062 3.128906 -45.109375 3.234375 -48.609375 C 3.335938 -52.117188 3.441406 -55.328125 3.546875 -58.234375 C 3.660156 -61.148438 3.828125 -63.195312 4.046875 -64.375 C 4.265625 -65.457031 4.398438 -66.753906 4.453125 -68.265625 C 4.503906 -69.773438 4.582031 -71.066406 4.6875 -72.140625 L 6.140625 -87.1875 C 5.710938 -87.082031 4.769531 -86.867188 3.3125 -86.546875 C 1.851562 -86.222656 0.695312 -85.953125 -0.15625 -85.734375 C -5.445312 -84.441406 -10.488281 -83.066406 -15.28125 -81.609375 C -20.082031 -80.148438 -25.019531 -78.453125 -30.09375 -76.515625 C -31.0625 -76.085938 -31.945312 -75.628906 -32.75 -75.140625 C -33.5625 -74.648438 -34.453125 -74.191406 -35.421875 -73.765625 C -36.722656 -73.222656 -37.5625 -72.84375 -37.9375 -72.625 C -38.3125 -72.414062 -38.5 -72.148438 -38.5 -71.828125 C -38.5 -71.503906 -38.769531 -70.800781 -39.3125 -69.71875 C -39.738281 -69.613281 -40.164062 -69.53125 -40.59375 -69.46875 C -41.03125 -69.414062 -41.519531 -69.390625 -42.0625 -69.390625 C -42.925781 -69.390625 -43.707031 -69.578125 -44.40625 -69.953125 C -45.101562 -70.335938 -45.453125 -71.066406 -45.453125 -72.140625 Z M -45.453125 -72.140625 "/></g></g></g><path stroke-linecap="butt" transform="matrix(0.75, 0, 0, 0.75, 791.975986, 36.581189)" fill="none" stroke-linejoin="miter" d="M 21.828895 201.376136 C 18.412228 201.376136 15.651811 200.292803 13.537228 198.126136 C 11.459103 195.959469 10.417436 193.277177 10.417436 190.084469 C 10.417436 186.808427 11.459103 184.14176 13.537228 182.084468 C 15.651811 180.032385 18.412228 179.001135 21.828895 179.001135 C 25.354937 179.001135 28.177854 180.032385 30.287229 182.084468 C 32.396604 184.14176 33.453896 186.808427 33.453896 190.084469 C 33.453896 193.277177 32.396604 195.959469 30.287229 198.126136 C 28.177854 200.292803 25.354937 201.376136 21.828895 201.376136 Z M 21.828895 201.376136 " stroke="#504081" stroke-width="4.052866" stroke-opacity="1" stroke-miterlimit="4"/><g fill="#fef74b" fill-opacity="1"><g transform="translate(791.975986, 186.581179)"><g><path d="M 16.375 1.03125 C 13.820312 1.03125 11.753906 0.21875 10.171875 -1.40625 C 8.597656 -3.03125 7.8125 -5.035156 7.8125 -7.421875 C 7.8125 -9.898438 8.597656 -11.90625 10.171875 -13.4375 C 11.753906 -14.96875 13.820312 -15.734375 16.375 -15.734375 C 19.019531 -15.734375 21.128906 -14.96875 22.703125 -13.4375 C 24.285156 -11.90625 25.078125 -9.898438 25.078125 -7.421875 C 25.078125 -5.035156 24.285156 -3.03125 22.703125 -1.40625 C 21.128906 0.21875 19.019531 1.03125 16.375 1.03125 Z M 16.375 1.03125 "/></g></g></g></svg>