<svg xmlns="http://www.w3.org/2000/svg" width="17" height="19" viewBox="0 0 17 19" fill="none">
  <path d="M16.625 7.79297H16.5879C14.8809 7.79297 13.3223 7.27344 12.0605 6.3457V12.9883C12.0605 16.3281 9.35156 19 6.01172 19C2.67188 19 0 16.3281 0 12.9883C0 9.64844 2.67188 6.93945 6.01172 6.93945C6.30859 6.93945 6.56836 6.97656 6.86523 7.01367V10.3535C6.56836 10.2422 6.30859 10.2051 6.01172 10.2051C4.49023 10.2051 3.22852 11.4668 3.22852 12.9883C3.22852 14.5098 4.49023 15.7715 6.01172 15.7715C7.5332 15.7715 8.79492 14.5098 8.79492 12.9883V0H12.0605C12.0605 0.0371094 12.0605 0.0371094 12.0605 0.0742188C12.0605 0.333984 12.0605 0.59375 12.1348 0.853516C12.3574 2.07812 13.0996 3.1543 14.1387 3.82227C14.8438 4.30469 15.6973 4.56445 16.5879 4.56445C16.5879 4.56445 16.5879 4.56445 16.625 4.56445V7.79297Z" fill="white"></path>
</svg>