<svg xmlns="http://www.w3.org/2000/svg" width="16" height="13" viewBox="0 0 16 13" fill="none">
  <path d="M15.6719 1.79198C15.0887 2.04994 14.4703 2.21935 13.837 2.29461C14.5045 1.89543 15.004 1.26719 15.2426 0.526976C14.6162 0.899753 13.9295 1.161 13.2137 1.30232C12.7329 0.787904 12.0957 0.446739 11.401 0.331867C10.7063 0.216994 9.99311 0.334851 9.37232 0.667113C8.75153 0.999376 8.2579 1.52743 7.96818 2.16918C7.67845 2.81093 7.60887 3.53042 7.77024 4.21579C6.49998 4.15213 5.2573 3.82203 4.12289 3.24693C2.98848 2.67183 1.9877 1.86458 1.18552 0.877601C0.901576 1.36531 0.752361 1.91972 0.75316 2.48406C0.75316 3.5917 1.31691 4.57024 2.17399 5.14315C1.66678 5.12719 1.17073 4.99021 0.727187 4.74364V4.78336C0.727341 5.52105 0.982608 6.23599 1.44971 6.80695C1.91681 7.37791 2.567 7.76977 3.29003 7.91607C2.81918 8.04367 2.32548 8.06248 1.84628 7.97107C2.05014 8.60604 2.44747 9.16136 2.98264 9.55928C3.51781 9.9572 4.16402 10.1778 4.8308 10.1902C4.16811 10.7106 3.40934 11.0954 2.59786 11.3224C1.78638 11.5494 0.938118 11.6142 0.101562 11.5132C1.56189 12.4524 3.26184 12.951 4.99809 12.9493C10.8747 12.9493 14.0884 8.08107 14.0884 3.85906C14.0884 3.72156 14.0845 3.58253 14.0784 3.44656C14.704 2.99446 15.2438 2.43442 15.6727 1.79274L15.6719 1.79198Z" fill="white"></path>
</svg>