<svg xmlns="http://www.w3.org/2000/svg" xmlns:xlink="http://www.w3.org/1999/xlink" width="300" zoomAndPan="magnify" viewBox="0 0 224.87999 225" height="300" preserveAspectRatio="xMidYMid meet" version="1.0"><defs><clipPath id="83136b2830"><path d="M 48.378906 48.4375 L 176.5625 48.4375 L 176.5625 176.621094 L 48.378906 176.621094 Z M 48.378906 48.4375 " clip-rule="nonzero"/></clipPath></defs><g clip-path="url(#83136b2830)"><path fill="#fef74b" d="M 112.4375 48.4375 C 130.128906 48.4375 146.144531 55.609375 157.734375 67.203125 C 169.328125 78.792969 176.5 94.808594 176.5 112.496094 C 176.5 130.1875 169.328125 146.203125 157.734375 157.796875 C 146.144531 169.386719 130.128906 176.558594 112.4375 176.558594 C 94.75 176.558594 78.734375 169.386719 67.140625 157.796875 C 55.546875 146.203125 48.378906 130.1875 48.378906 112.496094 C 48.378906 94.808594 55.546875 78.792969 67.140625 67.203125 C 78.734375 55.609375 94.75 48.4375 112.4375 48.4375 " fill-opacity="1" fill-rule="nonzero"/></g><path fill="#fab713" d="M 112.4375 57.414062 C 127.648438 57.414062 141.421875 63.582031 151.386719 73.550781 C 161.355469 83.515625 167.523438 97.289062 167.523438 112.496094 C 167.523438 127.710938 161.355469 141.480469 151.386719 151.449219 C 141.421875 161.417969 127.648438 167.582031 112.4375 167.582031 C 97.226562 167.582031 83.457031 161.417969 73.488281 151.449219 C 63.519531 141.480469 57.355469 127.707031 57.355469 112.496094 C 57.355469 97.289062 63.519531 83.515625 73.488281 73.550781 C 83.457031 63.582031 97.226562 57.414062 112.4375 57.414062 " fill-opacity="1" fill-rule="nonzero"/><path fill="#504081" d="M 121.96875 107.550781 L 121.96875 136.496094 C 123.019531 135.828125 124.359375 134.789062 125.910156 133.171875 C 126.367188 132.578125 127.125 132.242188 127.917969 132.355469 C 129.09375 132.523438 129.914062 133.617188 129.746094 134.792969 L 129.742188 134.792969 C 129.226562 138.394531 126.617188 143.066406 123.148438 146.5625 C 120.0625 149.671875 116.234375 151.945312 112.4375 151.945312 C 109.816406 151.945312 107.433594 150.875 105.707031 149.148438 C 103.980469 147.421875 102.910156 145.039062 102.910156 142.417969 L 102.910156 113.472656 C 101.859375 114.140625 100.519531 115.179688 98.96875 116.796875 C 98.507812 117.390625 97.753906 117.726562 96.960938 117.613281 C 95.78125 117.445312 94.960938 116.355469 95.128906 115.175781 L 95.136719 115.175781 C 95.648438 111.574219 98.261719 106.90625 101.730469 103.40625 C 104.8125 100.300781 108.640625 98.023438 112.4375 98.023438 C 115.0625 98.023438 117.445312 99.09375 119.167969 100.820312 C 120.894531 102.546875 121.96875 104.929688 121.96875 107.550781 " fill-opacity="1" fill-rule="evenodd"/><path fill="#504081" d="M 109.988281 73.050781 C 112.773438 73.050781 115.292969 74.179688 117.117188 76.003906 C 118.941406 77.828125 120.074219 80.347656 120.074219 83.132812 C 120.074219 85.917969 118.941406 88.4375 117.117188 90.261719 C 115.292969 92.085938 112.773438 93.214844 109.988281 93.214844 C 107.207031 93.214844 104.683594 92.085938 102.859375 90.261719 C 101.035156 88.4375 99.90625 85.917969 99.90625 83.132812 C 99.90625 80.347656 101.035156 77.828125 102.859375 76.003906 C 104.683594 74.179688 107.207031 73.050781 109.988281 73.050781 " fill-opacity="1" fill-rule="evenodd"/></svg>