<svg xmlns="http://www.w3.org/2000/svg" xmlns:xlink="http://www.w3.org/1999/xlink" width="300" zoomAndPan="magnify" viewBox="0 0 224.87999 225" height="300" preserveAspectRatio="xMidYMid meet" version="1.0"><defs><clipPath id="03b267687c"><path d="M 67.464844 73 L 157.414062 73 L 157.414062 152 L 67.464844 152 Z M 67.464844 73 " clip-rule="nonzero"/></clipPath></defs><path fill="#fab713" d="M 106.117188 126.792969 C 105.847656 126.792969 105.640625 126.730469 105.371094 126.566406 C 104.644531 126.210938 104.3125 125.257812 104.6875 124.46875 L 117.390625 99.160156 C 117.765625 98.371094 118.71875 98.0625 119.507812 98.414062 C 120.296875 98.851562 120.609375 99.785156 120.234375 100.53125 L 107.53125 125.878906 C 107.21875 126.460938 106.699219 126.792969 106.117188 126.792969 Z M 106.117188 126.792969 " fill-opacity="1" fill-rule="evenodd"/><path fill="#fab713" d="M 100.574219 126.792969 C 100.203125 126.792969 99.847656 126.628906 99.515625 126.355469 L 84.757812 113.714844 C 84.382812 113.402344 84.175781 112.96875 84.175781 112.488281 C 84.175781 112.03125 84.382812 111.597656 84.757812 111.285156 L 99.578125 98.644531 C 100.203125 98.0625 101.21875 98.164062 101.78125 98.851562 C 102.359375 99.472656 102.257812 100.46875 101.570312 101.050781 L 88.183594 112.488281 L 101.632812 123.992188 C 102.257812 124.570312 102.359375 125.566406 101.78125 126.210938 C 101.46875 126.566406 100.992188 126.792969 100.574219 126.792969 Z M 100.574219 126.792969 " fill-opacity="1" fill-rule="evenodd"/><path fill="#fab713" d="M 124.304688 126.792969 C 123.828125 126.792969 123.410156 126.566406 123.078125 126.210938 C 122.519531 125.566406 122.621094 124.570312 123.246094 123.992188 L 136.699219 112.488281 L 123.246094 101.050781 C 122.621094 100.46875 122.519531 99.472656 123.078125 98.851562 C 123.660156 98.164062 124.679688 98.0625 125.300781 98.644531 L 140.164062 111.285156 C 140.539062 111.597656 140.703125 112.03125 140.703125 112.488281 C 140.746094 112.96875 140.539062 113.402344 140.164062 113.714844 L 125.300781 126.355469 C 125.03125 126.628906 124.679688 126.792969 124.304688 126.792969 Z M 124.304688 126.792969 " fill-opacity="1" fill-rule="evenodd"/><g clip-path="url(#03b267687c)"><path fill="#fab713" d="M 146.121094 151.144531 L 78.757812 151.144531 C 72.53125 151.144531 67.464844 146.078125 67.464844 139.851562 L 67.464844 85.128906 C 67.464844 78.921875 72.53125 73.855469 78.757812 73.855469 L 146.121094 73.855469 C 152.351562 73.855469 157.414062 78.921875 157.414062 85.128906 L 157.414062 139.851562 C 157.414062 146.078125 152.351562 151.144531 146.121094 151.144531 Z M 78.757812 77.011719 C 74.273438 77.011719 70.640625 80.664062 70.640625 85.128906 L 70.640625 139.851562 C 70.640625 144.335938 74.273438 147.988281 78.757812 147.988281 L 146.121094 147.988281 C 150.605469 147.988281 154.238281 144.335938 154.238281 139.851562 L 154.238281 85.128906 C 154.238281 80.664062 150.605469 77.011719 146.121094 77.011719 Z M 78.757812 77.011719 " fill-opacity="1" fill-rule="evenodd"/></g><path fill="#fab713" d="M 146.121094 142.757812 L 143.445312 142.757812 C 142.59375 142.757812 141.867188 142.070312 141.867188 141.179688 C 141.867188 140.328125 142.59375 139.601562 143.445312 139.601562 L 145.875 139.601562 L 145.875 85.398438 L 106.535156 85.398438 C 105.640625 85.398438 104.957031 84.714844 104.957031 83.820312 C 104.957031 82.96875 105.640625 82.242188 106.535156 82.242188 L 146.121094 82.242188 C 147.699219 82.242188 149.027344 83.550781 149.027344 85.128906 L 149.027344 139.851562 C 149.027344 141.449219 147.699219 142.757812 146.121094 142.757812 Z M 137.488281 142.757812 L 128.3125 142.757812 C 127.417969 142.757812 126.734375 142.070312 126.734375 141.179688 C 126.734375 140.328125 127.417969 139.601562 128.3125 139.601562 L 137.488281 139.601562 C 138.316406 139.601562 139.0625 140.328125 139.0625 141.179688 C 139.0625 142.070312 138.316406 142.757812 137.488281 142.757812 Z M 122.289062 142.757812 L 78.757812 142.757812 C 77.179688 142.757812 75.851562 141.449219 75.851562 139.851562 L 75.851562 85.128906 C 75.851562 83.550781 77.179688 82.242188 78.757812 82.242188 L 85.339844 82.242188 C 86.230469 82.242188 86.914062 82.96875 86.914062 83.820312 C 86.914062 84.714844 86.230469 85.398438 85.339844 85.398438 L 79.007812 85.398438 L 79.007812 139.601562 L 122.289062 139.601562 C 123.140625 139.601562 123.890625 140.328125 123.890625 141.179688 C 123.890625 142.070312 123.140625 142.757812 122.289062 142.757812 Z M 100.535156 85.398438 L 91.359375 85.398438 C 90.507812 85.398438 89.761719 84.714844 89.761719 83.820312 C 89.761719 82.96875 90.507812 82.242188 91.359375 82.242188 L 100.535156 82.242188 C 101.425781 82.242188 102.113281 82.96875 102.113281 83.820312 C 102.113281 84.714844 101.425781 85.398438 100.535156 85.398438 Z M 100.535156 85.398438 " fill-opacity="1" fill-rule="evenodd"/></svg>