<svg xmlns="http://www.w3.org/2000/svg" xmlns:xlink="http://www.w3.org/1999/xlink" width="300" zoomAndPan="magnify" viewBox="0 0 224.87999 225" height="300" preserveAspectRatio="xMidYMid meet" version="1.0"><defs><clipPath id="b2ed1a9efa"><path d="M 67.464844 87 L 157.414062 87 L 157.414062 148.59375 L 67.464844 148.59375 Z M 67.464844 87 " clip-rule="nonzero"/></clipPath><clipPath id="c86c7254d6"><path d="M 90 76.632812 L 136 76.632812 L 136 96 L 90 96 Z M 90 76.632812 " clip-rule="nonzero"/></clipPath></defs><g clip-path="url(#b2ed1a9efa)"><path fill="#fab713" d="M 154.535156 137.039062 L 151.449219 137.039062 C 151.585938 136.617188 151.726562 136.125 151.726562 135.5625 L 151.726562 92.167969 C 151.726562 89.777344 149.832031 87.882812 147.445312 87.882812 L 135.929688 87.882812 C 136.210938 88.515625 136.421875 89.21875 136.421875 89.988281 C 136.421875 90.058594 136.421875 90.128906 136.421875 90.199219 L 137.402344 91.746094 C 137.613281 92.097656 137.824219 92.449219 137.894531 92.867188 L 142.460938 92.867188 C 144.847656 92.867188 146.8125 94.835938 146.8125 97.222656 L 146.8125 130.648438 C 146.8125 133.035156 144.847656 135 142.460938 135 L 82.351562 135 C 79.964844 135 77.996094 133.035156 77.996094 130.648438 L 77.996094 97.152344 C 77.996094 94.765625 79.964844 92.796875 82.351562 92.796875 L 93.65625 92.796875 L 93.65625 88.304688 L 92.109375 87.882812 L 77.363281 87.882812 C 74.976562 87.882812 73.082031 89.777344 73.082031 92.167969 L 73.082031 135.5625 C 73.082031 136.054688 73.152344 136.546875 73.363281 137.039062 L 70.273438 137.039062 C 68.726562 137.039062 67.464844 138.300781 67.464844 139.847656 L 67.464844 142.9375 C 67.464844 145.886719 69.851562 148.273438 72.800781 148.273438 L 152.078125 148.273438 C 155.027344 148.273438 157.414062 145.886719 157.414062 142.9375 L 157.414062 139.847656 C 157.347656 138.300781 156.082031 137.039062 154.535156 137.039062 Z M 119.425781 138.441406 C 119.425781 139.214844 118.792969 139.847656 118.023438 139.847656 L 106.789062 139.847656 C 106.015625 139.847656 105.382812 139.214844 105.382812 138.441406 C 105.382812 137.667969 104.75 137.039062 103.976562 137.039062 L 120.832031 137.039062 C 120.058594 137.039062 119.425781 137.667969 119.425781 138.441406 Z M 119.425781 138.441406 " fill-opacity="1" fill-rule="nonzero"/></g><g clip-path="url(#c86c7254d6)"><path fill="#fab713" d="M 133.332031 90.761719 C 133.402344 90.550781 133.472656 90.269531 133.472656 89.988281 C 133.472656 89.359375 133.191406 88.796875 132.769531 88.445312 L 132.769531 83.671875 C 132.769531 83.671875 132.769531 83.671875 132.769531 83.601562 C 132.769531 83.460938 132.769531 83.390625 132.699219 83.320312 C 132.699219 83.25 132.699219 83.25 132.628906 83.179688 C 132.628906 83.109375 132.558594 83.039062 132.558594 82.96875 C 132.488281 82.898438 132.417969 82.757812 132.347656 82.6875 C 132.207031 82.546875 131.996094 82.40625 131.714844 82.335938 L 112.195312 76.789062 C 111.914062 76.71875 111.703125 76.71875 111.421875 76.789062 L 91.902344 82.265625 C 91.269531 82.40625 90.847656 82.96875 90.847656 83.601562 C 90.847656 84.230469 91.269531 84.792969 91.902344 84.933594 L 112.195312 90.550781 C 112.335938 90.550781 112.476562 90.621094 112.546875 90.621094 C 112.6875 90.621094 112.828125 90.621094 112.964844 90.550781 L 129.960938 85.496094 L 129.960938 88.375 C 129.539062 88.726562 129.257812 89.289062 129.257812 89.917969 C 129.257812 90.410156 129.398438 90.832031 129.679688 91.183594 L 128.554688 93.289062 C 128.203125 93.992188 128.414062 94.835938 129.117188 95.1875 C 129.328125 95.328125 129.539062 95.328125 129.820312 95.328125 C 130.3125 95.328125 130.800781 95.046875 131.082031 94.625 L 131.714844 93.429688 L 132.558594 94.695312 C 132.839844 95.117188 133.261719 95.328125 133.75 95.328125 C 134.03125 95.328125 134.242188 95.257812 134.523438 95.117188 C 135.15625 94.695312 135.367188 93.851562 134.945312 93.148438 Z M 133.332031 90.761719 " fill-opacity="1" fill-rule="nonzero"/></g><path fill="#fab713" d="M 94.851562 109.652344 C 94.851562 108.105469 93.585938 106.84375 92.042969 106.84375 L 89.230469 106.84375 C 87.6875 106.84375 86.421875 108.105469 86.421875 109.652344 L 86.421875 112.460938 C 86.421875 114.003906 87.6875 115.269531 89.230469 115.269531 L 92.042969 115.269531 C 93.585938 115.269531 94.851562 114.003906 94.851562 112.460938 Z M 94.851562 109.652344 " fill-opacity="1" fill-rule="nonzero"/><path fill="#fab713" d="M 92.042969 118.078125 L 89.230469 118.078125 C 87.6875 118.078125 86.421875 119.339844 86.421875 120.886719 L 86.421875 123.695312 C 86.421875 125.242188 87.6875 126.503906 89.230469 126.503906 L 92.042969 126.503906 C 93.585938 126.503906 94.851562 125.242188 94.851562 123.695312 L 94.851562 120.886719 C 94.851562 119.339844 93.585938 118.078125 92.042969 118.078125 Z M 92.042969 118.078125 " fill-opacity="1" fill-rule="nonzero"/><path fill="#fab713" d="M 136.980469 109.652344 L 103.277344 109.652344 C 102.503906 109.652344 101.871094 110.285156 101.871094 111.054688 C 101.871094 111.828125 102.503906 112.460938 103.277344 112.460938 L 136.980469 112.460938 C 137.753906 112.460938 138.386719 111.828125 138.386719 111.054688 C 138.386719 110.285156 137.753906 109.652344 136.980469 109.652344 Z M 136.980469 109.652344 " fill-opacity="1" fill-rule="nonzero"/><path fill="#fab713" d="M 136.980469 120.886719 L 103.277344 120.886719 C 102.503906 120.886719 101.871094 121.519531 101.871094 122.292969 C 101.871094 123.0625 102.503906 123.695312 103.277344 123.695312 L 136.980469 123.695312 C 137.753906 123.695312 138.386719 123.0625 138.386719 122.292969 C 138.386719 121.519531 137.753906 120.886719 136.980469 120.886719 Z M 136.980469 120.886719 " fill-opacity="1" fill-rule="nonzero"/><path fill="#fab713" d="M 96.394531 89.007812 L 96.394531 97.433594 C 96.394531 98.695312 97.167969 99.820312 98.289062 100.242188 L 98.429688 100.3125 C 100.820312 101.226562 106.4375 103.402344 112.335938 103.402344 C 118.65625 103.402344 123.148438 101.367188 125.324219 100.453125 L 125.535156 100.3125 C 126.589844 99.820312 127.292969 98.765625 127.292969 97.574219 L 127.292969 89.148438 L 127.222656 89.148438 L 112.964844 93.359375 C 112.828125 93.429688 112.6875 93.429688 112.546875 93.429688 C 112.40625 93.429688 112.265625 93.429688 112.195312 93.359375 L 101.800781 90.480469 L 98.148438 89.5 Z M 96.394531 89.007812 " fill-opacity="1" fill-rule="nonzero"/></svg>