<svg xmlns="http://www.w3.org/2000/svg" xmlns:xlink="http://www.w3.org/1999/xlink" width="300" zoomAndPan="magnify" viewBox="0 0 224.87999 225" height="300" preserveAspectRatio="xMidYMid meet" version="1.0"><defs><clipPath id="6489c66ce9"><path d="M 22.488281 48.394531 L 131 48.394531 L 131 157 L 22.488281 157 Z M 22.488281 48.394531 " clip-rule="nonzero"/></clipPath><clipPath id="12c35bea16"><path d="M 111 102 L 201.640625 102 L 201.640625 165.332031 L 111 165.332031 Z M 111 102 " clip-rule="nonzero"/></clipPath></defs><path fill="#504081" d="M 129.234375 96.527344 C 129.734375 98.558594 129.535156 103.835938 128.636719 112.351562 C 128.082031 115.664062 127.242188 118.835938 126.117188 121.875 C 123.871094 127.949219 120.488281 133.476562 115.972656 138.457031 C 113.589844 141.160156 109.957031 144.242188 105.078125 147.707031 C 104.550781 148.15625 101.269531 149.71875 95.230469 152.40625 C 89.179688 154.535156 82.816406 155.679688 76.136719 155.835938 C 66.070312 155.335938 57.273438 152.914062 49.753906 148.574219 C 45.996094 146.40625 42.550781 143.757812 39.429688 140.628906 C 36.308594 137.5 33.503906 133.894531 31.015625 129.808594 L 27.527344 123.316406 C 26.894531 122.230469 25.886719 118.910156 24.496094 113.351562 C 24.042969 111.125 23.738281 108.882812 23.582031 106.632812 C 23.269531 102.136719 23.546875 97.59375 24.414062 93.015625 C 25.152344 88.746094 26.363281 84.707031 28.046875 80.90625 C 28.890625 79.003906 29.851562 77.160156 30.933594 75.375 C 33.839844 71.015625 35.726562 68.46875 36.59375 67.738281 C 43.46875 60.605469 50.929688 55.597656 58.964844 52.707031 C 62.984375 51.261719 67.148438 50.347656 71.457031 49.960938 L 78.027344 49.78125 C 82.480469 49.925781 87.078125 50.601562 91.820312 51.808594 C 101.445312 55.304688 109.257812 60.191406 115.253906 66.46875 L 119.410156 71.4375 C 121.953125 74.925781 124.042969 78.757812 125.683594 82.941406 C 127.320312 87.121094 128.503906 91.652344 129.234375 96.527344 " fill-opacity="1" fill-rule="nonzero"/><g clip-path="url(#6489c66ce9)"><path fill="#fab713" d="M 77.726562 48.464844 C 77.710938 48.464844 77.699219 48.464844 77.699219 48.464844 C 73.796875 48.566406 73.171875 49.878906 73.171875 49.878906 L 73.167969 49.878906 L 74.222656 50.597656 L 75.757812 51.488281 L 77.351562 52.273438 L 78.992188 52.949219 L 80.496094 53.449219 C 80.640625 52.441406 80.785156 51.261719 80.925781 49.914062 C 79.789062 48.511719 77.960938 48.464844 77.726562 48.464844 Z M 105.035156 57.980469 Z M 67.957031 48.871094 C 66.75 49.066406 66.210938 50.761719 66.210938 50.761719 L 67.640625 52.113281 L 69.625 53.757812 L 71.714844 55.269531 L 73.894531 56.640625 L 76.160156 57.867188 L 78.503906 58.941406 L 79.542969 59.339844 C 79.769531 58.089844 80.015625 56.609375 80.285156 54.894531 L 78.492188 54.300781 L 76.738281 53.578125 C 74.3125 52.429688 72.371094 51.234375 70.917969 49.988281 L 69.890625 49.339844 C 69.476562 48.910156 67.957031 48.871094 67.957031 48.871094 Z M 106.25 57.835938 C 105.699219 57.835938 105.113281 57.980469 105.039062 57.980469 C 105.039062 57.980469 105.035156 57.980469 105.035156 57.980469 L 104.699219 60.460938 L 106.53125 59.902344 L 107.433594 59.5625 C 107.636719 58.414062 107.023438 58.007812 107.023438 58.007812 C 106.832031 57.878906 106.546875 57.835938 106.25 57.835938 Z M 62.523438 50.75 C 61.941406 50.75 61.597656 50.851562 61.597656 50.851562 C 59.871094 51.371094 58.472656 52.925781 58.472656 52.925781 C 59 53.59375 59.539062 54.257812 60.121094 54.886719 C 62.167969 57.085938 63.769531 58.535156 64.8125 59.367188 C 66.125 60.414062 67.621094 61.535156 69.382812 62.640625 L 71.957031 64.113281 L 74.625 65.40625 L 77.378906 66.507812 L 77.871094 66.664062 C 78.277344 65.222656 78.742188 63.257812 79.261719 60.773438 C 78.746094 60.636719 77.488281 60.113281 75.511719 59.152344 C 73.910156 58.375 72.386719 57.460938 70.914062 56.46875 C 69.425781 55.460938 68.019531 54.375 66.703125 53.207031 L 64.511719 51.109375 C 63.710938 50.824219 63.027344 50.75 62.523438 50.75 Z M 108.820312 60.578125 L 107.019531 61.257812 L 104.492188 62.03125 L 104.363281 62.988281 L 103.578125 67.34375 L 105.824219 66.644531 L 108.519531 65.601562 L 111.140625 64.375 L 112.445312 63.648438 C 112.320312 62.238281 111.414062 61.46875 111.414062 61.46875 C 110.515625 60.707031 108.855469 60.578125 108.820312 60.578125 Z M 35.789062 68.746094 Z M 56.429688 53.410156 C 55.445312 53.410156 54.765625 53.707031 54.765625 53.707031 C 53.417969 54.296875 52.28125 55.542969 52.28125 55.542969 C 52.453125 55.835938 53.511719 57.027344 55.507812 59.074219 C 57.890625 61.515625 60.753906 63.808594 64.023438 66.027344 C 65.53125 67.050781 67.859375 68.414062 71.0625 70.007812 C 72.851562 70.898438 74.597656 71.578125 76.273438 72.128906 L 77.480469 68.050781 C 69.082031 65.066406 62.277344 60.199219 57.058594 53.449219 C 56.839844 53.421875 56.628906 53.410156 56.429688 53.410156 Z M 113.53125 64.695312 L 111.816406 65.644531 L 109.089844 66.921875 L 106.320312 67.996094 L 103.277344 68.933594 C 102.789062 71.574219 102.34375 73.570312 101.949219 74.925781 L 105.910156 74.292969 L 109.449219 73.46875 L 112.929688 72.414062 L 116.332031 71.136719 L 118.410156 70.199219 C 118.007812 67.484375 116.652344 65.957031 116.652344 65.957031 C 115.617188 64.789062 113.570312 64.695312 113.53125 64.695312 Z M 50.199219 56.128906 C 49.300781 56.128906 48.78125 56.429688 48.78125 56.429688 C 47.875 56.957031 47.496094 58.214844 47.496094 58.214844 L 48.324219 59.292969 L 51.3125 62.683594 L 54.527344 65.851562 L 57.957031 68.792969 L 61.582031 71.488281 L 65.386719 73.925781 L 69.351562 76.089844 L 74.140625 78.230469 C 74.613281 77.007812 75.175781 75.429688 75.828125 73.5 C 71.929688 72.21875 67.710938 70.144531 63.214844 67.21875 C 61.121094 65.859375 59.144531 64.316406 57.234375 62.65625 L 54.484375 60.085938 C 52.238281 57.746094 51.0625 56.449219 50.957031 56.195312 L 50.957031 56.199219 C 50.679688 56.148438 50.425781 56.128906 50.199219 56.128906 Z M 119.308594 71.375 L 116.902344 72.460938 L 113.386719 73.78125 L 109.816406 74.863281 L 106.183594 75.710938 L 102.527344 76.316406 L 101.578125 76.410156 C 100.828125 79.3125 100.21875 81.5 99.753906 82.96875 L 104.054688 82.742188 L 108.46875 82.207031 L 112.835938 81.375 L 117.136719 80.242188 L 121.347656 78.816406 L 123.429688 77.949219 C 123.757812 75.128906 122.679688 73.414062 122.679688 73.414062 C 121.710938 71.867188 119.355469 71.382812 119.308594 71.375 Z M 46.148438 59.011719 C 44.113281 59.011719 42.917969 59.976562 42.917969 59.976562 C 41.382812 61.222656 40.65625 63.570312 40.65625 63.570312 C 40.628906 63.707031 41.9375 65.195312 44.617188 67.996094 C 47.910156 71.4375 51.492188 74.511719 55.324219 77.257812 C 57.238281 78.628906 59.21875 79.917969 61.265625 81.121094 L 64.386719 82.859375 C 66.5 83.976562 68.679688 85.007812 70.925781 85.953125 C 71.492188 84.765625 72.390625 82.640625 73.625 79.578125 L 68.710938 77.382812 L 64.65625 75.164062 L 60.765625 72.671875 L 57.074219 69.933594 L 53.554688 66.914062 L 50.277344 63.683594 C 47.871094 61.019531 46.542969 59.460938 46.289062 59.011719 C 46.242188 59.011719 46.195312 59.011719 46.148438 59.011719 Z M 124.039062 79.257812 L 121.875 80.15625 L 117.527344 81.628906 L 113.160156 82.777344 L 108.714844 83.628906 L 104.183594 84.179688 L 99.660156 84.414062 L 99.3125 84.410156 C 98.707031 86.382812 97.851562 88.902344 96.734375 91.96875 C 97.53125 92.058594 98.539062 92.101562 99.753906 92.136719 C 100.011719 92.144531 100.371094 92.148438 100.84375 92.148438 C 101.84375 92.148438 103.332031 92.128906 105.308594 92.078125 L 110.378906 91.6875 L 112.074219 91.484375 C 112.113281 91.476562 112.152344 91.472656 112.195312 91.46875 C 113.9375 91.261719 116.339844 90.882812 119.363281 90.179688 C 122.929688 89.347656 125.515625 88.5625 127.15625 87.972656 L 127.375 87.871094 C 128.207031 85.269531 127.433594 83.277344 127.433594 83.277344 C 126.550781 81.003906 124.078125 79.285156 124.039062 79.257812 Z M 30.8125 75.726562 C 27.125 77.929688 25.875 81.234375 25.875 81.234375 C 24.050781 86.058594 24.445312 92.574219 24.445312 92.574219 L 26.617188 91.148438 C 27.71875 90.375 28.78125 89.550781 29.816406 88.691406 C 31.8125 87.03125 33.773438 85.070312 35.6875 82.789062 C 33.320312 79.613281 31.695312 77.257812 30.816406 75.726562 Z M 39.613281 64.570312 C 38.332031 64.597656 37.734375 65.234375 37.734375 65.234375 C 36.933594 66.085938 36.757812 67.617188 36.757812 67.617188 C 38.382812 70.0625 40.144531 72.394531 42.042969 74.617188 L 44.996094 77.867188 C 51.101562 84.203125 58.441406 89.539062 67.011719 93.875 C 67.941406 92.164062 69.042969 89.957031 70.320312 87.261719 C 63.664062 84.441406 57.660156 80.953125 52.300781 76.792969 L 48.308594 73.515625 L 44.554688 70.011719 C 41.492188 66.832031 39.84375 65.015625 39.613281 64.570312 Z M 35.789062 68.746094 C 34.527344 68.761719 33.914062 69.546875 33.914062 69.546875 C 33.207031 70.449219 33.140625 72.136719 33.140625 72.136719 C 35.363281 75.945312 37.917969 79.578125 40.875 82.972656 C 47.597656 90.671875 55.046875 96.539062 63.148438 100.640625 L 66.324219 95.140625 L 61.871094 92.792969 L 57.328125 89.996094 L 52.980469 86.898438 L 48.859375 83.519531 L 44.964844 79.863281 L 41.335938 75.964844 L 37.96875 71.820312 Z M 127.742188 89.265625 L 125.742188 89.957031 L 120.710938 91.34375 L 115.664062 92.390625 L 110.550781 93.117188 L 105.351562 93.519531 L 100.199219 93.585938 L 96.203125 93.382812 C 94.945312 96.636719 93.859375 99.28125 92.933594 101.324219 C 94.148438 101.472656 95.382812 101.585938 96.636719 101.664062 C 97.894531 101.742188 99.175781 101.785156 100.476562 101.792969 L 102.445312 101.777344 C 104.933594 101.742188 107.8125 101.53125 111.078125 101.148438 C 111.09375 101.148438 111.105469 101.144531 111.121094 101.144531 C 116.628906 100.480469 122.28125 99.097656 128.085938 97.015625 C 128.910156 96.71875 129.277344 96.574219 129.183594 96.558594 C 130.28125 94.445312 129.902344 92.519531 129.902344 92.519531 C 129.566406 90.828125 127.773438 89.292969 127.742188 89.265625 Z M 36.601562 83.949219 L 35.238281 85.496094 C 34.300781 86.515625 33.324219 87.492188 32.304688 88.425781 L 30.730469 89.804688 C 28.554688 91.617188 26.351562 93.167969 24.121094 94.457031 C 22.652344 96.078125 22.53125 97.972656 22.53125 97.972656 C 22.367188 100.5625 23.535156 103.644531 23.535156 103.644531 C 25.148438 102.609375 26.84375 101.34375 28.582031 99.804688 C 30.21875 98.355469 31.511719 97.039062 32.492188 95.890625 C 35.28125 92.632812 37.382812 89.523438 38.800781 86.558594 C 38.214844 85.902344 37.480469 85.03125 36.601562 83.949219 Z M 129.34375 98.046875 L 129.339844 98.046875 L 128.269531 98.476562 L 123.214844 100.117188 L 118.125 101.40625 L 112.917969 102.359375 L 107.695312 102.964844 L 102.433594 103.21875 L 97.15625 103.125 L 92.304688 102.714844 C 91.554688 104.367188 90.574219 106.335938 89.359375 108.625 C 92.660156 108.960938 95.5 109.136719 97.878906 109.15625 C 97.976562 109.160156 98.074219 109.160156 98.175781 109.160156 C 99.417969 109.160156 101 109.089844 102.925781 108.960938 C 103.9375 108.890625 105.269531 108.773438 106.925781 108.578125 C 106.976562 108.570312 107.027344 108.566406 107.078125 108.558594 C 111.359375 108.011719 115.6875 107.074219 120.0625 105.746094 L 122.101562 105.09375 C 123.4375 104.640625 124.726562 104.164062 125.96875 103.65625 C 127.210938 103.148438 128.40625 102.609375 129.558594 102.042969 C 130.84375 100.664062 130.785156 99.550781 130.785156 99.550781 C 130.738281 98.699219 129.34375 98.046875 129.34375 98.046875 Z M 129.515625 106.308594 L 127.390625 107.253906 C 126.3125 107.671875 125.382812 108.015625 124.605469 108.285156 L 124.808594 108.527344 L 126.253906 110.410156 L 127.613281 112.339844 L 128.390625 113.542969 C 129.96875 111.015625 130.300781 108.882812 130.300781 108.882812 C 130.484375 107.691406 129.515625 106.308594 129.515625 106.308594 Z M 39.835938 87.710938 L 39.632812 88.113281 C 35.988281 95.039062 30.628906 100.78125 23.558594 105.339844 C 22.285156 107.160156 22.5 108.835938 22.5 108.835938 C 22.851562 111.601562 24.765625 114.785156 24.765625 114.785156 C 27.96875 112.476562 30.988281 109.871094 33.769531 106.921875 C 38.144531 102.277344 41.707031 97.40625 44.507812 92.351562 C 43.230469 91.21875 41.675781 89.671875 39.835938 87.710938 Z M 123.144531 108.78125 L 122.628906 108.953125 C 121.238281 109.402344 119.753906 109.855469 118.167969 110.308594 C 119.585938 111.875 120.890625 113.492188 122.082031 115.160156 L 122.953125 116.417969 C 123.519531 117.265625 124.058594 118.121094 124.566406 118.992188 C 125.078125 119.863281 125.558594 120.746094 126.011719 121.640625 C 127.90625 120.375 128.460938 118.597656 128.460938 118.597656 C 128.816406 117.460938 127.929688 115.515625 127.929688 115.515625 C 126.871094 113.785156 125.921875 112.363281 125.089844 111.257812 L 123.675781 109.417969 Z M 45.601562 93.335938 L 44.542969 95.183594 C 39.445312 103.601562 32.988281 110.632812 25.171875 116.277344 C 24.644531 117.828125 25.03125 119.054688 25.03125 119.054688 C 25.605469 120.867188 27.175781 122.59375 27.246094 122.625 C 32.824219 117.839844 37.558594 113.210938 41.460938 108.753906 C 43.710938 106.183594 44.910156 104.765625 45.09375 104.527344 C 46.308594 102.980469 48.15625 100.597656 50.585938 97.335938 C 49.203125 96.34375 47.542969 95.007812 45.601562 93.335938 Z M 51.753906 98.175781 L 49.628906 101.066406 C 43.5625 109.175781 36.304688 116.816406 27.859375 123.988281 C 27.605469 125.109375 27.976562 125.867188 27.976562 125.867188 C 28.539062 127.015625 29.8125 127.960938 29.8125 127.960938 L 31.523438 126.796875 C 38.308594 122.117188 44.566406 115.980469 50.183594 108.300781 C 52.316406 105.382812 53.929688 102.738281 55.144531 100.453125 C 54.230469 99.878906 53.101562 99.121094 51.753906 98.175781 Z M 116.589844 110.722656 L 116.0625 110.851562 C 114.660156 111.191406 113.308594 111.476562 112 111.699219 C 114.25 114.574219 116.269531 117.699219 118.0625 121.070312 C 119.4375 123.648438 120.730469 126.695312 121.949219 130.210938 C 124.460938 128.859375 125.453125 126.878906 125.453125 126.878906 C 126.023438 125.75 125.320312 123.492188 125.320312 123.492188 C 122.917969 118.566406 120.007812 114.308594 116.589844 110.722656 Z M 56.367188 101.214844 L 55.84375 102.179688 C 54.664062 104.238281 53.394531 106.242188 52.035156 108.1875 C 50.691406 110.121094 49.257812 111.992188 47.746094 113.800781 L 45.402344 116.484375 C 40.832031 121.445312 35.871094 125.691406 30.519531 129.222656 C 30.527344 130.488281 31.050781 131.316406 31.050781 131.316406 C 31.761719 132.441406 33.050781 133.222656 33.050781 133.222656 C 35.457031 131.460938 37.789062 129.609375 40.046875 127.667969 L 43.378906 124.683594 C 45.5625 122.652344 47.671875 120.523438 49.710938 118.308594 C 53.78125 113.871094 57.5625 109.070312 61.042969 103.902344 C 59.773438 103.226562 58.214844 102.332031 56.367188 101.214844 Z M 110.40625 112.019531 L 110.339844 112.03125 C 109.960938 112.109375 108.863281 112.257812 107.050781 112.46875 C 106.320312 112.554688 105.476562 112.652344 104.515625 112.761719 L 104.511719 112.761719 C 105.8125 114.417969 107.023438 116.113281 108.136719 117.855469 L 109.734375 120.496094 L 111.191406 123.203125 L 112.511719 125.972656 L 113.6875 128.804688 L 114.722656 131.699219 L 115.617188 134.660156 L 116.371094 137.683594 C 118.515625 137.328125 119.679688 135.820312 119.679688 135.820312 C 120.800781 134.375 120.945312 131.769531 120.945312 131.769531 C 120.585938 130.574219 120.085938 129.167969 119.445312 127.542969 L 118.503906 125.308594 C 117.824219 123.78125 117.070312 122.289062 116.28125 120.816406 C 114.777344 118.027344 112.832031 115.089844 110.40625 112.019531 Z M 85.277344 49.601562 C 85.261719 49.601562 85.257812 49.601562 85.257812 49.601562 C 84.230469 49.648438 83.96875 50.234375 83.96875 50.234375 L 83.308594 55.355469 C 83.125 57.238281 82.035156 62.328125 79.863281 70.570312 C 79.003906 73.820312 77.929688 76.945312 76.8125 79.984375 C 74.582031 86.066406 71.976562 91.777344 68.917969 97.066406 C 64.828125 104.140625 60.277344 110.59375 55.339844 116.460938 C 52.867188 119.394531 50.296875 122.179688 47.617188 124.816406 L 43.527344 128.660156 C 40.746094 131.144531 37.863281 133.484375 34.878906 135.671875 C 34.773438 136.8125 35.257812 137.414062 35.257812 137.414062 C 35.808594 138.097656 36.953125 138.25 36.953125 138.25 C 40.109375 136.367188 45.226562 132.109375 52.308594 125.46875 L 56.546875 121.03125 C 59.296875 117.996094 61.878906 114.824219 64.289062 111.511719 C 66.703125 108.203125 68.933594 104.777344 70.984375 101.230469 C 73.050781 97.648438 74.925781 93.96875 76.597656 90.191406 L 78.957031 84.460938 C 80.425781 80.597656 81.6875 76.664062 82.738281 72.667969 C 83.789062 68.667969 84.648438 64.628906 85.238281 60.535156 C 85.9375 55.667969 86.253906 52.335938 86.269531 50.5625 C 86.28125 49.640625 85.421875 49.601562 85.277344 49.601562 Z M 102.785156 112.910156 C 101.621094 113.003906 99.664062 113.050781 96.917969 113.050781 C 96.738281 113.050781 96.550781 113.050781 96.359375 113.050781 L 97.460938 114.621094 C 103.285156 122.867188 107.785156 132.347656 110.957031 143.070312 C 112.742188 142.773438 113.914062 141.636719 113.914062 141.636719 C 114.8125 140.769531 115.171875 138.992188 115.171875 138.992188 L 115.046875 138.339844 C 114.65625 136.53125 114.179688 134.742188 113.625 132.976562 L 112.730469 130.347656 C 112.097656 128.617188 111.378906 126.902344 110.570312 125.199219 C 108.957031 121.808594 107.046875 118.59375 104.835938 115.558594 Z M 89.523438 50.136719 C 88.632812 50.136719 87.691406 50.84375 87.691406 50.84375 L 87.433594 54.527344 C 86.691406 62.03125 85.277344 69.320312 83.195312 76.398438 L 81.503906 81.667969 C 80.296875 85.152344 78.917969 88.585938 77.371094 91.964844 C 75.828125 95.347656 74.101562 98.667969 72.234375 101.949219 C 70.429688 105.117188 68.558594 108.261719 66.355469 111.199219 C 60.828125 118.582031 57.074219 122.679688 55.675781 124.0625 C 50.304688 129.378906 44.523438 134.589844 37.953125 139.3125 C 38.777344 141.632812 40.300781 142.972656 40.300781 142.972656 C 41.613281 144.128906 43.660156 144.332031 43.660156 144.332031 L 47.558594 140.714844 C 58.417969 130.097656 67.488281 118.128906 74.652344 104.738281 C 80.578125 93.664062 84.929688 81.980469 88.082031 69.820312 C 89.0625 66.042969 90.222656 60.050781 91.308594 51.769531 C 90.703125 50.390625 89.882812 50.179688 89.882812 50.179688 C 89.765625 50.152344 89.644531 50.136719 89.523438 50.136719 Z M 94.34375 51.605469 C 93.585938 51.605469 92.707031 52.203125 92.707031 52.203125 L 92.347656 55.300781 C 91.640625 60.3125 90.6875 65.265625 89.480469 70.160156 L 87.484375 77.484375 C 84.574219 87.179688 80.722656 96.488281 75.929688 105.40625 C 73.515625 109.894531 70.890625 114.230469 68.058594 118.421875 L 63.617188 124.636719 C 56.894531 133.320312 49.488281 141.464844 44.820312 145.21875 C 43.675781 146.296875 45.316406 147.296875 45.316406 147.296875 C 45.566406 147.449219 45.8125 147.507812 46.039062 147.507812 C 46.742188 147.507812 47.285156 146.957031 47.285156 146.957031 C 52.707031 142.390625 57.726562 137.449219 62.355469 132.152344 C 69.28125 124.226562 75.347656 115.417969 80.488281 105.683594 C 83.921875 99.1875 86.878906 92.53125 89.089844 85.636719 C 91.851562 77.015625 93.039062 71.714844 93.378906 69.898438 C 94.390625 64.457031 95.335938 58.933594 95.800781 53.242188 C 95.445312 51.90625 94.710938 51.660156 94.710938 51.660156 C 94.597656 51.621094 94.472656 51.605469 94.34375 51.605469 Z M 88.648438 112.492188 L 91.089844 116.035156 L 93.34375 119.683594 L 95.40625 123.449219 L 97.277344 127.324219 L 98.960938 131.308594 L 100.453125 135.402344 L 101.757812 139.609375 L 102.871094 143.929688 L 103.792969 148.359375 C 106.007812 148.132812 107.625 146.972656 107.625 146.972656 C 108.957031 146.015625 109.746094 144.085938 109.746094 144.085938 C 108.867188 140.804688 107.578125 137.078125 105.867188 132.910156 C 104.707031 130.097656 103.304688 127.050781 101.503906 123.859375 C 98.386719 118.34375 96.007812 114.753906 94.527344 112.992188 C 93.433594 112.972656 91.472656 112.808594 88.648438 112.492188 Z M 98.96875 53.285156 C 98.09375 53.285156 97.191406 53.804688 97.191406 53.804688 L 96.726562 58.570312 C 95.582031 67.839844 93.527344 76.90625 90.5625 85.769531 C 89.085938 90.1875 87.386719 94.519531 85.472656 98.773438 L 82.429688 105.09375 C 73.429688 122.21875 62.140625 136.441406 48.558594 147.757812 C 48.570312 149.613281 49.609375 150.191406 49.609375 150.191406 C 49.847656 150.324219 50.15625 150.375 50.484375 150.375 C 51.425781 150.375 52.507812 149.960938 52.507812 149.960938 C 55.152344 147.722656 57.851562 145.125 60.671875 142.222656 C 69.382812 133.257812 77.253906 122.851562 83.9375 110.789062 C 90.464844 99 95.109375 86.859375 98.164062 74.527344 L 99.546875 68.34375 C 100.378906 64.207031 101.023438 60.042969 101.476562 55.855469 C 100.8125 53.972656 99.683594 53.433594 99.683594 53.433594 C 99.460938 53.324219 99.21875 53.285156 98.96875 53.285156 Z M 87.140625 112.855469 L 85.933594 115.007812 L 84.410156 117.582031 C 86.34375 120.339844 87.699219 122.484375 88.539062 123.984375 C 89.570312 125.828125 90.5625 127.6875 91.460938 129.601562 L 92.757812 132.523438 L 93.921875 135.476562 C 94.648438 137.429688 95.296875 139.421875 95.867188 141.453125 C 96.4375 143.476562 96.917969 145.511719 97.316406 147.566406 L 97.855469 150.671875 L 97.953125 151.398438 C 97.972656 151.398438 97.992188 151.398438 98.011719 151.398438 C 99.785156 151.398438 101.046875 150.761719 101.046875 150.761719 C 101.929688 150.320312 102.453125 149.136719 102.453125 149.136719 C 101.265625 142.238281 99.386719 135.816406 96.820312 129.871094 C 95.167969 126.046875 93.429688 122.644531 91.632812 119.636719 C 90.265625 117.339844 88.777344 115.074219 87.140625 112.855469 Z M 83.597656 118.917969 L 81.035156 122.925781 L 80.65625 123.492188 C 80.789062 123.625 81.523438 125.039062 82.867188 127.730469 L 84.3125 130.902344 L 85.601562 134.097656 L 86.757812 137.351562 L 87.777344 140.660156 L 88.667969 144.054688 L 89.410156 147.484375 L 90.007812 150.949219 L 90.386719 153.941406 C 90.925781 154.0625 91.445312 154.109375 91.917969 154.109375 C 93.097656 154.109375 93.96875 153.832031 93.96875 153.832031 C 95.320312 153.398438 96.574219 151.96875 96.574219 151.96875 C 96.082031 147.21875 94.578125 141.226562 91.847656 134.066406 C 89.902344 128.976562 87.082031 123.953125 83.597656 118.917969 Z M 60.0625 148.148438 L 59.640625 148.550781 C 58.523438 149.628906 57.382812 150.6875 56.226562 151.738281 C 57.722656 153.746094 59.738281 154.359375 59.738281 154.359375 C 60.710938 154.652344 61.777344 154.742188 62.71875 154.742188 C 64.207031 154.742188 65.386719 154.519531 65.386719 154.519531 C 63.738281 152.136719 61.964844 150.015625 60.0625 148.148438 Z M 79.753906 124.828125 L 77.472656 128.070312 L 76.078125 129.964844 L 76.898438 131.394531 L 78.09375 133.707031 L 79.195312 136.078125 C 79.898438 137.679688 80.535156 139.3125 81.105469 140.972656 L 81.894531 143.449219 L 82.578125 145.957031 L 83.179688 148.582031 L 83.664062 151.230469 C 83.988281 153.445312 84.152344 154.75 84.152344 155.148438 C 85.03125 155.542969 85.863281 155.625 86.410156 155.625 C 86.8125 155.625 87.0625 155.578125 87.0625 155.578125 C 88.003906 155.410156 88.980469 154.277344 88.980469 154.277344 C 88.847656 152.777344 88.519531 150.609375 88 147.769531 L 87.269531 144.402344 L 87.089844 143.652344 C 86.714844 142.160156 86.296875 140.699219 85.855469 139.25 C 84.457031 134.628906 82.433594 129.820312 79.753906 124.828125 Z M 64.847656 143.304688 L 63.925781 144.269531 C 63.207031 145.023438 62.261719 145.980469 61.09375 147.140625 C 62.136719 148.179688 63.085938 149.207031 63.929688 150.222656 L 65.195312 151.800781 L 66.382812 153.417969 L 67.375 154.902344 C 68.425781 155.914062 69.503906 156.074219 69.503906 156.074219 C 69.597656 156.085938 69.6875 156.09375 69.777344 156.09375 C 70.664062 156.09375 71.5 155.515625 71.5 155.515625 C 71.390625 155.117188 71.261719 154.695312 71.101562 154.257812 C 70.679688 153.121094 70.378906 152.421875 70.25 152.136719 C 69.796875 151.140625 69.296875 150.035156 68.65625 148.875 C 67.425781 146.652344 66.136719 144.808594 64.847656 143.304688 Z M 75.132812 131.214844 L 73.234375 133.648438 C 72.019531 135.164062 71.011719 136.390625 70.203125 137.332031 C 75.011719 142.5625 78.023438 148.671875 79.234375 155.65625 C 79.945312 156.277344 80.660156 156.332031 80.890625 156.332031 C 80.941406 156.332031 80.96875 156.332031 80.96875 156.332031 C 81.84375 156.25 82.722656 155.335938 82.722656 155.335938 C 82.433594 152.644531 82.144531 150.644531 81.871094 149.332031 C 81.394531 147.042969 80.855469 144.949219 80.257812 143.042969 C 79.628906 141.03125 78.785156 138.75 77.691406 136.222656 C 77.15625 134.984375 76.296875 133.316406 75.132812 131.214844 Z M 69.261719 138.429688 L 67.902344 139.976562 L 65.839844 142.246094 C 66.011719 142.390625 66.640625 143.175781 67.691406 144.632812 C 68.503906 145.757812 69.242188 146.949219 69.917969 148.183594 C 71.300781 150.703125 72.347656 153.210938 73.074219 155.695312 C 73.917969 156.46875 75.003906 156.476562 75.003906 156.476562 C 75.011719 156.476562 75.023438 156.476562 75.03125 156.476562 C 76.277344 156.476562 77.765625 155.75 77.789062 155.742188 L 77.335938 153.578125 L 76.757812 151.472656 L 76.058594 149.429688 L 75.234375 147.445312 L 74.289062 145.523438 L 73.214844 143.660156 L 72.023438 141.855469 L 70.703125 140.113281 Z M 69.261719 138.429688 " fill-opacity="1" fill-rule="nonzero"/></g><g clip-path="url(#12c35bea16)"><path fill="#fab713" d="M 114.085938 138.859375 C 120.714844 143.710938 127.023438 148.296875 134.5625 149.871094 C 136.414062 150.257812 138.34375 150.464844 140.34375 150.464844 C 146.4375 150.464844 153.234375 148.5625 160.417969 144.019531 C 170.128906 137.878906 180.035156 127.269531 181.671875 118.882812 C 183.015625 111.976562 178.765625 106.605469 174.507812 105.773438 C 174.113281 105.699219 173.722656 105.660156 173.332031 105.660156 C 172.957031 105.660156 172.582031 105.695312 172.210938 105.769531 C 166.917969 106.828125 161.984375 115.417969 162.648438 118.738281 C 162.65625 118.769531 162.664062 118.800781 162.667969 118.832031 C 162.851562 119.5625 163.519531 120.0625 164.667969 120.0625 C 166.328125 120.0625 167.210938 119.113281 167.210938 118.378906 C 167.210938 118.257812 167.191406 118.109375 167.148438 117.9375 C 166.265625 114.542969 157.367188 107.820312 150.867188 107.820312 C 150.8125 107.820312 150.757812 107.820312 150.703125 107.820312 C 146.585938 107.898438 143.554688 110.964844 143.644531 115.945312 C 143.683594 117.890625 144.207031 120.148438 145.390625 122.617188 C 149.773438 131.75 162.84375 143.171875 170.847656 146.992188 C 173.34375 148.179688 175.234375 148.574219 176.722656 148.574219 C 179.039062 148.574219 180.621094 147.632812 182.355469 146.574219 C 182.929688 146.222656 183.550781 145.839844 184.195312 145.523438 C 185.488281 144.882812 186.894531 144.480469 188.1875 144.480469 C 190.335938 144.480469 192.40625 145.699219 192.40625 148.503906 C 192.40625 149.070312 192.316406 149.664062 192.15625 150.28125 C 191.609375 152.382812 190.058594 155.195312 188.761719 157.574219 C 187.519531 159.847656 186.527344 161.6875 186.25 162.753906 C 186.203125 162.941406 186.195312 163.03125 186.195312 163.042969 C 186.195312 163.058594 186.199219 162.945312 186.125 162.78125 C 185.898438 162.296875 185.457031 162.25 185.46875 162.25 C 185.46875 162.25 185.472656 162.25 185.480469 162.25 C 187.101562 162.25 192.679688 158.957031 199.160156 155.03125 C 199.902344 154.582031 200.863281 154.820312 201.3125 155.558594 C 201.757812 156.296875 201.523438 157.261719 200.785156 157.707031 C 194.964844 161.230469 188.246094 165.382812 185.480469 165.382812 C 185.40625 165.382812 185.335938 165.378906 185.261719 165.375 C 184.621094 165.332031 183.730469 165.050781 183.289062 164.113281 C 183.109375 163.726562 183.066406 163.34375 183.066406 163.035156 C 183.066406 162.664062 183.136719 162.292969 183.222656 161.964844 C 183.621094 160.425781 184.875 158.15625 186.011719 156.074219 C 187.398438 153.539062 188.699219 151.128906 189.128906 149.492188 C 189.234375 149.078125 189.273438 148.753906 189.273438 148.503906 C 189.273438 147.886719 189.101562 147.613281 188.1875 147.613281 C 187.5 147.613281 186.574219 147.839844 185.582031 148.328125 C 185.085938 148.574219 184.582031 148.878906 183.988281 149.246094 C 182.257812 150.300781 180 151.703125 176.722656 151.703125 C 174.664062 151.703125 172.308594 151.15625 169.5 149.816406 C 161 145.761719 147.328125 133.882812 142.570312 123.972656 C 141.21875 121.160156 140.5625 118.464844 140.515625 116.003906 C 140.394531 109.503906 144.597656 104.804688 150.644531 104.691406 C 150.71875 104.691406 150.792969 104.6875 150.867188 104.6875 C 158.40625 104.6875 168.847656 112.035156 170.179688 117.152344 C 170.285156 117.5625 170.339844 117.972656 170.339844 118.378906 C 170.339844 121.71875 167.027344 123.195312 164.667969 123.195312 C 162.660156 123.195312 160.285156 122.207031 159.632812 119.589844 C 159.613281 119.511719 159.59375 119.429688 159.578125 119.351562 C 158.570312 114.3125 164.636719 104.09375 171.597656 102.699219 C 172.175781 102.585938 172.753906 102.527344 173.332031 102.527344 C 173.929688 102.527344 174.523438 102.589844 175.105469 102.703125 C 181.296875 103.910156 186.371094 111.121094 184.742188 119.480469 C 182.855469 129.167969 172.019531 140.386719 162.089844 146.667969 C 154.480469 151.476562 147.113281 153.59375 140.34375 153.59375 C 138.128906 153.59375 135.984375 153.367188 133.921875 152.9375 C 125.609375 151.199219 118.761719 146.160156 112.234375 141.382812 C 111.539062 140.875 111.386719 139.894531 111.894531 139.195312 C 112.40625 138.5 113.386719 138.347656 114.085938 138.859375 Z M 114.085938 138.859375 " fill-opacity="1" fill-rule="nonzero"/></g></svg>