<svg xmlns="http://www.w3.org/2000/svg" xmlns:xlink="http://www.w3.org/1999/xlink" width="300" zoomAndPan="magnify" viewBox="0 0 224.87999 225" height="300" preserveAspectRatio="xMidYMid meet" version="1.0"><defs><clipPath id="b23e54074c"><path d="M 79.269531 77.074219 L 145.234375 77.074219 L 145.234375 148 L 79.269531 148 Z M 79.269531 77.074219 " clip-rule="nonzero"/></clipPath></defs><g clip-path="url(#b23e54074c)"><path fill="#fab713" d="M 127.621094 127.023438 C 128.839844 129.839844 128.503906 132.773438 128.523438 135.671875 C 128.542969 138.558594 128.542969 141.449219 128.523438 144.339844 C 128.507812 146.488281 126.777344 147.921875 124.78125 147.484375 C 123.390625 147.175781 122.414062 145.964844 122.410156 144.46875 C 122.398438 140.386719 122.386719 136.300781 122.425781 132.21875 C 122.449219 130.183594 121.847656 128.417969 120.472656 126.921875 C 119.589844 125.960938 119.265625 124.863281 119.742188 123.625 C 120.199219 122.425781 121.140625 121.871094 122.402344 121.636719 C 124.714844 121.207031 127.066406 120.832031 129.296875 120.117188 C 134.457031 118.464844 137.476562 114.78125 138.578125 109.53125 C 139.253906 106.3125 139.566406 103.0625 138.742188 99.808594 C 138.210938 97.714844 137.21875 95.84375 135.742188 94.265625 C 134.660156 93.113281 134.402344 91.890625 134.9375 90.394531 C 135.734375 88.164062 135.816406 85.875 135.230469 83.429688 C 134.425781 83.703125 133.628906 83.875 132.921875 84.234375 C 131.140625 85.136719 129.355469 86.054688 127.652344 87.101562 C 126.511719 87.800781 125.425781 88.011719 124.125 87.675781 C 117.878906 86.058594 111.625 86.058594 105.367188 87.683594 C 104.101562 88.011719 103.003906 87.847656 101.914062 87.109375 C 99.773438 85.660156 97.527344 84.410156 95.03125 83.667969 C 94.808594 83.601562 94.578125 83.558594 94.296875 83.492188 C 93.832031 85.199219 93.796875 86.871094 94.109375 88.550781 C 94.25 89.296875 94.476562 90.03125 94.707031 90.757812 C 95.078125 91.925781 94.921875 92.996094 94.089844 93.894531 C 91.367188 96.835938 90.15625 100.308594 90.316406 104.296875 C 90.425781 107.054688 90.761719 109.769531 91.789062 112.351562 C 93.457031 116.542969 96.632812 119.085938 100.835938 120.363281 C 102.8125 120.964844 104.867188 121.328125 106.90625 121.675781 C 108.976562 122.03125 110.203125 123.304688 109.925781 125.179688 C 109.839844 125.78125 109.53125 126.429688 109.128906 126.882812 C 107.675781 128.53125 107.054688 130.402344 107.089844 132.59375 C 107.148438 136.53125 107.121094 140.472656 107.105469 144.414062 C 107.097656 146.222656 105.800781 147.554688 104.09375 147.578125 C 102.371094 147.601562 101.042969 146.234375 101.027344 144.394531 C 101.007812 142.679688 101.023438 140.964844 101.023438 139.339844 C 99.460938 139.339844 97.960938 139.417969 96.472656 139.320312 C 92.925781 139.089844 89.972656 137.542969 87.5625 134.976562 C 86.46875 133.808594 85.488281 132.539062 84.472656 131.308594 C 83.628906 130.289062 82.753906 129.386719 81.425781 128.925781 C 79.949219 128.417969 79.277344 126.664062 79.785156 125.183594 C 80.308594 123.660156 81.886719 122.824219 83.453125 123.226562 C 85.476562 123.746094 87.054688 124.945312 88.390625 126.488281 C 89.359375 127.605469 90.285156 128.761719 91.203125 129.925781 C 93.761719 133.179688 97.101562 133.859375 100.933594 132.941406 C 101.007812 131.921875 101.015625 130.917969 101.164062 129.933594 C 101.308594 128.972656 101.59375 128.035156 101.820312 127.0625 C 100.730469 126.730469 99.585938 126.421875 98.46875 126.035156 C 90.300781 123.191406 85.863281 117.300781 84.601562 108.882812 C 84.105469 105.566406 83.933594 102.234375 84.699219 98.917969 C 85.3125 96.277344 86.402344 93.863281 88.011719 91.6875 C 88.289062 91.3125 88.390625 90.980469 88.28125 90.511719 C 87.421875 86.726562 87.734375 83.023438 89.179688 79.421875 C 89.78125 77.925781 90.773438 77.324219 92.371094 77.25 C 96.148438 77.074219 99.445312 78.523438 102.546875 80.382812 C 104.03125 81.273438 105.347656 81.433594 107.003906 81.105469 C 112.667969 79.976562 118.347656 80.140625 123.992188 81.355469 C 124.644531 81.496094 125.144531 81.433594 125.71875 81.082031 C 128.519531 79.367188 131.433594 77.886719 134.71875 77.367188 C 135.71875 77.207031 136.769531 77.207031 137.785156 77.300781 C 138.992188 77.410156 139.828125 78.140625 140.289062 79.277344 C 141.777344 82.945312 142.113281 86.707031 141.261719 90.578125 C 141.195312 90.878906 141.269531 91.304688 141.449219 91.546875 C 144.433594 95.640625 145.597656 100.230469 145.292969 105.246094 C 145.089844 108.574219 144.574219 111.839844 143.269531 114.933594 C 140.804688 120.789062 136.328125 124.367188 130.375 126.25 C 129.492188 126.527344 128.59375 126.75 127.621094 127.023438 Z M 127.621094 127.023438 " fill-opacity="1" fill-rule="nonzero"/></g></svg>