<svg xmlns="http://www.w3.org/2000/svg" xmlns:xlink="http://www.w3.org/1999/xlink" width="300" zoomAndPan="magnify" viewBox="0 0 224.87999 225" height="300" preserveAspectRatio="xMidYMid meet" version="1.0"><defs><clipPath id="2195545850"><path d="M 71.664062 85.632812 L 153.207031 85.632812 L 153.207031 157.816406 L 71.664062 157.816406 Z M 71.664062 85.632812 " clip-rule="nonzero"/></clipPath><clipPath id="e1df39c14e"><path d="M 55.4375 67.183594 L 169.378906 67.183594 L 169.378906 121 L 55.4375 121 Z M 55.4375 67.183594 " clip-rule="nonzero"/></clipPath></defs><g clip-path="url(#2195545850)"><path fill="#fab713" d="M 111.992188 85.847656 L 72.015625 118.800781 C 71.902344 118.898438 71.820312 119.027344 71.785156 119.175781 C 71.761719 119.269531 71.75 119.339844 71.75 119.386719 L 71.75 153.292969 C 71.75 154.519531 72.195312 155.578125 73.089844 156.472656 C 73.984375 157.367188 75.046875 157.816406 76.269531 157.816406 L 102.695312 157.816406 C 103.082031 157.816406 103.394531 157.503906 103.394531 157.117188 L 103.394531 131.390625 C 103.394531 131.003906 103.707031 130.691406 104.09375 130.691406 L 120.78125 130.691406 C 121.167969 130.691406 121.480469 131.003906 121.480469 131.390625 L 121.480469 157.117188 C 121.480469 157.503906 121.792969 157.816406 122.179688 157.816406 L 148.605469 157.816406 C 149.828125 157.816406 150.890625 157.367188 151.785156 156.472656 C 152.679688 155.582031 153.128906 154.519531 153.128906 153.292969 L 153.128906 119.386719 C 153.128906 119.363281 153.128906 119.335938 153.125 119.3125 C 153.117188 119.117188 153.023438 118.9375 152.871094 118.8125 L 112.882812 85.847656 C 112.625 85.632812 112.25 85.632812 111.992188 85.847656 " fill-opacity="1" fill-rule="nonzero"/></g><g clip-path="url(#e1df39c14e)"><path fill="#fab713" d="M 168.59375 111.335938 L 153.125 98.480469 L 153.125 69.65625 C 153.125 69 152.914062 68.457031 152.488281 68.03125 C 152.066406 67.609375 151.527344 67.398438 150.867188 67.398438 L 137.304688 67.398438 C 136.644531 67.398438 136.101562 67.609375 135.675781 68.03125 C 135.253906 68.457031 135.042969 69 135.042969 69.65625 L 135.042969 83.433594 L 117.804688 69.019531 C 116.300781 67.796875 114.511719 67.183594 112.4375 67.183594 C 110.367188 67.183594 108.578125 67.796875 107.070312 69.019531 L 56.277344 111.335938 C 55.808594 111.710938 55.550781 112.21875 55.5 112.851562 C 55.453125 113.488281 55.617188 114.042969 55.996094 114.515625 L 60.375 119.742188 C 60.753906 120.164062 61.246094 120.425781 61.859375 120.519531 C 62.425781 120.566406 62.988281 120.402344 63.554688 120.023438 L 112.4375 79.265625 L 161.320312 120.023438 C 161.699219 120.351562 162.191406 120.519531 162.804688 120.519531 L 163.015625 120.519531 C 163.628906 120.425781 164.121094 120.164062 164.5 119.742188 L 168.878906 114.515625 C 169.257812 114.042969 169.421875 113.488281 169.371094 112.851562 C 169.324219 112.21875 169.066406 111.710938 168.59375 111.335938 " fill-opacity="1" fill-rule="nonzero"/></g></svg>