<svg xmlns="http://www.w3.org/2000/svg" xmlns:xlink="http://www.w3.org/1999/xlink" width="300" zoomAndPan="magnify" viewBox="0 0 224.87999 225" height="300" preserveAspectRatio="xMidYMid meet" version="1.0"><defs><filter x="0%" y="0%" width="100%" height="100%" id="c3db322a80"><feColorMatrix values="0 0 0 0 1 0 0 0 0 1 0 0 0 0 1 0 0 0 1 0" color-interpolation-filters="sRGB"/></filter><clipPath id="2027060b1e"><path d="M 58.960938 45.035156 L 166 45.035156 L 166 179.964844 L 58.960938 179.964844 Z M 58.960938 45.035156 " clip-rule="nonzero"/></clipPath><clipPath id="54b0a926d9"><path d="M 134 45.035156 L 166 45.035156 L 166 77 L 134 77 Z M 134 45.035156 " clip-rule="nonzero"/></clipPath><mask id="3952ef756f"><g filter="url(#c3db322a80)"><rect x="-22.487999" width="269.855988" fill="#000000" y="-22.5" height="270" fill-opacity="0.72"/></g></mask><clipPath id="71bc866ebd"><path d="M 1 1 L 32.75 1 L 32.75 43 L 1 43 Z M 1 1 " clip-rule="nonzero"/></clipPath><clipPath id="605eb92332"><rect x="0" width="33" y="0" height="44"/></clipPath></defs><g clip-path="url(#2027060b1e)"><path fill="#fab713" d="M 155.246094 179.507812 L 69.628906 179.507812 C 63.785156 179.507812 58.960938 174.679688 58.960938 168.835938 L 58.960938 56.164062 C 58.960938 50.320312 63.785156 45.492188 69.628906 45.492188 L 134.414062 45.492188 L 165.917969 76.488281 L 165.917969 168.835938 C 165.917969 174.679688 161.089844 179.507812 155.246094 179.507812 Z M 155.246094 179.507812 " fill-opacity="1" fill-rule="nonzero"/></g><g clip-path="url(#54b0a926d9)"><path fill="#fef74b" d="M 134.414062 45.492188 L 134.414062 76.488281 L 165.917969 76.488281 Z M 134.414062 45.492188 " fill-opacity="1" fill-rule="nonzero"/></g><path fill="#ffffff" d="M 74.710938 88.300781 L 74.710938 145.71875 L 150.167969 145.71875 L 150.167969 88.300781 Z M 145.71875 104.5625 L 99.480469 104.5625 L 99.480469 92.746094 L 145.59375 92.746094 L 145.59375 104.5625 Z M 99.480469 109.132812 L 145.59375 109.132812 L 145.59375 123.234375 L 99.480469 123.234375 Z M 95.035156 123.234375 L 79.285156 123.234375 L 79.285156 109.132812 L 95.035156 109.132812 Z M 95.035156 92.746094 L 95.035156 104.5625 L 79.285156 104.5625 L 79.285156 92.746094 Z M 79.285156 127.679688 L 95.035156 127.679688 L 95.035156 141.144531 L 79.285156 141.144531 Z M 99.480469 141.273438 L 99.480469 127.679688 L 145.59375 127.679688 L 145.59375 141.144531 L 99.480469 141.144531 Z M 99.480469 141.273438 " fill-opacity="1" fill-rule="nonzero"/><g mask="url(#3952ef756f)"><g transform="matrix(1, 0, 0, 1, 133, 75)"><g clip-path="url(#605eb92332)"><g clip-path="url(#71bc866ebd)"><path fill="#a15400" d="M 32.664062 1.488281 L 1.667969 1.488281 L 32.664062 42.007812 Z M 32.664062 1.488281 " fill-opacity="1" fill-rule="nonzero"/></g></g></g></g></svg>