<svg xmlns="http://www.w3.org/2000/svg" xmlns:xlink="http://www.w3.org/1999/xlink" width="300" zoomAndPan="magnify" viewBox="0 0 224.87999 225" height="300" preserveAspectRatio="xMidYMid meet" version="1.0"><defs><clipPath id="c32fa20695"><path d="M 67.464844 92.546875 L 157.414062 92.546875 L 157.414062 132.277344 L 67.464844 132.277344 Z M 67.464844 92.546875 " clip-rule="nonzero"/></clipPath></defs><g clip-path="url(#c32fa20695)"><path fill="#fab713" d="M 157.324219 112.402344 C 157.324219 112.507812 157.246094 112.597656 157.171875 112.667969 C 156.949219 112.882812 155.472656 113.140625 154.859375 113.210938 C 154.808594 113.214844 154.757812 113.222656 154.707031 113.234375 C 154.707031 113.230469 154.703125 113.234375 154.703125 113.234375 C 153.410156 113.425781 152.558594 114.078125 151.625 115.398438 C 150.839844 116.449219 150.257812 117.632812 149.738281 118.832031 C 149.257812 119.933594 148.847656 121.101562 148.023438 122.011719 C 147.386719 122.683594 146.476562 123.175781 145.546875 123.273438 C 144.125 123.390625 142.675781 122.679688 141.796875 121.582031 C 140.585938 120.261719 139.8125 116.925781 139.417969 116.0625 C 139.152344 115.429688 138.863281 114.800781 138.457031 114.246094 C 138.363281 114.140625 138.257812 114.042969 138.144531 113.949219 C 138.144531 113.949219 138.140625 113.945312 138.136719 113.941406 C 138.070312 113.894531 137.945312 113.828125 137.855469 113.785156 C 137.824219 113.773438 137.792969 113.765625 137.765625 113.761719 L 137.730469 113.761719 C 137.710938 113.769531 137.691406 113.78125 137.671875 113.796875 C 137.621094 113.84375 137.574219 113.894531 137.53125 113.949219 C 137.496094 114.003906 137.449219 114.078125 137.414062 114.148438 C 136.945312 115.042969 136.777344 115.636719 136.722656 116.777344 C 136.621094 118.667969 136.683594 120.566406 136.613281 122.464844 C 136.488281 125.550781 136.394531 129.433594 133.433594 131.226562 C 132.582031 131.6875 131.574219 131.65625 130.730469 131.199219 C 128.898438 130.292969 127.980469 127.535156 127.433594 125.683594 C 126.90625 123.527344 126.453125 121.355469 125.847656 119.214844 C 125.265625 117.082031 124.65625 115.253906 123.601562 114.121094 C 123.210938 113.828125 123.066406 113.71875 122.238281 113.550781 C 122.113281 113.542969 121.957031 113.546875 121.871094 113.546875 C 121.414062 113.648438 121.664062 113.601562 121.089844 113.871094 C 120.613281 114.171875 120.945312 113.910156 120.519531 114.3125 C 120.511719 114.324219 120.503906 114.332031 120.496094 114.34375 C 120.460938 114.390625 120.429688 114.4375 120.402344 114.488281 C 120.378906 114.53125 120.363281 114.5625 120.355469 114.585938 C 120.320312 114.664062 120.289062 114.746094 120.261719 114.828125 C 119.796875 116.503906 119.628906 118.238281 119.308594 119.941406 C 119.105469 120.894531 118.953125 121.925781 118.339844 122.714844 C 117.695312 123.519531 116.628906 124.019531 115.589844 123.941406 C 115.324219 123.921875 115.074219 123.84375 114.828125 123.738281 L 114.828125 123.734375 C 114.808594 123.726562 114.789062 123.71875 114.769531 123.710938 C 114.765625 123.710938 114.761719 123.707031 114.761719 123.707031 C 114.757812 123.707031 114.757812 123.707031 114.753906 123.707031 C 114.738281 123.699219 114.726562 123.691406 114.714844 123.6875 C 114.710938 123.6875 114.710938 123.683594 114.707031 123.683594 C 114.703125 123.683594 114.695312 123.679688 114.695312 123.679688 C 114.125 123.429688 113.613281 123.042969 113.183594 122.601562 C 112.457031 121.796875 112.042969 120.785156 111.664062 119.785156 C 110.96875 118.027344 110.59375 115.832031 109.929688 114.632812 C 109.441406 113.800781 109.230469 113.574219 108.371094 113.335938 C 108.339844 113.335938 108.308594 113.332031 108.277344 113.335938 C 108.238281 113.335938 108.203125 113.335938 108.175781 113.339844 C 108.089844 113.355469 108.007812 113.378906 107.925781 113.410156 C 107.851562 113.449219 107.761719 113.507812 107.714844 113.535156 C 107.671875 113.574219 107.625 113.609375 107.582031 113.652344 C 107.101562 114.199219 107.230469 113.914062 106.984375 114.722656 C 106.699219 115.941406 106.699219 116.242188 106.558594 117.453125 C 106.28125 120.003906 106.03125 122.566406 105.558594 125.09375 C 105.164062 126.898438 104.753906 128.785156 103.730469 130.355469 C 103.5 130.691406 103.1875 130.957031 102.886719 131.226562 C 102.613281 131.460938 102.335938 131.703125 101.996094 131.828125 C 101.050781 132.269531 100.082031 131.828125 99.289062 131.289062 C 98.464844 130.703125 98.125 129.683594 97.625 128.84375 C 96.410156 126.378906 96.03125 123.613281 95.726562 120.914062 C 95.398438 118.453125 95.371094 116.28125 94.125 114.4375 C 93.535156 113.574219 92.1875 113.105469 91.621094 113.367188 C 91.0625 113.710938 90.917969 114.039062 90.632812 115.191406 C 90.371094 116.472656 90.128906 117.757812 89.75 119.007812 C 89.457031 119.921875 89.117188 120.859375 88.554688 121.644531 C 88.066406 122.242188 87.367188 122.714844 86.601562 122.878906 C 86.027344 123.015625 85.480469 122.691406 85.007812 122.402344 C 83.503906 121.394531 83.28125 119.394531 82.925781 117.765625 C 82.59375 115.875 81.882812 114.054688 81.289062 113.605469 C 80.867188 113.332031 81.082031 113.390625 80.667969 113.304688 C 80.640625 113.304688 80.609375 113.304688 80.574219 113.308594 C 80.558594 113.3125 80.519531 113.324219 80.476562 113.339844 C 80.457031 113.347656 80.425781 113.363281 80.386719 113.382812 C 79.878906 113.664062 79.796875 113.828125 79.515625 114.164062 C 79.054688 114.871094 78.714844 115.652344 78.164062 116.296875 C 77.726562 116.839844 77.121094 117.242188 76.46875 117.492188 C 75.066406 118.183594 73.773438 116.957031 72.796875 116.074219 C 71.652344 114.917969 70.914062 114.125 69.617188 113.476562 C 69.578125 113.460938 69.542969 113.445312 69.503906 113.425781 C 69.453125 113.40625 69.40625 113.386719 69.351562 113.367188 C 69.097656 113.277344 68.839844 113.199219 68.578125 113.132812 C 68.320312 113.042969 68.019531 113.050781 67.796875 112.882812 C 67.644531 112.78125 67.5625 112.585938 67.570312 112.402344 C 67.5625 112.21875 67.640625 112.027344 67.796875 111.921875 C 68.019531 111.757812 68.320312 111.761719 68.578125 111.671875 C 68.839844 111.605469 69.097656 111.527344 69.351562 111.4375 C 69.40625 111.417969 69.453125 111.398438 69.503906 111.378906 C 69.542969 111.363281 69.578125 111.347656 69.617188 111.332031 C 70.914062 110.683594 71.652344 109.890625 72.796875 108.730469 C 73.773438 107.851562 75.066406 106.621094 76.46875 107.316406 C 77.121094 107.566406 77.726562 107.964844 78.164062 108.511719 C 78.714844 109.15625 79.054688 109.9375 79.515625 110.640625 C 79.796875 110.976562 79.878906 111.144531 80.386719 111.425781 C 80.425781 111.445312 80.457031 111.460938 80.476562 111.46875 C 80.519531 111.484375 80.558594 111.492188 80.574219 111.5 C 80.609375 111.5 80.640625 111.5 80.667969 111.5 C 81.082031 111.414062 80.867188 111.472656 81.289062 111.203125 C 81.882812 110.753906 82.59375 108.929688 82.925781 107.042969 C 83.28125 105.410156 83.503906 103.414062 85.007812 102.40625 C 85.480469 102.113281 86.027344 101.792969 86.601562 101.929688 C 87.367188 102.09375 88.066406 102.5625 88.554688 103.160156 C 89.117188 103.949219 89.457031 104.882812 89.75 105.800781 C 90.128906 107.050781 90.371094 108.335938 90.632812 109.617188 C 90.917969 110.765625 91.0625 111.097656 91.621094 111.441406 C 92.1875 111.699219 93.535156 111.234375 94.125 110.371094 C 95.371094 108.523438 95.398438 106.351562 95.726562 103.894531 C 96.03125 101.191406 96.410156 98.425781 97.625 95.960938 C 98.125 95.125 98.464844 94.105469 99.289062 93.519531 C 100.082031 92.980469 101.050781 92.539062 101.996094 92.976562 C 102.335938 93.105469 102.613281 93.347656 102.886719 93.582031 C 103.1875 93.851562 103.5 94.113281 103.730469 94.453125 C 104.753906 96.019531 105.164062 97.90625 105.558594 99.714844 C 106.03125 102.242188 106.28125 104.804688 106.558594 107.355469 C 106.699219 108.566406 106.699219 108.863281 106.984375 110.085938 C 107.230469 110.890625 107.101562 110.605469 107.582031 111.15625 C 107.625 111.195312 107.671875 111.234375 107.714844 111.269531 C 107.761719 111.296875 107.851562 111.355469 107.925781 111.398438 C 108.007812 111.425781 108.089844 111.449219 108.175781 111.46875 C 108.203125 111.46875 108.238281 111.472656 108.277344 111.46875 C 108.308594 111.472656 108.339844 111.472656 108.371094 111.46875 C 109.230469 111.234375 109.441406 111.007812 109.929688 110.175781 C 110.59375 108.976562 110.96875 106.777344 111.664062 105.019531 C 112.042969 104.023438 112.457031 103.011719 113.183594 102.207031 C 113.613281 101.765625 114.125 101.378906 114.695312 101.128906 C 114.695312 101.128906 114.695312 101.128906 114.707031 101.125 C 114.710938 101.125 114.710938 101.121094 114.714844 101.121094 C 114.726562 101.117188 114.738281 101.109375 114.753906 101.101562 C 114.757812 101.101562 114.765625 101.097656 114.769531 101.097656 C 114.78125 101.09375 114.792969 101.085938 114.804688 101.082031 C 114.8125 101.078125 114.820312 101.074219 114.828125 101.070312 C 114.835938 101.066406 114.84375 101.0625 114.851562 101.0625 C 115.085938 100.957031 115.332031 100.886719 115.589844 100.867188 C 116.628906 100.789062 117.695312 101.289062 118.339844 102.09375 C 118.953125 102.882812 119.105469 103.914062 119.308594 104.863281 C 119.625 106.570312 119.796875 108.304688 120.261719 109.980469 C 120.289062 110.0625 120.320312 110.140625 120.355469 110.222656 C 120.363281 110.246094 120.378906 110.273438 120.402344 110.320312 C 120.429688 110.371094 120.460938 110.417969 120.496094 110.464844 C 120.503906 110.476562 120.511719 110.484375 120.519531 110.496094 C 120.945312 110.894531 120.613281 110.636719 121.089844 110.9375 C 121.664062 111.207031 121.414062 111.15625 121.871094 111.261719 C 121.957031 111.261719 122.113281 111.265625 122.238281 111.257812 C 123.066406 111.085938 123.210938 110.980469 123.601562 110.683594 C 124.65625 109.554688 125.265625 107.726562 125.847656 105.59375 C 126.453125 103.453125 126.90625 101.28125 127.433594 99.121094 C 127.980469 97.273438 128.898438 94.511719 130.730469 93.605469 C 131.574219 93.152344 132.582031 93.117188 133.429688 93.578125 C 136.394531 95.375 136.488281 99.257812 136.613281 102.34375 C 136.683594 104.238281 136.621094 106.136719 136.722656 108.03125 C 136.777344 109.171875 136.945312 109.761719 137.414062 110.660156 C 137.449219 110.726562 137.496094 110.804688 137.53125 110.859375 C 137.574219 110.910156 137.621094 110.964844 137.667969 111.011719 C 137.6875 111.023438 137.710938 111.035156 137.730469 111.046875 L 137.765625 111.046875 C 137.792969 111.039062 137.824219 111.03125 137.855469 111.023438 C 137.945312 110.980469 138.070312 110.910156 138.136719 110.863281 C 138.140625 110.863281 138.140625 110.859375 138.144531 110.859375 C 138.253906 110.765625 138.363281 110.667969 138.457031 110.558594 C 138.863281 110.003906 139.152344 109.378906 139.417969 108.746094 C 139.8125 107.882812 140.585938 104.542969 141.796875 103.222656 C 142.675781 102.128906 144.125 101.417969 145.546875 101.53125 C 146.476562 101.632812 147.382812 102.125 148.023438 102.796875 C 148.847656 103.703125 149.253906 104.875 149.738281 105.976562 C 150.257812 107.175781 150.839844 108.359375 151.625 109.410156 C 152.554688 110.726562 153.40625 111.378906 154.695312 111.574219 C 154.746094 111.582031 154.804688 111.59375 154.859375 111.597656 C 155.347656 111.648438 156.984375 111.949219 157.171875 112.136719 C 157.246094 112.207031 157.324219 112.296875 157.324219 112.402344 Z M 157.324219 112.402344 " fill-opacity="1" fill-rule="nonzero"/></g></svg>