<svg xmlns="http://www.w3.org/2000/svg" xmlns:xlink="http://www.w3.org/1999/xlink" width="300" zoomAndPan="magnify" viewBox="0 0 224.87999 225" height="300" preserveAspectRatio="xMidYMid meet" version="1.0"><defs><clipPath id="37040b8830"><path d="M 49 49.046875 L 175.671875 49.046875 L 175.671875 175.730469 L 49 175.730469 Z M 49 49.046875 " clip-rule="nonzero"/></clipPath></defs><g clip-path="url(#37040b8830)"><path fill="#fab713" d="M 170.742188 145.894531 C 169.117188 144.269531 167.238281 143 165.160156 142.113281 C 163.003906 141.199219 160.691406 140.714844 158.332031 140.714844 C 155.972656 140.714844 153.664062 141.171875 151.503906 142.113281 C 149.425781 143 147.546875 144.269531 145.921875 145.894531 C 144.296875 147.515625 143.054688 149.394531 142.167969 151.476562 C 141.457031 153.152344 141.023438 154.929688 140.847656 156.730469 L 117.015625 156.730469 C 116.890625 155.789062 116.636719 154.851562 116.253906 153.964844 C 115.695312 152.644531 114.882812 151.425781 113.867188 150.410156 C 112.855469 149.394531 111.660156 148.582031 110.316406 148.023438 C 108.945312 147.441406 107.472656 147.136719 105.976562 147.136719 C 104.480469 147.136719 103.007812 147.441406 101.636719 148.023438 C 100.316406 148.582031 99.125 149.394531 98.082031 150.410156 C 97.066406 151.425781 96.257812 152.644531 95.699219 153.964844 C 95.316406 154.851562 95.0625 155.765625 94.9375 156.730469 L 73.464844 156.730469 C 61.742188 156.730469 52.199219 147.164062 52.199219 135.410156 C 52.199219 123.660156 61.742188 114.09375 73.464844 114.09375 L 78.363281 114.09375 C 78.492188 115.03125 78.746094 115.972656 79.125 116.859375 C 79.683594 118.179688 80.496094 119.398438 81.511719 120.414062 C 82.527344 121.429688 83.71875 122.242188 85.0625 122.796875 C 86.433594 123.382812 87.90625 123.6875 89.402344 123.6875 C 90.902344 123.6875 92.375 123.382812 93.742188 122.796875 C 95.0625 122.242188 96.257812 121.429688 97.296875 120.414062 C 98.335938 119.398438 99.125 118.179688 99.683594 116.859375 C 100.0625 115.972656 100.316406 115.058594 100.445312 114.09375 L 123.5625 114.09375 C 123.691406 115.03125 123.945312 115.972656 124.324219 116.859375 C 124.882812 118.179688 125.695312 119.398438 126.710938 120.414062 C 127.726562 121.429688 128.917969 122.242188 130.261719 122.796875 C 131.632812 123.382812 133.105469 123.6875 134.601562 123.6875 C 136.101562 123.6875 137.574219 123.382812 138.941406 122.796875 C 140.261719 122.242188 141.457031 121.429688 142.496094 120.414062 C 143.511719 119.398438 144.324219 118.179688 144.882812 116.859375 C 145.261719 115.972656 145.515625 115.058594 145.644531 114.09375 L 151.429688 114.09375 C 154.726562 114.09375 157.925781 113.433594 160.945312 112.164062 C 163.863281 110.921875 166.480469 109.171875 168.710938 106.910156 C 170.945312 104.652344 172.722656 102.039062 173.941406 99.121094 C 175.210938 96.101562 175.867188 92.878906 175.867188 89.578125 C 175.867188 86.277344 175.234375 83.054688 173.941406 80.035156 C 172.695312 77.117188 170.945312 74.503906 168.710938 72.246094 C 166.480469 69.984375 163.839844 68.234375 160.945312 66.992188 C 157.925781 65.722656 154.726562 65.0625 151.429688 65.0625 L 129.070312 65.0625 C 128.945312 64.125 128.691406 63.183594 128.308594 62.296875 C 127.75 60.976562 126.9375 59.757812 125.921875 58.742188 C 124.910156 57.726562 123.714844 56.914062 122.371094 56.359375 C 121 55.773438 119.527344 55.46875 118.03125 55.46875 C 116.535156 55.46875 115.0625 55.773438 113.691406 56.359375 C 112.371094 56.914062 111.179688 57.726562 110.136719 58.742188 C 109.125 59.757812 108.3125 60.976562 107.753906 62.296875 C 107.371094 63.183594 107.117188 64.097656 106.992188 65.0625 L 84.074219 65.0625 C 83.921875 63.261719 83.464844 61.484375 82.753906 59.808594 C 81.867188 57.703125 80.597656 55.824219 79 54.226562 C 77.375 52.601562 75.496094 51.332031 73.414062 50.445312 C 71.234375 49.503906 68.921875 49.046875 66.5625 49.046875 C 64.203125 49.046875 61.894531 49.503906 59.734375 50.445312 C 57.65625 51.332031 55.777344 52.601562 54.152344 54.226562 C 52.527344 55.851562 51.285156 57.726562 50.398438 59.808594 C 49.457031 61.964844 49 64.277344 49 66.660156 C 49 69.046875 49.457031 71.332031 50.371094 73.511719 C 51.261719 75.621094 52.527344 77.496094 54.128906 79.097656 C 55.75 80.722656 57.628906 81.988281 59.710938 82.878906 C 61.867188 83.792969 64.175781 84.273438 66.539062 84.273438 C 68.898438 84.273438 71.207031 83.816406 73.363281 82.878906 C 75.445312 81.988281 77.324219 80.722656 78.949219 79.097656 C 80.570312 77.472656 81.816406 75.59375 82.703125 73.511719 C 83.414062 71.839844 83.847656 70.0625 84.023438 68.261719 L 106.941406 68.261719 C 107.066406 69.199219 107.320312 70.136719 107.703125 71.027344 C 108.261719 72.347656 109.074219 73.5625 110.085938 74.578125 C 111.101562 75.59375 112.296875 76.40625 113.640625 76.964844 C 115.011719 77.546875 116.484375 77.851562 117.980469 77.851562 C 119.476562 77.851562 120.949219 77.546875 122.320312 76.964844 C 123.640625 76.40625 124.832031 75.59375 125.871094 74.578125 C 126.886719 73.5625 127.699219 72.347656 128.257812 71.027344 C 128.640625 70.136719 128.894531 69.222656 129.019531 68.261719 L 151.378906 68.261719 C 163.101562 68.261719 172.644531 77.828125 172.644531 89.578125 C 172.644531 101.328125 163.101562 110.894531 151.378906 110.894531 L 145.59375 110.894531 C 145.464844 109.957031 145.210938 109.019531 144.832031 108.128906 C 144.273438 106.808594 143.460938 105.59375 142.445312 104.578125 C 141.429688 103.5625 140.238281 102.75 138.890625 102.191406 C 137.523438 101.609375 136.050781 101.304688 134.550781 101.304688 C 133.054688 101.304688 131.582031 101.609375 130.210938 102.191406 C 128.894531 102.75 127.699219 103.5625 126.660156 104.578125 C 125.644531 105.59375 124.832031 106.808594 124.273438 108.128906 C 123.894531 109.019531 123.640625 109.933594 123.511719 110.894531 L 100.394531 110.894531 C 100.265625 109.957031 100.011719 109.019531 99.632812 108.128906 C 99.074219 106.808594 98.261719 105.59375 97.246094 104.578125 C 96.230469 103.5625 95.039062 102.75 93.691406 102.191406 C 92.324219 101.609375 90.851562 101.304688 89.351562 101.304688 C 87.855469 101.304688 86.382812 101.609375 85.011719 102.191406 C 83.695312 102.75 82.5 103.5625 81.460938 104.578125 C 80.445312 105.59375 79.632812 106.808594 79.074219 108.128906 C 78.695312 109.019531 78.441406 109.933594 78.3125 110.894531 L 73.464844 110.894531 C 70.167969 110.894531 66.96875 111.554688 63.949219 112.824219 C 61.03125 114.070312 58.417969 115.820312 56.183594 118.078125 C 53.949219 120.335938 52.171875 122.949219 50.957031 125.871094 C 49.6875 128.890625 49.027344 132.113281 49.027344 135.410156 C 49.027344 138.710938 49.660156 141.933594 50.957031 144.953125 C 52.199219 147.871094 53.949219 150.488281 56.183594 152.746094 C 58.417969 155.003906 61.054688 156.753906 63.949219 158 C 66.96875 159.269531 70.167969 159.925781 73.464844 159.925781 L 94.9375 159.925781 C 95.0625 160.867188 95.316406 161.804688 95.699219 162.695312 C 96.257812 164.015625 97.066406 165.230469 98.082031 166.246094 C 99.097656 167.261719 100.292969 168.074219 101.636719 168.632812 C 103.007812 169.214844 104.480469 169.519531 105.976562 169.519531 C 107.472656 169.519531 108.945312 169.214844 110.316406 168.632812 C 111.636719 168.074219 112.828125 167.261719 113.867188 166.246094 C 114.882812 165.230469 115.695312 164.015625 116.253906 162.695312 C 116.636719 161.804688 116.890625 160.890625 117.015625 159.925781 L 140.847656 159.925781 C 141 161.730469 141.457031 163.507812 142.167969 165.179688 C 143.054688 167.289062 144.324219 169.164062 145.921875 170.765625 C 147.519531 172.363281 149.425781 173.65625 151.503906 174.546875 C 153.664062 175.460938 155.972656 175.941406 158.332031 175.941406 C 160.691406 175.941406 163 175.484375 165.160156 174.546875 C 167.238281 173.65625 169.117188 172.386719 170.742188 170.765625 C 172.367188 169.140625 173.609375 167.261719 174.5 165.179688 C 175.410156 163 175.867188 160.714844 175.867188 158.328125 C 175.867188 155.941406 175.410156 153.660156 174.5 151.476562 C 173.636719 149.394531 172.367188 147.492188 170.742188 145.894531 Z M 66.5625 81.078125 C 58.644531 81.078125 52.171875 74.605469 52.171875 66.660156 C 52.171875 58.691406 58.644531 52.246094 66.5625 52.246094 C 74.480469 52.246094 80.953125 58.71875 80.953125 66.660156 C 80.953125 74.605469 74.507812 81.078125 66.5625 81.078125 Z M 118.03125 74.65625 C 113.640625 74.65625 110.0625 71.078125 110.0625 66.660156 C 110.0625 62.246094 113.640625 58.667969 118.03125 58.667969 C 122.421875 58.667969 126 62.246094 126 66.660156 C 126 71.078125 122.421875 74.65625 118.03125 74.65625 Z M 134.601562 104.5 C 138.992188 104.5 142.570312 108.078125 142.570312 112.496094 C 142.570312 116.910156 138.992188 120.488281 134.601562 120.488281 C 130.210938 120.488281 126.632812 116.910156 126.632812 112.496094 C 126.632812 108.078125 130.210938 104.5 134.601562 104.5 Z M 89.402344 104.5 C 93.792969 104.5 97.371094 108.078125 97.371094 112.496094 C 97.371094 116.910156 93.792969 120.488281 89.402344 120.488281 C 85.011719 120.488281 81.433594 116.910156 81.433594 112.496094 C 81.433594 108.078125 84.988281 104.5 89.402344 104.5 Z M 105.976562 166.324219 C 101.585938 166.324219 98.007812 162.746094 98.007812 158.328125 C 98.007812 153.914062 101.585938 150.335938 105.976562 150.335938 C 110.367188 150.335938 113.945312 153.914062 113.945312 158.328125 C 113.945312 162.746094 110.367188 166.324219 105.976562 166.324219 Z M 158.332031 172.742188 C 150.414062 172.742188 143.941406 166.273438 143.941406 158.328125 C 143.941406 150.386719 150.390625 143.914062 158.332031 143.914062 C 166.25 143.914062 172.722656 150.386719 172.722656 158.328125 C 172.722656 166.296875 166.25 172.742188 158.332031 172.742188 Z M 158.332031 172.742188 " fill-opacity="1" fill-rule="nonzero"/></g><path fill="#fab713" d="M 158.332031 147.367188 C 155.414062 147.367188 152.671875 148.507812 150.59375 150.589844 C 148.511719 152.667969 147.394531 155.410156 147.394531 158.328125 C 147.394531 161.246094 148.535156 164.011719 150.59375 166.070312 C 152.648438 168.152344 155.414062 169.292969 158.332031 169.292969 C 161.25 169.292969 163.992188 168.152344 166.074219 166.070312 C 168.128906 163.988281 169.269531 161.246094 169.269531 158.328125 C 169.269531 155.410156 168.128906 152.644531 166.074219 150.589844 C 163.992188 148.507812 161.25 147.367188 158.332031 147.367188 Z M 158.332031 166.121094 C 154.070312 166.121094 150.566406 162.644531 150.566406 158.355469 C 150.566406 154.066406 154.042969 150.589844 158.332031 150.589844 C 162.597656 150.589844 166.097656 154.066406 166.097656 158.355469 C 166.097656 162.617188 162.597656 166.121094 158.332031 166.121094 Z M 158.332031 166.121094 " fill-opacity="1" fill-rule="nonzero"/><path fill="#fab713" d="M 162.316406 158.328125 C 162.316406 158.59375 162.292969 158.851562 162.238281 159.109375 C 162.1875 159.371094 162.113281 159.621094 162.011719 159.863281 C 161.914062 160.105469 161.789062 160.335938 161.644531 160.554688 C 161.5 160.777344 161.335938 160.976562 161.148438 161.164062 C 160.964844 161.351562 160.761719 161.515625 160.546875 161.664062 C 160.328125 161.808594 160.097656 161.933594 159.855469 162.035156 C 159.617188 162.132812 159.367188 162.210938 159.109375 162.261719 C 158.851562 162.3125 158.59375 162.339844 158.332031 162.339844 C 158.070312 162.339844 157.8125 162.3125 157.554688 162.261719 C 157.296875 162.210938 157.050781 162.132812 156.808594 162.035156 C 156.566406 161.933594 156.335938 161.808594 156.117188 161.664062 C 155.902344 161.515625 155.699219 161.351562 155.515625 161.164062 C 155.328125 160.976562 155.164062 160.777344 155.019531 160.554688 C 154.875 160.335938 154.75 160.105469 154.652344 159.863281 C 154.550781 159.621094 154.476562 159.371094 154.425781 159.109375 C 154.375 158.851562 154.347656 158.59375 154.347656 158.328125 C 154.347656 158.066406 154.375 157.804688 154.425781 157.546875 C 154.476562 157.289062 154.550781 157.039062 154.652344 156.792969 C 154.75 156.550781 154.875 156.320312 155.019531 156.101562 C 155.164062 155.882812 155.328125 155.679688 155.515625 155.492188 C 155.699219 155.308594 155.902344 155.140625 156.117188 154.996094 C 156.335938 154.847656 156.566406 154.726562 156.808594 154.625 C 157.050781 154.523438 157.296875 154.449219 157.554688 154.394531 C 157.8125 154.34375 158.070312 154.320312 158.332031 154.320312 C 158.59375 154.320312 158.851562 154.34375 159.109375 154.394531 C 159.367188 154.449219 159.617188 154.523438 159.855469 154.625 C 160.097656 154.726562 160.328125 154.847656 160.546875 154.996094 C 160.761719 155.140625 160.964844 155.308594 161.148438 155.492188 C 161.335938 155.679688 161.5 155.882812 161.644531 156.101562 C 161.789062 156.320312 161.914062 156.550781 162.011719 156.792969 C 162.113281 157.039062 162.1875 157.289062 162.238281 157.546875 C 162.292969 157.804688 162.316406 158.066406 162.316406 158.328125 Z M 162.316406 158.328125 " fill-opacity="1" fill-rule="nonzero"/><path fill="#fab713" d="M 66.917969 63.4375 L 59.886719 63.4375 L 59.886719 69.859375 L 66.917969 69.859375 L 66.917969 72.929688 L 76.257812 66.660156 L 66.917969 60.367188 Z M 66.917969 63.4375 " fill-opacity="1" fill-rule="nonzero"/></svg>