<svg xmlns="http://www.w3.org/2000/svg" xmlns:xlink="http://www.w3.org/1999/xlink" width="300" zoomAndPan="magnify" viewBox="0 0 224.87999 225" height="300" preserveAspectRatio="xMidYMid meet" version="1.0"><defs><clipPath id="169c84c1aa"><path d="M 67.464844 67.523438 L 157.414062 67.523438 L 157.414062 157.476562 L 67.464844 157.476562 Z M 67.464844 67.523438 " clip-rule="nonzero"/></clipPath></defs><g clip-path="url(#169c84c1aa)"><path fill="#fab713" d="M 153.773438 136.175781 C 152.621094 135.023438 151.289062 134.125 149.816406 133.496094 C 148.285156 132.847656 146.648438 132.503906 144.976562 132.503906 C 143.300781 132.503906 141.664062 132.828125 140.136719 133.496094 C 138.660156 134.125 137.328125 135.023438 136.179688 136.175781 C 135.027344 137.328125 134.144531 138.65625 133.515625 140.132812 C 133.011719 141.320312 132.707031 142.578125 132.582031 143.855469 L 115.6875 143.855469 C 115.597656 143.191406 115.417969 142.527344 115.148438 141.894531 C 114.75 140.960938 114.175781 140.097656 113.457031 139.378906 C 112.738281 138.65625 111.890625 138.082031 110.9375 137.6875 C 109.964844 137.273438 108.921875 137.058594 107.863281 137.058594 C 106.800781 137.058594 105.757812 137.273438 104.785156 137.6875 C 103.847656 138.082031 103.003906 138.65625 102.265625 139.378906 C 101.546875 140.097656 100.972656 140.960938 100.574219 141.894531 C 100.304688 142.527344 100.125 143.171875 100.035156 143.855469 L 84.816406 143.855469 C 76.503906 143.855469 69.738281 137.074219 69.738281 128.746094 C 69.738281 120.414062 76.503906 113.632812 84.816406 113.632812 L 88.289062 113.632812 C 88.378906 114.300781 88.558594 114.964844 88.828125 115.59375 C 89.222656 116.53125 89.800781 117.394531 90.519531 118.113281 C 91.238281 118.832031 92.082031 119.410156 93.039062 119.804688 C 94.007812 120.21875 95.050781 120.433594 96.113281 120.433594 C 97.175781 120.433594 98.21875 120.21875 99.191406 119.804688 C 100.125 119.410156 100.972656 118.832031 101.707031 118.113281 C 102.445312 117.394531 103.003906 116.53125 103.398438 115.59375 C 103.667969 114.964844 103.847656 114.316406 103.941406 113.632812 L 120.328125 113.632812 C 120.417969 114.300781 120.597656 114.964844 120.867188 115.59375 C 121.265625 116.53125 121.839844 117.394531 122.558594 118.113281 C 123.277344 118.832031 124.125 119.410156 125.078125 119.804688 C 126.050781 120.21875 127.09375 120.433594 128.15625 120.433594 C 129.214844 120.433594 130.257812 120.21875 131.230469 119.804688 C 132.167969 119.410156 133.011719 118.832031 133.75 118.113281 C 134.46875 117.394531 135.046875 116.53125 135.441406 115.59375 C 135.710938 114.964844 135.890625 114.316406 135.980469 113.632812 L 140.082031 113.632812 C 142.421875 113.632812 144.6875 113.164062 146.828125 112.265625 C 148.898438 111.382812 150.75 110.144531 152.332031 108.542969 C 153.917969 106.941406 155.175781 105.089844 156.039062 103.019531 C 156.9375 100.878906 157.40625 98.59375 157.40625 96.253906 C 157.40625 93.914062 156.957031 91.632812 156.039062 89.492188 C 155.15625 87.421875 153.917969 85.570312 152.332031 83.96875 C 150.75 82.367188 148.878906 81.125 146.828125 80.242188 C 144.6875 79.34375 142.421875 78.875 140.082031 78.875 L 124.234375 78.875 C 124.144531 78.210938 123.960938 77.542969 123.691406 76.914062 C 123.296875 75.980469 122.722656 75.117188 122 74.394531 C 121.28125 73.675781 120.4375 73.101562 119.484375 72.707031 C 118.511719 72.292969 117.46875 72.074219 116.40625 72.074219 C 115.34375 72.074219 114.300781 72.292969 113.332031 72.707031 C 112.394531 73.101562 111.550781 73.675781 110.8125 74.394531 C 110.09375 75.117188 109.515625 75.980469 109.121094 76.914062 C 108.851562 77.542969 108.671875 78.191406 108.582031 78.875 L 92.335938 78.875 C 92.226562 77.597656 91.902344 76.339844 91.398438 75.152344 C 90.769531 73.660156 89.871094 72.328125 88.738281 71.195312 C 87.585938 70.042969 86.253906 69.144531 84.78125 68.511719 C 83.234375 67.847656 81.59375 67.523438 79.921875 67.523438 C 78.25 67.523438 76.613281 67.847656 75.082031 68.511719 C 73.609375 69.144531 72.277344 70.042969 71.125 71.195312 C 69.972656 72.34375 69.09375 73.675781 68.460938 75.152344 C 67.796875 76.679688 67.472656 78.316406 67.472656 80.007812 C 67.472656 81.699219 67.796875 83.320312 68.445312 84.867188 C 69.074219 86.359375 69.972656 87.691406 71.105469 88.824219 C 72.257812 89.976562 73.589844 90.875 75.066406 91.503906 C 76.59375 92.152344 78.230469 92.496094 79.90625 92.496094 C 81.578125 92.496094 83.214844 92.171875 84.742188 91.503906 C 86.21875 90.875 87.550781 89.976562 88.703125 88.824219 C 89.851562 87.671875 90.734375 86.34375 91.363281 84.867188 C 91.867188 83.679688 92.171875 82.421875 92.300781 81.144531 L 108.546875 81.144531 C 108.636719 81.808594 108.816406 82.472656 109.085938 83.105469 C 109.480469 84.039062 110.054688 84.902344 110.777344 85.621094 C 111.496094 86.34375 112.339844 86.917969 113.292969 87.3125 C 114.265625 87.726562 115.308594 87.941406 116.371094 87.941406 C 117.433594 87.941406 118.476562 87.726562 119.445312 87.3125 C 120.382812 86.917969 121.226562 86.34375 121.964844 85.621094 C 122.683594 84.902344 123.261719 84.039062 123.65625 83.105469 C 123.925781 82.472656 124.105469 81.828125 124.195312 81.144531 L 140.046875 81.144531 C 148.359375 81.144531 155.121094 87.925781 155.121094 96.253906 C 155.121094 104.585938 148.359375 111.367188 140.046875 111.367188 L 135.945312 111.367188 C 135.855469 110.699219 135.675781 110.035156 135.40625 109.40625 C 135.007812 108.46875 134.433594 107.605469 133.714844 106.886719 C 132.992188 106.167969 132.148438 105.589844 131.195312 105.195312 C 130.222656 104.78125 129.179688 104.566406 128.117188 104.566406 C 127.058594 104.566406 126.015625 104.78125 125.042969 105.195312 C 124.105469 105.589844 123.261719 106.167969 122.523438 106.886719 C 121.804688 107.605469 121.226562 108.46875 120.832031 109.40625 C 120.5625 110.035156 120.382812 110.683594 120.292969 111.367188 L 103.902344 111.367188 C 103.8125 110.699219 103.632812 110.035156 103.363281 109.40625 C 102.96875 108.46875 102.390625 107.605469 101.671875 106.886719 C 100.953125 106.167969 100.109375 105.589844 99.152344 105.195312 C 98.183594 104.78125 97.140625 104.566406 96.078125 104.566406 C 95.015625 104.566406 93.972656 104.78125 93 105.195312 C 92.066406 105.589844 91.21875 106.167969 90.484375 106.886719 C 89.761719 107.605469 89.1875 108.46875 88.792969 109.40625 C 88.523438 110.035156 88.34375 110.683594 88.25 111.367188 L 84.816406 111.367188 C 82.476562 111.367188 80.210938 111.835938 78.070312 112.734375 C 76 113.617188 74.148438 114.855469 72.5625 116.457031 C 70.980469 118.058594 69.722656 119.910156 68.859375 121.980469 C 67.957031 124.121094 67.492188 126.40625 67.492188 128.746094 C 67.492188 131.085938 67.941406 133.367188 68.859375 135.507812 C 69.738281 137.578125 70.980469 139.429688 72.5625 141.03125 C 74.148438 142.632812 76.019531 143.875 78.070312 144.757812 C 80.210938 145.65625 82.476562 146.125 84.816406 146.125 L 100.035156 146.125 C 100.125 146.789062 100.304688 147.457031 100.574219 148.085938 C 100.972656 149.019531 101.546875 149.882812 102.265625 150.605469 C 102.984375 151.324219 103.832031 151.898438 104.785156 152.292969 C 105.757812 152.707031 106.800781 152.925781 107.863281 152.925781 C 108.921875 152.925781 109.964844 152.707031 110.9375 152.292969 C 111.875 151.898438 112.71875 151.324219 113.457031 150.605469 C 114.175781 149.882812 114.75 149.019531 115.148438 148.085938 C 115.417969 147.457031 115.597656 146.808594 115.6875 146.125 L 132.582031 146.125 C 132.6875 147.402344 133.011719 148.660156 133.515625 149.847656 C 134.144531 151.339844 135.046875 152.671875 136.179688 153.804688 C 137.3125 154.9375 138.660156 155.855469 140.136719 156.488281 C 141.664062 157.132812 143.300781 157.476562 144.976562 157.476562 C 146.648438 157.476562 148.285156 157.152344 149.816406 156.488281 C 151.289062 155.855469 152.621094 154.957031 153.773438 153.804688 C 154.925781 152.65625 155.804688 151.324219 156.433594 149.847656 C 157.082031 148.300781 157.40625 146.683594 157.40625 144.992188 C 157.40625 143.300781 157.082031 141.679688 156.433594 140.132812 C 155.824219 138.65625 154.925781 137.308594 153.773438 136.175781 Z M 79.921875 90.226562 C 74.308594 90.226562 69.722656 85.640625 69.722656 80.007812 C 69.722656 74.359375 74.308594 69.789062 79.921875 69.789062 C 85.535156 69.789062 90.121094 74.378906 90.121094 80.007812 C 90.121094 85.640625 85.554688 90.226562 79.921875 90.226562 Z M 116.40625 85.675781 C 113.292969 85.675781 110.757812 83.140625 110.757812 80.007812 C 110.757812 76.878906 113.292969 74.34375 116.40625 74.34375 C 119.519531 74.34375 122.054688 76.878906 122.054688 80.007812 C 122.054688 83.140625 119.519531 85.675781 116.40625 85.675781 Z M 128.15625 106.832031 C 131.265625 106.832031 133.804688 109.371094 133.804688 112.5 C 133.804688 115.628906 131.265625 118.167969 128.15625 118.167969 C 125.042969 118.167969 122.503906 115.628906 122.503906 112.5 C 122.503906 109.371094 125.042969 106.832031 128.15625 106.832031 Z M 96.113281 106.832031 C 99.226562 106.832031 101.761719 109.371094 101.761719 112.5 C 101.761719 115.628906 99.226562 118.167969 96.113281 118.167969 C 93 118.167969 90.464844 115.628906 90.464844 112.5 C 90.464844 109.371094 92.984375 106.832031 96.113281 106.832031 Z M 107.863281 150.65625 C 104.75 150.65625 102.210938 148.121094 102.210938 144.992188 C 102.210938 141.859375 104.75 139.324219 107.863281 139.324219 C 110.972656 139.324219 113.511719 141.859375 113.511719 144.992188 C 113.511719 148.121094 110.972656 150.65625 107.863281 150.65625 Z M 144.976562 155.210938 C 139.363281 155.210938 134.773438 150.621094 134.773438 144.992188 C 134.773438 139.359375 139.34375 134.773438 144.976562 134.773438 C 150.589844 134.773438 155.175781 139.359375 155.175781 144.992188 C 155.175781 150.640625 150.589844 155.210938 144.976562 155.210938 Z M 144.976562 155.210938 " fill-opacity="1" fill-rule="nonzero"/></g><path fill="#fab713" d="M 144.976562 137.21875 C 142.90625 137.21875 140.964844 138.027344 139.488281 139.503906 C 138.011719 140.980469 137.222656 142.921875 137.222656 144.992188 C 137.222656 147.058594 138.03125 149.019531 139.488281 150.476562 C 140.945312 151.953125 142.90625 152.761719 144.976562 152.761719 C 147.042969 152.761719 148.988281 151.953125 150.460938 150.476562 C 151.917969 149.003906 152.730469 147.058594 152.730469 144.992188 C 152.730469 142.921875 151.917969 140.960938 150.460938 139.503906 C 148.988281 138.027344 147.042969 137.21875 144.976562 137.21875 Z M 144.976562 150.515625 C 141.953125 150.515625 139.46875 148.050781 139.46875 145.007812 C 139.46875 141.96875 141.933594 139.503906 144.976562 139.503906 C 147.996094 139.503906 150.480469 141.96875 150.480469 145.007812 C 150.480469 148.03125 147.996094 150.515625 144.976562 150.515625 Z M 144.976562 150.515625 " fill-opacity="1" fill-rule="nonzero"/><path fill="#fab713" d="M 147.800781 144.992188 C 147.800781 145.367188 147.726562 145.730469 147.585938 146.078125 C 147.441406 146.425781 147.238281 146.734375 146.972656 147 C 146.707031 147.265625 146.402344 147.472656 146.054688 147.617188 C 145.710938 147.761719 145.351562 147.832031 144.976562 147.832031 C 144.601562 147.832031 144.242188 147.761719 143.894531 147.617188 C 143.546875 147.472656 143.242188 147.265625 142.976562 147 C 142.714844 146.734375 142.507812 146.425781 142.367188 146.078125 C 142.222656 145.730469 142.152344 145.367188 142.152344 144.992188 C 142.152344 144.613281 142.222656 144.25 142.367188 143.902344 C 142.507812 143.554688 142.714844 143.246094 142.976562 142.980469 C 143.242188 142.714844 143.546875 142.507812 143.894531 142.363281 C 144.242188 142.21875 144.601562 142.148438 144.976562 142.148438 C 145.351562 142.148438 145.710938 142.21875 146.054688 142.363281 C 146.402344 142.507812 146.707031 142.714844 146.972656 142.980469 C 147.238281 143.246094 147.441406 143.554688 147.585938 143.902344 C 147.726562 144.25 147.800781 144.613281 147.800781 144.992188 Z M 147.800781 144.992188 " fill-opacity="1" fill-rule="nonzero"/><path fill="#fab713" d="M 80.175781 77.722656 L 75.191406 77.722656 L 75.191406 82.277344 L 80.175781 82.277344 L 80.175781 84.453125 L 86.792969 80.007812 L 80.175781 75.546875 Z M 80.175781 77.722656 " fill-opacity="1" fill-rule="nonzero"/></svg>