<svg xmlns="http://www.w3.org/2000/svg" xmlns:xlink="http://www.w3.org/1999/xlink" width="300" zoomAndPan="magnify" viewBox="0 0 224.87999 225" height="300" preserveAspectRatio="xMidYMid meet" version="1.0"><defs><clipPath id="9b878f8019"><path d="M 51.214844 45.035156 L 173.402344 45.035156 L 173.402344 179.964844 L 51.214844 179.964844 Z M 51.214844 45.035156 " clip-rule="nonzero"/></clipPath></defs><g clip-path="url(#9b878f8019)"><path fill="#fab713" d="M 115.828125 91.207031 C 115.007812 90.199219 114.679688 88.953125 114.800781 87.753906 C 114.921875 86.605469 115.457031 85.496094 116.386719 84.6875 C 116.46875 84.605469 116.558594 84.53125 116.652344 84.472656 C 117.632812 83.730469 118.824219 83.433594 119.96875 83.554688 C 121.117188 83.671875 122.222656 84.207031 123.03125 85.136719 C 123.105469 85.210938 123.171875 85.289062 123.226562 85.371094 L 126.710938 89.660156 L 128.480469 87.484375 L 130.335938 85.195312 L 130.347656 85.183594 L 130.390625 85.128906 L 135.6875 78.613281 C 136.503906 77.605469 137.660156 77.023438 138.863281 76.902344 C 140.058594 76.777344 141.308594 77.109375 142.316406 77.925781 C 143.324219 78.742188 143.902344 79.898438 144.027344 81.101562 C 144.152344 82.300781 143.820312 83.550781 143.003906 84.554688 L 137.65625 91.132812 L 135.878906 93.320312 C 135.824219 93.398438 135.765625 93.472656 135.703125 93.539062 L 130.453125 100 C 130.332031 100.152344 130.195312 100.296875 130.058594 100.433594 C 129.925781 100.558594 129.78125 100.679688 129.632812 100.789062 C 128.632812 101.589844 127.398438 101.914062 126.210938 101.792969 C 125.011719 101.667969 123.855469 101.085938 123.039062 100.082031 Z M 129.414062 64.179688 C 122.519531 64.179688 116.269531 66.960938 111.722656 71.457031 C 111.6875 71.488281 111.652344 71.519531 111.621094 71.550781 C 107.066406 76.105469 104.25 82.398438 104.25 89.34375 C 104.25 96.292969 107.066406 102.585938 111.621094 107.140625 C 116.175781 111.695312 122.46875 114.511719 129.414062 114.511719 C 136.363281 114.511719 142.65625 111.695312 147.210938 107.140625 C 151.765625 102.585938 154.582031 96.292969 154.582031 89.34375 C 154.582031 82.398438 151.765625 76.105469 147.210938 71.550781 C 142.65625 66.996094 136.363281 64.179688 129.414062 64.179688 Z M 144.832031 73.929688 C 140.886719 69.984375 135.433594 67.542969 129.414062 67.542969 C 123.433594 67.542969 118.015625 69.949219 114.078125 73.84375 C 114.054688 73.875 114.027344 73.902344 114 73.929688 C 110.054688 77.875 107.613281 83.324219 107.613281 89.34375 C 107.613281 95.363281 110.054688 100.816406 114 104.761719 C 117.945312 108.707031 123.394531 111.148438 129.414062 111.148438 C 135.433594 111.148438 140.886719 108.707031 144.832031 104.761719 C 148.777344 100.816406 151.214844 95.363281 151.214844 89.34375 C 151.214844 83.324219 148.777344 77.875 144.832031 73.929688 Z M 129.414062 133.597656 C 129.972656 133.597656 130.605469 133.582031 131.3125 133.550781 C 132.003906 133.519531 132.625 133.480469 133.175781 133.433594 C 134.316406 133.339844 135.34375 132.875 136.144531 132.148438 C 136.941406 131.425781 137.503906 130.449219 137.714844 129.320312 L 138.398438 125.640625 C 138.457031 125.304688 138.601562 125.015625 138.808594 124.792969 C 139.011719 124.574219 139.289062 124.410156 139.621094 124.320312 C 141.191406 123.90625 142.714844 123.390625 144.179688 122.78125 C 145.667969 122.164062 147.109375 121.449219 148.496094 120.644531 C 148.792969 120.46875 149.109375 120.390625 149.417969 120.402344 C 149.71875 120.410156 150.023438 120.515625 150.300781 120.707031 L 152.917969 122.507812 C 153.894531 123.179688 155.019531 123.472656 156.121094 123.398438 C 157.222656 123.320312 158.300781 122.878906 159.175781 122.085938 C 159.832031 121.488281 160.515625 120.824219 161.21875 120.09375 C 161.882812 119.40625 162.523438 118.703125 163.136719 117.984375 C 163.882812 117.105469 164.289062 116.050781 164.34375 114.976562 C 164.398438 113.898438 164.105469 112.808594 163.449219 111.859375 L 161.761719 109.40625 C 161.742188 109.371094 161.722656 109.339844 161.699219 109.308594 C 161.507812 109.027344 161.402344 108.722656 161.390625 108.421875 C 161.382812 108.117188 161.460938 107.800781 161.636719 107.503906 C 162.441406 106.117188 163.160156 104.671875 163.773438 103.183594 C 164.382812 101.71875 164.898438 100.199219 165.3125 98.632812 C 165.398438 98.296875 165.566406 98.019531 165.785156 97.816406 C 166.007812 97.609375 166.296875 97.46875 166.636719 97.40625 L 169.449219 96.886719 C 170.542969 96.683594 171.496094 96.148438 172.210938 95.386719 C 172.246094 95.355469 172.28125 95.320312 172.3125 95.285156 C 173.039062 94.46875 173.492188 93.414062 173.570312 92.246094 C 173.597656 91.820312 173.617188 91.332031 173.636719 90.796875 C 173.65625 90.195312 173.664062 89.707031 173.664062 89.347656 C 173.664062 88.984375 173.65625 88.496094 173.636719 87.894531 C 173.617188 87.359375 173.597656 86.871094 173.570312 86.445312 C 173.496094 85.332031 173.074219 84.320312 172.402344 83.519531 C 172.375 83.480469 172.34375 83.445312 172.3125 83.410156 C 171.589844 82.59375 170.597656 82.019531 169.449219 81.808594 L 166.632812 81.285156 C 166.328125 81.230469 166.058594 81.105469 165.847656 80.929688 L 165.792969 80.875 C 165.566406 80.667969 165.398438 80.386719 165.3125 80.058594 C 164.898438 78.492188 164.382812 76.972656 163.773438 75.507812 C 163.160156 74.019531 162.441406 72.578125 161.636719 71.1875 C 161.460938 70.890625 161.382812 70.574219 161.390625 70.269531 C 161.402344 69.96875 161.507812 69.664062 161.699219 69.382812 L 161.695312 69.382812 L 161.699219 69.378906 L 163.386719 66.921875 L 163.453125 66.835938 C 164.105469 65.882812 164.398438 64.792969 164.34375 63.714844 C 164.292969 62.691406 163.917969 61.679688 163.234375 60.828125 C 163.207031 60.785156 163.175781 60.746094 163.140625 60.707031 C 162.53125 59.992188 161.890625 59.285156 161.222656 58.59375 C 160.550781 57.898438 159.863281 57.234375 159.175781 56.605469 C 158.300781 55.8125 157.222656 55.371094 156.117188 55.296875 C 155.019531 55.21875 153.894531 55.511719 152.917969 56.183594 L 150.300781 57.984375 C 150.019531 58.175781 149.714844 58.28125 149.414062 58.292969 C 149.109375 58.304688 148.792969 58.222656 148.496094 58.050781 C 147.109375 57.246094 145.667969 56.527344 144.183594 55.914062 C 142.714844 55.304688 141.191406 54.789062 139.621094 54.371094 C 139.292969 54.285156 139.015625 54.117188 138.808594 53.894531 L 138.804688 53.894531 C 138.601562 53.675781 138.457031 53.386719 138.398438 53.050781 L 137.714844 49.371094 C 137.503906 48.242188 136.941406 47.265625 136.144531 46.539062 C 135.34375 45.816406 134.3125 45.351562 133.175781 45.253906 C 132.625 45.210938 132 45.171875 131.300781 45.140625 C 130.59375 45.109375 129.960938 45.097656 129.414062 45.097656 C 128.867188 45.097656 128.238281 45.109375 127.53125 45.140625 C 126.832031 45.171875 126.203125 45.210938 125.652344 45.253906 C 124.511719 45.351562 123.484375 45.816406 122.683594 46.542969 C 121.886719 47.265625 121.324219 48.242188 121.113281 49.371094 L 120.433594 53.050781 C 120.375 53.359375 120.253906 53.625 120.074219 53.839844 L 120.023438 53.894531 C 119.8125 54.117188 119.535156 54.285156 119.207031 54.371094 C 117.640625 54.785156 116.117188 55.300781 114.652344 55.910156 C 113.164062 56.527344 111.722656 57.242188 110.335938 58.050781 C 110.039062 58.222656 109.722656 58.304688 109.417969 58.292969 C 109.136719 58.28125 108.851562 58.191406 108.59375 58.03125 L 108.53125 57.984375 L 105.910156 56.183594 L 105.910156 56.1875 L 105.90625 56.183594 C 104.929688 55.511719 103.804688 55.21875 102.710938 55.292969 C 101.605469 55.367188 100.527344 55.8125 99.65625 56.605469 C 98.960938 57.238281 98.277344 57.902344 97.605469 58.59375 C 96.9375 59.285156 96.296875 59.992188 95.6875 60.707031 L 95.691406 60.710938 C 94.945312 61.589844 94.539062 62.644531 94.484375 63.714844 C 94.429688 64.792969 94.722656 65.882812 95.371094 66.828125 L 95.375 66.828125 L 95.378906 66.835938 L 97.132812 69.382812 L 97.136719 69.382812 C 97.324219 69.660156 97.425781 69.964844 97.4375 70.269531 C 97.449219 70.574219 97.367188 70.890625 97.195312 71.1875 C 96.390625 72.574219 95.675781 74.019531 95.058594 75.503906 C 94.449219 76.972656 93.933594 78.492188 93.519531 80.058594 C 93.4375 80.363281 93.296875 80.621094 93.105469 80.816406 L 93.039062 80.875 C 92.816406 81.082031 92.53125 81.226562 92.199219 81.285156 L 89.382812 81.808594 C 88.289062 82.007812 87.335938 82.546875 86.617188 83.304688 C 86.585938 83.339844 86.550781 83.371094 86.519531 83.410156 C 85.792969 84.222656 85.335938 85.277344 85.261719 86.445312 C 85.234375 86.875 85.210938 87.355469 85.195312 87.894531 C 85.175781 88.492188 85.164062 88.980469 85.164062 89.347656 C 85.164062 89.714844 85.175781 90.199219 85.195312 90.796875 C 85.210938 91.335938 85.234375 91.816406 85.261719 92.246094 C 85.332031 93.359375 85.753906 94.371094 86.425781 95.171875 C 86.453125 95.210938 86.484375 95.246094 86.515625 95.28125 C 87.238281 96.097656 88.234375 96.671875 89.382812 96.886719 L 92.195312 97.40625 C 92.53125 97.464844 92.816406 97.609375 93.039062 97.816406 L 93.042969 97.8125 L 93.046875 97.816406 C 93.265625 98.019531 93.429688 98.296875 93.519531 98.632812 C 93.933594 100.199219 94.449219 101.722656 95.058594 103.1875 C 95.675781 104.675781 96.390625 106.117188 97.195312 107.503906 C 97.371094 107.800781 97.449219 108.117188 97.4375 108.421875 C 97.429688 108.703125 97.339844 108.988281 97.175781 109.246094 L 97.132812 109.308594 L 95.378906 111.859375 L 95.382812 111.859375 L 95.378906 111.863281 C 94.726562 112.8125 94.429688 113.90625 94.484375 114.976562 C 94.539062 116 94.910156 117.011719 95.597656 117.863281 C 95.625 117.90625 95.65625 117.945312 95.6875 117.984375 C 96.265625 118.664062 96.910156 119.371094 97.609375 120.09375 C 98.316406 120.824219 99 121.488281 99.65625 122.085938 C 100.53125 122.882812 101.605469 123.324219 102.710938 123.398438 C 103.808594 123.472656 104.933594 123.179688 105.910156 122.507812 L 108.53125 120.707031 C 108.808594 120.515625 109.117188 120.410156 109.414062 120.398438 C 109.71875 120.386719 110.039062 120.46875 110.335938 120.640625 C 111.722656 121.449219 113.164062 122.164062 114.652344 122.78125 C 116.121094 123.390625 117.640625 123.90625 119.207031 124.320312 C 119.539062 124.410156 119.820312 124.574219 120.023438 124.792969 C 120.226562 125.015625 120.371094 125.304688 120.433594 125.640625 L 121.113281 129.320312 C 121.320312 130.445312 121.882812 131.425781 122.683594 132.148438 C 123.484375 132.875 124.511719 133.339844 125.652344 133.433594 C 126.203125 133.480469 126.824219 133.519531 127.519531 133.550781 C 128.226562 133.582031 128.859375 133.597656 129.414062 133.597656 Z M 127.664062 130.199219 C 128.167969 130.21875 128.75 130.230469 129.414062 130.230469 C 130.082031 130.230469 130.664062 130.21875 131.164062 130.199219 C 131.679688 130.175781 132.257812 130.136719 132.902344 130.082031 C 133.296875 130.050781 133.640625 129.898438 133.898438 129.664062 C 134.160156 129.429688 134.34375 129.101562 134.414062 128.714844 L 135.097656 125.035156 C 135.277344 124.066406 135.714844 123.207031 136.351562 122.519531 C 136.988281 121.832031 137.8125 121.328125 138.765625 121.074219 C 140.175781 120.703125 141.554688 120.234375 142.894531 119.679688 C 144.25 119.117188 145.5625 118.46875 146.8125 117.738281 C 147.667969 117.242188 148.601562 117.015625 149.535156 117.050781 C 150.46875 117.085938 151.390625 117.386719 152.207031 117.949219 L 154.824219 119.746094 C 155.152344 119.972656 155.527344 120.070312 155.898438 120.046875 C 156.261719 120.019531 156.617188 119.871094 156.914062 119.601562 C 157.613281 118.96875 158.246094 118.355469 158.816406 117.769531 C 159.421875 117.140625 160.015625 116.488281 160.585938 115.8125 C 160.839844 115.519531 160.976562 115.164062 160.992188 114.804688 C 161.011719 114.449219 160.910156 114.085938 160.691406 113.761719 L 160.695312 113.761719 L 160.691406 113.757812 L 159.003906 111.300781 L 158.9375 111.214844 C 158.375 110.398438 158.078125 109.476562 158.039062 108.539062 C 158.007812 107.609375 158.234375 106.675781 158.730469 105.820312 C 159.460938 104.566406 160.109375 103.257812 160.671875 101.898438 C 161.226562 100.5625 161.695312 99.183594 162.066406 97.777344 C 162.320312 96.824219 162.824219 95.996094 163.511719 95.359375 C 164.199219 94.722656 165.058594 94.285156 166.03125 94.105469 L 168.84375 93.585938 C 169.203125 93.519531 169.515625 93.351562 169.746094 93.113281 L 169.800781 93.050781 C 170.039062 92.78125 170.191406 92.429688 170.21875 92.035156 C 170.25 91.539062 170.273438 91.089844 170.285156 90.691406 C 170.292969 90.367188 170.300781 89.917969 170.300781 89.347656 C 170.300781 88.773438 170.292969 88.324219 170.285156 88 C 170.273438 87.601562 170.25 87.152344 170.21875 86.65625 C 170.195312 86.289062 170.0625 85.960938 169.855469 85.699219 L 169.800781 85.640625 C 169.558594 85.371094 169.226562 85.179688 168.84375 85.105469 L 166.03125 84.585938 C 165.109375 84.417969 164.289062 84.015625 163.621094 83.433594 C 163.582031 83.402344 163.542969 83.367188 163.503906 83.332031 C 162.820312 82.699219 162.320312 81.875 162.066406 80.914062 C 161.695312 79.507812 161.226562 78.128906 160.671875 76.792969 C 160.109375 75.4375 159.460938 74.125 158.730469 72.871094 C 158.234375 72.019531 158.007812 71.082031 158.039062 70.152344 C 158.078125 69.214844 158.375 68.296875 158.9375 67.476562 L 158.941406 67.480469 L 160.628906 65.027344 C 160.648438 64.992188 160.667969 64.960938 160.691406 64.929688 C 160.910156 64.609375 161.011719 64.242188 160.992188 63.886719 C 160.976562 63.554688 160.859375 63.230469 160.644531 62.949219 L 160.578125 62.878906 C 160.007812 62.203125 159.417969 61.554688 158.816406 60.933594 L 158.8125 60.925781 C 158.210938 60.308594 157.578125 59.691406 156.914062 59.089844 C 156.617188 58.820312 156.257812 58.671875 155.894531 58.648438 C 155.527344 58.621094 155.152344 58.71875 154.824219 58.945312 L 152.207031 60.746094 C 151.390625 61.308594 150.46875 61.609375 149.535156 61.644531 C 148.601562 61.679688 147.667969 61.449219 146.8125 60.953125 C 145.5625 60.226562 144.253906 59.578125 142.894531 59.015625 C 141.554688 58.460938 140.175781 57.992188 138.769531 57.617188 C 137.808594 57.363281 136.984375 56.863281 136.351562 56.179688 L 136.351562 56.175781 C 135.714844 55.488281 135.277344 54.628906 135.097656 53.65625 L 134.414062 49.972656 C 134.34375 49.589844 134.15625 49.261719 133.898438 49.023438 C 133.640625 48.792969 133.292969 48.640625 132.902344 48.605469 C 132.253906 48.550781 131.679688 48.515625 131.167969 48.492188 C 130.671875 48.472656 130.085938 48.460938 129.414062 48.460938 C 128.742188 48.460938 128.160156 48.472656 127.660156 48.492188 C 127.152344 48.515625 126.574219 48.550781 125.925781 48.605469 C 125.535156 48.640625 125.1875 48.792969 124.929688 49.027344 C 124.671875 49.261719 124.484375 49.589844 124.414062 49.976562 L 123.730469 53.65625 C 123.5625 54.574219 123.160156 55.394531 122.582031 56.0625 C 122.546875 56.101562 122.515625 56.140625 122.480469 56.179688 C 121.847656 56.863281 121.019531 57.363281 120.0625 57.617188 C 118.652344 57.988281 117.277344 58.457031 115.9375 59.011719 C 114.582031 59.574219 113.269531 60.226562 112.019531 60.953125 C 111.164062 61.449219 110.230469 61.679688 109.296875 61.644531 C 108.410156 61.609375 107.53125 61.332031 106.742188 60.820312 C 106.703125 60.796875 106.664062 60.773438 106.625 60.746094 L 104.007812 58.945312 L 104.007812 58.941406 C 103.683594 58.71875 103.304688 58.621094 102.933594 58.644531 C 102.570312 58.671875 102.210938 58.820312 101.914062 59.089844 C 101.253906 59.691406 100.617188 60.308594 100.011719 60.933594 C 99.410156 61.554688 98.824219 62.203125 98.25 62.878906 L 98.246094 62.875 L 98.242188 62.878906 C 97.992188 63.171875 97.855469 63.527344 97.835938 63.886719 C 97.820312 64.242188 97.921875 64.609375 98.144531 64.933594 L 98.144531 64.9375 L 99.890625 67.476562 L 99.890625 67.484375 C 100.453125 68.300781 100.753906 69.21875 100.789062 70.152344 C 100.824219 71.082031 100.59375 72.019531 100.101562 72.871094 C 99.371094 74.125 98.722656 75.433594 98.160156 76.792969 C 97.605469 78.128906 97.136719 79.507812 96.765625 80.914062 C 96.527344 81.816406 96.0625 82.605469 95.433594 83.226562 C 95.398438 83.261719 95.363281 83.296875 95.328125 83.332031 C 94.644531 83.96875 93.777344 84.40625 92.800781 84.585938 L 89.988281 85.105469 C 89.628906 85.171875 89.316406 85.339844 89.082031 85.578125 L 89.027344 85.644531 C 88.789062 85.910156 88.640625 86.261719 88.613281 86.65625 C 88.582031 87.148438 88.558594 87.601562 88.546875 88 C 88.535156 88.328125 88.53125 88.777344 88.53125 89.347656 C 88.53125 89.914062 88.535156 90.367188 88.546875 90.695312 C 88.558594 91.089844 88.582031 91.542969 88.613281 92.035156 C 88.636719 92.402344 88.765625 92.734375 88.972656 92.992188 L 89.027344 93.050781 C 89.269531 93.320312 89.601562 93.515625 89.988281 93.585938 L 92.800781 94.105469 C 93.777344 94.285156 94.640625 94.722656 95.328125 95.359375 L 95.324219 95.363281 C 96.011719 96 96.511719 96.824219 96.765625 97.777344 C 97.136719 99.1875 97.605469 100.5625 98.160156 101.898438 C 98.722656 103.257812 99.371094 104.566406 100.101562 105.820312 C 100.597656 106.671875 100.824219 107.609375 100.789062 108.539062 C 100.757812 109.429688 100.480469 110.308594 99.964844 111.097656 C 99.941406 111.136719 99.917969 111.175781 99.890625 111.214844 L 98.140625 113.761719 L 98.136719 113.761719 C 97.917969 114.082031 97.820312 114.445312 97.835938 114.804688 C 97.855469 115.136719 97.972656 115.460938 98.1875 115.742188 L 98.25 115.8125 C 98.855469 116.523438 99.445312 117.175781 100.015625 117.769531 C 100.582031 118.355469 101.21875 118.96875 101.917969 119.601562 C 102.210938 119.871094 102.570312 120.019531 102.933594 120.046875 C 103.300781 120.070312 103.679688 119.972656 104.007812 119.746094 L 106.625 117.945312 C 107.441406 117.386719 108.359375 117.085938 109.296875 117.046875 C 110.226562 117.015625 111.164062 117.242188 112.019531 117.738281 C 113.269531 118.464844 114.582031 119.117188 115.941406 119.679688 C 117.277344 120.234375 118.65625 120.703125 120.0625 121.074219 C 121.015625 121.328125 121.84375 121.832031 122.480469 122.519531 C 123.113281 123.207031 123.550781 124.066406 123.730469 125.039062 L 124.414062 128.714844 C 124.484375 129.101562 124.667969 129.429688 124.929688 129.664062 C 125.1875 129.898438 125.535156 130.050781 125.925781 130.082031 C 126.570312 130.136719 127.152344 130.175781 127.664062 130.199219 Z M 114.960938 174.640625 C 114.878906 174.628906 114.796875 174.609375 114.714844 174.585938 C 111.230469 173.546875 107.949219 172.507812 103.78125 171.082031 C 99.832031 169.734375 95.027344 168.015625 88.402344 165.59375 L 84.179688 168.03125 C 84.492188 169.105469 84.492188 170.222656 84.214844 171.265625 C 83.816406 172.75 82.851562 174.085938 81.417969 174.910156 L 74.554688 178.875 C 74.519531 178.898438 74.480469 178.917969 74.441406 178.9375 C 73.035156 179.710938 71.441406 179.863281 70 179.476562 C 68.519531 179.078125 67.1875 178.113281 66.355469 176.679688 L 66.351562 176.679688 L 52.207031 152.179688 C 52.183594 152.140625 52.164062 152.101562 52.144531 152.0625 C 51.371094 150.65625 51.222656 149.066406 51.605469 147.625 C 52.003906 146.140625 52.96875 144.804688 54.402344 143.976562 L 54.410156 143.972656 L 61.265625 140.015625 C 61.304688 139.992188 61.34375 139.972656 61.382812 139.953125 C 62.789062 139.179688 64.378906 139.027344 65.820312 139.414062 C 66.867188 139.695312 67.835938 140.253906 68.609375 141.058594 L 79.027344 135.042969 L 79.085938 135.007812 C 82.128906 133.15625 85.355469 132.066406 88.761719 131.738281 C 91.777344 131.449219 94.921875 131.761719 98.191406 132.675781 L 98.261719 132.695312 L 120.96875 138.8125 C 122.882812 139.328125 124.414062 140.578125 125.339844 142.179688 L 125.34375 142.179688 C 126.25 143.75 126.570312 145.65625 126.101562 147.535156 C 126.085938 147.613281 126.0625 147.6875 126.039062 147.761719 C 125.660156 149.085938 124.933594 150.21875 123.980469 151.085938 L 125.734375 151.558594 L 161.039062 131.152344 L 161.042969 131.15625 L 161.046875 131.152344 C 164.046875 129.421875 166.972656 130.109375 169.113281 131.910156 C 169.902344 132.574219 170.574219 133.386719 171.089844 134.273438 C 171.605469 135.164062 171.972656 136.144531 172.15625 137.148438 C 172.652344 139.847656 171.839844 142.648438 169.03125 144.308594 L 135.289062 169.925781 L 135.226562 169.976562 C 132.359375 172.265625 129.214844 173.792969 125.796875 174.570312 C 122.429688 175.335938 118.816406 175.359375 114.960938 174.640625 Z M 82.648438 165.046875 L 70.429688 143.878906 L 80.707031 137.941406 C 80.75 137.921875 80.792969 137.898438 80.832031 137.875 L 80.941406 137.808594 L 81.59375 137.429688 C 83.972656 136.113281 86.46875 135.328125 89.078125 135.078125 C 91.679688 134.828125 94.417969 135.101562 97.285156 135.90625 L 97.394531 135.941406 L 97.523438 135.976562 C 97.792969 136.054688 98.066406 136.136719 98.335938 136.222656 C 98.46875 136.265625 98.597656 136.289062 98.726562 136.300781 L 120.101562 142.058594 C 121.128906 142.335938 121.945312 143.003906 122.4375 143.855469 L 122.441406 143.859375 L 122.4375 143.863281 C 122.929688 144.714844 123.101562 145.753906 122.824219 146.777344 L 122.824219 146.785156 C 122.550781 147.804688 121.882812 148.621094 121.027344 149.113281 L 120.957031 149.160156 C 120.128906 149.609375 119.132812 149.765625 118.152344 149.515625 L 118.105469 149.503906 L 118.097656 149.5 L 106.195312 146.3125 C 105.296875 146.070312 104.375 146.605469 104.136719 147.5 C 103.898438 148.398438 104.429688 149.316406 105.328125 149.558594 L 117.136719 152.722656 C 117.199219 152.742188 117.261719 152.757812 117.328125 152.773438 L 125.535156 154.984375 C 125.953125 155.09375 126.410156 155.046875 126.8125 154.816406 L 162.722656 134.058594 L 162.722656 134.054688 C 164.289062 133.152344 165.828125 133.523438 166.957031 134.472656 C 167.4375 134.875 167.851562 135.386719 168.183594 135.957031 C 168.511719 136.523438 168.746094 137.136719 168.859375 137.75 C 169.117188 139.164062 168.710938 140.617188 167.28125 141.441406 L 167.285156 141.445312 C 167.222656 141.480469 167.167969 141.519531 167.109375 141.5625 L 133.273438 167.25 C 133.226562 167.28125 133.179688 167.3125 133.136719 167.351562 L 132.9375 167.507812 L 132.492188 167.84375 C 130.195312 169.542969 127.71875 170.695312 125.0625 171.296875 C 122.152344 171.960938 119 171.972656 115.601562 171.34375 C 112.164062 170.320312 108.933594 169.292969 104.859375 167.902344 C 100.691406 166.476562 95.703125 164.691406 88.816406 162.175781 C 88.300781 161.988281 87.753906 162.070312 87.324219 162.347656 Z M 66.703125 144.125 L 66.6875 144.097656 L 66.679688 144.082031 L 66.617188 143.972656 L 66.5625 143.890625 C 66.199219 143.261719 65.609375 142.835938 64.953125 142.660156 C 64.320312 142.488281 63.625 142.550781 63.011719 142.878906 L 62.949219 142.917969 L 56.085938 146.882812 L 56.082031 146.882812 C 55.453125 147.246094 55.027344 147.835938 54.851562 148.492188 C 54.683594 149.125 54.742188 149.824219 55.074219 150.4375 L 55.109375 150.496094 L 69.257812 175 L 69.253906 175 L 69.257812 175.003906 C 69.617188 175.628906 70.207031 176.054688 70.867188 176.230469 C 71.5 176.398438 72.199219 176.339844 72.808594 176.011719 L 72.875 175.972656 L 79.738281 172.007812 C 80.367188 171.644531 80.792969 171.054688 80.96875 170.398438 C 81.144531 169.742188 81.070312 169.019531 80.710938 168.390625 L 80.710938 168.386719 Z M 118.140625 88.09375 C 118.105469 88.445312 118.199219 88.804688 118.429688 89.09375 L 125.640625 97.964844 C 125.871094 98.25 126.207031 98.417969 126.554688 98.453125 C 126.894531 98.488281 127.25 98.398438 127.53125 98.179688 L 127.613281 98.117188 C 127.652344 98.085938 127.691406 98.050781 127.730469 98.015625 C 127.769531 97.976562 127.804688 97.9375 127.839844 97.894531 L 127.839844 97.898438 L 127.847656 97.890625 L 133.183594 91.320312 L 133.191406 91.3125 L 135.054688 89.015625 L 140.398438 82.441406 C 140.632812 82.152344 140.726562 81.792969 140.691406 81.441406 C 140.652344 81.09375 140.488281 80.761719 140.203125 80.527344 C 139.914062 80.296875 139.554688 80.203125 139.203125 80.238281 C 138.855469 80.273438 138.523438 80.441406 138.289062 80.726562 L 132.996094 87.242188 L 132.960938 87.285156 L 132.953125 87.296875 L 132.949219 87.296875 L 132.945312 87.304688 L 131.082031 89.601562 L 128.039062 93.34375 C 127.960938 93.445312 127.871094 93.535156 127.769531 93.617188 C 127.050781 94.203125 125.996094 94.09375 125.410156 93.375 L 120.546875 87.390625 L 120.539062 87.378906 C 120.304688 87.09375 119.972656 86.925781 119.625 86.890625 C 119.28125 86.855469 118.925781 86.945312 118.644531 87.167969 L 118.628906 87.179688 C 118.34375 87.414062 118.175781 87.746094 118.140625 88.09375 Z M 127.53125 98.179688 L 127.550781 98.164062 Z M 127.53125 98.179688 " fill-opacity="1" fill-rule="evenodd"/></g></svg>