<svg xmlns="http://www.w3.org/2000/svg" xmlns:xlink="http://www.w3.org/1999/xlink" width="300" zoomAndPan="magnify" viewBox="0 0 224.87999 225" height="300" preserveAspectRatio="xMidYMid meet" version="1.0"><defs><clipPath id="dee4f16fd5"><path d="M 63.144531 78.792969 L 162 78.792969 L 162 146.257812 L 63.144531 146.257812 Z M 63.144531 78.792969 " clip-rule="nonzero"/></clipPath></defs><g clip-path="url(#dee4f16fd5)"><path fill="#fab713" d="M 157.542969 85.292969 C 154.871094 80.566406 151.972656 79.699219 146.074219 79.367188 C 140.179688 78.96875 125.355469 78.800781 112.515625 78.800781 C 99.652344 78.800781 84.824219 78.96875 78.933594 79.359375 C 73.046875 79.699219 70.074219 80.558594 67.378906 85.292969 C 64.628906 90.015625 63.144531 98.148438 63.144531 112.46875 L 63.144531 112.515625 C 63.144531 126.773438 64.628906 134.96875 67.378906 139.640625 C 70.074219 144.371094 73.003906 145.226562 78.894531 145.625 C 84.789062 145.96875 99.632812 146.171875 112.5 146.171875 C 125.339844 146.171875 140.167969 145.96875 146.070312 145.628906 C 151.96875 145.234375 154.871094 144.375 157.542969 139.648438 C 160.316406 134.972656 161.726562 126.78125 161.726562 112.523438 L 161.726562 112.472656 C 161.726562 98.148438 160.320312 90.015625 157.542969 85.292969 Z M 100.113281 130.859375 L 100.113281 94.113281 L 130.875 112.484375 Z M 100.113281 130.859375 " fill-opacity="1" fill-rule="nonzero"/></g></svg>