<svg xmlns="http://www.w3.org/2000/svg" xmlns:xlink="http://www.w3.org/1999/xlink" width="1200" zoomAndPan="magnify" viewBox="0 0 900 397.499983" height="530" preserveAspectRatio="xMidYMid meet" version="1.0"><defs><clipPath id="7569f2dbb3"><path d="M 0.566406 0 L 899.433594 0 L 899.433594 397 L 0.566406 397 Z M 0.566406 0 " clip-rule="nonzero"/></clipPath><clipPath id="8641bec215"><path d="M 181 126.457031 L 280 126.457031 L 280 184 L 181 184 Z M 181 126.457031 " clip-rule="nonzero"/></clipPath><clipPath id="349b1bc7e3"><path d="M 7.269531 126.457031 L 106 126.457031 L 106 184 L 7.269531 184 Z M 7.269531 126.457031 " clip-rule="nonzero"/></clipPath><clipPath id="a050164d93"><path d="M 7.269531 154 L 106 154 L 106 194 L 7.269531 194 Z M 7.269531 154 " clip-rule="nonzero"/></clipPath><clipPath id="640937bdbb"><path d="M 94 206 L 193 206 L 193 244.808594 L 94 244.808594 Z M 94 206 " clip-rule="nonzero"/></clipPath><clipPath id="3f15c18f8d"><path d="M 268 177 L 366.816406 177 L 366.816406 235 L 268 235 Z M 268 177 " clip-rule="nonzero"/></clipPath><clipPath id="4371227fd1"><path d="M 268 206 L 366.816406 206 L 366.816406 244.808594 L 268 244.808594 Z M 268 206 " clip-rule="nonzero"/></clipPath><clipPath id="46e6ac5e01"><path d="M 270.226562 126.457031 L 629.773438 126.457031 L 629.773438 244.808594 L 270.226562 244.808594 Z M 270.226562 126.457031 " clip-rule="nonzero"/></clipPath><clipPath id="fd2de4ea2d"><path d="M 87 0.457031 L 186 0.457031 L 186 58 L 87 58 Z M 87 0.457031 " clip-rule="nonzero"/></clipPath><clipPath id="2a0bd35dc4"><path d="M 261 0.457031 L 359.773438 0.457031 L 359.773438 58 L 261 58 Z M 261 0.457031 " clip-rule="nonzero"/></clipPath><clipPath id="b05ca9e290"><path d="M 261 28 L 359.773438 28 L 359.773438 68 L 261 68 Z M 261 28 " clip-rule="nonzero"/></clipPath><clipPath id="07ae9cd0b3"><path d="M 174 80 L 273 80 L 273 118.492188 L 174 118.492188 Z M 174 80 " clip-rule="nonzero"/></clipPath><clipPath id="66900f9b0f"><path d="M 0.226562 51 L 99 51 L 99 109 L 0.226562 109 Z M 0.226562 51 " clip-rule="nonzero"/></clipPath><clipPath id="50e14d8b19"><path d="M 0.226562 80 L 99 80 L 99 118.492188 L 0.226562 118.492188 Z M 0.226562 80 " clip-rule="nonzero"/></clipPath><clipPath id="ea70fb1403"><rect x="0" width="360" y="0" height="119"/></clipPath><clipPath id="0bb35687c9"><path d="M 707 126.457031 L 806 126.457031 L 806 184 L 707 184 Z M 707 126.457031 " clip-rule="nonzero"/></clipPath><clipPath id="326580ce20"><path d="M 532.800781 126.457031 L 632 126.457031 L 632 184 L 532.800781 184 Z M 532.800781 126.457031 " clip-rule="nonzero"/></clipPath><clipPath id="766c2e6286"><path d="M 532.800781 154 L 632 154 L 632 194 L 532.800781 194 Z M 532.800781 154 " clip-rule="nonzero"/></clipPath><clipPath id="d6e9a1e216"><path d="M 619 206 L 719 206 L 719 244.808594 L 619 244.808594 Z M 619 206 " clip-rule="nonzero"/></clipPath><clipPath id="435b36f871"><path d="M 794 177 L 892.347656 177 L 892.347656 235 L 794 235 Z M 794 177 " clip-rule="nonzero"/></clipPath><clipPath id="aeb292b37d"><path d="M 794 206 L 892.347656 206 L 892.347656 244.808594 L 794 244.808594 Z M 794 206 " clip-rule="nonzero"/></clipPath><clipPath id="e777222b83"><path d="M 0.566406 126.457031 L 105.699219 126.457031 L 105.699219 244.808594 L 0.566406 244.808594 Z M 0.566406 126.457031 " clip-rule="nonzero"/></clipPath><clipPath id="2c0da89140"><path d="M 0.566406 71 L 26 71 L 26 98 L 0.566406 98 Z M 0.566406 71 " clip-rule="nonzero"/></clipPath><clipPath id="4adf844151"><path d="M 0.566406 62 L 2 62 L 2 81 L 0.566406 81 Z M 0.566406 62 " clip-rule="nonzero"/></clipPath><clipPath id="90fb129b26"><path d="M 0.566406 50 L 3 50 L 3 72 L 0.566406 72 Z M 0.566406 50 " clip-rule="nonzero"/></clipPath><clipPath id="cf6b63168f"><path d="M 0.566406 59 L 28 59 L 28 90 L 0.566406 90 Z M 0.566406 59 " clip-rule="nonzero"/></clipPath><clipPath id="f4ae226c32"><path d="M 7 0.457031 L 105.699219 0.457031 L 105.699219 58 L 7 58 Z M 7 0.457031 " clip-rule="nonzero"/></clipPath><clipPath id="6c0da4cfb9"><path d="M 7 28 L 105.699219 28 L 105.699219 68 L 7 68 Z M 7 28 " clip-rule="nonzero"/></clipPath><clipPath id="272ec63659"><path d="M 0.566406 80 L 19 80 L 19 118.492188 L 0.566406 118.492188 Z M 0.566406 80 " clip-rule="nonzero"/></clipPath><clipPath id="2d1c22c1bd"><path d="M 0.566406 51 L 19 51 L 19 109 L 0.566406 109 Z M 0.566406 51 " clip-rule="nonzero"/></clipPath><clipPath id="7f6d85e83d"><rect x="0" width="106" y="0" height="119"/></clipPath><clipPath id="d8f9f6bbfe"><path d="M 794.566406 126.457031 L 899.433594 126.457031 L 899.433594 244.808594 L 794.566406 244.808594 Z M 794.566406 126.457031 " clip-rule="nonzero"/></clipPath><clipPath id="d79c71971f"><path d="M 67 70 L 105.433594 70 L 105.433594 97 L 67 97 Z M 67 70 " clip-rule="nonzero"/></clipPath><clipPath id="9395e8570f"><path d="M 86 29 L 105.433594 29 L 105.433594 52 L 86 52 Z M 86 29 " clip-rule="nonzero"/></clipPath><clipPath id="b1b1903031"><path d="M 85 38 L 105.433594 38 L 105.433594 64 L 85 64 Z M 85 38 " clip-rule="nonzero"/></clipPath><clipPath id="fc8395b843"><path d="M 62 58 L 105.433594 58 L 105.433594 89 L 62 89 Z M 62 58 " clip-rule="nonzero"/></clipPath><clipPath id="303510e0fe"><path d="M 87 0.457031 L 105.433594 0.457031 L 105.433594 58 L 87 58 Z M 87 0.457031 " clip-rule="nonzero"/></clipPath><clipPath id="7b0d1b3939"><path d="M 87 28 L 105.433594 28 L 105.433594 68 L 87 68 Z M 87 28 " clip-rule="nonzero"/></clipPath><clipPath id="aaeb431875"><path d="M 0.566406 51 L 99 51 L 99 109 L 0.566406 109 Z M 0.566406 51 " clip-rule="nonzero"/></clipPath><clipPath id="ae1170fa17"><path d="M 0.566406 80 L 99 80 L 99 118.492188 L 0.566406 118.492188 Z M 0.566406 80 " clip-rule="nonzero"/></clipPath><clipPath id="a0ab5f1d00"><rect x="0" width="106" y="0" height="119"/></clipPath></defs><g clip-path="url(#7569f2dbb3)"><path fill="#ffffff" d="M 0.566406 0 L 899.433594 0 L 899.433594 397 L 0.566406 397 Z M 0.566406 0 " fill-opacity="1" fill-rule="nonzero"/><path fill="#504081" d="M 0.566406 0 L 899.433594 0 L 899.433594 397 L 0.566406 397 Z M 0.566406 0 " fill-opacity="1" fill-rule="nonzero"/></g><path fill="#fab713" d="M 233.148438 185.78125 L 235.742188 181.289062 L 257.980469 194.128906 L 255.386719 198.621094 Z M 233.148438 185.78125 " fill-opacity="1" fill-rule="nonzero"/><path fill="#fab713" d="M 259.792969 201.160156 L 262.386719 196.667969 L 299.621094 218.167969 L 297.027344 222.660156 Z M 259.792969 201.160156 " fill-opacity="1" fill-rule="nonzero"/><path fill="#fab713" d="M 248.082031 159.914062 L 250.675781 155.421875 L 281.25 173.074219 L 278.65625 177.566406 Z M 248.082031 159.914062 " fill-opacity="1" fill-rule="nonzero"/><path fill="#fab713" d="M 243.105469 168.535156 L 245.699219 164.042969 L 282.035156 185.023438 L 279.441406 189.515625 Z M 243.105469 168.535156 " fill-opacity="1" fill-rule="nonzero"/><path fill="#fab713" d="M 238.125 177.160156 L 240.71875 172.667969 L 256.691406 181.886719 L 254.097656 186.378906 Z M 238.125 177.160156 " fill-opacity="1" fill-rule="nonzero"/><path fill="#fab713" d="M 283.972656 192.128906 L 286.566406 187.636719 L 309.578125 200.921875 L 306.984375 205.414062 Z M 283.972656 192.128906 " fill-opacity="1" fill-rule="nonzero"/><path fill="#fab713" d="M 283.257812 180.21875 L 285.851562 175.726562 L 314.558594 192.300781 L 311.964844 196.792969 Z M 283.257812 180.21875 " fill-opacity="1" fill-rule="nonzero"/><path fill="#fab713" d="M 258.117188 188.695312 L 260.710938 184.203125 L 304.597656 209.542969 L 302.003906 214.035156 Z M 258.117188 188.695312 " fill-opacity="1" fill-rule="nonzero"/><path fill="#4bfe5a" d="M 60.578125 186.800781 L 63.171875 182.308594 L 85.410156 195.148438 L 82.816406 199.640625 Z M 60.578125 186.800781 " fill-opacity="1" fill-rule="nonzero"/><path fill="#4bfe5a" d="M 87.21875 202.179688 L 89.8125 197.6875 L 127.050781 219.183594 L 124.457031 223.675781 Z M 87.21875 202.179688 " fill-opacity="1" fill-rule="nonzero"/><path fill="#4bfe5a" d="M 75.511719 160.933594 L 78.105469 156.441406 L 108.679688 174.089844 L 106.085938 178.582031 Z M 75.511719 160.933594 " fill-opacity="1" fill-rule="nonzero"/><path fill="#4bfe5a" d="M 70.53125 169.554688 L 73.125 165.0625 L 109.460938 186.039062 L 106.867188 190.53125 Z M 70.53125 169.554688 " fill-opacity="1" fill-rule="nonzero"/><path fill="#4bfe5a" d="M 65.554688 178.175781 L 68.148438 173.683594 L 84.117188 182.90625 L 81.523438 187.398438 Z M 65.554688 178.175781 " fill-opacity="1" fill-rule="nonzero"/><path fill="#4bfe5a" d="M 111.398438 193.144531 L 113.992188 188.652344 L 137.003906 201.941406 L 134.410156 206.433594 Z M 111.398438 193.144531 " fill-opacity="1" fill-rule="nonzero"/><path fill="#4bfe5a" d="M 110.6875 181.238281 L 113.28125 176.746094 L 141.984375 193.320312 L 139.394531 197.8125 Z M 110.6875 181.238281 " fill-opacity="1" fill-rule="nonzero"/><path fill="#4bfe5a" d="M 85.542969 189.714844 L 88.136719 185.222656 L 132.027344 210.5625 L 129.433594 215.054688 Z M 85.542969 189.714844 " fill-opacity="1" fill-rule="nonzero"/><path fill="#fef74b" d="M 203.222656 194.128906 L 225.460938 181.289062 L 228.054688 185.78125 L 205.816406 198.621094 Z M 203.222656 194.128906 " fill-opacity="1" fill-rule="nonzero"/><path fill="#fef74b" d="M 161.585938 218.167969 L 198.820312 196.667969 L 201.414062 201.160156 L 164.179688 222.660156 Z M 161.585938 218.167969 " fill-opacity="1" fill-rule="nonzero"/><path fill="#fef74b" d="M 179.953125 173.074219 L 210.527344 155.421875 L 213.121094 159.914062 L 182.546875 177.566406 Z M 179.953125 173.074219 " fill-opacity="1" fill-rule="nonzero"/><path fill="#fef74b" d="M 179.167969 185.023438 L 215.503906 164.042969 L 218.097656 168.535156 L 181.761719 189.515625 Z M 179.167969 185.023438 " fill-opacity="1" fill-rule="nonzero"/><path fill="#fef74b" d="M 204.511719 181.886719 L 220.484375 172.664062 L 223.078125 177.15625 L 207.105469 186.378906 Z M 204.511719 181.886719 " fill-opacity="1" fill-rule="nonzero"/><path fill="#fef74b" d="M 151.628906 200.921875 L 174.640625 187.636719 L 177.234375 192.128906 L 154.222656 205.414062 Z M 151.628906 200.921875 " fill-opacity="1" fill-rule="nonzero"/><path fill="#fef74b" d="M 146.648438 192.300781 L 175.351562 175.730469 L 177.945312 180.222656 L 149.242188 196.792969 Z M 146.648438 192.300781 " fill-opacity="1" fill-rule="nonzero"/><path fill="#fef74b" d="M 156.605469 209.542969 L 200.496094 184.203125 L 203.089844 188.695312 L 159.199219 214.035156 Z M 156.605469 209.542969 " fill-opacity="1" fill-rule="nonzero"/><g clip-path="url(#8641bec215)"><path fill="#f7f7f7" d="M 279.703125 154.828125 L 230.597656 183.179688 L 181.496094 154.828125 L 230.597656 126.476562 Z M 279.703125 154.828125 " fill-opacity="1" fill-rule="nonzero"/></g><path fill="#fef74b" d="M 230.601562 193.039062 L 279.703125 164.691406 L 279.703125 154.828125 L 230.601562 183.171875 L 181.496094 154.828125 L 181.496094 164.691406 L 230.597656 193.039062 Z M 230.601562 193.039062 " fill-opacity="1" fill-rule="nonzero"/><g clip-path="url(#349b1bc7e3)"><path fill="#f7f7f7" d="M 7.273438 154.828125 L 56.375 183.179688 L 105.476562 154.828125 L 56.375 126.476562 Z M 7.273438 154.828125 " fill-opacity="1" fill-rule="nonzero"/></g><g clip-path="url(#a050164d93)"><path fill="#646da4" d="M 56.375 193.039062 L 105.476562 164.691406 L 105.476562 154.828125 L 56.375 183.175781 L 7.269531 154.828125 L 7.269531 164.691406 L 56.371094 193.039062 Z M 56.375 193.039062 " fill-opacity="1" fill-rule="nonzero"/></g><g clip-path="url(#640937bdbb)"><path fill="#4bfe5a" d="M 143.488281 244.480469 L 192.589844 216.136719 L 192.589844 206.273438 L 143.488281 234.617188 L 94.382812 206.273438 L 94.382812 216.136719 L 143.484375 244.480469 Z M 143.488281 244.480469 " fill-opacity="1" fill-rule="nonzero"/></g><g clip-path="url(#3f15c18f8d)"><path fill="#f7f7f7" d="M 366.816406 206.273438 L 317.710938 234.621094 L 268.609375 206.273438 L 317.710938 177.921875 Z M 366.816406 206.273438 " fill-opacity="1" fill-rule="nonzero"/></g><g clip-path="url(#4371227fd1)"><path fill="#fab713" d="M 317.714844 244.480469 L 366.816406 216.136719 L 366.816406 206.273438 L 317.714844 234.617188 L 268.609375 206.273438 L 268.609375 216.136719 L 317.710938 244.480469 Z M 317.714844 244.480469 " fill-opacity="1" fill-rule="nonzero"/></g><path fill="#f7f7f7" d="M 94.386719 206.273438 L 143.488281 234.621094 L 192.589844 206.273438 L 143.488281 177.921875 Z M 94.386719 206.273438 " fill-opacity="1" fill-rule="nonzero"/><g clip-path="url(#46e6ac5e01)"><g transform="matrix(1, 0, 0, 1, 270, 126)"><g clip-path="url(#ea70fb1403)"><path fill="#fab713" d="M 133.894531 59.78125 L 131.300781 55.289062 L 109.0625 68.128906 L 111.65625 72.621094 Z M 133.894531 59.78125 " fill-opacity="1" fill-rule="nonzero"/><path fill="#fab713" d="M 107.25 75.160156 L 104.65625 70.667969 L 67.421875 92.167969 L 70.015625 96.660156 Z M 107.25 75.160156 " fill-opacity="1" fill-rule="nonzero"/><path fill="#fab713" d="M 118.960938 33.914062 L 116.367188 29.421875 L 85.792969 47.074219 L 88.386719 51.566406 Z M 118.960938 33.914062 " fill-opacity="1" fill-rule="nonzero"/><path fill="#fab713" d="M 123.9375 42.535156 L 121.34375 38.042969 L 85.007812 59.023438 L 87.601562 63.515625 Z M 123.9375 42.535156 " fill-opacity="1" fill-rule="nonzero"/><path fill="#fab713" d="M 128.917969 51.160156 L 126.324219 46.667969 L 110.355469 55.886719 L 112.949219 60.378906 Z M 128.917969 51.160156 " fill-opacity="1" fill-rule="nonzero"/><path fill="#fab713" d="M 83.070312 66.128906 L 80.480469 61.636719 L 57.464844 74.921875 L 60.058594 79.414062 Z M 83.070312 66.128906 " fill-opacity="1" fill-rule="nonzero"/><path fill="#fab713" d="M 83.785156 54.21875 L 81.191406 49.726562 L 52.484375 66.300781 L 55.078125 70.792969 Z M 83.785156 54.21875 " fill-opacity="1" fill-rule="nonzero"/><path fill="#fab713" d="M 108.929688 62.695312 L 106.335938 58.203125 L 62.445312 83.542969 L 65.039062 88.035156 Z M 108.929688 62.695312 " fill-opacity="1" fill-rule="nonzero"/><path fill="#4bfe5a" d="M 306.46875 60.800781 L 303.875 56.308594 L 281.632812 69.148438 L 284.226562 73.640625 Z M 306.46875 60.800781 " fill-opacity="1" fill-rule="nonzero"/><path fill="#4bfe5a" d="M 279.824219 76.179688 L 277.230469 71.6875 L 239.996094 93.183594 L 242.589844 97.675781 Z M 279.824219 76.179688 " fill-opacity="1" fill-rule="nonzero"/><path fill="#4bfe5a" d="M 291.53125 34.933594 L 288.9375 30.441406 L 258.363281 48.089844 L 260.957031 52.582031 Z M 291.53125 34.933594 " fill-opacity="1" fill-rule="nonzero"/><path fill="#4bfe5a" d="M 296.511719 43.554688 L 293.917969 39.0625 L 257.582031 60.039062 L 260.175781 64.53125 Z M 296.511719 43.554688 " fill-opacity="1" fill-rule="nonzero"/><path fill="#4bfe5a" d="M 301.488281 52.175781 L 298.894531 47.683594 L 282.925781 56.90625 L 285.519531 61.398438 Z M 301.488281 52.175781 " fill-opacity="1" fill-rule="nonzero"/><path fill="#4bfe5a" d="M 255.644531 67.144531 L 253.050781 62.652344 L 230.039062 75.941406 L 232.632812 80.433594 Z M 255.644531 67.144531 " fill-opacity="1" fill-rule="nonzero"/><path fill="#4bfe5a" d="M 256.355469 55.238281 L 253.761719 50.746094 L 225.058594 67.320312 L 227.652344 71.8125 Z M 256.355469 55.238281 " fill-opacity="1" fill-rule="nonzero"/><path fill="#4bfe5a" d="M 281.5 63.714844 L 278.90625 59.222656 L 235.015625 84.5625 L 237.609375 89.054688 Z M 281.5 63.714844 " fill-opacity="1" fill-rule="nonzero"/><path fill="#fef74b" d="M 163.820312 68.128906 L 141.582031 55.289062 L 138.988281 59.78125 L 161.226562 72.621094 Z M 163.820312 68.128906 " fill-opacity="1" fill-rule="nonzero"/><path fill="#fef74b" d="M 205.457031 92.167969 L 168.222656 70.667969 L 165.628906 75.160156 L 202.863281 96.660156 Z M 205.457031 92.167969 " fill-opacity="1" fill-rule="nonzero"/><path fill="#fef74b" d="M 187.089844 47.074219 L 156.515625 29.421875 L 153.921875 33.914062 L 184.496094 51.566406 Z M 187.089844 47.074219 " fill-opacity="1" fill-rule="nonzero"/><path fill="#fef74b" d="M 187.875 59.023438 L 151.539062 38.042969 L 148.945312 42.535156 L 185.28125 63.515625 Z M 187.875 59.023438 " fill-opacity="1" fill-rule="nonzero"/><path fill="#fef74b" d="M 162.53125 55.886719 L 146.5625 46.664062 L 143.96875 51.15625 L 159.9375 60.378906 Z M 162.53125 55.886719 " fill-opacity="1" fill-rule="nonzero"/><path fill="#fef74b" d="M 215.414062 74.921875 L 192.402344 61.636719 L 189.808594 66.128906 L 212.820312 79.414062 Z M 215.414062 74.921875 " fill-opacity="1" fill-rule="nonzero"/><path fill="#fef74b" d="M 220.394531 66.300781 L 191.691406 49.730469 L 189.097656 54.222656 L 217.804688 70.792969 Z M 220.394531 66.300781 " fill-opacity="1" fill-rule="nonzero"/><path fill="#fef74b" d="M 210.4375 83.542969 L 166.546875 58.203125 L 163.953125 62.695312 L 207.84375 88.035156 Z M 210.4375 83.542969 " fill-opacity="1" fill-rule="nonzero"/><g clip-path="url(#fd2de4ea2d)"><path fill="#f7f7f7" d="M 87.34375 28.828125 L 136.445312 57.179688 L 185.546875 28.828125 L 136.445312 0.476562 Z M 87.34375 28.828125 " fill-opacity="1" fill-rule="nonzero"/></g><path fill="#fef74b" d="M 136.441406 67.039062 L 87.339844 38.691406 L 87.339844 28.828125 L 136.445312 57.171875 L 185.546875 28.828125 L 185.546875 38.691406 L 136.445312 67.039062 Z M 136.441406 67.039062 " fill-opacity="1" fill-rule="nonzero"/><g clip-path="url(#2a0bd35dc4)"><path fill="#f7f7f7" d="M 359.773438 28.828125 L 310.667969 57.179688 L 261.566406 28.828125 L 310.667969 0.476562 Z M 359.773438 28.828125 " fill-opacity="1" fill-rule="nonzero"/></g><g clip-path="url(#b05ca9e290)"><path fill="#646da4" d="M 310.667969 67.039062 L 261.566406 38.691406 L 261.566406 28.828125 L 310.667969 57.175781 L 359.773438 28.828125 L 359.773438 38.691406 L 310.671875 67.039062 Z M 310.667969 67.039062 " fill-opacity="1" fill-rule="nonzero"/></g><g clip-path="url(#07ae9cd0b3)"><path fill="#4bfe5a" d="M 223.554688 118.480469 L 174.453125 90.136719 L 174.453125 80.273438 L 223.554688 108.617188 L 272.660156 80.273438 L 272.660156 90.136719 L 223.558594 118.480469 Z M 223.554688 118.480469 " fill-opacity="1" fill-rule="nonzero"/></g><g clip-path="url(#66900f9b0f)"><path fill="#f7f7f7" d="M 0.226562 80.273438 L 49.332031 108.621094 L 98.433594 80.273438 L 49.332031 51.921875 Z M 0.226562 80.273438 " fill-opacity="1" fill-rule="nonzero"/></g><g clip-path="url(#50e14d8b19)"><path fill="#fab713" d="M 49.328125 118.480469 L 0.226562 90.136719 L 0.226562 80.273438 L 49.328125 108.617188 L 98.433594 80.273438 L 98.433594 90.136719 L 49.332031 118.480469 Z M 49.328125 118.480469 " fill-opacity="1" fill-rule="nonzero"/></g><path fill="#f7f7f7" d="M 272.65625 80.273438 L 223.554688 108.621094 L 174.453125 80.273438 L 223.554688 51.921875 Z M 272.65625 80.273438 " fill-opacity="1" fill-rule="nonzero"/></g></g></g><path fill="#fab713" d="M 758.679688 185.78125 L 761.273438 181.289062 L 783.511719 194.128906 L 780.917969 198.621094 Z M 758.679688 185.78125 " fill-opacity="1" fill-rule="nonzero"/><path fill="#fab713" d="M 785.324219 201.160156 L 787.917969 196.667969 L 825.152344 218.167969 L 822.558594 222.660156 Z M 785.324219 201.160156 " fill-opacity="1" fill-rule="nonzero"/><path fill="#fab713" d="M 773.613281 159.914062 L 776.207031 155.421875 L 806.78125 173.074219 L 804.1875 177.566406 Z M 773.613281 159.914062 " fill-opacity="1" fill-rule="nonzero"/><path fill="#fab713" d="M 768.636719 168.535156 L 771.230469 164.042969 L 807.566406 185.023438 L 804.972656 189.515625 Z M 768.636719 168.535156 " fill-opacity="1" fill-rule="nonzero"/><path fill="#fab713" d="M 763.660156 177.160156 L 766.25 172.667969 L 782.222656 181.886719 L 779.628906 186.378906 Z M 763.660156 177.160156 " fill-opacity="1" fill-rule="nonzero"/><path fill="#fab713" d="M 809.503906 192.128906 L 812.097656 187.636719 L 835.109375 200.921875 L 832.515625 205.414062 Z M 809.503906 192.128906 " fill-opacity="1" fill-rule="nonzero"/><path fill="#fab713" d="M 808.789062 180.21875 L 811.382812 175.726562 L 840.089844 192.300781 L 837.496094 196.792969 Z M 808.789062 180.21875 " fill-opacity="1" fill-rule="nonzero"/><path fill="#fab713" d="M 783.648438 188.695312 L 786.242188 184.203125 L 830.128906 209.542969 L 827.535156 214.035156 Z M 783.648438 188.695312 " fill-opacity="1" fill-rule="nonzero"/><path fill="#4bfe5a" d="M 586.109375 186.800781 L 588.703125 182.308594 L 610.941406 195.148438 L 608.347656 199.640625 Z M 586.109375 186.800781 " fill-opacity="1" fill-rule="nonzero"/><path fill="#4bfe5a" d="M 612.75 202.179688 L 615.34375 197.6875 L 652.582031 219.183594 L 649.988281 223.675781 Z M 612.75 202.179688 " fill-opacity="1" fill-rule="nonzero"/><path fill="#4bfe5a" d="M 601.042969 160.933594 L 603.636719 156.441406 L 634.210938 174.089844 L 631.617188 178.582031 Z M 601.042969 160.933594 " fill-opacity="1" fill-rule="nonzero"/><path fill="#4bfe5a" d="M 596.0625 169.554688 L 598.65625 165.0625 L 634.992188 186.039062 L 632.398438 190.53125 Z M 596.0625 169.554688 " fill-opacity="1" fill-rule="nonzero"/><path fill="#4bfe5a" d="M 591.085938 178.175781 L 593.679688 173.683594 L 609.648438 182.90625 L 607.054688 187.398438 Z M 591.085938 178.175781 " fill-opacity="1" fill-rule="nonzero"/><path fill="#4bfe5a" d="M 636.929688 193.144531 L 639.523438 188.652344 L 662.535156 201.941406 L 659.941406 206.433594 Z M 636.929688 193.144531 " fill-opacity="1" fill-rule="nonzero"/><path fill="#4bfe5a" d="M 636.21875 181.238281 L 638.8125 176.746094 L 667.519531 193.320312 L 664.925781 197.8125 Z M 636.21875 181.238281 " fill-opacity="1" fill-rule="nonzero"/><path fill="#4bfe5a" d="M 611.074219 189.714844 L 613.667969 185.222656 L 657.558594 210.5625 L 654.964844 215.054688 Z M 611.074219 189.714844 " fill-opacity="1" fill-rule="nonzero"/><path fill="#fef74b" d="M 728.753906 194.128906 L 750.992188 181.289062 L 753.585938 185.78125 L 731.347656 198.621094 Z M 728.753906 194.128906 " fill-opacity="1" fill-rule="nonzero"/><path fill="#fef74b" d="M 687.117188 218.167969 L 724.351562 196.667969 L 726.945312 201.160156 L 689.710938 222.660156 Z M 687.117188 218.167969 " fill-opacity="1" fill-rule="nonzero"/><path fill="#fef74b" d="M 705.484375 173.074219 L 736.058594 155.421875 L 738.652344 159.914062 L 708.078125 177.566406 Z M 705.484375 173.074219 " fill-opacity="1" fill-rule="nonzero"/><path fill="#fef74b" d="M 704.699219 185.023438 L 741.035156 164.042969 L 743.628906 168.535156 L 707.292969 189.515625 Z M 704.699219 185.023438 " fill-opacity="1" fill-rule="nonzero"/><path fill="#fef74b" d="M 730.046875 181.886719 L 746.015625 172.664062 L 748.609375 177.15625 L 732.640625 186.378906 Z M 730.046875 181.886719 " fill-opacity="1" fill-rule="nonzero"/><path fill="#fef74b" d="M 677.160156 200.921875 L 700.171875 187.636719 L 702.765625 192.128906 L 679.753906 205.414062 Z M 677.160156 200.921875 " fill-opacity="1" fill-rule="nonzero"/><path fill="#fef74b" d="M 672.179688 192.300781 L 700.882812 175.730469 L 703.476562 180.222656 L 674.773438 196.792969 Z M 672.179688 192.300781 " fill-opacity="1" fill-rule="nonzero"/><path fill="#fef74b" d="M 682.136719 209.542969 L 726.027344 184.203125 L 728.621094 188.695312 L 684.730469 214.035156 Z M 682.136719 209.542969 " fill-opacity="1" fill-rule="nonzero"/><g clip-path="url(#0bb35687c9)"><path fill="#f7f7f7" d="M 805.234375 154.828125 L 756.128906 183.179688 L 707.027344 154.828125 L 756.128906 126.476562 Z M 805.234375 154.828125 " fill-opacity="1" fill-rule="nonzero"/></g><path fill="#fef74b" d="M 756.132812 193.039062 L 805.234375 164.691406 L 805.234375 154.828125 L 756.132812 183.171875 L 707.027344 154.828125 L 707.027344 164.691406 L 756.128906 193.039062 Z M 756.132812 193.039062 " fill-opacity="1" fill-rule="nonzero"/><g clip-path="url(#326580ce20)"><path fill="#f7f7f7" d="M 532.804688 154.828125 L 581.90625 183.179688 L 631.007812 154.828125 L 581.90625 126.476562 Z M 532.804688 154.828125 " fill-opacity="1" fill-rule="nonzero"/></g><g clip-path="url(#766c2e6286)"><path fill="#646da4" d="M 581.90625 193.039062 L 631.007812 164.691406 L 631.007812 154.828125 L 581.90625 183.175781 L 532.800781 154.828125 L 532.800781 164.691406 L 581.902344 193.039062 Z M 581.90625 193.039062 " fill-opacity="1" fill-rule="nonzero"/></g><g clip-path="url(#d6e9a1e216)"><path fill="#4bfe5a" d="M 669.019531 244.480469 L 718.121094 216.136719 L 718.121094 206.273438 L 669.019531 234.617188 L 619.914062 206.273438 L 619.914062 216.136719 L 669.015625 244.480469 Z M 669.019531 244.480469 " fill-opacity="1" fill-rule="nonzero"/></g><g clip-path="url(#435b36f871)"><path fill="#f7f7f7" d="M 892.347656 206.273438 L 843.242188 234.621094 L 794.140625 206.273438 L 843.242188 177.921875 Z M 892.347656 206.273438 " fill-opacity="1" fill-rule="nonzero"/></g><g clip-path="url(#aeb292b37d)"><path fill="#fab713" d="M 843.246094 244.480469 L 892.347656 216.136719 L 892.347656 206.273438 L 843.246094 234.617188 L 794.140625 206.273438 L 794.140625 216.136719 Z M 843.246094 244.480469 " fill-opacity="1" fill-rule="nonzero"/></g><path fill="#f7f7f7" d="M 619.917969 206.273438 L 669.019531 234.621094 L 718.121094 206.273438 L 669.019531 177.921875 Z M 619.917969 206.273438 " fill-opacity="1" fill-rule="nonzero"/><g clip-path="url(#e777222b83)"><g transform="matrix(1, 0, 0, 1, 0.000000000000000111, 126)"><g clip-path="url(#7f6d85e83d)"><path fill="#4bfe5a" d="M 52.394531 60.800781 L 49.800781 56.308594 L 27.558594 69.148438 L 30.152344 73.640625 Z M 52.394531 60.800781 " fill-opacity="1" fill-rule="nonzero"/><g clip-path="url(#2c0da89140)"><path fill="#4bfe5a" d="M 25.75 76.179688 L 23.15625 71.6875 L -14.078125 93.183594 L -11.484375 97.675781 Z M 25.75 76.179688 " fill-opacity="1" fill-rule="nonzero"/></g><path fill="#4bfe5a" d="M 37.457031 34.933594 L 34.863281 30.441406 L 4.289062 48.089844 L 6.882812 52.582031 Z M 37.457031 34.933594 " fill-opacity="1" fill-rule="nonzero"/><path fill="#4bfe5a" d="M 42.4375 43.554688 L 39.84375 39.0625 L 3.507812 60.039062 L 6.101562 64.53125 Z M 42.4375 43.554688 " fill-opacity="1" fill-rule="nonzero"/><path fill="#4bfe5a" d="M 47.414062 52.175781 L 44.820312 47.683594 L 28.851562 56.90625 L 31.445312 61.398438 Z M 47.414062 52.175781 " fill-opacity="1" fill-rule="nonzero"/><g clip-path="url(#4adf844151)"><path fill="#4bfe5a" d="M 1.570312 67.144531 L -1.023438 62.652344 L -24.035156 75.941406 L -21.441406 80.433594 Z M 1.570312 67.144531 " fill-opacity="1" fill-rule="nonzero"/></g><g clip-path="url(#90fb129b26)"><path fill="#4bfe5a" d="M 2.28125 55.238281 L -0.3125 50.746094 L -29.015625 67.320312 L -26.421875 71.8125 Z M 2.28125 55.238281 " fill-opacity="1" fill-rule="nonzero"/></g><g clip-path="url(#cf6b63168f)"><path fill="#4bfe5a" d="M 27.425781 63.714844 L 24.832031 59.222656 L -19.058594 84.5625 L -16.464844 89.054688 Z M 27.425781 63.714844 " fill-opacity="1" fill-rule="nonzero"/></g><g clip-path="url(#f4ae226c32)"><path fill="#f7f7f7" d="M 105.699219 28.828125 L 56.59375 57.179688 L 7.492188 28.828125 L 56.59375 0.476562 Z M 105.699219 28.828125 " fill-opacity="1" fill-rule="nonzero"/></g><g clip-path="url(#6c0da4cfb9)"><path fill="#646da4" d="M 56.597656 67.039062 L 7.492188 38.691406 L 7.492188 28.828125 L 56.597656 57.175781 L 105.699219 28.828125 L 105.699219 38.691406 Z M 56.597656 67.039062 " fill-opacity="1" fill-rule="nonzero"/></g><g clip-path="url(#272ec63659)"><path fill="#4bfe5a" d="M -30.519531 118.480469 L -79.621094 90.136719 L -79.621094 80.273438 L -30.515625 108.617188 L 18.585938 80.273438 L 18.585938 90.136719 L -30.515625 118.480469 Z M -30.519531 118.480469 " fill-opacity="1" fill-rule="nonzero"/></g><g clip-path="url(#2d1c22c1bd)"><path fill="#f7f7f7" d="M 18.585938 80.273438 L -30.519531 108.621094 L -79.621094 80.273438 L -30.519531 51.921875 Z M 18.585938 80.273438 " fill-opacity="1" fill-rule="nonzero"/></g></g></g></g><g clip-path="url(#d8f9f6bbfe)"><g transform="matrix(1, 0, 0, 1, 794, 126)"><g clip-path="url(#a0ab5f1d00)"><g clip-path="url(#d79c71971f)"><path fill="#fab713" d="M 107.589844 75.160156 L 105 70.667969 L 67.761719 92.167969 L 70.355469 96.660156 Z M 107.589844 75.160156 " fill-opacity="1" fill-rule="nonzero"/></g><g clip-path="url(#9395e8570f)"><path fill="#fab713" d="M 119.300781 33.914062 L 116.707031 29.421875 L 86.132812 47.074219 L 88.726562 51.566406 Z M 119.300781 33.914062 " fill-opacity="1" fill-rule="nonzero"/></g><g clip-path="url(#b1b1903031)"><path fill="#fab713" d="M 124.277344 42.535156 L 121.6875 38.042969 L 85.351562 59.023438 L 87.945312 63.515625 Z M 124.277344 42.535156 " fill-opacity="1" fill-rule="nonzero"/></g><path fill="#fab713" d="M 83.414062 66.128906 L 80.820312 61.636719 L 57.804688 74.921875 L 60.398438 79.414062 Z M 83.414062 66.128906 " fill-opacity="1" fill-rule="nonzero"/><path fill="#fab713" d="M 84.125 54.21875 L 81.53125 49.726562 L 52.824219 66.300781 L 55.417969 70.792969 Z M 84.125 54.21875 " fill-opacity="1" fill-rule="nonzero"/><g clip-path="url(#fc8395b843)"><path fill="#fab713" d="M 109.269531 62.695312 L 106.675781 58.203125 L 62.785156 83.542969 L 65.378906 88.035156 Z M 109.269531 62.695312 " fill-opacity="1" fill-rule="nonzero"/></g><g clip-path="url(#303510e0fe)"><path fill="#f7f7f7" d="M 87.683594 28.828125 L 136.785156 57.179688 L 185.886719 28.828125 L 136.785156 0.476562 Z M 87.683594 28.828125 " fill-opacity="1" fill-rule="nonzero"/></g><g clip-path="url(#7b0d1b3939)"><path fill="#fef74b" d="M 136.78125 67.039062 L 87.679688 38.691406 L 87.679688 28.828125 L 136.785156 57.171875 L 185.886719 28.828125 L 185.886719 38.691406 L 136.785156 67.039062 Z M 136.78125 67.039062 " fill-opacity="1" fill-rule="nonzero"/></g><g clip-path="url(#aaeb431875)"><path fill="#f7f7f7" d="M 0.570312 80.273438 L 49.671875 108.621094 L 98.773438 80.273438 L 49.671875 51.921875 Z M 0.570312 80.273438 " fill-opacity="1" fill-rule="nonzero"/></g><g clip-path="url(#ae1170fa17)"><path fill="#fab713" d="M 49.667969 118.480469 L 0.566406 90.136719 L 0.566406 80.273438 L 49.671875 108.617188 L 98.773438 80.273438 L 98.773438 90.136719 L 49.671875 118.480469 Z M 49.667969 118.480469 " fill-opacity="1" fill-rule="nonzero"/></g></g></g></g></svg>